G04*
G04 #@! TF.GenerationSoftware,Altium Limited,Altium Designer,21.2.2 (38)*
G04*
G04 Layer_Physical_Order=2*
G04 Layer_Color=32768*
%FSLAX24Y24*%
%MOIN*%
G70*
G04*
G04 #@! TF.SameCoordinates,7BEC17FB-94DA-460C-997F-5D10B4D38A6F*
G04*
G04*
G04 #@! TF.FilePolarity,Negative*
G04*
G01*
G75*
%ADD51C,0.0400*%
%ADD52R,0.1950X3.9300*%
%ADD53C,0.1581*%
%ADD54C,0.0514*%
%ADD55C,0.0280*%
D51*
X-1969Y-19685D02*
Y19685D01*
X41339D01*
Y-19685D02*
Y19685D01*
X-1969Y-19685D02*
X41339D01*
X394Y19685D02*
G03*
X0Y19291I-0J-394D01*
G01*
X19685D02*
G03*
X19291Y19685I-394J0D01*
G01*
X19291Y0D02*
G03*
X19685Y394I0J394D01*
G01*
X0Y394D02*
G03*
X394Y0I394J0D01*
G01*
X0Y19291D02*
X0Y394D01*
X394Y19685D02*
X19291D01*
X19685Y394D02*
Y19291D01*
X394Y0D02*
X19291D01*
X20079Y19685D02*
G03*
X19685Y19291I-0J-394D01*
G01*
X39370D02*
G03*
X38976Y19685I-394J0D01*
G01*
X38976Y0D02*
G03*
X39370Y394I0J394D01*
G01*
X19685Y394D02*
G03*
X20079Y0I394J0D01*
G01*
X19685Y19291D02*
X19685Y394D01*
X20079Y19685D02*
X38976D01*
X39370Y394D02*
Y19291D01*
X20079Y0D02*
X38976D01*
X38976Y-19685D02*
G03*
X39370Y-19291I0J394D01*
G01*
X19685D02*
G03*
X20079Y-19685I394J0D01*
G01*
X20079Y0D02*
G03*
X19685Y-394I0J-394D01*
G01*
X39370Y-394D02*
G03*
X38976Y0I-394J0D01*
G01*
X39370Y-19291D02*
X39370Y-394D01*
X38976Y-19685D02*
X20079D01*
X19685Y-394D02*
Y-19291D01*
X38976Y0D02*
X20079D01*
X19291Y-19685D02*
G03*
X19685Y-19291I0J394D01*
G01*
X0D02*
G03*
X394Y-19685I394J0D01*
G01*
X394Y0D02*
G03*
X0Y-394I0J-394D01*
G01*
X19685Y-394D02*
G03*
X19291Y0I-394J0D01*
G01*
X19685Y-19291D02*
X19685Y-394D01*
X19291Y-19685D02*
X394D01*
X0Y-394D02*
Y-19291D01*
X19291Y0D02*
X394D01*
D52*
X40364D02*
D03*
X-975D02*
D03*
D53*
X40354Y-18701D02*
D03*
Y18701D02*
D03*
X-984D02*
D03*
Y-18701D02*
D03*
D54*
X1575Y1469D02*
D03*
Y2468D02*
D03*
Y8343D02*
D03*
Y4343D02*
D03*
Y12343D02*
D03*
Y9343D02*
D03*
Y6343D02*
D03*
Y5343D02*
D03*
Y10343D02*
D03*
Y13343D02*
D03*
Y14343D02*
D03*
X6480Y18720D02*
D03*
X18110Y15343D02*
D03*
Y14343D02*
D03*
Y13343D02*
D03*
Y12343D02*
D03*
Y11343D02*
D03*
Y4343D02*
D03*
Y5343D02*
D03*
Y6343D02*
D03*
Y7343D02*
D03*
Y8343D02*
D03*
Y9343D02*
D03*
Y2468D02*
D03*
Y1469D02*
D03*
Y17217D02*
D03*
Y18217D02*
D03*
X1575Y17217D02*
D03*
Y18217D02*
D03*
X21260Y1469D02*
D03*
Y2468D02*
D03*
Y8343D02*
D03*
Y4343D02*
D03*
Y12343D02*
D03*
Y9343D02*
D03*
Y6343D02*
D03*
Y5343D02*
D03*
Y10343D02*
D03*
Y13343D02*
D03*
Y14343D02*
D03*
X26165Y18720D02*
D03*
X37795Y15343D02*
D03*
Y14343D02*
D03*
Y13343D02*
D03*
Y12343D02*
D03*
Y11343D02*
D03*
Y4343D02*
D03*
Y5343D02*
D03*
Y6343D02*
D03*
Y7343D02*
D03*
Y8343D02*
D03*
Y9343D02*
D03*
Y2468D02*
D03*
Y1469D02*
D03*
Y17217D02*
D03*
Y18217D02*
D03*
X21260Y17217D02*
D03*
Y18217D02*
D03*
X37795Y-1469D02*
D03*
Y-2468D02*
D03*
Y-8343D02*
D03*
Y-4343D02*
D03*
Y-12343D02*
D03*
Y-9343D02*
D03*
Y-6343D02*
D03*
Y-5343D02*
D03*
Y-10343D02*
D03*
Y-13343D02*
D03*
Y-14343D02*
D03*
X32890Y-18720D02*
D03*
X21260Y-15343D02*
D03*
Y-14343D02*
D03*
Y-13343D02*
D03*
Y-12343D02*
D03*
Y-11343D02*
D03*
Y-4343D02*
D03*
Y-5343D02*
D03*
Y-6343D02*
D03*
Y-7343D02*
D03*
Y-8343D02*
D03*
Y-9343D02*
D03*
Y-2468D02*
D03*
Y-1469D02*
D03*
Y-17217D02*
D03*
Y-18217D02*
D03*
X37795Y-17217D02*
D03*
Y-18217D02*
D03*
X18110Y-1469D02*
D03*
Y-2468D02*
D03*
Y-8343D02*
D03*
Y-4343D02*
D03*
Y-12343D02*
D03*
Y-9343D02*
D03*
Y-6343D02*
D03*
Y-5343D02*
D03*
Y-10343D02*
D03*
Y-13343D02*
D03*
Y-14343D02*
D03*
X13205Y-18720D02*
D03*
X1575Y-15343D02*
D03*
Y-14343D02*
D03*
Y-13343D02*
D03*
Y-12343D02*
D03*
Y-11343D02*
D03*
Y-4343D02*
D03*
Y-5343D02*
D03*
Y-6343D02*
D03*
Y-7343D02*
D03*
Y-8343D02*
D03*
Y-9343D02*
D03*
Y-2468D02*
D03*
Y-1469D02*
D03*
Y-17217D02*
D03*
Y-18217D02*
D03*
X18110Y-17217D02*
D03*
Y-18217D02*
D03*
D55*
X2654Y10884D02*
D03*
X3275Y12065D02*
D03*
X18990Y9360D02*
D03*
X11380Y5905D02*
D03*
X12180Y7880D02*
D03*
X10510Y5270D02*
D03*
X10166Y8650D02*
D03*
X10400Y9370D02*
D03*
X10760Y8880D02*
D03*
X2974Y9024D02*
D03*
X8680Y7670D02*
D03*
X9020Y7580D02*
D03*
X9349Y7493D02*
D03*
X9730Y7660D02*
D03*
X10172Y7679D02*
D03*
X10870Y12353D02*
D03*
X10640Y12610D02*
D03*
X10420Y12850D02*
D03*
X10150Y13140D02*
D03*
X11070Y12110D02*
D03*
X9170Y12810D02*
D03*
X7530Y10290D02*
D03*
X10519Y6671D02*
D03*
X14530Y8620D02*
D03*
X8700Y10210D02*
D03*
X8980Y10450D02*
D03*
X9260Y9700D02*
D03*
X9490Y9970D02*
D03*
X2600Y4100D02*
D03*
X2960Y4630D02*
D03*
X10669Y6954D02*
D03*
X11000Y7640D02*
D03*
X8808Y10728D02*
D03*
X9780Y10210D02*
D03*
X13010Y10060D02*
D03*
X19430Y9360D02*
D03*
X8980Y8750D02*
D03*
X8620Y6250D02*
D03*
X13260Y7210D02*
D03*
X11516Y8396D02*
D03*
X4016Y18914D02*
D03*
X7120Y9020D02*
D03*
X16417Y16585D02*
D03*
X15670Y740D02*
D03*
X9260Y2240D02*
D03*
X12060Y8960D02*
D03*
X9310Y14840D02*
D03*
X11295Y4974D02*
D03*
X10840Y5350D02*
D03*
X9490Y13610D02*
D03*
X9941Y13601D02*
D03*
X8920Y12560D02*
D03*
X12140Y10400D02*
D03*
X10850Y9640D02*
D03*
X10890Y10010D02*
D03*
X7560Y10640D02*
D03*
X6893Y9940D02*
D03*
X7170Y9820D02*
D03*
X2630Y3100D02*
D03*
X17047D02*
D03*
X8469Y14777D02*
D03*
Y13980D02*
D03*
X2638Y16585D02*
D03*
X17047D02*
D03*
X8120Y12056D02*
D03*
X5316Y11110D02*
D03*
X6300Y8786D02*
D03*
X11670Y5905D02*
D03*
X3876Y14316D02*
D03*
X5316Y12400D02*
D03*
X12780Y12280D02*
D03*
X13960Y12470D02*
D03*
X15410Y12310D02*
D03*
X22339Y10884D02*
D03*
X22960Y12065D02*
D03*
X38675Y9360D02*
D03*
X31065Y5905D02*
D03*
X31865Y7880D02*
D03*
X30195Y5270D02*
D03*
X29851Y8650D02*
D03*
X30085Y9370D02*
D03*
X30445Y8880D02*
D03*
X22659Y9024D02*
D03*
X28365Y7670D02*
D03*
X28705Y7580D02*
D03*
X29034Y7493D02*
D03*
X29415Y7660D02*
D03*
X29857Y7679D02*
D03*
X30556Y12353D02*
D03*
X30325Y12610D02*
D03*
X30105Y12850D02*
D03*
X29835Y13140D02*
D03*
X30755Y12110D02*
D03*
X28855Y12810D02*
D03*
X27215Y10290D02*
D03*
X30204Y6671D02*
D03*
X34215Y8620D02*
D03*
X28385Y10210D02*
D03*
X28665Y10450D02*
D03*
X28945Y9700D02*
D03*
X29175Y9970D02*
D03*
X22285Y4100D02*
D03*
X22645Y4630D02*
D03*
X30354Y6954D02*
D03*
X30685Y7640D02*
D03*
X28493Y10728D02*
D03*
X29465Y10210D02*
D03*
X32695Y10060D02*
D03*
X39115Y9360D02*
D03*
X28665Y8750D02*
D03*
X28305Y6250D02*
D03*
X32945Y7210D02*
D03*
X31201Y8396D02*
D03*
X23701Y18914D02*
D03*
X26805Y9020D02*
D03*
X36102Y16585D02*
D03*
X35355Y740D02*
D03*
X28945Y2240D02*
D03*
X31745Y8960D02*
D03*
X28995Y14840D02*
D03*
X30980Y4974D02*
D03*
X30525Y5350D02*
D03*
X29175Y13610D02*
D03*
X29626Y13601D02*
D03*
X28605Y12560D02*
D03*
X31825Y10400D02*
D03*
X30535Y9640D02*
D03*
X30575Y10010D02*
D03*
X27245Y10640D02*
D03*
X26578Y9940D02*
D03*
X26855Y9820D02*
D03*
X22315Y3100D02*
D03*
X36732D02*
D03*
X28154Y14777D02*
D03*
Y13980D02*
D03*
X22323Y16585D02*
D03*
X36732D02*
D03*
X27805Y12056D02*
D03*
X25001Y11110D02*
D03*
X25985Y8786D02*
D03*
X31355Y5905D02*
D03*
X23561Y14316D02*
D03*
X25001Y12400D02*
D03*
X32465Y12280D02*
D03*
X33645Y12470D02*
D03*
X35095Y12310D02*
D03*
X36716Y-10884D02*
D03*
X36095Y-12065D02*
D03*
X20380Y-9360D02*
D03*
X27990Y-5905D02*
D03*
X27190Y-7880D02*
D03*
X28860Y-5270D02*
D03*
X29204Y-8650D02*
D03*
X28970Y-9370D02*
D03*
X28610Y-8880D02*
D03*
X36396Y-9024D02*
D03*
X30690Y-7670D02*
D03*
X30350Y-7580D02*
D03*
X30021Y-7493D02*
D03*
X29640Y-7660D02*
D03*
X29198Y-7679D02*
D03*
X28500Y-12353D02*
D03*
X28730Y-12610D02*
D03*
X28950Y-12850D02*
D03*
X29220Y-13140D02*
D03*
X28300Y-12110D02*
D03*
X30200Y-12810D02*
D03*
X31840Y-10290D02*
D03*
X28852Y-6671D02*
D03*
X24840Y-8620D02*
D03*
X30670Y-10210D02*
D03*
X30390Y-10450D02*
D03*
X30110Y-9700D02*
D03*
X29880Y-9970D02*
D03*
X36770Y-4100D02*
D03*
X36410Y-4630D02*
D03*
X28701Y-6954D02*
D03*
X28370Y-7640D02*
D03*
X30562Y-10728D02*
D03*
X29590Y-10210D02*
D03*
X26360Y-10060D02*
D03*
X19940Y-9360D02*
D03*
X30390Y-8750D02*
D03*
X30750Y-6250D02*
D03*
X26110Y-7210D02*
D03*
X27854Y-8396D02*
D03*
X35354Y-18914D02*
D03*
X32250Y-9020D02*
D03*
X22953Y-16585D02*
D03*
X23700Y-740D02*
D03*
X30110Y-2240D02*
D03*
X27310Y-8960D02*
D03*
X30060Y-14840D02*
D03*
X28075Y-4974D02*
D03*
X28530Y-5350D02*
D03*
X29880Y-13610D02*
D03*
X29429Y-13601D02*
D03*
X30450Y-12560D02*
D03*
X27230Y-10400D02*
D03*
X28520Y-9640D02*
D03*
X28480Y-10010D02*
D03*
X31810Y-10640D02*
D03*
X32477Y-9940D02*
D03*
X32200Y-9820D02*
D03*
X36740Y-3100D02*
D03*
X22323D02*
D03*
X30901Y-14777D02*
D03*
Y-13980D02*
D03*
X36732Y-16585D02*
D03*
X22323D02*
D03*
X31250Y-12056D02*
D03*
X34054Y-11110D02*
D03*
X33070Y-8786D02*
D03*
X27700Y-5905D02*
D03*
X35494Y-14316D02*
D03*
X34054Y-12400D02*
D03*
X26590Y-12280D02*
D03*
X25410Y-12470D02*
D03*
X23960Y-12310D02*
D03*
X17031Y-10884D02*
D03*
X16410Y-12065D02*
D03*
X695Y-9360D02*
D03*
X8305Y-5905D02*
D03*
X7505Y-7880D02*
D03*
X9175Y-5270D02*
D03*
X9519Y-8650D02*
D03*
X9285Y-9370D02*
D03*
X8925Y-8880D02*
D03*
X16711Y-9024D02*
D03*
X11005Y-7670D02*
D03*
X10665Y-7580D02*
D03*
X10336Y-7493D02*
D03*
X9955Y-7660D02*
D03*
X9513Y-7679D02*
D03*
X8815Y-12353D02*
D03*
X9045Y-12610D02*
D03*
X9265Y-12850D02*
D03*
X9535Y-13140D02*
D03*
X8615Y-12110D02*
D03*
X10515Y-12810D02*
D03*
X12155Y-10290D02*
D03*
X9166Y-6671D02*
D03*
X5155Y-8620D02*
D03*
X10985Y-10210D02*
D03*
X10705Y-10450D02*
D03*
X10425Y-9700D02*
D03*
X10195Y-9970D02*
D03*
X17085Y-4100D02*
D03*
X16725Y-4630D02*
D03*
X9016Y-6954D02*
D03*
X8685Y-7640D02*
D03*
X10877Y-10728D02*
D03*
X9905Y-10210D02*
D03*
X6675Y-10060D02*
D03*
X255Y-9360D02*
D03*
X10705Y-8750D02*
D03*
X11065Y-6250D02*
D03*
X6425Y-7210D02*
D03*
X8169Y-8396D02*
D03*
X15669Y-18914D02*
D03*
X12565Y-9020D02*
D03*
X3268Y-16585D02*
D03*
X4015Y-740D02*
D03*
X10425Y-2240D02*
D03*
X7625Y-8960D02*
D03*
X10375Y-14840D02*
D03*
X8390Y-4974D02*
D03*
X8845Y-5350D02*
D03*
X10195Y-13610D02*
D03*
X9744Y-13601D02*
D03*
X10765Y-12560D02*
D03*
X7545Y-10400D02*
D03*
X8835Y-9640D02*
D03*
X8795Y-10010D02*
D03*
X12125Y-10640D02*
D03*
X12792Y-9940D02*
D03*
X12515Y-9820D02*
D03*
X17055Y-3100D02*
D03*
X2638D02*
D03*
X11216Y-14777D02*
D03*
Y-13980D02*
D03*
X17047Y-16585D02*
D03*
X2638D02*
D03*
X11565Y-12056D02*
D03*
X14369Y-11110D02*
D03*
X13385Y-8786D02*
D03*
X8015Y-5905D02*
D03*
X15809Y-14316D02*
D03*
X14369Y-12400D02*
D03*
X6905Y-12280D02*
D03*
X5725Y-12470D02*
D03*
X4275Y-12310D02*
D03*
M02*
