M48
;Layer_Color=9474304
;FILE_FORMAT=2:4
INCH,LZ
;TYPE=PLATED
T1F00S00C0.0120
T2F00S00C0.0354
T3F00S00C0.1181
%
T01
X002435Y-0176
X003003Y-017753
X003268Y-016585
X002638
X004005Y-01655
X004305
Y-01682
X004685Y-0161
X004838Y-01537
X005205
X004472
X004105
X004705Y-01509
Y-01479
X002435Y-0146
X005435Y-0176
X010685Y-0161
X012185
X013685
X01325Y-015052
X011216Y-014777
X010375Y-01484
X009935Y-0146
X015809Y-01487
X015669Y-016521
X015185Y-0161
X014435Y-0176
X014205Y-01824
X014705
Y-01872
X015669Y-018914
X016332Y-018853
X017047Y-016585
X017435Y-0146
X02212
X022323Y-016585
X022953
X02369Y-01655
X02399
Y-01682
X02437Y-0161
X024523Y-01537
X02489
X024157
X02379
X02439Y-01509
Y-01479
X022688Y-017753
X02212Y-0176
X02512
X03037Y-0161
X03187
X03337
X032935Y-015052
X030901Y-014777
X03006Y-01484
X02962Y-0146
X035494Y-01487
X035354Y-016521
X03487Y-0161
X03412Y-0176
X03389Y-01824
X03439
Y-01872
X035354Y-018914
X036017Y-018853
X036732Y-016585
X03712Y-0146
X035494Y-014316
X03462Y-01407
X03458Y-01358
X035494Y-013026
X03562Y-0116
X036095Y-012065
X03712Y-0116
X036716Y-010884
X036396Y-009024
X03562Y-0086
X03412
X034027Y-0094
X03487Y-0101
X034054Y-01111
Y-011747
Y-0124
X032803Y-012403
X032935Y-012835
X032151Y-012403
X03125Y-012056
X03112Y-0116
X030441Y-011986
X03045Y-01256
X0302Y-01281
X03037Y-0131
X030903Y-0132
X030901Y-01398
X02988Y-01361
X029429Y-013601
X02922Y-01314
X02895Y-01285
X02873Y-01261
X0285Y-012353
X0283Y-01211
X02812Y-0116
X02695Y-01136
X02739Y-010725
X02723Y-0104
X02636Y-01006
X02662Y-0086
X02731Y-00896
X027854Y-008396
X02719Y-00788
X02837Y-00764
X02869Y-00765
X029198Y-007679
X02964Y-00766
X030021Y-007493
X03035Y-00758
X03069Y-00767
X03039Y-00875
X03011Y-0097
X02988Y-00997
X02959Y-01021
X03039Y-01045
X030562Y-010728
X03067Y-01021
X03184Y-01029
X03181Y-01064
X03193Y-00959
X0322Y-00982
X032477Y-00994
X032723Y-009687
X032806Y-01045
X03307Y-008786
X03262Y-0086
X032806Y-00836
X03225Y-00902
X03175Y-00699
Y-00669
X03202
X03075Y-00625
Y-00592
X02886Y-00527
X02853Y-00535
X02825Y-00562
X02799Y-005905
X0277
X026796Y-006199
Y-0068
X02611Y-00721
X026796Y-005598
Y-00498
X028075Y-004974
X029331Y-004757
X028852Y-006671
X028701Y-006954
X0284Y-00641
X02861Y-00888
X029204Y-00865
X02897Y-00937
X02852Y-00964
X02848Y-01001
X02986Y-01208
X02659Y-01228
X02541Y-01247
X02525Y-01138
X02559
X02701Y-01344
X02754
Y-01371
X02512Y-0056
X0269Y-003316
X02662Y-0026
X02812
X02833Y-0029
X02962Y-0026
X03011Y-00224
X03112Y-0026
X03262
X032868Y-00354
Y-004148
X03337Y-0041
X032868Y-004757
X03302Y-00545
X03562Y-0056
X03641Y-00463
X03677Y-0041
X03674Y-0031
X035354Y-003164
X03487Y-0041
X036017Y-002276
X036017Y000832
X035355Y00074
X033185Y0011
X031685
X030185
X028685
X027185
X025685
X02587Y-0011
X02737
X02887
X03037
X03187
X03337
X03487Y-0071
X03637
X02437
X02287
X02362Y-0086
X02484Y-00862
X02445Y-01138
X02395Y-01103
X02396Y-01231
X023635Y-013525
X02287Y-0101
X02038Y-00936
X01994
X016711Y-009024
X015935Y-0086
X014435
X014342Y-0094
X015185Y-0101
X014369Y-01111
Y-011747
Y-0124
X013118Y-012403
X01325Y-012835
X012466Y-012403
X011565Y-012056
X011435Y-0116
X010756Y-011986
X010765Y-01256
X010515Y-01281
X010685Y-0131
X011218Y-0132
X011216Y-01398
X010195Y-01361
X009744Y-013601
X009535Y-01314
X010175Y-01208
X010877Y-010728
X010705Y-01045
X010985Y-01021
X010195Y-00997
X010425Y-0097
X009905Y-01021
X009519Y-00865
X009513Y-007679
X009955Y-00766
X010336Y-007493
X010665Y-00758
X011005Y-00767
X010705Y-00875
X012565Y-00902
X012935Y-0086
X013121Y-00836
X013385Y-008786
X013038Y-009687
X012792Y-00994
X012515Y-00982
X012245Y-00959
X012155Y-01029
X012125Y-01064
X013121Y-01045
X015935Y-0116
X01641Y-012065
X017435Y-0116
X017031Y-010884
X015809Y-013026
Y-014316
X014935Y-01407
X014895Y-01358
X015185Y-0071
X016685
X015935Y-0056
X016725Y-00463
X017085Y-0041
X017055Y-0031
X015669Y-003164
X015185Y-0041
X013685
X013183Y-004148
Y-004757
X013335Y-00545
X013183Y-00354
X012935Y-0026
X011435
X010425Y-00224
X009935Y-0026
X010685Y-0011
X012185
X013685
X0135Y0011
X012
X0105
X01567Y00074
X016332Y000832
X016332Y-002276
X022323Y-0031
X023701Y-003164
X0237Y-00074
X023038Y-000832
X02362Y-0056
X012335Y-00669
X012065
Y-00699
X011065Y-00625
Y-00592
X009646Y-004757
X009175Y-00527
X008845Y-00535
X008565Y-00562
X008305Y-005905
X008015
X007111Y-006199
Y-0068
X006425Y-00721
X007505Y-00788
X008169Y-008396
X007625Y-00896
X006935Y-0086
X006675Y-01006
X007545Y-0104
X007705Y-010725
X007265Y-01136
X006905Y-01228
X005725Y-01247
X005565Y-01138
X005905
X004765
X004265Y-01103
X004275Y-01231
X00395Y-013525
X007325Y-01344
X007855
Y-01371
X009265Y-01285
X009045Y-01261
X008815Y-012353
X008615Y-01211
X008435Y-0116
X008795Y-01001
X008835Y-00964
X009285Y-00937
X008925Y-00888
X009005Y-00765
X008685Y-00764
X009016Y-006954
X009166Y-006671
X008715Y-00641
X00839Y-004974
X007111Y-00498
Y-005598
X005435Y-0056
X003935
X003185Y-0071
X004685
X005155Y-00862
X003935Y-0086
X003185Y-0101
X000695Y-00936
X000255
X002638Y-0031
X004016Y-003164
X004015Y-00074
X003353Y-000832
X006185Y-0011
X007685
X009185
X008435Y-0026
X008645Y-0029
X007215Y-003316
X006935Y-0026
X0075Y0011
X009
X006
X00675Y0026
X006502Y00354
Y004148
X006Y0041
X006502Y004757
X00635Y00545
X00735Y00669
X00762
Y00699
X00868Y00767
X00902Y00758
X009349Y007493
X00898Y00875
X00926Y0097
X00898Y01045
X008808Y010728
X0087Y01021
X00753Y01029
X00756Y01064
X00744Y00959
X00717Y00982
X006893Y00994
X006647Y009687
X006564Y01045
X005316Y01111
Y011747
Y0124
X006567Y012403
X006435Y012835
X007219Y012403
X00812Y012056
X00825Y0116
X008929Y011986
X00892Y01256
X00917Y01281
X009Y0131
X008467Y0132
X008469Y01398
Y014777
X00931Y01484
X009Y0161
X0075
X006
X006435Y015052
X00475Y01407
X00479Y01358
X003876Y013026
Y014316
Y01487
X004016Y016521
X0045Y0161
X002638Y016585
X00225Y0146
Y0116
X002654Y010884
X003275Y012065
X00375Y0116
X0045Y0101
X005343Y0094
X00525Y0086
X0063Y008786
X00675Y0086
X006564Y00836
X00712Y00902
X00375Y0086
X002974Y009024
X003Y0071
X0045
X00375Y0056
X00296Y00463
X0026Y0041
X00263Y0031
X004016Y003164
X0045Y0041
X003353Y002276
X00825Y0026
X00926Y00224
X00862Y00592
Y00625
X010519Y006671
X010669Y006954
X01068Y00765
X011Y00764
X010172Y007679
X00973Y00766
X010166Y00865
X01076Y00888
X0104Y00937
X01085Y00964
X01089Y01001
X00978Y01021
X00949Y00997
X00951Y01208
X00949Y01361
X009941Y013601
X01015Y01314
X01042Y01285
X01064Y01261
X01087Y012353
X01107Y01211
X01125Y0116
X01242Y01136
X01198Y010725
X01214Y0104
X01301Y01006
X01275Y0086
X01206Y00896
X011516Y008396
X01218Y00788
X012574Y0068
Y006199
Y005598
Y00498
X011295Y004974
X01112Y00562
X01138Y005905
X01167
X01097Y00641
X01084Y00535
X01051Y00527
X010039Y004757
X00975Y0026
X01125
X01104Y0029
X01247Y003316
X01275Y0026
X015669Y003164
X017047Y0031
X01575Y0056
X01425
X015Y0071
X0165
X01575Y0086
X01453Y00862
X01326Y00721
X01378Y01138
X01412
X01492
X01542Y01103
X01541Y01231
X015735Y013525
X01558Y01537
X015213
X014847
X01448
X01498Y01509
Y01479
X015Y0161
X01538Y01655
Y01682
X01568Y01655
X016417Y016585
X017047
X01725Y0146
X021935
X023561Y01487
Y014316
X024435Y01407
X024475Y01358
X023561Y013026
X023435Y0116
X02296Y012065
X021935Y0116
X022339Y010884
X022659Y009024
X023435Y0086
X024935
X024185Y0101
X025001Y01111
Y011747
Y0124
X024185Y0161
X023701Y016521
X022323Y016585
X022685Y0071
X024185
X023435Y0056
X022645Y00463
X022285Y0041
X022315Y0031
X023701Y003164
X024185Y0041
X023038Y002276
X01943Y00936
X01899
X0165Y0101
X01396Y01247
X01278Y01228
X01236Y01344
X01183
Y01371
X00975Y0146
X02612Y015052
X025685Y0161
X027185
X028685
X028995Y01484
X029435Y0146
X029626Y013601
X029175Y01361
X028685Y0131
X028855Y01281
X028605Y01256
X028614Y011986
X029195Y01208
X027805Y012056
X027935Y0116
X028493Y010728
X028665Y01045
X028385Y01021
X029175Y00997
X028945Y0097
X029465Y01021
X030575Y01001
X030535Y00964
X030085Y00937
X030445Y00888
X029851Y00865
X029857Y007679
X029415Y00766
X029034Y007493
X028705Y00758
X028365Y00767
X028665Y00875
X026805Y00902
X026435Y0086
X026249Y00836
X025985Y008786
X026332Y009687
X026578Y00994
X026855Y00982
X027125Y00959
X027215Y01029
X027245Y01064
X026249Y01045
X026252Y012403
X02612Y012835
X026905Y012403
X028152Y0132
X028154Y01398
Y014777
X029835Y01314
X030105Y01285
X030325Y01261
X030556Y012353
X030755Y01211
X030935Y0116
X032105Y01136
X031665Y010725
X031825Y0104
X032695Y01006
X032435Y0086
X031745Y00896
X031201Y008396
X031865Y00788
X030685Y00764
X030365Y00765
X030354Y006954
X030204Y006671
X030655Y00641
X031065Y005905
X031355
X030805Y00562
X030525Y00535
X030195Y00527
X029724Y004757
X03098Y004974
X032259Y00498
Y005598
Y006199
Y0068
X032945Y00721
X034685Y0071
X036185
X035435Y0086
X034215Y00862
X034605Y01138
X033805
X033465
X033645Y01247
X032465Y01228
X032045Y01344
X031515
Y01371
X03542Y013525
X035095Y01231
X035105Y01103
X036185Y0101
X038675Y00936
X039115
X036935Y0146
X036732Y016585
X036102
X035365Y01655
X035065
Y01682
X034685Y0161
X034532Y01537
X034165
X034898
X035265
X034665Y01509
Y01479
X033935Y0056
X035435
X035354Y003164
X036732Y0031
X032155Y003316
X032435Y0026
X030935
X030725Y0029
X029435Y0026
X028945Y00224
X027935Y0026
X026435
X026187Y00354
Y004148
X025685Y0041
X026187Y004757
X026035Y00545
X027035Y00669
X027305
Y00699
X028305Y00625
Y00592
X025028Y0094
X025165Y01824
X033935Y0176
X036367Y017753
X036935Y0176
X024935
X024665Y01824
Y01872
X023701Y018914
X023038Y018853
X01725Y0176
X016682Y017753
X01425Y0176
X00525
X00548Y01824
X00498
Y01872
X004016Y018914
X003353Y018853
T02
X001575Y-018217
Y-017217
Y-015343
Y-014343
X013205Y-01872
X014205
X01811Y-018217
Y-017217
Y-015343
Y-014343
X02126
Y-015343
Y-017217
Y-018217
X03289Y-01872
X03389
X037795Y-018217
Y-017217
Y-015343
Y-014343
Y-013343
Y-012343
Y-011343
Y-010343
Y-009343
Y-008343
Y-007343
Y-006343
Y-005343
Y-004343
Y-002468
Y-001469
X02126
Y-002468
Y-004343
Y-005343
Y-006343
Y-007343
Y-008343
Y-009343
Y-010343
Y-011343
Y-012343
Y-013343
X01811
Y-012343
Y-011343
Y-010343
Y-009343
Y-008343
Y-007343
Y-006343
Y-005343
Y-004343
Y-002468
Y-001469
X001575
Y-002468
Y-004343
Y-005343
Y-006343
Y-007343
Y-008343
Y-009343
Y-010343
Y-011343
Y-012343
Y-013343
X001575Y001469
Y002468
Y004343
Y005343
Y006343
Y007343
Y008343
Y009343
Y010343
Y011343
Y012343
Y013343
Y014343
Y015343
X01811
Y014343
Y013343
Y012343
Y011343
Y010343
Y009343
Y008343
Y007343
Y006343
Y005343
Y004343
Y002468
Y001469
X02126
Y002468
Y004343
Y005343
Y006343
Y007343
Y008343
Y009343
Y010343
Y011343
Y012343
Y013343
Y014343
Y015343
X037795
Y014343
Y013343
Y012343
Y011343
Y010343
Y009343
Y008343
Y007343
Y006343
Y005343
Y004343
Y002468
Y001469
Y017217
Y018217
X026165Y01872
X025165
X02126Y018217
Y017217
X01811
Y018217
X00648Y01872
X00548
X001575Y018217
Y017217
T03
X-000984Y-018701
X040354
Y018701
X-000984
M30
