G04*
G04 #@! TF.GenerationSoftware,Altium Limited,Altium Designer,21.2.2 (38)*
G04*
G04 Layer_Color=128*
%FSLAX24Y24*%
%MOIN*%
G70*
G04*
G04 #@! TF.SameCoordinates,7BEC17FB-94DA-460C-997F-5D10B4D38A6F*
G04*
G04*
G04 #@! TF.FilePolarity,Positive*
G04*
G01*
G75*
%ADD98C,0.0020*%
D98*
X39764Y-18701D02*
X40945D01*
X40354Y-19291D02*
Y-18110D01*
X39764Y18701D02*
X40945D01*
X40354Y18110D02*
Y19291D01*
X-1575Y18701D02*
X-394D01*
X-984Y18110D02*
Y19291D01*
X-1575Y-18701D02*
X-394D01*
X-984Y-19291D02*
Y-18110D01*
X1398Y1469D02*
X1752D01*
X1575Y1291D02*
Y1646D01*
X1398Y2468D02*
X1752D01*
X1575Y2291D02*
Y2646D01*
X1398Y8343D02*
X1752D01*
X1575Y8165D02*
Y8520D01*
X1398Y7343D02*
X1752D01*
X1575Y7165D02*
Y7520D01*
X1398Y4343D02*
X1752D01*
X1575Y4165D02*
Y4520D01*
X1398Y11343D02*
X1752D01*
X1575Y11165D02*
Y11520D01*
X1398Y12343D02*
X1752D01*
X1575Y12165D02*
Y12520D01*
X1398Y15343D02*
X1752D01*
X1575Y15165D02*
Y15520D01*
X1398Y9343D02*
X1752D01*
X1575Y9165D02*
Y9520D01*
X1398Y6343D02*
X1752D01*
X1575Y6165D02*
Y6520D01*
X1398Y5343D02*
X1752D01*
X1575Y5165D02*
Y5520D01*
X1398Y10343D02*
X1752D01*
X1575Y10165D02*
Y10520D01*
X1398Y13343D02*
X1752D01*
X1575Y13165D02*
Y13520D01*
X1398Y14343D02*
X1752D01*
X1575Y14165D02*
Y14520D01*
X6303Y18720D02*
X6657D01*
X6480Y18543D02*
Y18897D01*
X5303Y18720D02*
X5657D01*
X5480Y18543D02*
Y18897D01*
X17933Y15343D02*
X18287D01*
X18110Y15165D02*
Y15520D01*
X17933Y14343D02*
X18287D01*
X18110Y14165D02*
Y14520D01*
X17933Y13343D02*
X18287D01*
X18110Y13165D02*
Y13520D01*
X17933Y12343D02*
X18287D01*
X18110Y12165D02*
Y12520D01*
X17933Y11343D02*
X18287D01*
X18110Y11165D02*
Y11520D01*
X17933Y10343D02*
X18287D01*
X18110Y10165D02*
Y10520D01*
X17933Y4343D02*
X18287D01*
X18110Y4165D02*
Y4520D01*
X17933Y5343D02*
X18287D01*
X18110Y5165D02*
Y5520D01*
X17933Y6343D02*
X18287D01*
X18110Y6165D02*
Y6520D01*
X17933Y7343D02*
X18287D01*
X18110Y7165D02*
Y7520D01*
X17933Y8343D02*
X18287D01*
X18110Y8165D02*
Y8520D01*
X17933Y9343D02*
X18287D01*
X18110Y9165D02*
Y9520D01*
X17933Y2468D02*
X18287D01*
X18110Y2291D02*
Y2646D01*
X17933Y1469D02*
X18287D01*
X18110Y1291D02*
Y1646D01*
X17933Y17217D02*
X18287D01*
X18110Y17039D02*
Y17394D01*
X17933Y18217D02*
X18287D01*
X18110Y18039D02*
Y18394D01*
X1398Y17217D02*
X1752D01*
X1575Y17039D02*
Y17394D01*
X1398Y18217D02*
X1752D01*
X1575Y18039D02*
Y18394D01*
X17190Y17600D02*
X17310D01*
X17250Y17540D02*
Y17660D01*
X17190Y14600D02*
X17310D01*
X17250Y14540D02*
Y14660D01*
X16440Y10100D02*
X16560D01*
X16500Y10040D02*
Y10160D01*
X16440Y7100D02*
X16560D01*
X16500Y7040D02*
Y7160D01*
X14940Y16100D02*
X15060D01*
X15000Y16040D02*
Y16160D01*
X15690Y8600D02*
X15810D01*
X15750Y8540D02*
Y8660D01*
X14940Y7100D02*
X15060D01*
X15000Y7040D02*
Y7160D01*
X15690Y5600D02*
X15810D01*
X15750Y5540D02*
Y5660D01*
X14190Y17600D02*
X14310D01*
X14250Y17540D02*
Y17660D01*
X14190Y5600D02*
X14310D01*
X14250Y5540D02*
Y5660D01*
X13440Y1100D02*
X13560D01*
X13500Y1040D02*
Y1160D01*
X12690Y8600D02*
X12810D01*
X12750Y8540D02*
Y8660D01*
X12690Y2600D02*
X12810D01*
X12750Y2540D02*
Y2660D01*
X11940Y1100D02*
X12060D01*
X12000Y1040D02*
Y1160D01*
X11190Y11600D02*
X11310D01*
X11250Y11540D02*
Y11660D01*
X11190Y2600D02*
X11310D01*
X11250Y2540D02*
Y2660D01*
X10440Y1100D02*
X10560D01*
X10500Y1040D02*
Y1160D01*
X8940Y16100D02*
X9060D01*
X9000Y16040D02*
Y16160D01*
X9690Y14600D02*
X9810D01*
X9750Y14540D02*
Y14660D01*
X8940Y13100D02*
X9060D01*
X9000Y13040D02*
Y13160D01*
X9690Y2600D02*
X9810D01*
X9750Y2540D02*
Y2660D01*
X8940Y1100D02*
X9060D01*
X9000Y1040D02*
Y1160D01*
X7440Y16100D02*
X7560D01*
X7500Y16040D02*
Y16160D01*
X8190Y11600D02*
X8310D01*
X8250Y11540D02*
Y11660D01*
X8190Y2600D02*
X8310D01*
X8250Y2540D02*
Y2660D01*
X7440Y1100D02*
X7560D01*
X7500Y1040D02*
Y1160D01*
X5940Y16100D02*
X6060D01*
X6000Y16040D02*
Y16160D01*
X6690Y8600D02*
X6810D01*
X6750Y8540D02*
Y8660D01*
X5940Y4100D02*
X6060D01*
X6000Y4040D02*
Y4160D01*
X6690Y2600D02*
X6810D01*
X6750Y2540D02*
Y2660D01*
X5940Y1100D02*
X6060D01*
X6000Y1040D02*
Y1160D01*
X5190Y17600D02*
X5310D01*
X5250Y17540D02*
Y17660D01*
X4440Y16100D02*
X4560D01*
X4500Y16040D02*
Y16160D01*
X4440Y10100D02*
X4560D01*
X4500Y10040D02*
Y10160D01*
X5190Y8600D02*
X5310D01*
X5250Y8540D02*
Y8660D01*
X4440Y7100D02*
X4560D01*
X4500Y7040D02*
Y7160D01*
X4440Y4100D02*
X4560D01*
X4500Y4040D02*
Y4160D01*
X3690Y11600D02*
X3810D01*
X3750Y11540D02*
Y11660D01*
X3690Y8600D02*
X3810D01*
X3750Y8540D02*
Y8660D01*
X2940Y7100D02*
X3060D01*
X3000Y7040D02*
Y7160D01*
X3690Y5600D02*
X3810D01*
X3750Y5540D02*
Y5660D01*
X2190Y14600D02*
X2310D01*
X2250Y14540D02*
Y14660D01*
X2190Y11600D02*
X2310D01*
X2250Y11540D02*
Y11660D01*
X7440Y1100D02*
X7560D01*
X7500Y1040D02*
Y1160D01*
X5940Y1100D02*
X6060D01*
X6000Y1040D02*
Y1160D01*
X16440Y7100D02*
X16560D01*
X16500Y7040D02*
Y7160D01*
X14940Y7100D02*
X15060D01*
X15000Y7040D02*
Y7160D01*
X15690Y5600D02*
X15810D01*
X15750Y5540D02*
Y5660D01*
X14190Y5600D02*
X14310D01*
X14250Y5540D02*
Y5660D01*
X17190Y17600D02*
X17310D01*
X17250Y17540D02*
Y17660D01*
X14940Y16100D02*
X15060D01*
X15000Y16040D02*
Y16160D01*
X14190Y17600D02*
X14310D01*
X14250Y17540D02*
Y17660D01*
X10980Y2900D02*
X11100D01*
X11040Y2840D02*
Y2960D01*
X2594Y10884D02*
X2714D01*
X2654Y10824D02*
Y10944D01*
X3215Y12065D02*
X3335D01*
X3275Y12005D02*
Y12125D01*
X18930Y9360D02*
X19050D01*
X18990Y9300D02*
Y9420D01*
X11060Y5620D02*
X11180D01*
X11120Y5560D02*
Y5680D01*
X11320Y5905D02*
X11440D01*
X11380Y5845D02*
Y5965D01*
X12120Y7880D02*
X12240D01*
X12180Y7820D02*
Y7940D01*
X10450Y5270D02*
X10570D01*
X10510Y5210D02*
Y5330D01*
X8560Y5920D02*
X8680D01*
X8620Y5860D02*
Y5980D01*
X10106Y8650D02*
X10226D01*
X10166Y8590D02*
Y8710D01*
X10340Y9370D02*
X10460D01*
X10400Y9310D02*
Y9430D01*
X10700Y8880D02*
X10820D01*
X10760Y8820D02*
Y8940D01*
X2914Y9024D02*
X3034D01*
X2974Y8964D02*
Y9084D01*
X8620Y7670D02*
X8740D01*
X8680Y7610D02*
Y7730D01*
X8960Y7580D02*
X9080D01*
X9020Y7520D02*
Y7640D01*
X9289Y7493D02*
X9409D01*
X9349Y7433D02*
Y7553D01*
X9670Y7660D02*
X9790D01*
X9730Y7600D02*
Y7720D01*
X10112Y7679D02*
X10232D01*
X10172Y7619D02*
Y7739D01*
X10810Y12353D02*
X10930D01*
X10870Y12293D02*
Y12413D01*
X10580Y12610D02*
X10700D01*
X10640Y12550D02*
Y12670D01*
X10360Y12850D02*
X10480D01*
X10420Y12790D02*
Y12910D01*
X10090Y13140D02*
X10210D01*
X10150Y13080D02*
Y13200D01*
X11010Y12110D02*
X11130D01*
X11070Y12050D02*
Y12170D01*
X9110Y12810D02*
X9230D01*
X9170Y12750D02*
Y12870D01*
X7470Y10290D02*
X7590D01*
X7530Y10230D02*
Y10350D01*
X10459Y6671D02*
X10579D01*
X10519Y6611D02*
Y6731D01*
X14470Y8620D02*
X14590D01*
X14530Y8560D02*
Y8680D01*
X8640Y10210D02*
X8760D01*
X8700Y10150D02*
Y10270D01*
X8920Y10450D02*
X9040D01*
X8980Y10390D02*
Y10510D01*
X9200Y9700D02*
X9320D01*
X9260Y9640D02*
Y9760D01*
X9430Y9970D02*
X9550D01*
X9490Y9910D02*
Y10030D01*
X2540Y4100D02*
X2660D01*
X2600Y4040D02*
Y4160D01*
X2900Y4630D02*
X3020D01*
X2960Y4570D02*
Y4690D01*
X10609Y6954D02*
X10729D01*
X10669Y6894D02*
Y7014D01*
X10940Y7640D02*
X11060D01*
X11000Y7580D02*
Y7700D01*
X10620Y7650D02*
X10740D01*
X10680Y7590D02*
Y7710D01*
X8748Y10728D02*
X8868D01*
X8808Y10668D02*
Y10788D01*
X9720Y10210D02*
X9840D01*
X9780Y10150D02*
Y10270D01*
X12950Y10060D02*
X13070D01*
X13010Y10000D02*
Y10120D01*
X19370Y9360D02*
X19490D01*
X19430Y9300D02*
Y9420D01*
X8920Y8750D02*
X9040D01*
X8980Y8690D02*
Y8810D01*
X8560Y6250D02*
X8680D01*
X8620Y6190D02*
Y6310D01*
X13200Y7210D02*
X13320D01*
X13260Y7150D02*
Y7270D01*
X11456Y8396D02*
X11576D01*
X11516Y8336D02*
Y8456D01*
X3956Y18914D02*
X4076D01*
X4016Y18854D02*
Y18974D01*
X7060Y9020D02*
X7180D01*
X7120Y8960D02*
Y9080D01*
X16357Y16585D02*
X16477D01*
X16417Y16525D02*
Y16645D01*
X15610Y740D02*
X15730D01*
X15670Y680D02*
Y800D01*
X9200Y2240D02*
X9320D01*
X9260Y2180D02*
Y2300D01*
X12000Y8960D02*
X12120D01*
X12060Y8900D02*
Y9020D01*
X9250Y14840D02*
X9370D01*
X9310Y14780D02*
Y14900D01*
X10910Y6410D02*
X11030D01*
X10970Y6350D02*
Y6470D01*
X11235Y4974D02*
X11355D01*
X11295Y4914D02*
Y5034D01*
X10780Y5350D02*
X10900D01*
X10840Y5290D02*
Y5410D01*
X9430Y13610D02*
X9550D01*
X9490Y13550D02*
Y13670D01*
X9881Y13601D02*
X10001D01*
X9941Y13541D02*
Y13661D01*
X8860Y12560D02*
X8980D01*
X8920Y12500D02*
Y12620D01*
X12080Y10400D02*
X12200D01*
X12140Y10340D02*
Y10460D01*
X10790Y9640D02*
X10910D01*
X10850Y9580D02*
Y9700D01*
X10830Y10010D02*
X10950D01*
X10890Y9950D02*
Y10070D01*
X7500Y10640D02*
X7620D01*
X7560Y10580D02*
Y10700D01*
X6833Y9940D02*
X6953D01*
X6893Y9880D02*
Y10000D01*
X7110Y9820D02*
X7230D01*
X7170Y9760D02*
Y9880D01*
X14420Y15370D02*
X14540D01*
X14480Y15310D02*
Y15430D01*
X14787Y15370D02*
X14907D01*
X14847Y15310D02*
Y15430D01*
X14920Y14790D02*
X15040D01*
X14980Y14730D02*
Y14850D01*
X15153Y15370D02*
X15273D01*
X15213Y15310D02*
Y15430D01*
X15320Y16820D02*
X15440D01*
X15380Y16760D02*
Y16880D01*
X15620Y16550D02*
X15740D01*
X15680Y16490D02*
Y16610D01*
X15320Y16550D02*
X15440D01*
X15380Y16490D02*
Y16610D01*
X14920Y15090D02*
X15040D01*
X14980Y15030D02*
Y15150D01*
X15520Y15370D02*
X15640D01*
X15580Y15310D02*
Y15430D01*
X12360Y11360D02*
X12480D01*
X12420Y11300D02*
Y11420D01*
X11770Y13440D02*
X11890D01*
X11830Y13380D02*
Y13500D01*
X11770Y13710D02*
X11890D01*
X11830Y13650D02*
Y13770D01*
X12300Y13440D02*
X12420D01*
X12360Y13380D02*
Y13500D01*
X13720Y11380D02*
X13840D01*
X13780Y11320D02*
Y11440D01*
X14060Y11380D02*
X14180D01*
X14120Y11320D02*
Y11440D01*
X14860Y11380D02*
X14980D01*
X14920Y11320D02*
Y11440D01*
X15360Y11030D02*
X15480D01*
X15420Y10970D02*
Y11090D01*
X4920Y18720D02*
X5040D01*
X4980Y18660D02*
Y18780D01*
X4920Y18240D02*
X5040D01*
X4980Y18180D02*
Y18300D01*
X5420Y18240D02*
X5540D01*
X5480Y18180D02*
Y18300D01*
X7290Y6690D02*
X7410D01*
X7350Y6630D02*
Y6750D01*
X7560Y6990D02*
X7680D01*
X7620Y6930D02*
Y7050D01*
X7560Y6690D02*
X7680D01*
X7620Y6630D02*
Y6750D01*
X3293Y2276D02*
X3413D01*
X3353Y2216D02*
Y2336D01*
X3956Y3164D02*
X4076D01*
X4016Y3104D02*
Y3224D01*
X15609Y3164D02*
X15729D01*
X15669Y3104D02*
Y3224D01*
X16272Y832D02*
X16392D01*
X16332Y772D02*
Y892D01*
X12514Y6800D02*
X12634D01*
X12574Y6740D02*
Y6860D01*
X12514Y6199D02*
X12634D01*
X12574Y6139D02*
Y6259D01*
X12514Y5598D02*
X12634D01*
X12574Y5538D02*
Y5658D01*
X12514Y4980D02*
X12634D01*
X12574Y4920D02*
Y5040D01*
X6442Y4757D02*
X6562D01*
X6502Y4697D02*
Y4817D01*
X6442Y4148D02*
X6562D01*
X6502Y4088D02*
Y4208D01*
X6442Y3540D02*
X6562D01*
X6502Y3480D02*
Y3600D01*
X6290Y5450D02*
X6410D01*
X6350Y5390D02*
Y5510D01*
X8407Y13200D02*
X8527D01*
X8467Y13140D02*
Y13260D01*
X6507Y12403D02*
X6627D01*
X6567Y12343D02*
Y12463D01*
X3956Y16521D02*
X4076D01*
X4016Y16461D02*
Y16581D01*
X3293Y18853D02*
X3413D01*
X3353Y18793D02*
Y18913D01*
X8869Y11986D02*
X8989D01*
X8929Y11926D02*
Y12046D01*
X7159Y12403D02*
X7279D01*
X7219Y12343D02*
Y12463D01*
X7380Y9590D02*
X7500D01*
X7440Y9530D02*
Y9650D01*
X5256Y11747D02*
X5376D01*
X5316Y11687D02*
Y11807D01*
X6504Y10450D02*
X6624D01*
X6564Y10390D02*
Y10510D01*
X6504Y8360D02*
X6624D01*
X6564Y8300D02*
Y8420D01*
X6587Y9687D02*
X6707D01*
X6647Y9627D02*
Y9747D01*
X5283Y9400D02*
X5403D01*
X5343Y9340D02*
Y9460D01*
X6375Y12835D02*
X6495D01*
X6435Y12775D02*
Y12895D01*
X4730Y13580D02*
X4850D01*
X4790Y13520D02*
Y13640D01*
X6375Y15052D02*
X6495D01*
X6435Y14992D02*
Y15112D01*
X4690Y14070D02*
X4810D01*
X4750Y14010D02*
Y14130D01*
X9450Y12080D02*
X9570D01*
X9510Y12020D02*
Y12140D01*
X11920Y10725D02*
X12040D01*
X11980Y10665D02*
Y10785D01*
X9979Y4757D02*
X10099D01*
X10039Y4697D02*
Y4817D01*
X12410Y3316D02*
X12530D01*
X12470Y3256D02*
Y3376D01*
X3816Y13026D02*
X3936D01*
X3876Y12966D02*
Y13086D01*
X3816Y14870D02*
X3936D01*
X3876Y14810D02*
Y14930D01*
X15675Y13525D02*
X15795D01*
X15735Y13465D02*
Y13585D01*
X16622Y17753D02*
X16742D01*
X16682Y17693D02*
Y17813D01*
X2570Y3100D02*
X2690D01*
X2630Y3040D02*
Y3160D01*
X16987Y3100D02*
X17107D01*
X17047Y3040D02*
Y3160D01*
X8409Y14777D02*
X8529D01*
X8469Y14717D02*
Y14837D01*
X8409Y13980D02*
X8529D01*
X8469Y13920D02*
Y14040D01*
X2578Y16585D02*
X2698D01*
X2638Y16525D02*
Y16645D01*
X16987Y16585D02*
X17107D01*
X17047Y16525D02*
Y16645D01*
X8060Y12056D02*
X8180D01*
X8120Y11996D02*
Y12116D01*
X5256Y11110D02*
X5376D01*
X5316Y11050D02*
Y11170D01*
X6240Y8786D02*
X6360D01*
X6300Y8726D02*
Y8846D01*
X11610Y5905D02*
X11730D01*
X11670Y5845D02*
Y5965D01*
X3816Y14316D02*
X3936D01*
X3876Y14256D02*
Y14376D01*
X5256Y12400D02*
X5376D01*
X5316Y12340D02*
Y12460D01*
X12720Y12280D02*
X12840D01*
X12780Y12220D02*
Y12340D01*
X13900Y12470D02*
X14020D01*
X13960Y12410D02*
Y12530D01*
X15350Y12310D02*
X15470D01*
X15410Y12250D02*
Y12370D01*
X21083Y1469D02*
X21437D01*
X21260Y1291D02*
Y1646D01*
X21083Y2468D02*
X21437D01*
X21260Y2291D02*
Y2646D01*
X21083Y8343D02*
X21437D01*
X21260Y8165D02*
Y8520D01*
X21083Y7343D02*
X21437D01*
X21260Y7165D02*
Y7520D01*
X21083Y4343D02*
X21437D01*
X21260Y4165D02*
Y4520D01*
X21083Y11343D02*
X21437D01*
X21260Y11165D02*
Y11520D01*
X21083Y12343D02*
X21437D01*
X21260Y12165D02*
Y12520D01*
X21083Y15343D02*
X21437D01*
X21260Y15165D02*
Y15520D01*
X21083Y9343D02*
X21437D01*
X21260Y9165D02*
Y9520D01*
X21083Y6343D02*
X21437D01*
X21260Y6165D02*
Y6520D01*
X21083Y5343D02*
X21437D01*
X21260Y5165D02*
Y5520D01*
X21083Y10343D02*
X21437D01*
X21260Y10165D02*
Y10520D01*
X21083Y13343D02*
X21437D01*
X21260Y13165D02*
Y13520D01*
X21083Y14343D02*
X21437D01*
X21260Y14165D02*
Y14520D01*
X25988Y18720D02*
X26342D01*
X26165Y18543D02*
Y18897D01*
X24988Y18720D02*
X25342D01*
X25165Y18543D02*
Y18897D01*
X37618Y15343D02*
X37972D01*
X37795Y15165D02*
Y15520D01*
X37618Y14343D02*
X37972D01*
X37795Y14165D02*
Y14520D01*
X37618Y13343D02*
X37972D01*
X37795Y13165D02*
Y13520D01*
X37618Y12343D02*
X37972D01*
X37795Y12165D02*
Y12520D01*
X37618Y11343D02*
X37972D01*
X37795Y11165D02*
Y11520D01*
X37618Y10343D02*
X37972D01*
X37795Y10165D02*
Y10520D01*
X37618Y4343D02*
X37972D01*
X37795Y4165D02*
Y4520D01*
X37618Y5343D02*
X37972D01*
X37795Y5165D02*
Y5520D01*
X37618Y6343D02*
X37972D01*
X37795Y6165D02*
Y6520D01*
X37618Y7343D02*
X37972D01*
X37795Y7165D02*
Y7520D01*
X37618Y8343D02*
X37972D01*
X37795Y8165D02*
Y8520D01*
X37618Y9343D02*
X37972D01*
X37795Y9165D02*
Y9520D01*
X37618Y2468D02*
X37972D01*
X37795Y2291D02*
Y2646D01*
X37618Y1469D02*
X37972D01*
X37795Y1291D02*
Y1646D01*
X37618Y17217D02*
X37972D01*
X37795Y17039D02*
Y17394D01*
X37618Y18217D02*
X37972D01*
X37795Y18039D02*
Y18394D01*
X21083Y17217D02*
X21437D01*
X21260Y17039D02*
Y17394D01*
X21083Y18217D02*
X21437D01*
X21260Y18039D02*
Y18394D01*
X36875Y17600D02*
X36995D01*
X36935Y17540D02*
Y17660D01*
X36875Y14600D02*
X36995D01*
X36935Y14540D02*
Y14660D01*
X36125Y10100D02*
X36245D01*
X36185Y10040D02*
Y10160D01*
X36125Y7100D02*
X36245D01*
X36185Y7040D02*
Y7160D01*
X34625Y16100D02*
X34745D01*
X34685Y16040D02*
Y16160D01*
X35375Y8600D02*
X35495D01*
X35435Y8540D02*
Y8660D01*
X34625Y7100D02*
X34745D01*
X34685Y7040D02*
Y7160D01*
X35375Y5600D02*
X35495D01*
X35435Y5540D02*
Y5660D01*
X33875Y17600D02*
X33995D01*
X33935Y17540D02*
Y17660D01*
X33875Y5600D02*
X33995D01*
X33935Y5540D02*
Y5660D01*
X33125Y1100D02*
X33245D01*
X33185Y1040D02*
Y1160D01*
X32375Y8600D02*
X32495D01*
X32435Y8540D02*
Y8660D01*
X32375Y2600D02*
X32495D01*
X32435Y2540D02*
Y2660D01*
X31625Y1100D02*
X31745D01*
X31685Y1040D02*
Y1160D01*
X30875Y11600D02*
X30995D01*
X30935Y11540D02*
Y11660D01*
X30875Y2600D02*
X30995D01*
X30935Y2540D02*
Y2660D01*
X30125Y1100D02*
X30245D01*
X30185Y1040D02*
Y1160D01*
X28625Y16100D02*
X28745D01*
X28685Y16040D02*
Y16160D01*
X29375Y14600D02*
X29495D01*
X29435Y14540D02*
Y14660D01*
X28625Y13100D02*
X28745D01*
X28685Y13040D02*
Y13160D01*
X29375Y2600D02*
X29495D01*
X29435Y2540D02*
Y2660D01*
X28625Y1100D02*
X28745D01*
X28685Y1040D02*
Y1160D01*
X27125Y16100D02*
X27245D01*
X27185Y16040D02*
Y16160D01*
X27875Y11600D02*
X27995D01*
X27935Y11540D02*
Y11660D01*
X27875Y2600D02*
X27995D01*
X27935Y2540D02*
Y2660D01*
X27125Y1100D02*
X27245D01*
X27185Y1040D02*
Y1160D01*
X25625Y16100D02*
X25745D01*
X25685Y16040D02*
Y16160D01*
X26375Y8600D02*
X26495D01*
X26435Y8540D02*
Y8660D01*
X25625Y4100D02*
X25745D01*
X25685Y4040D02*
Y4160D01*
X26375Y2600D02*
X26495D01*
X26435Y2540D02*
Y2660D01*
X25625Y1100D02*
X25745D01*
X25685Y1040D02*
Y1160D01*
X24875Y17600D02*
X24995D01*
X24935Y17540D02*
Y17660D01*
X24125Y16100D02*
X24245D01*
X24185Y16040D02*
Y16160D01*
X24125Y10100D02*
X24245D01*
X24185Y10040D02*
Y10160D01*
X24875Y8600D02*
X24995D01*
X24935Y8540D02*
Y8660D01*
X24125Y7100D02*
X24245D01*
X24185Y7040D02*
Y7160D01*
X24125Y4100D02*
X24245D01*
X24185Y4040D02*
Y4160D01*
X23375Y11600D02*
X23495D01*
X23435Y11540D02*
Y11660D01*
X23375Y8600D02*
X23495D01*
X23435Y8540D02*
Y8660D01*
X22625Y7100D02*
X22745D01*
X22685Y7040D02*
Y7160D01*
X23375Y5600D02*
X23495D01*
X23435Y5540D02*
Y5660D01*
X21875Y14600D02*
X21995D01*
X21935Y14540D02*
Y14660D01*
X21875Y11600D02*
X21995D01*
X21935Y11540D02*
Y11660D01*
X27125Y1100D02*
X27245D01*
X27185Y1040D02*
Y1160D01*
X25625Y1100D02*
X25745D01*
X25685Y1040D02*
Y1160D01*
X36125Y7100D02*
X36245D01*
X36185Y7040D02*
Y7160D01*
X34625Y7100D02*
X34745D01*
X34685Y7040D02*
Y7160D01*
X35375Y5600D02*
X35495D01*
X35435Y5540D02*
Y5660D01*
X33875Y5600D02*
X33995D01*
X33935Y5540D02*
Y5660D01*
X36875Y17600D02*
X36995D01*
X36935Y17540D02*
Y17660D01*
X34625Y16100D02*
X34745D01*
X34685Y16040D02*
Y16160D01*
X33875Y17600D02*
X33995D01*
X33935Y17540D02*
Y17660D01*
X30665Y2900D02*
X30785D01*
X30725Y2840D02*
Y2960D01*
X22279Y10884D02*
X22399D01*
X22339Y10824D02*
Y10944D01*
X22900Y12065D02*
X23020D01*
X22960Y12005D02*
Y12125D01*
X38615Y9360D02*
X38735D01*
X38675Y9300D02*
Y9420D01*
X30745Y5620D02*
X30865D01*
X30805Y5560D02*
Y5680D01*
X31005Y5905D02*
X31125D01*
X31065Y5845D02*
Y5965D01*
X31805Y7880D02*
X31925D01*
X31865Y7820D02*
Y7940D01*
X30135Y5270D02*
X30255D01*
X30195Y5210D02*
Y5330D01*
X28245Y5920D02*
X28365D01*
X28305Y5860D02*
Y5980D01*
X29791Y8650D02*
X29911D01*
X29851Y8590D02*
Y8710D01*
X30025Y9370D02*
X30145D01*
X30085Y9310D02*
Y9430D01*
X30385Y8880D02*
X30505D01*
X30445Y8820D02*
Y8940D01*
X22599Y9024D02*
X22719D01*
X22659Y8964D02*
Y9084D01*
X28305Y7670D02*
X28425D01*
X28365Y7610D02*
Y7730D01*
X28645Y7580D02*
X28765D01*
X28705Y7520D02*
Y7640D01*
X28974Y7493D02*
X29094D01*
X29034Y7433D02*
Y7553D01*
X29355Y7660D02*
X29475D01*
X29415Y7600D02*
Y7720D01*
X29797Y7679D02*
X29917D01*
X29857Y7619D02*
Y7739D01*
X30496Y12353D02*
X30616D01*
X30556Y12293D02*
Y12413D01*
X30265Y12610D02*
X30385D01*
X30325Y12550D02*
Y12670D01*
X30045Y12850D02*
X30165D01*
X30105Y12790D02*
Y12910D01*
X29775Y13140D02*
X29895D01*
X29835Y13080D02*
Y13200D01*
X30695Y12110D02*
X30815D01*
X30755Y12050D02*
Y12170D01*
X28795Y12810D02*
X28915D01*
X28855Y12750D02*
Y12870D01*
X27155Y10290D02*
X27275D01*
X27215Y10230D02*
Y10350D01*
X30144Y6671D02*
X30264D01*
X30204Y6611D02*
Y6731D01*
X34155Y8620D02*
X34275D01*
X34215Y8560D02*
Y8680D01*
X28325Y10210D02*
X28445D01*
X28385Y10150D02*
Y10270D01*
X28605Y10450D02*
X28725D01*
X28665Y10390D02*
Y10510D01*
X28885Y9700D02*
X29005D01*
X28945Y9640D02*
Y9760D01*
X29115Y9970D02*
X29235D01*
X29175Y9910D02*
Y10030D01*
X22225Y4100D02*
X22345D01*
X22285Y4040D02*
Y4160D01*
X22585Y4630D02*
X22705D01*
X22645Y4570D02*
Y4690D01*
X30294Y6954D02*
X30414D01*
X30354Y6894D02*
Y7014D01*
X30625Y7640D02*
X30745D01*
X30685Y7580D02*
Y7700D01*
X30305Y7650D02*
X30425D01*
X30365Y7590D02*
Y7710D01*
X28433Y10728D02*
X28553D01*
X28493Y10668D02*
Y10788D01*
X29405Y10210D02*
X29525D01*
X29465Y10150D02*
Y10270D01*
X32635Y10060D02*
X32755D01*
X32695Y10000D02*
Y10120D01*
X39055Y9360D02*
X39175D01*
X39115Y9300D02*
Y9420D01*
X28605Y8750D02*
X28725D01*
X28665Y8690D02*
Y8810D01*
X28245Y6250D02*
X28365D01*
X28305Y6190D02*
Y6310D01*
X32885Y7210D02*
X33005D01*
X32945Y7150D02*
Y7270D01*
X31141Y8396D02*
X31261D01*
X31201Y8336D02*
Y8456D01*
X23641Y18914D02*
X23761D01*
X23701Y18854D02*
Y18974D01*
X26745Y9020D02*
X26865D01*
X26805Y8960D02*
Y9080D01*
X36042Y16585D02*
X36162D01*
X36102Y16525D02*
Y16645D01*
X35295Y740D02*
X35415D01*
X35355Y680D02*
Y800D01*
X28885Y2240D02*
X29005D01*
X28945Y2180D02*
Y2300D01*
X31685Y8960D02*
X31805D01*
X31745Y8900D02*
Y9020D01*
X28935Y14840D02*
X29055D01*
X28995Y14780D02*
Y14900D01*
X30595Y6410D02*
X30715D01*
X30655Y6350D02*
Y6470D01*
X30920Y4974D02*
X31040D01*
X30980Y4914D02*
Y5034D01*
X30465Y5350D02*
X30585D01*
X30525Y5290D02*
Y5410D01*
X29115Y13610D02*
X29235D01*
X29175Y13550D02*
Y13670D01*
X29566Y13601D02*
X29686D01*
X29626Y13541D02*
Y13661D01*
X28545Y12560D02*
X28665D01*
X28605Y12500D02*
Y12620D01*
X31765Y10400D02*
X31885D01*
X31825Y10340D02*
Y10460D01*
X30475Y9640D02*
X30595D01*
X30535Y9580D02*
Y9700D01*
X30515Y10010D02*
X30635D01*
X30575Y9950D02*
Y10070D01*
X27185Y10640D02*
X27305D01*
X27245Y10580D02*
Y10700D01*
X26518Y9940D02*
X26638D01*
X26578Y9880D02*
Y10000D01*
X26795Y9820D02*
X26915D01*
X26855Y9760D02*
Y9880D01*
X34105Y15370D02*
X34225D01*
X34165Y15310D02*
Y15430D01*
X34472Y15370D02*
X34592D01*
X34532Y15310D02*
Y15430D01*
X34605Y14790D02*
X34725D01*
X34665Y14730D02*
Y14850D01*
X34838Y15370D02*
X34958D01*
X34898Y15310D02*
Y15430D01*
X35005Y16820D02*
X35125D01*
X35065Y16760D02*
Y16880D01*
X35305Y16550D02*
X35425D01*
X35365Y16490D02*
Y16610D01*
X35005Y16550D02*
X35125D01*
X35065Y16490D02*
Y16610D01*
X34605Y15090D02*
X34725D01*
X34665Y15030D02*
Y15150D01*
X35205Y15370D02*
X35325D01*
X35265Y15310D02*
Y15430D01*
X32045Y11360D02*
X32165D01*
X32105Y11300D02*
Y11420D01*
X31455Y13440D02*
X31575D01*
X31515Y13380D02*
Y13500D01*
X31455Y13710D02*
X31575D01*
X31515Y13650D02*
Y13770D01*
X31985Y13440D02*
X32105D01*
X32045Y13380D02*
Y13500D01*
X33405Y11380D02*
X33525D01*
X33465Y11320D02*
Y11440D01*
X33745Y11380D02*
X33865D01*
X33805Y11320D02*
Y11440D01*
X34545Y11380D02*
X34665D01*
X34605Y11320D02*
Y11440D01*
X35045Y11030D02*
X35165D01*
X35105Y10970D02*
Y11090D01*
X24605Y18720D02*
X24725D01*
X24665Y18660D02*
Y18780D01*
X24605Y18240D02*
X24725D01*
X24665Y18180D02*
Y18300D01*
X25105Y18240D02*
X25225D01*
X25165Y18180D02*
Y18300D01*
X26975Y6690D02*
X27095D01*
X27035Y6630D02*
Y6750D01*
X27245Y6990D02*
X27365D01*
X27305Y6930D02*
Y7050D01*
X27245Y6690D02*
X27365D01*
X27305Y6630D02*
Y6750D01*
X22978Y2276D02*
X23098D01*
X23038Y2216D02*
Y2336D01*
X23641Y3164D02*
X23761D01*
X23701Y3104D02*
Y3224D01*
X35294Y3164D02*
X35414D01*
X35354Y3104D02*
Y3224D01*
X35957Y832D02*
X36077D01*
X36017Y772D02*
Y892D01*
X32199Y6800D02*
X32319D01*
X32259Y6740D02*
Y6860D01*
X32199Y6199D02*
X32319D01*
X32259Y6139D02*
Y6259D01*
X32199Y5598D02*
X32319D01*
X32259Y5538D02*
Y5658D01*
X32199Y4980D02*
X32319D01*
X32259Y4920D02*
Y5040D01*
X26127Y4757D02*
X26247D01*
X26187Y4697D02*
Y4817D01*
X26127Y4148D02*
X26247D01*
X26187Y4088D02*
Y4208D01*
X26127Y3540D02*
X26247D01*
X26187Y3480D02*
Y3600D01*
X25975Y5450D02*
X26095D01*
X26035Y5390D02*
Y5510D01*
X28092Y13200D02*
X28212D01*
X28152Y13140D02*
Y13260D01*
X26192Y12403D02*
X26312D01*
X26252Y12343D02*
Y12463D01*
X23641Y16521D02*
X23761D01*
X23701Y16461D02*
Y16581D01*
X22978Y18853D02*
X23098D01*
X23038Y18793D02*
Y18913D01*
X28554Y11986D02*
X28674D01*
X28614Y11926D02*
Y12046D01*
X26845Y12403D02*
X26965D01*
X26905Y12343D02*
Y12463D01*
X27065Y9590D02*
X27185D01*
X27125Y9530D02*
Y9650D01*
X24941Y11747D02*
X25061D01*
X25001Y11687D02*
Y11807D01*
X26189Y10450D02*
X26309D01*
X26249Y10390D02*
Y10510D01*
X26189Y8360D02*
X26309D01*
X26249Y8300D02*
Y8420D01*
X26272Y9687D02*
X26392D01*
X26332Y9627D02*
Y9747D01*
X24968Y9400D02*
X25088D01*
X25028Y9340D02*
Y9460D01*
X26060Y12835D02*
X26180D01*
X26120Y12775D02*
Y12895D01*
X24415Y13580D02*
X24535D01*
X24475Y13520D02*
Y13640D01*
X26060Y15052D02*
X26180D01*
X26120Y14992D02*
Y15112D01*
X24375Y14070D02*
X24495D01*
X24435Y14010D02*
Y14130D01*
X29135Y12080D02*
X29255D01*
X29195Y12020D02*
Y12140D01*
X31605Y10725D02*
X31725D01*
X31665Y10665D02*
Y10785D01*
X29664Y4757D02*
X29784D01*
X29724Y4697D02*
Y4817D01*
X32095Y3316D02*
X32215D01*
X32155Y3256D02*
Y3376D01*
X23501Y13026D02*
X23621D01*
X23561Y12966D02*
Y13086D01*
X23501Y14870D02*
X23621D01*
X23561Y14810D02*
Y14930D01*
X35360Y13525D02*
X35480D01*
X35420Y13465D02*
Y13585D01*
X36307Y17753D02*
X36427D01*
X36367Y17693D02*
Y17813D01*
X22255Y3100D02*
X22375D01*
X22315Y3040D02*
Y3160D01*
X36672Y3100D02*
X36792D01*
X36732Y3040D02*
Y3160D01*
X28094Y14777D02*
X28214D01*
X28154Y14717D02*
Y14837D01*
X28094Y13980D02*
X28214D01*
X28154Y13920D02*
Y14040D01*
X22263Y16585D02*
X22383D01*
X22323Y16525D02*
Y16645D01*
X36672Y16585D02*
X36792D01*
X36732Y16525D02*
Y16645D01*
X27745Y12056D02*
X27865D01*
X27805Y11996D02*
Y12116D01*
X24941Y11110D02*
X25061D01*
X25001Y11050D02*
Y11170D01*
X25925Y8786D02*
X26045D01*
X25985Y8726D02*
Y8846D01*
X31295Y5905D02*
X31415D01*
X31355Y5845D02*
Y5965D01*
X23501Y14316D02*
X23621D01*
X23561Y14256D02*
Y14376D01*
X24941Y12400D02*
X25061D01*
X25001Y12340D02*
Y12460D01*
X32405Y12280D02*
X32525D01*
X32465Y12220D02*
Y12340D01*
X33585Y12470D02*
X33705D01*
X33645Y12410D02*
Y12530D01*
X35035Y12310D02*
X35155D01*
X35095Y12250D02*
Y12370D01*
X37618Y-1469D02*
X37972D01*
X37795Y-1646D02*
Y-1291D01*
X37618Y-2468D02*
X37972D01*
X37795Y-2646D02*
Y-2291D01*
X37618Y-8343D02*
X37972D01*
X37795Y-8520D02*
Y-8165D01*
X37618Y-7343D02*
X37972D01*
X37795Y-7520D02*
Y-7165D01*
X37618Y-4343D02*
X37972D01*
X37795Y-4520D02*
Y-4165D01*
X37618Y-11343D02*
X37972D01*
X37795Y-11520D02*
Y-11165D01*
X37618Y-12343D02*
X37972D01*
X37795Y-12520D02*
Y-12165D01*
X37618Y-15343D02*
X37972D01*
X37795Y-15520D02*
Y-15165D01*
X37618Y-9343D02*
X37972D01*
X37795Y-9520D02*
Y-9165D01*
X37618Y-6343D02*
X37972D01*
X37795Y-6520D02*
Y-6165D01*
X37618Y-5343D02*
X37972D01*
X37795Y-5520D02*
Y-5165D01*
X37618Y-10343D02*
X37972D01*
X37795Y-10520D02*
Y-10165D01*
X37618Y-13343D02*
X37972D01*
X37795Y-13520D02*
Y-13165D01*
X37618Y-14343D02*
X37972D01*
X37795Y-14520D02*
Y-14165D01*
X32713Y-18720D02*
X33067D01*
X32890Y-18897D02*
Y-18543D01*
X33713Y-18720D02*
X34067D01*
X33890Y-18897D02*
Y-18543D01*
X21083Y-15343D02*
X21437D01*
X21260Y-15520D02*
Y-15165D01*
X21083Y-14343D02*
X21437D01*
X21260Y-14520D02*
Y-14165D01*
X21083Y-13343D02*
X21437D01*
X21260Y-13520D02*
Y-13165D01*
X21083Y-12343D02*
X21437D01*
X21260Y-12520D02*
Y-12165D01*
X21083Y-11343D02*
X21437D01*
X21260Y-11520D02*
Y-11165D01*
X21083Y-10343D02*
X21437D01*
X21260Y-10520D02*
Y-10165D01*
X21083Y-4343D02*
X21437D01*
X21260Y-4520D02*
Y-4165D01*
X21083Y-5343D02*
X21437D01*
X21260Y-5520D02*
Y-5165D01*
X21083Y-6343D02*
X21437D01*
X21260Y-6520D02*
Y-6165D01*
X21083Y-7343D02*
X21437D01*
X21260Y-7520D02*
Y-7165D01*
X21083Y-8343D02*
X21437D01*
X21260Y-8520D02*
Y-8165D01*
X21083Y-9343D02*
X21437D01*
X21260Y-9520D02*
Y-9165D01*
X21083Y-2468D02*
X21437D01*
X21260Y-2646D02*
Y-2291D01*
X21083Y-1469D02*
X21437D01*
X21260Y-1646D02*
Y-1291D01*
X21083Y-17217D02*
X21437D01*
X21260Y-17394D02*
Y-17039D01*
X21083Y-18217D02*
X21437D01*
X21260Y-18394D02*
Y-18039D01*
X37618Y-17217D02*
X37972D01*
X37795Y-17394D02*
Y-17039D01*
X37618Y-18217D02*
X37972D01*
X37795Y-18394D02*
Y-18039D01*
X22060Y-17600D02*
X22180D01*
X22120Y-17660D02*
Y-17540D01*
X22060Y-14600D02*
X22180D01*
X22120Y-14660D02*
Y-14540D01*
X22810Y-10100D02*
X22930D01*
X22870Y-10160D02*
Y-10040D01*
X22810Y-7100D02*
X22930D01*
X22870Y-7160D02*
Y-7040D01*
X24310Y-16100D02*
X24430D01*
X24370Y-16160D02*
Y-16040D01*
X23560Y-8600D02*
X23680D01*
X23620Y-8660D02*
Y-8540D01*
X24310Y-7100D02*
X24430D01*
X24370Y-7160D02*
Y-7040D01*
X23560Y-5600D02*
X23680D01*
X23620Y-5660D02*
Y-5540D01*
X25060Y-17600D02*
X25180D01*
X25120Y-17660D02*
Y-17540D01*
X25060Y-5600D02*
X25180D01*
X25120Y-5660D02*
Y-5540D01*
X25810Y-1100D02*
X25930D01*
X25870Y-1160D02*
Y-1040D01*
X26560Y-8600D02*
X26680D01*
X26620Y-8660D02*
Y-8540D01*
X26560Y-2600D02*
X26680D01*
X26620Y-2660D02*
Y-2540D01*
X27310Y-1100D02*
X27430D01*
X27370Y-1160D02*
Y-1040D01*
X28060Y-11600D02*
X28180D01*
X28120Y-11660D02*
Y-11540D01*
X28060Y-2600D02*
X28180D01*
X28120Y-2660D02*
Y-2540D01*
X28810Y-1100D02*
X28930D01*
X28870Y-1160D02*
Y-1040D01*
X30310Y-16100D02*
X30430D01*
X30370Y-16160D02*
Y-16040D01*
X29560Y-14600D02*
X29680D01*
X29620Y-14660D02*
Y-14540D01*
X30310Y-13100D02*
X30430D01*
X30370Y-13160D02*
Y-13040D01*
X29560Y-2600D02*
X29680D01*
X29620Y-2660D02*
Y-2540D01*
X30310Y-1100D02*
X30430D01*
X30370Y-1160D02*
Y-1040D01*
X31810Y-16100D02*
X31930D01*
X31870Y-16160D02*
Y-16040D01*
X31060Y-11600D02*
X31180D01*
X31120Y-11660D02*
Y-11540D01*
X31060Y-2600D02*
X31180D01*
X31120Y-2660D02*
Y-2540D01*
X31810Y-1100D02*
X31930D01*
X31870Y-1160D02*
Y-1040D01*
X33310Y-16100D02*
X33430D01*
X33370Y-16160D02*
Y-16040D01*
X32560Y-8600D02*
X32680D01*
X32620Y-8660D02*
Y-8540D01*
X33310Y-4100D02*
X33430D01*
X33370Y-4160D02*
Y-4040D01*
X32560Y-2600D02*
X32680D01*
X32620Y-2660D02*
Y-2540D01*
X33310Y-1100D02*
X33430D01*
X33370Y-1160D02*
Y-1040D01*
X34060Y-17600D02*
X34180D01*
X34120Y-17660D02*
Y-17540D01*
X34810Y-16100D02*
X34930D01*
X34870Y-16160D02*
Y-16040D01*
X34810Y-10100D02*
X34930D01*
X34870Y-10160D02*
Y-10040D01*
X34060Y-8600D02*
X34180D01*
X34120Y-8660D02*
Y-8540D01*
X34810Y-7100D02*
X34930D01*
X34870Y-7160D02*
Y-7040D01*
X34810Y-4100D02*
X34930D01*
X34870Y-4160D02*
Y-4040D01*
X35560Y-11600D02*
X35680D01*
X35620Y-11660D02*
Y-11540D01*
X35560Y-8600D02*
X35680D01*
X35620Y-8660D02*
Y-8540D01*
X36310Y-7100D02*
X36430D01*
X36370Y-7160D02*
Y-7040D01*
X35560Y-5600D02*
X35680D01*
X35620Y-5660D02*
Y-5540D01*
X37060Y-14600D02*
X37180D01*
X37120Y-14660D02*
Y-14540D01*
X37060Y-11600D02*
X37180D01*
X37120Y-11660D02*
Y-11540D01*
X31810Y-1100D02*
X31930D01*
X31870Y-1160D02*
Y-1040D01*
X33310Y-1100D02*
X33430D01*
X33370Y-1160D02*
Y-1040D01*
X22810Y-7100D02*
X22930D01*
X22870Y-7160D02*
Y-7040D01*
X24310Y-7100D02*
X24430D01*
X24370Y-7160D02*
Y-7040D01*
X23560Y-5600D02*
X23680D01*
X23620Y-5660D02*
Y-5540D01*
X25060Y-5600D02*
X25180D01*
X25120Y-5660D02*
Y-5540D01*
X22060Y-17600D02*
X22180D01*
X22120Y-17660D02*
Y-17540D01*
X24310Y-16100D02*
X24430D01*
X24370Y-16160D02*
Y-16040D01*
X25060Y-17600D02*
X25180D01*
X25120Y-17660D02*
Y-17540D01*
X28270Y-2900D02*
X28390D01*
X28330Y-2960D02*
Y-2840D01*
X36656Y-10884D02*
X36776D01*
X36716Y-10944D02*
Y-10824D01*
X36035Y-12065D02*
X36155D01*
X36095Y-12125D02*
Y-12005D01*
X20320Y-9360D02*
X20440D01*
X20380Y-9420D02*
Y-9300D01*
X28190Y-5620D02*
X28310D01*
X28250Y-5680D02*
Y-5560D01*
X27930Y-5905D02*
X28050D01*
X27990Y-5965D02*
Y-5845D01*
X27130Y-7880D02*
X27250D01*
X27190Y-7940D02*
Y-7820D01*
X28800Y-5270D02*
X28920D01*
X28860Y-5330D02*
Y-5210D01*
X30690Y-5920D02*
X30810D01*
X30750Y-5980D02*
Y-5860D01*
X29144Y-8650D02*
X29264D01*
X29204Y-8710D02*
Y-8590D01*
X28910Y-9370D02*
X29030D01*
X28970Y-9430D02*
Y-9310D01*
X28550Y-8880D02*
X28670D01*
X28610Y-8940D02*
Y-8820D01*
X36336Y-9024D02*
X36456D01*
X36396Y-9084D02*
Y-8964D01*
X30630Y-7670D02*
X30750D01*
X30690Y-7730D02*
Y-7610D01*
X30290Y-7580D02*
X30410D01*
X30350Y-7640D02*
Y-7520D01*
X29961Y-7493D02*
X30081D01*
X30021Y-7553D02*
Y-7433D01*
X29580Y-7660D02*
X29700D01*
X29640Y-7720D02*
Y-7600D01*
X29138Y-7679D02*
X29258D01*
X29198Y-7739D02*
Y-7619D01*
X28440Y-12353D02*
X28560D01*
X28500Y-12413D02*
Y-12293D01*
X28670Y-12610D02*
X28790D01*
X28730Y-12670D02*
Y-12550D01*
X28890Y-12850D02*
X29010D01*
X28950Y-12910D02*
Y-12790D01*
X29160Y-13140D02*
X29280D01*
X29220Y-13200D02*
Y-13080D01*
X28240Y-12110D02*
X28360D01*
X28300Y-12170D02*
Y-12050D01*
X30140Y-12810D02*
X30260D01*
X30200Y-12870D02*
Y-12750D01*
X31780Y-10290D02*
X31900D01*
X31840Y-10350D02*
Y-10230D01*
X28792Y-6671D02*
X28912D01*
X28852Y-6731D02*
Y-6611D01*
X24780Y-8620D02*
X24900D01*
X24840Y-8680D02*
Y-8560D01*
X30610Y-10210D02*
X30730D01*
X30670Y-10270D02*
Y-10150D01*
X30330Y-10450D02*
X30450D01*
X30390Y-10510D02*
Y-10390D01*
X30050Y-9700D02*
X30170D01*
X30110Y-9760D02*
Y-9640D01*
X29820Y-9970D02*
X29940D01*
X29880Y-10030D02*
Y-9910D01*
X36710Y-4100D02*
X36830D01*
X36770Y-4160D02*
Y-4040D01*
X36350Y-4630D02*
X36470D01*
X36410Y-4690D02*
Y-4570D01*
X28641Y-6954D02*
X28761D01*
X28701Y-7014D02*
Y-6894D01*
X28310Y-7640D02*
X28430D01*
X28370Y-7700D02*
Y-7580D01*
X28630Y-7650D02*
X28750D01*
X28690Y-7710D02*
Y-7590D01*
X30502Y-10728D02*
X30622D01*
X30562Y-10788D02*
Y-10668D01*
X29530Y-10210D02*
X29650D01*
X29590Y-10270D02*
Y-10150D01*
X26300Y-10060D02*
X26420D01*
X26360Y-10120D02*
Y-10000D01*
X19880Y-9360D02*
X20000D01*
X19940Y-9420D02*
Y-9300D01*
X30330Y-8750D02*
X30450D01*
X30390Y-8810D02*
Y-8690D01*
X30690Y-6250D02*
X30810D01*
X30750Y-6310D02*
Y-6190D01*
X26050Y-7210D02*
X26170D01*
X26110Y-7270D02*
Y-7150D01*
X27794Y-8396D02*
X27914D01*
X27854Y-8456D02*
Y-8336D01*
X35294Y-18914D02*
X35414D01*
X35354Y-18974D02*
Y-18854D01*
X32190Y-9020D02*
X32310D01*
X32250Y-9080D02*
Y-8960D01*
X22893Y-16585D02*
X23013D01*
X22953Y-16645D02*
Y-16525D01*
X23640Y-740D02*
X23760D01*
X23700Y-800D02*
Y-680D01*
X30050Y-2240D02*
X30170D01*
X30110Y-2300D02*
Y-2180D01*
X27250Y-8960D02*
X27370D01*
X27310Y-9020D02*
Y-8900D01*
X30000Y-14840D02*
X30120D01*
X30060Y-14900D02*
Y-14780D01*
X28340Y-6410D02*
X28460D01*
X28400Y-6470D02*
Y-6350D01*
X28015Y-4974D02*
X28135D01*
X28075Y-5034D02*
Y-4914D01*
X28470Y-5350D02*
X28590D01*
X28530Y-5410D02*
Y-5290D01*
X29820Y-13610D02*
X29940D01*
X29880Y-13670D02*
Y-13550D01*
X29369Y-13601D02*
X29489D01*
X29429Y-13661D02*
Y-13541D01*
X30390Y-12560D02*
X30510D01*
X30450Y-12620D02*
Y-12500D01*
X27170Y-10400D02*
X27290D01*
X27230Y-10460D02*
Y-10340D01*
X28460Y-9640D02*
X28580D01*
X28520Y-9700D02*
Y-9580D01*
X28420Y-10010D02*
X28540D01*
X28480Y-10070D02*
Y-9950D01*
X31750Y-10640D02*
X31870D01*
X31810Y-10700D02*
Y-10580D01*
X32417Y-9940D02*
X32537D01*
X32477Y-10000D02*
Y-9880D01*
X32140Y-9820D02*
X32260D01*
X32200Y-9880D02*
Y-9760D01*
X24830Y-15370D02*
X24950D01*
X24890Y-15430D02*
Y-15310D01*
X24463Y-15370D02*
X24583D01*
X24523Y-15430D02*
Y-15310D01*
X24330Y-14790D02*
X24450D01*
X24390Y-14850D02*
Y-14730D01*
X24097Y-15370D02*
X24217D01*
X24157Y-15430D02*
Y-15310D01*
X23930Y-16820D02*
X24050D01*
X23990Y-16880D02*
Y-16760D01*
X23630Y-16550D02*
X23750D01*
X23690Y-16610D02*
Y-16490D01*
X23930Y-16550D02*
X24050D01*
X23990Y-16610D02*
Y-16490D01*
X24330Y-15090D02*
X24450D01*
X24390Y-15150D02*
Y-15030D01*
X23730Y-15370D02*
X23850D01*
X23790Y-15430D02*
Y-15310D01*
X26890Y-11360D02*
X27010D01*
X26950Y-11420D02*
Y-11300D01*
X27480Y-13440D02*
X27600D01*
X27540Y-13500D02*
Y-13380D01*
X27480Y-13710D02*
X27600D01*
X27540Y-13770D02*
Y-13650D01*
X26950Y-13440D02*
X27070D01*
X27010Y-13500D02*
Y-13380D01*
X25530Y-11380D02*
X25650D01*
X25590Y-11440D02*
Y-11320D01*
X25190Y-11380D02*
X25310D01*
X25250Y-11440D02*
Y-11320D01*
X24390Y-11380D02*
X24510D01*
X24450Y-11440D02*
Y-11320D01*
X23890Y-11030D02*
X24010D01*
X23950Y-11090D02*
Y-10970D01*
X34330Y-18720D02*
X34450D01*
X34390Y-18780D02*
Y-18660D01*
X34330Y-18240D02*
X34450D01*
X34390Y-18300D02*
Y-18180D01*
X33830Y-18240D02*
X33950D01*
X33890Y-18300D02*
Y-18180D01*
X31960Y-6690D02*
X32080D01*
X32020Y-6750D02*
Y-6630D01*
X31690Y-6990D02*
X31810D01*
X31750Y-7050D02*
Y-6930D01*
X31690Y-6690D02*
X31810D01*
X31750Y-6750D02*
Y-6630D01*
X35957Y-2276D02*
X36077D01*
X36017Y-2336D02*
Y-2216D01*
X35294Y-3164D02*
X35414D01*
X35354Y-3224D02*
Y-3104D01*
X23641Y-3164D02*
X23761D01*
X23701Y-3224D02*
Y-3104D01*
X22978Y-832D02*
X23098D01*
X23038Y-892D02*
Y-772D01*
X26736Y-6800D02*
X26856D01*
X26796Y-6860D02*
Y-6740D01*
X26736Y-6199D02*
X26856D01*
X26796Y-6259D02*
Y-6139D01*
X26736Y-5598D02*
X26856D01*
X26796Y-5658D02*
Y-5538D01*
X26736Y-4980D02*
X26856D01*
X26796Y-5040D02*
Y-4920D01*
X32808Y-4757D02*
X32928D01*
X32868Y-4817D02*
Y-4697D01*
X32808Y-4148D02*
X32928D01*
X32868Y-4208D02*
Y-4088D01*
X32808Y-3540D02*
X32928D01*
X32868Y-3600D02*
Y-3480D01*
X32960Y-5450D02*
X33080D01*
X33020Y-5510D02*
Y-5390D01*
X30843Y-13200D02*
X30963D01*
X30903Y-13260D02*
Y-13140D01*
X32743Y-12403D02*
X32863D01*
X32803Y-12463D02*
Y-12343D01*
X35294Y-16521D02*
X35414D01*
X35354Y-16581D02*
Y-16461D01*
X35957Y-18853D02*
X36077D01*
X36017Y-18913D02*
Y-18793D01*
X30381Y-11986D02*
X30501D01*
X30441Y-12046D02*
Y-11926D01*
X32091Y-12403D02*
X32211D01*
X32151Y-12463D02*
Y-12343D01*
X31870Y-9590D02*
X31990D01*
X31930Y-9650D02*
Y-9530D01*
X33994Y-11747D02*
X34114D01*
X34054Y-11807D02*
Y-11687D01*
X32746Y-10450D02*
X32866D01*
X32806Y-10510D02*
Y-10390D01*
X32746Y-8360D02*
X32866D01*
X32806Y-8420D02*
Y-8300D01*
X32663Y-9687D02*
X32783D01*
X32723Y-9747D02*
Y-9627D01*
X33967Y-9400D02*
X34087D01*
X34027Y-9460D02*
Y-9340D01*
X32875Y-12835D02*
X32995D01*
X32935Y-12895D02*
Y-12775D01*
X34520Y-13580D02*
X34640D01*
X34580Y-13640D02*
Y-13520D01*
X32875Y-15052D02*
X32995D01*
X32935Y-15112D02*
Y-14992D01*
X34560Y-14070D02*
X34680D01*
X34620Y-14130D02*
Y-14010D01*
X29800Y-12080D02*
X29920D01*
X29860Y-12140D02*
Y-12020D01*
X27330Y-10725D02*
X27450D01*
X27390Y-10785D02*
Y-10665D01*
X29271Y-4757D02*
X29391D01*
X29331Y-4817D02*
Y-4697D01*
X26840Y-3316D02*
X26960D01*
X26900Y-3376D02*
Y-3256D01*
X35434Y-13026D02*
X35554D01*
X35494Y-13086D02*
Y-12966D01*
X35434Y-14870D02*
X35554D01*
X35494Y-14930D02*
Y-14810D01*
X23575Y-13525D02*
X23695D01*
X23635Y-13585D02*
Y-13465D01*
X22628Y-17753D02*
X22748D01*
X22688Y-17813D02*
Y-17693D01*
X36680Y-3100D02*
X36800D01*
X36740Y-3160D02*
Y-3040D01*
X22263Y-3100D02*
X22383D01*
X22323Y-3160D02*
Y-3040D01*
X30841Y-14777D02*
X30961D01*
X30901Y-14837D02*
Y-14717D01*
X30841Y-13980D02*
X30961D01*
X30901Y-14040D02*
Y-13920D01*
X36672Y-16585D02*
X36792D01*
X36732Y-16645D02*
Y-16525D01*
X22263Y-16585D02*
X22383D01*
X22323Y-16645D02*
Y-16525D01*
X31190Y-12056D02*
X31310D01*
X31250Y-12116D02*
Y-11996D01*
X33994Y-11110D02*
X34114D01*
X34054Y-11170D02*
Y-11050D01*
X33010Y-8786D02*
X33130D01*
X33070Y-8846D02*
Y-8726D01*
X27640Y-5905D02*
X27760D01*
X27700Y-5965D02*
Y-5845D01*
X35434Y-14316D02*
X35554D01*
X35494Y-14376D02*
Y-14256D01*
X33994Y-12400D02*
X34114D01*
X34054Y-12460D02*
Y-12340D01*
X26530Y-12280D02*
X26650D01*
X26590Y-12340D02*
Y-12220D01*
X25350Y-12470D02*
X25470D01*
X25410Y-12530D02*
Y-12410D01*
X23900Y-12310D02*
X24020D01*
X23960Y-12370D02*
Y-12250D01*
X17933Y-1469D02*
X18287D01*
X18110Y-1646D02*
Y-1291D01*
X17933Y-2468D02*
X18287D01*
X18110Y-2646D02*
Y-2291D01*
X17933Y-8343D02*
X18287D01*
X18110Y-8520D02*
Y-8165D01*
X17933Y-7343D02*
X18287D01*
X18110Y-7520D02*
Y-7165D01*
X17933Y-4343D02*
X18287D01*
X18110Y-4520D02*
Y-4165D01*
X17933Y-11343D02*
X18287D01*
X18110Y-11520D02*
Y-11165D01*
X17933Y-12343D02*
X18287D01*
X18110Y-12520D02*
Y-12165D01*
X17933Y-15343D02*
X18287D01*
X18110Y-15520D02*
Y-15165D01*
X17933Y-9343D02*
X18287D01*
X18110Y-9520D02*
Y-9165D01*
X17933Y-6343D02*
X18287D01*
X18110Y-6520D02*
Y-6165D01*
X17933Y-5343D02*
X18287D01*
X18110Y-5520D02*
Y-5165D01*
X17933Y-10343D02*
X18287D01*
X18110Y-10520D02*
Y-10165D01*
X17933Y-13343D02*
X18287D01*
X18110Y-13520D02*
Y-13165D01*
X17933Y-14343D02*
X18287D01*
X18110Y-14520D02*
Y-14165D01*
X13028Y-18720D02*
X13382D01*
X13205Y-18897D02*
Y-18543D01*
X14028Y-18720D02*
X14382D01*
X14205Y-18897D02*
Y-18543D01*
X1398Y-15343D02*
X1752D01*
X1575Y-15520D02*
Y-15165D01*
X1398Y-14343D02*
X1752D01*
X1575Y-14520D02*
Y-14165D01*
X1398Y-13343D02*
X1752D01*
X1575Y-13520D02*
Y-13165D01*
X1398Y-12343D02*
X1752D01*
X1575Y-12520D02*
Y-12165D01*
X1398Y-11343D02*
X1752D01*
X1575Y-11520D02*
Y-11165D01*
X1398Y-10343D02*
X1752D01*
X1575Y-10520D02*
Y-10165D01*
X1398Y-4343D02*
X1752D01*
X1575Y-4520D02*
Y-4165D01*
X1398Y-5343D02*
X1752D01*
X1575Y-5520D02*
Y-5165D01*
X1398Y-6343D02*
X1752D01*
X1575Y-6520D02*
Y-6165D01*
X1398Y-7343D02*
X1752D01*
X1575Y-7520D02*
Y-7165D01*
X1398Y-8343D02*
X1752D01*
X1575Y-8520D02*
Y-8165D01*
X1398Y-9343D02*
X1752D01*
X1575Y-9520D02*
Y-9165D01*
X1398Y-2468D02*
X1752D01*
X1575Y-2646D02*
Y-2291D01*
X1398Y-1469D02*
X1752D01*
X1575Y-1646D02*
Y-1291D01*
X1398Y-17217D02*
X1752D01*
X1575Y-17394D02*
Y-17039D01*
X1398Y-18217D02*
X1752D01*
X1575Y-18394D02*
Y-18039D01*
X17933Y-17217D02*
X18287D01*
X18110Y-17394D02*
Y-17039D01*
X17933Y-18217D02*
X18287D01*
X18110Y-18394D02*
Y-18039D01*
X2375Y-17600D02*
X2495D01*
X2435Y-17660D02*
Y-17540D01*
X2375Y-14600D02*
X2495D01*
X2435Y-14660D02*
Y-14540D01*
X3125Y-10100D02*
X3245D01*
X3185Y-10160D02*
Y-10040D01*
X3125Y-7100D02*
X3245D01*
X3185Y-7160D02*
Y-7040D01*
X4625Y-16100D02*
X4745D01*
X4685Y-16160D02*
Y-16040D01*
X3875Y-8600D02*
X3995D01*
X3935Y-8660D02*
Y-8540D01*
X4625Y-7100D02*
X4745D01*
X4685Y-7160D02*
Y-7040D01*
X3875Y-5600D02*
X3995D01*
X3935Y-5660D02*
Y-5540D01*
X5375Y-17600D02*
X5495D01*
X5435Y-17660D02*
Y-17540D01*
X5375Y-5600D02*
X5495D01*
X5435Y-5660D02*
Y-5540D01*
X6125Y-1100D02*
X6245D01*
X6185Y-1160D02*
Y-1040D01*
X6875Y-8600D02*
X6995D01*
X6935Y-8660D02*
Y-8540D01*
X6875Y-2600D02*
X6995D01*
X6935Y-2660D02*
Y-2540D01*
X7625Y-1100D02*
X7745D01*
X7685Y-1160D02*
Y-1040D01*
X8375Y-11600D02*
X8495D01*
X8435Y-11660D02*
Y-11540D01*
X8375Y-2600D02*
X8495D01*
X8435Y-2660D02*
Y-2540D01*
X9125Y-1100D02*
X9245D01*
X9185Y-1160D02*
Y-1040D01*
X10625Y-16100D02*
X10745D01*
X10685Y-16160D02*
Y-16040D01*
X9875Y-14600D02*
X9995D01*
X9935Y-14660D02*
Y-14540D01*
X10625Y-13100D02*
X10745D01*
X10685Y-13160D02*
Y-13040D01*
X9875Y-2600D02*
X9995D01*
X9935Y-2660D02*
Y-2540D01*
X10625Y-1100D02*
X10745D01*
X10685Y-1160D02*
Y-1040D01*
X12125Y-16100D02*
X12245D01*
X12185Y-16160D02*
Y-16040D01*
X11375Y-11600D02*
X11495D01*
X11435Y-11660D02*
Y-11540D01*
X11375Y-2600D02*
X11495D01*
X11435Y-2660D02*
Y-2540D01*
X12125Y-1100D02*
X12245D01*
X12185Y-1160D02*
Y-1040D01*
X13625Y-16100D02*
X13745D01*
X13685Y-16160D02*
Y-16040D01*
X12875Y-8600D02*
X12995D01*
X12935Y-8660D02*
Y-8540D01*
X13625Y-4100D02*
X13745D01*
X13685Y-4160D02*
Y-4040D01*
X12875Y-2600D02*
X12995D01*
X12935Y-2660D02*
Y-2540D01*
X13625Y-1100D02*
X13745D01*
X13685Y-1160D02*
Y-1040D01*
X14375Y-17600D02*
X14495D01*
X14435Y-17660D02*
Y-17540D01*
X15125Y-16100D02*
X15245D01*
X15185Y-16160D02*
Y-16040D01*
X15125Y-10100D02*
X15245D01*
X15185Y-10160D02*
Y-10040D01*
X14375Y-8600D02*
X14495D01*
X14435Y-8660D02*
Y-8540D01*
X15125Y-7100D02*
X15245D01*
X15185Y-7160D02*
Y-7040D01*
X15125Y-4100D02*
X15245D01*
X15185Y-4160D02*
Y-4040D01*
X15875Y-11600D02*
X15995D01*
X15935Y-11660D02*
Y-11540D01*
X15875Y-8600D02*
X15995D01*
X15935Y-8660D02*
Y-8540D01*
X16625Y-7100D02*
X16745D01*
X16685Y-7160D02*
Y-7040D01*
X15875Y-5600D02*
X15995D01*
X15935Y-5660D02*
Y-5540D01*
X17375Y-14600D02*
X17495D01*
X17435Y-14660D02*
Y-14540D01*
X17375Y-11600D02*
X17495D01*
X17435Y-11660D02*
Y-11540D01*
X12125Y-1100D02*
X12245D01*
X12185Y-1160D02*
Y-1040D01*
X13625Y-1100D02*
X13745D01*
X13685Y-1160D02*
Y-1040D01*
X3125Y-7100D02*
X3245D01*
X3185Y-7160D02*
Y-7040D01*
X4625Y-7100D02*
X4745D01*
X4685Y-7160D02*
Y-7040D01*
X3875Y-5600D02*
X3995D01*
X3935Y-5660D02*
Y-5540D01*
X5375Y-5600D02*
X5495D01*
X5435Y-5660D02*
Y-5540D01*
X2375Y-17600D02*
X2495D01*
X2435Y-17660D02*
Y-17540D01*
X4625Y-16100D02*
X4745D01*
X4685Y-16160D02*
Y-16040D01*
X5375Y-17600D02*
X5495D01*
X5435Y-17660D02*
Y-17540D01*
X8585Y-2900D02*
X8705D01*
X8645Y-2960D02*
Y-2840D01*
X16971Y-10884D02*
X17091D01*
X17031Y-10944D02*
Y-10824D01*
X16350Y-12065D02*
X16470D01*
X16410Y-12125D02*
Y-12005D01*
X635Y-9360D02*
X755D01*
X695Y-9420D02*
Y-9300D01*
X8505Y-5620D02*
X8625D01*
X8565Y-5680D02*
Y-5560D01*
X8245Y-5905D02*
X8365D01*
X8305Y-5965D02*
Y-5845D01*
X7445Y-7880D02*
X7565D01*
X7505Y-7940D02*
Y-7820D01*
X9115Y-5270D02*
X9235D01*
X9175Y-5330D02*
Y-5210D01*
X11005Y-5920D02*
X11125D01*
X11065Y-5980D02*
Y-5860D01*
X9459Y-8650D02*
X9579D01*
X9519Y-8710D02*
Y-8590D01*
X9225Y-9370D02*
X9345D01*
X9285Y-9430D02*
Y-9310D01*
X8865Y-8880D02*
X8985D01*
X8925Y-8940D02*
Y-8820D01*
X16651Y-9024D02*
X16771D01*
X16711Y-9084D02*
Y-8964D01*
X10945Y-7670D02*
X11065D01*
X11005Y-7730D02*
Y-7610D01*
X10605Y-7580D02*
X10725D01*
X10665Y-7640D02*
Y-7520D01*
X10276Y-7493D02*
X10396D01*
X10336Y-7553D02*
Y-7433D01*
X9895Y-7660D02*
X10015D01*
X9955Y-7720D02*
Y-7600D01*
X9453Y-7679D02*
X9573D01*
X9513Y-7739D02*
Y-7619D01*
X8755Y-12353D02*
X8875D01*
X8815Y-12413D02*
Y-12293D01*
X8985Y-12610D02*
X9105D01*
X9045Y-12670D02*
Y-12550D01*
X9205Y-12850D02*
X9325D01*
X9265Y-12910D02*
Y-12790D01*
X9475Y-13140D02*
X9595D01*
X9535Y-13200D02*
Y-13080D01*
X8555Y-12110D02*
X8675D01*
X8615Y-12170D02*
Y-12050D01*
X10455Y-12810D02*
X10575D01*
X10515Y-12870D02*
Y-12750D01*
X12095Y-10290D02*
X12215D01*
X12155Y-10350D02*
Y-10230D01*
X9106Y-6671D02*
X9226D01*
X9166Y-6731D02*
Y-6611D01*
X5095Y-8620D02*
X5215D01*
X5155Y-8680D02*
Y-8560D01*
X10925Y-10210D02*
X11045D01*
X10985Y-10270D02*
Y-10150D01*
X10645Y-10450D02*
X10765D01*
X10705Y-10510D02*
Y-10390D01*
X10365Y-9700D02*
X10485D01*
X10425Y-9760D02*
Y-9640D01*
X10135Y-9970D02*
X10255D01*
X10195Y-10030D02*
Y-9910D01*
X17025Y-4100D02*
X17145D01*
X17085Y-4160D02*
Y-4040D01*
X16665Y-4630D02*
X16785D01*
X16725Y-4690D02*
Y-4570D01*
X8956Y-6954D02*
X9076D01*
X9016Y-7014D02*
Y-6894D01*
X8625Y-7640D02*
X8745D01*
X8685Y-7700D02*
Y-7580D01*
X8945Y-7650D02*
X9065D01*
X9005Y-7710D02*
Y-7590D01*
X10817Y-10728D02*
X10937D01*
X10877Y-10788D02*
Y-10668D01*
X9845Y-10210D02*
X9965D01*
X9905Y-10270D02*
Y-10150D01*
X6615Y-10060D02*
X6735D01*
X6675Y-10120D02*
Y-10000D01*
X195Y-9360D02*
X315D01*
X255Y-9420D02*
Y-9300D01*
X10645Y-8750D02*
X10765D01*
X10705Y-8810D02*
Y-8690D01*
X11005Y-6250D02*
X11125D01*
X11065Y-6310D02*
Y-6190D01*
X6365Y-7210D02*
X6485D01*
X6425Y-7270D02*
Y-7150D01*
X8109Y-8396D02*
X8229D01*
X8169Y-8456D02*
Y-8336D01*
X15609Y-18914D02*
X15729D01*
X15669Y-18974D02*
Y-18854D01*
X12505Y-9020D02*
X12625D01*
X12565Y-9080D02*
Y-8960D01*
X3208Y-16585D02*
X3328D01*
X3268Y-16645D02*
Y-16525D01*
X3955Y-740D02*
X4075D01*
X4015Y-800D02*
Y-680D01*
X10365Y-2240D02*
X10485D01*
X10425Y-2300D02*
Y-2180D01*
X7565Y-8960D02*
X7685D01*
X7625Y-9020D02*
Y-8900D01*
X10315Y-14840D02*
X10435D01*
X10375Y-14900D02*
Y-14780D01*
X8655Y-6410D02*
X8775D01*
X8715Y-6470D02*
Y-6350D01*
X8330Y-4974D02*
X8450D01*
X8390Y-5034D02*
Y-4914D01*
X8785Y-5350D02*
X8905D01*
X8845Y-5410D02*
Y-5290D01*
X10135Y-13610D02*
X10255D01*
X10195Y-13670D02*
Y-13550D01*
X9684Y-13601D02*
X9804D01*
X9744Y-13661D02*
Y-13541D01*
X10705Y-12560D02*
X10825D01*
X10765Y-12620D02*
Y-12500D01*
X7485Y-10400D02*
X7605D01*
X7545Y-10460D02*
Y-10340D01*
X8775Y-9640D02*
X8895D01*
X8835Y-9700D02*
Y-9580D01*
X8735Y-10010D02*
X8855D01*
X8795Y-10070D02*
Y-9950D01*
X12065Y-10640D02*
X12185D01*
X12125Y-10700D02*
Y-10580D01*
X12732Y-9940D02*
X12852D01*
X12792Y-10000D02*
Y-9880D01*
X12455Y-9820D02*
X12575D01*
X12515Y-9880D02*
Y-9760D01*
X5145Y-15370D02*
X5265D01*
X5205Y-15430D02*
Y-15310D01*
X4778Y-15370D02*
X4898D01*
X4838Y-15430D02*
Y-15310D01*
X4645Y-14790D02*
X4765D01*
X4705Y-14850D02*
Y-14730D01*
X4412Y-15370D02*
X4532D01*
X4472Y-15430D02*
Y-15310D01*
X4245Y-16820D02*
X4365D01*
X4305Y-16880D02*
Y-16760D01*
X3945Y-16550D02*
X4065D01*
X4005Y-16610D02*
Y-16490D01*
X4245Y-16550D02*
X4365D01*
X4305Y-16610D02*
Y-16490D01*
X4645Y-15090D02*
X4765D01*
X4705Y-15150D02*
Y-15030D01*
X4045Y-15370D02*
X4165D01*
X4105Y-15430D02*
Y-15310D01*
X7205Y-11360D02*
X7325D01*
X7265Y-11420D02*
Y-11300D01*
X7795Y-13440D02*
X7915D01*
X7855Y-13500D02*
Y-13380D01*
X7795Y-13710D02*
X7915D01*
X7855Y-13770D02*
Y-13650D01*
X7265Y-13440D02*
X7385D01*
X7325Y-13500D02*
Y-13380D01*
X5845Y-11380D02*
X5965D01*
X5905Y-11440D02*
Y-11320D01*
X5505Y-11380D02*
X5625D01*
X5565Y-11440D02*
Y-11320D01*
X4705Y-11380D02*
X4825D01*
X4765Y-11440D02*
Y-11320D01*
X4205Y-11030D02*
X4325D01*
X4265Y-11090D02*
Y-10970D01*
X14645Y-18720D02*
X14765D01*
X14705Y-18780D02*
Y-18660D01*
X14645Y-18240D02*
X14765D01*
X14705Y-18300D02*
Y-18180D01*
X14145Y-18240D02*
X14265D01*
X14205Y-18300D02*
Y-18180D01*
X12275Y-6690D02*
X12395D01*
X12335Y-6750D02*
Y-6630D01*
X12005Y-6990D02*
X12125D01*
X12065Y-7050D02*
Y-6930D01*
X12005Y-6690D02*
X12125D01*
X12065Y-6750D02*
Y-6630D01*
X16272Y-2276D02*
X16392D01*
X16332Y-2336D02*
Y-2216D01*
X15609Y-3164D02*
X15729D01*
X15669Y-3224D02*
Y-3104D01*
X3956Y-3164D02*
X4076D01*
X4016Y-3224D02*
Y-3104D01*
X3293Y-832D02*
X3413D01*
X3353Y-892D02*
Y-772D01*
X7051Y-6800D02*
X7171D01*
X7111Y-6860D02*
Y-6740D01*
X7051Y-6199D02*
X7171D01*
X7111Y-6259D02*
Y-6139D01*
X7051Y-5598D02*
X7171D01*
X7111Y-5658D02*
Y-5538D01*
X7051Y-4980D02*
X7171D01*
X7111Y-5040D02*
Y-4920D01*
X13123Y-4757D02*
X13243D01*
X13183Y-4817D02*
Y-4697D01*
X13123Y-4148D02*
X13243D01*
X13183Y-4208D02*
Y-4088D01*
X13123Y-3540D02*
X13243D01*
X13183Y-3600D02*
Y-3480D01*
X13275Y-5450D02*
X13395D01*
X13335Y-5510D02*
Y-5390D01*
X11158Y-13200D02*
X11278D01*
X11218Y-13260D02*
Y-13140D01*
X13058Y-12403D02*
X13178D01*
X13118Y-12463D02*
Y-12343D01*
X15609Y-16521D02*
X15729D01*
X15669Y-16581D02*
Y-16461D01*
X16272Y-18853D02*
X16392D01*
X16332Y-18913D02*
Y-18793D01*
X10696Y-11986D02*
X10816D01*
X10756Y-12046D02*
Y-11926D01*
X12406Y-12403D02*
X12526D01*
X12466Y-12463D02*
Y-12343D01*
X12185Y-9590D02*
X12305D01*
X12245Y-9650D02*
Y-9530D01*
X14309Y-11747D02*
X14429D01*
X14369Y-11807D02*
Y-11687D01*
X13061Y-10450D02*
X13181D01*
X13121Y-10510D02*
Y-10390D01*
X13061Y-8360D02*
X13181D01*
X13121Y-8420D02*
Y-8300D01*
X12978Y-9687D02*
X13098D01*
X13038Y-9747D02*
Y-9627D01*
X14282Y-9400D02*
X14402D01*
X14342Y-9460D02*
Y-9340D01*
X13190Y-12835D02*
X13310D01*
X13250Y-12895D02*
Y-12775D01*
X14835Y-13580D02*
X14955D01*
X14895Y-13640D02*
Y-13520D01*
X13190Y-15052D02*
X13310D01*
X13250Y-15112D02*
Y-14992D01*
X14875Y-14070D02*
X14995D01*
X14935Y-14130D02*
Y-14010D01*
X10115Y-12080D02*
X10235D01*
X10175Y-12140D02*
Y-12020D01*
X7645Y-10725D02*
X7765D01*
X7705Y-10785D02*
Y-10665D01*
X9586Y-4757D02*
X9706D01*
X9646Y-4817D02*
Y-4697D01*
X7155Y-3316D02*
X7275D01*
X7215Y-3376D02*
Y-3256D01*
X15749Y-13026D02*
X15869D01*
X15809Y-13086D02*
Y-12966D01*
X15749Y-14870D02*
X15869D01*
X15809Y-14930D02*
Y-14810D01*
X3890Y-13525D02*
X4010D01*
X3950Y-13585D02*
Y-13465D01*
X2943Y-17753D02*
X3063D01*
X3003Y-17813D02*
Y-17693D01*
X16995Y-3100D02*
X17115D01*
X17055Y-3160D02*
Y-3040D01*
X2578Y-3100D02*
X2698D01*
X2638Y-3160D02*
Y-3040D01*
X11156Y-14777D02*
X11276D01*
X11216Y-14837D02*
Y-14717D01*
X11156Y-13980D02*
X11276D01*
X11216Y-14040D02*
Y-13920D01*
X16987Y-16585D02*
X17107D01*
X17047Y-16645D02*
Y-16525D01*
X2578Y-16585D02*
X2698D01*
X2638Y-16645D02*
Y-16525D01*
X11505Y-12056D02*
X11625D01*
X11565Y-12116D02*
Y-11996D01*
X14309Y-11110D02*
X14429D01*
X14369Y-11170D02*
Y-11050D01*
X13325Y-8786D02*
X13445D01*
X13385Y-8846D02*
Y-8726D01*
X7955Y-5905D02*
X8075D01*
X8015Y-5965D02*
Y-5845D01*
X15749Y-14316D02*
X15869D01*
X15809Y-14376D02*
Y-14256D01*
X14309Y-12400D02*
X14429D01*
X14369Y-12460D02*
Y-12340D01*
X6845Y-12280D02*
X6965D01*
X6905Y-12340D02*
Y-12220D01*
X5665Y-12470D02*
X5785D01*
X5725Y-12530D02*
Y-12410D01*
X4215Y-12310D02*
X4335D01*
X4275Y-12370D02*
Y-12250D01*
M02*
