G04*
G04 #@! TF.GenerationSoftware,Altium Limited,Altium Designer,21.2.2 (38)*
G04*
G04 Layer_Physical_Order=3*
G04 Layer_Color=128*
%FSLAX24Y24*%
%MOIN*%
G70*
G04*
G04 #@! TF.SameCoordinates,7BEC17FB-94DA-460C-997F-5D10B4D38A6F*
G04*
G04*
G04 #@! TF.FilePolarity,Negative*
G04*
G01*
G75*
%ADD51C,0.0400*%
%ADD52R,0.1950X3.9300*%
%ADD53C,0.1581*%
%ADD54C,0.0514*%
%ADD55C,0.0280*%
D51*
X-1969Y-19685D02*
Y19685D01*
X41339D01*
Y-19685D02*
Y19685D01*
X-1969Y-19685D02*
X41339D01*
X394Y19685D02*
G03*
X0Y19291I-0J-394D01*
G01*
X19685D02*
G03*
X19291Y19685I-394J0D01*
G01*
X19291Y0D02*
G03*
X19685Y394I0J394D01*
G01*
X0Y394D02*
G03*
X394Y0I394J0D01*
G01*
X0Y19291D02*
X0Y394D01*
X394Y19685D02*
X19291D01*
X19685Y394D02*
Y19291D01*
X394Y0D02*
X19291D01*
X20079Y19685D02*
G03*
X19685Y19291I-0J-394D01*
G01*
X39370D02*
G03*
X38976Y19685I-394J0D01*
G01*
X38976Y0D02*
G03*
X39370Y394I0J394D01*
G01*
X19685Y394D02*
G03*
X20079Y0I394J0D01*
G01*
X19685Y19291D02*
X19685Y394D01*
X20079Y19685D02*
X38976D01*
X39370Y394D02*
Y19291D01*
X20079Y0D02*
X38976D01*
X38976Y-19685D02*
G03*
X39370Y-19291I0J394D01*
G01*
X19685D02*
G03*
X20079Y-19685I394J0D01*
G01*
X20079Y0D02*
G03*
X19685Y-394I0J-394D01*
G01*
X39370Y-394D02*
G03*
X38976Y0I-394J0D01*
G01*
X39370Y-19291D02*
X39370Y-394D01*
X38976Y-19685D02*
X20079D01*
X19685Y-394D02*
Y-19291D01*
X38976Y0D02*
X20079D01*
X19291Y-19685D02*
G03*
X19685Y-19291I0J394D01*
G01*
X0D02*
G03*
X394Y-19685I394J0D01*
G01*
X394Y0D02*
G03*
X0Y-394I0J-394D01*
G01*
X19685Y-394D02*
G03*
X19291Y0I-394J0D01*
G01*
X19685Y-19291D02*
X19685Y-394D01*
X19291Y-19685D02*
X394D01*
X0Y-394D02*
Y-19291D01*
X19291Y0D02*
X394D01*
D52*
X-975D02*
D03*
X40364D02*
D03*
D53*
X40354Y-18701D02*
D03*
Y18701D02*
D03*
X-984D02*
D03*
Y-18701D02*
D03*
D54*
X1575Y1469D02*
D03*
Y2468D02*
D03*
Y7343D02*
D03*
Y11343D02*
D03*
Y15343D02*
D03*
Y9343D02*
D03*
Y6343D02*
D03*
Y5343D02*
D03*
Y10343D02*
D03*
Y13343D02*
D03*
Y14343D02*
D03*
X6480Y18720D02*
D03*
X5480D02*
D03*
X18110Y15343D02*
D03*
Y14343D02*
D03*
Y13343D02*
D03*
Y12343D02*
D03*
Y10343D02*
D03*
Y4343D02*
D03*
Y5343D02*
D03*
Y6343D02*
D03*
Y7343D02*
D03*
Y8343D02*
D03*
Y9343D02*
D03*
Y2468D02*
D03*
Y1469D02*
D03*
Y17217D02*
D03*
Y18217D02*
D03*
X1575Y17217D02*
D03*
Y18217D02*
D03*
X21260Y1469D02*
D03*
Y2468D02*
D03*
Y7343D02*
D03*
Y11343D02*
D03*
Y15343D02*
D03*
Y9343D02*
D03*
Y6343D02*
D03*
Y5343D02*
D03*
Y10343D02*
D03*
Y13343D02*
D03*
Y14343D02*
D03*
X26165Y18720D02*
D03*
X25165D02*
D03*
X37795Y15343D02*
D03*
Y14343D02*
D03*
Y13343D02*
D03*
Y12343D02*
D03*
Y10343D02*
D03*
Y4343D02*
D03*
Y5343D02*
D03*
Y6343D02*
D03*
Y7343D02*
D03*
Y8343D02*
D03*
Y9343D02*
D03*
Y2468D02*
D03*
Y1469D02*
D03*
Y17217D02*
D03*
Y18217D02*
D03*
X21260Y17217D02*
D03*
Y18217D02*
D03*
X37795Y-1469D02*
D03*
Y-2468D02*
D03*
Y-7343D02*
D03*
Y-11343D02*
D03*
Y-15343D02*
D03*
Y-9343D02*
D03*
Y-6343D02*
D03*
Y-5343D02*
D03*
Y-10343D02*
D03*
Y-13343D02*
D03*
Y-14343D02*
D03*
X32890Y-18720D02*
D03*
X33890D02*
D03*
X21260Y-15343D02*
D03*
Y-14343D02*
D03*
Y-13343D02*
D03*
Y-12343D02*
D03*
Y-10343D02*
D03*
Y-4343D02*
D03*
Y-5343D02*
D03*
Y-6343D02*
D03*
Y-7343D02*
D03*
Y-8343D02*
D03*
Y-9343D02*
D03*
Y-2468D02*
D03*
Y-1469D02*
D03*
Y-17217D02*
D03*
Y-18217D02*
D03*
X37795Y-17217D02*
D03*
Y-18217D02*
D03*
X18110Y-1469D02*
D03*
Y-2468D02*
D03*
Y-7343D02*
D03*
Y-11343D02*
D03*
Y-15343D02*
D03*
Y-9343D02*
D03*
Y-6343D02*
D03*
Y-5343D02*
D03*
Y-10343D02*
D03*
Y-13343D02*
D03*
Y-14343D02*
D03*
X13205Y-18720D02*
D03*
X14205D02*
D03*
X1575Y-15343D02*
D03*
Y-14343D02*
D03*
Y-13343D02*
D03*
Y-12343D02*
D03*
Y-10343D02*
D03*
Y-4343D02*
D03*
Y-5343D02*
D03*
Y-6343D02*
D03*
Y-7343D02*
D03*
Y-8343D02*
D03*
Y-9343D02*
D03*
Y-2468D02*
D03*
Y-1469D02*
D03*
Y-17217D02*
D03*
Y-18217D02*
D03*
X18110Y-17217D02*
D03*
Y-18217D02*
D03*
D55*
X17250Y17600D02*
D03*
Y14600D02*
D03*
X16500Y10100D02*
D03*
Y7100D02*
D03*
X15000Y16100D02*
D03*
X15750Y8600D02*
D03*
X15000Y7100D02*
D03*
X15750Y5600D02*
D03*
X14250Y17600D02*
D03*
Y5600D02*
D03*
X13500Y1100D02*
D03*
X12750Y8600D02*
D03*
Y2600D02*
D03*
X12000Y1100D02*
D03*
X11250Y11600D02*
D03*
Y2600D02*
D03*
X10500Y1100D02*
D03*
X9000Y16100D02*
D03*
X9750Y14600D02*
D03*
X9000Y13100D02*
D03*
X9750Y2600D02*
D03*
X9000Y1100D02*
D03*
X7500Y16100D02*
D03*
X8250Y11600D02*
D03*
Y2600D02*
D03*
X7500Y1100D02*
D03*
X6000Y16100D02*
D03*
X6750Y8600D02*
D03*
X6000Y4100D02*
D03*
X6750Y2600D02*
D03*
X6000Y1100D02*
D03*
X5250Y17600D02*
D03*
X4500Y16100D02*
D03*
Y10100D02*
D03*
X5250Y8600D02*
D03*
X4500Y7100D02*
D03*
Y4100D02*
D03*
X3750Y11600D02*
D03*
Y8600D02*
D03*
X3000Y7100D02*
D03*
X3750Y5600D02*
D03*
X2250Y14600D02*
D03*
Y11600D02*
D03*
X7500Y1100D02*
D03*
X6000D02*
D03*
X16500Y7100D02*
D03*
X15000D02*
D03*
X15750Y5600D02*
D03*
X14250D02*
D03*
X17250Y17600D02*
D03*
X15000Y16100D02*
D03*
X14250Y17600D02*
D03*
X11040Y2900D02*
D03*
X2654Y10884D02*
D03*
X3275Y12065D02*
D03*
X18990Y9360D02*
D03*
X11120Y5620D02*
D03*
X12180Y7880D02*
D03*
X8620Y5920D02*
D03*
X10166Y8650D02*
D03*
X10400Y9370D02*
D03*
X10760Y8880D02*
D03*
X2974Y9024D02*
D03*
X8680Y7670D02*
D03*
X9020Y7580D02*
D03*
X9349Y7493D02*
D03*
X9730Y7660D02*
D03*
X10172Y7679D02*
D03*
X10870Y12353D02*
D03*
X10640Y12610D02*
D03*
X10420Y12850D02*
D03*
X10150Y13140D02*
D03*
X11070Y12110D02*
D03*
X9170Y12810D02*
D03*
X7530Y10290D02*
D03*
X10519Y6671D02*
D03*
X14530Y8620D02*
D03*
X8700Y10210D02*
D03*
X8980Y10450D02*
D03*
X9260Y9700D02*
D03*
X9490Y9970D02*
D03*
X2600Y4100D02*
D03*
X2960Y4630D02*
D03*
X10669Y6954D02*
D03*
X10680Y7650D02*
D03*
X8808Y10728D02*
D03*
X9780Y10210D02*
D03*
X13010Y10060D02*
D03*
X19430Y9360D02*
D03*
X8980Y8750D02*
D03*
X13260Y7210D02*
D03*
X11516Y8396D02*
D03*
X4016Y18914D02*
D03*
X7120Y9020D02*
D03*
X16417Y16585D02*
D03*
X15670Y740D02*
D03*
X9260Y2240D02*
D03*
X12060Y8960D02*
D03*
X9310Y14840D02*
D03*
X10970Y6410D02*
D03*
X11295Y4974D02*
D03*
X10840Y5350D02*
D03*
X9490Y13610D02*
D03*
X9941Y13601D02*
D03*
X8920Y12560D02*
D03*
X12140Y10400D02*
D03*
X10850Y9640D02*
D03*
X10890Y10010D02*
D03*
X7560Y10640D02*
D03*
X6893Y9940D02*
D03*
X7170Y9820D02*
D03*
X14480Y15370D02*
D03*
X14847D02*
D03*
X14980Y14790D02*
D03*
X15213Y15370D02*
D03*
X15380Y16820D02*
D03*
X15680Y16550D02*
D03*
X15380D02*
D03*
X14980Y15090D02*
D03*
X15580Y15370D02*
D03*
X12420Y11360D02*
D03*
X11830Y13440D02*
D03*
Y13710D02*
D03*
X12360Y13440D02*
D03*
X13780Y11380D02*
D03*
X14120D02*
D03*
X14920D02*
D03*
X15420Y11030D02*
D03*
X4980Y18720D02*
D03*
Y18240D02*
D03*
X5480D02*
D03*
X7350Y6690D02*
D03*
X7620Y6990D02*
D03*
Y6690D02*
D03*
X3353Y2276D02*
D03*
X4016Y3164D02*
D03*
X15669D02*
D03*
X16332Y832D02*
D03*
X12574Y6800D02*
D03*
Y6199D02*
D03*
Y5598D02*
D03*
Y4980D02*
D03*
X6502Y4757D02*
D03*
Y4148D02*
D03*
Y3540D02*
D03*
X6350Y5450D02*
D03*
X8467Y13200D02*
D03*
X6567Y12403D02*
D03*
X4016Y16521D02*
D03*
X3353Y18853D02*
D03*
X8929Y11986D02*
D03*
X7219Y12403D02*
D03*
X7440Y9590D02*
D03*
X5316Y11747D02*
D03*
X6564Y10450D02*
D03*
Y8360D02*
D03*
X6647Y9687D02*
D03*
X5343Y9400D02*
D03*
X6435Y12835D02*
D03*
X4790Y13580D02*
D03*
X6435Y15052D02*
D03*
X4750Y14070D02*
D03*
X9510Y12080D02*
D03*
X11980Y10725D02*
D03*
X10039Y4757D02*
D03*
X12470Y3316D02*
D03*
X3876Y13026D02*
D03*
Y14870D02*
D03*
X15735Y13525D02*
D03*
X16682Y17753D02*
D03*
X36935Y17600D02*
D03*
Y14600D02*
D03*
X36185Y10100D02*
D03*
Y7100D02*
D03*
X34685Y16100D02*
D03*
X35435Y8600D02*
D03*
X34685Y7100D02*
D03*
X35435Y5600D02*
D03*
X33935Y17600D02*
D03*
Y5600D02*
D03*
X33185Y1100D02*
D03*
X32435Y8600D02*
D03*
Y2600D02*
D03*
X31685Y1100D02*
D03*
X30935Y11600D02*
D03*
Y2600D02*
D03*
X30185Y1100D02*
D03*
X28685Y16100D02*
D03*
X29435Y14600D02*
D03*
X28685Y13100D02*
D03*
X29435Y2600D02*
D03*
X28685Y1100D02*
D03*
X27185Y16100D02*
D03*
X27935Y11600D02*
D03*
Y2600D02*
D03*
X27185Y1100D02*
D03*
X25685Y16100D02*
D03*
X26435Y8600D02*
D03*
X25685Y4100D02*
D03*
X26435Y2600D02*
D03*
X25685Y1100D02*
D03*
X24935Y17600D02*
D03*
X24185Y16100D02*
D03*
Y10100D02*
D03*
X24935Y8600D02*
D03*
X24185Y7100D02*
D03*
Y4100D02*
D03*
X23435Y11600D02*
D03*
Y8600D02*
D03*
X22685Y7100D02*
D03*
X23435Y5600D02*
D03*
X21935Y14600D02*
D03*
Y11600D02*
D03*
X27185Y1100D02*
D03*
X25685D02*
D03*
X36185Y7100D02*
D03*
X34685D02*
D03*
X35435Y5600D02*
D03*
X33935D02*
D03*
X36935Y17600D02*
D03*
X34685Y16100D02*
D03*
X33935Y17600D02*
D03*
X30725Y2900D02*
D03*
X22339Y10884D02*
D03*
X22960Y12065D02*
D03*
X38675Y9360D02*
D03*
X30805Y5620D02*
D03*
X31865Y7880D02*
D03*
X28305Y5920D02*
D03*
X29851Y8650D02*
D03*
X30085Y9370D02*
D03*
X30445Y8880D02*
D03*
X22659Y9024D02*
D03*
X28365Y7670D02*
D03*
X28705Y7580D02*
D03*
X29034Y7493D02*
D03*
X29415Y7660D02*
D03*
X29857Y7679D02*
D03*
X30556Y12353D02*
D03*
X30325Y12610D02*
D03*
X30105Y12850D02*
D03*
X29835Y13140D02*
D03*
X30755Y12110D02*
D03*
X28855Y12810D02*
D03*
X27215Y10290D02*
D03*
X30204Y6671D02*
D03*
X34215Y8620D02*
D03*
X28385Y10210D02*
D03*
X28665Y10450D02*
D03*
X28945Y9700D02*
D03*
X29175Y9970D02*
D03*
X22285Y4100D02*
D03*
X22645Y4630D02*
D03*
X30354Y6954D02*
D03*
X30365Y7650D02*
D03*
X28493Y10728D02*
D03*
X29465Y10210D02*
D03*
X32695Y10060D02*
D03*
X39115Y9360D02*
D03*
X28665Y8750D02*
D03*
X32945Y7210D02*
D03*
X31201Y8396D02*
D03*
X23701Y18914D02*
D03*
X26805Y9020D02*
D03*
X36102Y16585D02*
D03*
X35355Y740D02*
D03*
X28945Y2240D02*
D03*
X31745Y8960D02*
D03*
X28995Y14840D02*
D03*
X30655Y6410D02*
D03*
X30980Y4974D02*
D03*
X30525Y5350D02*
D03*
X29175Y13610D02*
D03*
X29626Y13601D02*
D03*
X28605Y12560D02*
D03*
X31825Y10400D02*
D03*
X30535Y9640D02*
D03*
X30575Y10010D02*
D03*
X27245Y10640D02*
D03*
X26578Y9940D02*
D03*
X26855Y9820D02*
D03*
X34165Y15370D02*
D03*
X34532D02*
D03*
X34665Y14790D02*
D03*
X34898Y15370D02*
D03*
X35065Y16820D02*
D03*
X35365Y16550D02*
D03*
X35065D02*
D03*
X34665Y15090D02*
D03*
X35265Y15370D02*
D03*
X32105Y11360D02*
D03*
X31515Y13440D02*
D03*
Y13710D02*
D03*
X32045Y13440D02*
D03*
X33465Y11380D02*
D03*
X33805D02*
D03*
X34605D02*
D03*
X35105Y11030D02*
D03*
X24665Y18720D02*
D03*
Y18240D02*
D03*
X25165D02*
D03*
X27035Y6690D02*
D03*
X27305Y6990D02*
D03*
Y6690D02*
D03*
X23038Y2276D02*
D03*
X23701Y3164D02*
D03*
X35354D02*
D03*
X36017Y832D02*
D03*
X32259Y6800D02*
D03*
Y6199D02*
D03*
Y5598D02*
D03*
Y4980D02*
D03*
X26187Y4757D02*
D03*
Y4148D02*
D03*
Y3540D02*
D03*
X26035Y5450D02*
D03*
X28152Y13200D02*
D03*
X26252Y12403D02*
D03*
X23701Y16521D02*
D03*
X23038Y18853D02*
D03*
X28614Y11986D02*
D03*
X26905Y12403D02*
D03*
X27125Y9590D02*
D03*
X25001Y11747D02*
D03*
X26249Y10450D02*
D03*
Y8360D02*
D03*
X26332Y9687D02*
D03*
X25028Y9400D02*
D03*
X26120Y12835D02*
D03*
X24475Y13580D02*
D03*
X26120Y15052D02*
D03*
X24435Y14070D02*
D03*
X29195Y12080D02*
D03*
X31665Y10725D02*
D03*
X29724Y4757D02*
D03*
X32155Y3316D02*
D03*
X23561Y13026D02*
D03*
Y14870D02*
D03*
X35420Y13525D02*
D03*
X36367Y17753D02*
D03*
X22120Y-17600D02*
D03*
Y-14600D02*
D03*
X22870Y-10100D02*
D03*
Y-7100D02*
D03*
X24370Y-16100D02*
D03*
X23620Y-8600D02*
D03*
X24370Y-7100D02*
D03*
X23620Y-5600D02*
D03*
X25120Y-17600D02*
D03*
Y-5600D02*
D03*
X25870Y-1100D02*
D03*
X26620Y-8600D02*
D03*
Y-2600D02*
D03*
X27370Y-1100D02*
D03*
X28120Y-11600D02*
D03*
Y-2600D02*
D03*
X28870Y-1100D02*
D03*
X30370Y-16100D02*
D03*
X29620Y-14600D02*
D03*
X30370Y-13100D02*
D03*
X29620Y-2600D02*
D03*
X30370Y-1100D02*
D03*
X31870Y-16100D02*
D03*
X31120Y-11600D02*
D03*
Y-2600D02*
D03*
X31870Y-1100D02*
D03*
X33370Y-16100D02*
D03*
X32620Y-8600D02*
D03*
X33370Y-4100D02*
D03*
X32620Y-2600D02*
D03*
X33370Y-1100D02*
D03*
X34120Y-17600D02*
D03*
X34870Y-16100D02*
D03*
Y-10100D02*
D03*
X34120Y-8600D02*
D03*
X34870Y-7100D02*
D03*
Y-4100D02*
D03*
X35620Y-11600D02*
D03*
Y-8600D02*
D03*
X36370Y-7100D02*
D03*
X35620Y-5600D02*
D03*
X37120Y-14600D02*
D03*
Y-11600D02*
D03*
X31870Y-1100D02*
D03*
X33370D02*
D03*
X22870Y-7100D02*
D03*
X24370D02*
D03*
X23620Y-5600D02*
D03*
X25120D02*
D03*
X22120Y-17600D02*
D03*
X24370Y-16100D02*
D03*
X25120Y-17600D02*
D03*
X28330Y-2900D02*
D03*
X36716Y-10884D02*
D03*
X36095Y-12065D02*
D03*
X20380Y-9360D02*
D03*
X28250Y-5620D02*
D03*
X27190Y-7880D02*
D03*
X30750Y-5920D02*
D03*
X29204Y-8650D02*
D03*
X28970Y-9370D02*
D03*
X28610Y-8880D02*
D03*
X36396Y-9024D02*
D03*
X30690Y-7670D02*
D03*
X30350Y-7580D02*
D03*
X30021Y-7493D02*
D03*
X29640Y-7660D02*
D03*
X29198Y-7679D02*
D03*
X28500Y-12353D02*
D03*
X28730Y-12610D02*
D03*
X28950Y-12850D02*
D03*
X29220Y-13140D02*
D03*
X28300Y-12110D02*
D03*
X30200Y-12810D02*
D03*
X31840Y-10290D02*
D03*
X28852Y-6671D02*
D03*
X24840Y-8620D02*
D03*
X30670Y-10210D02*
D03*
X30390Y-10450D02*
D03*
X30110Y-9700D02*
D03*
X29880Y-9970D02*
D03*
X36770Y-4100D02*
D03*
X36410Y-4630D02*
D03*
X28701Y-6954D02*
D03*
X28690Y-7650D02*
D03*
X30562Y-10728D02*
D03*
X29590Y-10210D02*
D03*
X26360Y-10060D02*
D03*
X19940Y-9360D02*
D03*
X30390Y-8750D02*
D03*
X26110Y-7210D02*
D03*
X27854Y-8396D02*
D03*
X35354Y-18914D02*
D03*
X32250Y-9020D02*
D03*
X22953Y-16585D02*
D03*
X23700Y-740D02*
D03*
X30110Y-2240D02*
D03*
X27310Y-8960D02*
D03*
X30060Y-14840D02*
D03*
X28400Y-6410D02*
D03*
X28075Y-4974D02*
D03*
X28530Y-5350D02*
D03*
X29880Y-13610D02*
D03*
X29429Y-13601D02*
D03*
X30450Y-12560D02*
D03*
X27230Y-10400D02*
D03*
X28520Y-9640D02*
D03*
X28480Y-10010D02*
D03*
X31810Y-10640D02*
D03*
X32477Y-9940D02*
D03*
X32200Y-9820D02*
D03*
X24890Y-15370D02*
D03*
X24523D02*
D03*
X24390Y-14790D02*
D03*
X24157Y-15370D02*
D03*
X23990Y-16820D02*
D03*
X23690Y-16550D02*
D03*
X23990D02*
D03*
X24390Y-15090D02*
D03*
X23790Y-15370D02*
D03*
X26950Y-11360D02*
D03*
X27540Y-13440D02*
D03*
Y-13710D02*
D03*
X27010Y-13440D02*
D03*
X25590Y-11380D02*
D03*
X25250D02*
D03*
X24450D02*
D03*
X23950Y-11030D02*
D03*
X34390Y-18720D02*
D03*
Y-18240D02*
D03*
X33890D02*
D03*
X32020Y-6690D02*
D03*
X31750Y-6990D02*
D03*
Y-6690D02*
D03*
X36017Y-2276D02*
D03*
X35354Y-3164D02*
D03*
X23701D02*
D03*
X23038Y-832D02*
D03*
X26796Y-6800D02*
D03*
Y-6199D02*
D03*
Y-5598D02*
D03*
Y-4980D02*
D03*
X32868Y-4757D02*
D03*
Y-4148D02*
D03*
Y-3540D02*
D03*
X33020Y-5450D02*
D03*
X30903Y-13200D02*
D03*
X32803Y-12403D02*
D03*
X35354Y-16521D02*
D03*
X36017Y-18853D02*
D03*
X30441Y-11986D02*
D03*
X32151Y-12403D02*
D03*
X31930Y-9590D02*
D03*
X34054Y-11747D02*
D03*
X32806Y-10450D02*
D03*
Y-8360D02*
D03*
X32723Y-9687D02*
D03*
X34027Y-9400D02*
D03*
X32935Y-12835D02*
D03*
X34580Y-13580D02*
D03*
X32935Y-15052D02*
D03*
X34620Y-14070D02*
D03*
X29860Y-12080D02*
D03*
X27390Y-10725D02*
D03*
X29331Y-4757D02*
D03*
X26900Y-3316D02*
D03*
X35494Y-13026D02*
D03*
Y-14870D02*
D03*
X23635Y-13525D02*
D03*
X22688Y-17753D02*
D03*
X2435Y-17600D02*
D03*
Y-14600D02*
D03*
X3185Y-10100D02*
D03*
Y-7100D02*
D03*
X4685Y-16100D02*
D03*
X3935Y-8600D02*
D03*
X4685Y-7100D02*
D03*
X3935Y-5600D02*
D03*
X5435Y-17600D02*
D03*
Y-5600D02*
D03*
X6185Y-1100D02*
D03*
X6935Y-8600D02*
D03*
Y-2600D02*
D03*
X7685Y-1100D02*
D03*
X8435Y-11600D02*
D03*
Y-2600D02*
D03*
X9185Y-1100D02*
D03*
X10685Y-16100D02*
D03*
X9935Y-14600D02*
D03*
X10685Y-13100D02*
D03*
X9935Y-2600D02*
D03*
X10685Y-1100D02*
D03*
X12185Y-16100D02*
D03*
X11435Y-11600D02*
D03*
Y-2600D02*
D03*
X12185Y-1100D02*
D03*
X13685Y-16100D02*
D03*
X12935Y-8600D02*
D03*
X13685Y-4100D02*
D03*
X12935Y-2600D02*
D03*
X13685Y-1100D02*
D03*
X14435Y-17600D02*
D03*
X15185Y-16100D02*
D03*
Y-10100D02*
D03*
X14435Y-8600D02*
D03*
X15185Y-7100D02*
D03*
Y-4100D02*
D03*
X15935Y-11600D02*
D03*
Y-8600D02*
D03*
X16685Y-7100D02*
D03*
X15935Y-5600D02*
D03*
X17435Y-14600D02*
D03*
Y-11600D02*
D03*
X12185Y-1100D02*
D03*
X13685D02*
D03*
X3185Y-7100D02*
D03*
X4685D02*
D03*
X3935Y-5600D02*
D03*
X5435D02*
D03*
X2435Y-17600D02*
D03*
X4685Y-16100D02*
D03*
X5435Y-17600D02*
D03*
X8645Y-2900D02*
D03*
X17031Y-10884D02*
D03*
X16410Y-12065D02*
D03*
X695Y-9360D02*
D03*
X8565Y-5620D02*
D03*
X7505Y-7880D02*
D03*
X11065Y-5920D02*
D03*
X9519Y-8650D02*
D03*
X9285Y-9370D02*
D03*
X8925Y-8880D02*
D03*
X16711Y-9024D02*
D03*
X11005Y-7670D02*
D03*
X10665Y-7580D02*
D03*
X10336Y-7493D02*
D03*
X9955Y-7660D02*
D03*
X9513Y-7679D02*
D03*
X8815Y-12353D02*
D03*
X9045Y-12610D02*
D03*
X9265Y-12850D02*
D03*
X9535Y-13140D02*
D03*
X8615Y-12110D02*
D03*
X10515Y-12810D02*
D03*
X12155Y-10290D02*
D03*
X9166Y-6671D02*
D03*
X5155Y-8620D02*
D03*
X10985Y-10210D02*
D03*
X10705Y-10450D02*
D03*
X10425Y-9700D02*
D03*
X10195Y-9970D02*
D03*
X17085Y-4100D02*
D03*
X16725Y-4630D02*
D03*
X9016Y-6954D02*
D03*
X9005Y-7650D02*
D03*
X10877Y-10728D02*
D03*
X9905Y-10210D02*
D03*
X6675Y-10060D02*
D03*
X255Y-9360D02*
D03*
X10705Y-8750D02*
D03*
X6425Y-7210D02*
D03*
X8169Y-8396D02*
D03*
X15669Y-18914D02*
D03*
X12565Y-9020D02*
D03*
X3268Y-16585D02*
D03*
X4015Y-740D02*
D03*
X10425Y-2240D02*
D03*
X7625Y-8960D02*
D03*
X10375Y-14840D02*
D03*
X8715Y-6410D02*
D03*
X8390Y-4974D02*
D03*
X8845Y-5350D02*
D03*
X10195Y-13610D02*
D03*
X9744Y-13601D02*
D03*
X10765Y-12560D02*
D03*
X7545Y-10400D02*
D03*
X8835Y-9640D02*
D03*
X8795Y-10010D02*
D03*
X12125Y-10640D02*
D03*
X12792Y-9940D02*
D03*
X12515Y-9820D02*
D03*
X5205Y-15370D02*
D03*
X4838D02*
D03*
X4705Y-14790D02*
D03*
X4472Y-15370D02*
D03*
X4305Y-16820D02*
D03*
X4005Y-16550D02*
D03*
X4305D02*
D03*
X4705Y-15090D02*
D03*
X4105Y-15370D02*
D03*
X7265Y-11360D02*
D03*
X7855Y-13440D02*
D03*
Y-13710D02*
D03*
X7325Y-13440D02*
D03*
X5905Y-11380D02*
D03*
X5565D02*
D03*
X4765D02*
D03*
X4265Y-11030D02*
D03*
X14705Y-18720D02*
D03*
Y-18240D02*
D03*
X14205D02*
D03*
X12335Y-6690D02*
D03*
X12065Y-6990D02*
D03*
Y-6690D02*
D03*
X16332Y-2276D02*
D03*
X15669Y-3164D02*
D03*
X4016D02*
D03*
X3353Y-832D02*
D03*
X7111Y-6800D02*
D03*
Y-6199D02*
D03*
Y-5598D02*
D03*
Y-4980D02*
D03*
X13183Y-4757D02*
D03*
Y-4148D02*
D03*
Y-3540D02*
D03*
X13335Y-5450D02*
D03*
X11218Y-13200D02*
D03*
X13118Y-12403D02*
D03*
X15669Y-16521D02*
D03*
X16332Y-18853D02*
D03*
X10756Y-11986D02*
D03*
X12466Y-12403D02*
D03*
X12245Y-9590D02*
D03*
X14369Y-11747D02*
D03*
X13121Y-10450D02*
D03*
Y-8360D02*
D03*
X13038Y-9687D02*
D03*
X14342Y-9400D02*
D03*
X13250Y-12835D02*
D03*
X14895Y-13580D02*
D03*
X13250Y-15052D02*
D03*
X14935Y-14070D02*
D03*
X10175Y-12080D02*
D03*
X7705Y-10725D02*
D03*
X9646Y-4757D02*
D03*
X7215Y-3316D02*
D03*
X15809Y-13026D02*
D03*
Y-14870D02*
D03*
X3950Y-13525D02*
D03*
X3003Y-17753D02*
D03*
M02*
