G04*
G04 #@! TF.GenerationSoftware,Altium Limited,Altium Designer,21.2.2 (38)*
G04*
G04 Layer_Color=2752767*
%FSLAX24Y24*%
%MOIN*%
G70*
G04*
G04 #@! TF.SameCoordinates,7BEC17FB-94DA-460C-997F-5D10B4D38A6F*
G04*
G04*
G04 #@! TF.FilePolarity,Positive*
G04*
G01*
G75*
%ADD98C,0.0020*%
%ADD99C,0.0027*%
D98*
X40274Y-18781D02*
Y-18621D01*
X40434D01*
Y-18781D01*
X40274D01*
Y18621D02*
Y18781D01*
X40434D01*
Y18621D01*
X40274D01*
X-1064D02*
Y18781D01*
X-904D01*
Y18621D01*
X-1064D01*
Y-18781D02*
Y-18621D01*
X-904D01*
Y-18781D01*
X-1064D01*
X17250Y17520D02*
X17170Y17680D01*
X17330D01*
X17250Y17520D01*
Y14520D02*
X17170Y14680D01*
X17330D01*
X17250Y14520D01*
X16500Y10020D02*
X16420Y10180D01*
X16580D01*
X16500Y10020D01*
Y7020D02*
X16420Y7180D01*
X16580D01*
X16500Y7020D01*
X15000Y16020D02*
X14920Y16180D01*
X15080D01*
X15000Y16020D01*
X15750Y8520D02*
X15670Y8680D01*
X15830D01*
X15750Y8520D01*
X15000Y7020D02*
X14920Y7180D01*
X15080D01*
X15000Y7020D01*
X15750Y5520D02*
X15670Y5680D01*
X15830D01*
X15750Y5520D01*
X14250Y17520D02*
X14170Y17680D01*
X14330D01*
X14250Y17520D01*
Y5520D02*
X14170Y5680D01*
X14330D01*
X14250Y5520D01*
X13500Y1020D02*
X13420Y1180D01*
X13580D01*
X13500Y1020D01*
X12750Y8520D02*
X12670Y8680D01*
X12830D01*
X12750Y8520D01*
Y2520D02*
X12670Y2680D01*
X12830D01*
X12750Y2520D01*
X12000Y1020D02*
X11920Y1180D01*
X12080D01*
X12000Y1020D01*
X11250Y11520D02*
X11170Y11680D01*
X11330D01*
X11250Y11520D01*
Y2520D02*
X11170Y2680D01*
X11330D01*
X11250Y2520D01*
X10500Y1020D02*
X10420Y1180D01*
X10580D01*
X10500Y1020D01*
X9000Y16020D02*
X8920Y16180D01*
X9080D01*
X9000Y16020D01*
X9750Y14520D02*
X9670Y14680D01*
X9830D01*
X9750Y14520D01*
X9000Y13020D02*
X8920Y13180D01*
X9080D01*
X9000Y13020D01*
X9750Y2520D02*
X9670Y2680D01*
X9830D01*
X9750Y2520D01*
X9000Y1020D02*
X8920Y1180D01*
X9080D01*
X9000Y1020D01*
X7500Y16020D02*
X7420Y16180D01*
X7580D01*
X7500Y16020D01*
X8250Y11520D02*
X8170Y11680D01*
X8330D01*
X8250Y11520D01*
Y2520D02*
X8170Y2680D01*
X8330D01*
X8250Y2520D01*
X7500Y1020D02*
X7420Y1180D01*
X7580D01*
X7500Y1020D01*
X6000Y16020D02*
X5920Y16180D01*
X6080D01*
X6000Y16020D01*
X6750Y8520D02*
X6670Y8680D01*
X6830D01*
X6750Y8520D01*
X6000Y4020D02*
X5920Y4180D01*
X6080D01*
X6000Y4020D01*
X6750Y2520D02*
X6670Y2680D01*
X6830D01*
X6750Y2520D01*
X6000Y1020D02*
X5920Y1180D01*
X6080D01*
X6000Y1020D01*
X5250Y17520D02*
X5170Y17680D01*
X5330D01*
X5250Y17520D01*
X4500Y16020D02*
X4420Y16180D01*
X4580D01*
X4500Y16020D01*
Y10020D02*
X4420Y10180D01*
X4580D01*
X4500Y10020D01*
X5250Y8520D02*
X5170Y8680D01*
X5330D01*
X5250Y8520D01*
X4500Y7020D02*
X4420Y7180D01*
X4580D01*
X4500Y7020D01*
Y4020D02*
X4420Y4180D01*
X4580D01*
X4500Y4020D01*
X3750Y11520D02*
X3670Y11680D01*
X3830D01*
X3750Y11520D01*
Y8520D02*
X3670Y8680D01*
X3830D01*
X3750Y8520D01*
X3000Y7020D02*
X2920Y7180D01*
X3080D01*
X3000Y7020D01*
X3750Y5520D02*
X3670Y5680D01*
X3830D01*
X3750Y5520D01*
X2250Y14520D02*
X2170Y14680D01*
X2330D01*
X2250Y14520D01*
Y11520D02*
X2170Y11680D01*
X2330D01*
X2250Y11520D01*
X7500Y1020D02*
X7420Y1180D01*
X7580D01*
X7500Y1020D01*
X6000D02*
X5920Y1180D01*
X6080D01*
X6000Y1020D01*
X16500Y7020D02*
X16420Y7180D01*
X16580D01*
X16500Y7020D01*
X15000D02*
X14920Y7180D01*
X15080D01*
X15000Y7020D01*
X15750Y5520D02*
X15670Y5680D01*
X15830D01*
X15750Y5520D01*
X14250D02*
X14170Y5680D01*
X14330D01*
X14250Y5520D01*
X17250Y17520D02*
X17170Y17680D01*
X17330D01*
X17250Y17520D01*
X15000Y16020D02*
X14920Y16180D01*
X15080D01*
X15000Y16020D01*
X14250Y17520D02*
X14170Y17680D01*
X14330D01*
X14250Y17520D01*
X11040Y2820D02*
X10960Y2980D01*
X11120D01*
X11040Y2820D01*
X2654Y10804D02*
X2574Y10964D01*
X2734D01*
X2654Y10804D01*
X3275Y11985D02*
X3195Y12145D01*
X3355D01*
X3275Y11985D01*
X18990Y9280D02*
X18910Y9440D01*
X19070D01*
X18990Y9280D01*
X11120Y5540D02*
X11040Y5700D01*
X11200D01*
X11120Y5540D01*
X11380Y5825D02*
X11300Y5985D01*
X11460D01*
X11380Y5825D01*
X12180Y7800D02*
X12100Y7960D01*
X12260D01*
X12180Y7800D01*
X10510Y5190D02*
X10430Y5350D01*
X10590D01*
X10510Y5190D01*
X8620Y5840D02*
X8540Y6000D01*
X8700D01*
X8620Y5840D01*
X10166Y8570D02*
X10086Y8730D01*
X10246D01*
X10166Y8570D01*
X10400Y9290D02*
X10320Y9450D01*
X10480D01*
X10400Y9290D01*
X10760Y8800D02*
X10680Y8960D01*
X10840D01*
X10760Y8800D01*
X2974Y8944D02*
X2894Y9104D01*
X3054D01*
X2974Y8944D01*
X8680Y7590D02*
X8600Y7750D01*
X8760D01*
X8680Y7590D01*
X9020Y7500D02*
X8940Y7660D01*
X9100D01*
X9020Y7500D01*
X9349Y7413D02*
X9269Y7573D01*
X9429D01*
X9349Y7413D01*
X9730Y7580D02*
X9650Y7740D01*
X9810D01*
X9730Y7580D01*
X10172Y7599D02*
X10092Y7759D01*
X10252D01*
X10172Y7599D01*
X10870Y12273D02*
X10790Y12433D01*
X10950D01*
X10870Y12273D01*
X10640Y12530D02*
X10560Y12690D01*
X10720D01*
X10640Y12530D01*
X10420Y12770D02*
X10340Y12930D01*
X10500D01*
X10420Y12770D01*
X10150Y13060D02*
X10070Y13220D01*
X10230D01*
X10150Y13060D01*
X11070Y12030D02*
X10990Y12190D01*
X11150D01*
X11070Y12030D01*
X9170Y12730D02*
X9090Y12890D01*
X9250D01*
X9170Y12730D01*
X7530Y10210D02*
X7450Y10370D01*
X7610D01*
X7530Y10210D01*
X10519Y6591D02*
X10439Y6751D01*
X10599D01*
X10519Y6591D01*
X14530Y8540D02*
X14450Y8700D01*
X14610D01*
X14530Y8540D01*
X8700Y10130D02*
X8620Y10290D01*
X8780D01*
X8700Y10130D01*
X8980Y10370D02*
X8900Y10530D01*
X9060D01*
X8980Y10370D01*
X9260Y9620D02*
X9180Y9780D01*
X9340D01*
X9260Y9620D01*
X9490Y9890D02*
X9410Y10050D01*
X9570D01*
X9490Y9890D01*
X2600Y4020D02*
X2520Y4180D01*
X2680D01*
X2600Y4020D01*
X2960Y4550D02*
X2880Y4710D01*
X3040D01*
X2960Y4550D01*
X10669Y6874D02*
X10589Y7034D01*
X10749D01*
X10669Y6874D01*
X11000Y7560D02*
X10920Y7720D01*
X11080D01*
X11000Y7560D01*
X10680Y7570D02*
X10600Y7730D01*
X10760D01*
X10680Y7570D01*
X8808Y10648D02*
X8728Y10808D01*
X8888D01*
X8808Y10648D01*
X9780Y10130D02*
X9700Y10290D01*
X9860D01*
X9780Y10130D01*
X13010Y9980D02*
X12930Y10140D01*
X13090D01*
X13010Y9980D01*
X19430Y9280D02*
X19350Y9440D01*
X19510D01*
X19430Y9280D01*
X8980Y8670D02*
X8900Y8830D01*
X9060D01*
X8980Y8670D01*
X8620Y6170D02*
X8540Y6330D01*
X8700D01*
X8620Y6170D01*
X13260Y7130D02*
X13180Y7290D01*
X13340D01*
X13260Y7130D01*
X11516Y8316D02*
X11436Y8476D01*
X11596D01*
X11516Y8316D01*
X4016Y18834D02*
X3936Y18994D01*
X4096D01*
X4016Y18834D01*
X7120Y8940D02*
X7040Y9100D01*
X7200D01*
X7120Y8940D01*
X16417Y16505D02*
X16337Y16665D01*
X16497D01*
X16417Y16505D01*
X15670Y660D02*
X15590Y820D01*
X15750D01*
X15670Y660D01*
X9260Y2160D02*
X9180Y2320D01*
X9340D01*
X9260Y2160D01*
X12060Y8880D02*
X11980Y9040D01*
X12140D01*
X12060Y8880D01*
X9310Y14760D02*
X9230Y14920D01*
X9390D01*
X9310Y14760D01*
X10970Y6330D02*
X10890Y6490D01*
X11050D01*
X10970Y6330D01*
X11295Y4894D02*
X11215Y5054D01*
X11375D01*
X11295Y4894D01*
X10840Y5270D02*
X10760Y5430D01*
X10920D01*
X10840Y5270D01*
X9490Y13530D02*
X9410Y13690D01*
X9570D01*
X9490Y13530D01*
X9941Y13521D02*
X9861Y13681D01*
X10021D01*
X9941Y13521D01*
X8920Y12480D02*
X8840Y12640D01*
X9000D01*
X8920Y12480D01*
X12140Y10320D02*
X12060Y10480D01*
X12220D01*
X12140Y10320D01*
X10850Y9560D02*
X10770Y9720D01*
X10930D01*
X10850Y9560D01*
X10890Y9930D02*
X10810Y10090D01*
X10970D01*
X10890Y9930D01*
X7560Y10560D02*
X7480Y10720D01*
X7640D01*
X7560Y10560D01*
X6893Y9860D02*
X6813Y10020D01*
X6973D01*
X6893Y9860D01*
X7170Y9740D02*
X7090Y9900D01*
X7250D01*
X7170Y9740D01*
X14480Y15290D02*
X14400Y15450D01*
X14560D01*
X14480Y15290D01*
X14847D02*
X14767Y15450D01*
X14927D01*
X14847Y15290D01*
X14980Y14710D02*
X14900Y14870D01*
X15060D01*
X14980Y14710D01*
X15213Y15290D02*
X15133Y15450D01*
X15293D01*
X15213Y15290D01*
X15380Y16740D02*
X15300Y16900D01*
X15460D01*
X15380Y16740D01*
X15680Y16470D02*
X15600Y16630D01*
X15760D01*
X15680Y16470D01*
X15380D02*
X15300Y16630D01*
X15460D01*
X15380Y16470D01*
X14980Y15010D02*
X14900Y15170D01*
X15060D01*
X14980Y15010D01*
X15580Y15290D02*
X15500Y15450D01*
X15660D01*
X15580Y15290D01*
X12420Y11280D02*
X12340Y11440D01*
X12500D01*
X12420Y11280D01*
X11830Y13360D02*
X11750Y13520D01*
X11910D01*
X11830Y13360D01*
Y13630D02*
X11750Y13790D01*
X11910D01*
X11830Y13630D01*
X12360Y13360D02*
X12280Y13520D01*
X12440D01*
X12360Y13360D01*
X13780Y11300D02*
X13700Y11460D01*
X13860D01*
X13780Y11300D01*
X14120D02*
X14040Y11460D01*
X14200D01*
X14120Y11300D01*
X14920D02*
X14840Y11460D01*
X15000D01*
X14920Y11300D01*
X15420Y10950D02*
X15340Y11110D01*
X15500D01*
X15420Y10950D01*
X4980Y18640D02*
X4900Y18800D01*
X5060D01*
X4980Y18640D01*
Y18160D02*
X4900Y18320D01*
X5060D01*
X4980Y18160D01*
X5480D02*
X5400Y18320D01*
X5560D01*
X5480Y18160D01*
X7350Y6610D02*
X7270Y6770D01*
X7430D01*
X7350Y6610D01*
X7620Y6910D02*
X7540Y7070D01*
X7700D01*
X7620Y6910D01*
Y6610D02*
X7540Y6770D01*
X7700D01*
X7620Y6610D01*
X3353Y2196D02*
X3273Y2356D01*
X3433D01*
X3353Y2196D01*
X4016Y3084D02*
X3936Y3244D01*
X4096D01*
X4016Y3084D01*
X15669D02*
X15589Y3244D01*
X15749D01*
X15669Y3084D01*
X16332Y752D02*
X16252Y912D01*
X16412D01*
X16332Y752D01*
X12574Y6720D02*
X12494Y6880D01*
X12654D01*
X12574Y6720D01*
Y6119D02*
X12494Y6279D01*
X12654D01*
X12574Y6119D01*
Y5518D02*
X12494Y5678D01*
X12654D01*
X12574Y5518D01*
Y4900D02*
X12494Y5060D01*
X12654D01*
X12574Y4900D01*
X6502Y4677D02*
X6422Y4837D01*
X6582D01*
X6502Y4677D01*
Y4068D02*
X6422Y4228D01*
X6582D01*
X6502Y4068D01*
Y3460D02*
X6422Y3620D01*
X6582D01*
X6502Y3460D01*
X6350Y5370D02*
X6270Y5530D01*
X6430D01*
X6350Y5370D01*
X8467Y13120D02*
X8387Y13280D01*
X8547D01*
X8467Y13120D01*
X6567Y12323D02*
X6487Y12483D01*
X6647D01*
X6567Y12323D01*
X4016Y16441D02*
X3936Y16601D01*
X4096D01*
X4016Y16441D01*
X3353Y18773D02*
X3273Y18933D01*
X3433D01*
X3353Y18773D01*
X8929Y11906D02*
X8849Y12066D01*
X9009D01*
X8929Y11906D01*
X7219Y12323D02*
X7139Y12483D01*
X7299D01*
X7219Y12323D01*
X7440Y9510D02*
X7360Y9670D01*
X7520D01*
X7440Y9510D01*
X5316Y11667D02*
X5236Y11827D01*
X5396D01*
X5316Y11667D01*
X6564Y10370D02*
X6484Y10530D01*
X6644D01*
X6564Y10370D01*
Y8280D02*
X6484Y8440D01*
X6644D01*
X6564Y8280D01*
X6647Y9607D02*
X6567Y9767D01*
X6727D01*
X6647Y9607D01*
X5343Y9320D02*
X5263Y9480D01*
X5423D01*
X5343Y9320D01*
X6435Y12755D02*
X6355Y12915D01*
X6515D01*
X6435Y12755D01*
X4790Y13500D02*
X4710Y13660D01*
X4870D01*
X4790Y13500D01*
X6435Y14972D02*
X6355Y15132D01*
X6515D01*
X6435Y14972D01*
X4750Y13990D02*
X4670Y14150D01*
X4830D01*
X4750Y13990D01*
X9510Y12000D02*
X9430Y12160D01*
X9590D01*
X9510Y12000D01*
X11980Y10645D02*
X11900Y10805D01*
X12060D01*
X11980Y10645D01*
X10039Y4677D02*
X9959Y4837D01*
X10119D01*
X10039Y4677D01*
X12470Y3236D02*
X12390Y3396D01*
X12550D01*
X12470Y3236D01*
X3876Y12946D02*
X3796Y13106D01*
X3956D01*
X3876Y12946D01*
Y14790D02*
X3796Y14950D01*
X3956D01*
X3876Y14790D01*
X15735Y13445D02*
X15655Y13605D01*
X15815D01*
X15735Y13445D01*
X16682Y17673D02*
X16602Y17833D01*
X16762D01*
X16682Y17673D01*
X2630Y3020D02*
X2550Y3180D01*
X2710D01*
X2630Y3020D01*
X17047D02*
X16967Y3180D01*
X17127D01*
X17047Y3020D01*
X8469Y14697D02*
X8389Y14857D01*
X8549D01*
X8469Y14697D01*
Y13900D02*
X8389Y14060D01*
X8549D01*
X8469Y13900D01*
X2638Y16505D02*
X2558Y16665D01*
X2718D01*
X2638Y16505D01*
X17047D02*
X16967Y16665D01*
X17127D01*
X17047Y16505D01*
X8120Y11976D02*
X8040Y12136D01*
X8200D01*
X8120Y11976D01*
X5316Y11030D02*
X5236Y11190D01*
X5396D01*
X5316Y11030D01*
X6300Y8706D02*
X6220Y8866D01*
X6380D01*
X6300Y8706D01*
X11670Y5825D02*
X11590Y5985D01*
X11750D01*
X11670Y5825D01*
X3876Y14236D02*
X3796Y14396D01*
X3956D01*
X3876Y14236D01*
X5316Y12320D02*
X5236Y12480D01*
X5396D01*
X5316Y12320D01*
X12780Y12200D02*
X12700Y12360D01*
X12860D01*
X12780Y12200D01*
X13960Y12390D02*
X13880Y12550D01*
X14040D01*
X13960Y12390D01*
X15410Y12230D02*
X15330Y12390D01*
X15490D01*
X15410Y12230D01*
X36935Y17520D02*
X36855Y17680D01*
X37015D01*
X36935Y17520D01*
Y14520D02*
X36855Y14680D01*
X37015D01*
X36935Y14520D01*
X36185Y10020D02*
X36105Y10180D01*
X36265D01*
X36185Y10020D01*
Y7020D02*
X36105Y7180D01*
X36265D01*
X36185Y7020D01*
X34685Y16020D02*
X34605Y16180D01*
X34765D01*
X34685Y16020D01*
X35435Y8520D02*
X35355Y8680D01*
X35515D01*
X35435Y8520D01*
X34685Y7020D02*
X34605Y7180D01*
X34765D01*
X34685Y7020D01*
X35435Y5520D02*
X35355Y5680D01*
X35515D01*
X35435Y5520D01*
X33935Y17520D02*
X33855Y17680D01*
X34015D01*
X33935Y17520D01*
Y5520D02*
X33855Y5680D01*
X34015D01*
X33935Y5520D01*
X33185Y1020D02*
X33105Y1180D01*
X33265D01*
X33185Y1020D01*
X32435Y8520D02*
X32355Y8680D01*
X32515D01*
X32435Y8520D01*
Y2520D02*
X32355Y2680D01*
X32515D01*
X32435Y2520D01*
X31685Y1020D02*
X31605Y1180D01*
X31765D01*
X31685Y1020D01*
X30935Y11520D02*
X30855Y11680D01*
X31015D01*
X30935Y11520D01*
Y2520D02*
X30855Y2680D01*
X31015D01*
X30935Y2520D01*
X30185Y1020D02*
X30105Y1180D01*
X30265D01*
X30185Y1020D01*
X28685Y16020D02*
X28605Y16180D01*
X28765D01*
X28685Y16020D01*
X29435Y14520D02*
X29355Y14680D01*
X29515D01*
X29435Y14520D01*
X28685Y13020D02*
X28605Y13180D01*
X28765D01*
X28685Y13020D01*
X29435Y2520D02*
X29355Y2680D01*
X29515D01*
X29435Y2520D01*
X28685Y1020D02*
X28605Y1180D01*
X28765D01*
X28685Y1020D01*
X27185Y16020D02*
X27105Y16180D01*
X27265D01*
X27185Y16020D01*
X27935Y11520D02*
X27855Y11680D01*
X28015D01*
X27935Y11520D01*
Y2520D02*
X27855Y2680D01*
X28015D01*
X27935Y2520D01*
X27185Y1020D02*
X27105Y1180D01*
X27265D01*
X27185Y1020D01*
X25685Y16020D02*
X25605Y16180D01*
X25765D01*
X25685Y16020D01*
X26435Y8520D02*
X26355Y8680D01*
X26515D01*
X26435Y8520D01*
X25685Y4020D02*
X25605Y4180D01*
X25765D01*
X25685Y4020D01*
X26435Y2520D02*
X26355Y2680D01*
X26515D01*
X26435Y2520D01*
X25685Y1020D02*
X25605Y1180D01*
X25765D01*
X25685Y1020D01*
X24935Y17520D02*
X24855Y17680D01*
X25015D01*
X24935Y17520D01*
X24185Y16020D02*
X24105Y16180D01*
X24265D01*
X24185Y16020D01*
Y10020D02*
X24105Y10180D01*
X24265D01*
X24185Y10020D01*
X24935Y8520D02*
X24855Y8680D01*
X25015D01*
X24935Y8520D01*
X24185Y7020D02*
X24105Y7180D01*
X24265D01*
X24185Y7020D01*
Y4020D02*
X24105Y4180D01*
X24265D01*
X24185Y4020D01*
X23435Y11520D02*
X23355Y11680D01*
X23515D01*
X23435Y11520D01*
Y8520D02*
X23355Y8680D01*
X23515D01*
X23435Y8520D01*
X22685Y7020D02*
X22605Y7180D01*
X22765D01*
X22685Y7020D01*
X23435Y5520D02*
X23355Y5680D01*
X23515D01*
X23435Y5520D01*
X21935Y14520D02*
X21855Y14680D01*
X22015D01*
X21935Y14520D01*
Y11520D02*
X21855Y11680D01*
X22015D01*
X21935Y11520D01*
X27185Y1020D02*
X27105Y1180D01*
X27265D01*
X27185Y1020D01*
X25685D02*
X25605Y1180D01*
X25765D01*
X25685Y1020D01*
X36185Y7020D02*
X36105Y7180D01*
X36265D01*
X36185Y7020D01*
X34685D02*
X34605Y7180D01*
X34765D01*
X34685Y7020D01*
X35435Y5520D02*
X35355Y5680D01*
X35515D01*
X35435Y5520D01*
X33935D02*
X33855Y5680D01*
X34015D01*
X33935Y5520D01*
X36935Y17520D02*
X36855Y17680D01*
X37015D01*
X36935Y17520D01*
X34685Y16020D02*
X34605Y16180D01*
X34765D01*
X34685Y16020D01*
X33935Y17520D02*
X33855Y17680D01*
X34015D01*
X33935Y17520D01*
X30725Y2820D02*
X30645Y2980D01*
X30805D01*
X30725Y2820D01*
X22339Y10804D02*
X22259Y10964D01*
X22419D01*
X22339Y10804D01*
X22960Y11985D02*
X22880Y12145D01*
X23040D01*
X22960Y11985D01*
X38675Y9280D02*
X38595Y9440D01*
X38755D01*
X38675Y9280D01*
X30805Y5540D02*
X30725Y5700D01*
X30885D01*
X30805Y5540D01*
X31065Y5825D02*
X30985Y5985D01*
X31145D01*
X31065Y5825D01*
X31865Y7800D02*
X31785Y7960D01*
X31945D01*
X31865Y7800D01*
X30195Y5190D02*
X30115Y5350D01*
X30275D01*
X30195Y5190D01*
X28305Y5840D02*
X28225Y6000D01*
X28385D01*
X28305Y5840D01*
X29851Y8570D02*
X29771Y8730D01*
X29931D01*
X29851Y8570D01*
X30085Y9290D02*
X30005Y9450D01*
X30165D01*
X30085Y9290D01*
X30445Y8800D02*
X30365Y8960D01*
X30525D01*
X30445Y8800D01*
X22659Y8944D02*
X22579Y9104D01*
X22739D01*
X22659Y8944D01*
X28365Y7590D02*
X28285Y7750D01*
X28445D01*
X28365Y7590D01*
X28705Y7500D02*
X28625Y7660D01*
X28785D01*
X28705Y7500D01*
X29034Y7413D02*
X28954Y7573D01*
X29114D01*
X29034Y7413D01*
X29415Y7580D02*
X29335Y7740D01*
X29495D01*
X29415Y7580D01*
X29857Y7599D02*
X29777Y7759D01*
X29937D01*
X29857Y7599D01*
X30556Y12273D02*
X30476Y12433D01*
X30636D01*
X30556Y12273D01*
X30325Y12530D02*
X30245Y12690D01*
X30405D01*
X30325Y12530D01*
X30105Y12770D02*
X30025Y12930D01*
X30185D01*
X30105Y12770D01*
X29835Y13060D02*
X29755Y13220D01*
X29915D01*
X29835Y13060D01*
X30755Y12030D02*
X30675Y12190D01*
X30835D01*
X30755Y12030D01*
X28855Y12730D02*
X28775Y12890D01*
X28935D01*
X28855Y12730D01*
X27215Y10210D02*
X27135Y10370D01*
X27295D01*
X27215Y10210D01*
X30204Y6591D02*
X30124Y6751D01*
X30284D01*
X30204Y6591D01*
X34215Y8540D02*
X34135Y8700D01*
X34295D01*
X34215Y8540D01*
X28385Y10130D02*
X28305Y10290D01*
X28465D01*
X28385Y10130D01*
X28665Y10370D02*
X28585Y10530D01*
X28745D01*
X28665Y10370D01*
X28945Y9620D02*
X28865Y9780D01*
X29025D01*
X28945Y9620D01*
X29175Y9890D02*
X29095Y10050D01*
X29255D01*
X29175Y9890D01*
X22285Y4020D02*
X22205Y4180D01*
X22365D01*
X22285Y4020D01*
X22645Y4550D02*
X22565Y4710D01*
X22725D01*
X22645Y4550D01*
X30354Y6874D02*
X30274Y7034D01*
X30434D01*
X30354Y6874D01*
X30685Y7560D02*
X30605Y7720D01*
X30765D01*
X30685Y7560D01*
X30365Y7570D02*
X30285Y7730D01*
X30445D01*
X30365Y7570D01*
X28493Y10648D02*
X28413Y10808D01*
X28573D01*
X28493Y10648D01*
X29465Y10130D02*
X29385Y10290D01*
X29545D01*
X29465Y10130D01*
X32695Y9980D02*
X32615Y10140D01*
X32775D01*
X32695Y9980D01*
X39115Y9280D02*
X39035Y9440D01*
X39195D01*
X39115Y9280D01*
X28665Y8670D02*
X28585Y8830D01*
X28745D01*
X28665Y8670D01*
X28305Y6170D02*
X28225Y6330D01*
X28385D01*
X28305Y6170D01*
X32945Y7130D02*
X32865Y7290D01*
X33025D01*
X32945Y7130D01*
X31201Y8316D02*
X31121Y8476D01*
X31281D01*
X31201Y8316D01*
X23701Y18834D02*
X23621Y18994D01*
X23781D01*
X23701Y18834D01*
X26805Y8940D02*
X26725Y9100D01*
X26885D01*
X26805Y8940D01*
X36102Y16505D02*
X36022Y16665D01*
X36182D01*
X36102Y16505D01*
X35355Y660D02*
X35275Y820D01*
X35435D01*
X35355Y660D01*
X28945Y2160D02*
X28865Y2320D01*
X29025D01*
X28945Y2160D01*
X31745Y8880D02*
X31665Y9040D01*
X31825D01*
X31745Y8880D01*
X28995Y14760D02*
X28915Y14920D01*
X29075D01*
X28995Y14760D01*
X30655Y6330D02*
X30575Y6490D01*
X30735D01*
X30655Y6330D01*
X30980Y4894D02*
X30900Y5054D01*
X31060D01*
X30980Y4894D01*
X30525Y5270D02*
X30445Y5430D01*
X30605D01*
X30525Y5270D01*
X29175Y13530D02*
X29095Y13690D01*
X29255D01*
X29175Y13530D01*
X29626Y13521D02*
X29546Y13681D01*
X29706D01*
X29626Y13521D01*
X28605Y12480D02*
X28525Y12640D01*
X28685D01*
X28605Y12480D01*
X31825Y10320D02*
X31745Y10480D01*
X31905D01*
X31825Y10320D01*
X30535Y9560D02*
X30455Y9720D01*
X30615D01*
X30535Y9560D01*
X30575Y9930D02*
X30495Y10090D01*
X30655D01*
X30575Y9930D01*
X27245Y10560D02*
X27165Y10720D01*
X27325D01*
X27245Y10560D01*
X26578Y9860D02*
X26498Y10020D01*
X26658D01*
X26578Y9860D01*
X26855Y9740D02*
X26775Y9900D01*
X26935D01*
X26855Y9740D01*
X34165Y15290D02*
X34085Y15450D01*
X34245D01*
X34165Y15290D01*
X34532D02*
X34452Y15450D01*
X34612D01*
X34532Y15290D01*
X34665Y14710D02*
X34585Y14870D01*
X34745D01*
X34665Y14710D01*
X34898Y15290D02*
X34818Y15450D01*
X34978D01*
X34898Y15290D01*
X35065Y16740D02*
X34985Y16900D01*
X35145D01*
X35065Y16740D01*
X35365Y16470D02*
X35285Y16630D01*
X35445D01*
X35365Y16470D01*
X35065D02*
X34985Y16630D01*
X35145D01*
X35065Y16470D01*
X34665Y15010D02*
X34585Y15170D01*
X34745D01*
X34665Y15010D01*
X35265Y15290D02*
X35185Y15450D01*
X35345D01*
X35265Y15290D01*
X32105Y11280D02*
X32025Y11440D01*
X32185D01*
X32105Y11280D01*
X31515Y13360D02*
X31435Y13520D01*
X31595D01*
X31515Y13360D01*
Y13630D02*
X31435Y13790D01*
X31595D01*
X31515Y13630D01*
X32045Y13360D02*
X31965Y13520D01*
X32125D01*
X32045Y13360D01*
X33465Y11300D02*
X33385Y11460D01*
X33545D01*
X33465Y11300D01*
X33805D02*
X33725Y11460D01*
X33885D01*
X33805Y11300D01*
X34605D02*
X34525Y11460D01*
X34685D01*
X34605Y11300D01*
X35105Y10950D02*
X35025Y11110D01*
X35185D01*
X35105Y10950D01*
X24665Y18640D02*
X24585Y18800D01*
X24745D01*
X24665Y18640D01*
Y18160D02*
X24585Y18320D01*
X24745D01*
X24665Y18160D01*
X25165D02*
X25085Y18320D01*
X25245D01*
X25165Y18160D01*
X27035Y6610D02*
X26955Y6770D01*
X27115D01*
X27035Y6610D01*
X27305Y6910D02*
X27225Y7070D01*
X27385D01*
X27305Y6910D01*
Y6610D02*
X27225Y6770D01*
X27385D01*
X27305Y6610D01*
X23038Y2196D02*
X22958Y2356D01*
X23118D01*
X23038Y2196D01*
X23701Y3084D02*
X23621Y3244D01*
X23781D01*
X23701Y3084D01*
X35354D02*
X35274Y3244D01*
X35434D01*
X35354Y3084D01*
X36017Y752D02*
X35937Y912D01*
X36097D01*
X36017Y752D01*
X32259Y6720D02*
X32179Y6880D01*
X32339D01*
X32259Y6720D01*
Y6119D02*
X32179Y6279D01*
X32339D01*
X32259Y6119D01*
Y5518D02*
X32179Y5678D01*
X32339D01*
X32259Y5518D01*
Y4900D02*
X32179Y5060D01*
X32339D01*
X32259Y4900D01*
X26187Y4677D02*
X26107Y4837D01*
X26267D01*
X26187Y4677D01*
Y4068D02*
X26107Y4228D01*
X26267D01*
X26187Y4068D01*
Y3460D02*
X26107Y3620D01*
X26267D01*
X26187Y3460D01*
X26035Y5370D02*
X25955Y5530D01*
X26115D01*
X26035Y5370D01*
X28152Y13120D02*
X28072Y13280D01*
X28232D01*
X28152Y13120D01*
X26252Y12323D02*
X26172Y12483D01*
X26332D01*
X26252Y12323D01*
X23701Y16441D02*
X23621Y16601D01*
X23781D01*
X23701Y16441D01*
X23038Y18773D02*
X22958Y18933D01*
X23118D01*
X23038Y18773D01*
X28614Y11906D02*
X28534Y12066D01*
X28694D01*
X28614Y11906D01*
X26905Y12323D02*
X26825Y12483D01*
X26985D01*
X26905Y12323D01*
X27125Y9510D02*
X27045Y9670D01*
X27205D01*
X27125Y9510D01*
X25001Y11667D02*
X24921Y11827D01*
X25081D01*
X25001Y11667D01*
X26249Y10370D02*
X26169Y10530D01*
X26329D01*
X26249Y10370D01*
Y8280D02*
X26169Y8440D01*
X26329D01*
X26249Y8280D01*
X26332Y9607D02*
X26252Y9767D01*
X26412D01*
X26332Y9607D01*
X25028Y9320D02*
X24948Y9480D01*
X25108D01*
X25028Y9320D01*
X26120Y12755D02*
X26040Y12915D01*
X26200D01*
X26120Y12755D01*
X24475Y13500D02*
X24395Y13660D01*
X24555D01*
X24475Y13500D01*
X26120Y14972D02*
X26040Y15132D01*
X26200D01*
X26120Y14972D01*
X24435Y13990D02*
X24355Y14150D01*
X24515D01*
X24435Y13990D01*
X29195Y12000D02*
X29115Y12160D01*
X29275D01*
X29195Y12000D01*
X31665Y10645D02*
X31585Y10805D01*
X31745D01*
X31665Y10645D01*
X29724Y4677D02*
X29644Y4837D01*
X29804D01*
X29724Y4677D01*
X32155Y3236D02*
X32075Y3396D01*
X32235D01*
X32155Y3236D01*
X23561Y12946D02*
X23481Y13106D01*
X23641D01*
X23561Y12946D01*
Y14790D02*
X23481Y14950D01*
X23641D01*
X23561Y14790D01*
X35420Y13445D02*
X35340Y13605D01*
X35500D01*
X35420Y13445D01*
X36367Y17673D02*
X36287Y17833D01*
X36447D01*
X36367Y17673D01*
X22315Y3020D02*
X22235Y3180D01*
X22395D01*
X22315Y3020D01*
X36732D02*
X36652Y3180D01*
X36812D01*
X36732Y3020D01*
X28154Y14697D02*
X28074Y14857D01*
X28234D01*
X28154Y14697D01*
Y13900D02*
X28074Y14060D01*
X28234D01*
X28154Y13900D01*
X22323Y16505D02*
X22243Y16665D01*
X22403D01*
X22323Y16505D01*
X36732D02*
X36652Y16665D01*
X36812D01*
X36732Y16505D01*
X27805Y11976D02*
X27725Y12136D01*
X27885D01*
X27805Y11976D01*
X25001Y11030D02*
X24921Y11190D01*
X25081D01*
X25001Y11030D01*
X25985Y8706D02*
X25905Y8866D01*
X26065D01*
X25985Y8706D01*
X31355Y5825D02*
X31275Y5985D01*
X31435D01*
X31355Y5825D01*
X23561Y14236D02*
X23481Y14396D01*
X23641D01*
X23561Y14236D01*
X25001Y12320D02*
X24921Y12480D01*
X25081D01*
X25001Y12320D01*
X32465Y12200D02*
X32385Y12360D01*
X32545D01*
X32465Y12200D01*
X33645Y12390D02*
X33565Y12550D01*
X33725D01*
X33645Y12390D01*
X35095Y12230D02*
X35015Y12390D01*
X35175D01*
X35095Y12230D01*
X22120Y-17680D02*
X22040Y-17520D01*
X22200D01*
X22120Y-17680D01*
Y-14680D02*
X22040Y-14520D01*
X22200D01*
X22120Y-14680D01*
X22870Y-10180D02*
X22790Y-10020D01*
X22950D01*
X22870Y-10180D01*
Y-7180D02*
X22790Y-7020D01*
X22950D01*
X22870Y-7180D01*
X24370Y-16180D02*
X24290Y-16020D01*
X24450D01*
X24370Y-16180D01*
X23620Y-8680D02*
X23540Y-8520D01*
X23700D01*
X23620Y-8680D01*
X24370Y-7180D02*
X24290Y-7020D01*
X24450D01*
X24370Y-7180D01*
X23620Y-5680D02*
X23540Y-5520D01*
X23700D01*
X23620Y-5680D01*
X25120Y-17680D02*
X25040Y-17520D01*
X25200D01*
X25120Y-17680D01*
Y-5680D02*
X25040Y-5520D01*
X25200D01*
X25120Y-5680D01*
X25870Y-1180D02*
X25790Y-1020D01*
X25950D01*
X25870Y-1180D01*
X26620Y-8680D02*
X26540Y-8520D01*
X26700D01*
X26620Y-8680D01*
Y-2680D02*
X26540Y-2520D01*
X26700D01*
X26620Y-2680D01*
X27370Y-1180D02*
X27290Y-1020D01*
X27450D01*
X27370Y-1180D01*
X28120Y-11680D02*
X28040Y-11520D01*
X28200D01*
X28120Y-11680D01*
Y-2680D02*
X28040Y-2520D01*
X28200D01*
X28120Y-2680D01*
X28870Y-1180D02*
X28790Y-1020D01*
X28950D01*
X28870Y-1180D01*
X30370Y-16180D02*
X30290Y-16020D01*
X30450D01*
X30370Y-16180D01*
X29620Y-14680D02*
X29540Y-14520D01*
X29700D01*
X29620Y-14680D01*
X30370Y-13180D02*
X30290Y-13020D01*
X30450D01*
X30370Y-13180D01*
X29620Y-2680D02*
X29540Y-2520D01*
X29700D01*
X29620Y-2680D01*
X30370Y-1180D02*
X30290Y-1020D01*
X30450D01*
X30370Y-1180D01*
X31870Y-16180D02*
X31790Y-16020D01*
X31950D01*
X31870Y-16180D01*
X31120Y-11680D02*
X31040Y-11520D01*
X31200D01*
X31120Y-11680D01*
Y-2680D02*
X31040Y-2520D01*
X31200D01*
X31120Y-2680D01*
X31870Y-1180D02*
X31790Y-1020D01*
X31950D01*
X31870Y-1180D01*
X33370Y-16180D02*
X33290Y-16020D01*
X33450D01*
X33370Y-16180D01*
X32620Y-8680D02*
X32540Y-8520D01*
X32700D01*
X32620Y-8680D01*
X33370Y-4180D02*
X33290Y-4020D01*
X33450D01*
X33370Y-4180D01*
X32620Y-2680D02*
X32540Y-2520D01*
X32700D01*
X32620Y-2680D01*
X33370Y-1180D02*
X33290Y-1020D01*
X33450D01*
X33370Y-1180D01*
X34120Y-17680D02*
X34040Y-17520D01*
X34200D01*
X34120Y-17680D01*
X34870Y-16180D02*
X34790Y-16020D01*
X34950D01*
X34870Y-16180D01*
Y-10180D02*
X34790Y-10020D01*
X34950D01*
X34870Y-10180D01*
X34120Y-8680D02*
X34040Y-8520D01*
X34200D01*
X34120Y-8680D01*
X34870Y-7180D02*
X34790Y-7020D01*
X34950D01*
X34870Y-7180D01*
Y-4180D02*
X34790Y-4020D01*
X34950D01*
X34870Y-4180D01*
X35620Y-11680D02*
X35540Y-11520D01*
X35700D01*
X35620Y-11680D01*
Y-8680D02*
X35540Y-8520D01*
X35700D01*
X35620Y-8680D01*
X36370Y-7180D02*
X36290Y-7020D01*
X36450D01*
X36370Y-7180D01*
X35620Y-5680D02*
X35540Y-5520D01*
X35700D01*
X35620Y-5680D01*
X37120Y-14680D02*
X37040Y-14520D01*
X37200D01*
X37120Y-14680D01*
Y-11680D02*
X37040Y-11520D01*
X37200D01*
X37120Y-11680D01*
X31870Y-1180D02*
X31790Y-1020D01*
X31950D01*
X31870Y-1180D01*
X33370D02*
X33290Y-1020D01*
X33450D01*
X33370Y-1180D01*
X22870Y-7180D02*
X22790Y-7020D01*
X22950D01*
X22870Y-7180D01*
X24370D02*
X24290Y-7020D01*
X24450D01*
X24370Y-7180D01*
X23620Y-5680D02*
X23540Y-5520D01*
X23700D01*
X23620Y-5680D01*
X25120D02*
X25040Y-5520D01*
X25200D01*
X25120Y-5680D01*
X22120Y-17680D02*
X22040Y-17520D01*
X22200D01*
X22120Y-17680D01*
X24370Y-16180D02*
X24290Y-16020D01*
X24450D01*
X24370Y-16180D01*
X25120Y-17680D02*
X25040Y-17520D01*
X25200D01*
X25120Y-17680D01*
X28330Y-2980D02*
X28250Y-2820D01*
X28410D01*
X28330Y-2980D01*
X36716Y-10964D02*
X36636Y-10804D01*
X36796D01*
X36716Y-10964D01*
X36095Y-12145D02*
X36015Y-11985D01*
X36175D01*
X36095Y-12145D01*
X20380Y-9440D02*
X20300Y-9280D01*
X20460D01*
X20380Y-9440D01*
X28250Y-5700D02*
X28170Y-5540D01*
X28330D01*
X28250Y-5700D01*
X27990Y-5985D02*
X27910Y-5825D01*
X28070D01*
X27990Y-5985D01*
X27190Y-7960D02*
X27110Y-7800D01*
X27270D01*
X27190Y-7960D01*
X28860Y-5350D02*
X28780Y-5190D01*
X28940D01*
X28860Y-5350D01*
X30750Y-6000D02*
X30670Y-5840D01*
X30830D01*
X30750Y-6000D01*
X29204Y-8730D02*
X29124Y-8570D01*
X29284D01*
X29204Y-8730D01*
X28970Y-9450D02*
X28890Y-9290D01*
X29050D01*
X28970Y-9450D01*
X28610Y-8960D02*
X28530Y-8800D01*
X28690D01*
X28610Y-8960D01*
X36396Y-9104D02*
X36316Y-8944D01*
X36476D01*
X36396Y-9104D01*
X30690Y-7750D02*
X30610Y-7590D01*
X30770D01*
X30690Y-7750D01*
X30350Y-7660D02*
X30270Y-7500D01*
X30430D01*
X30350Y-7660D01*
X30021Y-7573D02*
X29941Y-7413D01*
X30101D01*
X30021Y-7573D01*
X29640Y-7740D02*
X29560Y-7580D01*
X29720D01*
X29640Y-7740D01*
X29198Y-7759D02*
X29118Y-7599D01*
X29278D01*
X29198Y-7759D01*
X28500Y-12433D02*
X28420Y-12273D01*
X28580D01*
X28500Y-12433D01*
X28730Y-12690D02*
X28650Y-12530D01*
X28810D01*
X28730Y-12690D01*
X28950Y-12930D02*
X28870Y-12770D01*
X29030D01*
X28950Y-12930D01*
X29220Y-13220D02*
X29140Y-13060D01*
X29300D01*
X29220Y-13220D01*
X28300Y-12190D02*
X28220Y-12030D01*
X28380D01*
X28300Y-12190D01*
X30200Y-12890D02*
X30120Y-12730D01*
X30280D01*
X30200Y-12890D01*
X31840Y-10370D02*
X31760Y-10210D01*
X31920D01*
X31840Y-10370D01*
X28852Y-6751D02*
X28772Y-6591D01*
X28932D01*
X28852Y-6751D01*
X24840Y-8700D02*
X24760Y-8540D01*
X24920D01*
X24840Y-8700D01*
X30670Y-10290D02*
X30590Y-10130D01*
X30750D01*
X30670Y-10290D01*
X30390Y-10530D02*
X30310Y-10370D01*
X30470D01*
X30390Y-10530D01*
X30110Y-9780D02*
X30030Y-9620D01*
X30190D01*
X30110Y-9780D01*
X29880Y-10050D02*
X29800Y-9890D01*
X29960D01*
X29880Y-10050D01*
X36770Y-4180D02*
X36690Y-4020D01*
X36850D01*
X36770Y-4180D01*
X36410Y-4710D02*
X36330Y-4550D01*
X36490D01*
X36410Y-4710D01*
X28701Y-7034D02*
X28621Y-6874D01*
X28781D01*
X28701Y-7034D01*
X28370Y-7720D02*
X28290Y-7560D01*
X28450D01*
X28370Y-7720D01*
X28690Y-7730D02*
X28610Y-7570D01*
X28770D01*
X28690Y-7730D01*
X30562Y-10808D02*
X30482Y-10648D01*
X30642D01*
X30562Y-10808D01*
X29590Y-10290D02*
X29510Y-10130D01*
X29670D01*
X29590Y-10290D01*
X26360Y-10140D02*
X26280Y-9980D01*
X26440D01*
X26360Y-10140D01*
X19940Y-9440D02*
X19860Y-9280D01*
X20020D01*
X19940Y-9440D01*
X30390Y-8830D02*
X30310Y-8670D01*
X30470D01*
X30390Y-8830D01*
X30750Y-6330D02*
X30670Y-6170D01*
X30830D01*
X30750Y-6330D01*
X26110Y-7290D02*
X26030Y-7130D01*
X26190D01*
X26110Y-7290D01*
X27854Y-8476D02*
X27774Y-8316D01*
X27934D01*
X27854Y-8476D01*
X35354Y-18994D02*
X35274Y-18834D01*
X35434D01*
X35354Y-18994D01*
X32250Y-9100D02*
X32170Y-8940D01*
X32330D01*
X32250Y-9100D01*
X22953Y-16665D02*
X22873Y-16505D01*
X23033D01*
X22953Y-16665D01*
X23700Y-820D02*
X23620Y-660D01*
X23780D01*
X23700Y-820D01*
X30110Y-2320D02*
X30030Y-2160D01*
X30190D01*
X30110Y-2320D01*
X27310Y-9040D02*
X27230Y-8880D01*
X27390D01*
X27310Y-9040D01*
X30060Y-14920D02*
X29980Y-14760D01*
X30140D01*
X30060Y-14920D01*
X28400Y-6490D02*
X28320Y-6330D01*
X28480D01*
X28400Y-6490D01*
X28075Y-5054D02*
X27995Y-4894D01*
X28155D01*
X28075Y-5054D01*
X28530Y-5430D02*
X28450Y-5270D01*
X28610D01*
X28530Y-5430D01*
X29880Y-13690D02*
X29800Y-13530D01*
X29960D01*
X29880Y-13690D01*
X29429Y-13681D02*
X29349Y-13521D01*
X29509D01*
X29429Y-13681D01*
X30450Y-12640D02*
X30370Y-12480D01*
X30530D01*
X30450Y-12640D01*
X27230Y-10480D02*
X27150Y-10320D01*
X27310D01*
X27230Y-10480D01*
X28520Y-9720D02*
X28440Y-9560D01*
X28600D01*
X28520Y-9720D01*
X28480Y-10090D02*
X28400Y-9930D01*
X28560D01*
X28480Y-10090D01*
X31810Y-10720D02*
X31730Y-10560D01*
X31890D01*
X31810Y-10720D01*
X32477Y-10020D02*
X32397Y-9860D01*
X32557D01*
X32477Y-10020D01*
X32200Y-9900D02*
X32120Y-9740D01*
X32280D01*
X32200Y-9900D01*
X24890Y-15450D02*
X24810Y-15290D01*
X24970D01*
X24890Y-15450D01*
X24523D02*
X24443Y-15290D01*
X24603D01*
X24523Y-15450D01*
X24390Y-14870D02*
X24310Y-14710D01*
X24470D01*
X24390Y-14870D01*
X24157Y-15450D02*
X24077Y-15290D01*
X24237D01*
X24157Y-15450D01*
X23990Y-16900D02*
X23910Y-16740D01*
X24070D01*
X23990Y-16900D01*
X23690Y-16630D02*
X23610Y-16470D01*
X23770D01*
X23690Y-16630D01*
X23990D02*
X23910Y-16470D01*
X24070D01*
X23990Y-16630D01*
X24390Y-15170D02*
X24310Y-15010D01*
X24470D01*
X24390Y-15170D01*
X23790Y-15450D02*
X23710Y-15290D01*
X23870D01*
X23790Y-15450D01*
X26950Y-11440D02*
X26870Y-11280D01*
X27030D01*
X26950Y-11440D01*
X27540Y-13520D02*
X27460Y-13360D01*
X27620D01*
X27540Y-13520D01*
Y-13790D02*
X27460Y-13630D01*
X27620D01*
X27540Y-13790D01*
X27010Y-13520D02*
X26930Y-13360D01*
X27090D01*
X27010Y-13520D01*
X25590Y-11460D02*
X25510Y-11300D01*
X25670D01*
X25590Y-11460D01*
X25250D02*
X25170Y-11300D01*
X25330D01*
X25250Y-11460D01*
X24450D02*
X24370Y-11300D01*
X24530D01*
X24450Y-11460D01*
X23950Y-11110D02*
X23870Y-10950D01*
X24030D01*
X23950Y-11110D01*
X34390Y-18800D02*
X34310Y-18640D01*
X34470D01*
X34390Y-18800D01*
Y-18320D02*
X34310Y-18160D01*
X34470D01*
X34390Y-18320D01*
X33890D02*
X33810Y-18160D01*
X33970D01*
X33890Y-18320D01*
X32020Y-6770D02*
X31940Y-6610D01*
X32100D01*
X32020Y-6770D01*
X31750Y-7070D02*
X31670Y-6910D01*
X31830D01*
X31750Y-7070D01*
Y-6770D02*
X31670Y-6610D01*
X31830D01*
X31750Y-6770D01*
X36017Y-2356D02*
X35937Y-2196D01*
X36097D01*
X36017Y-2356D01*
X35354Y-3244D02*
X35274Y-3084D01*
X35434D01*
X35354Y-3244D01*
X23701D02*
X23621Y-3084D01*
X23781D01*
X23701Y-3244D01*
X23038Y-912D02*
X22958Y-752D01*
X23118D01*
X23038Y-912D01*
X26796Y-6880D02*
X26716Y-6720D01*
X26876D01*
X26796Y-6880D01*
Y-6279D02*
X26716Y-6119D01*
X26876D01*
X26796Y-6279D01*
Y-5678D02*
X26716Y-5518D01*
X26876D01*
X26796Y-5678D01*
Y-5060D02*
X26716Y-4900D01*
X26876D01*
X26796Y-5060D01*
X32868Y-4837D02*
X32788Y-4677D01*
X32948D01*
X32868Y-4837D01*
Y-4228D02*
X32788Y-4068D01*
X32948D01*
X32868Y-4228D01*
Y-3620D02*
X32788Y-3460D01*
X32948D01*
X32868Y-3620D01*
X33020Y-5530D02*
X32940Y-5370D01*
X33100D01*
X33020Y-5530D01*
X30903Y-13280D02*
X30823Y-13120D01*
X30983D01*
X30903Y-13280D01*
X32803Y-12483D02*
X32723Y-12323D01*
X32883D01*
X32803Y-12483D01*
X35354Y-16601D02*
X35274Y-16441D01*
X35434D01*
X35354Y-16601D01*
X36017Y-18933D02*
X35937Y-18773D01*
X36097D01*
X36017Y-18933D01*
X30441Y-12066D02*
X30361Y-11906D01*
X30521D01*
X30441Y-12066D01*
X32151Y-12483D02*
X32071Y-12323D01*
X32231D01*
X32151Y-12483D01*
X31930Y-9670D02*
X31850Y-9510D01*
X32010D01*
X31930Y-9670D01*
X34054Y-11827D02*
X33974Y-11667D01*
X34134D01*
X34054Y-11827D01*
X32806Y-10530D02*
X32726Y-10370D01*
X32886D01*
X32806Y-10530D01*
Y-8440D02*
X32726Y-8280D01*
X32886D01*
X32806Y-8440D01*
X32723Y-9767D02*
X32643Y-9607D01*
X32803D01*
X32723Y-9767D01*
X34027Y-9480D02*
X33947Y-9320D01*
X34107D01*
X34027Y-9480D01*
X32935Y-12915D02*
X32855Y-12755D01*
X33015D01*
X32935Y-12915D01*
X34580Y-13660D02*
X34500Y-13500D01*
X34660D01*
X34580Y-13660D01*
X32935Y-15132D02*
X32855Y-14972D01*
X33015D01*
X32935Y-15132D01*
X34620Y-14150D02*
X34540Y-13990D01*
X34700D01*
X34620Y-14150D01*
X29860Y-12160D02*
X29780Y-12000D01*
X29940D01*
X29860Y-12160D01*
X27390Y-10805D02*
X27310Y-10645D01*
X27470D01*
X27390Y-10805D01*
X29331Y-4837D02*
X29251Y-4677D01*
X29411D01*
X29331Y-4837D01*
X26900Y-3396D02*
X26820Y-3236D01*
X26980D01*
X26900Y-3396D01*
X35494Y-13106D02*
X35414Y-12946D01*
X35574D01*
X35494Y-13106D01*
Y-14950D02*
X35414Y-14790D01*
X35574D01*
X35494Y-14950D01*
X23635Y-13605D02*
X23555Y-13445D01*
X23715D01*
X23635Y-13605D01*
X22688Y-17833D02*
X22608Y-17673D01*
X22768D01*
X22688Y-17833D01*
X36740Y-3180D02*
X36660Y-3020D01*
X36820D01*
X36740Y-3180D01*
X22323D02*
X22243Y-3020D01*
X22403D01*
X22323Y-3180D01*
X30901Y-14857D02*
X30821Y-14697D01*
X30981D01*
X30901Y-14857D01*
Y-14060D02*
X30821Y-13900D01*
X30981D01*
X30901Y-14060D01*
X36732Y-16665D02*
X36652Y-16505D01*
X36812D01*
X36732Y-16665D01*
X22323D02*
X22243Y-16505D01*
X22403D01*
X22323Y-16665D01*
X31250Y-12136D02*
X31170Y-11976D01*
X31330D01*
X31250Y-12136D01*
X34054Y-11190D02*
X33974Y-11030D01*
X34134D01*
X34054Y-11190D01*
X33070Y-8866D02*
X32990Y-8706D01*
X33150D01*
X33070Y-8866D01*
X27700Y-5985D02*
X27620Y-5825D01*
X27780D01*
X27700Y-5985D01*
X35494Y-14396D02*
X35414Y-14236D01*
X35574D01*
X35494Y-14396D01*
X34054Y-12480D02*
X33974Y-12320D01*
X34134D01*
X34054Y-12480D01*
X26590Y-12360D02*
X26510Y-12200D01*
X26670D01*
X26590Y-12360D01*
X25410Y-12550D02*
X25330Y-12390D01*
X25490D01*
X25410Y-12550D01*
X23960Y-12390D02*
X23880Y-12230D01*
X24040D01*
X23960Y-12390D01*
X2435Y-17680D02*
X2355Y-17520D01*
X2515D01*
X2435Y-17680D01*
Y-14680D02*
X2355Y-14520D01*
X2515D01*
X2435Y-14680D01*
X3185Y-10180D02*
X3105Y-10020D01*
X3265D01*
X3185Y-10180D01*
Y-7180D02*
X3105Y-7020D01*
X3265D01*
X3185Y-7180D01*
X4685Y-16180D02*
X4605Y-16020D01*
X4765D01*
X4685Y-16180D01*
X3935Y-8680D02*
X3855Y-8520D01*
X4015D01*
X3935Y-8680D01*
X4685Y-7180D02*
X4605Y-7020D01*
X4765D01*
X4685Y-7180D01*
X3935Y-5680D02*
X3855Y-5520D01*
X4015D01*
X3935Y-5680D01*
X5435Y-17680D02*
X5355Y-17520D01*
X5515D01*
X5435Y-17680D01*
Y-5680D02*
X5355Y-5520D01*
X5515D01*
X5435Y-5680D01*
X6185Y-1180D02*
X6105Y-1020D01*
X6265D01*
X6185Y-1180D01*
X6935Y-8680D02*
X6855Y-8520D01*
X7015D01*
X6935Y-8680D01*
Y-2680D02*
X6855Y-2520D01*
X7015D01*
X6935Y-2680D01*
X7685Y-1180D02*
X7605Y-1020D01*
X7765D01*
X7685Y-1180D01*
X8435Y-11680D02*
X8355Y-11520D01*
X8515D01*
X8435Y-11680D01*
Y-2680D02*
X8355Y-2520D01*
X8515D01*
X8435Y-2680D01*
X9185Y-1180D02*
X9105Y-1020D01*
X9265D01*
X9185Y-1180D01*
X10685Y-16180D02*
X10605Y-16020D01*
X10765D01*
X10685Y-16180D01*
X9935Y-14680D02*
X9855Y-14520D01*
X10015D01*
X9935Y-14680D01*
X10685Y-13180D02*
X10605Y-13020D01*
X10765D01*
X10685Y-13180D01*
X9935Y-2680D02*
X9855Y-2520D01*
X10015D01*
X9935Y-2680D01*
X10685Y-1180D02*
X10605Y-1020D01*
X10765D01*
X10685Y-1180D01*
X12185Y-16180D02*
X12105Y-16020D01*
X12265D01*
X12185Y-16180D01*
X11435Y-11680D02*
X11355Y-11520D01*
X11515D01*
X11435Y-11680D01*
Y-2680D02*
X11355Y-2520D01*
X11515D01*
X11435Y-2680D01*
X12185Y-1180D02*
X12105Y-1020D01*
X12265D01*
X12185Y-1180D01*
X13685Y-16180D02*
X13605Y-16020D01*
X13765D01*
X13685Y-16180D01*
X12935Y-8680D02*
X12855Y-8520D01*
X13015D01*
X12935Y-8680D01*
X13685Y-4180D02*
X13605Y-4020D01*
X13765D01*
X13685Y-4180D01*
X12935Y-2680D02*
X12855Y-2520D01*
X13015D01*
X12935Y-2680D01*
X13685Y-1180D02*
X13605Y-1020D01*
X13765D01*
X13685Y-1180D01*
X14435Y-17680D02*
X14355Y-17520D01*
X14515D01*
X14435Y-17680D01*
X15185Y-16180D02*
X15105Y-16020D01*
X15265D01*
X15185Y-16180D01*
Y-10180D02*
X15105Y-10020D01*
X15265D01*
X15185Y-10180D01*
X14435Y-8680D02*
X14355Y-8520D01*
X14515D01*
X14435Y-8680D01*
X15185Y-7180D02*
X15105Y-7020D01*
X15265D01*
X15185Y-7180D01*
Y-4180D02*
X15105Y-4020D01*
X15265D01*
X15185Y-4180D01*
X15935Y-11680D02*
X15855Y-11520D01*
X16015D01*
X15935Y-11680D01*
Y-8680D02*
X15855Y-8520D01*
X16015D01*
X15935Y-8680D01*
X16685Y-7180D02*
X16605Y-7020D01*
X16765D01*
X16685Y-7180D01*
X15935Y-5680D02*
X15855Y-5520D01*
X16015D01*
X15935Y-5680D01*
X17435Y-14680D02*
X17355Y-14520D01*
X17515D01*
X17435Y-14680D01*
Y-11680D02*
X17355Y-11520D01*
X17515D01*
X17435Y-11680D01*
X12185Y-1180D02*
X12105Y-1020D01*
X12265D01*
X12185Y-1180D01*
X13685D02*
X13605Y-1020D01*
X13765D01*
X13685Y-1180D01*
X3185Y-7180D02*
X3105Y-7020D01*
X3265D01*
X3185Y-7180D01*
X4685D02*
X4605Y-7020D01*
X4765D01*
X4685Y-7180D01*
X3935Y-5680D02*
X3855Y-5520D01*
X4015D01*
X3935Y-5680D01*
X5435D02*
X5355Y-5520D01*
X5515D01*
X5435Y-5680D01*
X2435Y-17680D02*
X2355Y-17520D01*
X2515D01*
X2435Y-17680D01*
X4685Y-16180D02*
X4605Y-16020D01*
X4765D01*
X4685Y-16180D01*
X5435Y-17680D02*
X5355Y-17520D01*
X5515D01*
X5435Y-17680D01*
X8645Y-2980D02*
X8565Y-2820D01*
X8725D01*
X8645Y-2980D01*
X17031Y-10964D02*
X16951Y-10804D01*
X17111D01*
X17031Y-10964D01*
X16410Y-12145D02*
X16330Y-11985D01*
X16490D01*
X16410Y-12145D01*
X695Y-9440D02*
X615Y-9280D01*
X775D01*
X695Y-9440D01*
X8565Y-5700D02*
X8485Y-5540D01*
X8645D01*
X8565Y-5700D01*
X8305Y-5985D02*
X8225Y-5825D01*
X8385D01*
X8305Y-5985D01*
X7505Y-7960D02*
X7425Y-7800D01*
X7585D01*
X7505Y-7960D01*
X9175Y-5350D02*
X9095Y-5190D01*
X9255D01*
X9175Y-5350D01*
X11065Y-6000D02*
X10985Y-5840D01*
X11145D01*
X11065Y-6000D01*
X9519Y-8730D02*
X9439Y-8570D01*
X9599D01*
X9519Y-8730D01*
X9285Y-9450D02*
X9205Y-9290D01*
X9365D01*
X9285Y-9450D01*
X8925Y-8960D02*
X8845Y-8800D01*
X9005D01*
X8925Y-8960D01*
X16711Y-9104D02*
X16631Y-8944D01*
X16791D01*
X16711Y-9104D01*
X11005Y-7750D02*
X10925Y-7590D01*
X11085D01*
X11005Y-7750D01*
X10665Y-7660D02*
X10585Y-7500D01*
X10745D01*
X10665Y-7660D01*
X10336Y-7573D02*
X10256Y-7413D01*
X10416D01*
X10336Y-7573D01*
X9955Y-7740D02*
X9875Y-7580D01*
X10035D01*
X9955Y-7740D01*
X9513Y-7759D02*
X9433Y-7599D01*
X9593D01*
X9513Y-7759D01*
X8815Y-12433D02*
X8735Y-12273D01*
X8895D01*
X8815Y-12433D01*
X9045Y-12690D02*
X8965Y-12530D01*
X9125D01*
X9045Y-12690D01*
X9265Y-12930D02*
X9185Y-12770D01*
X9345D01*
X9265Y-12930D01*
X9535Y-13220D02*
X9455Y-13060D01*
X9615D01*
X9535Y-13220D01*
X8615Y-12190D02*
X8535Y-12030D01*
X8695D01*
X8615Y-12190D01*
X10515Y-12890D02*
X10435Y-12730D01*
X10595D01*
X10515Y-12890D01*
X12155Y-10370D02*
X12075Y-10210D01*
X12235D01*
X12155Y-10370D01*
X9166Y-6751D02*
X9086Y-6591D01*
X9246D01*
X9166Y-6751D01*
X5155Y-8700D02*
X5075Y-8540D01*
X5235D01*
X5155Y-8700D01*
X10985Y-10290D02*
X10905Y-10130D01*
X11065D01*
X10985Y-10290D01*
X10705Y-10530D02*
X10625Y-10370D01*
X10785D01*
X10705Y-10530D01*
X10425Y-9780D02*
X10345Y-9620D01*
X10505D01*
X10425Y-9780D01*
X10195Y-10050D02*
X10115Y-9890D01*
X10275D01*
X10195Y-10050D01*
X17085Y-4180D02*
X17005Y-4020D01*
X17165D01*
X17085Y-4180D01*
X16725Y-4710D02*
X16645Y-4550D01*
X16805D01*
X16725Y-4710D01*
X9016Y-7034D02*
X8936Y-6874D01*
X9096D01*
X9016Y-7034D01*
X8685Y-7720D02*
X8605Y-7560D01*
X8765D01*
X8685Y-7720D01*
X9005Y-7730D02*
X8925Y-7570D01*
X9085D01*
X9005Y-7730D01*
X10877Y-10808D02*
X10797Y-10648D01*
X10957D01*
X10877Y-10808D01*
X9905Y-10290D02*
X9825Y-10130D01*
X9985D01*
X9905Y-10290D01*
X6675Y-10140D02*
X6595Y-9980D01*
X6755D01*
X6675Y-10140D01*
X255Y-9440D02*
X175Y-9280D01*
X335D01*
X255Y-9440D01*
X10705Y-8830D02*
X10625Y-8670D01*
X10785D01*
X10705Y-8830D01*
X11065Y-6330D02*
X10985Y-6170D01*
X11145D01*
X11065Y-6330D01*
X6425Y-7290D02*
X6345Y-7130D01*
X6505D01*
X6425Y-7290D01*
X8169Y-8476D02*
X8089Y-8316D01*
X8249D01*
X8169Y-8476D01*
X15669Y-18994D02*
X15589Y-18834D01*
X15749D01*
X15669Y-18994D01*
X12565Y-9100D02*
X12485Y-8940D01*
X12645D01*
X12565Y-9100D01*
X3268Y-16665D02*
X3188Y-16505D01*
X3348D01*
X3268Y-16665D01*
X4015Y-820D02*
X3935Y-660D01*
X4095D01*
X4015Y-820D01*
X10425Y-2320D02*
X10345Y-2160D01*
X10505D01*
X10425Y-2320D01*
X7625Y-9040D02*
X7545Y-8880D01*
X7705D01*
X7625Y-9040D01*
X10375Y-14920D02*
X10295Y-14760D01*
X10455D01*
X10375Y-14920D01*
X8715Y-6490D02*
X8635Y-6330D01*
X8795D01*
X8715Y-6490D01*
X8390Y-5054D02*
X8310Y-4894D01*
X8470D01*
X8390Y-5054D01*
X8845Y-5430D02*
X8765Y-5270D01*
X8925D01*
X8845Y-5430D01*
X10195Y-13690D02*
X10115Y-13530D01*
X10275D01*
X10195Y-13690D01*
X9744Y-13681D02*
X9664Y-13521D01*
X9824D01*
X9744Y-13681D01*
X10765Y-12640D02*
X10685Y-12480D01*
X10845D01*
X10765Y-12640D01*
X7545Y-10480D02*
X7465Y-10320D01*
X7625D01*
X7545Y-10480D01*
X8835Y-9720D02*
X8755Y-9560D01*
X8915D01*
X8835Y-9720D01*
X8795Y-10090D02*
X8715Y-9930D01*
X8875D01*
X8795Y-10090D01*
X12125Y-10720D02*
X12045Y-10560D01*
X12205D01*
X12125Y-10720D01*
X12792Y-10020D02*
X12712Y-9860D01*
X12872D01*
X12792Y-10020D01*
X12515Y-9900D02*
X12435Y-9740D01*
X12595D01*
X12515Y-9900D01*
X5205Y-15450D02*
X5125Y-15290D01*
X5285D01*
X5205Y-15450D01*
X4838D02*
X4758Y-15290D01*
X4918D01*
X4838Y-15450D01*
X4705Y-14870D02*
X4625Y-14710D01*
X4785D01*
X4705Y-14870D01*
X4472Y-15450D02*
X4392Y-15290D01*
X4552D01*
X4472Y-15450D01*
X4305Y-16900D02*
X4225Y-16740D01*
X4385D01*
X4305Y-16900D01*
X4005Y-16630D02*
X3925Y-16470D01*
X4085D01*
X4005Y-16630D01*
X4305D02*
X4225Y-16470D01*
X4385D01*
X4305Y-16630D01*
X4705Y-15170D02*
X4625Y-15010D01*
X4785D01*
X4705Y-15170D01*
X4105Y-15450D02*
X4025Y-15290D01*
X4185D01*
X4105Y-15450D01*
X7265Y-11440D02*
X7185Y-11280D01*
X7345D01*
X7265Y-11440D01*
X7855Y-13520D02*
X7775Y-13360D01*
X7935D01*
X7855Y-13520D01*
Y-13790D02*
X7775Y-13630D01*
X7935D01*
X7855Y-13790D01*
X7325Y-13520D02*
X7245Y-13360D01*
X7405D01*
X7325Y-13520D01*
X5905Y-11460D02*
X5825Y-11300D01*
X5985D01*
X5905Y-11460D01*
X5565D02*
X5485Y-11300D01*
X5645D01*
X5565Y-11460D01*
X4765D02*
X4685Y-11300D01*
X4845D01*
X4765Y-11460D01*
X4265Y-11110D02*
X4185Y-10950D01*
X4345D01*
X4265Y-11110D01*
X14705Y-18800D02*
X14625Y-18640D01*
X14785D01*
X14705Y-18800D01*
Y-18320D02*
X14625Y-18160D01*
X14785D01*
X14705Y-18320D01*
X14205D02*
X14125Y-18160D01*
X14285D01*
X14205Y-18320D01*
X12335Y-6770D02*
X12255Y-6610D01*
X12415D01*
X12335Y-6770D01*
X12065Y-7070D02*
X11985Y-6910D01*
X12145D01*
X12065Y-7070D01*
Y-6770D02*
X11985Y-6610D01*
X12145D01*
X12065Y-6770D01*
X16332Y-2356D02*
X16252Y-2196D01*
X16412D01*
X16332Y-2356D01*
X15669Y-3244D02*
X15589Y-3084D01*
X15749D01*
X15669Y-3244D01*
X4016D02*
X3936Y-3084D01*
X4096D01*
X4016Y-3244D01*
X3353Y-912D02*
X3273Y-752D01*
X3433D01*
X3353Y-912D01*
X7111Y-6880D02*
X7031Y-6720D01*
X7191D01*
X7111Y-6880D01*
Y-6279D02*
X7031Y-6119D01*
X7191D01*
X7111Y-6279D01*
Y-5678D02*
X7031Y-5518D01*
X7191D01*
X7111Y-5678D01*
Y-5060D02*
X7031Y-4900D01*
X7191D01*
X7111Y-5060D01*
X13183Y-4837D02*
X13103Y-4677D01*
X13263D01*
X13183Y-4837D01*
Y-4228D02*
X13103Y-4068D01*
X13263D01*
X13183Y-4228D01*
Y-3620D02*
X13103Y-3460D01*
X13263D01*
X13183Y-3620D01*
X13335Y-5530D02*
X13255Y-5370D01*
X13415D01*
X13335Y-5530D01*
X11218Y-13280D02*
X11138Y-13120D01*
X11298D01*
X11218Y-13280D01*
X13118Y-12483D02*
X13038Y-12323D01*
X13198D01*
X13118Y-12483D01*
X15669Y-16601D02*
X15589Y-16441D01*
X15749D01*
X15669Y-16601D01*
X16332Y-18933D02*
X16252Y-18773D01*
X16412D01*
X16332Y-18933D01*
X10756Y-12066D02*
X10676Y-11906D01*
X10836D01*
X10756Y-12066D01*
X12466Y-12483D02*
X12386Y-12323D01*
X12546D01*
X12466Y-12483D01*
X12245Y-9670D02*
X12165Y-9510D01*
X12325D01*
X12245Y-9670D01*
X14369Y-11827D02*
X14289Y-11667D01*
X14449D01*
X14369Y-11827D01*
X13121Y-10530D02*
X13041Y-10370D01*
X13201D01*
X13121Y-10530D01*
Y-8440D02*
X13041Y-8280D01*
X13201D01*
X13121Y-8440D01*
X13038Y-9767D02*
X12958Y-9607D01*
X13118D01*
X13038Y-9767D01*
X14342Y-9480D02*
X14262Y-9320D01*
X14422D01*
X14342Y-9480D01*
X13250Y-12915D02*
X13170Y-12755D01*
X13330D01*
X13250Y-12915D01*
X14895Y-13660D02*
X14815Y-13500D01*
X14975D01*
X14895Y-13660D01*
X13250Y-15132D02*
X13170Y-14972D01*
X13330D01*
X13250Y-15132D01*
X14935Y-14150D02*
X14855Y-13990D01*
X15015D01*
X14935Y-14150D01*
X10175Y-12160D02*
X10095Y-12000D01*
X10255D01*
X10175Y-12160D01*
X7705Y-10805D02*
X7625Y-10645D01*
X7785D01*
X7705Y-10805D01*
X9646Y-4837D02*
X9566Y-4677D01*
X9726D01*
X9646Y-4837D01*
X7215Y-3396D02*
X7135Y-3236D01*
X7295D01*
X7215Y-3396D01*
X15809Y-13106D02*
X15729Y-12946D01*
X15889D01*
X15809Y-13106D01*
Y-14950D02*
X15729Y-14790D01*
X15889D01*
X15809Y-14950D01*
X3950Y-13605D02*
X3870Y-13445D01*
X4030D01*
X3950Y-13605D01*
X3003Y-17833D02*
X2923Y-17673D01*
X3083D01*
X3003Y-17833D01*
X17055Y-3180D02*
X16975Y-3020D01*
X17135D01*
X17055Y-3180D01*
X2638D02*
X2558Y-3020D01*
X2718D01*
X2638Y-3180D01*
X11216Y-14857D02*
X11136Y-14697D01*
X11296D01*
X11216Y-14857D01*
Y-14060D02*
X11136Y-13900D01*
X11296D01*
X11216Y-14060D01*
X17047Y-16665D02*
X16967Y-16505D01*
X17127D01*
X17047Y-16665D01*
X2638D02*
X2558Y-16505D01*
X2718D01*
X2638Y-16665D01*
X11565Y-12136D02*
X11485Y-11976D01*
X11645D01*
X11565Y-12136D01*
X14369Y-11190D02*
X14289Y-11030D01*
X14449D01*
X14369Y-11190D01*
X13385Y-8866D02*
X13305Y-8706D01*
X13465D01*
X13385Y-8866D01*
X8015Y-5985D02*
X7935Y-5825D01*
X8095D01*
X8015Y-5985D01*
X15809Y-14396D02*
X15729Y-14236D01*
X15889D01*
X15809Y-14396D01*
X14369Y-12480D02*
X14289Y-12320D01*
X14449D01*
X14369Y-12480D01*
X6905Y-12360D02*
X6825Y-12200D01*
X6985D01*
X6905Y-12360D01*
X5725Y-12550D02*
X5645Y-12390D01*
X5805D01*
X5725Y-12550D01*
X4275Y-12390D02*
X4195Y-12230D01*
X4355D01*
X4275Y-12390D01*
D99*
X1655Y1469D02*
G03*
X1655Y1469I-80J0D01*
G01*
Y2468D02*
G03*
X1655Y2468I-80J0D01*
G01*
Y8343D02*
G03*
X1655Y8343I-80J0D01*
G01*
Y7343D02*
G03*
X1655Y7343I-80J0D01*
G01*
Y4343D02*
G03*
X1655Y4343I-80J0D01*
G01*
Y11343D02*
G03*
X1655Y11343I-80J0D01*
G01*
Y12343D02*
G03*
X1655Y12343I-80J0D01*
G01*
Y15343D02*
G03*
X1655Y15343I-80J0D01*
G01*
Y9343D02*
G03*
X1655Y9343I-80J0D01*
G01*
Y6343D02*
G03*
X1655Y6343I-80J0D01*
G01*
Y5343D02*
G03*
X1655Y5343I-80J0D01*
G01*
Y10343D02*
G03*
X1655Y10343I-80J0D01*
G01*
Y13343D02*
G03*
X1655Y13343I-80J0D01*
G01*
Y14343D02*
G03*
X1655Y14343I-80J0D01*
G01*
X6560Y18720D02*
G03*
X6560Y18720I-80J0D01*
G01*
X5560D02*
G03*
X5560Y18720I-80J0D01*
G01*
X18190Y15343D02*
G03*
X18190Y15343I-80J0D01*
G01*
Y14343D02*
G03*
X18190Y14343I-80J0D01*
G01*
Y13343D02*
G03*
X18190Y13343I-80J0D01*
G01*
Y12343D02*
G03*
X18190Y12343I-80J0D01*
G01*
Y11343D02*
G03*
X18190Y11343I-80J0D01*
G01*
Y10343D02*
G03*
X18190Y10343I-80J0D01*
G01*
Y4343D02*
G03*
X18190Y4343I-80J0D01*
G01*
Y5343D02*
G03*
X18190Y5343I-80J0D01*
G01*
Y6343D02*
G03*
X18190Y6343I-80J0D01*
G01*
Y7343D02*
G03*
X18190Y7343I-80J0D01*
G01*
Y8343D02*
G03*
X18190Y8343I-80J0D01*
G01*
Y9343D02*
G03*
X18190Y9343I-80J0D01*
G01*
Y2468D02*
G03*
X18190Y2468I-80J0D01*
G01*
Y1469D02*
G03*
X18190Y1469I-80J0D01*
G01*
Y17217D02*
G03*
X18190Y17217I-80J0D01*
G01*
Y18217D02*
G03*
X18190Y18217I-80J0D01*
G01*
X1655Y17217D02*
G03*
X1655Y17217I-80J0D01*
G01*
Y18217D02*
G03*
X1655Y18217I-80J0D01*
G01*
X21340Y1469D02*
G03*
X21340Y1469I-80J0D01*
G01*
Y2468D02*
G03*
X21340Y2468I-80J0D01*
G01*
Y8343D02*
G03*
X21340Y8343I-80J0D01*
G01*
Y7343D02*
G03*
X21340Y7343I-80J0D01*
G01*
Y4343D02*
G03*
X21340Y4343I-80J0D01*
G01*
Y11343D02*
G03*
X21340Y11343I-80J0D01*
G01*
Y12343D02*
G03*
X21340Y12343I-80J0D01*
G01*
Y15343D02*
G03*
X21340Y15343I-80J0D01*
G01*
Y9343D02*
G03*
X21340Y9343I-80J0D01*
G01*
Y6343D02*
G03*
X21340Y6343I-80J0D01*
G01*
Y5343D02*
G03*
X21340Y5343I-80J0D01*
G01*
Y10343D02*
G03*
X21340Y10343I-80J0D01*
G01*
Y13343D02*
G03*
X21340Y13343I-80J0D01*
G01*
Y14343D02*
G03*
X21340Y14343I-80J0D01*
G01*
X26245Y18720D02*
G03*
X26245Y18720I-80J0D01*
G01*
X25245D02*
G03*
X25245Y18720I-80J0D01*
G01*
X37875Y15343D02*
G03*
X37875Y15343I-80J0D01*
G01*
Y14343D02*
G03*
X37875Y14343I-80J0D01*
G01*
Y13343D02*
G03*
X37875Y13343I-80J0D01*
G01*
Y12343D02*
G03*
X37875Y12343I-80J0D01*
G01*
Y11343D02*
G03*
X37875Y11343I-80J0D01*
G01*
Y10343D02*
G03*
X37875Y10343I-80J0D01*
G01*
Y4343D02*
G03*
X37875Y4343I-80J0D01*
G01*
Y5343D02*
G03*
X37875Y5343I-80J0D01*
G01*
Y6343D02*
G03*
X37875Y6343I-80J0D01*
G01*
Y7343D02*
G03*
X37875Y7343I-80J0D01*
G01*
Y8343D02*
G03*
X37875Y8343I-80J0D01*
G01*
Y9343D02*
G03*
X37875Y9343I-80J0D01*
G01*
Y2468D02*
G03*
X37875Y2468I-80J0D01*
G01*
Y1469D02*
G03*
X37875Y1469I-80J0D01*
G01*
Y17217D02*
G03*
X37875Y17217I-80J0D01*
G01*
Y18217D02*
G03*
X37875Y18217I-80J0D01*
G01*
X21340Y17217D02*
G03*
X21340Y17217I-80J0D01*
G01*
Y18217D02*
G03*
X21340Y18217I-80J0D01*
G01*
X37875Y-1469D02*
G03*
X37875Y-1469I-80J0D01*
G01*
Y-2468D02*
G03*
X37875Y-2468I-80J0D01*
G01*
Y-8343D02*
G03*
X37875Y-8343I-80J0D01*
G01*
Y-7343D02*
G03*
X37875Y-7343I-80J0D01*
G01*
Y-4343D02*
G03*
X37875Y-4343I-80J0D01*
G01*
Y-11343D02*
G03*
X37875Y-11343I-80J0D01*
G01*
Y-12343D02*
G03*
X37875Y-12343I-80J0D01*
G01*
Y-15343D02*
G03*
X37875Y-15343I-80J0D01*
G01*
Y-9343D02*
G03*
X37875Y-9343I-80J0D01*
G01*
Y-6343D02*
G03*
X37875Y-6343I-80J0D01*
G01*
Y-5343D02*
G03*
X37875Y-5343I-80J0D01*
G01*
Y-10343D02*
G03*
X37875Y-10343I-80J0D01*
G01*
Y-13343D02*
G03*
X37875Y-13343I-80J0D01*
G01*
Y-14343D02*
G03*
X37875Y-14343I-80J0D01*
G01*
X32970Y-18720D02*
G03*
X32970Y-18720I-80J0D01*
G01*
X33970D02*
G03*
X33970Y-18720I-80J0D01*
G01*
X21340Y-15343D02*
G03*
X21340Y-15343I-80J0D01*
G01*
Y-14343D02*
G03*
X21340Y-14343I-80J0D01*
G01*
Y-13343D02*
G03*
X21340Y-13343I-80J0D01*
G01*
Y-12343D02*
G03*
X21340Y-12343I-80J0D01*
G01*
Y-11343D02*
G03*
X21340Y-11343I-80J0D01*
G01*
Y-10343D02*
G03*
X21340Y-10343I-80J0D01*
G01*
Y-4343D02*
G03*
X21340Y-4343I-80J0D01*
G01*
Y-5343D02*
G03*
X21340Y-5343I-80J0D01*
G01*
Y-6343D02*
G03*
X21340Y-6343I-80J0D01*
G01*
Y-7343D02*
G03*
X21340Y-7343I-80J0D01*
G01*
Y-8343D02*
G03*
X21340Y-8343I-80J0D01*
G01*
Y-9343D02*
G03*
X21340Y-9343I-80J0D01*
G01*
Y-2468D02*
G03*
X21340Y-2468I-80J0D01*
G01*
Y-1469D02*
G03*
X21340Y-1469I-80J0D01*
G01*
Y-17217D02*
G03*
X21340Y-17217I-80J0D01*
G01*
Y-18217D02*
G03*
X21340Y-18217I-80J0D01*
G01*
X37875Y-17217D02*
G03*
X37875Y-17217I-80J0D01*
G01*
Y-18217D02*
G03*
X37875Y-18217I-80J0D01*
G01*
X18190Y-1469D02*
G03*
X18190Y-1469I-80J0D01*
G01*
Y-2468D02*
G03*
X18190Y-2468I-80J0D01*
G01*
Y-8343D02*
G03*
X18190Y-8343I-80J0D01*
G01*
Y-7343D02*
G03*
X18190Y-7343I-80J0D01*
G01*
Y-4343D02*
G03*
X18190Y-4343I-80J0D01*
G01*
Y-11343D02*
G03*
X18190Y-11343I-80J0D01*
G01*
Y-12343D02*
G03*
X18190Y-12343I-80J0D01*
G01*
Y-15343D02*
G03*
X18190Y-15343I-80J0D01*
G01*
Y-9343D02*
G03*
X18190Y-9343I-80J0D01*
G01*
Y-6343D02*
G03*
X18190Y-6343I-80J0D01*
G01*
Y-5343D02*
G03*
X18190Y-5343I-80J0D01*
G01*
Y-10343D02*
G03*
X18190Y-10343I-80J0D01*
G01*
Y-13343D02*
G03*
X18190Y-13343I-80J0D01*
G01*
Y-14343D02*
G03*
X18190Y-14343I-80J0D01*
G01*
X13285Y-18720D02*
G03*
X13285Y-18720I-80J0D01*
G01*
X14285D02*
G03*
X14285Y-18720I-80J0D01*
G01*
X1655Y-15343D02*
G03*
X1655Y-15343I-80J0D01*
G01*
Y-14343D02*
G03*
X1655Y-14343I-80J0D01*
G01*
Y-13343D02*
G03*
X1655Y-13343I-80J0D01*
G01*
Y-12343D02*
G03*
X1655Y-12343I-80J0D01*
G01*
Y-11343D02*
G03*
X1655Y-11343I-80J0D01*
G01*
Y-10343D02*
G03*
X1655Y-10343I-80J0D01*
G01*
Y-4343D02*
G03*
X1655Y-4343I-80J0D01*
G01*
Y-5343D02*
G03*
X1655Y-5343I-80J0D01*
G01*
Y-6343D02*
G03*
X1655Y-6343I-80J0D01*
G01*
Y-7343D02*
G03*
X1655Y-7343I-80J0D01*
G01*
Y-8343D02*
G03*
X1655Y-8343I-80J0D01*
G01*
Y-9343D02*
G03*
X1655Y-9343I-80J0D01*
G01*
Y-2468D02*
G03*
X1655Y-2468I-80J0D01*
G01*
Y-1469D02*
G03*
X1655Y-1469I-80J0D01*
G01*
Y-17217D02*
G03*
X1655Y-17217I-80J0D01*
G01*
Y-18217D02*
G03*
X1655Y-18217I-80J0D01*
G01*
X18190Y-17217D02*
G03*
X18190Y-17217I-80J0D01*
G01*
Y-18217D02*
G03*
X18190Y-18217I-80J0D01*
G01*
M02*
