G04*
G04 #@! TF.GenerationSoftware,Altium Limited,Altium Designer,21.2.2 (38)*
G04*
G04 Layer_Color=65535*
%FSLAX24Y24*%
%MOIN*%
G70*
G04*
G04 #@! TF.SameCoordinates,7BEC17FB-94DA-460C-997F-5D10B4D38A6F*
G04*
G04*
G04 #@! TF.FilePolarity,Positive*
G04*
G01*
G75*
%ADD11C,0.0050*%
%ADD12C,0.0060*%
%ADD42C,0.0100*%
%ADD58C,0.0059*%
%ADD59C,0.0197*%
%ADD60C,0.0118*%
%ADD61C,0.0080*%
%ADD62C,0.0079*%
%ADD63C,0.0051*%
%ADD64C,0.0059*%
D11*
X11458Y5814D02*
G03*
X11458Y5381I217J-217D01*
G01*
X12442D02*
G03*
X12442Y5814I-217J217D01*
G01*
X11458Y6415D02*
G03*
X11458Y5982I217J-217D01*
G01*
X12442D02*
G03*
X12442Y6415I-217J217D01*
G01*
Y6583D02*
G03*
X12442Y7017I-217J217D01*
G01*
X11458D02*
G03*
X11458Y6583I217J-217D01*
G01*
X7557Y3323D02*
G03*
X7557Y3757I-217J217D01*
G01*
X6573D02*
G03*
X6573Y3323I217J-217D01*
G01*
Y4365D02*
G03*
X6573Y3932I217J-217D01*
G01*
X7557D02*
G03*
X7557Y4365I-217J217D01*
G01*
Y4540D02*
G03*
X7557Y4973I-217J217D01*
G01*
X6573D02*
G03*
X6573Y4540I217J-217D01*
G01*
X7557Y6780D02*
G03*
X7557Y7213I-217J217D01*
G01*
X6573D02*
G03*
X6573Y6780I217J-217D01*
G01*
X12253Y3448D02*
G03*
X12687Y3448I217J217D01*
G01*
Y4432D02*
G03*
X12253Y4432I-217J-217D01*
G01*
X15203Y11085D02*
G03*
X15637Y11085I217J217D01*
G01*
Y12069D02*
G03*
X15203Y12069I-217J-217D01*
G01*
X12637Y12432D02*
G03*
X12203Y12432I-217J-217D01*
G01*
Y11448D02*
G03*
X12637Y11448I217J217D01*
G01*
X12097Y4432D02*
G03*
X11663Y4432I-217J-217D01*
G01*
Y3448D02*
G03*
X12097Y3448I217J217D01*
G01*
X6432Y10233D02*
G03*
X6432Y10667I-217J217D01*
G01*
X5448D02*
G03*
X5448Y10233I217J-217D01*
G01*
X6432Y11531D02*
G03*
X6432Y11964I-217J217D01*
G01*
X5448D02*
G03*
X5448Y11531I217J-217D01*
G01*
Y8577D02*
G03*
X5448Y8143I217J-217D01*
G01*
X6432D02*
G03*
X6432Y8577I-217J217D01*
G01*
X374Y1476D02*
G03*
X807Y1476I217J217D01*
G01*
Y2461D02*
G03*
X374Y2461I-217J-217D01*
G01*
X4437Y15082D02*
G03*
X4003Y15082I-217J-217D01*
G01*
Y14098D02*
G03*
X4437Y14098I217J217D01*
G01*
Y13792D02*
G03*
X4003Y13792I-217J-217D01*
G01*
Y12808D02*
G03*
X4437Y12808I217J217D01*
G01*
X15637Y15244D02*
G03*
X15203Y15244I-217J-217D01*
G01*
Y14260D02*
G03*
X15637Y14260I217J217D01*
G01*
X6432Y12183D02*
G03*
X6432Y12617I-217J217D01*
G01*
X5448D02*
G03*
X5448Y12183I217J-217D01*
G01*
X6517Y9902D02*
G03*
X6083Y9902I-217J-217D01*
G01*
Y8918D02*
G03*
X6517Y8918I217J217D01*
G01*
X8335Y12983D02*
G03*
X8335Y13417I-217J217D01*
G01*
X7351D02*
G03*
X7351Y12983I217J-217D01*
G01*
X7910Y17250D02*
G03*
X7717Y17227I-94J-34D01*
G01*
X7910Y17250D02*
G03*
X8103Y17273I94J34D01*
G01*
X7351Y12620D02*
G03*
X7351Y12187I217J-217D01*
G01*
X8335D02*
G03*
X8335Y12620I-217J217D01*
G01*
X18878Y1476D02*
G03*
X19311Y1476I217J217D01*
G01*
Y2461D02*
G03*
X18878Y2461I-217J-217D01*
G01*
Y17224D02*
G03*
X19311Y17224I217J217D01*
G01*
Y18209D02*
G03*
X18878Y18209I-217J-217D01*
G01*
X807D02*
G03*
X374Y18209I-217J-217D01*
G01*
Y17224D02*
G03*
X807Y17224I217J217D01*
G01*
X16162Y2923D02*
X16232Y2983D01*
X16162Y2593D02*
X16232Y2523D01*
X16832D02*
X17302D01*
Y2983D01*
X16232D02*
X16632D01*
X16162Y2593D02*
Y2923D01*
X16232Y2523D02*
X16632D01*
X16832Y2983D02*
X17302D01*
X11458Y5381D02*
X12442D01*
X11458Y5814D02*
X12442D01*
X11458Y5982D02*
X12442D01*
X11458Y6415D02*
X12442D01*
X11458Y7017D02*
X12442D01*
X11458Y6583D02*
X12442D01*
X6573Y3757D02*
X7557D01*
X6573Y3323D02*
X7557D01*
X6573Y3932D02*
X7557D01*
X6573Y4365D02*
X7557D01*
X13800Y11010D02*
Y11429D01*
X12980Y11010D02*
Y11329D01*
X6573Y4973D02*
X7557D01*
X6573Y4540D02*
X7557D01*
X6573Y7213D02*
X7557D01*
X6573Y6780D02*
X7557D01*
X12687Y3448D02*
Y4432D01*
X12253Y3448D02*
Y4432D01*
X15637Y11085D02*
Y12069D01*
X15203Y11085D02*
Y12069D01*
X12203Y11448D02*
Y12432D01*
X12637Y11448D02*
Y12432D01*
X14920Y11010D02*
Y11429D01*
X14100Y11010D02*
Y11329D01*
X11663Y3448D02*
Y4432D01*
X12097Y3448D02*
Y4432D01*
X14930Y15000D02*
Y15319D01*
X14110Y14900D02*
Y15319D01*
X5448Y10667D02*
X6432D01*
X5448Y10233D02*
X6432D01*
X5448Y11964D02*
X6432D01*
X5448Y11531D02*
X6432D01*
X5448Y8143D02*
X6432D01*
X5448Y8577D02*
X6432D01*
X807Y1476D02*
Y2461D01*
X374Y1476D02*
Y2461D01*
X4003Y14098D02*
Y15082D01*
X4437Y14098D02*
Y15082D01*
X4003Y12808D02*
Y13792D01*
X4437Y12808D02*
Y13792D01*
X15203Y14260D02*
Y15244D01*
X15637Y14260D02*
Y15244D01*
X5448Y12617D02*
X6432D01*
X5448Y12183D02*
X6432D01*
X6083Y8918D02*
Y9902D01*
X6517Y8918D02*
Y9902D01*
X7351Y13417D02*
X8335D01*
X7351Y12983D02*
X8335D01*
X9840Y19411D02*
Y20061D01*
X8520Y18329D02*
X11158D01*
Y19411D01*
X8520D02*
X11158D01*
X8520Y18329D02*
Y19411D01*
X9840Y20061D02*
X10418D01*
Y19424D02*
Y20061D01*
X3453Y16702D02*
X3523Y16762D01*
X3453Y17162D02*
X3523Y17092D01*
X2383Y17162D02*
X2853D01*
X2383Y16702D02*
Y17162D01*
X3053Y16702D02*
X3453D01*
X3523Y16762D02*
Y17092D01*
X3053Y17162D02*
X3453D01*
X2383Y16702D02*
X2853D01*
X16162Y17102D02*
X16232Y17162D01*
X16162Y16772D02*
X16232Y16702D01*
X16832D02*
X17302D01*
Y17162D01*
X16232D02*
X16632D01*
X16162Y16772D02*
Y17102D01*
X16232Y16702D02*
X16632D01*
X16832Y17162D02*
X17302D01*
X3453Y2523D02*
X3523Y2583D01*
X3453Y2983D02*
X3523Y2913D01*
X2383Y2983D02*
X2853D01*
X2383Y2523D02*
Y2983D01*
X3053Y2523D02*
X3453D01*
X3523Y2583D02*
Y2913D01*
X3053Y2983D02*
X3453D01*
X2383Y2523D02*
X2853D01*
X7351Y12187D02*
X8335D01*
X7351Y12620D02*
X8335D01*
X5434Y8770D02*
Y10030D01*
X5946D01*
Y8770D02*
Y10030D01*
X5434Y8770D02*
X5946D01*
X11108Y8565D02*
Y11124D01*
X8549Y8565D02*
X11108D01*
X8978Y11124D02*
X11108D01*
X8549Y10695D02*
X8978Y11124D01*
X8549Y8565D02*
Y10695D01*
X19311Y1476D02*
Y2461D01*
X18878Y1476D02*
Y2461D01*
X19311Y17224D02*
Y18209D01*
X18878Y17224D02*
Y18209D01*
X374Y17224D02*
Y18209D01*
X807Y17224D02*
Y18209D01*
X7670Y12050D02*
X7620Y12100D01*
X7520D01*
X7470Y12050D01*
Y11850D01*
X7520Y11800D01*
X7620D01*
X7670Y11850D01*
X7970Y12100D02*
X7870Y12050D01*
X7770Y11950D01*
Y11850D01*
X7820Y11800D01*
X7920D01*
X7970Y11850D01*
Y11900D01*
X7920Y11950D01*
X7770D01*
X6015Y5617D02*
X6065D01*
X6165Y5717D01*
X6065Y5817D01*
X6015D01*
X6165Y5717D02*
X6315D01*
Y6117D02*
Y5917D01*
X6115Y6117D01*
X6065D01*
X6015Y6067D01*
Y5967D01*
X6065Y5917D01*
X4870Y9190D02*
X4920D01*
X5020Y9290D01*
X4920Y9390D01*
X4870D01*
X5020Y9290D02*
X5170D01*
Y9490D02*
Y9590D01*
Y9540D01*
X4870D01*
X4920Y9490D01*
X16720Y13320D02*
Y13070D01*
X16770Y13020D01*
X16870D01*
X16920Y13070D01*
Y13320D01*
X17220D02*
X17020D01*
Y13170D01*
X17120Y13220D01*
X17170D01*
X17220Y13170D01*
Y13070D01*
X17170Y13020D01*
X17070D01*
X17020Y13070D01*
X9851Y15370D02*
Y15120D01*
X9901Y15070D01*
X10001D01*
X10051Y15120D01*
Y15370D01*
X10300Y15070D02*
Y15370D01*
X10151Y15220D01*
X10350D01*
X9600Y7350D02*
Y7100D01*
X9650Y7050D01*
X9750D01*
X9800Y7100D01*
Y7350D01*
X9900Y7300D02*
X9950Y7350D01*
X10050D01*
X10100Y7300D01*
Y7250D01*
X10050Y7200D01*
X10000D01*
X10050D01*
X10100Y7150D01*
Y7100D01*
X10050Y7050D01*
X9950D01*
X9900Y7100D01*
X5123Y15293D02*
Y15043D01*
X5173Y14993D01*
X5273D01*
X5323Y15043D01*
Y15293D01*
X5623Y14993D02*
X5423D01*
X5623Y15193D01*
Y15243D01*
X5573Y15293D01*
X5473D01*
X5423Y15243D01*
X9393Y10761D02*
Y10511D01*
X9443Y10461D01*
X9543D01*
X9593Y10511D01*
Y10761D01*
X9692Y10461D02*
X9792D01*
X9742D01*
Y10761D01*
X9692Y10711D01*
X12775Y4830D02*
Y5130D01*
X12925D01*
X12975Y5080D01*
Y4980D01*
X12925Y4930D01*
X12775D01*
X12875D02*
X12975Y4830D01*
X13075D02*
X13175D01*
X13125D01*
Y5130D01*
X13075Y5080D01*
X13525Y5130D02*
X13325D01*
Y4980D01*
X13425Y5030D01*
X13475D01*
X13525Y4980D01*
Y4880D01*
X13475Y4830D01*
X13375D01*
X13325Y4880D01*
X8250Y6515D02*
X7950D01*
Y6665D01*
X8000Y6715D01*
X8100D01*
X8150Y6665D01*
Y6515D01*
Y6615D02*
X8250Y6715D01*
Y6815D02*
Y6915D01*
Y6865D01*
X7950D01*
X8000Y6815D01*
X8250Y7215D02*
X7950D01*
X8100Y7065D01*
Y7265D01*
X8445Y14210D02*
Y14510D01*
X8595D01*
X8645Y14460D01*
Y14360D01*
X8595Y14310D01*
X8445D01*
X8545D02*
X8645Y14210D01*
X8745D02*
X8845D01*
X8795D01*
Y14510D01*
X8745Y14460D01*
X8995D02*
X9045Y14510D01*
X9145D01*
X9195Y14460D01*
Y14410D01*
X9145Y14360D01*
X9095D01*
X9145D01*
X9195Y14310D01*
Y14260D01*
X9145Y14210D01*
X9045D01*
X8995Y14260D01*
X7455Y15120D02*
Y15420D01*
X7605D01*
X7655Y15370D01*
Y15270D01*
X7605Y15220D01*
X7455D01*
X7555D02*
X7655Y15120D01*
X7755D02*
X7855D01*
X7805D01*
Y15420D01*
X7755Y15370D01*
X8205Y15120D02*
X8005D01*
X8205Y15320D01*
Y15370D01*
X8155Y15420D01*
X8055D01*
X8005Y15370D01*
X4535Y10960D02*
Y11260D01*
X4685D01*
X4735Y11210D01*
Y11110D01*
X4685Y11060D01*
X4535D01*
X4635D02*
X4735Y10960D01*
X4835D02*
X4935D01*
X4885D01*
Y11260D01*
X4835Y11210D01*
X5085Y10960D02*
X5185D01*
X5135D01*
Y11260D01*
X5085Y11210D01*
X15340Y1015D02*
X15040D01*
Y1165D01*
X15090Y1215D01*
X15190D01*
X15240Y1165D01*
Y1015D01*
Y1115D02*
X15340Y1215D01*
Y1315D02*
Y1415D01*
Y1365D01*
X15040D01*
X15090Y1315D01*
Y1565D02*
X15040Y1615D01*
Y1715D01*
X15090Y1765D01*
X15290D01*
X15340Y1715D01*
Y1615D01*
X15290Y1565D01*
X15090D01*
X15340Y18040D02*
X15040D01*
Y18190D01*
X15090Y18240D01*
X15190D01*
X15240Y18190D01*
Y18040D01*
Y18140D02*
X15340Y18240D01*
X15290Y18340D02*
X15340Y18390D01*
Y18490D01*
X15290Y18540D01*
X15090D01*
X15040Y18490D01*
Y18390D01*
X15090Y18340D01*
X15140D01*
X15190Y18390D01*
Y18540D01*
X4630Y18020D02*
X4330D01*
Y18170D01*
X4380Y18220D01*
X4480D01*
X4530Y18170D01*
Y18020D01*
Y18120D02*
X4630Y18220D01*
X4380Y18320D02*
X4330Y18370D01*
Y18470D01*
X4380Y18520D01*
X4430D01*
X4480Y18470D01*
X4530Y18520D01*
X4580D01*
X4630Y18470D01*
Y18370D01*
X4580Y18320D01*
X4530D01*
X4480Y18370D01*
X4430Y18320D01*
X4380D01*
X4480Y18370D02*
Y18470D01*
X4650Y2270D02*
X4350D01*
Y2420D01*
X4400Y2470D01*
X4500D01*
X4550Y2420D01*
Y2270D01*
Y2370D02*
X4650Y2470D01*
X4350Y2570D02*
Y2770D01*
X4400D01*
X4600Y2570D01*
X4650D01*
X4630Y16900D02*
X4330D01*
Y17050D01*
X4380Y17100D01*
X4480D01*
X4530Y17050D01*
Y16900D01*
Y17000D02*
X4630Y17100D01*
Y17350D02*
X4330D01*
X4480Y17200D01*
Y17400D01*
X15320Y17010D02*
X15020D01*
Y17160D01*
X15070Y17210D01*
X15170D01*
X15220Y17160D01*
Y17010D01*
Y17110D02*
X15320Y17210D01*
X15070Y17310D02*
X15020Y17360D01*
Y17460D01*
X15070Y17510D01*
X15120D01*
X15170Y17460D01*
Y17410D01*
Y17460D01*
X15220Y17510D01*
X15270D01*
X15320Y17460D01*
Y17360D01*
X15270Y17310D01*
X15340Y2290D02*
X15040D01*
Y2440D01*
X15090Y2490D01*
X15190D01*
X15240Y2440D01*
Y2290D01*
Y2390D02*
X15340Y2490D01*
Y2790D02*
Y2590D01*
X15140Y2790D01*
X15090D01*
X15040Y2740D01*
Y2640D01*
X15090Y2590D01*
X4640Y1180D02*
X4340D01*
Y1330D01*
X4390Y1380D01*
X4490D01*
X4540Y1330D01*
Y1180D01*
Y1280D02*
X4640Y1380D01*
Y1480D02*
Y1580D01*
Y1530D01*
X4340D01*
X4390Y1480D01*
X2890Y18900D02*
Y19100D01*
X2840Y19150D01*
X2740D01*
X2690Y19100D01*
Y18900D01*
X2740Y18850D01*
X2840D01*
X2790Y18950D02*
X2890Y18850D01*
X2840D02*
X2890Y18900D01*
X3140Y18850D02*
Y19150D01*
X2990Y19000D01*
X3190D01*
X16680Y18900D02*
Y19100D01*
X16630Y19150D01*
X16530D01*
X16480Y19100D01*
Y18900D01*
X16530Y18850D01*
X16630D01*
X16580Y18950D02*
X16680Y18850D01*
X16630D02*
X16680Y18900D01*
X16780Y19100D02*
X16830Y19150D01*
X16930D01*
X16980Y19100D01*
Y19050D01*
X16930Y19000D01*
X16880D01*
X16930D01*
X16980Y18950D01*
Y18900D01*
X16930Y18850D01*
X16830D01*
X16780Y18900D01*
X16690Y600D02*
Y800D01*
X16640Y850D01*
X16540D01*
X16490Y800D01*
Y600D01*
X16540Y550D01*
X16640D01*
X16590Y650D02*
X16690Y550D01*
X16640D02*
X16690Y600D01*
X16990Y550D02*
X16790D01*
X16990Y750D01*
Y800D01*
X16940Y850D01*
X16840D01*
X16790Y800D01*
X2960Y600D02*
Y800D01*
X2910Y850D01*
X2810D01*
X2760Y800D01*
Y600D01*
X2810Y550D01*
X2910D01*
X2860Y650D02*
X2960Y550D01*
X2910D02*
X2960Y600D01*
X3060Y550D02*
X3160D01*
X3110D01*
Y850D01*
X3060Y800D01*
X1330Y18820D02*
Y19120D01*
X1430Y19020D01*
X1530Y19120D01*
Y18820D01*
X1780D02*
Y19120D01*
X1630Y18970D01*
X1830D01*
X17850Y18860D02*
Y19160D01*
X17950Y19060D01*
X18050Y19160D01*
Y18860D01*
X18150Y19110D02*
X18200Y19160D01*
X18300D01*
X18350Y19110D01*
Y19060D01*
X18300Y19010D01*
X18250D01*
X18300D01*
X18350Y18960D01*
Y18910D01*
X18300Y18860D01*
X18200D01*
X18150Y18910D01*
X1330Y540D02*
Y840D01*
X1430Y740D01*
X1530Y840D01*
Y540D01*
X1830D02*
X1630D01*
X1830Y740D01*
Y790D01*
X1780Y840D01*
X1680D01*
X1630Y790D01*
X17920Y560D02*
Y860D01*
X18020Y760D01*
X18120Y860D01*
Y560D01*
X18220D02*
X18320D01*
X18270D01*
Y860D01*
X18220Y810D01*
X8600Y4410D02*
Y4110D01*
X8800D01*
X9050D02*
Y4410D01*
X8900Y4260D01*
X9100D01*
X10620Y4470D02*
Y4170D01*
X10820D01*
X10920Y4420D02*
X10970Y4470D01*
X11070D01*
X11120Y4420D01*
Y4370D01*
X11070Y4320D01*
X11020D01*
X11070D01*
X11120Y4270D01*
Y4220D01*
X11070Y4170D01*
X10970D01*
X10920Y4220D01*
X9380Y5000D02*
Y4700D01*
X9580D01*
X9880D02*
X9680D01*
X9880Y4900D01*
Y4950D01*
X9830Y5000D01*
X9730D01*
X9680Y4950D01*
X11361Y18240D02*
Y17940D01*
X11561D01*
X11661D02*
X11761D01*
X11711D01*
Y18240D01*
X11661Y18190D01*
X11758Y19022D02*
Y18722D01*
Y18822D01*
X11958Y19022D01*
X11808Y18872D01*
X11958Y18722D01*
X12257Y18972D02*
X12207Y19022D01*
X12107D01*
X12057Y18972D01*
Y18772D01*
X12107Y18722D01*
X12207D01*
X12257Y18772D01*
Y18872D01*
X12157D01*
X12357Y18722D02*
X12457D01*
X12407D01*
Y19022D01*
X12357Y18972D01*
X18060Y16270D02*
X17960D01*
X18010D01*
Y16020D01*
X17960Y15970D01*
X17910D01*
X17860Y16020D01*
X18360Y15970D02*
X18160D01*
X18360Y16170D01*
Y16220D01*
X18310Y16270D01*
X18210D01*
X18160Y16220D01*
X1570Y16260D02*
X1470D01*
X1520D01*
Y16010D01*
X1470Y15960D01*
X1420D01*
X1370Y16010D01*
X1670Y15960D02*
X1770D01*
X1720D01*
Y16260D01*
X1670Y16210D01*
X7920Y16720D02*
X7720D01*
Y16570D01*
X7820D01*
X7720D01*
Y16420D01*
X8020D02*
X8120D01*
X8070D01*
Y16720D01*
X8020Y16670D01*
X13150Y15740D02*
Y15440D01*
X13300D01*
X13350Y15490D01*
Y15690D01*
X13300Y15740D01*
X13150D01*
X13650D02*
X13450D01*
Y15590D01*
X13550Y15640D01*
X13600D01*
X13650Y15590D01*
Y15490D01*
X13600Y15440D01*
X13500D01*
X13450Y15490D01*
X2810Y16580D02*
Y16280D01*
X2960D01*
X3010Y16330D01*
Y16530D01*
X2960Y16580D01*
X2810D01*
X3260Y16280D02*
Y16580D01*
X3110Y16430D01*
X3310D01*
X16500Y16440D02*
Y16140D01*
X16650D01*
X16700Y16190D01*
Y16390D01*
X16650Y16440D01*
X16500D01*
X16800Y16390D02*
X16850Y16440D01*
X16950D01*
X17000Y16390D01*
Y16340D01*
X16950Y16290D01*
X16900D01*
X16950D01*
X17000Y16240D01*
Y16190D01*
X16950Y16140D01*
X16850D01*
X16800Y16190D01*
X2800Y3360D02*
Y3060D01*
X2950D01*
X3000Y3110D01*
Y3310D01*
X2950Y3360D01*
X2800D01*
X3300Y3060D02*
X3100D01*
X3300Y3260D01*
Y3310D01*
X3250Y3360D01*
X3150D01*
X3100Y3310D01*
X16480Y3400D02*
Y3100D01*
X16630D01*
X16680Y3150D01*
Y3350D01*
X16630Y3400D01*
X16480D01*
X16780Y3100D02*
X16880D01*
X16830D01*
Y3400D01*
X16780Y3350D01*
X12997Y5748D02*
X12947Y5798D01*
X12847D01*
X12797Y5748D01*
Y5548D01*
X12847Y5498D01*
X12947D01*
X12997Y5548D01*
X13297Y5498D02*
X13097D01*
X13297Y5698D01*
Y5748D01*
X13247Y5798D01*
X13147D01*
X13097Y5748D01*
X13397Y5548D02*
X13447Y5498D01*
X13547D01*
X13597Y5548D01*
Y5748D01*
X13547Y5798D01*
X13447D01*
X13397Y5748D01*
Y5698D01*
X13447Y5648D01*
X13597D01*
X12967Y6359D02*
X12917Y6409D01*
X12817D01*
X12767Y6359D01*
Y6159D01*
X12817Y6109D01*
X12917D01*
X12967Y6159D01*
X13267Y6109D02*
X13067D01*
X13267Y6309D01*
Y6359D01*
X13217Y6409D01*
X13117D01*
X13067Y6359D01*
X13367D02*
X13417Y6409D01*
X13517D01*
X13567Y6359D01*
Y6309D01*
X13517Y6259D01*
X13567Y6209D01*
Y6159D01*
X13517Y6109D01*
X13417D01*
X13367Y6159D01*
Y6209D01*
X13417Y6259D01*
X13367Y6309D01*
Y6359D01*
X13417Y6259D02*
X13517D01*
X12977Y6910D02*
X12927Y6960D01*
X12827D01*
X12777Y6910D01*
Y6710D01*
X12827Y6660D01*
X12927D01*
X12977Y6710D01*
X13277Y6660D02*
X13077D01*
X13277Y6860D01*
Y6910D01*
X13227Y6960D01*
X13127D01*
X13077Y6910D01*
X13377Y6960D02*
X13577D01*
Y6910D01*
X13377Y6710D01*
Y6660D01*
X5805Y3640D02*
X5755Y3690D01*
X5655D01*
X5605Y3640D01*
Y3440D01*
X5655Y3390D01*
X5755D01*
X5805Y3440D01*
X6105Y3390D02*
X5905D01*
X6105Y3590D01*
Y3640D01*
X6055Y3690D01*
X5955D01*
X5905Y3640D01*
X6405Y3690D02*
X6305Y3640D01*
X6205Y3540D01*
Y3440D01*
X6255Y3390D01*
X6355D01*
X6405Y3440D01*
Y3490D01*
X6355Y3540D01*
X6205D01*
X5788Y4248D02*
X5738Y4298D01*
X5638D01*
X5588Y4248D01*
Y4048D01*
X5638Y3998D01*
X5738D01*
X5788Y4048D01*
X6088Y3998D02*
X5888D01*
X6088Y4198D01*
Y4248D01*
X6038Y4298D01*
X5938D01*
X5888Y4248D01*
X6388Y4298D02*
X6188D01*
Y4148D01*
X6288Y4198D01*
X6338D01*
X6388Y4148D01*
Y4048D01*
X6338Y3998D01*
X6238D01*
X6188Y4048D01*
X13220Y10837D02*
X13170Y10887D01*
X13070D01*
X13020Y10837D01*
Y10637D01*
X13070Y10587D01*
X13170D01*
X13220Y10637D01*
X13520Y10587D02*
X13320D01*
X13520Y10787D01*
Y10837D01*
X13470Y10887D01*
X13370D01*
X13320Y10837D01*
X13770Y10587D02*
Y10887D01*
X13620Y10737D01*
X13820D01*
X5790Y4920D02*
X5740Y4970D01*
X5640D01*
X5590Y4920D01*
Y4720D01*
X5640Y4670D01*
X5740D01*
X5790Y4720D01*
X6090Y4670D02*
X5890D01*
X6090Y4870D01*
Y4920D01*
X6040Y4970D01*
X5940D01*
X5890Y4920D01*
X6190D02*
X6240Y4970D01*
X6340D01*
X6390Y4920D01*
Y4870D01*
X6340Y4820D01*
X6290D01*
X6340D01*
X6390Y4770D01*
Y4720D01*
X6340Y4670D01*
X6240D01*
X6190Y4720D01*
X6905Y7557D02*
X6855Y7607D01*
X6755D01*
X6705Y7557D01*
Y7357D01*
X6755Y7307D01*
X6855D01*
X6905Y7357D01*
X7205Y7307D02*
X7005D01*
X7205Y7507D01*
Y7557D01*
X7155Y7607D01*
X7055D01*
X7005Y7557D01*
X7305Y7307D02*
X7405D01*
X7355D01*
Y7607D01*
X7305Y7557D01*
X12810Y3750D02*
X12760Y3700D01*
Y3600D01*
X12810Y3550D01*
X13010D01*
X13060Y3600D01*
Y3700D01*
X13010Y3750D01*
X13060Y4050D02*
Y3850D01*
X12860Y4050D01*
X12810D01*
X12760Y4000D01*
Y3900D01*
X12810Y3850D01*
Y4150D02*
X12760Y4200D01*
Y4300D01*
X12810Y4350D01*
X13010D01*
X13060Y4300D01*
Y4200D01*
X13010Y4150D01*
X12810D01*
X15245Y10820D02*
X15195Y10870D01*
X15095D01*
X15045Y10820D01*
Y10620D01*
X15095Y10570D01*
X15195D01*
X15245Y10620D01*
X15345Y10570D02*
X15445D01*
X15395D01*
Y10870D01*
X15345Y10820D01*
X15595Y10620D02*
X15645Y10570D01*
X15745D01*
X15795Y10620D01*
Y10820D01*
X15745Y10870D01*
X15645D01*
X15595Y10820D01*
Y10770D01*
X15645Y10720D01*
X15795D01*
X11830Y11805D02*
X11780Y11755D01*
Y11655D01*
X11830Y11605D01*
X12030D01*
X12080Y11655D01*
Y11755D01*
X12030Y11805D01*
X12080Y11905D02*
Y12005D01*
Y11955D01*
X11780D01*
X11830Y11905D01*
Y12155D02*
X11780Y12205D01*
Y12305D01*
X11830Y12355D01*
X11880D01*
X11930Y12305D01*
X11980Y12355D01*
X12030D01*
X12080Y12305D01*
Y12205D01*
X12030Y12155D01*
X11980D01*
X11930Y12205D01*
X11880Y12155D01*
X11830D01*
X11930Y12205D02*
Y12305D01*
X14355Y10820D02*
X14305Y10870D01*
X14205D01*
X14155Y10820D01*
Y10620D01*
X14205Y10570D01*
X14305D01*
X14355Y10620D01*
X14455Y10570D02*
X14555D01*
X14505D01*
Y10870D01*
X14455Y10820D01*
X14705Y10870D02*
X14905D01*
Y10820D01*
X14705Y10620D01*
Y10570D01*
X11330Y3785D02*
X11280Y3735D01*
Y3635D01*
X11330Y3585D01*
X11530D01*
X11580Y3635D01*
Y3735D01*
X11530Y3785D01*
X11580Y3885D02*
Y3985D01*
Y3935D01*
X11280D01*
X11330Y3885D01*
X11280Y4335D02*
X11330Y4235D01*
X11430Y4135D01*
X11530D01*
X11580Y4185D01*
Y4285D01*
X11530Y4335D01*
X11480D01*
X11430Y4285D01*
Y4135D01*
X14345Y15790D02*
X14295Y15840D01*
X14195D01*
X14145Y15790D01*
Y15590D01*
X14195Y15540D01*
X14295D01*
X14345Y15590D01*
X14445Y15540D02*
X14545D01*
X14495D01*
Y15840D01*
X14445Y15790D01*
X14895Y15840D02*
X14695D01*
Y15690D01*
X14795Y15740D01*
X14845D01*
X14895Y15690D01*
Y15590D01*
X14845Y15540D01*
X14745D01*
X14695Y15590D01*
X4705Y10550D02*
X4655Y10600D01*
X4555D01*
X4505Y10550D01*
Y10350D01*
X4555Y10300D01*
X4655D01*
X4705Y10350D01*
X4805Y10300D02*
X4905D01*
X4855D01*
Y10600D01*
X4805Y10550D01*
X5205Y10300D02*
Y10600D01*
X5055Y10450D01*
X5255D01*
X4585Y11840D02*
X4535Y11890D01*
X4435D01*
X4385Y11840D01*
Y11640D01*
X4435Y11590D01*
X4535D01*
X4585Y11640D01*
X4685Y11590D02*
X4785D01*
X4735D01*
Y11890D01*
X4685Y11840D01*
X4935D02*
X4985Y11890D01*
X5085D01*
X5135Y11840D01*
Y11790D01*
X5085Y11740D01*
X5035D01*
X5085D01*
X5135Y11690D01*
Y11640D01*
X5085Y11590D01*
X4985D01*
X4935Y11640D01*
X4685Y8460D02*
X4635Y8510D01*
X4535D01*
X4485Y8460D01*
Y8260D01*
X4535Y8210D01*
X4635D01*
X4685Y8260D01*
X4785Y8210D02*
X4885D01*
X4835D01*
Y8510D01*
X4785Y8460D01*
X5235Y8210D02*
X5035D01*
X5235Y8410D01*
Y8460D01*
X5185Y8510D01*
X5085D01*
X5035Y8460D01*
X490Y865D02*
X440Y815D01*
Y715D01*
X490Y665D01*
X690D01*
X740Y715D01*
Y815D01*
X690Y865D01*
X740Y965D02*
Y1065D01*
Y1015D01*
X440D01*
X490Y965D01*
X740Y1215D02*
Y1315D01*
Y1265D01*
X440D01*
X490Y1215D01*
X480Y18615D02*
X430Y18565D01*
Y18465D01*
X480Y18415D01*
X680D01*
X730Y18465D01*
Y18565D01*
X680Y18615D01*
X730Y18715D02*
Y18815D01*
Y18765D01*
X430D01*
X480Y18715D01*
Y18965D02*
X430Y19015D01*
Y19115D01*
X480Y19165D01*
X680D01*
X730Y19115D01*
Y19015D01*
X680Y18965D01*
X480D01*
X18990Y18600D02*
X18940Y18550D01*
Y18450D01*
X18990Y18400D01*
X19190D01*
X19240Y18450D01*
Y18550D01*
X19190Y18600D01*
Y18700D02*
X19240Y18750D01*
Y18850D01*
X19190Y18900D01*
X18990D01*
X18940Y18850D01*
Y18750D01*
X18990Y18700D01*
X19040D01*
X19090Y18750D01*
Y18900D01*
X19005Y899D02*
X18955Y849D01*
Y749D01*
X19005Y699D01*
X19204D01*
X19254Y749D01*
Y849D01*
X19204Y899D01*
X19005Y998D02*
X18955Y1048D01*
Y1148D01*
X19005Y1198D01*
X19054D01*
X19104Y1148D01*
X19154Y1198D01*
X19204D01*
X19254Y1148D01*
Y1048D01*
X19204Y998D01*
X19154D01*
X19104Y1048D01*
X19054Y998D01*
X19005D01*
X19104Y1048D02*
Y1148D01*
X3490Y14550D02*
X3440Y14500D01*
Y14400D01*
X3490Y14350D01*
X3690D01*
X3740Y14400D01*
Y14500D01*
X3690Y14550D01*
X3440Y14650D02*
Y14850D01*
X3490D01*
X3690Y14650D01*
X3740D01*
X3670Y13410D02*
X3620Y13360D01*
Y13260D01*
X3670Y13210D01*
X3870D01*
X3920Y13260D01*
Y13360D01*
X3870Y13410D01*
X3620Y13710D02*
Y13510D01*
X3770D01*
X3720Y13610D01*
Y13660D01*
X3770Y13710D01*
X3870D01*
X3920Y13660D01*
Y13560D01*
X3870Y13510D01*
X15380Y15800D02*
X15330Y15850D01*
X15230D01*
X15180Y15800D01*
Y15600D01*
X15230Y15550D01*
X15330D01*
X15380Y15600D01*
X15630Y15550D02*
Y15850D01*
X15480Y15700D01*
X15680D01*
X4860Y12470D02*
X4810Y12520D01*
X4710D01*
X4660Y12470D01*
Y12270D01*
X4710Y12220D01*
X4810D01*
X4860Y12270D01*
X4960Y12470D02*
X5010Y12520D01*
X5110D01*
X5160Y12470D01*
Y12420D01*
X5110Y12370D01*
X5060D01*
X5110D01*
X5160Y12320D01*
Y12270D01*
X5110Y12220D01*
X5010D01*
X4960Y12270D01*
X6640Y9200D02*
X6590Y9150D01*
Y9050D01*
X6640Y9000D01*
X6840D01*
X6890Y9050D01*
Y9150D01*
X6840Y9200D01*
X6890Y9500D02*
Y9300D01*
X6690Y9500D01*
X6640D01*
X6590Y9450D01*
Y9350D01*
X6640Y9300D01*
X8830Y13290D02*
X8780Y13340D01*
X8680D01*
X8630Y13290D01*
Y13090D01*
X8680Y13040D01*
X8780D01*
X8830Y13090D01*
X8930Y13040D02*
X9030D01*
X8980D01*
Y13340D01*
X8930Y13290D01*
X10700Y980D02*
X10500D01*
X10400Y1080D01*
X10500Y1180D01*
X10700D01*
X10550D01*
Y980D01*
X10400Y1280D02*
Y1480D01*
Y1380D01*
X10700D01*
Y1580D02*
X10400D01*
X10700Y1780D01*
X10400D01*
X10700Y1880D02*
Y1980D01*
Y1930D01*
X10400D01*
X10450Y1880D01*
X31143Y5814D02*
G03*
X31143Y5381I217J-217D01*
G01*
X32127D02*
G03*
X32127Y5814I-217J217D01*
G01*
X31143Y6415D02*
G03*
X31143Y5982I217J-217D01*
G01*
X32127D02*
G03*
X32127Y6415I-217J217D01*
G01*
Y6583D02*
G03*
X32127Y7017I-217J217D01*
G01*
X31143D02*
G03*
X31143Y6583I217J-217D01*
G01*
X27242Y3323D02*
G03*
X27242Y3757I-217J217D01*
G01*
X26258D02*
G03*
X26258Y3323I217J-217D01*
G01*
Y4365D02*
G03*
X26258Y3932I217J-217D01*
G01*
X27242D02*
G03*
X27242Y4365I-217J217D01*
G01*
Y4540D02*
G03*
X27242Y4973I-217J217D01*
G01*
X26258D02*
G03*
X26258Y4540I217J-217D01*
G01*
X27242Y6780D02*
G03*
X27242Y7213I-217J217D01*
G01*
X26258D02*
G03*
X26258Y6780I217J-217D01*
G01*
X31939Y3448D02*
G03*
X32372Y3448I217J217D01*
G01*
Y4432D02*
G03*
X31939Y4432I-217J-217D01*
G01*
X34889Y11085D02*
G03*
X35322Y11085I217J217D01*
G01*
Y12069D02*
G03*
X34889Y12069I-217J-217D01*
G01*
X32322Y12432D02*
G03*
X31889Y12432I-217J-217D01*
G01*
Y11448D02*
G03*
X32322Y11448I217J217D01*
G01*
X31782Y4432D02*
G03*
X31349Y4432I-217J-217D01*
G01*
Y3448D02*
G03*
X31782Y3448I217J217D01*
G01*
X26117Y10233D02*
G03*
X26117Y10667I-217J217D01*
G01*
X25133D02*
G03*
X25133Y10233I217J-217D01*
G01*
X26117Y11531D02*
G03*
X26117Y11964I-217J217D01*
G01*
X25133D02*
G03*
X25133Y11531I217J-217D01*
G01*
Y8577D02*
G03*
X25133Y8143I217J-217D01*
G01*
X26117D02*
G03*
X26117Y8577I-217J217D01*
G01*
X20059Y1476D02*
G03*
X20492Y1476I217J217D01*
G01*
Y2461D02*
G03*
X20059Y2461I-217J-217D01*
G01*
X24122Y15082D02*
G03*
X23689Y15082I-217J-217D01*
G01*
Y14098D02*
G03*
X24122Y14098I217J217D01*
G01*
Y13792D02*
G03*
X23689Y13792I-217J-217D01*
G01*
Y12808D02*
G03*
X24122Y12808I217J217D01*
G01*
X35322Y15244D02*
G03*
X34889Y15244I-217J-217D01*
G01*
Y14260D02*
G03*
X35322Y14260I217J217D01*
G01*
X26117Y12183D02*
G03*
X26117Y12617I-217J217D01*
G01*
X25133D02*
G03*
X25133Y12183I217J-217D01*
G01*
X26202Y9902D02*
G03*
X25769Y9902I-217J-217D01*
G01*
Y8918D02*
G03*
X26202Y8918I217J217D01*
G01*
X28020Y12983D02*
G03*
X28020Y13417I-217J217D01*
G01*
X27036D02*
G03*
X27036Y12983I217J-217D01*
G01*
X27595Y17250D02*
G03*
X27402Y17227I-94J-34D01*
G01*
X27595Y17250D02*
G03*
X27788Y17273I94J34D01*
G01*
X27036Y12620D02*
G03*
X27036Y12187I217J-217D01*
G01*
X28020D02*
G03*
X28020Y12620I-217J217D01*
G01*
X38563Y1476D02*
G03*
X38996Y1476I217J217D01*
G01*
Y2461D02*
G03*
X38563Y2461I-217J-217D01*
G01*
Y17224D02*
G03*
X38996Y17224I217J217D01*
G01*
Y18209D02*
G03*
X38563Y18209I-217J-217D01*
G01*
X20492D02*
G03*
X20059Y18209I-217J-217D01*
G01*
Y17224D02*
G03*
X20492Y17224I217J217D01*
G01*
X35847Y2923D02*
X35917Y2983D01*
X35847Y2593D02*
X35917Y2523D01*
X36517D02*
X36987D01*
Y2983D01*
X35917D02*
X36317D01*
X35847Y2593D02*
Y2923D01*
X35917Y2523D02*
X36317D01*
X36517Y2983D02*
X36987D01*
X31143Y5381D02*
X32127D01*
X31143Y5814D02*
X32127D01*
X31143Y5982D02*
X32127D01*
X31143Y6415D02*
X32127D01*
X31143Y7017D02*
X32127D01*
X31143Y6583D02*
X32127D01*
X26258Y3757D02*
X27242D01*
X26258Y3323D02*
X27242D01*
X26258Y3932D02*
X27242D01*
X26258Y4365D02*
X27242D01*
X33485Y11010D02*
Y11429D01*
X32665Y11010D02*
Y11329D01*
X26258Y4973D02*
X27242D01*
X26258Y4540D02*
X27242D01*
X26258Y7213D02*
X27242D01*
X26258Y6780D02*
X27242D01*
X32372Y3448D02*
Y4432D01*
X31939Y3448D02*
Y4432D01*
X35322Y11085D02*
Y12069D01*
X34889Y11085D02*
Y12069D01*
X31889Y11448D02*
Y12432D01*
X32322Y11448D02*
Y12432D01*
X34605Y11010D02*
Y11429D01*
X33785Y11010D02*
Y11329D01*
X31349Y3448D02*
Y4432D01*
X31782Y3448D02*
Y4432D01*
X34615Y15000D02*
Y15319D01*
X33795Y14900D02*
Y15319D01*
X25133Y10667D02*
X26117D01*
X25133Y10233D02*
X26117D01*
X25133Y11964D02*
X26117D01*
X25133Y11531D02*
X26117D01*
X25133Y8143D02*
X26117D01*
X25133Y8577D02*
X26117D01*
X20492Y1476D02*
Y2461D01*
X20059Y1476D02*
Y2461D01*
X23689Y14098D02*
Y15082D01*
X24122Y14098D02*
Y15082D01*
X23689Y12808D02*
Y13792D01*
X24122Y12808D02*
Y13792D01*
X34889Y14260D02*
Y15244D01*
X35322Y14260D02*
Y15244D01*
X25133Y12617D02*
X26117D01*
X25133Y12183D02*
X26117D01*
X25769Y8918D02*
Y9902D01*
X26202Y8918D02*
Y9902D01*
X27036Y13417D02*
X28020D01*
X27036Y12983D02*
X28020D01*
X29525Y19411D02*
Y20061D01*
X28205Y18329D02*
X30843D01*
Y19411D01*
X28205D02*
X30843D01*
X28205Y18329D02*
Y19411D01*
X29525Y20061D02*
X30103D01*
Y19424D02*
Y20061D01*
X23138Y16702D02*
X23208Y16762D01*
X23138Y17162D02*
X23208Y17092D01*
X22068Y17162D02*
X22538D01*
X22068Y16702D02*
Y17162D01*
X22738Y16702D02*
X23138D01*
X23208Y16762D02*
Y17092D01*
X22738Y17162D02*
X23138D01*
X22068Y16702D02*
X22538D01*
X35847Y17102D02*
X35917Y17162D01*
X35847Y16772D02*
X35917Y16702D01*
X36517D02*
X36987D01*
Y17162D01*
X35917D02*
X36317D01*
X35847Y16772D02*
Y17102D01*
X35917Y16702D02*
X36317D01*
X36517Y17162D02*
X36987D01*
X23138Y2523D02*
X23208Y2583D01*
X23138Y2983D02*
X23208Y2913D01*
X22068Y2983D02*
X22538D01*
X22068Y2523D02*
Y2983D01*
X22738Y2523D02*
X23138D01*
X23208Y2583D02*
Y2913D01*
X22738Y2983D02*
X23138D01*
X22068Y2523D02*
X22538D01*
X27036Y12187D02*
X28020D01*
X27036Y12620D02*
X28020D01*
X25119Y8770D02*
Y10030D01*
X25631D01*
Y8770D02*
Y10030D01*
X25119Y8770D02*
X25631D01*
X30793Y8565D02*
Y11124D01*
X28234Y8565D02*
X30793D01*
X28663Y11124D02*
X30793D01*
X28234Y10695D02*
X28663Y11124D01*
X28234Y8565D02*
Y10695D01*
X38996Y1476D02*
Y2461D01*
X38563Y1476D02*
Y2461D01*
X38996Y17224D02*
Y18209D01*
X38563Y17224D02*
Y18209D01*
X20059Y17224D02*
Y18209D01*
X20492Y17224D02*
Y18209D01*
X27355Y12050D02*
X27305Y12100D01*
X27205D01*
X27155Y12050D01*
Y11850D01*
X27205Y11800D01*
X27305D01*
X27355Y11850D01*
X27655Y12100D02*
X27555Y12050D01*
X27455Y11950D01*
Y11850D01*
X27505Y11800D01*
X27605D01*
X27655Y11850D01*
Y11900D01*
X27605Y11950D01*
X27455D01*
X25700Y5617D02*
X25750D01*
X25850Y5717D01*
X25750Y5817D01*
X25700D01*
X25850Y5717D02*
X26000D01*
Y6117D02*
Y5917D01*
X25800Y6117D01*
X25750D01*
X25700Y6067D01*
Y5967D01*
X25750Y5917D01*
X24555Y9190D02*
X24605D01*
X24705Y9290D01*
X24605Y9390D01*
X24555D01*
X24705Y9290D02*
X24855D01*
Y9490D02*
Y9590D01*
Y9540D01*
X24555D01*
X24605Y9490D01*
X36405Y13320D02*
Y13070D01*
X36455Y13020D01*
X36555D01*
X36605Y13070D01*
Y13320D01*
X36905D02*
X36705D01*
Y13170D01*
X36805Y13220D01*
X36855D01*
X36905Y13170D01*
Y13070D01*
X36855Y13020D01*
X36755D01*
X36705Y13070D01*
X29536Y15370D02*
Y15120D01*
X29586Y15070D01*
X29686D01*
X29736Y15120D01*
Y15370D01*
X29985Y15070D02*
Y15370D01*
X29836Y15220D01*
X30035D01*
X29285Y7350D02*
Y7100D01*
X29335Y7050D01*
X29435D01*
X29485Y7100D01*
Y7350D01*
X29585Y7300D02*
X29635Y7350D01*
X29735D01*
X29785Y7300D01*
Y7250D01*
X29735Y7200D01*
X29685D01*
X29735D01*
X29785Y7150D01*
Y7100D01*
X29735Y7050D01*
X29635D01*
X29585Y7100D01*
X24808Y15293D02*
Y15043D01*
X24858Y14993D01*
X24958D01*
X25008Y15043D01*
Y15293D01*
X25308Y14993D02*
X25108D01*
X25308Y15193D01*
Y15243D01*
X25258Y15293D01*
X25158D01*
X25108Y15243D01*
X29078Y10761D02*
Y10511D01*
X29128Y10461D01*
X29228D01*
X29278Y10511D01*
Y10761D01*
X29378Y10461D02*
X29478D01*
X29428D01*
Y10761D01*
X29378Y10711D01*
X32460Y4830D02*
Y5130D01*
X32610D01*
X32660Y5080D01*
Y4980D01*
X32610Y4930D01*
X32460D01*
X32560D02*
X32660Y4830D01*
X32760D02*
X32860D01*
X32810D01*
Y5130D01*
X32760Y5080D01*
X33210Y5130D02*
X33010D01*
Y4980D01*
X33110Y5030D01*
X33160D01*
X33210Y4980D01*
Y4880D01*
X33160Y4830D01*
X33060D01*
X33010Y4880D01*
X27935Y6515D02*
X27635D01*
Y6665D01*
X27685Y6715D01*
X27785D01*
X27835Y6665D01*
Y6515D01*
Y6615D02*
X27935Y6715D01*
Y6815D02*
Y6915D01*
Y6865D01*
X27635D01*
X27685Y6815D01*
X27935Y7215D02*
X27635D01*
X27785Y7065D01*
Y7265D01*
X28130Y14210D02*
Y14510D01*
X28280D01*
X28330Y14460D01*
Y14360D01*
X28280Y14310D01*
X28130D01*
X28230D02*
X28330Y14210D01*
X28430D02*
X28530D01*
X28480D01*
Y14510D01*
X28430Y14460D01*
X28680D02*
X28730Y14510D01*
X28830D01*
X28880Y14460D01*
Y14410D01*
X28830Y14360D01*
X28780D01*
X28830D01*
X28880Y14310D01*
Y14260D01*
X28830Y14210D01*
X28730D01*
X28680Y14260D01*
X27140Y15120D02*
Y15420D01*
X27290D01*
X27340Y15370D01*
Y15270D01*
X27290Y15220D01*
X27140D01*
X27240D02*
X27340Y15120D01*
X27440D02*
X27540D01*
X27490D01*
Y15420D01*
X27440Y15370D01*
X27890Y15120D02*
X27690D01*
X27890Y15320D01*
Y15370D01*
X27840Y15420D01*
X27740D01*
X27690Y15370D01*
X24220Y10960D02*
Y11260D01*
X24370D01*
X24420Y11210D01*
Y11110D01*
X24370Y11060D01*
X24220D01*
X24320D02*
X24420Y10960D01*
X24520D02*
X24620D01*
X24570D01*
Y11260D01*
X24520Y11210D01*
X24770Y10960D02*
X24870D01*
X24820D01*
Y11260D01*
X24770Y11210D01*
X35025Y1015D02*
X34725D01*
Y1165D01*
X34775Y1215D01*
X34875D01*
X34925Y1165D01*
Y1015D01*
Y1115D02*
X35025Y1215D01*
Y1315D02*
Y1415D01*
Y1365D01*
X34725D01*
X34775Y1315D01*
Y1565D02*
X34725Y1615D01*
Y1715D01*
X34775Y1765D01*
X34975D01*
X35025Y1715D01*
Y1615D01*
X34975Y1565D01*
X34775D01*
X35025Y18040D02*
X34725D01*
Y18190D01*
X34775Y18240D01*
X34875D01*
X34925Y18190D01*
Y18040D01*
Y18140D02*
X35025Y18240D01*
X34975Y18340D02*
X35025Y18390D01*
Y18490D01*
X34975Y18540D01*
X34775D01*
X34725Y18490D01*
Y18390D01*
X34775Y18340D01*
X34825D01*
X34875Y18390D01*
Y18540D01*
X24315Y18020D02*
X24015D01*
Y18170D01*
X24065Y18220D01*
X24165D01*
X24215Y18170D01*
Y18020D01*
Y18120D02*
X24315Y18220D01*
X24065Y18320D02*
X24015Y18370D01*
Y18470D01*
X24065Y18520D01*
X24115D01*
X24165Y18470D01*
X24215Y18520D01*
X24265D01*
X24315Y18470D01*
Y18370D01*
X24265Y18320D01*
X24215D01*
X24165Y18370D01*
X24115Y18320D01*
X24065D01*
X24165Y18370D02*
Y18470D01*
X24335Y2270D02*
X24035D01*
Y2420D01*
X24085Y2470D01*
X24185D01*
X24235Y2420D01*
Y2270D01*
Y2370D02*
X24335Y2470D01*
X24035Y2570D02*
Y2770D01*
X24085D01*
X24285Y2570D01*
X24335D01*
X24315Y16900D02*
X24015D01*
Y17050D01*
X24065Y17100D01*
X24165D01*
X24215Y17050D01*
Y16900D01*
Y17000D02*
X24315Y17100D01*
Y17350D02*
X24015D01*
X24165Y17200D01*
Y17400D01*
X35005Y17010D02*
X34705D01*
Y17160D01*
X34755Y17210D01*
X34855D01*
X34905Y17160D01*
Y17010D01*
Y17110D02*
X35005Y17210D01*
X34755Y17310D02*
X34705Y17360D01*
Y17460D01*
X34755Y17510D01*
X34805D01*
X34855Y17460D01*
Y17410D01*
Y17460D01*
X34905Y17510D01*
X34955D01*
X35005Y17460D01*
Y17360D01*
X34955Y17310D01*
X35025Y2290D02*
X34725D01*
Y2440D01*
X34775Y2490D01*
X34875D01*
X34925Y2440D01*
Y2290D01*
Y2390D02*
X35025Y2490D01*
Y2790D02*
Y2590D01*
X34825Y2790D01*
X34775D01*
X34725Y2740D01*
Y2640D01*
X34775Y2590D01*
X24325Y1180D02*
X24025D01*
Y1330D01*
X24075Y1380D01*
X24175D01*
X24225Y1330D01*
Y1180D01*
Y1280D02*
X24325Y1380D01*
Y1480D02*
Y1580D01*
Y1530D01*
X24025D01*
X24075Y1480D01*
X22575Y18900D02*
Y19100D01*
X22525Y19150D01*
X22425D01*
X22375Y19100D01*
Y18900D01*
X22425Y18850D01*
X22525D01*
X22475Y18950D02*
X22575Y18850D01*
X22525D02*
X22575Y18900D01*
X22825Y18850D02*
Y19150D01*
X22675Y19000D01*
X22875D01*
X36365Y18900D02*
Y19100D01*
X36315Y19150D01*
X36215D01*
X36165Y19100D01*
Y18900D01*
X36215Y18850D01*
X36315D01*
X36265Y18950D02*
X36365Y18850D01*
X36315D02*
X36365Y18900D01*
X36465Y19100D02*
X36515Y19150D01*
X36615D01*
X36665Y19100D01*
Y19050D01*
X36615Y19000D01*
X36565D01*
X36615D01*
X36665Y18950D01*
Y18900D01*
X36615Y18850D01*
X36515D01*
X36465Y18900D01*
X36375Y600D02*
Y800D01*
X36325Y850D01*
X36225D01*
X36175Y800D01*
Y600D01*
X36225Y550D01*
X36325D01*
X36275Y650D02*
X36375Y550D01*
X36325D02*
X36375Y600D01*
X36675Y550D02*
X36475D01*
X36675Y750D01*
Y800D01*
X36625Y850D01*
X36525D01*
X36475Y800D01*
X22645Y600D02*
Y800D01*
X22595Y850D01*
X22495D01*
X22445Y800D01*
Y600D01*
X22495Y550D01*
X22595D01*
X22545Y650D02*
X22645Y550D01*
X22595D02*
X22645Y600D01*
X22745Y550D02*
X22845D01*
X22795D01*
Y850D01*
X22745Y800D01*
X21015Y18820D02*
Y19120D01*
X21115Y19020D01*
X21215Y19120D01*
Y18820D01*
X21465D02*
Y19120D01*
X21315Y18970D01*
X21515D01*
X37535Y18860D02*
Y19160D01*
X37635Y19060D01*
X37735Y19160D01*
Y18860D01*
X37835Y19110D02*
X37885Y19160D01*
X37985D01*
X38035Y19110D01*
Y19060D01*
X37985Y19010D01*
X37935D01*
X37985D01*
X38035Y18960D01*
Y18910D01*
X37985Y18860D01*
X37885D01*
X37835Y18910D01*
X21015Y540D02*
Y840D01*
X21115Y740D01*
X21215Y840D01*
Y540D01*
X21515D02*
X21315D01*
X21515Y740D01*
Y790D01*
X21465Y840D01*
X21365D01*
X21315Y790D01*
X37605Y560D02*
Y860D01*
X37705Y760D01*
X37805Y860D01*
Y560D01*
X37905D02*
X38005D01*
X37955D01*
Y860D01*
X37905Y810D01*
X28285Y4410D02*
Y4110D01*
X28485D01*
X28735D02*
Y4410D01*
X28585Y4260D01*
X28785D01*
X30305Y4470D02*
Y4170D01*
X30505D01*
X30605Y4420D02*
X30655Y4470D01*
X30755D01*
X30805Y4420D01*
Y4370D01*
X30755Y4320D01*
X30705D01*
X30755D01*
X30805Y4270D01*
Y4220D01*
X30755Y4170D01*
X30655D01*
X30605Y4220D01*
X29065Y5000D02*
Y4700D01*
X29265D01*
X29565D02*
X29365D01*
X29565Y4900D01*
Y4950D01*
X29515Y5000D01*
X29415D01*
X29365Y4950D01*
X31046Y18240D02*
Y17940D01*
X31246D01*
X31346D02*
X31446D01*
X31396D01*
Y18240D01*
X31346Y18190D01*
X31443Y19022D02*
Y18722D01*
Y18822D01*
X31643Y19022D01*
X31493Y18872D01*
X31643Y18722D01*
X31942Y18972D02*
X31892Y19022D01*
X31793D01*
X31743Y18972D01*
Y18772D01*
X31793Y18722D01*
X31892D01*
X31942Y18772D01*
Y18872D01*
X31843D01*
X32042Y18722D02*
X32142D01*
X32092D01*
Y19022D01*
X32042Y18972D01*
X37745Y16270D02*
X37645D01*
X37695D01*
Y16020D01*
X37645Y15970D01*
X37595D01*
X37545Y16020D01*
X38045Y15970D02*
X37845D01*
X38045Y16170D01*
Y16220D01*
X37995Y16270D01*
X37895D01*
X37845Y16220D01*
X21255Y16260D02*
X21155D01*
X21205D01*
Y16010D01*
X21155Y15960D01*
X21105D01*
X21055Y16010D01*
X21355Y15960D02*
X21455D01*
X21405D01*
Y16260D01*
X21355Y16210D01*
X27605Y16720D02*
X27405D01*
Y16570D01*
X27505D01*
X27405D01*
Y16420D01*
X27705D02*
X27805D01*
X27755D01*
Y16720D01*
X27705Y16670D01*
X32835Y15740D02*
Y15440D01*
X32985D01*
X33035Y15490D01*
Y15690D01*
X32985Y15740D01*
X32835D01*
X33335D02*
X33135D01*
Y15590D01*
X33235Y15640D01*
X33285D01*
X33335Y15590D01*
Y15490D01*
X33285Y15440D01*
X33185D01*
X33135Y15490D01*
X22495Y16580D02*
Y16280D01*
X22645D01*
X22695Y16330D01*
Y16530D01*
X22645Y16580D01*
X22495D01*
X22945Y16280D02*
Y16580D01*
X22795Y16430D01*
X22995D01*
X36185Y16440D02*
Y16140D01*
X36335D01*
X36385Y16190D01*
Y16390D01*
X36335Y16440D01*
X36185D01*
X36485Y16390D02*
X36535Y16440D01*
X36635D01*
X36685Y16390D01*
Y16340D01*
X36635Y16290D01*
X36585D01*
X36635D01*
X36685Y16240D01*
Y16190D01*
X36635Y16140D01*
X36535D01*
X36485Y16190D01*
X22485Y3360D02*
Y3060D01*
X22635D01*
X22685Y3110D01*
Y3310D01*
X22635Y3360D01*
X22485D01*
X22985Y3060D02*
X22785D01*
X22985Y3260D01*
Y3310D01*
X22935Y3360D01*
X22835D01*
X22785Y3310D01*
X36165Y3400D02*
Y3100D01*
X36315D01*
X36365Y3150D01*
Y3350D01*
X36315Y3400D01*
X36165D01*
X36465Y3100D02*
X36565D01*
X36515D01*
Y3400D01*
X36465Y3350D01*
X32682Y5748D02*
X32632Y5798D01*
X32532D01*
X32482Y5748D01*
Y5548D01*
X32532Y5498D01*
X32632D01*
X32682Y5548D01*
X32982Y5498D02*
X32782D01*
X32982Y5698D01*
Y5748D01*
X32932Y5798D01*
X32832D01*
X32782Y5748D01*
X33082Y5548D02*
X33132Y5498D01*
X33232D01*
X33282Y5548D01*
Y5748D01*
X33232Y5798D01*
X33132D01*
X33082Y5748D01*
Y5698D01*
X33132Y5648D01*
X33282D01*
X32652Y6359D02*
X32602Y6409D01*
X32502D01*
X32452Y6359D01*
Y6159D01*
X32502Y6109D01*
X32602D01*
X32652Y6159D01*
X32952Y6109D02*
X32752D01*
X32952Y6309D01*
Y6359D01*
X32902Y6409D01*
X32802D01*
X32752Y6359D01*
X33052D02*
X33102Y6409D01*
X33202D01*
X33252Y6359D01*
Y6309D01*
X33202Y6259D01*
X33252Y6209D01*
Y6159D01*
X33202Y6109D01*
X33102D01*
X33052Y6159D01*
Y6209D01*
X33102Y6259D01*
X33052Y6309D01*
Y6359D01*
X33102Y6259D02*
X33202D01*
X32662Y6910D02*
X32612Y6960D01*
X32512D01*
X32462Y6910D01*
Y6710D01*
X32512Y6660D01*
X32612D01*
X32662Y6710D01*
X32962Y6660D02*
X32762D01*
X32962Y6860D01*
Y6910D01*
X32912Y6960D01*
X32812D01*
X32762Y6910D01*
X33062Y6960D02*
X33262D01*
Y6910D01*
X33062Y6710D01*
Y6660D01*
X25490Y3640D02*
X25440Y3690D01*
X25340D01*
X25290Y3640D01*
Y3440D01*
X25340Y3390D01*
X25440D01*
X25490Y3440D01*
X25790Y3390D02*
X25590D01*
X25790Y3590D01*
Y3640D01*
X25740Y3690D01*
X25640D01*
X25590Y3640D01*
X26090Y3690D02*
X25990Y3640D01*
X25890Y3540D01*
Y3440D01*
X25940Y3390D01*
X26040D01*
X26090Y3440D01*
Y3490D01*
X26040Y3540D01*
X25890D01*
X25473Y4248D02*
X25423Y4298D01*
X25323D01*
X25273Y4248D01*
Y4048D01*
X25323Y3998D01*
X25423D01*
X25473Y4048D01*
X25773Y3998D02*
X25573D01*
X25773Y4198D01*
Y4248D01*
X25723Y4298D01*
X25623D01*
X25573Y4248D01*
X26073Y4298D02*
X25873D01*
Y4148D01*
X25973Y4198D01*
X26023D01*
X26073Y4148D01*
Y4048D01*
X26023Y3998D01*
X25923D01*
X25873Y4048D01*
X32905Y10837D02*
X32855Y10887D01*
X32755D01*
X32705Y10837D01*
Y10637D01*
X32755Y10587D01*
X32855D01*
X32905Y10637D01*
X33205Y10587D02*
X33005D01*
X33205Y10787D01*
Y10837D01*
X33155Y10887D01*
X33055D01*
X33005Y10837D01*
X33455Y10587D02*
Y10887D01*
X33305Y10737D01*
X33505D01*
X25475Y4920D02*
X25425Y4970D01*
X25325D01*
X25275Y4920D01*
Y4720D01*
X25325Y4670D01*
X25425D01*
X25475Y4720D01*
X25775Y4670D02*
X25575D01*
X25775Y4870D01*
Y4920D01*
X25725Y4970D01*
X25625D01*
X25575Y4920D01*
X25875D02*
X25925Y4970D01*
X26025D01*
X26075Y4920D01*
Y4870D01*
X26025Y4820D01*
X25975D01*
X26025D01*
X26075Y4770D01*
Y4720D01*
X26025Y4670D01*
X25925D01*
X25875Y4720D01*
X26590Y7557D02*
X26540Y7607D01*
X26440D01*
X26390Y7557D01*
Y7357D01*
X26440Y7307D01*
X26540D01*
X26590Y7357D01*
X26890Y7307D02*
X26690D01*
X26890Y7507D01*
Y7557D01*
X26840Y7607D01*
X26740D01*
X26690Y7557D01*
X26990Y7307D02*
X27090D01*
X27040D01*
Y7607D01*
X26990Y7557D01*
X32495Y3750D02*
X32445Y3700D01*
Y3600D01*
X32495Y3550D01*
X32695D01*
X32745Y3600D01*
Y3700D01*
X32695Y3750D01*
X32745Y4050D02*
Y3850D01*
X32545Y4050D01*
X32495D01*
X32445Y4000D01*
Y3900D01*
X32495Y3850D01*
Y4150D02*
X32445Y4200D01*
Y4300D01*
X32495Y4350D01*
X32695D01*
X32745Y4300D01*
Y4200D01*
X32695Y4150D01*
X32495D01*
X34930Y10820D02*
X34880Y10870D01*
X34780D01*
X34730Y10820D01*
Y10620D01*
X34780Y10570D01*
X34880D01*
X34930Y10620D01*
X35030Y10570D02*
X35130D01*
X35080D01*
Y10870D01*
X35030Y10820D01*
X35280Y10620D02*
X35330Y10570D01*
X35430D01*
X35480Y10620D01*
Y10820D01*
X35430Y10870D01*
X35330D01*
X35280Y10820D01*
Y10770D01*
X35330Y10720D01*
X35480D01*
X31515Y11805D02*
X31465Y11755D01*
Y11655D01*
X31515Y11605D01*
X31715D01*
X31765Y11655D01*
Y11755D01*
X31715Y11805D01*
X31765Y11905D02*
Y12005D01*
Y11955D01*
X31465D01*
X31515Y11905D01*
Y12155D02*
X31465Y12205D01*
Y12305D01*
X31515Y12355D01*
X31565D01*
X31615Y12305D01*
X31665Y12355D01*
X31715D01*
X31765Y12305D01*
Y12205D01*
X31715Y12155D01*
X31665D01*
X31615Y12205D01*
X31565Y12155D01*
X31515D01*
X31615Y12205D02*
Y12305D01*
X34040Y10820D02*
X33990Y10870D01*
X33890D01*
X33840Y10820D01*
Y10620D01*
X33890Y10570D01*
X33990D01*
X34040Y10620D01*
X34140Y10570D02*
X34240D01*
X34190D01*
Y10870D01*
X34140Y10820D01*
X34390Y10870D02*
X34590D01*
Y10820D01*
X34390Y10620D01*
Y10570D01*
X31015Y3785D02*
X30965Y3735D01*
Y3635D01*
X31015Y3585D01*
X31215D01*
X31265Y3635D01*
Y3735D01*
X31215Y3785D01*
X31265Y3885D02*
Y3985D01*
Y3935D01*
X30965D01*
X31015Y3885D01*
X30965Y4335D02*
X31015Y4235D01*
X31115Y4135D01*
X31215D01*
X31265Y4185D01*
Y4285D01*
X31215Y4335D01*
X31165D01*
X31115Y4285D01*
Y4135D01*
X34030Y15790D02*
X33980Y15840D01*
X33880D01*
X33830Y15790D01*
Y15590D01*
X33880Y15540D01*
X33980D01*
X34030Y15590D01*
X34130Y15540D02*
X34230D01*
X34180D01*
Y15840D01*
X34130Y15790D01*
X34580Y15840D02*
X34380D01*
Y15690D01*
X34480Y15740D01*
X34530D01*
X34580Y15690D01*
Y15590D01*
X34530Y15540D01*
X34430D01*
X34380Y15590D01*
X24390Y10550D02*
X24340Y10600D01*
X24240D01*
X24190Y10550D01*
Y10350D01*
X24240Y10300D01*
X24340D01*
X24390Y10350D01*
X24490Y10300D02*
X24590D01*
X24540D01*
Y10600D01*
X24490Y10550D01*
X24890Y10300D02*
Y10600D01*
X24740Y10450D01*
X24940D01*
X24270Y11840D02*
X24220Y11890D01*
X24120D01*
X24070Y11840D01*
Y11640D01*
X24120Y11590D01*
X24220D01*
X24270Y11640D01*
X24370Y11590D02*
X24470D01*
X24420D01*
Y11890D01*
X24370Y11840D01*
X24620D02*
X24670Y11890D01*
X24770D01*
X24820Y11840D01*
Y11790D01*
X24770Y11740D01*
X24720D01*
X24770D01*
X24820Y11690D01*
Y11640D01*
X24770Y11590D01*
X24670D01*
X24620Y11640D01*
X24370Y8460D02*
X24320Y8510D01*
X24220D01*
X24170Y8460D01*
Y8260D01*
X24220Y8210D01*
X24320D01*
X24370Y8260D01*
X24470Y8210D02*
X24570D01*
X24520D01*
Y8510D01*
X24470Y8460D01*
X24920Y8210D02*
X24720D01*
X24920Y8410D01*
Y8460D01*
X24870Y8510D01*
X24770D01*
X24720Y8460D01*
X20175Y865D02*
X20125Y815D01*
Y715D01*
X20175Y665D01*
X20375D01*
X20425Y715D01*
Y815D01*
X20375Y865D01*
X20425Y965D02*
Y1065D01*
Y1015D01*
X20125D01*
X20175Y965D01*
X20425Y1215D02*
Y1315D01*
Y1265D01*
X20125D01*
X20175Y1215D01*
X20165Y18615D02*
X20115Y18565D01*
Y18465D01*
X20165Y18415D01*
X20365D01*
X20415Y18465D01*
Y18565D01*
X20365Y18615D01*
X20415Y18715D02*
Y18815D01*
Y18765D01*
X20115D01*
X20165Y18715D01*
Y18965D02*
X20115Y19015D01*
Y19115D01*
X20165Y19165D01*
X20365D01*
X20415Y19115D01*
Y19015D01*
X20365Y18965D01*
X20165D01*
X38675Y18600D02*
X38625Y18550D01*
Y18450D01*
X38675Y18400D01*
X38875D01*
X38925Y18450D01*
Y18550D01*
X38875Y18600D01*
Y18700D02*
X38925Y18750D01*
Y18850D01*
X38875Y18900D01*
X38675D01*
X38625Y18850D01*
Y18750D01*
X38675Y18700D01*
X38725D01*
X38775Y18750D01*
Y18900D01*
X38690Y899D02*
X38640Y849D01*
Y749D01*
X38690Y699D01*
X38890D01*
X38939Y749D01*
Y849D01*
X38890Y899D01*
X38690Y998D02*
X38640Y1048D01*
Y1148D01*
X38690Y1198D01*
X38740D01*
X38790Y1148D01*
X38840Y1198D01*
X38890D01*
X38939Y1148D01*
Y1048D01*
X38890Y998D01*
X38840D01*
X38790Y1048D01*
X38740Y998D01*
X38690D01*
X38790Y1048D02*
Y1148D01*
X23175Y14550D02*
X23125Y14500D01*
Y14400D01*
X23175Y14350D01*
X23375D01*
X23425Y14400D01*
Y14500D01*
X23375Y14550D01*
X23125Y14650D02*
Y14850D01*
X23175D01*
X23375Y14650D01*
X23425D01*
X23355Y13410D02*
X23305Y13360D01*
Y13260D01*
X23355Y13210D01*
X23555D01*
X23605Y13260D01*
Y13360D01*
X23555Y13410D01*
X23305Y13710D02*
Y13510D01*
X23455D01*
X23405Y13610D01*
Y13660D01*
X23455Y13710D01*
X23555D01*
X23605Y13660D01*
Y13560D01*
X23555Y13510D01*
X35065Y15800D02*
X35015Y15850D01*
X34915D01*
X34865Y15800D01*
Y15600D01*
X34915Y15550D01*
X35015D01*
X35065Y15600D01*
X35315Y15550D02*
Y15850D01*
X35165Y15700D01*
X35365D01*
X24545Y12470D02*
X24495Y12520D01*
X24395D01*
X24345Y12470D01*
Y12270D01*
X24395Y12220D01*
X24495D01*
X24545Y12270D01*
X24645Y12470D02*
X24695Y12520D01*
X24795D01*
X24845Y12470D01*
Y12420D01*
X24795Y12370D01*
X24745D01*
X24795D01*
X24845Y12320D01*
Y12270D01*
X24795Y12220D01*
X24695D01*
X24645Y12270D01*
X26325Y9200D02*
X26275Y9150D01*
Y9050D01*
X26325Y9000D01*
X26525D01*
X26575Y9050D01*
Y9150D01*
X26525Y9200D01*
X26575Y9500D02*
Y9300D01*
X26375Y9500D01*
X26325D01*
X26275Y9450D01*
Y9350D01*
X26325Y9300D01*
X28515Y13290D02*
X28465Y13340D01*
X28365D01*
X28315Y13290D01*
Y13090D01*
X28365Y13040D01*
X28465D01*
X28515Y13090D01*
X28615Y13040D02*
X28715D01*
X28665D01*
Y13340D01*
X28615Y13290D01*
X30385Y980D02*
X30185D01*
X30085Y1080D01*
X30185Y1180D01*
X30385D01*
X30235D01*
Y980D01*
X30085Y1280D02*
Y1480D01*
Y1380D01*
X30385D01*
Y1580D02*
X30085D01*
X30385Y1780D01*
X30085D01*
X30385Y1880D02*
Y1980D01*
Y1930D01*
X30085D01*
X30135Y1880D01*
X27912Y-5814D02*
G03*
X27912Y-5381I-217J217D01*
G01*
X26928D02*
G03*
X26928Y-5814I217J-217D01*
G01*
X27912Y-6415D02*
G03*
X27912Y-5982I-217J217D01*
G01*
X26928D02*
G03*
X26928Y-6415I217J-217D01*
G01*
Y-6583D02*
G03*
X26928Y-7017I217J-217D01*
G01*
X27912D02*
G03*
X27912Y-6583I-217J217D01*
G01*
X31813Y-3323D02*
G03*
X31813Y-3757I217J-217D01*
G01*
X32798D02*
G03*
X32798Y-3323I-217J217D01*
G01*
Y-4365D02*
G03*
X32798Y-3932I-217J217D01*
G01*
X31813D02*
G03*
X31813Y-4365I217J-217D01*
G01*
Y-4540D02*
G03*
X31813Y-4973I217J-217D01*
G01*
X32798D02*
G03*
X32798Y-4540I-217J217D01*
G01*
X31813Y-6780D02*
G03*
X31813Y-7213I217J-217D01*
G01*
X32798D02*
G03*
X32798Y-6780I-217J217D01*
G01*
X27117Y-3448D02*
G03*
X26684Y-3448I-217J-217D01*
G01*
Y-4432D02*
G03*
X27117Y-4432I217J217D01*
G01*
X24167Y-11085D02*
G03*
X23734Y-11085I-217J-217D01*
G01*
Y-12069D02*
G03*
X24167Y-12069I217J217D01*
G01*
X26734Y-12432D02*
G03*
X27167Y-12432I217J217D01*
G01*
Y-11448D02*
G03*
X26734Y-11448I-217J-217D01*
G01*
X27274Y-4432D02*
G03*
X27707Y-4432I217J217D01*
G01*
Y-3448D02*
G03*
X27274Y-3448I-217J-217D01*
G01*
X32938Y-10233D02*
G03*
X32938Y-10667I217J-217D01*
G01*
X33922D02*
G03*
X33922Y-10233I-217J217D01*
G01*
X32938Y-11531D02*
G03*
X32938Y-11964I217J-217D01*
G01*
X33922D02*
G03*
X33922Y-11531I-217J217D01*
G01*
Y-8577D02*
G03*
X33922Y-8143I-217J217D01*
G01*
X32938D02*
G03*
X32938Y-8577I217J-217D01*
G01*
X38996Y-1476D02*
G03*
X38563Y-1476I-217J-217D01*
G01*
Y-2461D02*
G03*
X38996Y-2461I217J217D01*
G01*
X34934Y-15082D02*
G03*
X35367Y-15082I217J217D01*
G01*
Y-14098D02*
G03*
X34934Y-14098I-217J-217D01*
G01*
Y-13792D02*
G03*
X35367Y-13792I217J217D01*
G01*
Y-12808D02*
G03*
X34934Y-12808I-217J-217D01*
G01*
X23734Y-15244D02*
G03*
X24167Y-15244I217J217D01*
G01*
Y-14260D02*
G03*
X23734Y-14260I-217J-217D01*
G01*
X32938Y-12183D02*
G03*
X32938Y-12617I217J-217D01*
G01*
X33922D02*
G03*
X33922Y-12183I-217J217D01*
G01*
X32854Y-9902D02*
G03*
X33287Y-9902I217J217D01*
G01*
Y-8918D02*
G03*
X32854Y-8918I-217J-217D01*
G01*
X31035Y-12983D02*
G03*
X31035Y-13417I217J-217D01*
G01*
X32019D02*
G03*
X32019Y-12983I-217J217D01*
G01*
X31460Y-17250D02*
G03*
X31653Y-17227I94J34D01*
G01*
X31460Y-17250D02*
G03*
X31267Y-17273I-94J-34D01*
G01*
X32019Y-12620D02*
G03*
X32019Y-12187I-217J217D01*
G01*
X31035D02*
G03*
X31035Y-12620I217J-217D01*
G01*
X20492Y-1476D02*
G03*
X20059Y-1476I-217J-217D01*
G01*
Y-2461D02*
G03*
X20492Y-2461I217J217D01*
G01*
Y-17224D02*
G03*
X20059Y-17224I-217J-217D01*
G01*
Y-18209D02*
G03*
X20492Y-18209I217J217D01*
G01*
X38563D02*
G03*
X38996Y-18209I217J217D01*
G01*
Y-17224D02*
G03*
X38563Y-17224I-217J-217D01*
G01*
X23208Y-2923D02*
X23138Y-2983D01*
X23208Y-2593D02*
X23138Y-2523D01*
X22538D02*
X22068D01*
Y-2983D01*
X23138D02*
X22738D01*
X23208Y-2593D02*
Y-2923D01*
X23138Y-2523D02*
X22738D01*
X22538Y-2983D02*
X22068D01*
X27912Y-5381D02*
X26928D01*
X27912Y-5814D02*
X26928D01*
X27912Y-5982D02*
X26928D01*
X27912Y-6415D02*
X26928D01*
X27912Y-7017D02*
X26928D01*
X27912Y-6583D02*
X26928D01*
X32798Y-3757D02*
X31813D01*
X32798Y-3323D02*
X31813D01*
X32798Y-3932D02*
X31813D01*
X32798Y-4365D02*
X31813D01*
X25570Y-11010D02*
Y-11429D01*
X26390Y-11010D02*
Y-11329D01*
X32798Y-4973D02*
X31813D01*
X32798Y-4540D02*
X31813D01*
X32798Y-7213D02*
X31813D01*
X32798Y-6780D02*
X31813D01*
X26684Y-3448D02*
Y-4432D01*
X27117Y-3448D02*
Y-4432D01*
X23734Y-11085D02*
Y-12069D01*
X24167Y-11085D02*
Y-12069D01*
X27167Y-11448D02*
Y-12432D01*
X26734Y-11448D02*
Y-12432D01*
X24450Y-11010D02*
Y-11429D01*
X25270Y-11010D02*
Y-11329D01*
X27707Y-3448D02*
Y-4432D01*
X27274Y-3448D02*
Y-4432D01*
X24440Y-15000D02*
Y-15319D01*
X25260Y-14900D02*
Y-15319D01*
X33922Y-10667D02*
X32938D01*
X33922Y-10233D02*
X32938D01*
X33922Y-11964D02*
X32938D01*
X33922Y-11531D02*
X32938D01*
X33922Y-8143D02*
X32938D01*
X33922Y-8577D02*
X32938D01*
X38563Y-1476D02*
Y-2461D01*
X38996Y-1476D02*
Y-2461D01*
X35367Y-14098D02*
Y-15082D01*
X34934Y-14098D02*
Y-15082D01*
X35367Y-12808D02*
Y-13792D01*
X34934Y-12808D02*
Y-13792D01*
X24167Y-14260D02*
Y-15244D01*
X23734Y-14260D02*
Y-15244D01*
X33922Y-12617D02*
X32938D01*
X33922Y-12183D02*
X32938D01*
X33287Y-8918D02*
Y-9902D01*
X32854Y-8918D02*
Y-9902D01*
X32019Y-13417D02*
X31035D01*
X32019Y-12983D02*
X31035D01*
X29530Y-19411D02*
Y-20061D01*
X30850Y-18329D02*
X28212D01*
Y-19411D01*
X30850D02*
X28212D01*
X30850Y-18329D02*
Y-19411D01*
X29530Y-20061D02*
X28952D01*
Y-19424D02*
Y-20061D01*
X35917Y-16702D02*
X35847Y-16762D01*
X35917Y-17162D02*
X35847Y-17092D01*
X36987Y-17162D02*
X36517D01*
X36987Y-16702D02*
Y-17162D01*
X36317Y-16702D02*
X35917D01*
X35847Y-16762D02*
Y-17092D01*
X36317Y-17162D02*
X35917D01*
X36987Y-16702D02*
X36517D01*
X23208Y-17102D02*
X23138Y-17162D01*
X23208Y-16772D02*
X23138Y-16702D01*
X22538D02*
X22068D01*
Y-17162D01*
X23138D02*
X22738D01*
X23208Y-16772D02*
Y-17102D01*
X23138Y-16702D02*
X22738D01*
X22538Y-17162D02*
X22068D01*
X35917Y-2523D02*
X35847Y-2583D01*
X35917Y-2983D02*
X35847Y-2913D01*
X36987Y-2983D02*
X36517D01*
X36987Y-2523D02*
Y-2983D01*
X36317Y-2523D02*
X35917D01*
X35847Y-2583D02*
Y-2913D01*
X36317Y-2983D02*
X35917D01*
X36987Y-2523D02*
X36517D01*
X32019Y-12187D02*
X31035D01*
X32019Y-12620D02*
X31035D01*
X33936Y-8770D02*
Y-10030D01*
X33424D01*
Y-8770D02*
Y-10030D01*
X33936Y-8770D02*
X33424D01*
X28262Y-8565D02*
Y-11124D01*
X30821Y-8565D02*
X28262D01*
X30392Y-11124D02*
X28262D01*
X30821Y-10695D02*
X30392Y-11124D01*
X30821Y-8565D02*
Y-10695D01*
X20059Y-1476D02*
Y-2461D01*
X20492Y-1476D02*
Y-2461D01*
X20059Y-17224D02*
Y-18209D01*
X20492Y-17224D02*
Y-18209D01*
X38996Y-17224D02*
Y-18209D01*
X38563Y-17224D02*
Y-18209D01*
X31700Y-12050D02*
X31750Y-12100D01*
X31850D01*
X31900Y-12050D01*
Y-11850D01*
X31850Y-11800D01*
X31750D01*
X31700Y-11850D01*
X31400Y-12100D02*
X31500Y-12050D01*
X31600Y-11950D01*
Y-11850D01*
X31550Y-11800D01*
X31450D01*
X31400Y-11850D01*
Y-11900D01*
X31450Y-11950D01*
X31600D01*
X33355Y-5617D02*
X33305D01*
X33205Y-5717D01*
X33305Y-5817D01*
X33355D01*
X33205Y-5717D02*
X33055D01*
Y-6117D02*
Y-5917D01*
X33255Y-6117D01*
X33305D01*
X33355Y-6067D01*
Y-5967D01*
X33305Y-5917D01*
X34500Y-9190D02*
X34450D01*
X34350Y-9290D01*
X34450Y-9390D01*
X34500D01*
X34350Y-9290D02*
X34200D01*
Y-9490D02*
Y-9590D01*
Y-9540D01*
X34500D01*
X34450Y-9490D01*
X22650Y-13320D02*
Y-13070D01*
X22600Y-13020D01*
X22500D01*
X22450Y-13070D01*
Y-13320D01*
X22150D02*
X22350D01*
Y-13170D01*
X22250Y-13220D01*
X22200D01*
X22150Y-13170D01*
Y-13070D01*
X22200Y-13020D01*
X22300D01*
X22350Y-13070D01*
X29519Y-15370D02*
Y-15120D01*
X29469Y-15070D01*
X29370D01*
X29320Y-15120D01*
Y-15370D01*
X29070Y-15070D02*
Y-15370D01*
X29220Y-15220D01*
X29020D01*
X29770Y-7350D02*
Y-7100D01*
X29720Y-7050D01*
X29620D01*
X29570Y-7100D01*
Y-7350D01*
X29470Y-7300D02*
X29420Y-7350D01*
X29320D01*
X29270Y-7300D01*
Y-7250D01*
X29320Y-7200D01*
X29370D01*
X29320D01*
X29270Y-7150D01*
Y-7100D01*
X29320Y-7050D01*
X29420D01*
X29470Y-7100D01*
X34247Y-15293D02*
Y-15043D01*
X34197Y-14993D01*
X34097D01*
X34047Y-15043D01*
Y-15293D01*
X33747Y-14993D02*
X33947D01*
X33747Y-15193D01*
Y-15243D01*
X33797Y-15293D01*
X33897D01*
X33947Y-15243D01*
X29977Y-10761D02*
Y-10511D01*
X29928Y-10461D01*
X29828D01*
X29778Y-10511D01*
Y-10761D01*
X29678Y-10461D02*
X29578D01*
X29628D01*
Y-10761D01*
X29678Y-10711D01*
X26595Y-4830D02*
Y-5130D01*
X26445D01*
X26395Y-5080D01*
Y-4980D01*
X26445Y-4930D01*
X26595D01*
X26495D02*
X26395Y-4830D01*
X26295D02*
X26195D01*
X26245D01*
Y-5130D01*
X26295Y-5080D01*
X25845Y-5130D02*
X26045D01*
Y-4980D01*
X25945Y-5030D01*
X25895D01*
X25845Y-4980D01*
Y-4880D01*
X25895Y-4830D01*
X25995D01*
X26045Y-4880D01*
X31120Y-6515D02*
X31420D01*
Y-6665D01*
X31370Y-6715D01*
X31270D01*
X31220Y-6665D01*
Y-6515D01*
Y-6615D02*
X31120Y-6715D01*
Y-6815D02*
Y-6915D01*
Y-6865D01*
X31420D01*
X31370Y-6815D01*
X31120Y-7215D02*
X31420D01*
X31270Y-7065D01*
Y-7265D01*
X30925Y-14210D02*
Y-14510D01*
X30775D01*
X30725Y-14460D01*
Y-14360D01*
X30775Y-14310D01*
X30925D01*
X30825D02*
X30725Y-14210D01*
X30625D02*
X30525D01*
X30575D01*
Y-14510D01*
X30625Y-14460D01*
X30375D02*
X30325Y-14510D01*
X30225D01*
X30175Y-14460D01*
Y-14410D01*
X30225Y-14360D01*
X30275D01*
X30225D01*
X30175Y-14310D01*
Y-14260D01*
X30225Y-14210D01*
X30325D01*
X30375Y-14260D01*
X31915Y-15120D02*
Y-15420D01*
X31765D01*
X31715Y-15370D01*
Y-15270D01*
X31765Y-15220D01*
X31915D01*
X31815D02*
X31715Y-15120D01*
X31615D02*
X31515D01*
X31565D01*
Y-15420D01*
X31615Y-15370D01*
X31165Y-15120D02*
X31365D01*
X31165Y-15320D01*
Y-15370D01*
X31215Y-15420D01*
X31315D01*
X31365Y-15370D01*
X34835Y-10960D02*
Y-11260D01*
X34685D01*
X34635Y-11210D01*
Y-11110D01*
X34685Y-11060D01*
X34835D01*
X34735D02*
X34635Y-10960D01*
X34535D02*
X34435D01*
X34485D01*
Y-11260D01*
X34535Y-11210D01*
X34285Y-10960D02*
X34185D01*
X34235D01*
Y-11260D01*
X34285Y-11210D01*
X24030Y-1015D02*
X24330D01*
Y-1165D01*
X24280Y-1215D01*
X24180D01*
X24130Y-1165D01*
Y-1015D01*
Y-1115D02*
X24030Y-1215D01*
Y-1315D02*
Y-1415D01*
Y-1365D01*
X24330D01*
X24280Y-1315D01*
Y-1565D02*
X24330Y-1615D01*
Y-1715D01*
X24280Y-1765D01*
X24080D01*
X24030Y-1715D01*
Y-1615D01*
X24080Y-1565D01*
X24280D01*
X24030Y-18040D02*
X24330D01*
Y-18190D01*
X24280Y-18240D01*
X24180D01*
X24130Y-18190D01*
Y-18040D01*
Y-18140D02*
X24030Y-18240D01*
X24080Y-18340D02*
X24030Y-18390D01*
Y-18490D01*
X24080Y-18540D01*
X24280D01*
X24330Y-18490D01*
Y-18390D01*
X24280Y-18340D01*
X24230D01*
X24180Y-18390D01*
Y-18540D01*
X34740Y-18020D02*
X35040D01*
Y-18170D01*
X34990Y-18220D01*
X34890D01*
X34840Y-18170D01*
Y-18020D01*
Y-18120D02*
X34740Y-18220D01*
X34990Y-18320D02*
X35040Y-18370D01*
Y-18470D01*
X34990Y-18520D01*
X34940D01*
X34890Y-18470D01*
X34840Y-18520D01*
X34790D01*
X34740Y-18470D01*
Y-18370D01*
X34790Y-18320D01*
X34840D01*
X34890Y-18370D01*
X34940Y-18320D01*
X34990D01*
X34890Y-18370D02*
Y-18470D01*
X34720Y-2270D02*
X35020D01*
Y-2420D01*
X34970Y-2470D01*
X34870D01*
X34820Y-2420D01*
Y-2270D01*
Y-2370D02*
X34720Y-2470D01*
X35020Y-2570D02*
Y-2770D01*
X34970D01*
X34770Y-2570D01*
X34720D01*
X34740Y-16900D02*
X35040D01*
Y-17050D01*
X34990Y-17100D01*
X34890D01*
X34840Y-17050D01*
Y-16900D01*
Y-17000D02*
X34740Y-17100D01*
Y-17350D02*
X35040D01*
X34890Y-17200D01*
Y-17400D01*
X24050Y-17010D02*
X24350D01*
Y-17160D01*
X24300Y-17210D01*
X24200D01*
X24150Y-17160D01*
Y-17010D01*
Y-17110D02*
X24050Y-17210D01*
X24300Y-17310D02*
X24350Y-17360D01*
Y-17460D01*
X24300Y-17510D01*
X24250D01*
X24200Y-17460D01*
Y-17410D01*
Y-17460D01*
X24150Y-17510D01*
X24100D01*
X24050Y-17460D01*
Y-17360D01*
X24100Y-17310D01*
X24030Y-2290D02*
X24330D01*
Y-2440D01*
X24280Y-2490D01*
X24180D01*
X24130Y-2440D01*
Y-2290D01*
Y-2390D02*
X24030Y-2490D01*
Y-2790D02*
Y-2590D01*
X24230Y-2790D01*
X24280D01*
X24330Y-2740D01*
Y-2640D01*
X24280Y-2590D01*
X34730Y-1180D02*
X35030D01*
Y-1330D01*
X34980Y-1380D01*
X34880D01*
X34830Y-1330D01*
Y-1180D01*
Y-1280D02*
X34730Y-1380D01*
Y-1480D02*
Y-1580D01*
Y-1530D01*
X35030D01*
X34980Y-1480D01*
X36480Y-18900D02*
Y-19100D01*
X36530Y-19150D01*
X36630D01*
X36680Y-19100D01*
Y-18900D01*
X36630Y-18850D01*
X36530D01*
X36580Y-18950D02*
X36480Y-18850D01*
X36530D02*
X36480Y-18900D01*
X36230Y-18850D02*
Y-19150D01*
X36380Y-19000D01*
X36180D01*
X22690Y-18900D02*
Y-19100D01*
X22740Y-19150D01*
X22840D01*
X22890Y-19100D01*
Y-18900D01*
X22840Y-18850D01*
X22740D01*
X22790Y-18950D02*
X22690Y-18850D01*
X22740D02*
X22690Y-18900D01*
X22590Y-19100D02*
X22540Y-19150D01*
X22440D01*
X22390Y-19100D01*
Y-19050D01*
X22440Y-19000D01*
X22490D01*
X22440D01*
X22390Y-18950D01*
Y-18900D01*
X22440Y-18850D01*
X22540D01*
X22590Y-18900D01*
X22680Y-600D02*
Y-800D01*
X22730Y-850D01*
X22830D01*
X22880Y-800D01*
Y-600D01*
X22830Y-550D01*
X22730D01*
X22780Y-650D02*
X22680Y-550D01*
X22730D02*
X22680Y-600D01*
X22380Y-550D02*
X22580D01*
X22380Y-750D01*
Y-800D01*
X22430Y-850D01*
X22530D01*
X22580Y-800D01*
X36410Y-600D02*
Y-800D01*
X36460Y-850D01*
X36560D01*
X36610Y-800D01*
Y-600D01*
X36560Y-550D01*
X36460D01*
X36510Y-650D02*
X36410Y-550D01*
X36460D02*
X36410Y-600D01*
X36310Y-550D02*
X36210D01*
X36260D01*
Y-850D01*
X36310Y-800D01*
X38040Y-18820D02*
Y-19120D01*
X37940Y-19020D01*
X37840Y-19120D01*
Y-18820D01*
X37590D02*
Y-19120D01*
X37740Y-18970D01*
X37540D01*
X21520Y-18860D02*
Y-19160D01*
X21420Y-19060D01*
X21320Y-19160D01*
Y-18860D01*
X21220Y-19110D02*
X21170Y-19160D01*
X21070D01*
X21020Y-19110D01*
Y-19060D01*
X21070Y-19010D01*
X21120D01*
X21070D01*
X21020Y-18960D01*
Y-18910D01*
X21070Y-18860D01*
X21170D01*
X21220Y-18910D01*
X38040Y-540D02*
Y-840D01*
X37940Y-740D01*
X37840Y-840D01*
Y-540D01*
X37540D02*
X37740D01*
X37540Y-740D01*
Y-790D01*
X37590Y-840D01*
X37690D01*
X37740Y-790D01*
X21450Y-560D02*
Y-860D01*
X21350Y-760D01*
X21250Y-860D01*
Y-560D01*
X21150D02*
X21050D01*
X21100D01*
Y-860D01*
X21150Y-810D01*
X30770Y-4410D02*
Y-4110D01*
X30570D01*
X30320D02*
Y-4410D01*
X30470Y-4260D01*
X30270D01*
X28750Y-4470D02*
Y-4170D01*
X28550D01*
X28450Y-4420D02*
X28400Y-4470D01*
X28300D01*
X28250Y-4420D01*
Y-4370D01*
X28300Y-4320D01*
X28350D01*
X28300D01*
X28250Y-4270D01*
Y-4220D01*
X28300Y-4170D01*
X28400D01*
X28450Y-4220D01*
X29990Y-5000D02*
Y-4700D01*
X29790D01*
X29490D02*
X29690D01*
X29490Y-4900D01*
Y-4950D01*
X29540Y-5000D01*
X29640D01*
X29690Y-4950D01*
X28009Y-18240D02*
Y-17940D01*
X27809D01*
X27709D02*
X27609D01*
X27659D01*
Y-18240D01*
X27709Y-18190D01*
X27612Y-19022D02*
Y-18722D01*
Y-18822D01*
X27413Y-19022D01*
X27562Y-18872D01*
X27413Y-18722D01*
X27113Y-18972D02*
X27163Y-19022D01*
X27263D01*
X27313Y-18972D01*
Y-18772D01*
X27263Y-18722D01*
X27163D01*
X27113Y-18772D01*
Y-18872D01*
X27213D01*
X27013Y-18722D02*
X26913D01*
X26963D01*
Y-19022D01*
X27013Y-18972D01*
X21310Y-16270D02*
X21410D01*
X21360D01*
Y-16020D01*
X21410Y-15970D01*
X21460D01*
X21510Y-16020D01*
X21010Y-15970D02*
X21210D01*
X21010Y-16170D01*
Y-16220D01*
X21060Y-16270D01*
X21160D01*
X21210Y-16220D01*
X37800Y-16260D02*
X37900D01*
X37850D01*
Y-16010D01*
X37900Y-15960D01*
X37950D01*
X38000Y-16010D01*
X37700Y-15960D02*
X37600D01*
X37650D01*
Y-16260D01*
X37700Y-16210D01*
X31450Y-16720D02*
X31650D01*
Y-16570D01*
X31550D01*
X31650D01*
Y-16420D01*
X31350D02*
X31250D01*
X31300D01*
Y-16720D01*
X31350Y-16670D01*
X26220Y-15740D02*
Y-15440D01*
X26070D01*
X26020Y-15490D01*
Y-15690D01*
X26070Y-15740D01*
X26220D01*
X25720D02*
X25920D01*
Y-15590D01*
X25820Y-15640D01*
X25770D01*
X25720Y-15590D01*
Y-15490D01*
X25770Y-15440D01*
X25870D01*
X25920Y-15490D01*
X36560Y-16580D02*
Y-16280D01*
X36410D01*
X36360Y-16330D01*
Y-16530D01*
X36410Y-16580D01*
X36560D01*
X36110Y-16280D02*
Y-16580D01*
X36260Y-16430D01*
X36060D01*
X22870Y-16440D02*
Y-16140D01*
X22720D01*
X22670Y-16190D01*
Y-16390D01*
X22720Y-16440D01*
X22870D01*
X22570Y-16390D02*
X22520Y-16440D01*
X22420D01*
X22370Y-16390D01*
Y-16340D01*
X22420Y-16290D01*
X22470D01*
X22420D01*
X22370Y-16240D01*
Y-16190D01*
X22420Y-16140D01*
X22520D01*
X22570Y-16190D01*
X36570Y-3360D02*
Y-3060D01*
X36420D01*
X36370Y-3110D01*
Y-3310D01*
X36420Y-3360D01*
X36570D01*
X36070Y-3060D02*
X36270D01*
X36070Y-3260D01*
Y-3310D01*
X36120Y-3360D01*
X36220D01*
X36270Y-3310D01*
X22890Y-3400D02*
Y-3100D01*
X22740D01*
X22690Y-3150D01*
Y-3350D01*
X22740Y-3400D01*
X22890D01*
X22590Y-3100D02*
X22490D01*
X22540D01*
Y-3400D01*
X22590Y-3350D01*
X26373Y-5748D02*
X26423Y-5798D01*
X26523D01*
X26573Y-5748D01*
Y-5548D01*
X26523Y-5498D01*
X26423D01*
X26373Y-5548D01*
X26073Y-5498D02*
X26273D01*
X26073Y-5698D01*
Y-5748D01*
X26123Y-5798D01*
X26223D01*
X26273Y-5748D01*
X25973Y-5548D02*
X25923Y-5498D01*
X25824D01*
X25774Y-5548D01*
Y-5748D01*
X25824Y-5798D01*
X25923D01*
X25973Y-5748D01*
Y-5698D01*
X25923Y-5648D01*
X25774D01*
X26403Y-6359D02*
X26453Y-6409D01*
X26553D01*
X26603Y-6359D01*
Y-6159D01*
X26553Y-6109D01*
X26453D01*
X26403Y-6159D01*
X26103Y-6109D02*
X26303D01*
X26103Y-6309D01*
Y-6359D01*
X26153Y-6409D01*
X26253D01*
X26303Y-6359D01*
X26003D02*
X25953Y-6409D01*
X25854D01*
X25804Y-6359D01*
Y-6309D01*
X25854Y-6259D01*
X25804Y-6209D01*
Y-6159D01*
X25854Y-6109D01*
X25953D01*
X26003Y-6159D01*
Y-6209D01*
X25953Y-6259D01*
X26003Y-6309D01*
Y-6359D01*
X25953Y-6259D02*
X25854D01*
X26393Y-6910D02*
X26443Y-6960D01*
X26543D01*
X26593Y-6910D01*
Y-6710D01*
X26543Y-6660D01*
X26443D01*
X26393Y-6710D01*
X26093Y-6660D02*
X26293D01*
X26093Y-6860D01*
Y-6910D01*
X26143Y-6960D01*
X26243D01*
X26293Y-6910D01*
X25993Y-6960D02*
X25794D01*
Y-6910D01*
X25993Y-6710D01*
Y-6660D01*
X33565Y-3640D02*
X33615Y-3690D01*
X33715D01*
X33765Y-3640D01*
Y-3440D01*
X33715Y-3390D01*
X33615D01*
X33565Y-3440D01*
X33265Y-3390D02*
X33465D01*
X33265Y-3590D01*
Y-3640D01*
X33315Y-3690D01*
X33415D01*
X33465Y-3640D01*
X32966Y-3690D02*
X33066Y-3640D01*
X33166Y-3540D01*
Y-3440D01*
X33116Y-3390D01*
X33016D01*
X32966Y-3440D01*
Y-3490D01*
X33016Y-3540D01*
X33166D01*
X33582Y-4248D02*
X33632Y-4298D01*
X33732D01*
X33782Y-4248D01*
Y-4048D01*
X33732Y-3998D01*
X33632D01*
X33582Y-4048D01*
X33282Y-3998D02*
X33482D01*
X33282Y-4198D01*
Y-4248D01*
X33332Y-4298D01*
X33432D01*
X33482Y-4248D01*
X32982Y-4298D02*
X33182D01*
Y-4148D01*
X33082Y-4198D01*
X33032D01*
X32982Y-4148D01*
Y-4048D01*
X33032Y-3998D01*
X33132D01*
X33182Y-4048D01*
X26150Y-10837D02*
X26200Y-10887D01*
X26300D01*
X26350Y-10837D01*
Y-10637D01*
X26300Y-10587D01*
X26200D01*
X26150Y-10637D01*
X25850Y-10587D02*
X26050D01*
X25850Y-10787D01*
Y-10837D01*
X25900Y-10887D01*
X26000D01*
X26050Y-10837D01*
X25600Y-10587D02*
Y-10887D01*
X25750Y-10737D01*
X25550D01*
X33580Y-4920D02*
X33630Y-4970D01*
X33730D01*
X33780Y-4920D01*
Y-4720D01*
X33730Y-4670D01*
X33630D01*
X33580Y-4720D01*
X33280Y-4670D02*
X33480D01*
X33280Y-4870D01*
Y-4920D01*
X33330Y-4970D01*
X33430D01*
X33480Y-4920D01*
X33180D02*
X33130Y-4970D01*
X33030D01*
X32980Y-4920D01*
Y-4870D01*
X33030Y-4820D01*
X33080D01*
X33030D01*
X32980Y-4770D01*
Y-4720D01*
X33030Y-4670D01*
X33130D01*
X33180Y-4720D01*
X32465Y-7557D02*
X32515Y-7607D01*
X32615D01*
X32665Y-7557D01*
Y-7357D01*
X32615Y-7307D01*
X32515D01*
X32465Y-7357D01*
X32165Y-7307D02*
X32365D01*
X32165Y-7507D01*
Y-7557D01*
X32215Y-7607D01*
X32315D01*
X32365Y-7557D01*
X32066Y-7307D02*
X31966D01*
X32016D01*
Y-7607D01*
X32066Y-7557D01*
X26560Y-3750D02*
X26610Y-3700D01*
Y-3600D01*
X26560Y-3550D01*
X26360D01*
X26310Y-3600D01*
Y-3700D01*
X26360Y-3750D01*
X26310Y-4050D02*
Y-3850D01*
X26510Y-4050D01*
X26560D01*
X26610Y-4000D01*
Y-3900D01*
X26560Y-3850D01*
Y-4150D02*
X26610Y-4200D01*
Y-4300D01*
X26560Y-4350D01*
X26360D01*
X26310Y-4300D01*
Y-4200D01*
X26360Y-4150D01*
X26560D01*
X24125Y-10820D02*
X24175Y-10870D01*
X24275D01*
X24325Y-10820D01*
Y-10620D01*
X24275Y-10570D01*
X24175D01*
X24125Y-10620D01*
X24025Y-10570D02*
X23925D01*
X23975D01*
Y-10870D01*
X24025Y-10820D01*
X23775Y-10620D02*
X23725Y-10570D01*
X23625D01*
X23575Y-10620D01*
Y-10820D01*
X23625Y-10870D01*
X23725D01*
X23775Y-10820D01*
Y-10770D01*
X23725Y-10720D01*
X23575D01*
X27540Y-11805D02*
X27590Y-11755D01*
Y-11655D01*
X27540Y-11605D01*
X27340D01*
X27290Y-11655D01*
Y-11755D01*
X27340Y-11805D01*
X27290Y-11905D02*
Y-12005D01*
Y-11955D01*
X27590D01*
X27540Y-11905D01*
Y-12155D02*
X27590Y-12205D01*
Y-12305D01*
X27540Y-12355D01*
X27490D01*
X27440Y-12305D01*
X27390Y-12355D01*
X27340D01*
X27290Y-12305D01*
Y-12205D01*
X27340Y-12155D01*
X27390D01*
X27440Y-12205D01*
X27490Y-12155D01*
X27540D01*
X27440Y-12205D02*
Y-12305D01*
X25015Y-10820D02*
X25065Y-10870D01*
X25165D01*
X25215Y-10820D01*
Y-10620D01*
X25165Y-10570D01*
X25065D01*
X25015Y-10620D01*
X24915Y-10570D02*
X24815D01*
X24865D01*
Y-10870D01*
X24915Y-10820D01*
X24665Y-10870D02*
X24465D01*
Y-10820D01*
X24665Y-10620D01*
Y-10570D01*
X28040Y-3785D02*
X28090Y-3735D01*
Y-3635D01*
X28040Y-3585D01*
X27840D01*
X27790Y-3635D01*
Y-3735D01*
X27840Y-3785D01*
X27790Y-3885D02*
Y-3985D01*
Y-3935D01*
X28090D01*
X28040Y-3885D01*
X28090Y-4335D02*
X28040Y-4235D01*
X27940Y-4135D01*
X27840D01*
X27790Y-4185D01*
Y-4285D01*
X27840Y-4335D01*
X27890D01*
X27940Y-4285D01*
Y-4135D01*
X25025Y-15790D02*
X25075Y-15840D01*
X25175D01*
X25225Y-15790D01*
Y-15590D01*
X25175Y-15540D01*
X25075D01*
X25025Y-15590D01*
X24925Y-15540D02*
X24825D01*
X24875D01*
Y-15840D01*
X24925Y-15790D01*
X24475Y-15840D02*
X24675D01*
Y-15690D01*
X24575Y-15740D01*
X24525D01*
X24475Y-15690D01*
Y-15590D01*
X24525Y-15540D01*
X24625D01*
X24675Y-15590D01*
X34665Y-10550D02*
X34715Y-10600D01*
X34815D01*
X34865Y-10550D01*
Y-10350D01*
X34815Y-10300D01*
X34715D01*
X34665Y-10350D01*
X34565Y-10300D02*
X34465D01*
X34515D01*
Y-10600D01*
X34565Y-10550D01*
X34165Y-10300D02*
Y-10600D01*
X34315Y-10450D01*
X34115D01*
X34785Y-11840D02*
X34835Y-11890D01*
X34935D01*
X34985Y-11840D01*
Y-11640D01*
X34935Y-11590D01*
X34835D01*
X34785Y-11640D01*
X34685Y-11590D02*
X34585D01*
X34635D01*
Y-11890D01*
X34685Y-11840D01*
X34435D02*
X34385Y-11890D01*
X34285D01*
X34235Y-11840D01*
Y-11790D01*
X34285Y-11740D01*
X34335D01*
X34285D01*
X34235Y-11690D01*
Y-11640D01*
X34285Y-11590D01*
X34385D01*
X34435Y-11640D01*
X34685Y-8460D02*
X34735Y-8510D01*
X34835D01*
X34885Y-8460D01*
Y-8260D01*
X34835Y-8210D01*
X34735D01*
X34685Y-8260D01*
X34585Y-8210D02*
X34485D01*
X34535D01*
Y-8510D01*
X34585Y-8460D01*
X34135Y-8210D02*
X34335D01*
X34135Y-8410D01*
Y-8460D01*
X34185Y-8510D01*
X34285D01*
X34335Y-8460D01*
X38880Y-865D02*
X38930Y-815D01*
Y-715D01*
X38880Y-665D01*
X38680D01*
X38630Y-715D01*
Y-815D01*
X38680Y-865D01*
X38630Y-965D02*
Y-1065D01*
Y-1015D01*
X38930D01*
X38880Y-965D01*
X38630Y-1215D02*
Y-1315D01*
Y-1265D01*
X38930D01*
X38880Y-1215D01*
X38890Y-18615D02*
X38940Y-18565D01*
Y-18465D01*
X38890Y-18415D01*
X38690D01*
X38640Y-18465D01*
Y-18565D01*
X38690Y-18615D01*
X38640Y-18715D02*
Y-18815D01*
Y-18765D01*
X38940D01*
X38890Y-18715D01*
Y-18965D02*
X38940Y-19015D01*
Y-19115D01*
X38890Y-19165D01*
X38690D01*
X38640Y-19115D01*
Y-19015D01*
X38690Y-18965D01*
X38890D01*
X20380Y-18600D02*
X20430Y-18550D01*
Y-18450D01*
X20380Y-18400D01*
X20180D01*
X20130Y-18450D01*
Y-18550D01*
X20180Y-18600D01*
Y-18700D02*
X20130Y-18750D01*
Y-18850D01*
X20180Y-18900D01*
X20380D01*
X20430Y-18850D01*
Y-18750D01*
X20380Y-18700D01*
X20330D01*
X20280Y-18750D01*
Y-18900D01*
X20366Y-899D02*
X20416Y-849D01*
Y-749D01*
X20366Y-699D01*
X20166D01*
X20116Y-749D01*
Y-849D01*
X20166Y-899D01*
X20366Y-998D02*
X20416Y-1048D01*
Y-1148D01*
X20366Y-1198D01*
X20316D01*
X20266Y-1148D01*
X20216Y-1198D01*
X20166D01*
X20116Y-1148D01*
Y-1048D01*
X20166Y-998D01*
X20216D01*
X20266Y-1048D01*
X20316Y-998D01*
X20366D01*
X20266Y-1048D02*
Y-1148D01*
X35880Y-14550D02*
X35930Y-14500D01*
Y-14400D01*
X35880Y-14350D01*
X35680D01*
X35630Y-14400D01*
Y-14500D01*
X35680Y-14550D01*
X35930Y-14650D02*
Y-14850D01*
X35880D01*
X35680Y-14650D01*
X35630D01*
X35700Y-13410D02*
X35750Y-13360D01*
Y-13260D01*
X35700Y-13210D01*
X35500D01*
X35450Y-13260D01*
Y-13360D01*
X35500Y-13410D01*
X35750Y-13710D02*
Y-13510D01*
X35600D01*
X35650Y-13610D01*
Y-13660D01*
X35600Y-13710D01*
X35500D01*
X35450Y-13660D01*
Y-13560D01*
X35500Y-13510D01*
X23990Y-15800D02*
X24040Y-15850D01*
X24140D01*
X24190Y-15800D01*
Y-15600D01*
X24140Y-15550D01*
X24040D01*
X23990Y-15600D01*
X23740Y-15550D02*
Y-15850D01*
X23890Y-15700D01*
X23690D01*
X34510Y-12470D02*
X34560Y-12520D01*
X34660D01*
X34710Y-12470D01*
Y-12270D01*
X34660Y-12220D01*
X34560D01*
X34510Y-12270D01*
X34410Y-12470D02*
X34360Y-12520D01*
X34260D01*
X34210Y-12470D01*
Y-12420D01*
X34260Y-12370D01*
X34310D01*
X34260D01*
X34210Y-12320D01*
Y-12270D01*
X34260Y-12220D01*
X34360D01*
X34410Y-12270D01*
X32730Y-9200D02*
X32780Y-9150D01*
Y-9050D01*
X32730Y-9000D01*
X32530D01*
X32480Y-9050D01*
Y-9150D01*
X32530Y-9200D01*
X32480Y-9500D02*
Y-9300D01*
X32680Y-9500D01*
X32730D01*
X32780Y-9450D01*
Y-9350D01*
X32730Y-9300D01*
X30540Y-13290D02*
X30590Y-13340D01*
X30690D01*
X30740Y-13290D01*
Y-13090D01*
X30690Y-13040D01*
X30590D01*
X30540Y-13090D01*
X30440Y-13040D02*
X30340D01*
X30390D01*
Y-13340D01*
X30440Y-13290D01*
X28670Y-980D02*
X28870D01*
X28970Y-1080D01*
X28870Y-1180D01*
X28670D01*
X28820D01*
Y-980D01*
X28970Y-1280D02*
Y-1480D01*
Y-1380D01*
X28670D01*
Y-1580D02*
X28970D01*
X28670Y-1780D01*
X28970D01*
X28670Y-1880D02*
Y-1980D01*
Y-1930D01*
X28970D01*
X28920Y-1880D01*
X8227Y-5814D02*
G03*
X8227Y-5381I-217J217D01*
G01*
X7243D02*
G03*
X7243Y-5814I217J-217D01*
G01*
X8227Y-6415D02*
G03*
X8227Y-5982I-217J217D01*
G01*
X7243D02*
G03*
X7243Y-6415I217J-217D01*
G01*
Y-6583D02*
G03*
X7243Y-7017I217J-217D01*
G01*
X8227D02*
G03*
X8227Y-6583I-217J217D01*
G01*
X12128Y-3323D02*
G03*
X12128Y-3757I217J-217D01*
G01*
X13113D02*
G03*
X13113Y-3323I-217J217D01*
G01*
Y-4365D02*
G03*
X13113Y-3932I-217J217D01*
G01*
X12128D02*
G03*
X12128Y-4365I217J-217D01*
G01*
Y-4540D02*
G03*
X12128Y-4973I217J-217D01*
G01*
X13113D02*
G03*
X13113Y-4540I-217J217D01*
G01*
X12128Y-6780D02*
G03*
X12128Y-7213I217J-217D01*
G01*
X13113D02*
G03*
X13113Y-6780I-217J217D01*
G01*
X7432Y-3448D02*
G03*
X6999Y-3448I-217J-217D01*
G01*
Y-4432D02*
G03*
X7432Y-4432I217J217D01*
G01*
X4482Y-11085D02*
G03*
X4049Y-11085I-217J-217D01*
G01*
Y-12069D02*
G03*
X4482Y-12069I217J217D01*
G01*
X7049Y-12432D02*
G03*
X7482Y-12432I217J217D01*
G01*
Y-11448D02*
G03*
X7049Y-11448I-217J-217D01*
G01*
X7588Y-4432D02*
G03*
X8022Y-4432I217J217D01*
G01*
Y-3448D02*
G03*
X7588Y-3448I-217J-217D01*
G01*
X13253Y-10233D02*
G03*
X13253Y-10667I217J-217D01*
G01*
X14237D02*
G03*
X14237Y-10233I-217J217D01*
G01*
X13253Y-11531D02*
G03*
X13253Y-11964I217J-217D01*
G01*
X14237D02*
G03*
X14237Y-11531I-217J217D01*
G01*
Y-8577D02*
G03*
X14237Y-8143I-217J217D01*
G01*
X13253D02*
G03*
X13253Y-8577I217J-217D01*
G01*
X19311Y-1476D02*
G03*
X18878Y-1476I-217J-217D01*
G01*
Y-2461D02*
G03*
X19311Y-2461I217J217D01*
G01*
X15249Y-15082D02*
G03*
X15682Y-15082I217J217D01*
G01*
Y-14098D02*
G03*
X15249Y-14098I-217J-217D01*
G01*
Y-13792D02*
G03*
X15682Y-13792I217J217D01*
G01*
Y-12808D02*
G03*
X15249Y-12808I-217J-217D01*
G01*
X4049Y-15244D02*
G03*
X4482Y-15244I217J217D01*
G01*
Y-14260D02*
G03*
X4049Y-14260I-217J-217D01*
G01*
X13253Y-12183D02*
G03*
X13253Y-12617I217J-217D01*
G01*
X14237D02*
G03*
X14237Y-12183I-217J217D01*
G01*
X13168Y-9902D02*
G03*
X13602Y-9902I217J217D01*
G01*
Y-8918D02*
G03*
X13168Y-8918I-217J-217D01*
G01*
X11350Y-12983D02*
G03*
X11350Y-13417I217J-217D01*
G01*
X12334D02*
G03*
X12334Y-12983I-217J217D01*
G01*
X11775Y-17250D02*
G03*
X11968Y-17227I94J34D01*
G01*
X11775Y-17250D02*
G03*
X11582Y-17273I-94J-34D01*
G01*
X12334Y-12620D02*
G03*
X12334Y-12187I-217J217D01*
G01*
X11350D02*
G03*
X11350Y-12620I217J-217D01*
G01*
X807Y-1476D02*
G03*
X374Y-1476I-217J-217D01*
G01*
Y-2461D02*
G03*
X807Y-2461I217J217D01*
G01*
Y-17224D02*
G03*
X374Y-17224I-217J-217D01*
G01*
Y-18209D02*
G03*
X807Y-18209I217J217D01*
G01*
X18878D02*
G03*
X19311Y-18209I217J217D01*
G01*
Y-17224D02*
G03*
X18878Y-17224I-217J-217D01*
G01*
X3523Y-2923D02*
X3453Y-2983D01*
X3523Y-2593D02*
X3453Y-2523D01*
X2853D02*
X2383D01*
Y-2983D01*
X3453D02*
X3053D01*
X3523Y-2593D02*
Y-2923D01*
X3453Y-2523D02*
X3053D01*
X2853Y-2983D02*
X2383D01*
X8227Y-5381D02*
X7243D01*
X8227Y-5814D02*
X7243D01*
X8227Y-5982D02*
X7243D01*
X8227Y-6415D02*
X7243D01*
X8227Y-7017D02*
X7243D01*
X8227Y-6583D02*
X7243D01*
X13113Y-3757D02*
X12128D01*
X13113Y-3323D02*
X12128D01*
X13113Y-3932D02*
X12128D01*
X13113Y-4365D02*
X12128D01*
X5885Y-11010D02*
Y-11429D01*
X6705Y-11010D02*
Y-11329D01*
X13113Y-4973D02*
X12128D01*
X13113Y-4540D02*
X12128D01*
X13113Y-7213D02*
X12128D01*
X13113Y-6780D02*
X12128D01*
X6999Y-3448D02*
Y-4432D01*
X7432Y-3448D02*
Y-4432D01*
X4049Y-11085D02*
Y-12069D01*
X4482Y-11085D02*
Y-12069D01*
X7482Y-11448D02*
Y-12432D01*
X7049Y-11448D02*
Y-12432D01*
X4765Y-11010D02*
Y-11429D01*
X5585Y-11010D02*
Y-11329D01*
X8022Y-3448D02*
Y-4432D01*
X7588Y-3448D02*
Y-4432D01*
X4755Y-15000D02*
Y-15319D01*
X5575Y-14900D02*
Y-15319D01*
X14237Y-10667D02*
X13253D01*
X14237Y-10233D02*
X13253D01*
X14237Y-11964D02*
X13253D01*
X14237Y-11531D02*
X13253D01*
X14237Y-8143D02*
X13253D01*
X14237Y-8577D02*
X13253D01*
X18878Y-1476D02*
Y-2461D01*
X19311Y-1476D02*
Y-2461D01*
X15682Y-14098D02*
Y-15082D01*
X15249Y-14098D02*
Y-15082D01*
X15682Y-12808D02*
Y-13792D01*
X15249Y-12808D02*
Y-13792D01*
X4482Y-14260D02*
Y-15244D01*
X4049Y-14260D02*
Y-15244D01*
X14237Y-12617D02*
X13253D01*
X14237Y-12183D02*
X13253D01*
X13602Y-8918D02*
Y-9902D01*
X13168Y-8918D02*
Y-9902D01*
X12334Y-13417D02*
X11350D01*
X12334Y-12983D02*
X11350D01*
X9845Y-19411D02*
Y-20061D01*
X11165Y-18329D02*
X8527D01*
Y-19411D01*
X11165D02*
X8527D01*
X11165Y-18329D02*
Y-19411D01*
X9845Y-20061D02*
X9267D01*
Y-19424D02*
Y-20061D01*
X16232Y-16702D02*
X16162Y-16762D01*
X16232Y-17162D02*
X16162Y-17092D01*
X17302Y-17162D02*
X16832D01*
X17302Y-16702D02*
Y-17162D01*
X16632Y-16702D02*
X16232D01*
X16162Y-16762D02*
Y-17092D01*
X16632Y-17162D02*
X16232D01*
X17302Y-16702D02*
X16832D01*
X3523Y-17102D02*
X3453Y-17162D01*
X3523Y-16772D02*
X3453Y-16702D01*
X2853D02*
X2383D01*
Y-17162D01*
X3453D02*
X3053D01*
X3523Y-16772D02*
Y-17102D01*
X3453Y-16702D02*
X3053D01*
X2853Y-17162D02*
X2383D01*
X16232Y-2523D02*
X16162Y-2583D01*
X16232Y-2983D02*
X16162Y-2913D01*
X17302Y-2983D02*
X16832D01*
X17302Y-2523D02*
Y-2983D01*
X16632Y-2523D02*
X16232D01*
X16162Y-2583D02*
Y-2913D01*
X16632Y-2983D02*
X16232D01*
X17302Y-2523D02*
X16832D01*
X12334Y-12187D02*
X11350D01*
X12334Y-12620D02*
X11350D01*
X14251Y-8770D02*
Y-10030D01*
X13739D01*
Y-8770D02*
Y-10030D01*
X14251Y-8770D02*
X13739D01*
X8577Y-8565D02*
Y-11124D01*
X11136Y-8565D02*
X8577D01*
X10707Y-11124D02*
X8577D01*
X11136Y-10695D02*
X10707Y-11124D01*
X11136Y-8565D02*
Y-10695D01*
X374Y-1476D02*
Y-2461D01*
X807Y-1476D02*
Y-2461D01*
X374Y-17224D02*
Y-18209D01*
X807Y-17224D02*
Y-18209D01*
X19311Y-17224D02*
Y-18209D01*
X18878Y-17224D02*
Y-18209D01*
X12015Y-12050D02*
X12065Y-12100D01*
X12165D01*
X12215Y-12050D01*
Y-11850D01*
X12165Y-11800D01*
X12065D01*
X12015Y-11850D01*
X11715Y-12100D02*
X11815Y-12050D01*
X11915Y-11950D01*
Y-11850D01*
X11865Y-11800D01*
X11765D01*
X11715Y-11850D01*
Y-11900D01*
X11765Y-11950D01*
X11915D01*
X13670Y-5617D02*
X13620D01*
X13520Y-5717D01*
X13620Y-5817D01*
X13670D01*
X13520Y-5717D02*
X13370D01*
Y-6117D02*
Y-5917D01*
X13570Y-6117D01*
X13620D01*
X13670Y-6067D01*
Y-5967D01*
X13620Y-5917D01*
X14815Y-9190D02*
X14765D01*
X14665Y-9290D01*
X14765Y-9390D01*
X14815D01*
X14665Y-9290D02*
X14515D01*
Y-9490D02*
Y-9590D01*
Y-9540D01*
X14815D01*
X14765Y-9490D01*
X2965Y-13320D02*
Y-13070D01*
X2915Y-13020D01*
X2815D01*
X2765Y-13070D01*
Y-13320D01*
X2465D02*
X2665D01*
Y-13170D01*
X2565Y-13220D01*
X2515D01*
X2465Y-13170D01*
Y-13070D01*
X2515Y-13020D01*
X2615D01*
X2665Y-13070D01*
X9834Y-15370D02*
Y-15120D01*
X9784Y-15070D01*
X9684D01*
X9635Y-15120D01*
Y-15370D01*
X9385Y-15070D02*
Y-15370D01*
X9535Y-15220D01*
X9335D01*
X10085Y-7350D02*
Y-7100D01*
X10035Y-7050D01*
X9935D01*
X9885Y-7100D01*
Y-7350D01*
X9785Y-7300D02*
X9735Y-7350D01*
X9635D01*
X9585Y-7300D01*
Y-7250D01*
X9635Y-7200D01*
X9685D01*
X9635D01*
X9585Y-7150D01*
Y-7100D01*
X9635Y-7050D01*
X9735D01*
X9785Y-7100D01*
X14562Y-15293D02*
Y-15043D01*
X14512Y-14993D01*
X14412D01*
X14362Y-15043D01*
Y-15293D01*
X14062Y-14993D02*
X14262D01*
X14062Y-15193D01*
Y-15243D01*
X14112Y-15293D01*
X14212D01*
X14262Y-15243D01*
X10292Y-10761D02*
Y-10511D01*
X10242Y-10461D01*
X10143D01*
X10093Y-10511D01*
Y-10761D01*
X9993Y-10461D02*
X9893D01*
X9943D01*
Y-10761D01*
X9993Y-10711D01*
X6910Y-4830D02*
Y-5130D01*
X6760D01*
X6710Y-5080D01*
Y-4980D01*
X6760Y-4930D01*
X6910D01*
X6810D02*
X6710Y-4830D01*
X6610D02*
X6510D01*
X6560D01*
Y-5130D01*
X6610Y-5080D01*
X6160Y-5130D02*
X6360D01*
Y-4980D01*
X6260Y-5030D01*
X6210D01*
X6160Y-4980D01*
Y-4880D01*
X6210Y-4830D01*
X6310D01*
X6360Y-4880D01*
X11435Y-6515D02*
X11735D01*
Y-6665D01*
X11685Y-6715D01*
X11585D01*
X11535Y-6665D01*
Y-6515D01*
Y-6615D02*
X11435Y-6715D01*
Y-6815D02*
Y-6915D01*
Y-6865D01*
X11735D01*
X11685Y-6815D01*
X11435Y-7215D02*
X11735D01*
X11585Y-7065D01*
Y-7265D01*
X11240Y-14210D02*
Y-14510D01*
X11090D01*
X11040Y-14460D01*
Y-14360D01*
X11090Y-14310D01*
X11240D01*
X11140D02*
X11040Y-14210D01*
X10940D02*
X10840D01*
X10890D01*
Y-14510D01*
X10940Y-14460D01*
X10690D02*
X10640Y-14510D01*
X10540D01*
X10490Y-14460D01*
Y-14410D01*
X10540Y-14360D01*
X10590D01*
X10540D01*
X10490Y-14310D01*
Y-14260D01*
X10540Y-14210D01*
X10640D01*
X10690Y-14260D01*
X12230Y-15120D02*
Y-15420D01*
X12080D01*
X12030Y-15370D01*
Y-15270D01*
X12080Y-15220D01*
X12230D01*
X12130D02*
X12030Y-15120D01*
X11930D02*
X11830D01*
X11880D01*
Y-15420D01*
X11930Y-15370D01*
X11480Y-15120D02*
X11680D01*
X11480Y-15320D01*
Y-15370D01*
X11530Y-15420D01*
X11630D01*
X11680Y-15370D01*
X15150Y-10960D02*
Y-11260D01*
X15000D01*
X14950Y-11210D01*
Y-11110D01*
X15000Y-11060D01*
X15150D01*
X15050D02*
X14950Y-10960D01*
X14850D02*
X14750D01*
X14800D01*
Y-11260D01*
X14850Y-11210D01*
X14600Y-10960D02*
X14500D01*
X14550D01*
Y-11260D01*
X14600Y-11210D01*
X4345Y-1015D02*
X4645D01*
Y-1165D01*
X4595Y-1215D01*
X4495D01*
X4445Y-1165D01*
Y-1015D01*
Y-1115D02*
X4345Y-1215D01*
Y-1315D02*
Y-1415D01*
Y-1365D01*
X4645D01*
X4595Y-1315D01*
Y-1565D02*
X4645Y-1615D01*
Y-1715D01*
X4595Y-1765D01*
X4395D01*
X4345Y-1715D01*
Y-1615D01*
X4395Y-1565D01*
X4595D01*
X4345Y-18040D02*
X4645D01*
Y-18190D01*
X4595Y-18240D01*
X4495D01*
X4445Y-18190D01*
Y-18040D01*
Y-18140D02*
X4345Y-18240D01*
X4395Y-18340D02*
X4345Y-18390D01*
Y-18490D01*
X4395Y-18540D01*
X4595D01*
X4645Y-18490D01*
Y-18390D01*
X4595Y-18340D01*
X4545D01*
X4495Y-18390D01*
Y-18540D01*
X15055Y-18020D02*
X15355D01*
Y-18170D01*
X15305Y-18220D01*
X15205D01*
X15155Y-18170D01*
Y-18020D01*
Y-18120D02*
X15055Y-18220D01*
X15305Y-18320D02*
X15355Y-18370D01*
Y-18470D01*
X15305Y-18520D01*
X15255D01*
X15205Y-18470D01*
X15155Y-18520D01*
X15105D01*
X15055Y-18470D01*
Y-18370D01*
X15105Y-18320D01*
X15155D01*
X15205Y-18370D01*
X15255Y-18320D01*
X15305D01*
X15205Y-18370D02*
Y-18470D01*
X15035Y-2270D02*
X15335D01*
Y-2420D01*
X15285Y-2470D01*
X15185D01*
X15135Y-2420D01*
Y-2270D01*
Y-2370D02*
X15035Y-2470D01*
X15335Y-2570D02*
Y-2770D01*
X15285D01*
X15085Y-2570D01*
X15035D01*
X15055Y-16900D02*
X15355D01*
Y-17050D01*
X15305Y-17100D01*
X15205D01*
X15155Y-17050D01*
Y-16900D01*
Y-17000D02*
X15055Y-17100D01*
Y-17350D02*
X15355D01*
X15205Y-17200D01*
Y-17400D01*
X4365Y-17010D02*
X4665D01*
Y-17160D01*
X4615Y-17210D01*
X4515D01*
X4465Y-17160D01*
Y-17010D01*
Y-17110D02*
X4365Y-17210D01*
X4615Y-17310D02*
X4665Y-17360D01*
Y-17460D01*
X4615Y-17510D01*
X4565D01*
X4515Y-17460D01*
Y-17410D01*
Y-17460D01*
X4465Y-17510D01*
X4415D01*
X4365Y-17460D01*
Y-17360D01*
X4415Y-17310D01*
X4345Y-2290D02*
X4645D01*
Y-2440D01*
X4595Y-2490D01*
X4495D01*
X4445Y-2440D01*
Y-2290D01*
Y-2390D02*
X4345Y-2490D01*
Y-2790D02*
Y-2590D01*
X4545Y-2790D01*
X4595D01*
X4645Y-2740D01*
Y-2640D01*
X4595Y-2590D01*
X15045Y-1180D02*
X15345D01*
Y-1330D01*
X15295Y-1380D01*
X15195D01*
X15145Y-1330D01*
Y-1180D01*
Y-1280D02*
X15045Y-1380D01*
Y-1480D02*
Y-1580D01*
Y-1530D01*
X15345D01*
X15295Y-1480D01*
X16795Y-18900D02*
Y-19100D01*
X16845Y-19150D01*
X16945D01*
X16995Y-19100D01*
Y-18900D01*
X16945Y-18850D01*
X16845D01*
X16895Y-18950D02*
X16795Y-18850D01*
X16845D02*
X16795Y-18900D01*
X16545Y-18850D02*
Y-19150D01*
X16695Y-19000D01*
X16495D01*
X3005Y-18900D02*
Y-19100D01*
X3055Y-19150D01*
X3155D01*
X3205Y-19100D01*
Y-18900D01*
X3155Y-18850D01*
X3055D01*
X3105Y-18950D02*
X3005Y-18850D01*
X3055D02*
X3005Y-18900D01*
X2905Y-19100D02*
X2855Y-19150D01*
X2755D01*
X2705Y-19100D01*
Y-19050D01*
X2755Y-19000D01*
X2805D01*
X2755D01*
X2705Y-18950D01*
Y-18900D01*
X2755Y-18850D01*
X2855D01*
X2905Y-18900D01*
X2995Y-600D02*
Y-800D01*
X3045Y-850D01*
X3145D01*
X3195Y-800D01*
Y-600D01*
X3145Y-550D01*
X3045D01*
X3095Y-650D02*
X2995Y-550D01*
X3045D02*
X2995Y-600D01*
X2695Y-550D02*
X2895D01*
X2695Y-750D01*
Y-800D01*
X2745Y-850D01*
X2845D01*
X2895Y-800D01*
X16725Y-600D02*
Y-800D01*
X16775Y-850D01*
X16875D01*
X16925Y-800D01*
Y-600D01*
X16875Y-550D01*
X16775D01*
X16825Y-650D02*
X16725Y-550D01*
X16775D02*
X16725Y-600D01*
X16625Y-550D02*
X16525D01*
X16575D01*
Y-850D01*
X16625Y-800D01*
X18355Y-18820D02*
Y-19120D01*
X18255Y-19020D01*
X18155Y-19120D01*
Y-18820D01*
X17905D02*
Y-19120D01*
X18055Y-18970D01*
X17855D01*
X1835Y-18860D02*
Y-19160D01*
X1735Y-19060D01*
X1635Y-19160D01*
Y-18860D01*
X1535Y-19110D02*
X1485Y-19160D01*
X1385D01*
X1335Y-19110D01*
Y-19060D01*
X1385Y-19010D01*
X1435D01*
X1385D01*
X1335Y-18960D01*
Y-18910D01*
X1385Y-18860D01*
X1485D01*
X1535Y-18910D01*
X18355Y-540D02*
Y-840D01*
X18255Y-740D01*
X18155Y-840D01*
Y-540D01*
X17855D02*
X18055D01*
X17855Y-740D01*
Y-790D01*
X17905Y-840D01*
X18005D01*
X18055Y-790D01*
X1765Y-560D02*
Y-860D01*
X1665Y-760D01*
X1565Y-860D01*
Y-560D01*
X1465D02*
X1365D01*
X1415D01*
Y-860D01*
X1465Y-810D01*
X11085Y-4410D02*
Y-4110D01*
X10885D01*
X10635D02*
Y-4410D01*
X10785Y-4260D01*
X10585D01*
X9065Y-4470D02*
Y-4170D01*
X8865D01*
X8765Y-4420D02*
X8715Y-4470D01*
X8615D01*
X8565Y-4420D01*
Y-4370D01*
X8615Y-4320D01*
X8665D01*
X8615D01*
X8565Y-4270D01*
Y-4220D01*
X8615Y-4170D01*
X8715D01*
X8765Y-4220D01*
X10305Y-5000D02*
Y-4700D01*
X10105D01*
X9805D02*
X10005D01*
X9805Y-4900D01*
Y-4950D01*
X9855Y-5000D01*
X9955D01*
X10005Y-4950D01*
X8324Y-18240D02*
Y-17940D01*
X8124D01*
X8024D02*
X7924D01*
X7974D01*
Y-18240D01*
X8024Y-18190D01*
X7927Y-19022D02*
Y-18722D01*
Y-18822D01*
X7728Y-19022D01*
X7877Y-18872D01*
X7728Y-18722D01*
X7428Y-18972D02*
X7478Y-19022D01*
X7578D01*
X7628Y-18972D01*
Y-18772D01*
X7578Y-18722D01*
X7478D01*
X7428Y-18772D01*
Y-18872D01*
X7528D01*
X7328Y-18722D02*
X7228D01*
X7278D01*
Y-19022D01*
X7328Y-18972D01*
X1625Y-16270D02*
X1725D01*
X1675D01*
Y-16020D01*
X1725Y-15970D01*
X1775D01*
X1825Y-16020D01*
X1325Y-15970D02*
X1525D01*
X1325Y-16170D01*
Y-16220D01*
X1375Y-16270D01*
X1475D01*
X1525Y-16220D01*
X18115Y-16260D02*
X18215D01*
X18165D01*
Y-16010D01*
X18215Y-15960D01*
X18265D01*
X18315Y-16010D01*
X18015Y-15960D02*
X17915D01*
X17965D01*
Y-16260D01*
X18015Y-16210D01*
X11765Y-16720D02*
X11965D01*
Y-16570D01*
X11865D01*
X11965D01*
Y-16420D01*
X11665D02*
X11565D01*
X11615D01*
Y-16720D01*
X11665Y-16670D01*
X6535Y-15740D02*
Y-15440D01*
X6385D01*
X6335Y-15490D01*
Y-15690D01*
X6385Y-15740D01*
X6535D01*
X6035D02*
X6235D01*
Y-15590D01*
X6135Y-15640D01*
X6085D01*
X6035Y-15590D01*
Y-15490D01*
X6085Y-15440D01*
X6185D01*
X6235Y-15490D01*
X16875Y-16580D02*
Y-16280D01*
X16725D01*
X16675Y-16330D01*
Y-16530D01*
X16725Y-16580D01*
X16875D01*
X16425Y-16280D02*
Y-16580D01*
X16575Y-16430D01*
X16375D01*
X3185Y-16440D02*
Y-16140D01*
X3035D01*
X2985Y-16190D01*
Y-16390D01*
X3035Y-16440D01*
X3185D01*
X2885Y-16390D02*
X2835Y-16440D01*
X2735D01*
X2685Y-16390D01*
Y-16340D01*
X2735Y-16290D01*
X2785D01*
X2735D01*
X2685Y-16240D01*
Y-16190D01*
X2735Y-16140D01*
X2835D01*
X2885Y-16190D01*
X16885Y-3360D02*
Y-3060D01*
X16735D01*
X16685Y-3110D01*
Y-3310D01*
X16735Y-3360D01*
X16885D01*
X16385Y-3060D02*
X16585D01*
X16385Y-3260D01*
Y-3310D01*
X16435Y-3360D01*
X16535D01*
X16585Y-3310D01*
X3205Y-3400D02*
Y-3100D01*
X3055D01*
X3005Y-3150D01*
Y-3350D01*
X3055Y-3400D01*
X3205D01*
X2905Y-3100D02*
X2805D01*
X2855D01*
Y-3400D01*
X2905Y-3350D01*
X6688Y-5748D02*
X6738Y-5798D01*
X6838D01*
X6888Y-5748D01*
Y-5548D01*
X6838Y-5498D01*
X6738D01*
X6688Y-5548D01*
X6388Y-5498D02*
X6588D01*
X6388Y-5698D01*
Y-5748D01*
X6438Y-5798D01*
X6538D01*
X6588Y-5748D01*
X6288Y-5548D02*
X6238Y-5498D01*
X6138D01*
X6088Y-5548D01*
Y-5748D01*
X6138Y-5798D01*
X6238D01*
X6288Y-5748D01*
Y-5698D01*
X6238Y-5648D01*
X6088D01*
X6718Y-6359D02*
X6768Y-6409D01*
X6868D01*
X6918Y-6359D01*
Y-6159D01*
X6868Y-6109D01*
X6768D01*
X6718Y-6159D01*
X6418Y-6109D02*
X6618D01*
X6418Y-6309D01*
Y-6359D01*
X6468Y-6409D01*
X6568D01*
X6618Y-6359D01*
X6318D02*
X6268Y-6409D01*
X6168D01*
X6118Y-6359D01*
Y-6309D01*
X6168Y-6259D01*
X6118Y-6209D01*
Y-6159D01*
X6168Y-6109D01*
X6268D01*
X6318Y-6159D01*
Y-6209D01*
X6268Y-6259D01*
X6318Y-6309D01*
Y-6359D01*
X6268Y-6259D02*
X6168D01*
X6708Y-6910D02*
X6758Y-6960D01*
X6858D01*
X6908Y-6910D01*
Y-6710D01*
X6858Y-6660D01*
X6758D01*
X6708Y-6710D01*
X6408Y-6660D02*
X6608D01*
X6408Y-6860D01*
Y-6910D01*
X6458Y-6960D01*
X6558D01*
X6608Y-6910D01*
X6308Y-6960D02*
X6108D01*
Y-6910D01*
X6308Y-6710D01*
Y-6660D01*
X13880Y-3640D02*
X13930Y-3690D01*
X14030D01*
X14080Y-3640D01*
Y-3440D01*
X14030Y-3390D01*
X13930D01*
X13880Y-3440D01*
X13580Y-3390D02*
X13780D01*
X13580Y-3590D01*
Y-3640D01*
X13630Y-3690D01*
X13730D01*
X13780Y-3640D01*
X13281Y-3690D02*
X13380Y-3640D01*
X13480Y-3540D01*
Y-3440D01*
X13430Y-3390D01*
X13331D01*
X13281Y-3440D01*
Y-3490D01*
X13331Y-3540D01*
X13480D01*
X13897Y-4248D02*
X13947Y-4298D01*
X14047D01*
X14097Y-4248D01*
Y-4048D01*
X14047Y-3998D01*
X13947D01*
X13897Y-4048D01*
X13597Y-3998D02*
X13797D01*
X13597Y-4198D01*
Y-4248D01*
X13647Y-4298D01*
X13747D01*
X13797Y-4248D01*
X13297Y-4298D02*
X13497D01*
Y-4148D01*
X13397Y-4198D01*
X13347D01*
X13297Y-4148D01*
Y-4048D01*
X13347Y-3998D01*
X13447D01*
X13497Y-4048D01*
X6465Y-10837D02*
X6515Y-10887D01*
X6615D01*
X6665Y-10837D01*
Y-10637D01*
X6615Y-10587D01*
X6515D01*
X6465Y-10637D01*
X6165Y-10587D02*
X6365D01*
X6165Y-10787D01*
Y-10837D01*
X6215Y-10887D01*
X6315D01*
X6365Y-10837D01*
X5915Y-10587D02*
Y-10887D01*
X6065Y-10737D01*
X5865D01*
X13895Y-4920D02*
X13945Y-4970D01*
X14045D01*
X14095Y-4920D01*
Y-4720D01*
X14045Y-4670D01*
X13945D01*
X13895Y-4720D01*
X13595Y-4670D02*
X13795D01*
X13595Y-4870D01*
Y-4920D01*
X13645Y-4970D01*
X13745D01*
X13795Y-4920D01*
X13495D02*
X13445Y-4970D01*
X13345D01*
X13295Y-4920D01*
Y-4870D01*
X13345Y-4820D01*
X13395D01*
X13345D01*
X13295Y-4770D01*
Y-4720D01*
X13345Y-4670D01*
X13445D01*
X13495Y-4720D01*
X12780Y-7557D02*
X12830Y-7607D01*
X12930D01*
X12980Y-7557D01*
Y-7357D01*
X12930Y-7307D01*
X12830D01*
X12780Y-7357D01*
X12480Y-7307D02*
X12680D01*
X12480Y-7507D01*
Y-7557D01*
X12530Y-7607D01*
X12630D01*
X12680Y-7557D01*
X12380Y-7307D02*
X12281D01*
X12330D01*
Y-7607D01*
X12380Y-7557D01*
X6875Y-3750D02*
X6925Y-3700D01*
Y-3600D01*
X6875Y-3550D01*
X6675D01*
X6625Y-3600D01*
Y-3700D01*
X6675Y-3750D01*
X6625Y-4050D02*
Y-3850D01*
X6825Y-4050D01*
X6875D01*
X6925Y-4000D01*
Y-3900D01*
X6875Y-3850D01*
Y-4150D02*
X6925Y-4200D01*
Y-4300D01*
X6875Y-4350D01*
X6675D01*
X6625Y-4300D01*
Y-4200D01*
X6675Y-4150D01*
X6875D01*
X4440Y-10820D02*
X4490Y-10870D01*
X4590D01*
X4640Y-10820D01*
Y-10620D01*
X4590Y-10570D01*
X4490D01*
X4440Y-10620D01*
X4340Y-10570D02*
X4240D01*
X4290D01*
Y-10870D01*
X4340Y-10820D01*
X4090Y-10620D02*
X4040Y-10570D01*
X3940D01*
X3890Y-10620D01*
Y-10820D01*
X3940Y-10870D01*
X4040D01*
X4090Y-10820D01*
Y-10770D01*
X4040Y-10720D01*
X3890D01*
X7855Y-11805D02*
X7905Y-11755D01*
Y-11655D01*
X7855Y-11605D01*
X7655D01*
X7605Y-11655D01*
Y-11755D01*
X7655Y-11805D01*
X7605Y-11905D02*
Y-12005D01*
Y-11955D01*
X7905D01*
X7855Y-11905D01*
Y-12155D02*
X7905Y-12205D01*
Y-12305D01*
X7855Y-12355D01*
X7805D01*
X7755Y-12305D01*
X7705Y-12355D01*
X7655D01*
X7605Y-12305D01*
Y-12205D01*
X7655Y-12155D01*
X7705D01*
X7755Y-12205D01*
X7805Y-12155D01*
X7855D01*
X7755Y-12205D02*
Y-12305D01*
X5330Y-10820D02*
X5380Y-10870D01*
X5480D01*
X5530Y-10820D01*
Y-10620D01*
X5480Y-10570D01*
X5380D01*
X5330Y-10620D01*
X5230Y-10570D02*
X5130D01*
X5180D01*
Y-10870D01*
X5230Y-10820D01*
X4980Y-10870D02*
X4780D01*
Y-10820D01*
X4980Y-10620D01*
Y-10570D01*
X8355Y-3785D02*
X8405Y-3735D01*
Y-3635D01*
X8355Y-3585D01*
X8155D01*
X8105Y-3635D01*
Y-3735D01*
X8155Y-3785D01*
X8105Y-3885D02*
Y-3985D01*
Y-3935D01*
X8405D01*
X8355Y-3885D01*
X8405Y-4335D02*
X8355Y-4235D01*
X8255Y-4135D01*
X8155D01*
X8105Y-4185D01*
Y-4285D01*
X8155Y-4335D01*
X8205D01*
X8255Y-4285D01*
Y-4135D01*
X5340Y-15790D02*
X5390Y-15840D01*
X5490D01*
X5540Y-15790D01*
Y-15590D01*
X5490Y-15540D01*
X5390D01*
X5340Y-15590D01*
X5240Y-15540D02*
X5140D01*
X5190D01*
Y-15840D01*
X5240Y-15790D01*
X4790Y-15840D02*
X4990D01*
Y-15690D01*
X4890Y-15740D01*
X4840D01*
X4790Y-15690D01*
Y-15590D01*
X4840Y-15540D01*
X4940D01*
X4990Y-15590D01*
X14980Y-10550D02*
X15030Y-10600D01*
X15130D01*
X15180Y-10550D01*
Y-10350D01*
X15130Y-10300D01*
X15030D01*
X14980Y-10350D01*
X14880Y-10300D02*
X14780D01*
X14830D01*
Y-10600D01*
X14880Y-10550D01*
X14480Y-10300D02*
Y-10600D01*
X14630Y-10450D01*
X14430D01*
X15100Y-11840D02*
X15150Y-11890D01*
X15250D01*
X15300Y-11840D01*
Y-11640D01*
X15250Y-11590D01*
X15150D01*
X15100Y-11640D01*
X15000Y-11590D02*
X14900D01*
X14950D01*
Y-11890D01*
X15000Y-11840D01*
X14750D02*
X14700Y-11890D01*
X14600D01*
X14550Y-11840D01*
Y-11790D01*
X14600Y-11740D01*
X14650D01*
X14600D01*
X14550Y-11690D01*
Y-11640D01*
X14600Y-11590D01*
X14700D01*
X14750Y-11640D01*
X15000Y-8460D02*
X15050Y-8510D01*
X15150D01*
X15200Y-8460D01*
Y-8260D01*
X15150Y-8210D01*
X15050D01*
X15000Y-8260D01*
X14900Y-8210D02*
X14800D01*
X14850D01*
Y-8510D01*
X14900Y-8460D01*
X14450Y-8210D02*
X14650D01*
X14450Y-8410D01*
Y-8460D01*
X14500Y-8510D01*
X14600D01*
X14650Y-8460D01*
X19195Y-865D02*
X19245Y-815D01*
Y-715D01*
X19195Y-665D01*
X18995D01*
X18945Y-715D01*
Y-815D01*
X18995Y-865D01*
X18945Y-965D02*
Y-1065D01*
Y-1015D01*
X19245D01*
X19195Y-965D01*
X18945Y-1215D02*
Y-1315D01*
Y-1265D01*
X19245D01*
X19195Y-1215D01*
X19205Y-18615D02*
X19255Y-18565D01*
Y-18465D01*
X19205Y-18415D01*
X19005D01*
X18955Y-18465D01*
Y-18565D01*
X19005Y-18615D01*
X18955Y-18715D02*
Y-18815D01*
Y-18765D01*
X19255D01*
X19205Y-18715D01*
Y-18965D02*
X19255Y-19015D01*
Y-19115D01*
X19205Y-19165D01*
X19005D01*
X18955Y-19115D01*
Y-19015D01*
X19005Y-18965D01*
X19205D01*
X695Y-18600D02*
X745Y-18550D01*
Y-18450D01*
X695Y-18400D01*
X495D01*
X445Y-18450D01*
Y-18550D01*
X495Y-18600D01*
Y-18700D02*
X445Y-18750D01*
Y-18850D01*
X495Y-18900D01*
X695D01*
X745Y-18850D01*
Y-18750D01*
X695Y-18700D01*
X645D01*
X595Y-18750D01*
Y-18900D01*
X681Y-899D02*
X730Y-849D01*
Y-749D01*
X681Y-699D01*
X481D01*
X431Y-749D01*
Y-849D01*
X481Y-899D01*
X681Y-998D02*
X730Y-1048D01*
Y-1148D01*
X681Y-1198D01*
X631D01*
X581Y-1148D01*
X531Y-1198D01*
X481D01*
X431Y-1148D01*
Y-1048D01*
X481Y-998D01*
X531D01*
X581Y-1048D01*
X631Y-998D01*
X681D01*
X581Y-1048D02*
Y-1148D01*
X16195Y-14550D02*
X16245Y-14500D01*
Y-14400D01*
X16195Y-14350D01*
X15995D01*
X15945Y-14400D01*
Y-14500D01*
X15995Y-14550D01*
X16245Y-14650D02*
Y-14850D01*
X16195D01*
X15995Y-14650D01*
X15945D01*
X16015Y-13410D02*
X16065Y-13360D01*
Y-13260D01*
X16015Y-13210D01*
X15815D01*
X15765Y-13260D01*
Y-13360D01*
X15815Y-13410D01*
X16065Y-13710D02*
Y-13510D01*
X15915D01*
X15965Y-13610D01*
Y-13660D01*
X15915Y-13710D01*
X15815D01*
X15765Y-13660D01*
Y-13560D01*
X15815Y-13510D01*
X4305Y-15800D02*
X4355Y-15850D01*
X4455D01*
X4505Y-15800D01*
Y-15600D01*
X4455Y-15550D01*
X4355D01*
X4305Y-15600D01*
X4055Y-15550D02*
Y-15850D01*
X4205Y-15700D01*
X4005D01*
X14825Y-12470D02*
X14875Y-12520D01*
X14975D01*
X15025Y-12470D01*
Y-12270D01*
X14975Y-12220D01*
X14875D01*
X14825Y-12270D01*
X14725Y-12470D02*
X14675Y-12520D01*
X14575D01*
X14525Y-12470D01*
Y-12420D01*
X14575Y-12370D01*
X14625D01*
X14575D01*
X14525Y-12320D01*
Y-12270D01*
X14575Y-12220D01*
X14675D01*
X14725Y-12270D01*
X13045Y-9200D02*
X13095Y-9150D01*
Y-9050D01*
X13045Y-9000D01*
X12845D01*
X12795Y-9050D01*
Y-9150D01*
X12845Y-9200D01*
X12795Y-9500D02*
Y-9300D01*
X12995Y-9500D01*
X13045D01*
X13095Y-9450D01*
Y-9350D01*
X13045Y-9300D01*
X10855Y-13290D02*
X10905Y-13340D01*
X11005D01*
X11055Y-13290D01*
Y-13090D01*
X11005Y-13040D01*
X10905D01*
X10855Y-13090D01*
X10755Y-13040D02*
X10655D01*
X10705D01*
Y-13340D01*
X10755Y-13290D01*
X8985Y-980D02*
X9185D01*
X9285Y-1080D01*
X9185Y-1180D01*
X8985D01*
X9135D01*
Y-980D01*
X9285Y-1280D02*
Y-1480D01*
Y-1380D01*
X8985D01*
Y-1580D02*
X9285D01*
X8985Y-1780D01*
X9285D01*
X8985Y-1880D02*
Y-1980D01*
Y-1930D01*
X9285D01*
X9235Y-1880D01*
D12*
X5126Y14761D02*
X5321D01*
X5126Y14565D02*
Y14761D01*
X6566D02*
X6761D01*
Y14565D02*
Y14761D01*
X5126Y13126D02*
X5321D01*
X5126D02*
Y13321D01*
X6566Y13126D02*
X6761D01*
Y13321D01*
X11440Y5210D02*
X11850D01*
X11450Y4750D02*
X11850D01*
X11440D02*
Y5210D01*
X12050Y4750D02*
X12460D01*
X12050Y5210D02*
X12450D01*
X12460Y4750D02*
Y5210D01*
X7860Y6380D02*
X8320D01*
X7860Y5970D02*
Y6370D01*
X8320Y5970D02*
Y6380D01*
X7860Y5360D02*
X8320D01*
Y5370D02*
Y5770D01*
X7860Y5360D02*
Y5770D01*
X7333Y14210D02*
X7743D01*
X7343Y13750D02*
X7743D01*
X7333D02*
Y14210D01*
X7943Y13750D02*
X8353D01*
X7943Y14210D02*
X8343D01*
X8353Y13750D02*
Y14210D01*
X7333Y15007D02*
X7743D01*
X7343Y14547D02*
X7743D01*
X7333D02*
Y15007D01*
X7943Y14547D02*
X8353D01*
X7943Y15007D02*
X8343D01*
X8353Y14547D02*
Y15007D01*
X6040Y10880D02*
X6450D01*
X6040Y11340D02*
X6440D01*
X6450Y10880D02*
Y11340D01*
X5430D02*
X5840D01*
X5440Y10880D02*
X5840D01*
X5430D02*
Y11340D01*
X15899Y1495D02*
Y1905D01*
X15439Y1495D02*
Y1895D01*
Y1905D02*
X15899D01*
X15439Y885D02*
Y1295D01*
X15899Y895D02*
Y1295D01*
X15439Y885D02*
X15899D01*
X15439Y17780D02*
Y18190D01*
X15899Y17790D02*
Y18190D01*
X15439Y17780D02*
X15899D01*
Y18390D02*
Y18800D01*
X15439Y18390D02*
Y18790D01*
Y18800D02*
X15899D01*
X3786Y17780D02*
Y18190D01*
X4246Y17790D02*
Y18190D01*
X3786Y17780D02*
X4246D01*
Y18390D02*
Y18800D01*
X3786Y18390D02*
Y18790D01*
Y18800D02*
X4246D01*
Y2640D02*
Y3050D01*
X3786Y2640D02*
Y3040D01*
Y3050D02*
X4246D01*
X3786Y2030D02*
Y2440D01*
X4246Y2040D02*
Y2440D01*
X3786Y2030D02*
X4246D01*
X3786Y16635D02*
Y17045D01*
X4246Y16645D02*
Y17045D01*
X3786Y16635D02*
X4246D01*
Y17245D02*
Y17655D01*
X3786Y17245D02*
Y17645D01*
Y17655D02*
X4246D01*
X15439Y16635D02*
Y17045D01*
X15899Y16645D02*
Y17045D01*
X15439Y16635D02*
X15899D01*
Y17245D02*
Y17655D01*
X15439Y17245D02*
Y17645D01*
Y17655D02*
X15899D01*
X15439Y2030D02*
X15899D01*
Y2040D02*
Y2440D01*
X15439Y2030D02*
Y2440D01*
Y3050D02*
X15899D01*
X15439Y2640D02*
Y3040D01*
X15899Y2640D02*
Y3050D01*
X3786Y885D02*
X4246D01*
Y895D02*
Y1295D01*
X3786Y885D02*
Y1295D01*
Y1905D02*
X4246D01*
X3786Y1495D02*
Y1895D01*
X4246Y1495D02*
Y1905D01*
X24811Y14761D02*
X25006D01*
X24811Y14565D02*
Y14761D01*
X26251D02*
X26446D01*
Y14565D02*
Y14761D01*
X24811Y13126D02*
X25006D01*
X24811D02*
Y13321D01*
X26251Y13126D02*
X26446D01*
Y13321D01*
X31125Y5210D02*
X31535D01*
X31135Y4750D02*
X31535D01*
X31125D02*
Y5210D01*
X31735Y4750D02*
X32145D01*
X31735Y5210D02*
X32135D01*
X32145Y4750D02*
Y5210D01*
X27545Y6380D02*
X28005D01*
X27545Y5970D02*
Y6370D01*
X28005Y5970D02*
Y6380D01*
X27545Y5360D02*
X28005D01*
Y5370D02*
Y5770D01*
X27545Y5360D02*
Y5770D01*
X27018Y14210D02*
X27428D01*
X27028Y13750D02*
X27428D01*
X27018D02*
Y14210D01*
X27628Y13750D02*
X28038D01*
X27628Y14210D02*
X28028D01*
X28038Y13750D02*
Y14210D01*
X27018Y15007D02*
X27428D01*
X27028Y14547D02*
X27428D01*
X27018D02*
Y15007D01*
X27628Y14547D02*
X28038D01*
X27628Y15007D02*
X28028D01*
X28038Y14547D02*
Y15007D01*
X25725Y10880D02*
X26135D01*
X25725Y11340D02*
X26125D01*
X26135Y10880D02*
Y11340D01*
X25115D02*
X25525D01*
X25125Y10880D02*
X25525D01*
X25115D02*
Y11340D01*
X35584Y1495D02*
Y1905D01*
X35124Y1495D02*
Y1895D01*
Y1905D02*
X35584D01*
X35124Y885D02*
Y1295D01*
X35584Y895D02*
Y1295D01*
X35124Y885D02*
X35584D01*
X35124Y17780D02*
Y18190D01*
X35584Y17790D02*
Y18190D01*
X35124Y17780D02*
X35584D01*
Y18390D02*
Y18800D01*
X35124Y18390D02*
Y18790D01*
Y18800D02*
X35584D01*
X23471Y17780D02*
Y18190D01*
X23931Y17790D02*
Y18190D01*
X23471Y17780D02*
X23931D01*
Y18390D02*
Y18800D01*
X23471Y18390D02*
Y18790D01*
Y18800D02*
X23931D01*
Y2640D02*
Y3050D01*
X23471Y2640D02*
Y3040D01*
Y3050D02*
X23931D01*
X23471Y2030D02*
Y2440D01*
X23931Y2040D02*
Y2440D01*
X23471Y2030D02*
X23931D01*
X23471Y16635D02*
Y17045D01*
X23931Y16645D02*
Y17045D01*
X23471Y16635D02*
X23931D01*
Y17245D02*
Y17655D01*
X23471Y17245D02*
Y17645D01*
Y17655D02*
X23931D01*
X35124Y16635D02*
Y17045D01*
X35584Y16645D02*
Y17045D01*
X35124Y16635D02*
X35584D01*
Y17245D02*
Y17655D01*
X35124Y17245D02*
Y17645D01*
Y17655D02*
X35584D01*
X35124Y2030D02*
X35584D01*
Y2040D02*
Y2440D01*
X35124Y2030D02*
Y2440D01*
Y3050D02*
X35584D01*
X35124Y2640D02*
Y3040D01*
X35584Y2640D02*
Y3050D01*
X23471Y885D02*
X23931D01*
Y895D02*
Y1295D01*
X23471Y885D02*
Y1295D01*
Y1905D02*
X23931D01*
X23471Y1495D02*
Y1895D01*
X23931Y1495D02*
Y1905D01*
X34244Y-14761D02*
X34049D01*
X34244Y-14565D02*
Y-14761D01*
X32805D02*
X32609D01*
Y-14565D02*
Y-14761D01*
X34244Y-13126D02*
X34049D01*
X34244D02*
Y-13321D01*
X32805Y-13126D02*
X32609D01*
Y-13321D01*
X27930Y-5210D02*
X27520D01*
X27920Y-4750D02*
X27520D01*
X27930D02*
Y-5210D01*
X27320Y-4750D02*
X26910D01*
X27320Y-5210D02*
X26920D01*
X26910Y-4750D02*
Y-5210D01*
X31510Y-6380D02*
X31050D01*
X31510Y-5970D02*
Y-6370D01*
X31050Y-5970D02*
Y-6380D01*
X31510Y-5360D02*
X31050D01*
Y-5370D02*
Y-5770D01*
X31510Y-5360D02*
Y-5770D01*
X32037Y-14210D02*
X31627D01*
X32027Y-13750D02*
X31627D01*
X32037D02*
Y-14210D01*
X31427Y-13750D02*
X31017D01*
X31427Y-14210D02*
X31027D01*
X31017Y-13750D02*
Y-14210D01*
X32037Y-15007D02*
X31627D01*
X32027Y-14547D02*
X31627D01*
X32037D02*
Y-15007D01*
X31427Y-14547D02*
X31017D01*
X31427Y-15007D02*
X31027D01*
X31017Y-14547D02*
Y-15007D01*
X33330Y-10880D02*
X32920D01*
X33330Y-11340D02*
X32930D01*
X32920Y-10880D02*
Y-11340D01*
X33940D02*
X33530D01*
X33930Y-10880D02*
X33530D01*
X33940D02*
Y-11340D01*
X23471Y-1495D02*
Y-1905D01*
X23931Y-1495D02*
Y-1895D01*
Y-1905D02*
X23471D01*
X23931Y-885D02*
Y-1295D01*
X23471Y-895D02*
Y-1295D01*
X23931Y-885D02*
X23471D01*
X23931Y-17780D02*
Y-18190D01*
X23471Y-17790D02*
Y-18190D01*
X23931Y-17780D02*
X23471D01*
Y-18390D02*
Y-18800D01*
X23931Y-18390D02*
Y-18790D01*
Y-18800D02*
X23471D01*
X35584Y-17780D02*
Y-18190D01*
X35124Y-17790D02*
Y-18190D01*
X35584Y-17780D02*
X35124D01*
Y-18390D02*
Y-18800D01*
X35584Y-18390D02*
Y-18790D01*
Y-18800D02*
X35124D01*
Y-2640D02*
Y-3050D01*
X35584Y-2640D02*
Y-3040D01*
Y-3050D02*
X35124D01*
X35584Y-2030D02*
Y-2440D01*
X35124Y-2040D02*
Y-2440D01*
X35584Y-2030D02*
X35124D01*
X35584Y-16635D02*
Y-17045D01*
X35124Y-16645D02*
Y-17045D01*
X35584Y-16635D02*
X35124D01*
Y-17245D02*
Y-17655D01*
X35584Y-17245D02*
Y-17645D01*
Y-17655D02*
X35124D01*
X23931Y-16635D02*
Y-17045D01*
X23471Y-16645D02*
Y-17045D01*
X23931Y-16635D02*
X23471D01*
Y-17245D02*
Y-17655D01*
X23931Y-17245D02*
Y-17645D01*
Y-17655D02*
X23471D01*
X23931Y-2030D02*
X23471D01*
Y-2040D02*
Y-2440D01*
X23931Y-2030D02*
Y-2440D01*
Y-3050D02*
X23471D01*
X23931Y-2640D02*
Y-3040D01*
X23471Y-2640D02*
Y-3050D01*
X35584Y-885D02*
X35124D01*
Y-895D02*
Y-1295D01*
X35584Y-885D02*
Y-1295D01*
Y-1905D02*
X35124D01*
X35584Y-1495D02*
Y-1895D01*
X35124Y-1495D02*
Y-1905D01*
X14559Y-14761D02*
X14364D01*
X14559Y-14565D02*
Y-14761D01*
X13119D02*
X12924D01*
Y-14565D02*
Y-14761D01*
X14559Y-13126D02*
X14364D01*
X14559D02*
Y-13321D01*
X13119Y-13126D02*
X12924D01*
Y-13321D01*
X8245Y-5210D02*
X7835D01*
X8235Y-4750D02*
X7835D01*
X8245D02*
Y-5210D01*
X7635Y-4750D02*
X7225D01*
X7635Y-5210D02*
X7235D01*
X7225Y-4750D02*
Y-5210D01*
X11825Y-6380D02*
X11365D01*
X11825Y-5970D02*
Y-6370D01*
X11365Y-5970D02*
Y-6380D01*
X11825Y-5360D02*
X11365D01*
Y-5370D02*
Y-5770D01*
X11825Y-5360D02*
Y-5770D01*
X12352Y-14210D02*
X11942D01*
X12342Y-13750D02*
X11942D01*
X12352D02*
Y-14210D01*
X11742Y-13750D02*
X11332D01*
X11742Y-14210D02*
X11342D01*
X11332Y-13750D02*
Y-14210D01*
X12352Y-15007D02*
X11942D01*
X12342Y-14547D02*
X11942D01*
X12352D02*
Y-15007D01*
X11742Y-14547D02*
X11332D01*
X11742Y-15007D02*
X11342D01*
X11332Y-14547D02*
Y-15007D01*
X13645Y-10880D02*
X13235D01*
X13645Y-11340D02*
X13245D01*
X13235Y-10880D02*
Y-11340D01*
X14255D02*
X13845D01*
X14245Y-10880D02*
X13845D01*
X14255D02*
Y-11340D01*
X3786Y-1495D02*
Y-1905D01*
X4246Y-1495D02*
Y-1895D01*
Y-1905D02*
X3786D01*
X4246Y-885D02*
Y-1295D01*
X3786Y-895D02*
Y-1295D01*
X4246Y-885D02*
X3786D01*
X4246Y-17780D02*
Y-18190D01*
X3786Y-17790D02*
Y-18190D01*
X4246Y-17780D02*
X3786D01*
Y-18390D02*
Y-18800D01*
X4246Y-18390D02*
Y-18790D01*
Y-18800D02*
X3786D01*
X15899Y-17780D02*
Y-18190D01*
X15439Y-17790D02*
Y-18190D01*
X15899Y-17780D02*
X15439D01*
Y-18390D02*
Y-18800D01*
X15899Y-18390D02*
Y-18790D01*
Y-18800D02*
X15439D01*
Y-2640D02*
Y-3050D01*
X15899Y-2640D02*
Y-3040D01*
Y-3050D02*
X15439D01*
X15899Y-2030D02*
Y-2440D01*
X15439Y-2040D02*
Y-2440D01*
X15899Y-2030D02*
X15439D01*
X15899Y-16635D02*
Y-17045D01*
X15439Y-16645D02*
Y-17045D01*
X15899Y-16635D02*
X15439D01*
Y-17245D02*
Y-17655D01*
X15899Y-17245D02*
Y-17645D01*
Y-17655D02*
X15439D01*
X4246Y-16635D02*
Y-17045D01*
X3786Y-16645D02*
Y-17045D01*
X4246Y-16635D02*
X3786D01*
Y-17245D02*
Y-17655D01*
X4246Y-17245D02*
Y-17645D01*
Y-17655D02*
X3786D01*
X4246Y-2030D02*
X3786D01*
Y-2040D02*
Y-2440D01*
X4246Y-2030D02*
Y-2440D01*
Y-3050D02*
X3786D01*
X4246Y-2640D02*
Y-3040D01*
X3786Y-2640D02*
Y-3050D01*
X15899Y-885D02*
X15439D01*
Y-895D02*
Y-1295D01*
X15899Y-885D02*
Y-1295D01*
Y-1905D02*
X15439D01*
X15899Y-1495D02*
Y-1895D01*
X15439Y-1495D02*
Y-1905D01*
D42*
X11461Y16920D02*
G03*
X11461Y17320I0J200D01*
G01*
Y16120D02*
G03*
X11461Y16520I0J200D01*
G01*
D02*
G03*
X11461Y16920I0J200D01*
G01*
X6040Y8900D02*
G03*
X6040Y8900I-50J0D01*
G01*
X2503Y18706D02*
X2953D01*
X2503Y17556D02*
Y17756D01*
X3403Y18106D02*
Y18156D01*
X2503Y18506D02*
Y18706D01*
Y17556D02*
X2953D01*
X16732D02*
X17182D01*
Y18506D02*
Y18706D01*
X16282Y18106D02*
Y18156D01*
X17182Y17556D02*
Y17756D01*
X16732Y18706D02*
X17182D01*
X16732Y979D02*
X17182D01*
Y1929D02*
Y2129D01*
X16282Y1529D02*
Y1579D01*
X17182Y979D02*
Y1179D01*
X16732Y2129D02*
X17182D01*
X2503D02*
X2953D01*
X2503Y979D02*
Y1179D01*
X3403Y1529D02*
Y1579D01*
X2503Y1929D02*
Y2129D01*
Y979D02*
X2953D01*
X12061Y17720D02*
X12711D01*
Y15720D02*
Y17720D01*
X12061Y15720D02*
X12711D01*
X10411D02*
X11061D01*
X10411D02*
Y17720D01*
X11061D01*
X11461Y17320D02*
Y17520D01*
Y15920D02*
Y16120D01*
X11361Y15720D02*
X11761D01*
X11361Y17720D02*
X11761D01*
X7160Y17600D02*
X7460D01*
X7160Y16900D02*
Y17600D01*
Y16900D02*
X7460D01*
X7910D02*
X8510D01*
X7460Y17600D02*
X7910D01*
X8360D02*
X8660D01*
Y16900D02*
Y17600D01*
X8410Y16900D02*
X8660D01*
X31146Y16920D02*
G03*
X31146Y17320I0J200D01*
G01*
Y16120D02*
G03*
X31146Y16520I0J200D01*
G01*
D02*
G03*
X31146Y16920I0J200D01*
G01*
X25725Y8900D02*
G03*
X25725Y8900I-50J0D01*
G01*
X22188Y18706D02*
X22638D01*
X22188Y17556D02*
Y17756D01*
X23088Y18106D02*
Y18156D01*
X22188Y18506D02*
Y18706D01*
Y17556D02*
X22638D01*
X36417D02*
X36867D01*
Y18506D02*
Y18706D01*
X35967Y18106D02*
Y18156D01*
X36867Y17556D02*
Y17756D01*
X36417Y18706D02*
X36867D01*
X36417Y979D02*
X36867D01*
Y1929D02*
Y2129D01*
X35967Y1529D02*
Y1579D01*
X36867Y979D02*
Y1179D01*
X36417Y2129D02*
X36867D01*
X22188D02*
X22638D01*
X22188Y979D02*
Y1179D01*
X23088Y1529D02*
Y1579D01*
X22188Y1929D02*
Y2129D01*
Y979D02*
X22638D01*
X31746Y17720D02*
X32396D01*
Y15720D02*
Y17720D01*
X31746Y15720D02*
X32396D01*
X30096D02*
X30746D01*
X30096D02*
Y17720D01*
X30746D01*
X31146Y17320D02*
Y17520D01*
Y15920D02*
Y16120D01*
X31046Y15720D02*
X31446D01*
X31046Y17720D02*
X31446D01*
X26845Y17600D02*
X27145D01*
X26845Y16900D02*
Y17600D01*
Y16900D02*
X27145D01*
X27595D02*
X28195D01*
X27145Y17600D02*
X27595D01*
X28045D02*
X28345D01*
Y16900D02*
Y17600D01*
X28095Y16900D02*
X28345D01*
X27909Y-16920D02*
G03*
X27909Y-17320I0J-200D01*
G01*
Y-16120D02*
G03*
X27909Y-16520I0J-200D01*
G01*
D02*
G03*
X27909Y-16920I0J-200D01*
G01*
X33330Y-8900D02*
G03*
X33330Y-8900I50J0D01*
G01*
X36867Y-18706D02*
X36417D01*
X36867Y-17556D02*
Y-17756D01*
X35967Y-18106D02*
Y-18156D01*
X36867Y-18506D02*
Y-18706D01*
Y-17556D02*
X36417D01*
X22638D02*
X22188D01*
Y-18506D02*
Y-18706D01*
X23088Y-18106D02*
Y-18156D01*
X22188Y-17556D02*
Y-17756D01*
X22638Y-18706D02*
X22188D01*
X22638Y-979D02*
X22188D01*
Y-1929D02*
Y-2129D01*
X23088Y-1529D02*
Y-1579D01*
X22188Y-979D02*
Y-1179D01*
X22638Y-2129D02*
X22188D01*
X36867D02*
X36417D01*
X36867Y-979D02*
Y-1179D01*
X35967Y-1529D02*
Y-1579D01*
X36867Y-1929D02*
Y-2129D01*
Y-979D02*
X36417D01*
X27309Y-17720D02*
X26659D01*
Y-15720D02*
Y-17720D01*
X27309Y-15720D02*
X26659D01*
X28959D02*
X28309D01*
X28959D02*
Y-17720D01*
X28309D01*
X27909Y-17320D02*
Y-17520D01*
Y-15920D02*
Y-16120D01*
X28009Y-15720D02*
X27609D01*
X28009Y-17720D02*
X27609D01*
X32210Y-17600D02*
X31910D01*
X32210Y-16900D02*
Y-17600D01*
Y-16900D02*
X31910D01*
X31460D02*
X30860D01*
X31910Y-17600D02*
X31460D01*
X31010D02*
X30710D01*
Y-16900D02*
Y-17600D01*
X30960Y-16900D02*
X30710D01*
X8224Y-16920D02*
G03*
X8224Y-17320I0J-200D01*
G01*
Y-16120D02*
G03*
X8224Y-16520I0J-200D01*
G01*
D02*
G03*
X8224Y-16920I0J-200D01*
G01*
X13645Y-8900D02*
G03*
X13645Y-8900I50J0D01*
G01*
X17182Y-18706D02*
X16732D01*
X17182Y-17556D02*
Y-17756D01*
X16282Y-18106D02*
Y-18156D01*
X17182Y-18506D02*
Y-18706D01*
Y-17556D02*
X16732D01*
X2953D02*
X2503D01*
Y-18506D02*
Y-18706D01*
X3403Y-18106D02*
Y-18156D01*
X2503Y-17556D02*
Y-17756D01*
X2953Y-18706D02*
X2503D01*
X2953Y-979D02*
X2503D01*
Y-1929D02*
Y-2129D01*
X3403Y-1529D02*
Y-1579D01*
X2503Y-979D02*
Y-1179D01*
X2953Y-2129D02*
X2503D01*
X17182D02*
X16732D01*
X17182Y-979D02*
Y-1179D01*
X16282Y-1529D02*
Y-1579D01*
X17182Y-1929D02*
Y-2129D01*
Y-979D02*
X16732D01*
X7624Y-17720D02*
X6974D01*
Y-15720D02*
Y-17720D01*
X7624Y-15720D02*
X6974D01*
X9274D02*
X8624D01*
X9274D02*
Y-17720D01*
X8624D01*
X8224Y-17320D02*
Y-17520D01*
Y-15920D02*
Y-16120D01*
X8324Y-15720D02*
X7924D01*
X8324Y-17720D02*
X7924D01*
X12525Y-17600D02*
X12225D01*
X12525Y-16900D02*
Y-17600D01*
Y-16900D02*
X12225D01*
X11775D02*
X11175D01*
X12225Y-17600D02*
X11775D01*
X11325D02*
X11025D01*
Y-16900D02*
Y-17600D01*
X11275Y-16900D02*
X11025D01*
D58*
X6465Y14943D02*
G03*
X6465Y14943I-30J0D01*
G01*
X26150D02*
G03*
X26150Y14943I-30J0D01*
G01*
X32905Y-14943D02*
G03*
X32905Y-14943I30J0D01*
G01*
X13220D02*
G03*
X13220Y-14943I30J0D01*
G01*
D59*
X8411Y11287D02*
G03*
X8411Y11287I-61J0D01*
G01*
X28096D02*
G03*
X28096Y11287I-61J0D01*
G01*
X30959Y-11287D02*
G03*
X30959Y-11287I61J0D01*
G01*
X11274D02*
G03*
X11274Y-11287I61J0D01*
G01*
D60*
X10611Y6900D02*
G03*
X10610Y6900I-0J59D01*
G01*
X30296D02*
G03*
X30295Y6900I-0J59D01*
G01*
X28760Y-6900D02*
G03*
X28761Y-6900I0J-59D01*
G01*
X9075D02*
G03*
X9076Y-6900I0J-59D01*
G01*
D61*
X13810Y12643D02*
Y12735D01*
X13679Y12865D02*
X13810Y12735D01*
X13587Y12865D02*
X13679D01*
X13121D02*
X13210D01*
X12990Y12734D02*
X13121Y12865D01*
X12990Y12645D02*
Y12734D01*
X12980Y11010D02*
X13800D01*
Y11230D02*
Y11760D01*
X12980Y11230D02*
Y11760D01*
X13810Y12115D02*
Y12643D01*
X13800Y11010D02*
Y11490D01*
X12980Y11010D02*
Y11460D01*
X12990Y12115D02*
Y12645D01*
X13210Y12865D02*
X13587D01*
X14930Y12643D02*
Y12735D01*
X14800Y12865D02*
X14930Y12735D01*
X14708Y12865D02*
X14800D01*
X14242D02*
X14330D01*
X14110Y12734D02*
X14242Y12865D01*
X14110Y12645D02*
Y12734D01*
X14100Y11010D02*
X14920D01*
Y11230D02*
Y11760D01*
X14100Y11230D02*
Y11760D01*
X14930Y12115D02*
Y12643D01*
X14920Y11010D02*
Y11490D01*
X14100Y11010D02*
Y11460D01*
X14110Y12115D02*
Y12645D01*
X14330Y12865D02*
X14708D01*
X14323Y13464D02*
X14700D01*
X14920Y13684D02*
Y14214D01*
X14930Y14869D02*
Y15319D01*
X14110Y14839D02*
Y15319D01*
X14100Y13686D02*
Y14214D01*
X14930Y14569D02*
Y15099D01*
X14110Y14569D02*
Y15099D01*
Y15319D02*
X14930D01*
X14920Y13595D02*
Y13684D01*
X14789Y13464D02*
X14920Y13595D01*
X14700Y13464D02*
X14789D01*
X14231D02*
X14323D01*
X14100Y13594D02*
X14231Y13464D01*
X14100Y13594D02*
Y13686D01*
X10531Y15170D02*
X11831D01*
X10531Y13570D02*
X11831D01*
X10531Y14870D02*
Y15170D01*
Y13570D02*
Y13870D01*
X8490Y3990D02*
X8740D01*
X8490Y3490D02*
Y3990D01*
Y3490D02*
X8740D01*
X9540Y3990D02*
X9790D01*
Y3490D02*
Y3990D01*
X9540Y3490D02*
X9790D01*
X9890Y3990D02*
X10140D01*
X9890Y3490D02*
Y3990D01*
Y3490D02*
X10140D01*
X10940Y3990D02*
X11190D01*
Y3490D02*
Y3990D01*
X10940Y3490D02*
X11190D01*
X9193Y4581D02*
X9443D01*
X9193Y4081D02*
Y4581D01*
Y4081D02*
X9443D01*
X10243Y4581D02*
X10493D01*
Y4081D02*
Y4581D01*
X10243Y4081D02*
X10493D01*
X33495Y12643D02*
Y12735D01*
X33364Y12865D02*
X33495Y12735D01*
X33273Y12865D02*
X33364D01*
X32806D02*
X32895D01*
X32675Y12734D02*
X32806Y12865D01*
X32675Y12645D02*
Y12734D01*
X32665Y11010D02*
X33485D01*
Y11230D02*
Y11760D01*
X32665Y11230D02*
Y11760D01*
X33495Y12115D02*
Y12643D01*
X33485Y11010D02*
Y11490D01*
X32665Y11010D02*
Y11460D01*
X32675Y12115D02*
Y12645D01*
X32895Y12865D02*
X33273D01*
X34615Y12643D02*
Y12735D01*
X34485Y12865D02*
X34615Y12735D01*
X34393Y12865D02*
X34485D01*
X33927D02*
X34015D01*
X33795Y12734D02*
X33927Y12865D01*
X33795Y12645D02*
Y12734D01*
X33785Y11010D02*
X34605D01*
Y11230D02*
Y11760D01*
X33785Y11230D02*
Y11760D01*
X34615Y12115D02*
Y12643D01*
X34605Y11010D02*
Y11490D01*
X33785Y11010D02*
Y11460D01*
X33795Y12115D02*
Y12645D01*
X34015Y12865D02*
X34393D01*
X34008Y13464D02*
X34385D01*
X34605Y13684D02*
Y14214D01*
X34615Y14869D02*
Y15319D01*
X33795Y14839D02*
Y15319D01*
X33785Y13686D02*
Y14214D01*
X34615Y14569D02*
Y15099D01*
X33795Y14569D02*
Y15099D01*
Y15319D02*
X34615D01*
X34605Y13595D02*
Y13684D01*
X34474Y13464D02*
X34605Y13595D01*
X34385Y13464D02*
X34474D01*
X33916D02*
X34008D01*
X33785Y13594D02*
X33916Y13464D01*
X33785Y13594D02*
Y13686D01*
X30216Y15170D02*
X31516D01*
X30216Y13570D02*
X31516D01*
X30216Y14870D02*
Y15170D01*
Y13570D02*
Y13870D01*
X28175Y3990D02*
X28425D01*
X28175Y3490D02*
Y3990D01*
Y3490D02*
X28425D01*
X29225Y3990D02*
X29475D01*
Y3490D02*
Y3990D01*
X29225Y3490D02*
X29475D01*
X29575Y3990D02*
X29825D01*
X29575Y3490D02*
Y3990D01*
Y3490D02*
X29825D01*
X30625Y3990D02*
X30875D01*
Y3490D02*
Y3990D01*
X30625Y3490D02*
X30875D01*
X28878Y4581D02*
X29128D01*
X28878Y4081D02*
Y4581D01*
Y4081D02*
X29128D01*
X29928Y4581D02*
X30178D01*
Y4081D02*
Y4581D01*
X29928Y4081D02*
X30178D01*
X25560Y-12643D02*
Y-12735D01*
X25691Y-12865D02*
X25560Y-12735D01*
X25783Y-12865D02*
X25691D01*
X26249D02*
X26160D01*
X26380Y-12734D02*
X26249Y-12865D01*
X26380Y-12645D02*
Y-12734D01*
X26390Y-11010D02*
X25570D01*
Y-11230D02*
Y-11760D01*
X26390Y-11230D02*
Y-11760D01*
X25560Y-12115D02*
Y-12643D01*
X25570Y-11010D02*
Y-11490D01*
X26390Y-11010D02*
Y-11460D01*
X26380Y-12115D02*
Y-12645D01*
X26160Y-12865D02*
X25783D01*
X24440Y-12643D02*
Y-12735D01*
X24570Y-12865D02*
X24440Y-12735D01*
X24662Y-12865D02*
X24570D01*
X25128D02*
X25040D01*
X25260Y-12734D02*
X25128Y-12865D01*
X25260Y-12645D02*
Y-12734D01*
X25270Y-11010D02*
X24450D01*
Y-11230D02*
Y-11760D01*
X25270Y-11230D02*
Y-11760D01*
X24440Y-12115D02*
Y-12643D01*
X24450Y-11010D02*
Y-11490D01*
X25270Y-11010D02*
Y-11460D01*
X25260Y-12115D02*
Y-12645D01*
X25040Y-12865D02*
X24662D01*
X25048Y-13464D02*
X24670D01*
X24450Y-13684D02*
Y-14214D01*
X24440Y-14869D02*
Y-15319D01*
X25260Y-14839D02*
Y-15319D01*
X25270Y-13686D02*
Y-14214D01*
X24440Y-14569D02*
Y-15099D01*
X25260Y-14569D02*
Y-15099D01*
Y-15319D02*
X24440D01*
X24450Y-13595D02*
Y-13684D01*
X24581Y-13464D02*
X24450Y-13595D01*
X24670Y-13464D02*
X24581D01*
X25139D02*
X25048D01*
X25270Y-13594D02*
X25139Y-13464D01*
X25270Y-13594D02*
Y-13686D01*
X28839Y-15170D02*
X27539D01*
X28839Y-13570D02*
X27539D01*
X28839Y-14870D02*
Y-15170D01*
Y-13570D02*
Y-13870D01*
X30880Y-3990D02*
X30630D01*
X30880Y-3490D02*
Y-3990D01*
Y-3490D02*
X30630D01*
X29830Y-3990D02*
X29580D01*
Y-3490D02*
Y-3990D01*
X29830Y-3490D02*
X29580D01*
X29480Y-3990D02*
X29230D01*
X29480Y-3490D02*
Y-3990D01*
Y-3490D02*
X29230D01*
X28430Y-3990D02*
X28180D01*
Y-3490D02*
Y-3990D01*
X28430Y-3490D02*
X28180D01*
X30178Y-4581D02*
X29928D01*
X30178Y-4081D02*
Y-4581D01*
Y-4081D02*
X29928D01*
X29128Y-4581D02*
X28878D01*
Y-4081D02*
Y-4581D01*
X29128Y-4081D02*
X28878D01*
X5875Y-12643D02*
Y-12735D01*
X6006Y-12865D02*
X5875Y-12735D01*
X6098Y-12865D02*
X6006D01*
X6564D02*
X6475D01*
X6695Y-12734D02*
X6564Y-12865D01*
X6695Y-12645D02*
Y-12734D01*
X6705Y-11010D02*
X5885D01*
Y-11230D02*
Y-11760D01*
X6705Y-11230D02*
Y-11760D01*
X5875Y-12115D02*
Y-12643D01*
X5885Y-11010D02*
Y-11490D01*
X6705Y-11010D02*
Y-11460D01*
X6695Y-12115D02*
Y-12645D01*
X6475Y-12865D02*
X6098D01*
X4755Y-12643D02*
Y-12735D01*
X4885Y-12865D02*
X4755Y-12735D01*
X4977Y-12865D02*
X4885D01*
X5443D02*
X5355D01*
X5575Y-12734D02*
X5443Y-12865D01*
X5575Y-12645D02*
Y-12734D01*
X5585Y-11010D02*
X4765D01*
Y-11230D02*
Y-11760D01*
X5585Y-11230D02*
Y-11760D01*
X4755Y-12115D02*
Y-12643D01*
X4765Y-11010D02*
Y-11490D01*
X5585Y-11010D02*
Y-11460D01*
X5575Y-12115D02*
Y-12645D01*
X5355Y-12865D02*
X4977D01*
X5363Y-13464D02*
X4985D01*
X4765Y-13684D02*
Y-14214D01*
X4755Y-14869D02*
Y-15319D01*
X5575Y-14839D02*
Y-15319D01*
X5585Y-13686D02*
Y-14214D01*
X4755Y-14569D02*
Y-15099D01*
X5575Y-14569D02*
Y-15099D01*
Y-15319D02*
X4755D01*
X4765Y-13595D02*
Y-13684D01*
X4896Y-13464D02*
X4765Y-13595D01*
X4985Y-13464D02*
X4896D01*
X5454D02*
X5363D01*
X5585Y-13594D02*
X5454Y-13464D01*
X5585Y-13594D02*
Y-13686D01*
X9154Y-15170D02*
X7854D01*
X9154Y-13570D02*
X7854D01*
X9154Y-14870D02*
Y-15170D01*
Y-13570D02*
Y-13870D01*
X11195Y-3990D02*
X10945D01*
X11195Y-3490D02*
Y-3990D01*
Y-3490D02*
X10945D01*
X10145Y-3990D02*
X9895D01*
Y-3490D02*
Y-3990D01*
X10145Y-3490D02*
X9895D01*
X9795Y-3990D02*
X9545D01*
X9795Y-3490D02*
Y-3990D01*
Y-3490D02*
X9545D01*
X8745Y-3990D02*
X8495D01*
Y-3490D02*
Y-3990D01*
X8745Y-3490D02*
X8495D01*
X10493Y-4581D02*
X10243D01*
X10493Y-4081D02*
Y-4581D01*
Y-4081D02*
X10243D01*
X9443Y-4581D02*
X9193D01*
Y-4081D02*
Y-4581D01*
X9443Y-4081D02*
X9193D01*
D62*
X2075Y969D02*
Y2968D01*
X1075D02*
X2075D01*
X1075Y969D02*
Y2968D01*
Y969D02*
X2075D01*
X1075Y3843D02*
X2075D01*
Y15843D01*
X1075D02*
X2075D01*
X1075Y3843D02*
Y15843D01*
X6380Y6670D02*
X6820D01*
X6370Y6220D02*
Y6670D01*
X17610Y3843D02*
Y15843D01*
X18610D01*
Y3843D02*
Y15843D01*
X17610Y3843D02*
X18610D01*
X17610Y969D02*
X18610D01*
X17610D02*
Y2968D01*
X18610D01*
Y969D02*
Y2968D01*
X17610Y18717D02*
X18610D01*
Y16717D02*
Y18717D01*
X17610Y16717D02*
X18610D01*
X17610D02*
Y18717D01*
X1075D02*
X2075D01*
Y16717D02*
Y18717D01*
X1075Y16717D02*
X2075D01*
X1075D02*
Y18717D01*
X8996Y6506D02*
Y6752D01*
X9242D01*
X10689Y6506D02*
Y6752D01*
X10443D02*
X10689D01*
Y5059D02*
Y5305D01*
X10443Y5059D02*
X10689D01*
X8996D02*
X9242D01*
X8996D02*
Y5305D01*
X21760Y969D02*
Y2968D01*
X20760D02*
X21760D01*
X20760Y969D02*
Y2968D01*
Y969D02*
X21760D01*
X20760Y3843D02*
X21760D01*
Y15843D01*
X20760D02*
X21760D01*
X20760Y3843D02*
Y15843D01*
X26065Y6670D02*
X26505D01*
X26055Y6220D02*
Y6670D01*
X37295Y3843D02*
Y15843D01*
X38295D01*
Y3843D02*
Y15843D01*
X37295Y3843D02*
X38295D01*
X37295Y969D02*
X38295D01*
X37295D02*
Y2968D01*
X38295D01*
Y969D02*
Y2968D01*
X37295Y18717D02*
X38295D01*
Y16717D02*
Y18717D01*
X37295Y16717D02*
X38295D01*
X37295D02*
Y18717D01*
X20760D02*
X21760D01*
Y16717D02*
Y18717D01*
X20760Y16717D02*
X21760D01*
X20760D02*
Y18717D01*
X28681Y6506D02*
Y6752D01*
X28927D01*
X30374Y6506D02*
Y6752D01*
X30128D02*
X30374D01*
Y5059D02*
Y5305D01*
X30128Y5059D02*
X30374D01*
X28681D02*
X28927D01*
X28681D02*
Y5305D01*
X37295Y-969D02*
Y-2968D01*
X38295D02*
X37295D01*
X38295Y-969D02*
Y-2968D01*
Y-969D02*
X37295D01*
X38295Y-3843D02*
X37295D01*
Y-15843D01*
X38295D02*
X37295D01*
X38295Y-3843D02*
Y-15843D01*
X32990Y-6670D02*
X32550D01*
X33000Y-6220D02*
Y-6670D01*
X21760Y-3843D02*
Y-15843D01*
X20760D01*
Y-3843D02*
Y-15843D01*
X21760Y-3843D02*
X20760D01*
X21760Y-969D02*
X20760D01*
X21760D02*
Y-2968D01*
X20760D01*
Y-969D02*
Y-2968D01*
X21760Y-18717D02*
X20760D01*
Y-16717D02*
Y-18717D01*
X21760Y-16717D02*
X20760D01*
X21760D02*
Y-18717D01*
X38295D02*
X37295D01*
Y-16717D02*
Y-18717D01*
X38295Y-16717D02*
X37295D01*
X38295D02*
Y-18717D01*
X30374Y-6506D02*
Y-6752D01*
X30128D01*
X28681Y-6506D02*
Y-6752D01*
X28927D02*
X28681D01*
Y-5059D02*
Y-5305D01*
X28927Y-5059D02*
X28681D01*
X30374D02*
X30128D01*
X30374D02*
Y-5305D01*
X17610Y-969D02*
Y-2968D01*
X18610D02*
X17610D01*
X18610Y-969D02*
Y-2968D01*
Y-969D02*
X17610D01*
X18610Y-3843D02*
X17610D01*
Y-15843D01*
X18610D02*
X17610D01*
X18610Y-3843D02*
Y-15843D01*
X13305Y-6670D02*
X12865D01*
X13315Y-6220D02*
Y-6670D01*
X2075Y-3843D02*
Y-15843D01*
X1075D01*
Y-3843D02*
Y-15843D01*
X2075Y-3843D02*
X1075D01*
X2075Y-969D02*
X1075D01*
X2075D02*
Y-2968D01*
X1075D01*
Y-969D02*
Y-2968D01*
X2075Y-18717D02*
X1075D01*
Y-16717D02*
Y-18717D01*
X2075Y-16717D02*
X1075D01*
X2075D02*
Y-18717D01*
X18610D02*
X17610D01*
Y-16717D02*
Y-18717D01*
X18610Y-16717D02*
X17610D01*
X18610D02*
Y-18717D01*
X10689Y-6506D02*
Y-6752D01*
X10443D01*
X8996Y-6506D02*
Y-6752D01*
X9242D02*
X8996D01*
Y-5059D02*
Y-5305D01*
X9242Y-5059D02*
X8996D01*
X10689D02*
X10443D01*
X10689D02*
Y-5305D01*
D63*
X13872Y13404D02*
Y15333D01*
X13715Y13247D02*
X13872Y13404D01*
X13085Y13247D02*
X13715D01*
X12928Y13404D02*
X13085Y13247D01*
X12928Y15333D02*
X12928Y13404D01*
X12928Y15333D02*
X13872Y15333D01*
X13400Y13896D02*
Y14684D01*
X13203Y14487D02*
X13400Y14061D01*
X13203Y14487D02*
X13597D01*
X13400Y14061D02*
X13597Y14487D01*
X13203Y14011D02*
X13597D01*
X15580Y13725D02*
X16171Y13725D01*
X16171Y12583D02*
X16171Y13725D01*
X15580Y12583D02*
X16171Y12583D01*
X15580Y12583D02*
Y13725D01*
X33557Y13404D02*
Y15333D01*
X33400Y13247D02*
X33557Y13404D01*
X32770Y13247D02*
X33400D01*
X32613Y13404D02*
X32770Y13247D01*
X32613Y15333D02*
X32613Y13404D01*
X32613Y15333D02*
X33557Y15333D01*
X33085Y13896D02*
Y14684D01*
X32888Y14487D02*
X33085Y14061D01*
X32888Y14487D02*
X33282D01*
X33085Y14061D02*
X33282Y14487D01*
X32888Y14011D02*
X33282D01*
X35265Y13725D02*
X35856Y13725D01*
X35856Y12583D02*
X35856Y13725D01*
X35265Y12583D02*
X35856Y12583D01*
X35265Y12583D02*
Y13725D01*
X25498Y-13404D02*
Y-15333D01*
X25655Y-13247D02*
X25498Y-13404D01*
X26285Y-13247D02*
X25655D01*
X26443Y-13404D02*
X26285Y-13247D01*
X26443Y-15333D02*
X26443Y-13404D01*
X26443Y-15333D02*
X25498Y-15333D01*
X25970Y-13896D02*
Y-14684D01*
X26167Y-14487D02*
X25970Y-14061D01*
X26167Y-14487D02*
X25773D01*
X25970Y-14061D02*
X25773Y-14487D01*
X26167Y-14011D02*
X25773D01*
X23790Y-13725D02*
X23199Y-13725D01*
X23199Y-12583D02*
X23199Y-13725D01*
X23790Y-12583D02*
X23199Y-12583D01*
X23790Y-12583D02*
Y-13725D01*
X5813Y-13404D02*
Y-15333D01*
X5970Y-13247D02*
X5813Y-13404D01*
X6600Y-13247D02*
X5970D01*
X6757Y-13404D02*
X6600Y-13247D01*
X6757Y-15333D02*
X6757Y-13404D01*
X6757Y-15333D02*
X5813Y-15333D01*
X6285Y-13896D02*
Y-14684D01*
X6482Y-14487D02*
X6285Y-14061D01*
X6482Y-14487D02*
X6088D01*
X6285Y-14061D02*
X6088Y-14487D01*
X6482Y-14011D02*
X6088D01*
X4105Y-13725D02*
X3514Y-13725D01*
X3514Y-12583D02*
X3514Y-13725D01*
X4105Y-12583D02*
X3514Y-12583D01*
X4105Y-12583D02*
Y-13725D01*
D64*
X7710Y5120D02*
Y6620D01*
X6410Y5120D02*
X7710D01*
X6410D02*
Y6620D01*
X7710D01*
X27395Y5120D02*
Y6620D01*
X26095Y5120D02*
X27395D01*
X26095D02*
Y6620D01*
X27395D01*
X31660Y-5120D02*
Y-6620D01*
X32960Y-5120D02*
X31660D01*
X32960D02*
Y-6620D01*
X31660D01*
X11975Y-5120D02*
Y-6620D01*
X13275Y-5120D02*
X11975D01*
X13275D02*
Y-6620D01*
X11975D01*
M02*
