G04*
G04 #@! TF.GenerationSoftware,Altium Limited,Altium Designer,21.2.2 (38)*
G04*
G04 Layer_Color=32896*
%FSLAX24Y24*%
%MOIN*%
G70*
G04*
G04 #@! TF.SameCoordinates,7BEC17FB-94DA-460C-997F-5D10B4D38A6F*
G04*
G04*
G04 #@! TF.FilePolarity,Positive*
G04*
G01*
G75*
%ADD11C,0.0050*%
%ADD62C,0.0079*%
D11*
X6630Y18120D02*
Y17920D01*
X6530Y17820D01*
X6430Y17920D01*
Y18120D01*
X6330D02*
Y17820D01*
X6180D01*
X6130Y17870D01*
Y17920D01*
X6180Y17970D01*
X6330D01*
X6180D01*
X6130Y18020D01*
Y18070D01*
X6180Y18120D01*
X6330D01*
X6030Y17820D02*
Y18020D01*
X5930Y18120D01*
X5830Y18020D01*
Y17820D01*
Y17970D01*
X6030D01*
X5730Y18120D02*
X5530D01*
X5630D01*
Y17820D01*
X5430D02*
X5330D01*
X5380D01*
Y18120D01*
X5430Y18070D01*
X26315Y18120D02*
Y17920D01*
X26215Y17820D01*
X26115Y17920D01*
Y18120D01*
X26015D02*
Y17820D01*
X25865D01*
X25815Y17870D01*
Y17920D01*
X25865Y17970D01*
X26015D01*
X25865D01*
X25815Y18020D01*
Y18070D01*
X25865Y18120D01*
X26015D01*
X25715Y17820D02*
Y18020D01*
X25615Y18120D01*
X25515Y18020D01*
Y17820D01*
Y17970D01*
X25715D01*
X25415Y18120D02*
X25215D01*
X25315D01*
Y17820D01*
X25115D02*
X25015D01*
X25065D01*
Y18120D01*
X25115Y18070D01*
X32740Y-18120D02*
Y-17920D01*
X32840Y-17820D01*
X32940Y-17920D01*
Y-18120D01*
X33040D02*
Y-17820D01*
X33190D01*
X33240Y-17870D01*
Y-17920D01*
X33190Y-17970D01*
X33040D01*
X33190D01*
X33240Y-18020D01*
Y-18070D01*
X33190Y-18120D01*
X33040D01*
X33340Y-17820D02*
Y-18020D01*
X33440Y-18120D01*
X33540Y-18020D01*
Y-17820D01*
Y-17970D01*
X33340D01*
X33640Y-18120D02*
X33840D01*
X33740D01*
Y-17820D01*
X33940D02*
X34040D01*
X33990D01*
Y-18120D01*
X33940Y-18070D01*
X13055Y-18120D02*
Y-17920D01*
X13155Y-17820D01*
X13255Y-17920D01*
Y-18120D01*
X13355D02*
Y-17820D01*
X13505D01*
X13555Y-17870D01*
Y-17920D01*
X13505Y-17970D01*
X13355D01*
X13505D01*
X13555Y-18020D01*
Y-18070D01*
X13505Y-18120D01*
X13355D01*
X13655Y-17820D02*
Y-18020D01*
X13755Y-18120D01*
X13855Y-18020D01*
Y-17820D01*
Y-17970D01*
X13655D01*
X13955Y-18120D02*
X14155D01*
X14055D01*
Y-17820D01*
X14255D02*
X14355D01*
X14305D01*
Y-18120D01*
X14255Y-18070D01*
D62*
X5680Y19170D02*
X6980D01*
X4980D02*
X5680D01*
X4980Y19470D02*
X5230Y19220D01*
X4980Y19170D02*
Y19720D01*
X6980D01*
Y19170D02*
Y19720D01*
X6343Y21607D02*
X6510Y21773D01*
X6343Y19720D02*
Y21607D01*
X6676Y19720D02*
Y21603D01*
X6510Y21773D02*
X6676Y21607D01*
X5510Y21773D02*
X5676Y21607D01*
X5680Y21603D01*
X5676Y19720D02*
Y21603D01*
X5343Y19720D02*
Y21607D01*
X5510Y21773D01*
X25365Y19170D02*
X26665D01*
X24665D02*
X25365D01*
X24665Y19470D02*
X24915Y19220D01*
X24665Y19170D02*
Y19720D01*
X26665D01*
Y19170D02*
Y19720D01*
X26028Y21607D02*
X26195Y21773D01*
X26028Y19720D02*
Y21607D01*
X26361Y19720D02*
Y21603D01*
X26195Y21773D02*
X26361Y21607D01*
X25195Y21773D02*
X25361Y21607D01*
X25365Y21603D01*
X25361Y19720D02*
Y21603D01*
X25028Y19720D02*
Y21607D01*
X25195Y21773D01*
X33690Y-19170D02*
X32390D01*
X34390D02*
X33690D01*
X34390Y-19470D02*
X34140Y-19220D01*
X34390Y-19170D02*
Y-19720D01*
X32390D01*
Y-19170D02*
Y-19720D01*
X33027Y-21607D02*
X32860Y-21773D01*
X33027Y-19720D02*
Y-21607D01*
X32694Y-19720D02*
Y-21603D01*
X32860Y-21773D02*
X32694Y-21607D01*
X33860Y-21773D02*
X33694Y-21607D01*
X33690Y-21603D01*
X33694Y-19720D02*
Y-21603D01*
X34027Y-19720D02*
Y-21607D01*
X33860Y-21773D01*
X14005Y-19170D02*
X12705D01*
X14705D02*
X14005D01*
X14705Y-19470D02*
X14455Y-19220D01*
X14705Y-19170D02*
Y-19720D01*
X12705D01*
Y-19170D02*
Y-19720D01*
X13342Y-21607D02*
X13175Y-21773D01*
X13342Y-19720D02*
Y-21607D01*
X13009Y-19720D02*
Y-21603D01*
X13175Y-21773D02*
X13009Y-21607D01*
X14175Y-21773D02*
X14009Y-21607D01*
X14005Y-21603D01*
X14009Y-19720D02*
Y-21603D01*
X14342Y-19720D02*
Y-21607D01*
X14175Y-21773D01*
M02*
