G04*
G04 #@! TF.GenerationSoftware,Altium Limited,Altium Designer,21.2.2 (38)*
G04*
G04 Layer_Color=8388736*
%FSLAX24Y24*%
%MOIN*%
G70*
G04*
G04 #@! TF.SameCoordinates,7BEC17FB-94DA-460C-997F-5D10B4D38A6F*
G04*
G04*
G04 #@! TF.FilePolarity,Negative*
G04*
G01*
G75*
%ADD65C,0.0474*%
%ADD66R,0.0365X0.0326*%
%ADD67R,0.0326X0.0365*%
%ADD68R,0.0550X0.0650*%
%ADD69C,0.0395*%
%ADD70R,0.0550X0.0390*%
%ADD71O,0.1650X0.0837*%
%ADD72R,0.1050X0.0390*%
%ADD73R,0.0301X0.0150*%
%ADD74R,0.0150X0.0301*%
%ADD75R,0.0450X0.0450*%
%ADD76R,0.0550X0.0450*%
%ADD77R,0.0400X0.0400*%
%ADD78R,0.0739X0.1822*%
%ADD79R,0.0365X0.0522*%
%ADD80R,0.0522X0.0365*%
%ADD81R,0.0450X0.0600*%
%ADD82R,0.0641X0.0522*%
%ADD83R,0.0522X0.0562*%
%ADD84R,0.0444X0.0247*%
%ADD85R,0.0522X0.0410*%
%ADD86R,0.0410X0.0410*%
%ADD87O,0.0641X0.0168*%
%ADD88O,0.0168X0.0641*%
%ADD89R,0.0365X0.0160*%
%ADD90R,0.0160X0.0365*%
%ADD91O,0.0641X0.0168*%
%ADD92O,0.0168X0.0641*%
%ADD93R,0.1034X0.1034*%
%ADD94C,0.1261*%
%ADD95C,0.0719*%
%ADD96R,0.0719X0.0719*%
%ADD97R,0.0719X0.0719*%
D65*
X39970Y-17550D02*
D03*
X-600D02*
D03*
Y17550D02*
D03*
D66*
X16417Y2753D02*
D03*
X17047D02*
D03*
X12470Y4217D02*
D03*
Y3663D02*
D03*
X15420Y11853D02*
D03*
Y11300D02*
D03*
X12420Y12217D02*
D03*
Y11663D02*
D03*
X11880Y4217D02*
D03*
Y3663D02*
D03*
X591Y1692D02*
D03*
Y2245D02*
D03*
X4220Y14313D02*
D03*
Y14867D02*
D03*
Y13577D02*
D03*
Y13023D02*
D03*
X15420Y14475D02*
D03*
Y15029D02*
D03*
X6300Y9133D02*
D03*
Y9687D02*
D03*
X8090Y5593D02*
D03*
Y6147D02*
D03*
X15669Y1118D02*
D03*
Y1672D02*
D03*
Y18567D02*
D03*
Y18013D02*
D03*
X4016Y18567D02*
D03*
Y18013D02*
D03*
Y2263D02*
D03*
Y2817D02*
D03*
Y17422D02*
D03*
Y16868D02*
D03*
X15669Y17422D02*
D03*
Y16868D02*
D03*
Y2817D02*
D03*
Y2263D02*
D03*
X4016Y1672D02*
D03*
Y1118D02*
D03*
X3268Y16932D02*
D03*
X2638D02*
D03*
X16417D02*
D03*
X17047D02*
D03*
X3268Y2753D02*
D03*
X2638D02*
D03*
X19094Y1692D02*
D03*
Y2245D02*
D03*
Y17440D02*
D03*
Y17993D02*
D03*
X591D02*
D03*
Y17440D02*
D03*
X36102Y2753D02*
D03*
X36732D02*
D03*
X32155Y4217D02*
D03*
Y3663D02*
D03*
X35105Y11853D02*
D03*
Y11300D02*
D03*
X32105Y12217D02*
D03*
Y11663D02*
D03*
X31565Y4217D02*
D03*
Y3663D02*
D03*
X20276Y1692D02*
D03*
Y2245D02*
D03*
X23905Y14313D02*
D03*
Y14867D02*
D03*
Y13577D02*
D03*
Y13023D02*
D03*
X35105Y14475D02*
D03*
Y15029D02*
D03*
X25985Y9133D02*
D03*
Y9687D02*
D03*
X27775Y5593D02*
D03*
Y6147D02*
D03*
X35354Y1118D02*
D03*
Y1672D02*
D03*
Y18567D02*
D03*
Y18013D02*
D03*
X23701Y18567D02*
D03*
Y18013D02*
D03*
Y2263D02*
D03*
Y2817D02*
D03*
Y17422D02*
D03*
Y16868D02*
D03*
X35354Y17422D02*
D03*
Y16868D02*
D03*
Y2817D02*
D03*
Y2263D02*
D03*
X23701Y1672D02*
D03*
Y1118D02*
D03*
X22953Y16932D02*
D03*
X22323D02*
D03*
X36102D02*
D03*
X36732D02*
D03*
X22953Y2753D02*
D03*
X22323D02*
D03*
X38780Y1692D02*
D03*
Y2245D02*
D03*
Y17440D02*
D03*
Y17993D02*
D03*
X20276D02*
D03*
Y17440D02*
D03*
X22953Y-2753D02*
D03*
X22323D02*
D03*
X26900Y-4217D02*
D03*
Y-3663D02*
D03*
X23950Y-11853D02*
D03*
Y-11300D02*
D03*
X26950Y-12217D02*
D03*
Y-11663D02*
D03*
X27490Y-4217D02*
D03*
Y-3663D02*
D03*
X38780Y-1692D02*
D03*
Y-2245D02*
D03*
X35150Y-14313D02*
D03*
Y-14867D02*
D03*
Y-13577D02*
D03*
Y-13023D02*
D03*
X23950Y-14475D02*
D03*
Y-15029D02*
D03*
X33070Y-9133D02*
D03*
Y-9687D02*
D03*
X31280Y-5593D02*
D03*
Y-6147D02*
D03*
X23701Y-1118D02*
D03*
Y-1672D02*
D03*
Y-18567D02*
D03*
Y-18013D02*
D03*
X35354Y-18567D02*
D03*
Y-18013D02*
D03*
Y-2263D02*
D03*
Y-2817D02*
D03*
Y-17422D02*
D03*
Y-16868D02*
D03*
X23701Y-17422D02*
D03*
Y-16868D02*
D03*
Y-2817D02*
D03*
Y-2263D02*
D03*
X35354Y-1672D02*
D03*
Y-1118D02*
D03*
X36102Y-16932D02*
D03*
X36732D02*
D03*
X22953D02*
D03*
X22323D02*
D03*
X36102Y-2753D02*
D03*
X36732D02*
D03*
X20276Y-1692D02*
D03*
Y-2245D02*
D03*
Y-17440D02*
D03*
Y-17993D02*
D03*
X38780D02*
D03*
Y-17440D02*
D03*
X3268Y-2753D02*
D03*
X2638D02*
D03*
X7215Y-4217D02*
D03*
Y-3663D02*
D03*
X4265Y-11853D02*
D03*
Y-11300D02*
D03*
X7265Y-12217D02*
D03*
Y-11663D02*
D03*
X7805Y-4217D02*
D03*
Y-3663D02*
D03*
X19094Y-1692D02*
D03*
Y-2245D02*
D03*
X15465Y-14313D02*
D03*
Y-14867D02*
D03*
Y-13577D02*
D03*
Y-13023D02*
D03*
X4265Y-14475D02*
D03*
Y-15029D02*
D03*
X13385Y-9133D02*
D03*
Y-9687D02*
D03*
X11595Y-5593D02*
D03*
Y-6147D02*
D03*
X4016Y-1118D02*
D03*
Y-1672D02*
D03*
Y-18567D02*
D03*
Y-18013D02*
D03*
X15669Y-18567D02*
D03*
Y-18013D02*
D03*
Y-2263D02*
D03*
Y-2817D02*
D03*
Y-17422D02*
D03*
Y-16868D02*
D03*
X4016Y-17422D02*
D03*
Y-16868D02*
D03*
Y-2817D02*
D03*
Y-2263D02*
D03*
X15669Y-1672D02*
D03*
Y-1118D02*
D03*
X16417Y-16932D02*
D03*
X17047D02*
D03*
X3268D02*
D03*
X2638D02*
D03*
X16417Y-2753D02*
D03*
X17047D02*
D03*
X591Y-1692D02*
D03*
Y-2245D02*
D03*
Y-17440D02*
D03*
Y-17993D02*
D03*
X19094D02*
D03*
Y-17440D02*
D03*
D67*
X11673Y5598D02*
D03*
X12227D02*
D03*
Y6199D02*
D03*
X11673D02*
D03*
X12227Y6800D02*
D03*
X11673D02*
D03*
X7341Y3540D02*
D03*
X6788D02*
D03*
X7341Y4148D02*
D03*
X6788D02*
D03*
X7341Y4757D02*
D03*
X6788D02*
D03*
Y6997D02*
D03*
X7341D02*
D03*
X6217Y10450D02*
D03*
X5663D02*
D03*
X6217Y11747D02*
D03*
X5663D02*
D03*
Y8360D02*
D03*
X6217D02*
D03*
X5663Y12400D02*
D03*
X6217D02*
D03*
X7567Y13200D02*
D03*
X8120D02*
D03*
X11673Y4980D02*
D03*
X12227D02*
D03*
X7567Y13980D02*
D03*
X8120D02*
D03*
X7567Y14777D02*
D03*
X8120D02*
D03*
X6217Y11110D02*
D03*
X5663D02*
D03*
X8120Y12403D02*
D03*
X7567D02*
D03*
X31358Y5598D02*
D03*
X31912D02*
D03*
Y6199D02*
D03*
X31358D02*
D03*
X31912Y6800D02*
D03*
X31358D02*
D03*
X27026Y3540D02*
D03*
X26473D02*
D03*
X27026Y4148D02*
D03*
X26473D02*
D03*
X27026Y4757D02*
D03*
X26473D02*
D03*
Y6997D02*
D03*
X27026D02*
D03*
X25902Y10450D02*
D03*
X25348D02*
D03*
X25902Y11747D02*
D03*
X25348D02*
D03*
Y8360D02*
D03*
X25902D02*
D03*
X25348Y12400D02*
D03*
X25902D02*
D03*
X27252Y13200D02*
D03*
X27805D02*
D03*
X31358Y4980D02*
D03*
X31912D02*
D03*
X27252Y13980D02*
D03*
X27805D02*
D03*
X27252Y14777D02*
D03*
X27805D02*
D03*
X25902Y11110D02*
D03*
X25348D02*
D03*
X27805Y12403D02*
D03*
X27252D02*
D03*
X27697Y-5598D02*
D03*
X27143D02*
D03*
Y-6199D02*
D03*
X27697D02*
D03*
X27143Y-6800D02*
D03*
X27697D02*
D03*
X32029Y-3540D02*
D03*
X32582D02*
D03*
X32029Y-4148D02*
D03*
X32582D02*
D03*
X32029Y-4757D02*
D03*
X32582D02*
D03*
Y-6997D02*
D03*
X32029D02*
D03*
X33153Y-10450D02*
D03*
X33707D02*
D03*
X33153Y-11747D02*
D03*
X33707D02*
D03*
Y-8360D02*
D03*
X33153D02*
D03*
X33707Y-12400D02*
D03*
X33153D02*
D03*
X31803Y-13200D02*
D03*
X31250D02*
D03*
X27697Y-4980D02*
D03*
X27143D02*
D03*
X31803Y-13980D02*
D03*
X31250D02*
D03*
X31803Y-14777D02*
D03*
X31250D02*
D03*
X33153Y-11110D02*
D03*
X33707D02*
D03*
X31250Y-12403D02*
D03*
X31803D02*
D03*
X8012Y-5598D02*
D03*
X7458D02*
D03*
Y-6199D02*
D03*
X8012D02*
D03*
X7458Y-6800D02*
D03*
X8012D02*
D03*
X12344Y-3540D02*
D03*
X12897D02*
D03*
X12344Y-4148D02*
D03*
X12897D02*
D03*
X12344Y-4757D02*
D03*
X12897D02*
D03*
Y-6997D02*
D03*
X12344D02*
D03*
X13468Y-10450D02*
D03*
X14022D02*
D03*
X13468Y-11747D02*
D03*
X14022D02*
D03*
Y-8360D02*
D03*
X13468D02*
D03*
X14022Y-12400D02*
D03*
X13468D02*
D03*
X12118Y-13200D02*
D03*
X11565D02*
D03*
X8012Y-4980D02*
D03*
X7458D02*
D03*
X12118Y-13980D02*
D03*
X11565D02*
D03*
X12118Y-14777D02*
D03*
X11565D02*
D03*
X13468Y-11110D02*
D03*
X14022D02*
D03*
X11565Y-12403D02*
D03*
X12118D02*
D03*
D68*
X13400Y12487D02*
D03*
Y11387D02*
D03*
X14520Y12487D02*
D03*
Y11387D02*
D03*
X14510Y13842D02*
D03*
Y14942D02*
D03*
X33085Y12487D02*
D03*
Y11387D02*
D03*
X34206Y12487D02*
D03*
Y11387D02*
D03*
X34195Y13842D02*
D03*
Y14942D02*
D03*
X25970Y-12487D02*
D03*
Y-11387D02*
D03*
X24850Y-12487D02*
D03*
Y-11387D02*
D03*
X24860Y-13842D02*
D03*
Y-14942D02*
D03*
X6285Y-12487D02*
D03*
Y-11387D02*
D03*
X5165Y-12487D02*
D03*
Y-11387D02*
D03*
X5175Y-13842D02*
D03*
Y-14942D02*
D03*
D69*
X13750Y3980D02*
D03*
X11050Y2900D02*
D03*
X33435Y3980D02*
D03*
X30735Y2900D02*
D03*
X25620Y-3980D02*
D03*
X28320Y-2900D02*
D03*
X5935Y-3980D02*
D03*
X8635Y-2900D02*
D03*
D70*
X12231Y14970D02*
D03*
Y13770D02*
D03*
X31916Y14970D02*
D03*
Y13770D02*
D03*
X27139Y-14970D02*
D03*
Y-13770D02*
D03*
X7454Y-14970D02*
D03*
Y-13770D02*
D03*
D71*
X11210Y14370D02*
D03*
X30895D02*
D03*
X28160Y-14370D02*
D03*
X8475D02*
D03*
D72*
X12231Y14370D02*
D03*
X31916D02*
D03*
X27139Y-14370D02*
D03*
X7454D02*
D03*
D73*
X6694Y14435D02*
D03*
Y14238D02*
D03*
Y14042D02*
D03*
Y13845D02*
D03*
Y13648D02*
D03*
Y13451D02*
D03*
X5192D02*
D03*
Y13845D02*
D03*
Y14435D02*
D03*
Y14238D02*
D03*
Y14042D02*
D03*
Y13648D02*
D03*
X26379Y14435D02*
D03*
Y14238D02*
D03*
Y14042D02*
D03*
Y13845D02*
D03*
Y13648D02*
D03*
Y13451D02*
D03*
X24877D02*
D03*
Y13845D02*
D03*
Y14435D02*
D03*
Y14238D02*
D03*
Y14042D02*
D03*
Y13648D02*
D03*
X32676Y-14435D02*
D03*
Y-14238D02*
D03*
Y-14042D02*
D03*
Y-13845D02*
D03*
Y-13648D02*
D03*
Y-13451D02*
D03*
X34178D02*
D03*
Y-13845D02*
D03*
Y-14435D02*
D03*
Y-14238D02*
D03*
Y-14042D02*
D03*
Y-13648D02*
D03*
X12991Y-14435D02*
D03*
Y-14238D02*
D03*
Y-14042D02*
D03*
Y-13845D02*
D03*
Y-13648D02*
D03*
Y-13451D02*
D03*
X14493D02*
D03*
Y-13845D02*
D03*
Y-14435D02*
D03*
Y-14238D02*
D03*
Y-14042D02*
D03*
Y-13648D02*
D03*
D74*
X6239Y13192D02*
D03*
X6042D02*
D03*
X5845D02*
D03*
X5648D02*
D03*
X5451Y14694D02*
D03*
X5648D02*
D03*
X5845D02*
D03*
X6042D02*
D03*
X6239D02*
D03*
X5451Y13192D02*
D03*
X6435Y14694D02*
D03*
Y13192D02*
D03*
X25924D02*
D03*
X25727D02*
D03*
X25530D02*
D03*
X25333D02*
D03*
X25136Y14694D02*
D03*
X25333D02*
D03*
X25530D02*
D03*
X25727D02*
D03*
X25924D02*
D03*
X25136Y13192D02*
D03*
X26120Y14694D02*
D03*
Y13192D02*
D03*
X33131Y-13192D02*
D03*
X33328D02*
D03*
X33525D02*
D03*
X33722D02*
D03*
X33919Y-14694D02*
D03*
X33722D02*
D03*
X33525D02*
D03*
X33328D02*
D03*
X33131D02*
D03*
X33919Y-13192D02*
D03*
X32935Y-14694D02*
D03*
Y-13192D02*
D03*
X13446D02*
D03*
X13643D02*
D03*
X13840D02*
D03*
X14037D02*
D03*
X14234Y-14694D02*
D03*
X14037D02*
D03*
X13840D02*
D03*
X13643D02*
D03*
X13446D02*
D03*
X14234Y-13192D02*
D03*
X13250Y-14694D02*
D03*
Y-13192D02*
D03*
D75*
X3353Y17756D02*
D03*
Y18506D02*
D03*
X16332Y17756D02*
D03*
Y18506D02*
D03*
Y1929D02*
D03*
Y1179D02*
D03*
X3353D02*
D03*
Y1929D02*
D03*
X23038Y17756D02*
D03*
Y18506D02*
D03*
X36017Y17756D02*
D03*
Y18506D02*
D03*
Y1929D02*
D03*
Y1179D02*
D03*
X23038D02*
D03*
Y1929D02*
D03*
X36017Y-17756D02*
D03*
Y-18506D02*
D03*
X23038Y-17756D02*
D03*
Y-18506D02*
D03*
Y-1929D02*
D03*
Y-1179D02*
D03*
X36017D02*
D03*
Y-1929D02*
D03*
X16332Y-17756D02*
D03*
Y-18506D02*
D03*
X3353Y-17756D02*
D03*
Y-18506D02*
D03*
Y-1929D02*
D03*
Y-1179D02*
D03*
X16332D02*
D03*
Y-1929D02*
D03*
D76*
X2553Y18126D02*
D03*
X17132Y18136D02*
D03*
Y1559D02*
D03*
X2553Y1549D02*
D03*
X22238Y18126D02*
D03*
X36817Y18136D02*
D03*
Y1559D02*
D03*
X22238Y1549D02*
D03*
X36817Y-18126D02*
D03*
X22238Y-18136D02*
D03*
Y-1559D02*
D03*
X36817Y-1549D02*
D03*
X17132Y-18126D02*
D03*
X2553Y-18136D02*
D03*
Y-1559D02*
D03*
X17132Y-1549D02*
D03*
D77*
X8790Y3740D02*
D03*
X9490D02*
D03*
X10190D02*
D03*
X10890D02*
D03*
X9493Y4331D02*
D03*
X10193D02*
D03*
X28475Y3740D02*
D03*
X29175D02*
D03*
X29875D02*
D03*
X30575D02*
D03*
X29178Y4331D02*
D03*
X29878D02*
D03*
X30580Y-3740D02*
D03*
X29880D02*
D03*
X29180D02*
D03*
X28480D02*
D03*
X29878Y-4331D02*
D03*
X29178D02*
D03*
X10895Y-3740D02*
D03*
X10195D02*
D03*
X9495D02*
D03*
X8795D02*
D03*
X10193Y-4331D02*
D03*
X9493D02*
D03*
D78*
X12250Y16720D02*
D03*
X10872D02*
D03*
X31935D02*
D03*
X30557D02*
D03*
X27120Y-16720D02*
D03*
X28498D02*
D03*
X7435D02*
D03*
X8813D02*
D03*
D79*
X9536Y18101D02*
D03*
X8970D02*
D03*
X10686Y18099D02*
D03*
X29221Y18101D02*
D03*
X28655D02*
D03*
X30371Y18099D02*
D03*
X29834Y-18101D02*
D03*
X30400D02*
D03*
X28684Y-18099D02*
D03*
X10149Y-18101D02*
D03*
X10715D02*
D03*
X8999Y-18099D02*
D03*
D80*
X11390Y18431D02*
D03*
Y19321D02*
D03*
X8290Y18431D02*
D03*
Y19311D02*
D03*
X31075Y18431D02*
D03*
Y19321D02*
D03*
X27975Y18431D02*
D03*
Y19311D02*
D03*
X27980Y-18431D02*
D03*
Y-19321D02*
D03*
X31080Y-18431D02*
D03*
Y-19311D02*
D03*
X8295Y-18431D02*
D03*
Y-19321D02*
D03*
X11395Y-18431D02*
D03*
Y-19311D02*
D03*
D81*
X7460Y17250D02*
D03*
X8360D02*
D03*
X27145D02*
D03*
X28045D02*
D03*
X31910Y-17250D02*
D03*
X31010D02*
D03*
X12225D02*
D03*
X11325D02*
D03*
D82*
X13400Y14999D02*
D03*
Y13581D02*
D03*
X33085Y14999D02*
D03*
Y13581D02*
D03*
X25970Y-14999D02*
D03*
Y-13581D02*
D03*
X6285Y-14999D02*
D03*
Y-13581D02*
D03*
D83*
X7395Y6283D02*
D03*
X6725Y5457D02*
D03*
Y6283D02*
D03*
X7395Y5457D02*
D03*
X27080Y6283D02*
D03*
X26410Y5457D02*
D03*
Y6283D02*
D03*
X27080Y5457D02*
D03*
X31975Y-6283D02*
D03*
X32645Y-5457D02*
D03*
Y-6283D02*
D03*
X31975Y-5457D02*
D03*
X12290Y-6283D02*
D03*
X12960Y-5457D02*
D03*
Y-6283D02*
D03*
X12290Y-5457D02*
D03*
D84*
X5690Y8928D02*
D03*
Y9872D02*
D03*
Y9400D02*
D03*
X25375Y8928D02*
D03*
Y9872D02*
D03*
Y9400D02*
D03*
X33680Y-8928D02*
D03*
Y-9872D02*
D03*
Y-9400D02*
D03*
X13995Y-8928D02*
D03*
Y-9872D02*
D03*
Y-9400D02*
D03*
D85*
X16368Y13154D02*
D03*
X36053D02*
D03*
X23002Y-13154D02*
D03*
X3317D02*
D03*
D86*
X15383Y12779D02*
D03*
Y13529D02*
D03*
X35069Y12779D02*
D03*
Y13529D02*
D03*
X23987Y-12779D02*
D03*
Y-13529D02*
D03*
X4302Y-12779D02*
D03*
Y-13529D02*
D03*
D87*
X11516Y9744D02*
D03*
Y9941D02*
D03*
Y10532D02*
D03*
Y9547D02*
D03*
X8169Y9350D02*
D03*
Y8760D02*
D03*
Y8957D02*
D03*
Y9154D02*
D03*
Y9744D02*
D03*
Y9941D02*
D03*
Y10138D02*
D03*
Y10925D02*
D03*
X11516Y8760D02*
D03*
Y8957D02*
D03*
Y10138D02*
D03*
Y10335D02*
D03*
X31201Y9744D02*
D03*
Y9941D02*
D03*
Y10532D02*
D03*
Y9547D02*
D03*
X27854Y9350D02*
D03*
Y8760D02*
D03*
Y8957D02*
D03*
Y9154D02*
D03*
Y9744D02*
D03*
Y9941D02*
D03*
Y10138D02*
D03*
Y10925D02*
D03*
X31201Y8760D02*
D03*
Y8957D02*
D03*
Y10138D02*
D03*
Y10335D02*
D03*
X27854Y-9744D02*
D03*
Y-9941D02*
D03*
Y-10532D02*
D03*
Y-9547D02*
D03*
X31201Y-9350D02*
D03*
Y-8760D02*
D03*
Y-8957D02*
D03*
Y-9154D02*
D03*
Y-9744D02*
D03*
Y-9941D02*
D03*
Y-10138D02*
D03*
Y-10925D02*
D03*
X27854Y-8760D02*
D03*
Y-8957D02*
D03*
Y-10138D02*
D03*
Y-10335D02*
D03*
X8169Y-9744D02*
D03*
Y-9941D02*
D03*
Y-10532D02*
D03*
Y-9547D02*
D03*
X11516Y-9350D02*
D03*
Y-8760D02*
D03*
Y-8957D02*
D03*
Y-9154D02*
D03*
Y-9744D02*
D03*
Y-9941D02*
D03*
Y-10138D02*
D03*
Y-10925D02*
D03*
X8169Y-8760D02*
D03*
Y-8957D02*
D03*
Y-10138D02*
D03*
Y-10335D02*
D03*
D88*
X10335Y8169D02*
D03*
X10925Y11516D02*
D03*
X10531Y8169D02*
D03*
X9547D02*
D03*
X10728Y11516D02*
D03*
X9350Y8169D02*
D03*
X9154D02*
D03*
X8957D02*
D03*
X9547Y11516D02*
D03*
X8760D02*
D03*
X10925Y8169D02*
D03*
X10531Y11516D02*
D03*
X10335D02*
D03*
X10138D02*
D03*
Y8169D02*
D03*
X9941D02*
D03*
X9744D02*
D03*
X8760D02*
D03*
X9941Y11516D02*
D03*
X9744D02*
D03*
X9350D02*
D03*
X9154D02*
D03*
X30020Y8169D02*
D03*
X30610Y11516D02*
D03*
X30217Y8169D02*
D03*
X29232D02*
D03*
X30413Y11516D02*
D03*
X29035Y8169D02*
D03*
X28839D02*
D03*
X28642D02*
D03*
X29232Y11516D02*
D03*
X28445D02*
D03*
X30610Y8169D02*
D03*
X30217Y11516D02*
D03*
X30020D02*
D03*
X29823D02*
D03*
Y8169D02*
D03*
X29626D02*
D03*
X29429D02*
D03*
X28445D02*
D03*
X29626Y11516D02*
D03*
X29429D02*
D03*
X29035D02*
D03*
X28839D02*
D03*
X29035Y-8169D02*
D03*
X28445Y-11516D02*
D03*
X28839Y-8169D02*
D03*
X29823D02*
D03*
X28642Y-11516D02*
D03*
X30020Y-8169D02*
D03*
X30217D02*
D03*
X30413D02*
D03*
X29823Y-11516D02*
D03*
X30610D02*
D03*
X28445Y-8169D02*
D03*
X28839Y-11516D02*
D03*
X29035D02*
D03*
X29232D02*
D03*
Y-8169D02*
D03*
X29429D02*
D03*
X29626D02*
D03*
X30610D02*
D03*
X29429Y-11516D02*
D03*
X29626D02*
D03*
X30020D02*
D03*
X30217D02*
D03*
X9350Y-8169D02*
D03*
X8760Y-11516D02*
D03*
X9154Y-8169D02*
D03*
X10138D02*
D03*
X8957Y-11516D02*
D03*
X10335Y-8169D02*
D03*
X10532D02*
D03*
X10728D02*
D03*
X10138Y-11516D02*
D03*
X10925D02*
D03*
X8760Y-8169D02*
D03*
X9154Y-11516D02*
D03*
X9350D02*
D03*
X9547D02*
D03*
Y-8169D02*
D03*
X9744D02*
D03*
X9941D02*
D03*
X10925D02*
D03*
X9744Y-11516D02*
D03*
X9941D02*
D03*
X10335D02*
D03*
X10532D02*
D03*
D89*
X9055Y5906D02*
D03*
X10630Y5709D02*
D03*
Y6299D02*
D03*
X9055Y6102D02*
D03*
X10630Y5906D02*
D03*
Y6102D02*
D03*
Y5512D02*
D03*
X9055D02*
D03*
Y5709D02*
D03*
Y6299D02*
D03*
X28740Y5906D02*
D03*
X30315Y5709D02*
D03*
Y6299D02*
D03*
X28740Y6102D02*
D03*
X30315Y5906D02*
D03*
Y6102D02*
D03*
Y5512D02*
D03*
X28740D02*
D03*
Y5709D02*
D03*
Y6299D02*
D03*
X30315Y-5906D02*
D03*
X28740Y-5709D02*
D03*
Y-6299D02*
D03*
X30315Y-6102D02*
D03*
X28740Y-5906D02*
D03*
Y-6102D02*
D03*
Y-5512D02*
D03*
X30315D02*
D03*
Y-5709D02*
D03*
Y-6299D02*
D03*
X10630Y-5906D02*
D03*
X9055Y-5709D02*
D03*
Y-6299D02*
D03*
X10630Y-6102D02*
D03*
X9055Y-5906D02*
D03*
Y-6102D02*
D03*
Y-5512D02*
D03*
X10630D02*
D03*
Y-5709D02*
D03*
Y-6299D02*
D03*
D90*
X10039Y5118D02*
D03*
X10236D02*
D03*
X9843D02*
D03*
X9646D02*
D03*
X9449D02*
D03*
Y6693D02*
D03*
X9646D02*
D03*
X9843D02*
D03*
X10039D02*
D03*
X10236D02*
D03*
X29724Y5118D02*
D03*
X29921D02*
D03*
X29528D02*
D03*
X29331D02*
D03*
X29134D02*
D03*
Y6693D02*
D03*
X29331D02*
D03*
X29528D02*
D03*
X29724D02*
D03*
X29921D02*
D03*
X29331Y-5118D02*
D03*
X29134D02*
D03*
X29528D02*
D03*
X29724D02*
D03*
X29921D02*
D03*
Y-6693D02*
D03*
X29724D02*
D03*
X29528D02*
D03*
X29331D02*
D03*
X29134D02*
D03*
X9646Y-5118D02*
D03*
X9449D02*
D03*
X9843D02*
D03*
X10039D02*
D03*
X10236D02*
D03*
Y-6693D02*
D03*
X10039D02*
D03*
X9843D02*
D03*
X9646D02*
D03*
X9449D02*
D03*
D91*
X11516Y10728D02*
D03*
X8169Y9547D02*
D03*
X11516Y10925D02*
D03*
X8169Y10728D02*
D03*
Y10335D02*
D03*
Y10532D02*
D03*
X11516Y9154D02*
D03*
Y9350D02*
D03*
X31201Y10728D02*
D03*
X27854Y9547D02*
D03*
X31201Y10925D02*
D03*
X27854Y10728D02*
D03*
Y10335D02*
D03*
Y10532D02*
D03*
X31201Y9154D02*
D03*
Y9350D02*
D03*
X27854Y-10728D02*
D03*
X31201Y-9547D02*
D03*
X27854Y-10925D02*
D03*
X31201Y-10728D02*
D03*
Y-10335D02*
D03*
Y-10532D02*
D03*
X27854Y-9154D02*
D03*
Y-9350D02*
D03*
X8169Y-10728D02*
D03*
X11516Y-9547D02*
D03*
X8169Y-10925D02*
D03*
X11516Y-10728D02*
D03*
Y-10335D02*
D03*
Y-10532D02*
D03*
X8169Y-9154D02*
D03*
Y-9350D02*
D03*
D92*
X8957Y11516D02*
D03*
X10728Y8169D02*
D03*
X28642Y11516D02*
D03*
X30413Y8169D02*
D03*
X30413Y-11516D02*
D03*
X28642Y-8169D02*
D03*
X10728Y-11516D02*
D03*
X8957Y-8169D02*
D03*
D93*
X9843Y5906D02*
D03*
X29528D02*
D03*
X29528Y-5906D02*
D03*
X9843D02*
D03*
D94*
X40354Y-18701D02*
D03*
Y18701D02*
D03*
X-984D02*
D03*
Y-18701D02*
D03*
D95*
X1575Y1469D02*
D03*
Y8343D02*
D03*
Y7343D02*
D03*
Y11343D02*
D03*
Y12343D02*
D03*
Y15343D02*
D03*
Y9343D02*
D03*
Y6343D02*
D03*
Y5343D02*
D03*
Y10343D02*
D03*
Y13343D02*
D03*
Y14343D02*
D03*
X6480Y18720D02*
D03*
X18110Y15343D02*
D03*
Y14343D02*
D03*
Y13343D02*
D03*
Y12343D02*
D03*
Y11343D02*
D03*
Y10343D02*
D03*
Y5343D02*
D03*
Y6343D02*
D03*
Y7343D02*
D03*
Y8343D02*
D03*
Y9343D02*
D03*
Y1469D02*
D03*
Y18217D02*
D03*
X1575D02*
D03*
X21260Y1469D02*
D03*
Y8343D02*
D03*
Y7343D02*
D03*
Y11343D02*
D03*
Y12343D02*
D03*
Y15343D02*
D03*
Y9343D02*
D03*
Y6343D02*
D03*
Y5343D02*
D03*
Y10343D02*
D03*
Y13343D02*
D03*
Y14343D02*
D03*
X26165Y18720D02*
D03*
X37795Y15343D02*
D03*
Y14343D02*
D03*
Y13343D02*
D03*
Y12343D02*
D03*
Y11343D02*
D03*
Y10343D02*
D03*
Y5343D02*
D03*
Y6343D02*
D03*
Y7343D02*
D03*
Y8343D02*
D03*
Y9343D02*
D03*
Y1469D02*
D03*
Y18217D02*
D03*
X21260D02*
D03*
X37795Y-1469D02*
D03*
Y-8343D02*
D03*
Y-7343D02*
D03*
Y-11343D02*
D03*
Y-12343D02*
D03*
Y-15343D02*
D03*
Y-9343D02*
D03*
Y-6343D02*
D03*
Y-5343D02*
D03*
Y-10343D02*
D03*
Y-13343D02*
D03*
Y-14343D02*
D03*
X32890Y-18720D02*
D03*
X21260Y-15343D02*
D03*
Y-14343D02*
D03*
Y-13343D02*
D03*
Y-12343D02*
D03*
Y-11343D02*
D03*
Y-10343D02*
D03*
Y-5343D02*
D03*
Y-6343D02*
D03*
Y-7343D02*
D03*
Y-8343D02*
D03*
Y-9343D02*
D03*
Y-1469D02*
D03*
Y-18217D02*
D03*
X37795D02*
D03*
X18110Y-1469D02*
D03*
Y-8343D02*
D03*
Y-7343D02*
D03*
Y-11343D02*
D03*
Y-12343D02*
D03*
Y-15343D02*
D03*
Y-9343D02*
D03*
Y-6343D02*
D03*
Y-5343D02*
D03*
Y-10343D02*
D03*
Y-13343D02*
D03*
Y-14343D02*
D03*
X13205Y-18720D02*
D03*
X1575Y-15343D02*
D03*
Y-14343D02*
D03*
Y-13343D02*
D03*
Y-12343D02*
D03*
Y-11343D02*
D03*
Y-10343D02*
D03*
Y-5343D02*
D03*
Y-6343D02*
D03*
Y-7343D02*
D03*
Y-8343D02*
D03*
Y-9343D02*
D03*
Y-1469D02*
D03*
Y-18217D02*
D03*
X18110D02*
D03*
D96*
X1575Y2468D02*
D03*
Y4343D02*
D03*
X18110D02*
D03*
Y2468D02*
D03*
Y17217D02*
D03*
X1575D02*
D03*
X21260Y2468D02*
D03*
Y4343D02*
D03*
X37795D02*
D03*
Y2468D02*
D03*
Y17217D02*
D03*
X21260D02*
D03*
X37795Y-2468D02*
D03*
Y-4343D02*
D03*
X21260D02*
D03*
Y-2468D02*
D03*
Y-17217D02*
D03*
X37795D02*
D03*
X18110Y-2468D02*
D03*
Y-4343D02*
D03*
X1575D02*
D03*
Y-2468D02*
D03*
Y-17217D02*
D03*
X18110D02*
D03*
D97*
X5480Y18720D02*
D03*
X25165D02*
D03*
X33890Y-18720D02*
D03*
X14205D02*
D03*
M02*
