M48
;Layer_Color=9474304
;FILE_FORMAT=2:4
INCH,LZ
;TYPE=PLATED
T1F00S00C0.0120
T2F00S00C0.0354
T3F00S00C0.0600
;TYPE=NON_PLATED
T4F00S00C0.0256
T5F00S00C0.1181
%
T01
X046945Y028467
X047381Y028896
X048041Y028476
X048367Y029384
X048991Y027196
X052031Y027206
X052291
X051511Y027796
X051801Y03005
X052061
X055831Y029656
X056091
X056001Y025196
X052701Y025206
X046701Y028022
X045938Y028028
X043801Y028456
X04335Y028028
X038902Y029469
X03845Y029041
X036314Y029469
X03555Y029475
X035307Y02903
X03487Y028601
X03421Y029021
X033884Y028113
X03326Y030301
X03022Y030291
X02996
X03074Y029701
X03045Y027447
X03019
X02642Y027841
X02616
X02625Y032301
X02955Y032291
X03019Y036502
X03045
X03074Y038756
X03022Y039346
X02996
X02955Y041346
X02625Y041356
X02616Y036896
X02642
X033884Y037168
X03421Y038076
X03487Y037656
X035307Y038085
X03555Y03853
X036314Y038525
X03845Y038096
X038902Y038525
X04335Y037083
X043801Y037511
X045938Y037083
X046701Y037077
X03326Y039356
X046945Y037522
X047381Y037951
X048041Y037531
X048367Y038439
X048991Y036251
X052031Y036261
X052291
X051511Y036851
X051801Y039105
X052061
X055831Y038711
X056091
X056001Y034251
X052701Y034261
T02
X047151Y025261
X048151
X049151
X050151
X051151
X046151
X045151
X044151
X043151
X042151
X042081Y027251
Y028251
Y029251
Y030251
X04017Y030246
Y029246
Y028246
Y027246
X0401Y025205
X0391
X0381
X0371
X0361
X0351
X0341
X0331
X0321
X0311
Y032237
Y034261
Y041292
X0321
X0331
X0341
X0351
X0361
X0371
X0381
X0391
X0401
X04017Y039301
Y038301
Y037301
Y036301
X042081Y036306
Y037306
Y038306
Y039306
X042151Y041347
X043151
X044151
X045151
X046151
Y034316
X045151
X044151
X043151
X042151
Y032292
X043151
X044151
X045151
X046151
X0401Y032237
X0391
X0381
X0371
X0361
X0351
X0341
X0331
X0321
Y034261
X0331
X0341
X0351
X0361
X0371
X0381
X0391
X0401
X047151Y034316
X048151
X049151
X050151
X051151
Y032292
X050151
X049151
X048151
X047151
Y041347
X048151
X049151
X050151
X051151
T03
X057641Y025246
X02459Y025191
X02461Y032251
X02459Y034246
X02461Y041306
X057661Y041361
X057641Y034301
X057661Y032306
T04
X056845Y027941
Y029516
X025406Y029556
Y027981
Y037036
Y038611
X056845Y038571
Y036996
T05
X057852Y023237
X024384Y023161
X024399Y043316
X057867Y043392
M30
