G04*
G04 #@! TF.GenerationSoftware,Altium Limited,Altium Designer,21.2.2 (38)*
G04*
G04 Layer_Color=16711935*
%FSLAX24Y24*%
%MOIN*%
G70*
G04*
G04 #@! TF.SameCoordinates,4FF2B1F3-0D2B-4292-BC26-430B10DD4990*
G04*
G04*
G04 #@! TF.FilePolarity,Positive*
G04*
G01*
G75*
%ADD11C,0.0100*%
%ADD12C,0.0050*%
%ADD13C,0.0060*%
%ADD64C,0.0060*%
D11*
X41117Y23541D02*
Y24515D01*
X23400Y23541D02*
Y24515D01*
X34208Y23641D02*
X41117D01*
X23400D02*
X29989D01*
X40517Y23841D02*
X41117Y23641D01*
X40517Y23441D02*
X41117Y23641D01*
X23400D02*
X24000Y23441D01*
X23400Y23641D02*
X24000Y23841D01*
X22210Y24221D02*
X23694D01*
X22210Y33276D02*
X23694D01*
X22310Y24221D02*
Y26479D01*
Y30698D02*
Y33276D01*
Y24221D02*
X22510Y24821D01*
X22110D02*
X22310Y24221D01*
X22110Y32676D02*
X22310Y33276D01*
X22510Y32676D01*
X41117Y32596D02*
Y33570D01*
X23400Y32596D02*
Y33570D01*
X34208Y32696D02*
X41117D01*
X23400D02*
X29989D01*
X40517Y32896D02*
X41117Y32696D01*
X40517Y32496D02*
X41117Y32696D01*
X23400D02*
X24000Y32496D01*
X23400Y32696D02*
X24000Y32896D01*
X22210Y33276D02*
X23694D01*
X22210Y42331D02*
X23694D01*
X22310Y33276D02*
Y35534D01*
Y39753D02*
Y42331D01*
Y33276D02*
X22510Y33876D01*
X22110D02*
X22310Y33276D01*
X22110Y41731D02*
X22310Y42331D01*
X22510Y41731D01*
X41135Y43011D02*
Y42038D01*
X58851Y43011D02*
Y42038D01*
X48044Y42911D02*
X41135D01*
X58851D02*
X52263D01*
X41735Y42711D02*
X41135Y42911D01*
X41735Y43111D02*
X41135Y42911D01*
X58851D02*
X58251Y43111D01*
X58851Y42911D02*
X58251Y42711D01*
X60041Y42331D02*
X58558D01*
X60041Y33276D02*
X58558D01*
X59941Y42331D02*
Y40073D01*
Y35854D02*
Y33276D01*
Y42331D02*
X59741Y41731D01*
X60141D02*
X59941Y42331D01*
X60141Y33876D02*
X59941Y33276D01*
X59741Y33876D01*
X41135Y33956D02*
Y32983D01*
X58851Y33956D02*
Y32983D01*
X48044Y33856D02*
X41135D01*
X58851D02*
X52263D01*
X41735Y33656D02*
X41135Y33856D01*
X41735Y34056D02*
X41135Y33856D01*
X58851D02*
X58251Y34056D01*
X58851Y33856D02*
X58251Y33656D01*
X60041Y33276D02*
X58558D01*
X60041Y24221D02*
X58558D01*
X59941Y33276D02*
Y31018D01*
Y26799D02*
Y24221D01*
Y33276D02*
X59741Y32676D01*
X60141D02*
X59941Y33276D01*
X60141Y24821D02*
X59941Y24221D01*
X59741Y24821D01*
D12*
X23410Y45110D02*
Y45410D01*
X23510Y45310D01*
X23610Y45410D01*
Y45110D01*
X23860D02*
X23760D01*
X23710Y45160D01*
Y45260D01*
X23760Y45310D01*
X23860D01*
X23910Y45260D01*
Y45210D01*
X23710D01*
X24210Y45310D02*
X24060D01*
X24010Y45260D01*
Y45160D01*
X24060Y45110D01*
X24210D01*
X24310Y45410D02*
Y45110D01*
Y45260D01*
X24360Y45310D01*
X24460D01*
X24510Y45260D01*
Y45110D01*
X24660Y45310D02*
X24760D01*
X24810Y45260D01*
Y45110D01*
X24660D01*
X24610Y45160D01*
X24660Y45210D01*
X24810D01*
X24910Y45110D02*
Y45310D01*
X25059D01*
X25109Y45260D01*
Y45110D01*
X25209D02*
X25309D01*
X25259D01*
Y45310D01*
X25209D01*
X25659D02*
X25509D01*
X25459Y45260D01*
Y45160D01*
X25509Y45110D01*
X25659D01*
X25809Y45310D02*
X25909D01*
X25959Y45260D01*
Y45110D01*
X25809D01*
X25759Y45160D01*
X25809Y45210D01*
X25959D01*
X26059Y45110D02*
X26159D01*
X26109D01*
Y45410D01*
X26059D01*
X26609Y45110D02*
X26709D01*
X26659D01*
Y45410D01*
X26609Y45360D01*
D13*
X23415Y44376D02*
X58851D01*
Y42331D02*
Y44376D01*
X23415Y42331D02*
X58851D01*
X23415D02*
Y44376D01*
X58836Y22177D02*
Y24221D01*
X23400D02*
X58836D01*
X23400Y22177D02*
Y24221D01*
Y22177D02*
X58836D01*
X23400Y24615D02*
Y32883D01*
X23794Y24221D02*
X40723D01*
X23794Y33276D02*
X40723D01*
X41117Y24615D02*
Y32883D01*
X30449Y23281D02*
Y23881D01*
X30149Y23581D01*
X30549D01*
X31149Y23881D02*
X30749D01*
Y23581D01*
X30949Y23681D01*
X31049D01*
X31149Y23581D01*
Y23381D01*
X31049Y23281D01*
X30849D01*
X30749Y23381D01*
X31349Y23281D02*
Y23381D01*
X31448D01*
Y23281D01*
X31349D01*
X31848Y23781D02*
X31948Y23881D01*
X32148D01*
X32248Y23781D01*
Y23381D01*
X32148Y23281D01*
X31948D01*
X31848Y23381D01*
Y23781D01*
X32448D02*
X32548Y23881D01*
X32748D01*
X32848Y23781D01*
Y23381D01*
X32748Y23281D01*
X32548D01*
X32448Y23381D01*
Y23781D01*
X33048Y23281D02*
Y23681D01*
X33148D01*
X33248Y23581D01*
Y23281D01*
Y23581D01*
X33348Y23681D01*
X33448Y23581D01*
Y23281D01*
X33648D02*
Y23681D01*
X33748D01*
X33848Y23581D01*
Y23281D01*
Y23581D01*
X33948Y23681D01*
X34048Y23581D01*
Y23281D01*
X22670Y27039D02*
Y26639D01*
X22270Y27039D01*
X22170D01*
X22070Y26939D01*
Y26739D01*
X22170Y26639D01*
Y27239D02*
X22070Y27339D01*
Y27539D01*
X22170Y27639D01*
X22270D01*
X22370Y27539D01*
Y27439D01*
Y27539D01*
X22470Y27639D01*
X22570D01*
X22670Y27539D01*
Y27339D01*
X22570Y27239D01*
X22670Y27839D02*
X22570D01*
Y27939D01*
X22670D01*
Y27839D01*
X22170Y28339D02*
X22070Y28439D01*
Y28639D01*
X22170Y28739D01*
X22570D01*
X22670Y28639D01*
Y28439D01*
X22570Y28339D01*
X22170D01*
Y28939D02*
X22070Y29039D01*
Y29238D01*
X22170Y29338D01*
X22570D01*
X22670Y29238D01*
Y29039D01*
X22570Y28939D01*
X22170D01*
X22670Y29538D02*
X22270D01*
Y29638D01*
X22370Y29738D01*
X22670D01*
X22370D01*
X22270Y29838D01*
X22370Y29938D01*
X22670D01*
Y30138D02*
X22270D01*
Y30238D01*
X22370Y30338D01*
X22670D01*
X22370D01*
X22270Y30438D01*
X22370Y30538D01*
X22670D01*
X23400Y33670D02*
Y41938D01*
X23794Y33276D02*
X40723D01*
X23794Y42331D02*
X40723D01*
X41117Y33670D02*
Y41938D01*
X30449Y32336D02*
Y32936D01*
X30149Y32636D01*
X30549D01*
X31149Y32936D02*
X30749D01*
Y32636D01*
X30949Y32736D01*
X31049D01*
X31149Y32636D01*
Y32436D01*
X31049Y32336D01*
X30849D01*
X30749Y32436D01*
X31349Y32336D02*
Y32436D01*
X31448D01*
Y32336D01*
X31349D01*
X31848Y32836D02*
X31948Y32936D01*
X32148D01*
X32248Y32836D01*
Y32436D01*
X32148Y32336D01*
X31948D01*
X31848Y32436D01*
Y32836D01*
X32448D02*
X32548Y32936D01*
X32748D01*
X32848Y32836D01*
Y32436D01*
X32748Y32336D01*
X32548D01*
X32448Y32436D01*
Y32836D01*
X33048Y32336D02*
Y32736D01*
X33148D01*
X33248Y32636D01*
Y32336D01*
Y32636D01*
X33348Y32736D01*
X33448Y32636D01*
Y32336D01*
X33648D02*
Y32736D01*
X33748D01*
X33848Y32636D01*
Y32336D01*
Y32636D01*
X33948Y32736D01*
X34048Y32636D01*
Y32336D01*
X22670Y36094D02*
Y35694D01*
X22270Y36094D01*
X22170D01*
X22070Y35994D01*
Y35794D01*
X22170Y35694D01*
Y36294D02*
X22070Y36394D01*
Y36594D01*
X22170Y36694D01*
X22270D01*
X22370Y36594D01*
Y36494D01*
Y36594D01*
X22470Y36694D01*
X22570D01*
X22670Y36594D01*
Y36394D01*
X22570Y36294D01*
X22670Y36894D02*
X22570D01*
Y36994D01*
X22670D01*
Y36894D01*
X22170Y37394D02*
X22070Y37494D01*
Y37694D01*
X22170Y37794D01*
X22570D01*
X22670Y37694D01*
Y37494D01*
X22570Y37394D01*
X22170D01*
Y37994D02*
X22070Y38094D01*
Y38294D01*
X22170Y38394D01*
X22570D01*
X22670Y38294D01*
Y38094D01*
X22570Y37994D01*
X22170D01*
X22670Y38594D02*
X22270D01*
Y38693D01*
X22370Y38793D01*
X22670D01*
X22370D01*
X22270Y38893D01*
X22370Y38993D01*
X22670D01*
Y39193D02*
X22270D01*
Y39293D01*
X22370Y39393D01*
X22670D01*
X22370D01*
X22270Y39493D01*
X22370Y39593D01*
X22670D01*
X58851Y41938D02*
Y33670D01*
X58458Y42331D02*
X41529D01*
X58458Y33276D02*
X41529D01*
X41135Y41938D02*
Y33670D01*
X51803Y43271D02*
Y42671D01*
X52103Y42971D01*
X51703D01*
X51103Y42671D02*
X51503D01*
Y42971D01*
X51303Y42871D01*
X51203D01*
X51103Y42971D01*
Y43171D01*
X51203Y43271D01*
X51403D01*
X51503Y43171D01*
X50903Y43271D02*
Y43171D01*
X50803D01*
Y43271D01*
X50903D01*
X50403Y42771D02*
X50303Y42671D01*
X50103D01*
X50003Y42771D01*
Y43171D01*
X50103Y43271D01*
X50303D01*
X50403Y43171D01*
Y42771D01*
X49803D02*
X49703Y42671D01*
X49503D01*
X49403Y42771D01*
Y43171D01*
X49503Y43271D01*
X49703D01*
X49803Y43171D01*
Y42771D01*
X49203Y43271D02*
Y42871D01*
X49103D01*
X49004Y42971D01*
Y43271D01*
Y42971D01*
X48904Y42871D01*
X48804Y42971D01*
Y43271D01*
X48604D02*
Y42871D01*
X48504D01*
X48404Y42971D01*
Y43271D01*
Y42971D01*
X48304Y42871D01*
X48204Y42971D01*
Y43271D01*
X59581Y39513D02*
Y39913D01*
X59981Y39513D01*
X60081D01*
X60181Y39613D01*
Y39813D01*
X60081Y39913D01*
Y39313D02*
X60181Y39213D01*
Y39013D01*
X60081Y38914D01*
X59981D01*
X59881Y39013D01*
Y39113D01*
Y39013D01*
X59781Y38914D01*
X59681D01*
X59581Y39013D01*
Y39213D01*
X59681Y39313D01*
X59581Y38714D02*
X59681D01*
Y38614D01*
X59581D01*
Y38714D01*
X60081Y38214D02*
X60181Y38114D01*
Y37914D01*
X60081Y37814D01*
X59681D01*
X59581Y37914D01*
Y38114D01*
X59681Y38214D01*
X60081D01*
Y37614D02*
X60181Y37514D01*
Y37314D01*
X60081Y37214D01*
X59681D01*
X59581Y37314D01*
Y37514D01*
X59681Y37614D01*
X60081D01*
X59581Y37014D02*
X59981D01*
Y36914D01*
X59881Y36814D01*
X59581D01*
X59881D01*
X59981Y36714D01*
X59881Y36614D01*
X59581D01*
Y36414D02*
X59981D01*
Y36314D01*
X59881Y36214D01*
X59581D01*
X59881D01*
X59981Y36114D01*
X59881Y36014D01*
X59581D01*
X58851Y32883D02*
Y24615D01*
X58458Y33276D02*
X41529D01*
X58458Y24221D02*
X41529D01*
X41135Y32883D02*
Y24615D01*
X51803Y34216D02*
Y33616D01*
X52103Y33916D01*
X51703D01*
X51103Y33616D02*
X51503D01*
Y33916D01*
X51303Y33816D01*
X51203D01*
X51103Y33916D01*
Y34116D01*
X51203Y34216D01*
X51403D01*
X51503Y34116D01*
X50903Y34216D02*
Y34116D01*
X50803D01*
Y34216D01*
X50903D01*
X50403Y33716D02*
X50303Y33616D01*
X50103D01*
X50003Y33716D01*
Y34116D01*
X50103Y34216D01*
X50303D01*
X50403Y34116D01*
Y33716D01*
X49803D02*
X49703Y33616D01*
X49503D01*
X49403Y33716D01*
Y34116D01*
X49503Y34216D01*
X49703D01*
X49803Y34116D01*
Y33716D01*
X49203Y34216D02*
Y33816D01*
X49103D01*
X49004Y33916D01*
Y34216D01*
Y33916D01*
X48904Y33816D01*
X48804Y33916D01*
Y34216D01*
X48604D02*
Y33816D01*
X48504D01*
X48404Y33916D01*
Y34216D01*
Y33916D01*
X48304Y33816D01*
X48204Y33916D01*
Y34216D01*
X59581Y30458D02*
Y30858D01*
X59981Y30458D01*
X60081D01*
X60181Y30558D01*
Y30758D01*
X60081Y30858D01*
Y30258D02*
X60181Y30158D01*
Y29958D01*
X60081Y29858D01*
X59981D01*
X59881Y29958D01*
Y30058D01*
Y29958D01*
X59781Y29858D01*
X59681D01*
X59581Y29958D01*
Y30158D01*
X59681Y30258D01*
X59581Y29658D02*
X59681D01*
Y29558D01*
X59581D01*
Y29658D01*
X60081Y29159D02*
X60181Y29059D01*
Y28859D01*
X60081Y28759D01*
X59681D01*
X59581Y28859D01*
Y29059D01*
X59681Y29159D01*
X60081D01*
Y28559D02*
X60181Y28459D01*
Y28259D01*
X60081Y28159D01*
X59681D01*
X59581Y28259D01*
Y28459D01*
X59681Y28559D01*
X60081D01*
X59581Y27959D02*
X59981D01*
Y27859D01*
X59881Y27759D01*
X59581D01*
X59881D01*
X59981Y27659D01*
X59881Y27559D01*
X59581D01*
Y27359D02*
X59981D01*
Y27259D01*
X59881Y27159D01*
X59581D01*
X59881D01*
X59981Y27059D01*
X59881Y26959D01*
X59581D01*
D64*
X40723Y24221D02*
G03*
X41117Y24615I0J394D01*
G01*
X41117Y32883D02*
G03*
X40723Y33276I-394J0D01*
G01*
X23794D02*
G03*
X23400Y32883I0J-394D01*
G01*
Y24615D02*
G03*
X23794Y24221I394J0D01*
G01*
X40723Y33276D02*
G03*
X41117Y33670I0J394D01*
G01*
X41117Y41938D02*
G03*
X40723Y42331I-394J0D01*
G01*
X23794D02*
G03*
X23400Y41938I0J-394D01*
G01*
Y33670D02*
G03*
X23794Y33276I394J0D01*
G01*
X41529Y42331D02*
G03*
X41135Y41938I0J-394D01*
G01*
X41135Y33670D02*
G03*
X41529Y33276I394J0D01*
G01*
X58458D02*
G03*
X58851Y33670I0J394D01*
G01*
Y41938D02*
G03*
X58458Y42331I-394J0D01*
G01*
X41529Y33276D02*
G03*
X41135Y32883I0J-394D01*
G01*
X41135Y24615D02*
G03*
X41529Y24221I394J0D01*
G01*
X58458D02*
G03*
X58851Y24615I0J394D01*
G01*
Y32883D02*
G03*
X58458Y33276I-394J0D01*
G01*
M02*
