G04*
G04 #@! TF.GenerationSoftware,Altium Limited,Altium Designer,21.2.2 (38)*
G04*
G04 Layer_Physical_Order=2*
G04 Layer_Color=16711680*
%FSLAX24Y24*%
%MOIN*%
G70*
G04*
G04 #@! TF.SameCoordinates,4FF2B1F3-0D2B-4292-BC26-430B10DD4990*
G04*
G04*
G04 #@! TF.FilePolarity,Positive*
G04*
G01*
G75*
%ADD11C,0.0100*%
%ADD12C,0.0050*%
%ADD13C,0.0060*%
%ADD23C,0.0200*%
%ADD24C,0.0150*%
%ADD35C,0.1181*%
%ADD36R,0.1000X0.1000*%
%ADD37R,0.0669X0.0669*%
%ADD38C,0.0669*%
%ADD39R,0.0669X0.0669*%
%ADD40C,0.0256*%
%ADD41C,0.0240*%
G36*
X58458Y42199D02*
X58525Y42190D01*
X58588Y42164D01*
X58642Y42122D01*
X58684Y42068D01*
X58710Y42005D01*
X58719Y41938D01*
X58719D01*
Y33670D01*
X58719D01*
X58710Y33602D01*
X58684Y33539D01*
X58642Y33485D01*
X58588Y33444D01*
X58525Y33418D01*
X58458Y33409D01*
Y33409D01*
X41529D01*
Y33409D01*
X41461Y33418D01*
X41398Y33444D01*
X41344Y33485D01*
X41303Y33539D01*
X41276Y33602D01*
X41268Y33670D01*
X41267D01*
Y41938D01*
X41268D01*
X41276Y42005D01*
X41303Y42068D01*
X41344Y42122D01*
X41398Y42164D01*
X41461Y42190D01*
X41529Y42199D01*
Y42199D01*
X58458D01*
Y42199D01*
D02*
G37*
G36*
X40723D02*
X40790Y42190D01*
X40853Y42164D01*
X40907Y42122D01*
X40949Y42068D01*
X40975Y42005D01*
X40984Y41938D01*
X40984D01*
Y33670D01*
X40984D01*
X40975Y33602D01*
X40949Y33539D01*
X40907Y33485D01*
X40853Y33444D01*
X40790Y33418D01*
X40723Y33409D01*
Y33409D01*
X23794D01*
Y33409D01*
X23726Y33418D01*
X23663Y33444D01*
X23609Y33485D01*
X23568Y33539D01*
X23542Y33602D01*
X23533Y33670D01*
X23533D01*
Y41938D01*
X23533D01*
X23542Y42005D01*
X23568Y42068D01*
X23609Y42122D01*
X23663Y42164D01*
X23726Y42190D01*
X23794Y42199D01*
Y42199D01*
X40723D01*
Y42199D01*
D02*
G37*
G36*
X58458Y33144D02*
X58525Y33135D01*
X58588Y33109D01*
X58642Y33067D01*
X58684Y33013D01*
X58710Y32950D01*
X58719Y32883D01*
X58719D01*
Y24615D01*
X58719D01*
X58710Y24547D01*
X58684Y24484D01*
X58642Y24430D01*
X58588Y24389D01*
X58525Y24363D01*
X58458Y24354D01*
Y24354D01*
X41529D01*
Y24354D01*
X41461Y24363D01*
X41398Y24389D01*
X41344Y24430D01*
X41303Y24484D01*
X41276Y24547D01*
X41268Y24615D01*
X41267D01*
Y32883D01*
X41268D01*
X41276Y32950D01*
X41303Y33013D01*
X41344Y33067D01*
X41398Y33109D01*
X41461Y33135D01*
X41529Y33144D01*
Y33144D01*
X58458D01*
Y33144D01*
D02*
G37*
G36*
X40723D02*
X40790Y33135D01*
X40853Y33109D01*
X40907Y33067D01*
X40949Y33013D01*
X40975Y32950D01*
X40984Y32883D01*
X40984D01*
Y24615D01*
X40984D01*
X40975Y24547D01*
X40949Y24484D01*
X40907Y24430D01*
X40853Y24389D01*
X40790Y24363D01*
X40723Y24354D01*
Y24354D01*
X23794D01*
Y24354D01*
X23726Y24363D01*
X23663Y24389D01*
X23609Y24430D01*
X23568Y24484D01*
X23542Y24547D01*
X23533Y24615D01*
X23533D01*
Y32883D01*
X23533D01*
X23542Y32950D01*
X23568Y33013D01*
X23609Y33067D01*
X23663Y33109D01*
X23726Y33135D01*
X23794Y33144D01*
Y33144D01*
X40723D01*
Y33144D01*
D02*
G37*
%LPC*%
G36*
X58261Y41961D02*
X57761D01*
Y41461D01*
X58261D01*
Y41961D01*
D02*
G37*
G36*
X57561D02*
X57061D01*
Y41461D01*
X57561D01*
Y41961D01*
D02*
G37*
G36*
X51209Y41782D02*
X51094D01*
X50984Y41752D01*
X50885Y41695D01*
X50804Y41614D01*
X50746Y41515D01*
X50717Y41404D01*
Y41290D01*
X50746Y41179D01*
X50804Y41080D01*
X50885Y40999D01*
X50984Y40942D01*
X51094Y40912D01*
X51209D01*
X51319Y40942D01*
X51418Y40999D01*
X51499Y41080D01*
X51556Y41179D01*
X51586Y41290D01*
Y41404D01*
X51556Y41515D01*
X51499Y41614D01*
X51418Y41695D01*
X51319Y41752D01*
X51209Y41782D01*
D02*
G37*
G36*
X50209D02*
X50094D01*
X49984Y41752D01*
X49885Y41695D01*
X49804Y41614D01*
X49746Y41515D01*
X49717Y41404D01*
Y41290D01*
X49746Y41179D01*
X49804Y41080D01*
X49885Y40999D01*
X49984Y40942D01*
X50094Y40912D01*
X50209D01*
X50319Y40942D01*
X50418Y40999D01*
X50499Y41080D01*
X50556Y41179D01*
X50586Y41290D01*
Y41404D01*
X50556Y41515D01*
X50499Y41614D01*
X50418Y41695D01*
X50319Y41752D01*
X50209Y41782D01*
D02*
G37*
G36*
X49209D02*
X49094D01*
X48984Y41752D01*
X48885Y41695D01*
X48804Y41614D01*
X48746Y41515D01*
X48717Y41404D01*
Y41290D01*
X48746Y41179D01*
X48804Y41080D01*
X48885Y40999D01*
X48984Y40942D01*
X49094Y40912D01*
X49209D01*
X49319Y40942D01*
X49418Y40999D01*
X49499Y41080D01*
X49556Y41179D01*
X49586Y41290D01*
Y41404D01*
X49556Y41515D01*
X49499Y41614D01*
X49418Y41695D01*
X49319Y41752D01*
X49209Y41782D01*
D02*
G37*
G36*
X48209D02*
X48094D01*
X47984Y41752D01*
X47885Y41695D01*
X47804Y41614D01*
X47746Y41515D01*
X47717Y41404D01*
Y41290D01*
X47746Y41179D01*
X47804Y41080D01*
X47885Y40999D01*
X47984Y40942D01*
X48094Y40912D01*
X48209D01*
X48319Y40942D01*
X48418Y40999D01*
X48499Y41080D01*
X48556Y41179D01*
X48586Y41290D01*
Y41404D01*
X48556Y41515D01*
X48499Y41614D01*
X48418Y41695D01*
X48319Y41752D01*
X48209Y41782D01*
D02*
G37*
G36*
X47209D02*
X47094D01*
X46984Y41752D01*
X46885Y41695D01*
X46804Y41614D01*
X46746Y41515D01*
X46717Y41404D01*
Y41290D01*
X46746Y41179D01*
X46804Y41080D01*
X46885Y40999D01*
X46984Y40942D01*
X47094Y40912D01*
X47209D01*
X47319Y40942D01*
X47418Y40999D01*
X47499Y41080D01*
X47556Y41179D01*
X47586Y41290D01*
Y41404D01*
X47556Y41515D01*
X47499Y41614D01*
X47418Y41695D01*
X47319Y41752D01*
X47209Y41782D01*
D02*
G37*
G36*
X46209D02*
X46094D01*
X45984Y41752D01*
X45885Y41695D01*
X45804Y41614D01*
X45746Y41515D01*
X45717Y41404D01*
Y41290D01*
X45746Y41179D01*
X45804Y41080D01*
X45885Y40999D01*
X45984Y40942D01*
X46094Y40912D01*
X46209D01*
X46319Y40942D01*
X46418Y40999D01*
X46499Y41080D01*
X46556Y41179D01*
X46586Y41290D01*
Y41404D01*
X46556Y41515D01*
X46499Y41614D01*
X46418Y41695D01*
X46319Y41752D01*
X46209Y41782D01*
D02*
G37*
G36*
X45209D02*
X45094D01*
X44984Y41752D01*
X44885Y41695D01*
X44804Y41614D01*
X44746Y41515D01*
X44717Y41404D01*
Y41290D01*
X44746Y41179D01*
X44804Y41080D01*
X44885Y40999D01*
X44984Y40942D01*
X45094Y40912D01*
X45209D01*
X45319Y40942D01*
X45418Y40999D01*
X45499Y41080D01*
X45556Y41179D01*
X45586Y41290D01*
Y41404D01*
X45556Y41515D01*
X45499Y41614D01*
X45418Y41695D01*
X45319Y41752D01*
X45209Y41782D01*
D02*
G37*
G36*
X44209D02*
X44094D01*
X43984Y41752D01*
X43885Y41695D01*
X43804Y41614D01*
X43746Y41515D01*
X43717Y41404D01*
Y41290D01*
X43746Y41179D01*
X43804Y41080D01*
X43885Y40999D01*
X43984Y40942D01*
X44094Y40912D01*
X44209D01*
X44319Y40942D01*
X44418Y40999D01*
X44499Y41080D01*
X44556Y41179D01*
X44586Y41290D01*
Y41404D01*
X44556Y41515D01*
X44499Y41614D01*
X44418Y41695D01*
X44319Y41752D01*
X44209Y41782D01*
D02*
G37*
G36*
X43209D02*
X43094D01*
X42984Y41752D01*
X42885Y41695D01*
X42804Y41614D01*
X42746Y41515D01*
X42717Y41404D01*
Y41290D01*
X42746Y41179D01*
X42804Y41080D01*
X42885Y40999D01*
X42984Y40942D01*
X43094Y40912D01*
X43209D01*
X43319Y40942D01*
X43418Y40999D01*
X43499Y41080D01*
X43556Y41179D01*
X43586Y41290D01*
Y41404D01*
X43556Y41515D01*
X43499Y41614D01*
X43418Y41695D01*
X43319Y41752D01*
X43209Y41782D01*
D02*
G37*
G36*
X42586D02*
X41717D01*
Y40912D01*
X42586D01*
Y41782D01*
D02*
G37*
G36*
X58261Y41261D02*
X57761D01*
Y40761D01*
X58261D01*
Y41261D01*
D02*
G37*
G36*
X57561D02*
X57061D01*
Y40761D01*
X57561D01*
Y41261D01*
D02*
G37*
G36*
X52097Y39285D02*
X52025D01*
X52022Y39284D01*
X51841D01*
X51837Y39285D01*
X51765D01*
X51699Y39258D01*
X51649Y39207D01*
X51647Y39203D01*
X51426Y38982D01*
X48234D01*
X48165Y38968D01*
X48107Y38930D01*
X47333Y38155D01*
X44241D01*
X44163Y38140D01*
X44097Y38096D01*
X43657Y37656D01*
X43613Y37589D01*
X43597Y37511D01*
X43613Y37433D01*
X43657Y37367D01*
X43723Y37323D01*
X43801Y37307D01*
X43879Y37323D01*
X43946Y37367D01*
X44326Y37747D01*
X46840D01*
X46882Y37697D01*
X46881Y37692D01*
X46877Y37689D01*
X46843Y37675D01*
X46792Y37624D01*
X46765Y37558D01*
Y37486D01*
X46766Y37482D01*
X46739Y37440D01*
X46162D01*
X46112Y37430D01*
X46069Y37401D01*
X45930Y37263D01*
X45902D01*
X45836Y37236D01*
X45785Y37185D01*
X45758Y37119D01*
Y37047D01*
X45785Y36981D01*
X45836Y36930D01*
X45902Y36903D01*
X45973D01*
X46040Y36930D01*
X46090Y36981D01*
X46118Y37047D01*
Y37076D01*
X46217Y37175D01*
X47445D01*
X48463Y36158D01*
X48506Y36129D01*
X48556Y36119D01*
X48869D01*
X48889Y36099D01*
X48956Y36071D01*
X49027D01*
X49093Y36099D01*
X49144Y36149D01*
X49171Y36216D01*
Y36287D01*
X49144Y36353D01*
X49093Y36404D01*
X49027Y36431D01*
X48956D01*
X48889Y36404D01*
X48869Y36384D01*
X48611D01*
X47693Y37302D01*
X47712Y37348D01*
X48037D01*
X48037Y37348D01*
X48052Y37351D01*
X48077D01*
X48100Y37361D01*
X48105Y37362D01*
X48109Y37365D01*
X48143Y37379D01*
X48194Y37429D01*
X48221Y37496D01*
Y37567D01*
X48194Y37633D01*
X48143Y37684D01*
X48077Y37711D01*
X48006D01*
X47991Y37705D01*
X47425D01*
X47420Y37755D01*
X47459Y37763D01*
X47526Y37807D01*
X47570Y37873D01*
X47573Y37891D01*
X48307Y38625D01*
X51500D01*
X51500Y38625D01*
X51568Y38639D01*
X51626Y38677D01*
X51875Y38927D01*
X52022D01*
X52025Y38925D01*
X52097D01*
X52163Y38953D01*
X52214Y39003D01*
X52241Y39069D01*
Y39141D01*
X52214Y39207D01*
X52163Y39258D01*
X52097Y39285D01*
D02*
G37*
G36*
X42181Y38730D02*
Y38406D01*
X42505D01*
X42486Y38474D01*
X42429Y38573D01*
X42348Y38654D01*
X42249Y38711D01*
X42181Y38730D01*
D02*
G37*
G36*
X41981D02*
X41914Y38711D01*
X41815Y38654D01*
X41734Y38573D01*
X41676Y38474D01*
X41658Y38406D01*
X41981D01*
Y38730D01*
D02*
G37*
G36*
X56890Y38799D02*
X56800D01*
X56716Y38764D01*
X56652Y38700D01*
X56617Y38617D01*
Y38526D01*
X56652Y38442D01*
X56716Y38378D01*
X56800Y38343D01*
X56890D01*
X56974Y38378D01*
X57038Y38442D01*
X57073Y38526D01*
Y38617D01*
X57038Y38700D01*
X56974Y38764D01*
X56890Y38799D01*
D02*
G37*
G36*
X42505Y38206D02*
X42181D01*
Y37883D01*
X42249Y37901D01*
X42348Y37959D01*
X42429Y38040D01*
X42486Y38139D01*
X42505Y38206D01*
D02*
G37*
G36*
X41981D02*
X41658D01*
X41676Y38139D01*
X41734Y38040D01*
X41815Y37959D01*
X41914Y37901D01*
X41981Y37883D01*
Y38206D01*
D02*
G37*
G36*
X42139Y39741D02*
X42024D01*
X41914Y39711D01*
X41815Y39654D01*
X41734Y39573D01*
X41676Y39474D01*
X41647Y39364D01*
Y39249D01*
X41676Y39139D01*
X41734Y39039D01*
X41815Y38959D01*
X41914Y38901D01*
X42024Y38872D01*
X42139D01*
X42249Y38901D01*
X42281Y38920D01*
X43217Y37983D01*
Y37205D01*
X43197Y37185D01*
X43170Y37119D01*
Y37047D01*
X43197Y36981D01*
X43248Y36930D01*
X43314Y36903D01*
X43386D01*
X43452Y36930D01*
X43502Y36981D01*
X43530Y37047D01*
Y37119D01*
X43502Y37185D01*
X43482Y37205D01*
Y38038D01*
X43472Y38089D01*
X43443Y38132D01*
X42468Y39107D01*
X42486Y39139D01*
X42516Y39249D01*
Y39364D01*
X42486Y39474D01*
X42429Y39573D01*
X42348Y39654D01*
X42249Y39711D01*
X42139Y39741D01*
D02*
G37*
G36*
Y37741D02*
X42024D01*
X41914Y37711D01*
X41815Y37654D01*
X41734Y37573D01*
X41676Y37474D01*
X41647Y37364D01*
Y37249D01*
X41676Y37139D01*
X41734Y37039D01*
X41815Y36959D01*
X41914Y36901D01*
X42024Y36872D01*
X42139D01*
X42249Y36901D01*
X42348Y36959D01*
X42429Y37039D01*
X42486Y37139D01*
X42516Y37249D01*
Y37364D01*
X42486Y37474D01*
X42429Y37573D01*
X42348Y37654D01*
X42249Y37711D01*
X42139Y37741D01*
D02*
G37*
G36*
X56890Y37224D02*
X56800D01*
X56716Y37190D01*
X56652Y37126D01*
X56617Y37042D01*
Y36951D01*
X56652Y36867D01*
X56716Y36803D01*
X56800Y36768D01*
X56890D01*
X56974Y36803D01*
X57038Y36867D01*
X57073Y36951D01*
Y37042D01*
X57038Y37126D01*
X56974Y37190D01*
X56890Y37224D01*
D02*
G37*
G36*
X42516Y36741D02*
X41647D01*
Y35872D01*
X42516D01*
Y36741D01*
D02*
G37*
G36*
X48251Y34739D02*
Y34416D01*
X48575D01*
X48556Y34483D01*
X48499Y34583D01*
X48418Y34663D01*
X48319Y34721D01*
X48251Y34739D01*
D02*
G37*
G36*
X48051D02*
X47984Y34721D01*
X47885Y34663D01*
X47804Y34583D01*
X47746Y34483D01*
X47728Y34416D01*
X48051D01*
Y34739D01*
D02*
G37*
G36*
X51547Y37031D02*
X51476D01*
X51409Y37004D01*
X51359Y36953D01*
X51331Y36887D01*
Y36816D01*
X51333Y36812D01*
Y35184D01*
X50842D01*
X50773Y35171D01*
X50716Y35132D01*
X50307Y34724D01*
X50209Y34750D01*
X50094D01*
X49984Y34721D01*
X49885Y34663D01*
X49804Y34583D01*
X49746Y34483D01*
X49717Y34373D01*
Y34258D01*
X49746Y34148D01*
X49804Y34049D01*
X49885Y33968D01*
X49984Y33911D01*
X50094Y33881D01*
X50209D01*
X50319Y33911D01*
X50418Y33968D01*
X50499Y34049D01*
X50556Y34148D01*
X50586Y34258D01*
Y34373D01*
X50560Y34471D01*
X50916Y34827D01*
X51511D01*
X51580Y34841D01*
X51594Y34851D01*
X55496D01*
X55848Y34498D01*
Y34353D01*
X55821Y34287D01*
Y34216D01*
X55849Y34149D01*
X55899Y34099D01*
X55966Y34071D01*
X56037D01*
X56103Y34099D01*
X56154Y34149D01*
X56181Y34216D01*
Y34287D01*
X56154Y34353D01*
Y34562D01*
X56154Y34562D01*
X56143Y34620D01*
X56110Y34670D01*
X55668Y35112D01*
X55618Y35145D01*
X55559Y35157D01*
X51690D01*
Y36812D01*
X51691Y36816D01*
Y36887D01*
X51664Y36953D01*
X51613Y37004D01*
X51547Y37031D01*
D02*
G37*
G36*
X48575Y34216D02*
X48251D01*
Y33892D01*
X48319Y33911D01*
X48418Y33968D01*
X48499Y34049D01*
X48556Y34148D01*
X48575Y34216D01*
D02*
G37*
G36*
X48051D02*
X47728D01*
X47746Y34148D01*
X47804Y34049D01*
X47885Y33968D01*
X47984Y33911D01*
X48051Y33892D01*
Y34216D01*
D02*
G37*
G36*
X51209Y34750D02*
X51094D01*
X50984Y34721D01*
X50885Y34663D01*
X50804Y34583D01*
X50746Y34483D01*
X50717Y34373D01*
Y34258D01*
X50746Y34148D01*
X50804Y34049D01*
X50885Y33968D01*
X50984Y33911D01*
X51094Y33881D01*
X51209D01*
X51319Y33911D01*
X51418Y33968D01*
X51499Y34049D01*
X51556Y34148D01*
X51586Y34258D01*
Y34373D01*
X51556Y34483D01*
X51499Y34583D01*
X51418Y34663D01*
X51319Y34721D01*
X51209Y34750D01*
D02*
G37*
G36*
X49209D02*
X49094D01*
X48984Y34721D01*
X48885Y34663D01*
X48804Y34583D01*
X48746Y34483D01*
X48717Y34373D01*
Y34258D01*
X48746Y34148D01*
X48804Y34049D01*
X48885Y33968D01*
X48984Y33911D01*
X49094Y33881D01*
X49209D01*
X49319Y33911D01*
X49418Y33968D01*
X49499Y34049D01*
X49556Y34148D01*
X49586Y34258D01*
Y34373D01*
X49556Y34483D01*
X49499Y34583D01*
X49418Y34663D01*
X49319Y34721D01*
X49209Y34750D01*
D02*
G37*
G36*
X47209D02*
X47094D01*
X46984Y34721D01*
X46885Y34663D01*
X46804Y34583D01*
X46746Y34483D01*
X46717Y34373D01*
Y34258D01*
X46746Y34148D01*
X46804Y34049D01*
X46885Y33968D01*
X46984Y33911D01*
X47094Y33881D01*
X47209D01*
X47319Y33911D01*
X47418Y33968D01*
X47499Y34049D01*
X47556Y34148D01*
X47586Y34258D01*
Y34373D01*
X47556Y34483D01*
X47499Y34583D01*
X47418Y34663D01*
X47319Y34721D01*
X47209Y34750D01*
D02*
G37*
G36*
X46209D02*
X46094D01*
X45984Y34721D01*
X45885Y34663D01*
X45804Y34583D01*
X45746Y34483D01*
X45717Y34373D01*
Y34258D01*
X45746Y34148D01*
X45804Y34049D01*
X45885Y33968D01*
X45984Y33911D01*
X46094Y33881D01*
X46209D01*
X46319Y33911D01*
X46418Y33968D01*
X46499Y34049D01*
X46556Y34148D01*
X46586Y34258D01*
Y34373D01*
X46556Y34483D01*
X46499Y34583D01*
X46418Y34663D01*
X46319Y34721D01*
X46209Y34750D01*
D02*
G37*
G36*
X45209D02*
X45094D01*
X44984Y34721D01*
X44885Y34663D01*
X44804Y34583D01*
X44746Y34483D01*
X44717Y34373D01*
Y34258D01*
X44746Y34148D01*
X44804Y34049D01*
X44885Y33968D01*
X44984Y33911D01*
X45094Y33881D01*
X45209D01*
X45319Y33911D01*
X45418Y33968D01*
X45499Y34049D01*
X45556Y34148D01*
X45586Y34258D01*
Y34373D01*
X45556Y34483D01*
X45499Y34583D01*
X45418Y34663D01*
X45319Y34721D01*
X45209Y34750D01*
D02*
G37*
G36*
X44209D02*
X44094D01*
X43984Y34721D01*
X43885Y34663D01*
X43804Y34583D01*
X43746Y34483D01*
X43717Y34373D01*
Y34258D01*
X43746Y34148D01*
X43804Y34049D01*
X43885Y33968D01*
X43984Y33911D01*
X44094Y33881D01*
X44209D01*
X44319Y33911D01*
X44418Y33968D01*
X44499Y34049D01*
X44556Y34148D01*
X44586Y34258D01*
Y34373D01*
X44556Y34483D01*
X44499Y34583D01*
X44418Y34663D01*
X44319Y34721D01*
X44209Y34750D01*
D02*
G37*
G36*
X43209D02*
X43094D01*
X42984Y34721D01*
X42885Y34663D01*
X42804Y34583D01*
X42746Y34483D01*
X42717Y34373D01*
Y34258D01*
X42746Y34148D01*
X42804Y34049D01*
X42885Y33968D01*
X42984Y33911D01*
X43094Y33881D01*
X43209D01*
X43319Y33911D01*
X43418Y33968D01*
X43499Y34049D01*
X43556Y34148D01*
X43586Y34258D01*
Y34373D01*
X43556Y34483D01*
X43499Y34583D01*
X43418Y34663D01*
X43319Y34721D01*
X43209Y34750D01*
D02*
G37*
G36*
X42586D02*
X41717D01*
Y33881D01*
X42586D01*
Y34750D01*
D02*
G37*
G36*
X58241Y34901D02*
X57041D01*
Y33701D01*
X58241D01*
Y34901D01*
D02*
G37*
G36*
X34200Y41715D02*
Y41392D01*
X34523D01*
X34505Y41460D01*
X34448Y41559D01*
X34367Y41640D01*
X34268Y41697D01*
X34200Y41715D01*
D02*
G37*
G36*
X34000D02*
X33932Y41697D01*
X33833Y41640D01*
X33752Y41559D01*
X33695Y41460D01*
X33677Y41392D01*
X34000D01*
Y41715D01*
D02*
G37*
G36*
X34523Y41192D02*
X34200D01*
Y40869D01*
X34268Y40887D01*
X34367Y40944D01*
X34448Y41025D01*
X34505Y41124D01*
X34523Y41192D01*
D02*
G37*
G36*
X34000D02*
X33677D01*
X33695Y41124D01*
X33752Y41025D01*
X33833Y40944D01*
X33932Y40887D01*
X34000Y40869D01*
Y41192D01*
D02*
G37*
G36*
X40535Y41727D02*
X39665D01*
Y40857D01*
X40535D01*
Y41727D01*
D02*
G37*
G36*
X39157D02*
X39043D01*
X38932Y41697D01*
X38833Y41640D01*
X38752Y41559D01*
X38695Y41460D01*
X38665Y41349D01*
Y41235D01*
X38695Y41124D01*
X38752Y41025D01*
X38833Y40944D01*
X38932Y40887D01*
X39043Y40857D01*
X39157D01*
X39268Y40887D01*
X39367Y40944D01*
X39448Y41025D01*
X39505Y41124D01*
X39535Y41235D01*
Y41349D01*
X39505Y41460D01*
X39448Y41559D01*
X39367Y41640D01*
X39268Y41697D01*
X39157Y41727D01*
D02*
G37*
G36*
X38157D02*
X38043D01*
X37932Y41697D01*
X37833Y41640D01*
X37752Y41559D01*
X37695Y41460D01*
X37665Y41349D01*
Y41235D01*
X37695Y41124D01*
X37752Y41025D01*
X37833Y40944D01*
X37932Y40887D01*
X38043Y40857D01*
X38157D01*
X38268Y40887D01*
X38367Y40944D01*
X38448Y41025D01*
X38505Y41124D01*
X38535Y41235D01*
Y41349D01*
X38505Y41460D01*
X38448Y41559D01*
X38367Y41640D01*
X38268Y41697D01*
X38157Y41727D01*
D02*
G37*
G36*
X37157D02*
X37043D01*
X36932Y41697D01*
X36833Y41640D01*
X36752Y41559D01*
X36695Y41460D01*
X36665Y41349D01*
Y41235D01*
X36695Y41124D01*
X36752Y41025D01*
X36833Y40944D01*
X36932Y40887D01*
X37043Y40857D01*
X37157D01*
X37268Y40887D01*
X37367Y40944D01*
X37448Y41025D01*
X37505Y41124D01*
X37535Y41235D01*
Y41349D01*
X37505Y41460D01*
X37448Y41559D01*
X37367Y41640D01*
X37268Y41697D01*
X37157Y41727D01*
D02*
G37*
G36*
X36157D02*
X36043D01*
X35932Y41697D01*
X35833Y41640D01*
X35752Y41559D01*
X35695Y41460D01*
X35665Y41349D01*
Y41235D01*
X35695Y41124D01*
X35752Y41025D01*
X35833Y40944D01*
X35932Y40887D01*
X36043Y40857D01*
X36157D01*
X36268Y40887D01*
X36367Y40944D01*
X36448Y41025D01*
X36505Y41124D01*
X36535Y41235D01*
Y41349D01*
X36505Y41460D01*
X36448Y41559D01*
X36367Y41640D01*
X36268Y41697D01*
X36157Y41727D01*
D02*
G37*
G36*
X35157D02*
X35043D01*
X34932Y41697D01*
X34833Y41640D01*
X34752Y41559D01*
X34695Y41460D01*
X34665Y41349D01*
Y41235D01*
X34695Y41124D01*
X34752Y41025D01*
X34833Y40944D01*
X34932Y40887D01*
X35043Y40857D01*
X35157D01*
X35268Y40887D01*
X35367Y40944D01*
X35448Y41025D01*
X35505Y41124D01*
X35535Y41235D01*
Y41349D01*
X35505Y41460D01*
X35448Y41559D01*
X35367Y41640D01*
X35268Y41697D01*
X35157Y41727D01*
D02*
G37*
G36*
X33157D02*
X33043D01*
X32932Y41697D01*
X32833Y41640D01*
X32752Y41559D01*
X32695Y41460D01*
X32665Y41349D01*
Y41235D01*
X32695Y41124D01*
X32752Y41025D01*
X32833Y40944D01*
X32932Y40887D01*
X33043Y40857D01*
X33157D01*
X33268Y40887D01*
X33367Y40944D01*
X33448Y41025D01*
X33505Y41124D01*
X33535Y41235D01*
Y41349D01*
X33505Y41460D01*
X33448Y41559D01*
X33367Y41640D01*
X33268Y41697D01*
X33157Y41727D01*
D02*
G37*
G36*
X31157D02*
X31043D01*
X30932Y41697D01*
X30833Y41640D01*
X30752Y41559D01*
X30695Y41460D01*
X30665Y41349D01*
Y41235D01*
X30695Y41124D01*
X30752Y41025D01*
X30833Y40944D01*
X30932Y40887D01*
X31043Y40857D01*
X31157D01*
X31268Y40887D01*
X31367Y40944D01*
X31448Y41025D01*
X31505Y41124D01*
X31535Y41235D01*
Y41349D01*
X31505Y41460D01*
X31448Y41559D01*
X31367Y41640D01*
X31268Y41697D01*
X31157Y41727D01*
D02*
G37*
G36*
X32157D02*
X32043D01*
X31932Y41697D01*
X31833Y41640D01*
X31752Y41559D01*
X31695Y41460D01*
X31665Y41349D01*
Y41235D01*
X31692Y41136D01*
X31336Y40780D01*
X30740D01*
X30672Y40767D01*
X30657Y40757D01*
X26755D01*
X26403Y41109D01*
Y41255D01*
X26430Y41320D01*
Y41392D01*
X26403Y41458D01*
X26352Y41509D01*
X26286Y41536D01*
X26214D01*
X26148Y41509D01*
X26097Y41458D01*
X26070Y41392D01*
Y41320D01*
X26097Y41255D01*
Y41046D01*
X26097Y41046D01*
X26109Y40987D01*
X26142Y40938D01*
X26584Y40496D01*
X26633Y40463D01*
X26692Y40451D01*
X30562D01*
Y38796D01*
X30560Y38792D01*
Y38720D01*
X30587Y38654D01*
X30638Y38604D01*
X30704Y38576D01*
X30776D01*
X30842Y38604D01*
X30893Y38654D01*
X30920Y38720D01*
Y38792D01*
X30918Y38796D01*
Y40423D01*
X31410D01*
X31478Y40437D01*
X31536Y40476D01*
X31944Y40884D01*
X32043Y40857D01*
X32157D01*
X32268Y40887D01*
X32367Y40944D01*
X32448Y41025D01*
X32505Y41124D01*
X32535Y41235D01*
Y41349D01*
X32505Y41460D01*
X32448Y41559D01*
X32367Y41640D01*
X32268Y41697D01*
X32157Y41727D01*
D02*
G37*
G36*
X25210Y41906D02*
X24010D01*
Y40706D01*
X25210D01*
Y41906D01*
D02*
G37*
G36*
X40605Y39736D02*
X39735D01*
Y38867D01*
X40605D01*
Y39736D01*
D02*
G37*
G36*
X25452Y38839D02*
X25361D01*
X25277Y38804D01*
X25213Y38740D01*
X25178Y38657D01*
Y38566D01*
X25213Y38482D01*
X25277Y38418D01*
X25361Y38383D01*
X25452D01*
X25536Y38418D01*
X25600Y38482D01*
X25634Y38566D01*
Y38657D01*
X25600Y38740D01*
X25536Y38804D01*
X25452Y38839D01*
D02*
G37*
G36*
X33296Y39536D02*
X33224D01*
X33158Y39509D01*
X33107Y39458D01*
X33080Y39392D01*
Y39320D01*
X33107Y39254D01*
X33158Y39204D01*
X33224Y39176D01*
X33296D01*
X33362Y39204D01*
X33382Y39224D01*
X33640D01*
X34558Y38305D01*
X34539Y38259D01*
X34215D01*
X34215Y38259D01*
X34199Y38256D01*
X34174D01*
X34151Y38247D01*
X34146Y38246D01*
X34142Y38243D01*
X34108Y38229D01*
X34057Y38178D01*
X34030Y38112D01*
Y38040D01*
X34057Y37974D01*
X34108Y37924D01*
X34174Y37896D01*
X34246D01*
X34261Y37902D01*
X34826D01*
X34831Y37852D01*
X34792Y37845D01*
X34726Y37800D01*
X34682Y37734D01*
X34678Y37717D01*
X33944Y36983D01*
X30752D01*
X30752Y36983D01*
X30684Y36969D01*
X30626Y36930D01*
X30376Y36681D01*
X30230D01*
X30226Y36682D01*
X30154D01*
X30088Y36655D01*
X30038Y36604D01*
X30010Y36538D01*
Y36467D01*
X30038Y36400D01*
X30088Y36350D01*
X30154Y36322D01*
X30226D01*
X30230Y36324D01*
X30411D01*
X30414Y36322D01*
X30486D01*
X30552Y36350D01*
X30603Y36400D01*
X30604Y36404D01*
X30826Y36626D01*
X34018D01*
X34086Y36639D01*
X34144Y36678D01*
X34918Y37452D01*
X38010D01*
X38088Y37468D01*
X38154Y37512D01*
X38594Y37952D01*
X38638Y38018D01*
X38654Y38096D01*
X38638Y38174D01*
X38594Y38240D01*
X38528Y38285D01*
X38450Y38300D01*
X38372Y38285D01*
X38306Y38240D01*
X37926Y37860D01*
X35412D01*
X35370Y37910D01*
X35371Y37916D01*
X35374Y37919D01*
X35409Y37933D01*
X35459Y37984D01*
X35487Y38050D01*
Y38121D01*
X35485Y38126D01*
X35513Y38167D01*
X36089D01*
X36140Y38177D01*
X36183Y38206D01*
X36321Y38345D01*
X36350D01*
X36416Y38372D01*
X36466Y38423D01*
X36494Y38489D01*
Y38560D01*
X36466Y38627D01*
X36416Y38677D01*
X36350Y38705D01*
X36278D01*
X36212Y38677D01*
X36161Y38627D01*
X36134Y38560D01*
Y38532D01*
X36034Y38432D01*
X34806D01*
X33789Y39450D01*
X33746Y39479D01*
X33695Y39489D01*
X33382D01*
X33362Y39509D01*
X33296Y39536D01*
D02*
G37*
G36*
X40227Y38736D02*
X40113D01*
X40002Y38706D01*
X39903Y38649D01*
X39822Y38568D01*
X39765Y38469D01*
X39735Y38358D01*
Y38244D01*
X39765Y38133D01*
X39822Y38034D01*
X39903Y37953D01*
X40002Y37896D01*
X40113Y37867D01*
X40227D01*
X40338Y37896D01*
X40437Y37953D01*
X40518Y38034D01*
X40575Y38133D01*
X40605Y38244D01*
Y38358D01*
X40575Y38469D01*
X40518Y38568D01*
X40437Y38649D01*
X40338Y38706D01*
X40227Y38736D01*
D02*
G37*
G36*
X40270Y37724D02*
Y37401D01*
X40593D01*
X40575Y37469D01*
X40518Y37568D01*
X40437Y37649D01*
X40338Y37706D01*
X40270Y37724D01*
D02*
G37*
G36*
X40070D02*
X40002Y37706D01*
X39903Y37649D01*
X39822Y37568D01*
X39765Y37469D01*
X39747Y37401D01*
X40070D01*
Y37724D01*
D02*
G37*
G36*
X40593Y37201D02*
X40270D01*
Y36878D01*
X40338Y36896D01*
X40437Y36953D01*
X40518Y37034D01*
X40575Y37133D01*
X40593Y37201D01*
D02*
G37*
G36*
X40070D02*
X39747D01*
X39765Y37133D01*
X39822Y37034D01*
X39903Y36953D01*
X40002Y36896D01*
X40070Y36878D01*
Y37201D01*
D02*
G37*
G36*
X25452Y37264D02*
X25361D01*
X25277Y37230D01*
X25213Y37166D01*
X25178Y37082D01*
Y36991D01*
X25213Y36907D01*
X25277Y36843D01*
X25361Y36808D01*
X25452D01*
X25536Y36843D01*
X25600Y36907D01*
X25634Y36991D01*
Y37082D01*
X25600Y37166D01*
X25536Y37230D01*
X25452Y37264D01*
D02*
G37*
G36*
X38937Y38705D02*
X38866D01*
X38800Y38677D01*
X38749Y38627D01*
X38722Y38560D01*
Y38489D01*
X38749Y38423D01*
X38769Y38403D01*
Y37570D01*
X38779Y37519D01*
X38808Y37476D01*
X39783Y36501D01*
X39765Y36469D01*
X39735Y36358D01*
Y36244D01*
X39765Y36133D01*
X39822Y36034D01*
X39903Y35953D01*
X40002Y35896D01*
X40113Y35867D01*
X40227D01*
X40338Y35896D01*
X40437Y35953D01*
X40518Y36034D01*
X40575Y36133D01*
X40605Y36244D01*
Y36358D01*
X40575Y36469D01*
X40518Y36568D01*
X40437Y36649D01*
X40338Y36706D01*
X40227Y36736D01*
X40113D01*
X40002Y36706D01*
X39971Y36688D01*
X39034Y37624D01*
Y38403D01*
X39054Y38423D01*
X39082Y38489D01*
Y38560D01*
X39054Y38627D01*
X39004Y38677D01*
X38937Y38705D01*
D02*
G37*
G36*
X25190Y34846D02*
X24690D01*
Y34346D01*
X25190D01*
Y34846D01*
D02*
G37*
G36*
X24490D02*
X23990D01*
Y34346D01*
X24490D01*
Y34846D01*
D02*
G37*
G36*
X40535Y34695D02*
X39665D01*
Y33826D01*
X40535D01*
Y34695D01*
D02*
G37*
G36*
X39157D02*
X39043D01*
X38932Y34666D01*
X38833Y34608D01*
X38752Y34527D01*
X38695Y34428D01*
X38665Y34318D01*
Y34203D01*
X38695Y34093D01*
X38752Y33994D01*
X38833Y33913D01*
X38932Y33855D01*
X39043Y33826D01*
X39157D01*
X39268Y33855D01*
X39367Y33913D01*
X39448Y33994D01*
X39505Y34093D01*
X39535Y34203D01*
Y34318D01*
X39505Y34428D01*
X39448Y34527D01*
X39367Y34608D01*
X39268Y34666D01*
X39157Y34695D01*
D02*
G37*
G36*
X38157D02*
X38043D01*
X37932Y34666D01*
X37833Y34608D01*
X37752Y34527D01*
X37695Y34428D01*
X37665Y34318D01*
Y34203D01*
X37695Y34093D01*
X37752Y33994D01*
X37833Y33913D01*
X37932Y33855D01*
X38043Y33826D01*
X38157D01*
X38268Y33855D01*
X38367Y33913D01*
X38448Y33994D01*
X38505Y34093D01*
X38535Y34203D01*
Y34318D01*
X38505Y34428D01*
X38448Y34527D01*
X38367Y34608D01*
X38268Y34666D01*
X38157Y34695D01*
D02*
G37*
G36*
X37157D02*
X37043D01*
X36932Y34666D01*
X36833Y34608D01*
X36752Y34527D01*
X36695Y34428D01*
X36665Y34318D01*
Y34203D01*
X36695Y34093D01*
X36752Y33994D01*
X36833Y33913D01*
X36932Y33855D01*
X37043Y33826D01*
X37157D01*
X37268Y33855D01*
X37367Y33913D01*
X37448Y33994D01*
X37505Y34093D01*
X37535Y34203D01*
Y34318D01*
X37505Y34428D01*
X37448Y34527D01*
X37367Y34608D01*
X37268Y34666D01*
X37157Y34695D01*
D02*
G37*
G36*
X36157D02*
X36043D01*
X35932Y34666D01*
X35833Y34608D01*
X35752Y34527D01*
X35695Y34428D01*
X35665Y34318D01*
Y34203D01*
X35695Y34093D01*
X35752Y33994D01*
X35833Y33913D01*
X35932Y33855D01*
X36043Y33826D01*
X36157D01*
X36268Y33855D01*
X36367Y33913D01*
X36448Y33994D01*
X36505Y34093D01*
X36535Y34203D01*
Y34318D01*
X36505Y34428D01*
X36448Y34527D01*
X36367Y34608D01*
X36268Y34666D01*
X36157Y34695D01*
D02*
G37*
G36*
X35157D02*
X35043D01*
X34932Y34666D01*
X34833Y34608D01*
X34752Y34527D01*
X34695Y34428D01*
X34665Y34318D01*
Y34203D01*
X34695Y34093D01*
X34752Y33994D01*
X34833Y33913D01*
X34932Y33855D01*
X35043Y33826D01*
X35157D01*
X35268Y33855D01*
X35367Y33913D01*
X35448Y33994D01*
X35505Y34093D01*
X35535Y34203D01*
Y34318D01*
X35505Y34428D01*
X35448Y34527D01*
X35367Y34608D01*
X35268Y34666D01*
X35157Y34695D01*
D02*
G37*
G36*
X34157D02*
X34043D01*
X33932Y34666D01*
X33833Y34608D01*
X33752Y34527D01*
X33695Y34428D01*
X33665Y34318D01*
Y34203D01*
X33695Y34093D01*
X33752Y33994D01*
X33833Y33913D01*
X33932Y33855D01*
X34043Y33826D01*
X34157D01*
X34268Y33855D01*
X34367Y33913D01*
X34448Y33994D01*
X34505Y34093D01*
X34535Y34203D01*
Y34318D01*
X34505Y34428D01*
X34448Y34527D01*
X34367Y34608D01*
X34268Y34666D01*
X34157Y34695D01*
D02*
G37*
G36*
X33157D02*
X33043D01*
X32932Y34666D01*
X32833Y34608D01*
X32752Y34527D01*
X32695Y34428D01*
X32665Y34318D01*
Y34203D01*
X32695Y34093D01*
X32752Y33994D01*
X32833Y33913D01*
X32932Y33855D01*
X33043Y33826D01*
X33157D01*
X33268Y33855D01*
X33367Y33913D01*
X33448Y33994D01*
X33505Y34093D01*
X33535Y34203D01*
Y34318D01*
X33505Y34428D01*
X33448Y34527D01*
X33367Y34608D01*
X33268Y34666D01*
X33157Y34695D01*
D02*
G37*
G36*
X32157D02*
X32043D01*
X31932Y34666D01*
X31833Y34608D01*
X31752Y34527D01*
X31695Y34428D01*
X31665Y34318D01*
Y34203D01*
X31695Y34093D01*
X31752Y33994D01*
X31833Y33913D01*
X31932Y33855D01*
X32043Y33826D01*
X32157D01*
X32268Y33855D01*
X32367Y33913D01*
X32448Y33994D01*
X32505Y34093D01*
X32535Y34203D01*
Y34318D01*
X32505Y34428D01*
X32448Y34527D01*
X32367Y34608D01*
X32268Y34666D01*
X32157Y34695D01*
D02*
G37*
G36*
X31157D02*
X31043D01*
X30932Y34666D01*
X30833Y34608D01*
X30752Y34527D01*
X30695Y34428D01*
X30665Y34318D01*
Y34203D01*
X30695Y34093D01*
X30752Y33994D01*
X30833Y33913D01*
X30932Y33855D01*
X31043Y33826D01*
X31157D01*
X31268Y33855D01*
X31367Y33913D01*
X31448Y33994D01*
X31505Y34093D01*
X31535Y34203D01*
Y34318D01*
X31505Y34428D01*
X31448Y34527D01*
X31367Y34608D01*
X31268Y34666D01*
X31157Y34695D01*
D02*
G37*
G36*
X25190Y34146D02*
X24690D01*
Y33646D01*
X25190D01*
Y34146D01*
D02*
G37*
G36*
X24490D02*
X23990D01*
Y33646D01*
X24490D01*
Y34146D01*
D02*
G37*
G36*
X58261Y32906D02*
X57761D01*
Y32406D01*
X58261D01*
Y32906D01*
D02*
G37*
G36*
X57561D02*
X57061D01*
Y32406D01*
X57561D01*
Y32906D01*
D02*
G37*
G36*
X51209Y32727D02*
X51094D01*
X50984Y32697D01*
X50885Y32640D01*
X50804Y32559D01*
X50746Y32460D01*
X50717Y32349D01*
Y32235D01*
X50746Y32124D01*
X50804Y32025D01*
X50885Y31944D01*
X50984Y31887D01*
X51094Y31857D01*
X51209D01*
X51319Y31887D01*
X51418Y31944D01*
X51499Y32025D01*
X51556Y32124D01*
X51586Y32235D01*
Y32349D01*
X51556Y32460D01*
X51499Y32559D01*
X51418Y32640D01*
X51319Y32697D01*
X51209Y32727D01*
D02*
G37*
G36*
X50209D02*
X50094D01*
X49984Y32697D01*
X49885Y32640D01*
X49804Y32559D01*
X49746Y32460D01*
X49717Y32349D01*
Y32235D01*
X49746Y32124D01*
X49804Y32025D01*
X49885Y31944D01*
X49984Y31887D01*
X50094Y31857D01*
X50209D01*
X50319Y31887D01*
X50418Y31944D01*
X50499Y32025D01*
X50556Y32124D01*
X50586Y32235D01*
Y32349D01*
X50556Y32460D01*
X50499Y32559D01*
X50418Y32640D01*
X50319Y32697D01*
X50209Y32727D01*
D02*
G37*
G36*
X49209D02*
X49094D01*
X48984Y32697D01*
X48885Y32640D01*
X48804Y32559D01*
X48746Y32460D01*
X48717Y32349D01*
Y32235D01*
X48746Y32124D01*
X48804Y32025D01*
X48885Y31944D01*
X48984Y31887D01*
X49094Y31857D01*
X49209D01*
X49319Y31887D01*
X49418Y31944D01*
X49499Y32025D01*
X49556Y32124D01*
X49586Y32235D01*
Y32349D01*
X49556Y32460D01*
X49499Y32559D01*
X49418Y32640D01*
X49319Y32697D01*
X49209Y32727D01*
D02*
G37*
G36*
X48209D02*
X48094D01*
X47984Y32697D01*
X47885Y32640D01*
X47804Y32559D01*
X47746Y32460D01*
X47717Y32349D01*
Y32235D01*
X47746Y32124D01*
X47804Y32025D01*
X47885Y31944D01*
X47984Y31887D01*
X48094Y31857D01*
X48209D01*
X48319Y31887D01*
X48418Y31944D01*
X48499Y32025D01*
X48556Y32124D01*
X48586Y32235D01*
Y32349D01*
X48556Y32460D01*
X48499Y32559D01*
X48418Y32640D01*
X48319Y32697D01*
X48209Y32727D01*
D02*
G37*
G36*
X47209D02*
X47094D01*
X46984Y32697D01*
X46885Y32640D01*
X46804Y32559D01*
X46746Y32460D01*
X46717Y32349D01*
Y32235D01*
X46746Y32124D01*
X46804Y32025D01*
X46885Y31944D01*
X46984Y31887D01*
X47094Y31857D01*
X47209D01*
X47319Y31887D01*
X47418Y31944D01*
X47499Y32025D01*
X47556Y32124D01*
X47586Y32235D01*
Y32349D01*
X47556Y32460D01*
X47499Y32559D01*
X47418Y32640D01*
X47319Y32697D01*
X47209Y32727D01*
D02*
G37*
G36*
X46209D02*
X46094D01*
X45984Y32697D01*
X45885Y32640D01*
X45804Y32559D01*
X45746Y32460D01*
X45717Y32349D01*
Y32235D01*
X45746Y32124D01*
X45804Y32025D01*
X45885Y31944D01*
X45984Y31887D01*
X46094Y31857D01*
X46209D01*
X46319Y31887D01*
X46418Y31944D01*
X46499Y32025D01*
X46556Y32124D01*
X46586Y32235D01*
Y32349D01*
X46556Y32460D01*
X46499Y32559D01*
X46418Y32640D01*
X46319Y32697D01*
X46209Y32727D01*
D02*
G37*
G36*
X45209D02*
X45094D01*
X44984Y32697D01*
X44885Y32640D01*
X44804Y32559D01*
X44746Y32460D01*
X44717Y32349D01*
Y32235D01*
X44746Y32124D01*
X44804Y32025D01*
X44885Y31944D01*
X44984Y31887D01*
X45094Y31857D01*
X45209D01*
X45319Y31887D01*
X45418Y31944D01*
X45499Y32025D01*
X45556Y32124D01*
X45586Y32235D01*
Y32349D01*
X45556Y32460D01*
X45499Y32559D01*
X45418Y32640D01*
X45319Y32697D01*
X45209Y32727D01*
D02*
G37*
G36*
X44209D02*
X44094D01*
X43984Y32697D01*
X43885Y32640D01*
X43804Y32559D01*
X43746Y32460D01*
X43717Y32349D01*
Y32235D01*
X43746Y32124D01*
X43804Y32025D01*
X43885Y31944D01*
X43984Y31887D01*
X44094Y31857D01*
X44209D01*
X44319Y31887D01*
X44418Y31944D01*
X44499Y32025D01*
X44556Y32124D01*
X44586Y32235D01*
Y32349D01*
X44556Y32460D01*
X44499Y32559D01*
X44418Y32640D01*
X44319Y32697D01*
X44209Y32727D01*
D02*
G37*
G36*
X43209D02*
X43094D01*
X42984Y32697D01*
X42885Y32640D01*
X42804Y32559D01*
X42746Y32460D01*
X42717Y32349D01*
Y32235D01*
X42746Y32124D01*
X42804Y32025D01*
X42885Y31944D01*
X42984Y31887D01*
X43094Y31857D01*
X43209D01*
X43319Y31887D01*
X43418Y31944D01*
X43499Y32025D01*
X43556Y32124D01*
X43586Y32235D01*
Y32349D01*
X43556Y32460D01*
X43499Y32559D01*
X43418Y32640D01*
X43319Y32697D01*
X43209Y32727D01*
D02*
G37*
G36*
X42586D02*
X41717D01*
Y31857D01*
X42586D01*
Y32727D01*
D02*
G37*
G36*
X58261Y32206D02*
X57761D01*
Y31706D01*
X58261D01*
Y32206D01*
D02*
G37*
G36*
X57561D02*
X57061D01*
Y31706D01*
X57561D01*
Y32206D01*
D02*
G37*
G36*
X52097Y30230D02*
X52025D01*
X52022Y30229D01*
X51841D01*
X51837Y30230D01*
X51765D01*
X51699Y30203D01*
X51649Y30152D01*
X51647Y30148D01*
X51426Y29927D01*
X48234D01*
X48165Y29913D01*
X48107Y29875D01*
X47333Y29100D01*
X44241D01*
X44163Y29085D01*
X44097Y29040D01*
X43657Y28600D01*
X43613Y28534D01*
X43597Y28456D01*
X43613Y28378D01*
X43657Y28312D01*
X43723Y28268D01*
X43801Y28252D01*
X43879Y28268D01*
X43946Y28312D01*
X44326Y28692D01*
X46840D01*
X46882Y28642D01*
X46881Y28637D01*
X46877Y28634D01*
X46843Y28620D01*
X46792Y28569D01*
X46765Y28503D01*
Y28431D01*
X46766Y28427D01*
X46739Y28385D01*
X46162D01*
X46112Y28375D01*
X46069Y28346D01*
X45930Y28208D01*
X45902D01*
X45836Y28181D01*
X45785Y28130D01*
X45758Y28064D01*
Y27992D01*
X45785Y27926D01*
X45836Y27875D01*
X45902Y27848D01*
X45973D01*
X46040Y27875D01*
X46090Y27926D01*
X46118Y27992D01*
Y28020D01*
X46217Y28120D01*
X47445D01*
X48463Y27103D01*
X48506Y27074D01*
X48556Y27064D01*
X48869D01*
X48889Y27044D01*
X48956Y27016D01*
X49027D01*
X49093Y27044D01*
X49144Y27094D01*
X49171Y27160D01*
Y27232D01*
X49144Y27298D01*
X49093Y27349D01*
X49027Y27376D01*
X48956D01*
X48889Y27349D01*
X48869Y27329D01*
X48611D01*
X47693Y28247D01*
X47712Y28293D01*
X48037D01*
X48037Y28293D01*
X48052Y28296D01*
X48077D01*
X48100Y28306D01*
X48105Y28307D01*
X48109Y28309D01*
X48143Y28324D01*
X48194Y28374D01*
X48221Y28440D01*
Y28512D01*
X48194Y28578D01*
X48143Y28629D01*
X48077Y28656D01*
X48006D01*
X47991Y28650D01*
X47425D01*
X47420Y28700D01*
X47459Y28708D01*
X47526Y28752D01*
X47570Y28818D01*
X47573Y28836D01*
X48307Y29570D01*
X51500D01*
X51500Y29570D01*
X51568Y29584D01*
X51626Y29622D01*
X51875Y29872D01*
X52022D01*
X52025Y29870D01*
X52097D01*
X52163Y29897D01*
X52214Y29948D01*
X52241Y30014D01*
Y30086D01*
X52214Y30152D01*
X52163Y30203D01*
X52097Y30230D01*
D02*
G37*
G36*
X42181Y29674D02*
Y29351D01*
X42505D01*
X42486Y29419D01*
X42429Y29518D01*
X42348Y29599D01*
X42249Y29656D01*
X42181Y29674D01*
D02*
G37*
G36*
X41981D02*
X41914Y29656D01*
X41815Y29599D01*
X41734Y29518D01*
X41676Y29419D01*
X41658Y29351D01*
X41981D01*
Y29674D01*
D02*
G37*
G36*
X56890Y29744D02*
X56800D01*
X56716Y29709D01*
X56652Y29645D01*
X56617Y29561D01*
Y29471D01*
X56652Y29387D01*
X56716Y29323D01*
X56800Y29288D01*
X56890D01*
X56974Y29323D01*
X57038Y29387D01*
X57073Y29471D01*
Y29561D01*
X57038Y29645D01*
X56974Y29709D01*
X56890Y29744D01*
D02*
G37*
G36*
X42505Y29151D02*
X42181D01*
Y28828D01*
X42249Y28846D01*
X42348Y28903D01*
X42429Y28984D01*
X42486Y29083D01*
X42505Y29151D01*
D02*
G37*
G36*
X41981D02*
X41658D01*
X41676Y29083D01*
X41734Y28984D01*
X41815Y28903D01*
X41914Y28846D01*
X41981Y28828D01*
Y29151D01*
D02*
G37*
G36*
X42139Y30686D02*
X42024D01*
X41914Y30656D01*
X41815Y30599D01*
X41734Y30518D01*
X41676Y30419D01*
X41647Y30308D01*
Y30194D01*
X41676Y30083D01*
X41734Y29984D01*
X41815Y29903D01*
X41914Y29846D01*
X42024Y29817D01*
X42139D01*
X42249Y29846D01*
X42281Y29864D01*
X43217Y28928D01*
Y28150D01*
X43197Y28130D01*
X43170Y28064D01*
Y27992D01*
X43197Y27926D01*
X43248Y27875D01*
X43314Y27848D01*
X43386D01*
X43452Y27875D01*
X43502Y27926D01*
X43530Y27992D01*
Y28064D01*
X43502Y28130D01*
X43482Y28150D01*
Y28983D01*
X43472Y29034D01*
X43443Y29077D01*
X42468Y30052D01*
X42486Y30083D01*
X42516Y30194D01*
Y30308D01*
X42486Y30419D01*
X42429Y30518D01*
X42348Y30599D01*
X42249Y30656D01*
X42139Y30686D01*
D02*
G37*
G36*
Y28686D02*
X42024D01*
X41914Y28656D01*
X41815Y28599D01*
X41734Y28518D01*
X41676Y28419D01*
X41647Y28308D01*
Y28194D01*
X41676Y28083D01*
X41734Y27984D01*
X41815Y27903D01*
X41914Y27846D01*
X42024Y27817D01*
X42139D01*
X42249Y27846D01*
X42348Y27903D01*
X42429Y27984D01*
X42486Y28083D01*
X42516Y28194D01*
Y28308D01*
X42486Y28419D01*
X42429Y28518D01*
X42348Y28599D01*
X42249Y28656D01*
X42139Y28686D01*
D02*
G37*
G36*
X56890Y28169D02*
X56800D01*
X56716Y28135D01*
X56652Y28070D01*
X56617Y27987D01*
Y27896D01*
X56652Y27812D01*
X56716Y27748D01*
X56800Y27713D01*
X56890D01*
X56974Y27748D01*
X57038Y27812D01*
X57073Y27896D01*
Y27987D01*
X57038Y28070D01*
X56974Y28135D01*
X56890Y28169D01*
D02*
G37*
G36*
X42516Y27686D02*
X41647D01*
Y26817D01*
X42516D01*
Y27686D01*
D02*
G37*
G36*
X48251Y25684D02*
Y25361D01*
X48575D01*
X48556Y25428D01*
X48499Y25527D01*
X48418Y25608D01*
X48319Y25666D01*
X48251Y25684D01*
D02*
G37*
G36*
X48051D02*
X47984Y25666D01*
X47885Y25608D01*
X47804Y25527D01*
X47746Y25428D01*
X47728Y25361D01*
X48051D01*
Y25684D01*
D02*
G37*
G36*
X51547Y27976D02*
X51476D01*
X51409Y27949D01*
X51359Y27898D01*
X51331Y27832D01*
Y27760D01*
X51333Y27757D01*
Y26129D01*
X50842D01*
X50773Y26116D01*
X50716Y26077D01*
X50307Y25669D01*
X50209Y25695D01*
X50094D01*
X49984Y25666D01*
X49885Y25608D01*
X49804Y25527D01*
X49746Y25428D01*
X49717Y25318D01*
Y25203D01*
X49746Y25093D01*
X49804Y24994D01*
X49885Y24913D01*
X49984Y24855D01*
X50094Y24826D01*
X50209D01*
X50319Y24855D01*
X50418Y24913D01*
X50499Y24994D01*
X50556Y25093D01*
X50586Y25203D01*
Y25318D01*
X50560Y25416D01*
X50916Y25772D01*
X51511D01*
X51580Y25786D01*
X51594Y25796D01*
X55496D01*
X55848Y25443D01*
Y25297D01*
X55821Y25232D01*
Y25160D01*
X55849Y25094D01*
X55899Y25044D01*
X55966Y25016D01*
X56037D01*
X56103Y25044D01*
X56154Y25094D01*
X56181Y25160D01*
Y25232D01*
X56154Y25297D01*
Y25507D01*
X56154Y25507D01*
X56143Y25565D01*
X56110Y25615D01*
X55668Y26057D01*
X55618Y26090D01*
X55559Y26102D01*
X51690D01*
Y27757D01*
X51691Y27760D01*
Y27832D01*
X51664Y27898D01*
X51613Y27949D01*
X51547Y27976D01*
D02*
G37*
G36*
X48575Y25161D02*
X48251D01*
Y24837D01*
X48319Y24855D01*
X48418Y24913D01*
X48499Y24994D01*
X48556Y25093D01*
X48575Y25161D01*
D02*
G37*
G36*
X48051D02*
X47728D01*
X47746Y25093D01*
X47804Y24994D01*
X47885Y24913D01*
X47984Y24855D01*
X48051Y24837D01*
Y25161D01*
D02*
G37*
G36*
X51209Y25695D02*
X51094D01*
X50984Y25666D01*
X50885Y25608D01*
X50804Y25527D01*
X50746Y25428D01*
X50717Y25318D01*
Y25203D01*
X50746Y25093D01*
X50804Y24994D01*
X50885Y24913D01*
X50984Y24855D01*
X51094Y24826D01*
X51209D01*
X51319Y24855D01*
X51418Y24913D01*
X51499Y24994D01*
X51556Y25093D01*
X51586Y25203D01*
Y25318D01*
X51556Y25428D01*
X51499Y25527D01*
X51418Y25608D01*
X51319Y25666D01*
X51209Y25695D01*
D02*
G37*
G36*
X49209D02*
X49094D01*
X48984Y25666D01*
X48885Y25608D01*
X48804Y25527D01*
X48746Y25428D01*
X48717Y25318D01*
Y25203D01*
X48746Y25093D01*
X48804Y24994D01*
X48885Y24913D01*
X48984Y24855D01*
X49094Y24826D01*
X49209D01*
X49319Y24855D01*
X49418Y24913D01*
X49499Y24994D01*
X49556Y25093D01*
X49586Y25203D01*
Y25318D01*
X49556Y25428D01*
X49499Y25527D01*
X49418Y25608D01*
X49319Y25666D01*
X49209Y25695D01*
D02*
G37*
G36*
X47209D02*
X47094D01*
X46984Y25666D01*
X46885Y25608D01*
X46804Y25527D01*
X46746Y25428D01*
X46717Y25318D01*
Y25203D01*
X46746Y25093D01*
X46804Y24994D01*
X46885Y24913D01*
X46984Y24855D01*
X47094Y24826D01*
X47209D01*
X47319Y24855D01*
X47418Y24913D01*
X47499Y24994D01*
X47556Y25093D01*
X47586Y25203D01*
Y25318D01*
X47556Y25428D01*
X47499Y25527D01*
X47418Y25608D01*
X47319Y25666D01*
X47209Y25695D01*
D02*
G37*
G36*
X46209D02*
X46094D01*
X45984Y25666D01*
X45885Y25608D01*
X45804Y25527D01*
X45746Y25428D01*
X45717Y25318D01*
Y25203D01*
X45746Y25093D01*
X45804Y24994D01*
X45885Y24913D01*
X45984Y24855D01*
X46094Y24826D01*
X46209D01*
X46319Y24855D01*
X46418Y24913D01*
X46499Y24994D01*
X46556Y25093D01*
X46586Y25203D01*
Y25318D01*
X46556Y25428D01*
X46499Y25527D01*
X46418Y25608D01*
X46319Y25666D01*
X46209Y25695D01*
D02*
G37*
G36*
X45209D02*
X45094D01*
X44984Y25666D01*
X44885Y25608D01*
X44804Y25527D01*
X44746Y25428D01*
X44717Y25318D01*
Y25203D01*
X44746Y25093D01*
X44804Y24994D01*
X44885Y24913D01*
X44984Y24855D01*
X45094Y24826D01*
X45209D01*
X45319Y24855D01*
X45418Y24913D01*
X45499Y24994D01*
X45556Y25093D01*
X45586Y25203D01*
Y25318D01*
X45556Y25428D01*
X45499Y25527D01*
X45418Y25608D01*
X45319Y25666D01*
X45209Y25695D01*
D02*
G37*
G36*
X44209D02*
X44094D01*
X43984Y25666D01*
X43885Y25608D01*
X43804Y25527D01*
X43746Y25428D01*
X43717Y25318D01*
Y25203D01*
X43746Y25093D01*
X43804Y24994D01*
X43885Y24913D01*
X43984Y24855D01*
X44094Y24826D01*
X44209D01*
X44319Y24855D01*
X44418Y24913D01*
X44499Y24994D01*
X44556Y25093D01*
X44586Y25203D01*
Y25318D01*
X44556Y25428D01*
X44499Y25527D01*
X44418Y25608D01*
X44319Y25666D01*
X44209Y25695D01*
D02*
G37*
G36*
X43209D02*
X43094D01*
X42984Y25666D01*
X42885Y25608D01*
X42804Y25527D01*
X42746Y25428D01*
X42717Y25318D01*
Y25203D01*
X42746Y25093D01*
X42804Y24994D01*
X42885Y24913D01*
X42984Y24855D01*
X43094Y24826D01*
X43209D01*
X43319Y24855D01*
X43418Y24913D01*
X43499Y24994D01*
X43556Y25093D01*
X43586Y25203D01*
Y25318D01*
X43556Y25428D01*
X43499Y25527D01*
X43418Y25608D01*
X43319Y25666D01*
X43209Y25695D01*
D02*
G37*
G36*
X42586D02*
X41717D01*
Y24826D01*
X42586D01*
Y25695D01*
D02*
G37*
G36*
X58241Y25846D02*
X57041D01*
Y24646D01*
X58241D01*
Y25846D01*
D02*
G37*
G36*
X34200Y32660D02*
Y32337D01*
X34523D01*
X34505Y32405D01*
X34448Y32504D01*
X34367Y32585D01*
X34268Y32642D01*
X34200Y32660D01*
D02*
G37*
G36*
X34000D02*
X33932Y32642D01*
X33833Y32585D01*
X33752Y32504D01*
X33695Y32405D01*
X33677Y32337D01*
X34000D01*
Y32660D01*
D02*
G37*
G36*
X34523Y32137D02*
X34200D01*
Y31814D01*
X34268Y31832D01*
X34367Y31889D01*
X34448Y31970D01*
X34505Y32069D01*
X34523Y32137D01*
D02*
G37*
G36*
X34000D02*
X33677D01*
X33695Y32069D01*
X33752Y31970D01*
X33833Y31889D01*
X33932Y31832D01*
X34000Y31814D01*
Y32137D01*
D02*
G37*
G36*
X40535Y32672D02*
X39665D01*
Y31802D01*
X40535D01*
Y32672D01*
D02*
G37*
G36*
X39157D02*
X39043D01*
X38932Y32642D01*
X38833Y32585D01*
X38752Y32504D01*
X38695Y32405D01*
X38665Y32294D01*
Y32180D01*
X38695Y32069D01*
X38752Y31970D01*
X38833Y31889D01*
X38932Y31832D01*
X39043Y31802D01*
X39157D01*
X39268Y31832D01*
X39367Y31889D01*
X39448Y31970D01*
X39505Y32069D01*
X39535Y32180D01*
Y32294D01*
X39505Y32405D01*
X39448Y32504D01*
X39367Y32585D01*
X39268Y32642D01*
X39157Y32672D01*
D02*
G37*
G36*
X38157D02*
X38043D01*
X37932Y32642D01*
X37833Y32585D01*
X37752Y32504D01*
X37695Y32405D01*
X37665Y32294D01*
Y32180D01*
X37695Y32069D01*
X37752Y31970D01*
X37833Y31889D01*
X37932Y31832D01*
X38043Y31802D01*
X38157D01*
X38268Y31832D01*
X38367Y31889D01*
X38448Y31970D01*
X38505Y32069D01*
X38535Y32180D01*
Y32294D01*
X38505Y32405D01*
X38448Y32504D01*
X38367Y32585D01*
X38268Y32642D01*
X38157Y32672D01*
D02*
G37*
G36*
X37157D02*
X37043D01*
X36932Y32642D01*
X36833Y32585D01*
X36752Y32504D01*
X36695Y32405D01*
X36665Y32294D01*
Y32180D01*
X36695Y32069D01*
X36752Y31970D01*
X36833Y31889D01*
X36932Y31832D01*
X37043Y31802D01*
X37157D01*
X37268Y31832D01*
X37367Y31889D01*
X37448Y31970D01*
X37505Y32069D01*
X37535Y32180D01*
Y32294D01*
X37505Y32405D01*
X37448Y32504D01*
X37367Y32585D01*
X37268Y32642D01*
X37157Y32672D01*
D02*
G37*
G36*
X36157D02*
X36043D01*
X35932Y32642D01*
X35833Y32585D01*
X35752Y32504D01*
X35695Y32405D01*
X35665Y32294D01*
Y32180D01*
X35695Y32069D01*
X35752Y31970D01*
X35833Y31889D01*
X35932Y31832D01*
X36043Y31802D01*
X36157D01*
X36268Y31832D01*
X36367Y31889D01*
X36448Y31970D01*
X36505Y32069D01*
X36535Y32180D01*
Y32294D01*
X36505Y32405D01*
X36448Y32504D01*
X36367Y32585D01*
X36268Y32642D01*
X36157Y32672D01*
D02*
G37*
G36*
X35157D02*
X35043D01*
X34932Y32642D01*
X34833Y32585D01*
X34752Y32504D01*
X34695Y32405D01*
X34665Y32294D01*
Y32180D01*
X34695Y32069D01*
X34752Y31970D01*
X34833Y31889D01*
X34932Y31832D01*
X35043Y31802D01*
X35157D01*
X35268Y31832D01*
X35367Y31889D01*
X35448Y31970D01*
X35505Y32069D01*
X35535Y32180D01*
Y32294D01*
X35505Y32405D01*
X35448Y32504D01*
X35367Y32585D01*
X35268Y32642D01*
X35157Y32672D01*
D02*
G37*
G36*
X33157D02*
X33043D01*
X32932Y32642D01*
X32833Y32585D01*
X32752Y32504D01*
X32695Y32405D01*
X32665Y32294D01*
Y32180D01*
X32695Y32069D01*
X32752Y31970D01*
X32833Y31889D01*
X32932Y31832D01*
X33043Y31802D01*
X33157D01*
X33268Y31832D01*
X33367Y31889D01*
X33448Y31970D01*
X33505Y32069D01*
X33535Y32180D01*
Y32294D01*
X33505Y32405D01*
X33448Y32504D01*
X33367Y32585D01*
X33268Y32642D01*
X33157Y32672D01*
D02*
G37*
G36*
X31157D02*
X31043D01*
X30932Y32642D01*
X30833Y32585D01*
X30752Y32504D01*
X30695Y32405D01*
X30665Y32294D01*
Y32180D01*
X30695Y32069D01*
X30752Y31970D01*
X30833Y31889D01*
X30932Y31832D01*
X31043Y31802D01*
X31157D01*
X31268Y31832D01*
X31367Y31889D01*
X31448Y31970D01*
X31505Y32069D01*
X31535Y32180D01*
Y32294D01*
X31505Y32405D01*
X31448Y32504D01*
X31367Y32585D01*
X31268Y32642D01*
X31157Y32672D01*
D02*
G37*
G36*
X32157D02*
X32043D01*
X31932Y32642D01*
X31833Y32585D01*
X31752Y32504D01*
X31695Y32405D01*
X31665Y32294D01*
Y32180D01*
X31692Y32081D01*
X31336Y31725D01*
X30740D01*
X30672Y31711D01*
X30657Y31702D01*
X26755D01*
X26403Y32054D01*
Y32200D01*
X26430Y32265D01*
Y32337D01*
X26403Y32403D01*
X26352Y32454D01*
X26286Y32481D01*
X26214D01*
X26148Y32454D01*
X26097Y32403D01*
X26070Y32337D01*
Y32265D01*
X26097Y32200D01*
Y31991D01*
X26097Y31991D01*
X26109Y31932D01*
X26142Y31883D01*
X26584Y31441D01*
X26633Y31408D01*
X26692Y31396D01*
X30562D01*
Y29741D01*
X30560Y29737D01*
Y29665D01*
X30587Y29599D01*
X30638Y29549D01*
X30704Y29521D01*
X30776D01*
X30842Y29549D01*
X30893Y29599D01*
X30920Y29665D01*
Y29737D01*
X30918Y29741D01*
Y31368D01*
X31410D01*
X31478Y31382D01*
X31536Y31420D01*
X31944Y31829D01*
X32043Y31802D01*
X32157D01*
X32268Y31832D01*
X32367Y31889D01*
X32448Y31970D01*
X32505Y32069D01*
X32535Y32180D01*
Y32294D01*
X32505Y32405D01*
X32448Y32504D01*
X32367Y32585D01*
X32268Y32642D01*
X32157Y32672D01*
D02*
G37*
G36*
X25210Y32851D02*
X24010D01*
Y31651D01*
X25210D01*
Y32851D01*
D02*
G37*
G36*
X40605Y30681D02*
X39735D01*
Y29811D01*
X40605D01*
Y30681D01*
D02*
G37*
G36*
X25452Y29784D02*
X25361D01*
X25277Y29749D01*
X25213Y29685D01*
X25178Y29601D01*
Y29511D01*
X25213Y29427D01*
X25277Y29363D01*
X25361Y29328D01*
X25452D01*
X25536Y29363D01*
X25600Y29427D01*
X25634Y29511D01*
Y29601D01*
X25600Y29685D01*
X25536Y29749D01*
X25452Y29784D01*
D02*
G37*
G36*
X33296Y30481D02*
X33224D01*
X33158Y30454D01*
X33107Y30403D01*
X33080Y30337D01*
Y30265D01*
X33107Y30199D01*
X33158Y30149D01*
X33224Y30121D01*
X33296D01*
X33362Y30149D01*
X33382Y30169D01*
X33640D01*
X34558Y29250D01*
X34539Y29204D01*
X34215D01*
X34215Y29204D01*
X34199Y29201D01*
X34174D01*
X34151Y29192D01*
X34146Y29191D01*
X34142Y29188D01*
X34108Y29174D01*
X34057Y29123D01*
X34030Y29057D01*
Y28985D01*
X34057Y28919D01*
X34108Y28869D01*
X34174Y28841D01*
X34246D01*
X34261Y28847D01*
X34826D01*
X34831Y28797D01*
X34792Y28790D01*
X34726Y28745D01*
X34682Y28679D01*
X34678Y28662D01*
X33944Y27927D01*
X30752D01*
X30752Y27927D01*
X30684Y27914D01*
X30626Y27875D01*
X30376Y27626D01*
X30230D01*
X30226Y27627D01*
X30154D01*
X30088Y27600D01*
X30038Y27549D01*
X30010Y27483D01*
Y27411D01*
X30038Y27345D01*
X30088Y27295D01*
X30154Y27267D01*
X30226D01*
X30230Y27269D01*
X30411D01*
X30414Y27267D01*
X30486D01*
X30552Y27295D01*
X30603Y27345D01*
X30604Y27349D01*
X30826Y27571D01*
X34018D01*
X34086Y27584D01*
X34144Y27623D01*
X34918Y28397D01*
X38010D01*
X38088Y28413D01*
X38154Y28457D01*
X38594Y28897D01*
X38638Y28963D01*
X38654Y29041D01*
X38638Y29119D01*
X38594Y29185D01*
X38528Y29230D01*
X38450Y29245D01*
X38372Y29230D01*
X38306Y29185D01*
X37926Y28805D01*
X35412D01*
X35370Y28855D01*
X35371Y28861D01*
X35374Y28864D01*
X35409Y28878D01*
X35459Y28928D01*
X35487Y28995D01*
Y29066D01*
X35485Y29071D01*
X35513Y29112D01*
X36089D01*
X36140Y29122D01*
X36183Y29151D01*
X36321Y29289D01*
X36350D01*
X36416Y29317D01*
X36466Y29368D01*
X36494Y29434D01*
Y29505D01*
X36466Y29571D01*
X36416Y29622D01*
X36350Y29649D01*
X36278D01*
X36212Y29622D01*
X36161Y29571D01*
X36134Y29505D01*
Y29477D01*
X36034Y29377D01*
X34806D01*
X33789Y30395D01*
X33746Y30424D01*
X33695Y30434D01*
X33382D01*
X33362Y30454D01*
X33296Y30481D01*
D02*
G37*
G36*
X40227Y29681D02*
X40113D01*
X40002Y29651D01*
X39903Y29594D01*
X39822Y29513D01*
X39765Y29414D01*
X39735Y29303D01*
Y29189D01*
X39765Y29078D01*
X39822Y28979D01*
X39903Y28898D01*
X40002Y28841D01*
X40113Y28811D01*
X40227D01*
X40338Y28841D01*
X40437Y28898D01*
X40518Y28979D01*
X40575Y29078D01*
X40605Y29189D01*
Y29303D01*
X40575Y29414D01*
X40518Y29513D01*
X40437Y29594D01*
X40338Y29651D01*
X40227Y29681D01*
D02*
G37*
G36*
X40270Y28669D02*
Y28346D01*
X40593D01*
X40575Y28414D01*
X40518Y28513D01*
X40437Y28594D01*
X40338Y28651D01*
X40270Y28669D01*
D02*
G37*
G36*
X40070D02*
X40002Y28651D01*
X39903Y28594D01*
X39822Y28513D01*
X39765Y28414D01*
X39747Y28346D01*
X40070D01*
Y28669D01*
D02*
G37*
G36*
X40593Y28146D02*
X40270D01*
Y27823D01*
X40338Y27841D01*
X40437Y27898D01*
X40518Y27979D01*
X40575Y28078D01*
X40593Y28146D01*
D02*
G37*
G36*
X40070D02*
X39747D01*
X39765Y28078D01*
X39822Y27979D01*
X39903Y27898D01*
X40002Y27841D01*
X40070Y27823D01*
Y28146D01*
D02*
G37*
G36*
X25452Y28209D02*
X25361D01*
X25277Y28175D01*
X25213Y28110D01*
X25178Y28027D01*
Y27936D01*
X25213Y27852D01*
X25277Y27788D01*
X25361Y27753D01*
X25452D01*
X25536Y27788D01*
X25600Y27852D01*
X25634Y27936D01*
Y28027D01*
X25600Y28110D01*
X25536Y28175D01*
X25452Y28209D01*
D02*
G37*
G36*
X38937Y29649D02*
X38866D01*
X38800Y29622D01*
X38749Y29571D01*
X38722Y29505D01*
Y29434D01*
X38749Y29368D01*
X38769Y29347D01*
Y28514D01*
X38779Y28464D01*
X38808Y28421D01*
X39783Y27445D01*
X39765Y27414D01*
X39735Y27303D01*
Y27189D01*
X39765Y27078D01*
X39822Y26979D01*
X39903Y26898D01*
X40002Y26841D01*
X40113Y26811D01*
X40227D01*
X40338Y26841D01*
X40437Y26898D01*
X40518Y26979D01*
X40575Y27078D01*
X40605Y27189D01*
Y27303D01*
X40575Y27414D01*
X40518Y27513D01*
X40437Y27594D01*
X40338Y27651D01*
X40227Y27681D01*
X40113D01*
X40002Y27651D01*
X39971Y27633D01*
X39034Y28569D01*
Y29347D01*
X39054Y29368D01*
X39082Y29434D01*
Y29505D01*
X39054Y29571D01*
X39004Y29622D01*
X38937Y29649D01*
D02*
G37*
G36*
X25190Y25791D02*
X24690D01*
Y25291D01*
X25190D01*
Y25791D01*
D02*
G37*
G36*
X24490D02*
X23990D01*
Y25291D01*
X24490D01*
Y25791D01*
D02*
G37*
G36*
X40535Y25640D02*
X39665D01*
Y24771D01*
X40535D01*
Y25640D01*
D02*
G37*
G36*
X39157D02*
X39043D01*
X38932Y25610D01*
X38833Y25553D01*
X38752Y25472D01*
X38695Y25373D01*
X38665Y25263D01*
Y25148D01*
X38695Y25038D01*
X38752Y24939D01*
X38833Y24858D01*
X38932Y24800D01*
X39043Y24771D01*
X39157D01*
X39268Y24800D01*
X39367Y24858D01*
X39448Y24939D01*
X39505Y25038D01*
X39535Y25148D01*
Y25263D01*
X39505Y25373D01*
X39448Y25472D01*
X39367Y25553D01*
X39268Y25610D01*
X39157Y25640D01*
D02*
G37*
G36*
X38157D02*
X38043D01*
X37932Y25610D01*
X37833Y25553D01*
X37752Y25472D01*
X37695Y25373D01*
X37665Y25263D01*
Y25148D01*
X37695Y25038D01*
X37752Y24939D01*
X37833Y24858D01*
X37932Y24800D01*
X38043Y24771D01*
X38157D01*
X38268Y24800D01*
X38367Y24858D01*
X38448Y24939D01*
X38505Y25038D01*
X38535Y25148D01*
Y25263D01*
X38505Y25373D01*
X38448Y25472D01*
X38367Y25553D01*
X38268Y25610D01*
X38157Y25640D01*
D02*
G37*
G36*
X37157D02*
X37043D01*
X36932Y25610D01*
X36833Y25553D01*
X36752Y25472D01*
X36695Y25373D01*
X36665Y25263D01*
Y25148D01*
X36695Y25038D01*
X36752Y24939D01*
X36833Y24858D01*
X36932Y24800D01*
X37043Y24771D01*
X37157D01*
X37268Y24800D01*
X37367Y24858D01*
X37448Y24939D01*
X37505Y25038D01*
X37535Y25148D01*
Y25263D01*
X37505Y25373D01*
X37448Y25472D01*
X37367Y25553D01*
X37268Y25610D01*
X37157Y25640D01*
D02*
G37*
G36*
X36157D02*
X36043D01*
X35932Y25610D01*
X35833Y25553D01*
X35752Y25472D01*
X35695Y25373D01*
X35665Y25263D01*
Y25148D01*
X35695Y25038D01*
X35752Y24939D01*
X35833Y24858D01*
X35932Y24800D01*
X36043Y24771D01*
X36157D01*
X36268Y24800D01*
X36367Y24858D01*
X36448Y24939D01*
X36505Y25038D01*
X36535Y25148D01*
Y25263D01*
X36505Y25373D01*
X36448Y25472D01*
X36367Y25553D01*
X36268Y25610D01*
X36157Y25640D01*
D02*
G37*
G36*
X35157D02*
X35043D01*
X34932Y25610D01*
X34833Y25553D01*
X34752Y25472D01*
X34695Y25373D01*
X34665Y25263D01*
Y25148D01*
X34695Y25038D01*
X34752Y24939D01*
X34833Y24858D01*
X34932Y24800D01*
X35043Y24771D01*
X35157D01*
X35268Y24800D01*
X35367Y24858D01*
X35448Y24939D01*
X35505Y25038D01*
X35535Y25148D01*
Y25263D01*
X35505Y25373D01*
X35448Y25472D01*
X35367Y25553D01*
X35268Y25610D01*
X35157Y25640D01*
D02*
G37*
G36*
X34157D02*
X34043D01*
X33932Y25610D01*
X33833Y25553D01*
X33752Y25472D01*
X33695Y25373D01*
X33665Y25263D01*
Y25148D01*
X33695Y25038D01*
X33752Y24939D01*
X33833Y24858D01*
X33932Y24800D01*
X34043Y24771D01*
X34157D01*
X34268Y24800D01*
X34367Y24858D01*
X34448Y24939D01*
X34505Y25038D01*
X34535Y25148D01*
Y25263D01*
X34505Y25373D01*
X34448Y25472D01*
X34367Y25553D01*
X34268Y25610D01*
X34157Y25640D01*
D02*
G37*
G36*
X33157D02*
X33043D01*
X32932Y25610D01*
X32833Y25553D01*
X32752Y25472D01*
X32695Y25373D01*
X32665Y25263D01*
Y25148D01*
X32695Y25038D01*
X32752Y24939D01*
X32833Y24858D01*
X32932Y24800D01*
X33043Y24771D01*
X33157D01*
X33268Y24800D01*
X33367Y24858D01*
X33448Y24939D01*
X33505Y25038D01*
X33535Y25148D01*
Y25263D01*
X33505Y25373D01*
X33448Y25472D01*
X33367Y25553D01*
X33268Y25610D01*
X33157Y25640D01*
D02*
G37*
G36*
X32157D02*
X32043D01*
X31932Y25610D01*
X31833Y25553D01*
X31752Y25472D01*
X31695Y25373D01*
X31665Y25263D01*
Y25148D01*
X31695Y25038D01*
X31752Y24939D01*
X31833Y24858D01*
X31932Y24800D01*
X32043Y24771D01*
X32157D01*
X32268Y24800D01*
X32367Y24858D01*
X32448Y24939D01*
X32505Y25038D01*
X32535Y25148D01*
Y25263D01*
X32505Y25373D01*
X32448Y25472D01*
X32367Y25553D01*
X32268Y25610D01*
X32157Y25640D01*
D02*
G37*
G36*
X31157D02*
X31043D01*
X30932Y25610D01*
X30833Y25553D01*
X30752Y25472D01*
X30695Y25373D01*
X30665Y25263D01*
Y25148D01*
X30695Y25038D01*
X30752Y24939D01*
X30833Y24858D01*
X30932Y24800D01*
X31043Y24771D01*
X31157D01*
X31268Y24800D01*
X31367Y24858D01*
X31448Y24939D01*
X31505Y25038D01*
X31535Y25148D01*
Y25263D01*
X31505Y25373D01*
X31448Y25472D01*
X31367Y25553D01*
X31268Y25610D01*
X31157Y25640D01*
D02*
G37*
G36*
X25190Y25091D02*
X24690D01*
Y24591D01*
X25190D01*
Y25091D01*
D02*
G37*
G36*
X24490D02*
X23990D01*
Y24591D01*
X24490D01*
Y25091D01*
D02*
G37*
%LPD*%
D11*
X26692Y31549D02*
X30738D01*
X30740Y31547D01*
X26250Y31991D02*
X26692Y31549D01*
X26250Y31991D02*
Y32301D01*
X26692Y40604D02*
X30738D01*
X30740Y40602D01*
X26250Y41046D02*
X26692Y40604D01*
X26250Y41046D02*
Y41356D01*
X55559Y35004D02*
X51514D01*
X51511Y35006D01*
X56001Y34562D02*
X55559Y35004D01*
X56001Y34562D02*
Y34251D01*
X55559Y25949D02*
X51514D01*
X51511Y25951D01*
X56001Y25507D02*
X55559Y25949D01*
X56001Y25507D02*
Y25196D01*
D12*
X23410Y45510D02*
Y45210D01*
X23560D01*
X23610Y45260D01*
Y45310D01*
X23560Y45360D01*
X23410D01*
X23560D01*
X23610Y45410D01*
Y45460D01*
X23560Y45510D01*
X23410D01*
X23760Y45210D02*
X23860D01*
X23910Y45260D01*
Y45360D01*
X23860Y45410D01*
X23760D01*
X23710Y45360D01*
Y45260D01*
X23760Y45210D01*
X24060Y45460D02*
Y45410D01*
X24010D01*
X24110D01*
X24060D01*
Y45260D01*
X24110Y45210D01*
X24310Y45460D02*
Y45410D01*
X24260D01*
X24360D01*
X24310D01*
Y45260D01*
X24360Y45210D01*
X24560D02*
X24660D01*
X24710Y45260D01*
Y45360D01*
X24660Y45410D01*
X24560D01*
X24510Y45360D01*
Y45260D01*
X24560Y45210D01*
X24810D02*
Y45410D01*
X24860D01*
X24910Y45360D01*
Y45210D01*
Y45360D01*
X24959Y45410D01*
X25009Y45360D01*
Y45210D01*
X25409Y45510D02*
Y45210D01*
X25609D01*
X25759Y45410D02*
X25859D01*
X25909Y45360D01*
Y45210D01*
X25759D01*
X25709Y45260D01*
X25759Y45310D01*
X25909D01*
X26009Y45410D02*
Y45260D01*
X26059Y45210D01*
X26209D01*
Y45160D01*
X26159Y45110D01*
X26109D01*
X26209Y45210D02*
Y45410D01*
X26459Y45210D02*
X26359D01*
X26309Y45260D01*
Y45360D01*
X26359Y45410D01*
X26459D01*
X26509Y45360D01*
Y45310D01*
X26309D01*
X26609Y45410D02*
Y45210D01*
Y45310D01*
X26659Y45360D01*
X26709Y45410D01*
X26759D01*
D13*
X33695Y30301D02*
X34751Y29245D01*
X33260Y30301D02*
X33695D01*
X36089Y29245D02*
X36314Y29469D01*
X34751Y29245D02*
X36089D01*
X38902Y28514D02*
Y29469D01*
X38910Y29461D01*
X38902Y28514D02*
X40170Y27246D01*
X33695Y39356D02*
X34751Y38300D01*
X33260Y39356D02*
X33695D01*
X36089Y38300D02*
X36314Y38525D01*
X34751Y38300D02*
X36089D01*
X38902Y37570D02*
Y38525D01*
X38910Y38516D01*
X38902Y37570D02*
X40170Y36301D01*
X48556Y36251D02*
X47500Y37308D01*
X48991Y36251D02*
X48556D01*
X46162Y37308D02*
X45938Y37083D01*
X47500Y37308D02*
X46162D01*
X43350Y38038D02*
Y37083D01*
X43341Y37091D01*
X43350Y38038D02*
X42081Y39306D01*
X48556Y27196D02*
X47500Y28253D01*
X48991Y27196D02*
X48556D01*
X46162Y28253D02*
X45938Y28028D01*
X47500Y28253D02*
X46162D01*
X43350Y28983D02*
Y28028D01*
X43341Y28036D01*
X43350Y28983D02*
X42081Y30251D01*
D23*
X38010Y28601D02*
X38450Y29041D01*
X34870Y28601D02*
X38010D01*
Y37656D02*
X38450Y38096D01*
X34870Y37656D02*
X38010D01*
X44241Y37951D02*
X43801Y37511D01*
X47381Y37951D02*
X44241D01*
Y28896D02*
X43801Y28456D01*
X47381Y28896D02*
X44241D01*
D24*
X34215Y29026D02*
X35302D01*
X34210Y29021D02*
X34215Y29026D01*
X35302D02*
X35307Y29030D01*
X30740Y29701D02*
Y31547D01*
X31410D02*
X32100Y32237D01*
X30740Y31547D02*
X31410D01*
X30752Y27749D02*
X34018D01*
X30450Y27447D02*
X30752Y27749D01*
X34018D02*
X34870Y28601D01*
X30190Y27447D02*
X30450D01*
X34215Y38081D02*
X35302D01*
X34210Y38076D02*
X34215Y38081D01*
X35302D02*
X35307Y38085D01*
X30740Y38756D02*
Y40602D01*
X31410D02*
X32100Y41292D01*
X30740Y40602D02*
X31410D01*
X30752Y36804D02*
X34018D01*
X30450Y36502D02*
X30752Y36804D01*
X34018D02*
X34870Y37656D01*
X30190Y36502D02*
X30450D01*
X48037Y37527D02*
X46949D01*
X48041Y37531D02*
X48037Y37527D01*
X46949D02*
X46945Y37522D01*
X51511Y36851D02*
Y35006D01*
X50842D02*
X50151Y34316D01*
X51511Y35006D02*
X50842D01*
X51500Y38804D02*
X48234D01*
X51801Y39105D02*
X51500Y38804D01*
X48234D02*
X47381Y37951D01*
X52061Y39105D02*
X51801D01*
X48037Y28472D02*
X46949D01*
X48041Y28476D02*
X48037Y28472D01*
X46949D02*
X46945Y28467D01*
X51511Y27796D02*
Y25951D01*
X50842D02*
X50151Y25261D01*
X51511Y25951D02*
X50842D01*
X51500Y29748D02*
X48234D01*
X51801Y30050D02*
X51500Y29748D01*
X48234D02*
X47381Y28896D01*
X52061Y30050D02*
X51801D01*
D35*
X57867Y43392D02*
D03*
X24399Y43316D02*
D03*
X57852Y23237D02*
D03*
X24384Y23161D02*
D03*
D36*
X24590Y25191D02*
D03*
X24610Y32251D02*
D03*
X24590Y34246D02*
D03*
X24610Y41306D02*
D03*
X57661Y41361D02*
D03*
X57641Y34301D02*
D03*
X57661Y32306D02*
D03*
X57641Y25246D02*
D03*
D37*
X40170Y30246D02*
D03*
Y39301D02*
D03*
X42081Y36306D02*
D03*
Y27251D02*
D03*
D38*
X40170Y29246D02*
D03*
Y28246D02*
D03*
Y27246D02*
D03*
X39100Y25205D02*
D03*
X38100D02*
D03*
X37100D02*
D03*
X36100D02*
D03*
X35100D02*
D03*
X34100D02*
D03*
X33100D02*
D03*
X32100D02*
D03*
X31100D02*
D03*
X32100Y32237D02*
D03*
X34100D02*
D03*
X33100D02*
D03*
X31100D02*
D03*
X35100D02*
D03*
X36100D02*
D03*
X37100D02*
D03*
X38100D02*
D03*
X39100D02*
D03*
X40170Y38301D02*
D03*
Y37301D02*
D03*
Y36301D02*
D03*
X39100Y34261D02*
D03*
X38100D02*
D03*
X37100D02*
D03*
X36100D02*
D03*
X35100D02*
D03*
X34100D02*
D03*
X33100D02*
D03*
X32100D02*
D03*
X31100D02*
D03*
X32100Y41292D02*
D03*
X34100D02*
D03*
X33100D02*
D03*
X31100D02*
D03*
X35100D02*
D03*
X36100D02*
D03*
X37100D02*
D03*
X38100D02*
D03*
X39100D02*
D03*
X42081Y37306D02*
D03*
Y38306D02*
D03*
Y39306D02*
D03*
X43151Y41347D02*
D03*
X44151D02*
D03*
X45151D02*
D03*
X46151D02*
D03*
X47151D02*
D03*
X48151D02*
D03*
X49151D02*
D03*
X50151D02*
D03*
X51151D02*
D03*
X50151Y34316D02*
D03*
X48151D02*
D03*
X49151D02*
D03*
X51151D02*
D03*
X47151D02*
D03*
X46151D02*
D03*
X45151D02*
D03*
X44151D02*
D03*
X43151D02*
D03*
X42081Y28251D02*
D03*
Y29251D02*
D03*
Y30251D02*
D03*
X43151Y32292D02*
D03*
X44151D02*
D03*
X45151D02*
D03*
X46151D02*
D03*
X47151D02*
D03*
X48151D02*
D03*
X49151D02*
D03*
X50151D02*
D03*
X51151D02*
D03*
X50151Y25261D02*
D03*
X48151D02*
D03*
X49151D02*
D03*
X51151D02*
D03*
X47151D02*
D03*
X46151D02*
D03*
X45151D02*
D03*
X44151D02*
D03*
X43151D02*
D03*
D39*
X40100Y25205D02*
D03*
Y32237D02*
D03*
Y34261D02*
D03*
Y41292D02*
D03*
X42151Y41347D02*
D03*
Y34316D02*
D03*
Y32292D02*
D03*
Y25261D02*
D03*
D40*
X25406Y27981D02*
D03*
Y29556D02*
D03*
Y37036D02*
D03*
Y38611D02*
D03*
X56845Y38571D02*
D03*
Y36996D02*
D03*
Y29516D02*
D03*
Y27941D02*
D03*
D41*
X34210Y29021D02*
D03*
X35307Y29030D02*
D03*
X35550Y29475D02*
D03*
X33884Y28113D02*
D03*
X29550Y32291D02*
D03*
X30740Y29701D02*
D03*
X30450Y27447D02*
D03*
X38450Y29041D02*
D03*
X34870Y28601D02*
D03*
X38902Y29469D02*
D03*
X33260Y30301D02*
D03*
X36314Y29469D02*
D03*
X29960Y30291D02*
D03*
X30220D02*
D03*
X30190Y27447D02*
D03*
X26160Y27841D02*
D03*
X26420D02*
D03*
X26250Y32301D02*
D03*
X34210Y38076D02*
D03*
X35307Y38085D02*
D03*
X35550Y38530D02*
D03*
X33884Y37168D02*
D03*
X29550Y41346D02*
D03*
X30740Y38756D02*
D03*
X30450Y36502D02*
D03*
X38450Y38096D02*
D03*
X34870Y37656D02*
D03*
X38902Y38525D02*
D03*
X33260Y39356D02*
D03*
X36314Y38525D02*
D03*
X29960Y39346D02*
D03*
X30220D02*
D03*
X30190Y36502D02*
D03*
X26160Y36896D02*
D03*
X26420D02*
D03*
X26250Y41356D02*
D03*
X48041Y37531D02*
D03*
X46945Y37522D02*
D03*
X46701Y37077D02*
D03*
X48367Y38439D02*
D03*
X52701Y34261D02*
D03*
X51511Y36851D02*
D03*
X51801Y39105D02*
D03*
X43801Y37511D02*
D03*
X47381Y37951D02*
D03*
X43350Y37083D02*
D03*
X48991Y36251D02*
D03*
X45938Y37083D02*
D03*
X52291Y36261D02*
D03*
X52031D02*
D03*
X52061Y39105D02*
D03*
X56091Y38711D02*
D03*
X55831D02*
D03*
X56001Y34251D02*
D03*
X48041Y28476D02*
D03*
X46945Y28467D02*
D03*
X46701Y28022D02*
D03*
X48367Y29384D02*
D03*
X52701Y25206D02*
D03*
X51511Y27796D02*
D03*
X51801Y30050D02*
D03*
X43801Y28456D02*
D03*
X47381Y28896D02*
D03*
X43350Y28028D02*
D03*
X48991Y27196D02*
D03*
X45938Y28028D02*
D03*
X52291Y27206D02*
D03*
X52031D02*
D03*
X52061Y30050D02*
D03*
X56091Y29656D02*
D03*
X55831D02*
D03*
X56001Y25196D02*
D03*
M02*
