G04*
G04 #@! TF.GenerationSoftware,Altium Limited,Altium Designer,21.2.2 (38)*
G04*
G04 Layer_Color=8388736*
%FSLAX24Y24*%
%MOIN*%
G70*
G04*
G04 #@! TF.SameCoordinates,4FF2B1F3-0D2B-4292-BC26-430B10DD4990*
G04*
G04*
G04 #@! TF.FilePolarity,Negative*
G04*
G01*
G75*
%ADD12C,0.0050*%
%ADD46C,0.0787*%
%ADD47C,0.0474*%
%ADD48R,0.0430X0.0365*%
%ADD49R,0.0500X0.0550*%
%ADD50O,0.0227X0.0601*%
%ADD51R,0.0365X0.0430*%
%ADD52R,0.0522X0.0759*%
%ADD53R,0.0385X0.0837*%
%ADD54R,0.1310X0.0837*%
%ADD55R,0.0601X0.0207*%
%ADD56R,0.0798X0.0759*%
%ADD57R,0.0365X0.0430*%
%ADD58C,0.1261*%
%ADD59R,0.1050X0.1050*%
%ADD60R,0.0719X0.0719*%
%ADD61C,0.0719*%
%ADD62R,0.0719X0.0719*%
%ADD63C,0.0306*%
D12*
X23410Y45510D02*
X23610D01*
X23510D01*
Y45210D01*
X23760D02*
X23860D01*
X23910Y45260D01*
Y45360D01*
X23860Y45410D01*
X23760D01*
X23710Y45360D01*
Y45260D01*
X23760Y45210D01*
X24010Y45110D02*
Y45410D01*
X24160D01*
X24210Y45360D01*
Y45260D01*
X24160Y45210D01*
X24010D01*
X24810Y45460D02*
X24760Y45510D01*
X24660D01*
X24610Y45460D01*
Y45410D01*
X24660Y45360D01*
X24760D01*
X24810Y45310D01*
Y45260D01*
X24760Y45210D01*
X24660D01*
X24610Y45260D01*
X24959Y45210D02*
X25059D01*
X25109Y45260D01*
Y45360D01*
X25059Y45410D01*
X24959D01*
X24910Y45360D01*
Y45260D01*
X24959Y45210D01*
X25209D02*
X25309D01*
X25259D01*
Y45510D01*
X25209D01*
X25659D02*
Y45210D01*
X25509D01*
X25459Y45260D01*
Y45360D01*
X25509Y45410D01*
X25659D01*
X25909Y45210D02*
X25809D01*
X25759Y45260D01*
Y45360D01*
X25809Y45410D01*
X25909D01*
X25959Y45360D01*
Y45310D01*
X25759D01*
X26059Y45410D02*
Y45210D01*
Y45310D01*
X26109Y45360D01*
X26159Y45410D01*
X26209D01*
D46*
X56046Y23496D02*
D03*
X56061Y43133D02*
D03*
X26190Y23420D02*
D03*
D47*
X56046Y23496D02*
D03*
X56061Y43133D02*
D03*
X26190Y23420D02*
D03*
D48*
X27270Y25211D02*
D03*
X26650D02*
D03*
X26660Y32291D02*
D03*
X27280D02*
D03*
X27270Y34266D02*
D03*
X26650D02*
D03*
X26660Y41346D02*
D03*
X27280D02*
D03*
X54981Y41341D02*
D03*
X55601D02*
D03*
X55591Y34261D02*
D03*
X54971D02*
D03*
X54981Y32286D02*
D03*
X55601D02*
D03*
X55591Y25206D02*
D03*
X54971D02*
D03*
D49*
X28180Y25211D02*
D03*
X29080D02*
D03*
X28200Y32291D02*
D03*
X29100D02*
D03*
X28180Y34266D02*
D03*
X29080D02*
D03*
X28200Y41346D02*
D03*
X29100D02*
D03*
X54071Y41341D02*
D03*
X53171D02*
D03*
X54051Y34261D02*
D03*
X53151D02*
D03*
X54071Y32286D02*
D03*
X53171D02*
D03*
X54051Y25206D02*
D03*
X53151D02*
D03*
D50*
X37082Y29903D02*
D03*
X36826D02*
D03*
X36570D02*
D03*
X36314D02*
D03*
X36058D02*
D03*
X35802D02*
D03*
X34778D02*
D03*
X37082Y27580D02*
D03*
X36826D02*
D03*
X36570D02*
D03*
X36314D02*
D03*
X36058D02*
D03*
X35802D02*
D03*
X35546D02*
D03*
X35290D02*
D03*
X35034D02*
D03*
X34778D02*
D03*
X35290Y29903D02*
D03*
X35546D02*
D03*
X35034D02*
D03*
X37082Y38958D02*
D03*
X36826D02*
D03*
X36570D02*
D03*
X36314D02*
D03*
X36058D02*
D03*
X35802D02*
D03*
X34778D02*
D03*
X37082Y36635D02*
D03*
X36826D02*
D03*
X36570D02*
D03*
X36314D02*
D03*
X36058D02*
D03*
X35802D02*
D03*
X35546D02*
D03*
X35290D02*
D03*
X35034D02*
D03*
X34778D02*
D03*
X35290Y38958D02*
D03*
X35546D02*
D03*
X35034D02*
D03*
X45170Y36650D02*
D03*
X45426D02*
D03*
X45682D02*
D03*
X45938D02*
D03*
X46193D02*
D03*
X46449D02*
D03*
X47473D02*
D03*
X45170Y38973D02*
D03*
X45426D02*
D03*
X45682D02*
D03*
X45938D02*
D03*
X46193D02*
D03*
X46449D02*
D03*
X46705D02*
D03*
X46961D02*
D03*
X47217D02*
D03*
X47473D02*
D03*
X46961Y36650D02*
D03*
X46705D02*
D03*
X47217D02*
D03*
X45170Y27595D02*
D03*
X45426D02*
D03*
X45682D02*
D03*
X45938D02*
D03*
X46193D02*
D03*
X46449D02*
D03*
X47473D02*
D03*
X45170Y29918D02*
D03*
X45426D02*
D03*
X45682D02*
D03*
X45938D02*
D03*
X46193D02*
D03*
X46449D02*
D03*
X46705D02*
D03*
X46961D02*
D03*
X47217D02*
D03*
X47473D02*
D03*
X46961Y27595D02*
D03*
X46705D02*
D03*
X47217D02*
D03*
D51*
X33900Y28471D02*
D03*
Y29091D02*
D03*
X31160Y28316D02*
D03*
Y27696D02*
D03*
X31170Y29156D02*
D03*
Y29776D02*
D03*
X30250Y28381D02*
D03*
Y29001D02*
D03*
X26620Y29041D02*
D03*
Y28421D02*
D03*
X33900Y37526D02*
D03*
Y38146D02*
D03*
X31160Y37371D02*
D03*
Y36751D02*
D03*
X31170Y38211D02*
D03*
Y38831D02*
D03*
X30250Y37436D02*
D03*
Y38056D02*
D03*
X26620Y38096D02*
D03*
Y37476D02*
D03*
X48351Y38081D02*
D03*
Y37461D02*
D03*
X55631Y37511D02*
D03*
Y38131D02*
D03*
X48351Y29026D02*
D03*
Y28406D02*
D03*
X55631Y28456D02*
D03*
Y29076D02*
D03*
D52*
X32698Y27178D02*
D03*
X32690Y30301D02*
D03*
X32698Y36233D02*
D03*
X32690Y39356D02*
D03*
X49554Y39375D02*
D03*
X49561Y36251D02*
D03*
X49554Y30319D02*
D03*
X49561Y27196D02*
D03*
D53*
X28480Y30011D02*
D03*
X27574D02*
D03*
X29386D02*
D03*
X28480Y39066D02*
D03*
X27574D02*
D03*
X29386D02*
D03*
X53771Y36541D02*
D03*
X54677D02*
D03*
X52866D02*
D03*
X53771Y27486D02*
D03*
X54677D02*
D03*
X52866D02*
D03*
D54*
X28480Y27461D02*
D03*
Y36516D02*
D03*
X53771Y39091D02*
D03*
Y30036D02*
D03*
D55*
X25603Y29281D02*
D03*
Y28257D02*
D03*
Y29025D02*
D03*
Y28769D02*
D03*
Y28513D02*
D03*
Y38336D02*
D03*
Y37312D02*
D03*
Y38080D02*
D03*
Y37824D02*
D03*
Y37568D02*
D03*
X56648Y37272D02*
D03*
Y38296D02*
D03*
Y37528D02*
D03*
Y37784D02*
D03*
Y38040D02*
D03*
Y28217D02*
D03*
Y29241D02*
D03*
Y28473D02*
D03*
Y28729D02*
D03*
Y28985D02*
D03*
D56*
X24560Y30343D02*
D03*
Y27194D02*
D03*
Y28296D02*
D03*
Y29241D02*
D03*
Y39399D02*
D03*
Y36249D02*
D03*
Y37351D02*
D03*
Y38296D02*
D03*
X57691Y36209D02*
D03*
Y39359D02*
D03*
Y38256D02*
D03*
Y37311D02*
D03*
Y27154D02*
D03*
Y30303D02*
D03*
Y29201D02*
D03*
Y28256D02*
D03*
D57*
X51091Y38236D02*
D03*
Y38856D02*
D03*
X51081Y37396D02*
D03*
Y36776D02*
D03*
X52001Y38171D02*
D03*
Y37551D02*
D03*
X51091Y29181D02*
D03*
Y29801D02*
D03*
X51081Y28341D02*
D03*
Y27721D02*
D03*
X52001Y29116D02*
D03*
Y28496D02*
D03*
D58*
X57867Y43392D02*
D03*
X24399Y43316D02*
D03*
X57852Y23237D02*
D03*
X24384Y23161D02*
D03*
D59*
X24590Y25191D02*
D03*
X24610Y32251D02*
D03*
X24590Y34246D02*
D03*
X24610Y41306D02*
D03*
X57661Y41361D02*
D03*
X57641Y34301D02*
D03*
X57661Y32306D02*
D03*
X57641Y25246D02*
D03*
D60*
X40170Y30246D02*
D03*
Y39301D02*
D03*
X42081Y36306D02*
D03*
Y27251D02*
D03*
D61*
X40170Y29246D02*
D03*
Y28246D02*
D03*
Y27246D02*
D03*
X39100Y25205D02*
D03*
X38100D02*
D03*
X37100D02*
D03*
X36100D02*
D03*
X35100D02*
D03*
X34100D02*
D03*
X33100D02*
D03*
X32100D02*
D03*
X31100D02*
D03*
X32100Y32237D02*
D03*
X34100D02*
D03*
X33100D02*
D03*
X31100D02*
D03*
X35100D02*
D03*
X36100D02*
D03*
X37100D02*
D03*
X38100D02*
D03*
X39100D02*
D03*
X40170Y38301D02*
D03*
Y37301D02*
D03*
Y36301D02*
D03*
X39100Y34261D02*
D03*
X38100D02*
D03*
X37100D02*
D03*
X36100D02*
D03*
X35100D02*
D03*
X34100D02*
D03*
X33100D02*
D03*
X32100D02*
D03*
X31100D02*
D03*
X32100Y41292D02*
D03*
X34100D02*
D03*
X33100D02*
D03*
X31100D02*
D03*
X35100D02*
D03*
X36100D02*
D03*
X37100D02*
D03*
X38100D02*
D03*
X39100D02*
D03*
X42081Y37306D02*
D03*
Y38306D02*
D03*
Y39306D02*
D03*
X43151Y41347D02*
D03*
X44151D02*
D03*
X45151D02*
D03*
X46151D02*
D03*
X47151D02*
D03*
X48151D02*
D03*
X49151D02*
D03*
X50151D02*
D03*
X51151D02*
D03*
X50151Y34316D02*
D03*
X48151D02*
D03*
X49151D02*
D03*
X51151D02*
D03*
X47151D02*
D03*
X46151D02*
D03*
X45151D02*
D03*
X44151D02*
D03*
X43151D02*
D03*
X42081Y28251D02*
D03*
Y29251D02*
D03*
Y30251D02*
D03*
X43151Y32292D02*
D03*
X44151D02*
D03*
X45151D02*
D03*
X46151D02*
D03*
X47151D02*
D03*
X48151D02*
D03*
X49151D02*
D03*
X50151D02*
D03*
X51151D02*
D03*
X50151Y25261D02*
D03*
X48151D02*
D03*
X49151D02*
D03*
X51151D02*
D03*
X47151D02*
D03*
X46151D02*
D03*
X45151D02*
D03*
X44151D02*
D03*
X43151D02*
D03*
D62*
X40100Y25205D02*
D03*
Y32237D02*
D03*
Y34261D02*
D03*
Y41292D02*
D03*
X42151Y41347D02*
D03*
Y34316D02*
D03*
Y32292D02*
D03*
Y25261D02*
D03*
D63*
X25406Y27981D02*
D03*
Y29556D02*
D03*
Y37036D02*
D03*
Y38611D02*
D03*
X56845Y38571D02*
D03*
Y36996D02*
D03*
Y29516D02*
D03*
Y27941D02*
D03*
M02*
