G04*
G04 #@! TF.GenerationSoftware,Altium Limited,Altium Designer,21.2.2 (38)*
G04*
G04 Layer_Color=32896*
%FSLAX24Y24*%
%MOIN*%
G70*
G04*
G04 #@! TF.SameCoordinates,4FF2B1F3-0D2B-4292-BC26-430B10DD4990*
G04*
G04*
G04 #@! TF.FilePolarity,Positive*
G04*
G01*
G75*
%ADD12C,0.0050*%
D12*
X23410Y45510D02*
Y45210D01*
X23560D01*
X23610Y45260D01*
Y45310D01*
X23560Y45360D01*
X23410D01*
X23560D01*
X23610Y45410D01*
Y45460D01*
X23560Y45510D01*
X23410D01*
X23760Y45210D02*
X23860D01*
X23910Y45260D01*
Y45360D01*
X23860Y45410D01*
X23760D01*
X23710Y45360D01*
Y45260D01*
X23760Y45210D01*
X24060Y45460D02*
Y45410D01*
X24010D01*
X24110D01*
X24060D01*
Y45260D01*
X24110Y45210D01*
X24310Y45460D02*
Y45410D01*
X24260D01*
X24360D01*
X24310D01*
Y45260D01*
X24360Y45210D01*
X24560D02*
X24660D01*
X24710Y45260D01*
Y45360D01*
X24660Y45410D01*
X24560D01*
X24510Y45360D01*
Y45260D01*
X24560Y45210D01*
X24810D02*
Y45410D01*
X24860D01*
X24910Y45360D01*
Y45210D01*
Y45360D01*
X24959Y45410D01*
X25009Y45360D01*
Y45210D01*
X25559Y45510D02*
X25459D01*
X25409Y45460D01*
Y45260D01*
X25459Y45210D01*
X25559D01*
X25609Y45260D01*
Y45460D01*
X25559Y45510D01*
X25709Y45410D02*
X25809Y45210D01*
X25909Y45410D01*
X26159Y45210D02*
X26059D01*
X26009Y45260D01*
Y45360D01*
X26059Y45410D01*
X26159D01*
X26209Y45360D01*
Y45310D01*
X26009D01*
X26309Y45410D02*
Y45210D01*
Y45310D01*
X26359Y45360D01*
X26409Y45410D01*
X26459D01*
X26609Y45210D02*
X26709D01*
X26659D01*
Y45510D01*
X26609D01*
X26909Y45410D02*
X27009D01*
X27059Y45360D01*
Y45210D01*
X26909D01*
X26859Y45260D01*
X26909Y45310D01*
X27059D01*
X27159Y45410D02*
Y45260D01*
X27209Y45210D01*
X27359D01*
Y45160D01*
X27309Y45110D01*
X27259D01*
X27359Y45210D02*
Y45410D01*
M02*
