G04*
G04 #@! TF.GenerationSoftware,Altium Limited,Altium Designer,21.2.2 (38)*
G04*
G04 Layer_Color=128*
%FSLAX24Y24*%
%MOIN*%
G70*
G04*
G04 #@! TF.SameCoordinates,4FF2B1F3-0D2B-4292-BC26-430B10DD4990*
G04*
G04*
G04 #@! TF.FilePolarity,Positive*
G04*
G01*
G75*
%ADD12C,0.0050*%
D12*
X23410Y45410D02*
Y45110D01*
X23560D01*
X23610Y45160D01*
Y45210D01*
X23560Y45260D01*
X23410D01*
X23560D01*
X23610Y45310D01*
Y45360D01*
X23560Y45410D01*
X23410D01*
X23760Y45110D02*
X23860D01*
X23910Y45160D01*
Y45260D01*
X23860Y45310D01*
X23760D01*
X23710Y45260D01*
Y45160D01*
X23760Y45110D01*
X24060Y45360D02*
Y45310D01*
X24010D01*
X24110D01*
X24060D01*
Y45160D01*
X24110Y45110D01*
X24310Y45360D02*
Y45310D01*
X24260D01*
X24360D01*
X24310D01*
Y45160D01*
X24360Y45110D01*
X24560D02*
X24660D01*
X24710Y45160D01*
Y45260D01*
X24660Y45310D01*
X24560D01*
X24510Y45260D01*
Y45160D01*
X24560Y45110D01*
X24810D02*
Y45310D01*
X24860D01*
X24910Y45260D01*
Y45110D01*
Y45260D01*
X24959Y45310D01*
X25009Y45260D01*
Y45110D01*
X25409D02*
Y45410D01*
X25559D01*
X25609Y45360D01*
Y45260D01*
X25559Y45210D01*
X25409D01*
X25759Y45310D02*
X25859D01*
X25909Y45260D01*
Y45110D01*
X25759D01*
X25709Y45160D01*
X25759Y45210D01*
X25909D01*
X26009Y45110D02*
X26159D01*
X26209Y45160D01*
X26159Y45210D01*
X26059D01*
X26009Y45260D01*
X26059Y45310D01*
X26209D01*
X26359Y45360D02*
Y45310D01*
X26309D01*
X26409D01*
X26359D01*
Y45160D01*
X26409Y45110D01*
X26709D02*
X26609D01*
X26559Y45160D01*
Y45260D01*
X26609Y45310D01*
X26709D01*
X26759Y45260D01*
Y45210D01*
X26559D01*
M02*
