G04*
G04 #@! TF.GenerationSoftware,Altium Limited,Altium Designer,21.2.2 (38)*
G04*
G04 Layer_Color=128*
%FSLAX24Y24*%
%MOIN*%
G70*
G04*
G04 #@! TF.SameCoordinates,4FF2B1F3-0D2B-4292-BC26-430B10DD4990*
G04*
G04*
G04 #@! TF.FilePolarity,Positive*
G04*
G01*
G75*
%ADD12C,0.0050*%
%ADD65C,0.0020*%
D12*
X23410Y45410D02*
Y45110D01*
X23560D01*
X23610Y45160D01*
Y45360D01*
X23560Y45410D01*
X23410D01*
X23710Y45310D02*
Y45110D01*
Y45210D01*
X23760Y45260D01*
X23810Y45310D01*
X23860D01*
X24010Y45110D02*
X24110D01*
X24060D01*
Y45310D01*
X24010D01*
X24260Y45110D02*
X24360D01*
X24310D01*
Y45410D01*
X24260D01*
X24510Y45110D02*
X24610D01*
X24560D01*
Y45410D01*
X24510D01*
X25259Y45360D02*
X25209Y45410D01*
X25109D01*
X25059Y45360D01*
Y45160D01*
X25109Y45110D01*
X25209D01*
X25259Y45160D01*
Y45260D01*
X25159D01*
X25359Y45310D02*
Y45160D01*
X25409Y45110D01*
X25559D01*
Y45310D01*
X25659Y45110D02*
X25759D01*
X25709D01*
Y45310D01*
X25659D01*
X26109Y45410D02*
Y45110D01*
X25959D01*
X25909Y45160D01*
Y45260D01*
X25959Y45310D01*
X26109D01*
X26359Y45110D02*
X26259D01*
X26209Y45160D01*
Y45260D01*
X26259Y45310D01*
X26359D01*
X26409Y45260D01*
Y45210D01*
X26209D01*
D65*
X57277Y43392D02*
X58458D01*
X57867Y42801D02*
Y43982D01*
X23809Y43316D02*
X24990D01*
X24399Y42725D02*
Y43906D01*
X57261Y23237D02*
X58443D01*
X57852Y22646D02*
Y23827D01*
X23794Y23161D02*
X24975D01*
X24384Y22570D02*
Y23751D01*
X24290Y25191D02*
X24890D01*
X24590Y24891D02*
Y25491D01*
X39993Y30246D02*
X40347D01*
X40170Y30069D02*
Y30423D01*
X39993Y29246D02*
X40347D01*
X40170Y29069D02*
Y29423D01*
X39993Y28246D02*
X40347D01*
X40170Y28069D02*
Y28423D01*
X39993Y27246D02*
X40347D01*
X40170Y27069D02*
Y27423D01*
X39923Y25205D02*
X40277D01*
X40100Y25028D02*
Y25383D01*
X38923Y25205D02*
X39277D01*
X39100Y25028D02*
Y25383D01*
X37923Y25205D02*
X38277D01*
X38100Y25028D02*
Y25383D01*
X36923Y25205D02*
X37277D01*
X37100Y25028D02*
Y25383D01*
X35923Y25205D02*
X36277D01*
X36100Y25028D02*
Y25383D01*
X34923Y25205D02*
X35277D01*
X35100Y25028D02*
Y25383D01*
X33923Y25205D02*
X34277D01*
X34100Y25028D02*
Y25383D01*
X32923Y25205D02*
X33277D01*
X33100Y25028D02*
Y25383D01*
X31923Y25205D02*
X32277D01*
X32100Y25028D02*
Y25383D01*
X30923Y25205D02*
X31277D01*
X31100Y25028D02*
Y25383D01*
X31923Y32237D02*
X32277D01*
X32100Y32060D02*
Y32414D01*
X33923Y32237D02*
X34277D01*
X34100Y32060D02*
Y32414D01*
X32923Y32237D02*
X33277D01*
X33100Y32060D02*
Y32414D01*
X30923Y32237D02*
X31277D01*
X31100Y32060D02*
Y32414D01*
X34923Y32237D02*
X35277D01*
X35100Y32060D02*
Y32414D01*
X35923Y32237D02*
X36277D01*
X36100Y32060D02*
Y32414D01*
X36923Y32237D02*
X37277D01*
X37100Y32060D02*
Y32414D01*
X37923Y32237D02*
X38277D01*
X38100Y32060D02*
Y32414D01*
X38923Y32237D02*
X39277D01*
X39100Y32060D02*
Y32414D01*
X39923Y32237D02*
X40277D01*
X40100Y32060D02*
Y32414D01*
X25278Y27981D02*
X25534D01*
X25406Y27853D02*
Y28109D01*
X25278Y29556D02*
X25534D01*
X25406Y29428D02*
Y29684D01*
X24310Y32251D02*
X24910D01*
X24610Y31951D02*
Y32551D01*
X34150Y29021D02*
X34270D01*
X34210Y28961D02*
Y29081D01*
X35247Y29030D02*
X35367D01*
X35307Y28970D02*
Y29090D01*
X35490Y29475D02*
X35610D01*
X35550Y29415D02*
Y29535D01*
X33824Y28113D02*
X33944D01*
X33884Y28053D02*
Y28173D01*
X29490Y32291D02*
X29610D01*
X29550Y32231D02*
Y32351D01*
X30680Y29701D02*
X30800D01*
X30740Y29641D02*
Y29761D01*
X30390Y27447D02*
X30510D01*
X30450Y27387D02*
Y27507D01*
X38390Y29041D02*
X38510D01*
X38450Y28981D02*
Y29101D01*
X34810Y28601D02*
X34930D01*
X34870Y28541D02*
Y28661D01*
X38842Y29469D02*
X38962D01*
X38902Y29409D02*
Y29529D01*
X33200Y30301D02*
X33320D01*
X33260Y30241D02*
Y30361D01*
X36254Y29469D02*
X36374D01*
X36314Y29409D02*
Y29529D01*
X29900Y30291D02*
X30020D01*
X29960Y30231D02*
Y30351D01*
X30160Y30291D02*
X30280D01*
X30220Y30231D02*
Y30351D01*
X30130Y27447D02*
X30250D01*
X30190Y27387D02*
Y27507D01*
X26100Y27841D02*
X26220D01*
X26160Y27781D02*
Y27901D01*
X26360Y27841D02*
X26480D01*
X26420Y27781D02*
Y27901D01*
X26190Y32301D02*
X26310D01*
X26250Y32241D02*
Y32361D01*
X24290Y34246D02*
X24890D01*
X24590Y33946D02*
Y34546D01*
X39993Y39301D02*
X40347D01*
X40170Y39124D02*
Y39478D01*
X39993Y38301D02*
X40347D01*
X40170Y38124D02*
Y38478D01*
X39993Y37301D02*
X40347D01*
X40170Y37124D02*
Y37478D01*
X39993Y36301D02*
X40347D01*
X40170Y36124D02*
Y36478D01*
X39923Y34261D02*
X40277D01*
X40100Y34083D02*
Y34438D01*
X38923Y34261D02*
X39277D01*
X39100Y34083D02*
Y34438D01*
X37923Y34261D02*
X38277D01*
X38100Y34083D02*
Y34438D01*
X36923Y34261D02*
X37277D01*
X37100Y34083D02*
Y34438D01*
X35923Y34261D02*
X36277D01*
X36100Y34083D02*
Y34438D01*
X34923Y34261D02*
X35277D01*
X35100Y34083D02*
Y34438D01*
X33923Y34261D02*
X34277D01*
X34100Y34083D02*
Y34438D01*
X32923Y34261D02*
X33277D01*
X33100Y34083D02*
Y34438D01*
X31923Y34261D02*
X32277D01*
X32100Y34083D02*
Y34438D01*
X30923Y34261D02*
X31277D01*
X31100Y34083D02*
Y34438D01*
X31923Y41292D02*
X32277D01*
X32100Y41115D02*
Y41469D01*
X33923Y41292D02*
X34277D01*
X34100Y41115D02*
Y41469D01*
X32923Y41292D02*
X33277D01*
X33100Y41115D02*
Y41469D01*
X30923Y41292D02*
X31277D01*
X31100Y41115D02*
Y41469D01*
X34923Y41292D02*
X35277D01*
X35100Y41115D02*
Y41469D01*
X35923Y41292D02*
X36277D01*
X36100Y41115D02*
Y41469D01*
X36923Y41292D02*
X37277D01*
X37100Y41115D02*
Y41469D01*
X37923Y41292D02*
X38277D01*
X38100Y41115D02*
Y41469D01*
X38923Y41292D02*
X39277D01*
X39100Y41115D02*
Y41469D01*
X39923Y41292D02*
X40277D01*
X40100Y41115D02*
Y41469D01*
X25278Y37036D02*
X25534D01*
X25406Y36908D02*
Y37164D01*
X25278Y38611D02*
X25534D01*
X25406Y38483D02*
Y38739D01*
X24310Y41306D02*
X24910D01*
X24610Y41006D02*
Y41606D01*
X34150Y38076D02*
X34270D01*
X34210Y38016D02*
Y38136D01*
X35247Y38085D02*
X35367D01*
X35307Y38025D02*
Y38145D01*
X35490Y38530D02*
X35610D01*
X35550Y38470D02*
Y38590D01*
X33824Y37168D02*
X33944D01*
X33884Y37108D02*
Y37228D01*
X29490Y41346D02*
X29610D01*
X29550Y41286D02*
Y41406D01*
X30680Y38756D02*
X30800D01*
X30740Y38696D02*
Y38816D01*
X30390Y36502D02*
X30510D01*
X30450Y36442D02*
Y36562D01*
X38390Y38096D02*
X38510D01*
X38450Y38036D02*
Y38156D01*
X34810Y37656D02*
X34930D01*
X34870Y37596D02*
Y37716D01*
X38842Y38525D02*
X38962D01*
X38902Y38465D02*
Y38585D01*
X33200Y39356D02*
X33320D01*
X33260Y39296D02*
Y39416D01*
X36254Y38525D02*
X36374D01*
X36314Y38465D02*
Y38585D01*
X29900Y39346D02*
X30020D01*
X29960Y39286D02*
Y39406D01*
X30160Y39346D02*
X30280D01*
X30220Y39286D02*
Y39406D01*
X30130Y36502D02*
X30250D01*
X30190Y36442D02*
Y36562D01*
X26100Y36896D02*
X26220D01*
X26160Y36836D02*
Y36956D01*
X26360Y36896D02*
X26480D01*
X26420Y36836D02*
Y36956D01*
X26190Y41356D02*
X26310D01*
X26250Y41296D02*
Y41416D01*
X57361Y41361D02*
X57961D01*
X57661Y41061D02*
Y41661D01*
X41904Y36306D02*
X42259D01*
X42081Y36129D02*
Y36484D01*
X41904Y37306D02*
X42259D01*
X42081Y37129D02*
Y37484D01*
X41904Y38306D02*
X42259D01*
X42081Y38129D02*
Y38484D01*
X41904Y39306D02*
X42259D01*
X42081Y39129D02*
Y39484D01*
X41974Y41347D02*
X42329D01*
X42151Y41170D02*
Y41524D01*
X42974Y41347D02*
X43329D01*
X43151Y41170D02*
Y41524D01*
X43974Y41347D02*
X44329D01*
X44151Y41170D02*
Y41524D01*
X44974Y41347D02*
X45329D01*
X45151Y41170D02*
Y41524D01*
X45974Y41347D02*
X46329D01*
X46151Y41170D02*
Y41524D01*
X46974Y41347D02*
X47329D01*
X47151Y41170D02*
Y41524D01*
X47974Y41347D02*
X48329D01*
X48151Y41170D02*
Y41524D01*
X48974Y41347D02*
X49329D01*
X49151Y41170D02*
Y41524D01*
X49974Y41347D02*
X50329D01*
X50151Y41170D02*
Y41524D01*
X50974Y41347D02*
X51329D01*
X51151Y41170D02*
Y41524D01*
X49974Y34316D02*
X50329D01*
X50151Y34138D02*
Y34493D01*
X47974Y34316D02*
X48329D01*
X48151Y34138D02*
Y34493D01*
X48974Y34316D02*
X49329D01*
X49151Y34138D02*
Y34493D01*
X50974Y34316D02*
X51329D01*
X51151Y34138D02*
Y34493D01*
X46974Y34316D02*
X47329D01*
X47151Y34138D02*
Y34493D01*
X45974Y34316D02*
X46329D01*
X46151Y34138D02*
Y34493D01*
X44974Y34316D02*
X45329D01*
X45151Y34138D02*
Y34493D01*
X43974Y34316D02*
X44329D01*
X44151Y34138D02*
Y34493D01*
X42974Y34316D02*
X43329D01*
X43151Y34138D02*
Y34493D01*
X41974Y34316D02*
X42329D01*
X42151Y34138D02*
Y34493D01*
X56717Y38571D02*
X56973D01*
X56845Y38443D02*
Y38699D01*
X56717Y36996D02*
X56973D01*
X56845Y36868D02*
Y37124D01*
X57341Y34301D02*
X57941D01*
X57641Y34001D02*
Y34601D01*
X47981Y37531D02*
X48101D01*
X48041Y37471D02*
Y37591D01*
X46885Y37522D02*
X47005D01*
X46945Y37462D02*
Y37582D01*
X46641Y37077D02*
X46761D01*
X46701Y37017D02*
Y37137D01*
X48307Y38439D02*
X48427D01*
X48367Y38379D02*
Y38499D01*
X52641Y34261D02*
X52761D01*
X52701Y34201D02*
Y34321D01*
X51451Y36851D02*
X51571D01*
X51511Y36791D02*
Y36911D01*
X51741Y39105D02*
X51861D01*
X51801Y39045D02*
Y39165D01*
X43741Y37511D02*
X43861D01*
X43801Y37451D02*
Y37571D01*
X47321Y37951D02*
X47441D01*
X47381Y37891D02*
Y38011D01*
X43290Y37083D02*
X43410D01*
X43350Y37023D02*
Y37143D01*
X48931Y36251D02*
X49051D01*
X48991Y36191D02*
Y36311D01*
X45878Y37083D02*
X45998D01*
X45938Y37023D02*
Y37143D01*
X52231Y36261D02*
X52351D01*
X52291Y36201D02*
Y36321D01*
X51971Y36261D02*
X52091D01*
X52031Y36201D02*
Y36321D01*
X52001Y39105D02*
X52121D01*
X52061Y39045D02*
Y39165D01*
X56031Y38711D02*
X56151D01*
X56091Y38651D02*
Y38771D01*
X55771Y38711D02*
X55891D01*
X55831Y38651D02*
Y38771D01*
X55941Y34251D02*
X56061D01*
X56001Y34191D02*
Y34311D01*
X57361Y32306D02*
X57961D01*
X57661Y32006D02*
Y32606D01*
X41904Y27251D02*
X42259D01*
X42081Y27074D02*
Y27428D01*
X41904Y28251D02*
X42259D01*
X42081Y28074D02*
Y28428D01*
X41904Y29251D02*
X42259D01*
X42081Y29074D02*
Y29428D01*
X41904Y30251D02*
X42259D01*
X42081Y30074D02*
Y30428D01*
X41974Y32292D02*
X42329D01*
X42151Y32115D02*
Y32469D01*
X42974Y32292D02*
X43329D01*
X43151Y32115D02*
Y32469D01*
X43974Y32292D02*
X44329D01*
X44151Y32115D02*
Y32469D01*
X44974Y32292D02*
X45329D01*
X45151Y32115D02*
Y32469D01*
X45974Y32292D02*
X46329D01*
X46151Y32115D02*
Y32469D01*
X46974Y32292D02*
X47329D01*
X47151Y32115D02*
Y32469D01*
X47974Y32292D02*
X48329D01*
X48151Y32115D02*
Y32469D01*
X48974Y32292D02*
X49329D01*
X49151Y32115D02*
Y32469D01*
X49974Y32292D02*
X50329D01*
X50151Y32115D02*
Y32469D01*
X50974Y32292D02*
X51329D01*
X51151Y32115D02*
Y32469D01*
X49974Y25261D02*
X50329D01*
X50151Y25083D02*
Y25438D01*
X47974Y25261D02*
X48329D01*
X48151Y25083D02*
Y25438D01*
X48974Y25261D02*
X49329D01*
X49151Y25083D02*
Y25438D01*
X50974Y25261D02*
X51329D01*
X51151Y25083D02*
Y25438D01*
X46974Y25261D02*
X47329D01*
X47151Y25083D02*
Y25438D01*
X45974Y25261D02*
X46329D01*
X46151Y25083D02*
Y25438D01*
X44974Y25261D02*
X45329D01*
X45151Y25083D02*
Y25438D01*
X43974Y25261D02*
X44329D01*
X44151Y25083D02*
Y25438D01*
X42974Y25261D02*
X43329D01*
X43151Y25083D02*
Y25438D01*
X41974Y25261D02*
X42329D01*
X42151Y25083D02*
Y25438D01*
X56717Y29516D02*
X56973D01*
X56845Y29388D02*
Y29644D01*
X56717Y27941D02*
X56973D01*
X56845Y27813D02*
Y28069D01*
X57341Y25246D02*
X57941D01*
X57641Y24946D02*
Y25546D01*
X47981Y28476D02*
X48101D01*
X48041Y28416D02*
Y28536D01*
X46885Y28467D02*
X47005D01*
X46945Y28407D02*
Y28527D01*
X46641Y28022D02*
X46761D01*
X46701Y27962D02*
Y28082D01*
X48307Y29384D02*
X48427D01*
X48367Y29324D02*
Y29444D01*
X52641Y25206D02*
X52761D01*
X52701Y25146D02*
Y25266D01*
X51451Y27796D02*
X51571D01*
X51511Y27736D02*
Y27856D01*
X51741Y30050D02*
X51861D01*
X51801Y29990D02*
Y30110D01*
X43741Y28456D02*
X43861D01*
X43801Y28396D02*
Y28516D01*
X47321Y28896D02*
X47441D01*
X47381Y28836D02*
Y28956D01*
X43290Y28028D02*
X43410D01*
X43350Y27968D02*
Y28088D01*
X48931Y27196D02*
X49051D01*
X48991Y27136D02*
Y27256D01*
X45878Y28028D02*
X45998D01*
X45938Y27968D02*
Y28088D01*
X52231Y27206D02*
X52351D01*
X52291Y27146D02*
Y27266D01*
X51971Y27206D02*
X52091D01*
X52031Y27146D02*
Y27266D01*
X52001Y30050D02*
X52121D01*
X52061Y29990D02*
Y30110D01*
X56031Y29656D02*
X56151D01*
X56091Y29596D02*
Y29716D01*
X55771Y29656D02*
X55891D01*
X55831Y29596D02*
Y29716D01*
X55941Y25196D02*
X56061D01*
X56001Y25136D02*
Y25256D01*
M02*
