G04*
G04 #@! TF.GenerationSoftware,Altium Limited,Altium Designer,21.2.2 (38)*
G04*
G04 Layer_Color=65535*
%FSLAX24Y24*%
%MOIN*%
G70*
G04*
G04 #@! TF.SameCoordinates,73095A83-B390-47B6-BD11-AEDCE0CE4F92*
G04*
G04*
G04 #@! TF.FilePolarity,Positive*
G04*
G01*
G75*
%ADD10C,0.0098*%
%ADD11C,0.0236*%
%ADD12C,0.0197*%
%ADD13C,0.0060*%
%ADD14C,0.0079*%
%ADD15C,0.0050*%
%ADD16C,0.0060*%
%ADD17C,0.0100*%
G36*
X5370Y2621D02*
X5307D01*
Y2692D01*
X5370D01*
Y2621D01*
D02*
G37*
G36*
X4812Y2621D02*
X4749D01*
Y2692D01*
X4812D01*
Y2621D01*
D02*
G37*
G36*
X6063Y2700D02*
X6068D01*
X6082Y2699D01*
X6098Y2697D01*
X6114Y2693D01*
X6132Y2689D01*
X6148Y2683D01*
X6149D01*
X6150Y2682D01*
X6153Y2680D01*
X6155Y2679D01*
X6163Y2675D01*
X6173Y2669D01*
X6184Y2661D01*
X6195Y2652D01*
X6205Y2641D01*
X6215Y2628D01*
Y2627D01*
X6215Y2626D01*
X6217Y2624D01*
X6218Y2622D01*
X6222Y2615D01*
X6227Y2605D01*
X6232Y2593D01*
X6235Y2579D01*
X6239Y2564D01*
X6241Y2548D01*
X6175Y2543D01*
Y2544D01*
Y2545D01*
X6175Y2547D01*
X6174Y2551D01*
X6172Y2559D01*
X6169Y2570D01*
X6164Y2582D01*
X6158Y2594D01*
X6150Y2605D01*
X6139Y2615D01*
X6138Y2616D01*
X6134Y2619D01*
X6127Y2623D01*
X6117Y2628D01*
X6104Y2632D01*
X6090Y2637D01*
X6071Y2640D01*
X6050Y2641D01*
X6040D01*
X6036Y2640D01*
X6030Y2639D01*
X6016Y2638D01*
X6002Y2635D01*
X5987Y2631D01*
X5973Y2625D01*
X5967Y2621D01*
X5961Y2618D01*
X5959Y2617D01*
X5956Y2614D01*
X5952Y2609D01*
X5948Y2603D01*
X5942Y2595D01*
X5938Y2586D01*
X5935Y2575D01*
X5933Y2564D01*
Y2562D01*
Y2559D01*
X5934Y2554D01*
X5936Y2548D01*
X5938Y2541D01*
X5942Y2533D01*
X5946Y2526D01*
X5953Y2518D01*
X5953Y2518D01*
X5957Y2515D01*
X5960Y2513D01*
X5963Y2512D01*
X5968Y2510D01*
X5973Y2507D01*
X5979Y2504D01*
X5987Y2501D01*
X5995Y2498D01*
X6005Y2495D01*
X6015Y2492D01*
X6027Y2488D01*
X6040Y2485D01*
X6055Y2481D01*
X6056D01*
X6059Y2481D01*
X6063Y2480D01*
X6068Y2478D01*
X6075Y2477D01*
X6083Y2475D01*
X6091Y2473D01*
X6100Y2470D01*
X6119Y2465D01*
X6138Y2460D01*
X6147Y2457D01*
X6155Y2454D01*
X6162Y2452D01*
X6168Y2449D01*
X6169D01*
X6170Y2448D01*
X6173Y2447D01*
X6175Y2445D01*
X6184Y2441D01*
X6193Y2435D01*
X6204Y2427D01*
X6215Y2418D01*
X6226Y2407D01*
X6235Y2396D01*
X6235Y2395D01*
X6238Y2391D01*
X6241Y2384D01*
X6246Y2376D01*
X6249Y2365D01*
X6253Y2353D01*
X6255Y2339D01*
X6256Y2324D01*
Y2323D01*
Y2322D01*
Y2320D01*
Y2317D01*
X6255Y2309D01*
X6253Y2299D01*
X6250Y2287D01*
X6247Y2274D01*
X6241Y2261D01*
X6232Y2247D01*
Y2246D01*
X6232Y2245D01*
X6228Y2241D01*
X6223Y2234D01*
X6215Y2227D01*
X6206Y2218D01*
X6194Y2208D01*
X6181Y2199D01*
X6165Y2191D01*
X6164D01*
X6163Y2191D01*
X6161Y2190D01*
X6158Y2188D01*
X6153Y2187D01*
X6148Y2185D01*
X6136Y2182D01*
X6122Y2178D01*
X6105Y2174D01*
X6087Y2172D01*
X6067Y2171D01*
X6055D01*
X6049Y2172D01*
X6042D01*
X6035Y2173D01*
X6026Y2174D01*
X6008Y2177D01*
X5988Y2179D01*
X5969Y2185D01*
X5951Y2191D01*
X5950D01*
X5948Y2192D01*
X5946Y2194D01*
X5943Y2195D01*
X5934Y2199D01*
X5924Y2206D01*
X5912Y2215D01*
X5899Y2225D01*
X5888Y2238D01*
X5877Y2252D01*
Y2253D01*
X5875Y2254D01*
X5874Y2256D01*
X5872Y2259D01*
X5871Y2263D01*
X5868Y2268D01*
X5863Y2279D01*
X5858Y2293D01*
X5854Y2308D01*
X5851Y2326D01*
X5849Y2344D01*
X5913Y2350D01*
Y2350D01*
Y2349D01*
X5914Y2347D01*
Y2344D01*
X5915Y2337D01*
X5917Y2327D01*
X5920Y2318D01*
X5923Y2307D01*
X5928Y2296D01*
X5933Y2287D01*
X5934Y2286D01*
X5936Y2283D01*
X5940Y2278D01*
X5946Y2273D01*
X5953Y2266D01*
X5962Y2259D01*
X5973Y2253D01*
X5985Y2247D01*
X5985D01*
X5986Y2246D01*
X5988Y2245D01*
X5990Y2245D01*
X5998Y2242D01*
X6008Y2239D01*
X6019Y2236D01*
X6033Y2234D01*
X6047Y2233D01*
X6064Y2232D01*
X6070D01*
X6078Y2233D01*
X6087Y2234D01*
X6097Y2235D01*
X6109Y2236D01*
X6121Y2239D01*
X6132Y2243D01*
X6133Y2244D01*
X6137Y2245D01*
X6142Y2248D01*
X6149Y2251D01*
X6155Y2256D01*
X6163Y2262D01*
X6170Y2268D01*
X6176Y2275D01*
X6177Y2276D01*
X6178Y2279D01*
X6181Y2282D01*
X6184Y2288D01*
X6187Y2294D01*
X6189Y2302D01*
X6190Y2310D01*
X6191Y2319D01*
Y2319D01*
Y2323D01*
X6190Y2327D01*
X6190Y2333D01*
X6187Y2339D01*
X6185Y2347D01*
X6181Y2354D01*
X6176Y2361D01*
X6175Y2362D01*
X6173Y2364D01*
X6170Y2367D01*
X6165Y2371D01*
X6159Y2376D01*
X6151Y2381D01*
X6141Y2386D01*
X6130Y2390D01*
X6130Y2391D01*
X6126Y2392D01*
X6120Y2394D01*
X6116Y2395D01*
X6111Y2396D01*
X6106Y2399D01*
X6099Y2400D01*
X6092Y2402D01*
X6083Y2404D01*
X6074Y2407D01*
X6064Y2410D01*
X6052Y2413D01*
X6039Y2416D01*
X6039D01*
X6036Y2416D01*
X6033Y2417D01*
X6028Y2419D01*
X6022Y2420D01*
X6016Y2421D01*
X6001Y2426D01*
X5985Y2431D01*
X5968Y2436D01*
X5953Y2441D01*
X5946Y2444D01*
X5940Y2447D01*
X5939D01*
X5939Y2448D01*
X5934Y2451D01*
X5928Y2455D01*
X5920Y2461D01*
X5911Y2467D01*
X5902Y2475D01*
X5894Y2485D01*
X5886Y2495D01*
X5885Y2497D01*
X5883Y2501D01*
X5880Y2507D01*
X5877Y2514D01*
X5874Y2524D01*
X5871Y2535D01*
X5869Y2547D01*
X5868Y2559D01*
Y2560D01*
Y2561D01*
Y2563D01*
Y2566D01*
X5870Y2573D01*
X5871Y2583D01*
X5874Y2594D01*
X5877Y2606D01*
X5882Y2619D01*
X5890Y2632D01*
Y2632D01*
X5891Y2633D01*
X5894Y2638D01*
X5899Y2643D01*
X5906Y2651D01*
X5915Y2659D01*
X5926Y2668D01*
X5939Y2676D01*
X5954Y2683D01*
X5955D01*
X5956Y2684D01*
X5959Y2685D01*
X5962Y2686D01*
X5965Y2688D01*
X5971Y2689D01*
X5982Y2692D01*
X5996Y2695D01*
X6012Y2698D01*
X6029Y2700D01*
X6048Y2701D01*
X6058D01*
X6063Y2700D01*
D02*
G37*
G36*
X2244Y2700D02*
X2249D01*
X2263Y2699D01*
X2279Y2697D01*
X2295Y2693D01*
X2313Y2689D01*
X2329Y2683D01*
X2330D01*
X2331Y2682D01*
X2333Y2680D01*
X2336Y2679D01*
X2344Y2675D01*
X2353Y2669D01*
X2364Y2661D01*
X2376Y2652D01*
X2386Y2641D01*
X2396Y2628D01*
Y2627D01*
X2396Y2626D01*
X2398Y2624D01*
X2399Y2622D01*
X2403Y2615D01*
X2407Y2605D01*
X2413Y2593D01*
X2416Y2579D01*
X2420Y2564D01*
X2421Y2548D01*
X2356Y2543D01*
Y2544D01*
Y2545D01*
X2356Y2547D01*
X2355Y2551D01*
X2353Y2559D01*
X2350Y2570D01*
X2345Y2582D01*
X2339Y2594D01*
X2330Y2605D01*
X2320Y2615D01*
X2319Y2616D01*
X2315Y2619D01*
X2307Y2623D01*
X2298Y2628D01*
X2285Y2632D01*
X2271Y2637D01*
X2252Y2640D01*
X2231Y2641D01*
X2221D01*
X2216Y2640D01*
X2211Y2639D01*
X2197Y2638D01*
X2182Y2635D01*
X2168Y2631D01*
X2154Y2625D01*
X2148Y2621D01*
X2142Y2618D01*
X2140Y2617D01*
X2137Y2614D01*
X2133Y2609D01*
X2128Y2603D01*
X2123Y2595D01*
X2119Y2586D01*
X2116Y2575D01*
X2114Y2564D01*
Y2562D01*
Y2559D01*
X2115Y2554D01*
X2117Y2548D01*
X2119Y2541D01*
X2122Y2533D01*
X2127Y2526D01*
X2134Y2518D01*
X2134Y2518D01*
X2138Y2515D01*
X2141Y2513D01*
X2144Y2512D01*
X2148Y2510D01*
X2154Y2507D01*
X2160Y2504D01*
X2168Y2501D01*
X2176Y2498D01*
X2185Y2495D01*
X2196Y2492D01*
X2208Y2488D01*
X2221Y2485D01*
X2236Y2481D01*
X2236D01*
X2239Y2481D01*
X2244Y2480D01*
X2249Y2478D01*
X2256Y2477D01*
X2264Y2475D01*
X2272Y2473D01*
X2281Y2470D01*
X2300Y2465D01*
X2319Y2460D01*
X2327Y2457D01*
X2336Y2454D01*
X2343Y2452D01*
X2349Y2449D01*
X2350D01*
X2351Y2448D01*
X2353Y2447D01*
X2356Y2445D01*
X2364Y2441D01*
X2374Y2435D01*
X2385Y2427D01*
X2396Y2418D01*
X2407Y2407D01*
X2416Y2396D01*
X2416Y2395D01*
X2419Y2391D01*
X2422Y2384D01*
X2427Y2376D01*
X2430Y2365D01*
X2434Y2353D01*
X2436Y2339D01*
X2437Y2324D01*
Y2323D01*
Y2322D01*
Y2320D01*
Y2317D01*
X2436Y2309D01*
X2434Y2299D01*
X2431Y2287D01*
X2427Y2274D01*
X2421Y2261D01*
X2413Y2247D01*
Y2246D01*
X2413Y2245D01*
X2409Y2241D01*
X2404Y2234D01*
X2396Y2227D01*
X2387Y2218D01*
X2375Y2208D01*
X2362Y2199D01*
X2346Y2191D01*
X2345D01*
X2344Y2191D01*
X2342Y2190D01*
X2339Y2188D01*
X2334Y2187D01*
X2329Y2185D01*
X2317Y2182D01*
X2303Y2178D01*
X2286Y2174D01*
X2268Y2172D01*
X2248Y2171D01*
X2236D01*
X2230Y2172D01*
X2223D01*
X2216Y2173D01*
X2207Y2174D01*
X2188Y2177D01*
X2169Y2179D01*
X2150Y2185D01*
X2131Y2191D01*
X2131D01*
X2129Y2192D01*
X2127Y2194D01*
X2124Y2195D01*
X2115Y2199D01*
X2105Y2206D01*
X2093Y2215D01*
X2080Y2225D01*
X2068Y2238D01*
X2057Y2252D01*
Y2253D01*
X2056Y2254D01*
X2055Y2256D01*
X2053Y2259D01*
X2051Y2263D01*
X2049Y2268D01*
X2044Y2279D01*
X2039Y2293D01*
X2034Y2308D01*
X2031Y2326D01*
X2030Y2344D01*
X2094Y2350D01*
Y2350D01*
Y2349D01*
X2094Y2347D01*
Y2344D01*
X2096Y2337D01*
X2098Y2327D01*
X2101Y2318D01*
X2104Y2307D01*
X2109Y2296D01*
X2114Y2287D01*
X2115Y2286D01*
X2117Y2283D01*
X2121Y2278D01*
X2127Y2273D01*
X2134Y2266D01*
X2142Y2259D01*
X2154Y2253D01*
X2165Y2247D01*
X2166D01*
X2167Y2246D01*
X2169Y2245D01*
X2171Y2245D01*
X2179Y2242D01*
X2188Y2239D01*
X2200Y2236D01*
X2214Y2234D01*
X2228Y2233D01*
X2245Y2232D01*
X2251D01*
X2259Y2233D01*
X2268Y2234D01*
X2278Y2235D01*
X2290Y2236D01*
X2302Y2239D01*
X2313Y2243D01*
X2314Y2244D01*
X2318Y2245D01*
X2323Y2248D01*
X2330Y2251D01*
X2336Y2256D01*
X2344Y2262D01*
X2351Y2268D01*
X2357Y2275D01*
X2358Y2276D01*
X2359Y2279D01*
X2362Y2282D01*
X2364Y2288D01*
X2367Y2294D01*
X2370Y2302D01*
X2371Y2310D01*
X2372Y2319D01*
Y2319D01*
Y2323D01*
X2371Y2327D01*
X2370Y2333D01*
X2368Y2339D01*
X2366Y2347D01*
X2362Y2354D01*
X2357Y2361D01*
X2356Y2362D01*
X2354Y2364D01*
X2351Y2367D01*
X2346Y2371D01*
X2340Y2376D01*
X2332Y2381D01*
X2322Y2386D01*
X2311Y2390D01*
X2310Y2391D01*
X2307Y2392D01*
X2301Y2394D01*
X2297Y2395D01*
X2292Y2396D01*
X2287Y2399D01*
X2280Y2400D01*
X2273Y2402D01*
X2264Y2404D01*
X2255Y2407D01*
X2245Y2410D01*
X2233Y2413D01*
X2220Y2416D01*
X2219D01*
X2217Y2416D01*
X2214Y2417D01*
X2209Y2419D01*
X2203Y2420D01*
X2197Y2421D01*
X2182Y2426D01*
X2165Y2431D01*
X2148Y2436D01*
X2134Y2441D01*
X2127Y2444D01*
X2121Y2447D01*
X2120D01*
X2120Y2448D01*
X2115Y2451D01*
X2108Y2455D01*
X2101Y2461D01*
X2092Y2467D01*
X2083Y2475D01*
X2074Y2485D01*
X2067Y2495D01*
X2066Y2497D01*
X2064Y2501D01*
X2061Y2507D01*
X2058Y2514D01*
X2055Y2524D01*
X2052Y2535D01*
X2050Y2547D01*
X2049Y2559D01*
Y2560D01*
Y2561D01*
Y2563D01*
Y2566D01*
X2051Y2573D01*
X2052Y2583D01*
X2054Y2594D01*
X2058Y2606D01*
X2063Y2619D01*
X2071Y2632D01*
Y2632D01*
X2071Y2633D01*
X2075Y2638D01*
X2080Y2643D01*
X2087Y2651D01*
X2096Y2659D01*
X2107Y2668D01*
X2120Y2676D01*
X2135Y2683D01*
X2136D01*
X2137Y2684D01*
X2140Y2685D01*
X2142Y2686D01*
X2146Y2688D01*
X2151Y2689D01*
X2162Y2692D01*
X2177Y2695D01*
X2193Y2698D01*
X2210Y2700D01*
X2229Y2701D01*
X2239D01*
X2244Y2700D01*
D02*
G37*
G36*
X8788Y2180D02*
X8730D01*
Y2227D01*
X8729Y2226D01*
X8728Y2225D01*
X8726Y2222D01*
X8723Y2218D01*
X8720Y2214D01*
X8715Y2210D01*
X8710Y2205D01*
X8703Y2199D01*
X8697Y2194D01*
X8689Y2189D01*
X8680Y2185D01*
X8671Y2181D01*
X8661Y2177D01*
X8650Y2174D01*
X8638Y2173D01*
X8626Y2172D01*
X8621D01*
X8618Y2173D01*
X8609Y2174D01*
X8599Y2175D01*
X8586Y2178D01*
X8572Y2182D01*
X8558Y2188D01*
X8544Y2197D01*
X8543D01*
X8543Y2198D01*
X8538Y2201D01*
X8532Y2207D01*
X8523Y2214D01*
X8514Y2224D01*
X8504Y2236D01*
X8495Y2249D01*
X8486Y2265D01*
Y2265D01*
X8486Y2267D01*
X8485Y2269D01*
X8484Y2272D01*
X8482Y2276D01*
X8480Y2282D01*
X8478Y2287D01*
X8477Y2293D01*
X8473Y2308D01*
X8469Y2325D01*
X8467Y2344D01*
X8467Y2365D01*
Y2366D01*
Y2367D01*
Y2370D01*
Y2375D01*
X8467Y2379D01*
Y2385D01*
X8469Y2399D01*
X8471Y2414D01*
X8475Y2431D01*
X8479Y2449D01*
X8485Y2466D01*
Y2467D01*
X8486Y2468D01*
X8487Y2470D01*
X8489Y2473D01*
X8493Y2481D01*
X8499Y2492D01*
X8506Y2503D01*
X8516Y2514D01*
X8527Y2526D01*
X8541Y2535D01*
X8541D01*
X8542Y2536D01*
X8544Y2538D01*
X8547Y2539D01*
X8555Y2543D01*
X8565Y2548D01*
X8577Y2552D01*
X8591Y2556D01*
X8606Y2559D01*
X8623Y2560D01*
X8629D01*
X8634Y2559D01*
X8643Y2558D01*
X8652Y2556D01*
X8663Y2554D01*
X8673Y2550D01*
X8683Y2545D01*
X8684Y2544D01*
X8687Y2543D01*
X8691Y2539D01*
X8697Y2535D01*
X8705Y2530D01*
X8711Y2524D01*
X8719Y2517D01*
X8726Y2509D01*
Y2692D01*
X8788D01*
Y2180D01*
D02*
G37*
G36*
X5094Y2559D02*
X5102Y2558D01*
X5112Y2557D01*
X5122Y2555D01*
X5134Y2552D01*
X5144Y2547D01*
X5145Y2547D01*
X5148Y2545D01*
X5154Y2543D01*
X5159Y2539D01*
X5167Y2535D01*
X5174Y2529D01*
X5180Y2523D01*
X5186Y2515D01*
X5187Y2515D01*
X5188Y2512D01*
X5191Y2508D01*
X5194Y2503D01*
X5197Y2495D01*
X5200Y2488D01*
X5204Y2479D01*
X5206Y2470D01*
Y2469D01*
X5207Y2466D01*
X5208Y2461D01*
X5208Y2456D01*
Y2447D01*
X5209Y2436D01*
X5210Y2424D01*
Y2408D01*
Y2180D01*
X5147D01*
Y2405D01*
Y2406D01*
Y2407D01*
Y2412D01*
Y2419D01*
X5146Y2427D01*
X5145Y2436D01*
X5144Y2446D01*
X5142Y2455D01*
X5139Y2463D01*
Y2464D01*
X5138Y2466D01*
X5136Y2470D01*
X5134Y2474D01*
X5130Y2478D01*
X5125Y2484D01*
X5120Y2489D01*
X5113Y2493D01*
X5112Y2494D01*
X5110Y2495D01*
X5105Y2497D01*
X5100Y2499D01*
X5094Y2501D01*
X5087Y2504D01*
X5078Y2504D01*
X5069Y2505D01*
X5065D01*
X5063Y2504D01*
X5055Y2504D01*
X5045Y2502D01*
X5035Y2498D01*
X5023Y2494D01*
X5011Y2488D01*
X5000Y2479D01*
X4999Y2478D01*
X4996Y2474D01*
X4994Y2471D01*
X4991Y2467D01*
X4989Y2463D01*
X4986Y2458D01*
X4983Y2452D01*
X4980Y2444D01*
X4978Y2436D01*
X4976Y2427D01*
X4974Y2418D01*
X4973Y2407D01*
X4972Y2395D01*
Y2382D01*
Y2180D01*
X4909D01*
Y2552D01*
X4965D01*
Y2498D01*
X4966Y2499D01*
X4967Y2501D01*
X4969Y2504D01*
X4972Y2508D01*
X4977Y2512D01*
X4982Y2518D01*
X4988Y2524D01*
X4995Y2530D01*
X5003Y2535D01*
X5011Y2541D01*
X5021Y2546D01*
X5031Y2550D01*
X5043Y2554D01*
X5055Y2557D01*
X5068Y2559D01*
X5082Y2560D01*
X5088D01*
X5094Y2559D01*
D02*
G37*
G36*
X8400D02*
X8408Y2558D01*
X8418Y2555D01*
X8428Y2551D01*
X8440Y2546D01*
X8452Y2539D01*
X8430Y2481D01*
X8429Y2482D01*
X8426Y2484D01*
X8421Y2486D01*
X8415Y2488D01*
X8409Y2490D01*
X8401Y2492D01*
X8393Y2494D01*
X8384Y2495D01*
X8381D01*
X8377Y2494D01*
X8372Y2493D01*
X8367Y2492D01*
X8360Y2490D01*
X8353Y2487D01*
X8347Y2482D01*
X8347Y2481D01*
X8344Y2480D01*
X8342Y2477D01*
X8339Y2473D01*
X8335Y2468D01*
X8331Y2462D01*
X8327Y2456D01*
X8324Y2447D01*
X8324Y2446D01*
X8323Y2441D01*
X8321Y2435D01*
X8319Y2426D01*
X8317Y2415D01*
X8316Y2402D01*
X8315Y2389D01*
X8314Y2374D01*
Y2180D01*
X8251D01*
Y2552D01*
X8308D01*
Y2495D01*
X8309Y2496D01*
X8312Y2501D01*
X8316Y2508D01*
X8321Y2516D01*
X8327Y2524D01*
X8334Y2533D01*
X8341Y2541D01*
X8347Y2547D01*
X8348Y2547D01*
X8350Y2549D01*
X8355Y2551D01*
X8359Y2553D01*
X8365Y2555D01*
X8373Y2558D01*
X8380Y2559D01*
X8388Y2560D01*
X8393D01*
X8400Y2559D01*
D02*
G37*
G36*
X6836D02*
X6847Y2558D01*
X6859Y2557D01*
X6872Y2554D01*
X6885Y2551D01*
X6898Y2547D01*
X6898D01*
X6899Y2546D01*
X6903Y2544D01*
X6909Y2541D01*
X6916Y2538D01*
X6924Y2532D01*
X6933Y2527D01*
X6940Y2520D01*
X6947Y2512D01*
X6947Y2512D01*
X6949Y2509D01*
X6952Y2504D01*
X6955Y2498D01*
X6959Y2489D01*
X6963Y2479D01*
X6966Y2468D01*
X6969Y2456D01*
X6907Y2447D01*
Y2449D01*
X6907Y2452D01*
X6905Y2457D01*
X6903Y2464D01*
X6899Y2470D01*
X6895Y2478D01*
X6890Y2485D01*
X6882Y2492D01*
X6881Y2492D01*
X6878Y2494D01*
X6874Y2497D01*
X6867Y2500D01*
X6860Y2503D01*
X6850Y2506D01*
X6839Y2507D01*
X6826Y2508D01*
X6819D01*
X6811Y2507D01*
X6802Y2507D01*
X6792Y2504D01*
X6782Y2502D01*
X6772Y2498D01*
X6764Y2493D01*
X6763Y2492D01*
X6761Y2491D01*
X6758Y2488D01*
X6755Y2484D01*
X6751Y2479D01*
X6748Y2473D01*
X6746Y2467D01*
X6745Y2460D01*
Y2459D01*
Y2458D01*
X6746Y2456D01*
Y2453D01*
X6748Y2445D01*
X6753Y2438D01*
X6753Y2437D01*
X6754Y2436D01*
X6756Y2434D01*
X6759Y2432D01*
X6762Y2430D01*
X6766Y2427D01*
X6771Y2424D01*
X6777Y2421D01*
X6778D01*
X6779Y2421D01*
X6782Y2420D01*
X6787Y2418D01*
X6795Y2416D01*
X6804Y2413D01*
X6810Y2411D01*
X6817Y2410D01*
X6824Y2407D01*
X6833Y2405D01*
X6833D01*
X6836Y2404D01*
X6839Y2404D01*
X6844Y2402D01*
X6849Y2401D01*
X6856Y2399D01*
X6870Y2395D01*
X6885Y2390D01*
X6901Y2385D01*
X6915Y2380D01*
X6921Y2378D01*
X6926Y2376D01*
X6927Y2375D01*
X6930Y2373D01*
X6935Y2371D01*
X6941Y2367D01*
X6948Y2363D01*
X6955Y2357D01*
X6961Y2350D01*
X6967Y2343D01*
X6968Y2342D01*
X6970Y2339D01*
X6972Y2335D01*
X6975Y2328D01*
X6978Y2320D01*
X6981Y2311D01*
X6982Y2301D01*
X6983Y2289D01*
Y2288D01*
Y2284D01*
X6982Y2278D01*
X6981Y2270D01*
X6978Y2261D01*
X6975Y2251D01*
X6970Y2240D01*
X6964Y2230D01*
X6964Y2228D01*
X6961Y2225D01*
X6957Y2220D01*
X6951Y2214D01*
X6943Y2208D01*
X6934Y2200D01*
X6924Y2194D01*
X6911Y2187D01*
X6910D01*
X6910Y2186D01*
X6905Y2185D01*
X6898Y2182D01*
X6888Y2179D01*
X6876Y2177D01*
X6863Y2174D01*
X6849Y2173D01*
X6833Y2172D01*
X6826D01*
X6821Y2173D01*
X6815D01*
X6807Y2174D01*
X6800Y2174D01*
X6792Y2176D01*
X6774Y2179D01*
X6756Y2185D01*
X6738Y2192D01*
X6730Y2197D01*
X6722Y2202D01*
X6722Y2202D01*
X6721Y2203D01*
X6716Y2208D01*
X6710Y2214D01*
X6702Y2225D01*
X6694Y2237D01*
X6686Y2252D01*
X6679Y2271D01*
X6674Y2291D01*
X6736Y2301D01*
Y2300D01*
Y2299D01*
X6738Y2295D01*
X6739Y2288D01*
X6742Y2279D01*
X6746Y2271D01*
X6750Y2261D01*
X6757Y2251D01*
X6765Y2243D01*
X6767Y2242D01*
X6770Y2240D01*
X6776Y2237D01*
X6783Y2234D01*
X6793Y2230D01*
X6804Y2227D01*
X6817Y2225D01*
X6833Y2224D01*
X6840D01*
X6847Y2225D01*
X6857Y2226D01*
X6867Y2228D01*
X6878Y2231D01*
X6888Y2235D01*
X6897Y2241D01*
X6898Y2242D01*
X6901Y2244D01*
X6904Y2248D01*
X6908Y2253D01*
X6912Y2259D01*
X6915Y2266D01*
X6918Y2273D01*
X6918Y2282D01*
Y2283D01*
Y2286D01*
X6918Y2290D01*
X6916Y2295D01*
X6914Y2300D01*
X6910Y2305D01*
X6906Y2311D01*
X6899Y2316D01*
X6898Y2316D01*
X6896Y2317D01*
X6893Y2319D01*
X6887Y2322D01*
X6878Y2325D01*
X6873Y2327D01*
X6867Y2328D01*
X6860Y2330D01*
X6853Y2333D01*
X6844Y2335D01*
X6835Y2337D01*
X6834D01*
X6832Y2338D01*
X6828Y2339D01*
X6824Y2340D01*
X6818Y2342D01*
X6811Y2344D01*
X6797Y2347D01*
X6781Y2353D01*
X6765Y2357D01*
X6750Y2362D01*
X6744Y2365D01*
X6739Y2367D01*
X6737Y2368D01*
X6734Y2370D01*
X6730Y2373D01*
X6724Y2376D01*
X6717Y2382D01*
X6711Y2387D01*
X6704Y2394D01*
X6698Y2402D01*
X6697Y2403D01*
X6696Y2406D01*
X6693Y2411D01*
X6691Y2417D01*
X6689Y2424D01*
X6687Y2433D01*
X6685Y2442D01*
X6685Y2453D01*
Y2454D01*
Y2457D01*
X6685Y2461D01*
X6686Y2468D01*
X6688Y2475D01*
X6689Y2483D01*
X6692Y2490D01*
X6696Y2498D01*
X6696Y2499D01*
X6698Y2502D01*
X6700Y2506D01*
X6704Y2511D01*
X6708Y2516D01*
X6713Y2523D01*
X6719Y2529D01*
X6727Y2534D01*
X6728Y2535D01*
X6730Y2535D01*
X6733Y2538D01*
X6737Y2540D01*
X6743Y2543D01*
X6750Y2546D01*
X6758Y2549D01*
X6767Y2552D01*
X6768Y2552D01*
X6771Y2553D01*
X6776Y2555D01*
X6783Y2556D01*
X6791Y2558D01*
X6800Y2558D01*
X6810Y2560D01*
X6828D01*
X6836Y2559D01*
D02*
G37*
G36*
X4647Y2180D02*
X4582D01*
Y2609D01*
X4433Y2180D01*
X4372D01*
X4224Y2616D01*
Y2180D01*
X4159D01*
Y2692D01*
X4260D01*
X4382Y2329D01*
Y2328D01*
X4382Y2327D01*
X4383Y2325D01*
X4385Y2321D01*
X4388Y2312D01*
X4391Y2301D01*
X4395Y2288D01*
X4399Y2276D01*
X4403Y2264D01*
X4406Y2253D01*
X4407Y2255D01*
X4408Y2259D01*
X4410Y2265D01*
X4413Y2274D01*
X4417Y2286D01*
X4422Y2300D01*
X4427Y2316D01*
X4434Y2336D01*
X4556Y2692D01*
X4647D01*
Y2180D01*
D02*
G37*
G36*
X3454D02*
X3389D01*
Y2609D01*
X3239Y2180D01*
X3178D01*
X3030Y2616D01*
Y2180D01*
X2965D01*
Y2692D01*
X3067D01*
X3188Y2329D01*
Y2328D01*
X3189Y2327D01*
X3190Y2325D01*
X3191Y2321D01*
X3194Y2312D01*
X3198Y2301D01*
X3201Y2288D01*
X3206Y2276D01*
X3210Y2264D01*
X3213Y2253D01*
X3213Y2255D01*
X3214Y2259D01*
X3216Y2265D01*
X3219Y2274D01*
X3223Y2286D01*
X3228Y2300D01*
X3233Y2316D01*
X3240Y2336D01*
X3363Y2692D01*
X3454D01*
Y2180D01*
D02*
G37*
G36*
X6504Y2174D02*
Y2174D01*
X6503Y2171D01*
X6502Y2168D01*
X6500Y2165D01*
X6498Y2159D01*
X6496Y2154D01*
X6491Y2141D01*
X6486Y2127D01*
X6480Y2113D01*
X6474Y2100D01*
X6471Y2095D01*
X6469Y2090D01*
X6468Y2088D01*
X6466Y2085D01*
X6462Y2080D01*
X6457Y2073D01*
X6452Y2066D01*
X6445Y2058D01*
X6438Y2051D01*
X6430Y2045D01*
X6429Y2044D01*
X6426Y2043D01*
X6422Y2040D01*
X6415Y2037D01*
X6408Y2034D01*
X6399Y2032D01*
X6389Y2031D01*
X6378Y2030D01*
X6375D01*
X6372Y2031D01*
X6366D01*
X6360Y2032D01*
X6354Y2034D01*
X6346Y2035D01*
X6338Y2038D01*
X6332Y2097D01*
X6332D01*
X6335Y2096D01*
X6339Y2095D01*
X6343Y2094D01*
X6355Y2091D01*
X6367Y2091D01*
X6371D01*
X6375Y2091D01*
X6379D01*
X6390Y2094D01*
X6395Y2096D01*
X6400Y2098D01*
X6401D01*
X6403Y2100D01*
X6405Y2101D01*
X6408Y2103D01*
X6414Y2109D01*
X6420Y2117D01*
Y2118D01*
X6422Y2120D01*
X6423Y2122D01*
X6425Y2127D01*
X6428Y2133D01*
X6431Y2142D01*
X6435Y2152D01*
X6440Y2165D01*
Y2165D01*
X6441Y2168D01*
X6443Y2174D01*
X6446Y2180D01*
X6305Y2552D01*
X6372D01*
X6449Y2336D01*
Y2336D01*
X6450Y2335D01*
X6451Y2333D01*
X6452Y2329D01*
X6453Y2325D01*
X6454Y2321D01*
X6458Y2310D01*
X6463Y2298D01*
X6467Y2283D01*
X6471Y2268D01*
X6476Y2251D01*
Y2251D01*
X6477Y2253D01*
X6477Y2255D01*
X6478Y2258D01*
X6479Y2262D01*
X6480Y2266D01*
X6483Y2277D01*
X6487Y2290D01*
X6492Y2305D01*
X6497Y2319D01*
X6503Y2335D01*
X6582Y2552D01*
X6645D01*
X6504Y2174D01*
D02*
G37*
G36*
X8027Y2559D02*
X8038Y2558D01*
X8051Y2557D01*
X8063Y2555D01*
X8076Y2552D01*
X8088Y2548D01*
X8089Y2547D01*
X8093Y2546D01*
X8098Y2544D01*
X8105Y2541D01*
X8112Y2536D01*
X8119Y2532D01*
X8126Y2526D01*
X8132Y2520D01*
X8133Y2519D01*
X8134Y2517D01*
X8136Y2513D01*
X8139Y2509D01*
X8143Y2502D01*
X8146Y2495D01*
X8149Y2487D01*
X8151Y2478D01*
Y2477D01*
X8152Y2475D01*
X8153Y2470D01*
X8153Y2464D01*
Y2456D01*
X8154Y2447D01*
X8155Y2434D01*
Y2420D01*
Y2336D01*
Y2335D01*
Y2332D01*
Y2327D01*
Y2322D01*
Y2315D01*
Y2307D01*
X8156Y2289D01*
Y2271D01*
X8156Y2252D01*
X8157Y2244D01*
Y2236D01*
X8158Y2230D01*
X8159Y2225D01*
Y2224D01*
X8159Y2221D01*
X8160Y2216D01*
X8162Y2211D01*
X8164Y2204D01*
X8167Y2197D01*
X8171Y2188D01*
X8174Y2180D01*
X8108D01*
X8108Y2181D01*
X8107Y2184D01*
X8105Y2188D01*
X8103Y2194D01*
X8101Y2200D01*
X8099Y2208D01*
X8098Y2217D01*
X8097Y2227D01*
X8096D01*
X8095Y2225D01*
X8091Y2222D01*
X8084Y2216D01*
X8075Y2210D01*
X8064Y2203D01*
X8053Y2196D01*
X8041Y2189D01*
X8028Y2184D01*
X8027Y2183D01*
X8023Y2182D01*
X8016Y2180D01*
X8008Y2178D01*
X7997Y2176D01*
X7986Y2174D01*
X7972Y2173D01*
X7959Y2172D01*
X7953D01*
X7949Y2173D01*
X7943D01*
X7937Y2174D01*
X7924Y2176D01*
X7909Y2179D01*
X7893Y2185D01*
X7878Y2192D01*
X7865Y2202D01*
X7863Y2203D01*
X7860Y2207D01*
X7855Y2214D01*
X7849Y2222D01*
X7843Y2234D01*
X7838Y2246D01*
X7834Y2262D01*
X7833Y2269D01*
X7832Y2278D01*
Y2279D01*
Y2282D01*
X7833Y2288D01*
X7834Y2294D01*
X7835Y2302D01*
X7838Y2310D01*
X7840Y2319D01*
X7844Y2327D01*
X7845Y2328D01*
X7846Y2331D01*
X7849Y2336D01*
X7853Y2341D01*
X7857Y2347D01*
X7863Y2353D01*
X7869Y2359D01*
X7877Y2364D01*
X7877Y2364D01*
X7880Y2366D01*
X7884Y2369D01*
X7890Y2372D01*
X7897Y2375D01*
X7905Y2379D01*
X7913Y2382D01*
X7923Y2384D01*
X7923D01*
X7926Y2385D01*
X7931Y2387D01*
X7937Y2387D01*
X7944Y2389D01*
X7954Y2390D01*
X7965Y2393D01*
X7978Y2394D01*
X7979D01*
X7982Y2395D01*
X7986D01*
X7991Y2396D01*
X7997Y2396D01*
X8004Y2398D01*
X8012Y2399D01*
X8021Y2400D01*
X8039Y2404D01*
X8058Y2407D01*
X8075Y2412D01*
X8083Y2414D01*
X8091Y2416D01*
Y2417D01*
Y2419D01*
X8091Y2423D01*
Y2428D01*
Y2431D01*
Y2433D01*
Y2433D01*
Y2434D01*
Y2438D01*
X8091Y2446D01*
X8089Y2454D01*
X8087Y2463D01*
X8083Y2472D01*
X8079Y2480D01*
X8073Y2487D01*
X8072Y2487D01*
X8068Y2490D01*
X8062Y2493D01*
X8055Y2498D01*
X8045Y2501D01*
X8033Y2505D01*
X8018Y2507D01*
X8001Y2508D01*
X7994D01*
X7986Y2507D01*
X7976Y2506D01*
X7966Y2504D01*
X7954Y2501D01*
X7944Y2498D01*
X7935Y2492D01*
X7934Y2492D01*
X7932Y2490D01*
X7928Y2486D01*
X7923Y2480D01*
X7919Y2473D01*
X7914Y2463D01*
X7909Y2451D01*
X7905Y2438D01*
X7843Y2446D01*
Y2447D01*
X7844Y2447D01*
Y2450D01*
X7845Y2453D01*
X7847Y2459D01*
X7850Y2469D01*
X7854Y2478D01*
X7858Y2489D01*
X7864Y2499D01*
X7871Y2509D01*
X7872Y2510D01*
X7875Y2512D01*
X7879Y2517D01*
X7885Y2523D01*
X7893Y2529D01*
X7903Y2535D01*
X7914Y2541D01*
X7926Y2547D01*
X7927D01*
X7928Y2547D01*
X7930Y2548D01*
X7933Y2549D01*
X7940Y2551D01*
X7951Y2553D01*
X7963Y2555D01*
X7977Y2558D01*
X7993Y2559D01*
X8011Y2560D01*
X8019D01*
X8027Y2559D01*
D02*
G37*
G36*
X5370Y2180D02*
X5307D01*
Y2552D01*
X5370D01*
Y2180D01*
D02*
G37*
G36*
X4812Y2180D02*
X4749D01*
Y2552D01*
X4812D01*
Y2180D01*
D02*
G37*
G36*
X2897Y2632D02*
X2729D01*
Y2180D01*
X2660D01*
Y2632D01*
X2492D01*
Y2692D01*
X2897D01*
Y2632D01*
D02*
G37*
G36*
X7618Y2559D02*
X7625Y2558D01*
X7633Y2557D01*
X7641Y2555D01*
X7650Y2554D01*
X7670Y2547D01*
X7681Y2544D01*
X7691Y2538D01*
X7701Y2533D01*
X7712Y2526D01*
X7721Y2518D01*
X7731Y2510D01*
X7732Y2509D01*
X7733Y2507D01*
X7735Y2504D01*
X7738Y2501D01*
X7742Y2495D01*
X7746Y2489D01*
X7751Y2481D01*
X7755Y2473D01*
X7760Y2464D01*
X7764Y2453D01*
X7769Y2442D01*
X7772Y2430D01*
X7775Y2416D01*
X7778Y2402D01*
X7779Y2387D01*
X7780Y2371D01*
Y2370D01*
Y2368D01*
Y2364D01*
Y2359D01*
X7779Y2353D01*
X7778Y2346D01*
Y2339D01*
X7777Y2330D01*
X7775Y2312D01*
X7770Y2293D01*
X7765Y2275D01*
X7758Y2258D01*
Y2257D01*
X7757Y2256D01*
X7755Y2254D01*
X7754Y2251D01*
X7749Y2244D01*
X7742Y2235D01*
X7733Y2225D01*
X7722Y2214D01*
X7710Y2204D01*
X7695Y2194D01*
X7694D01*
X7693Y2194D01*
X7691Y2192D01*
X7687Y2191D01*
X7684Y2189D01*
X7679Y2188D01*
X7668Y2183D01*
X7655Y2179D01*
X7640Y2176D01*
X7624Y2173D01*
X7606Y2172D01*
X7599D01*
X7593Y2173D01*
X7586Y2174D01*
X7579Y2175D01*
X7570Y2177D01*
X7561Y2178D01*
X7541Y2184D01*
X7530Y2188D01*
X7519Y2193D01*
X7509Y2199D01*
X7499Y2205D01*
X7489Y2213D01*
X7479Y2222D01*
X7479Y2222D01*
X7477Y2224D01*
X7475Y2227D01*
X7472Y2231D01*
X7468Y2236D01*
X7465Y2242D01*
X7460Y2250D01*
X7456Y2259D01*
X7451Y2268D01*
X7447Y2279D01*
X7443Y2291D01*
X7439Y2304D01*
X7436Y2318D01*
X7434Y2333D01*
X7433Y2349D01*
X7432Y2366D01*
Y2367D01*
Y2370D01*
X7433Y2376D01*
Y2383D01*
X7433Y2391D01*
X7435Y2401D01*
X7436Y2412D01*
X7439Y2424D01*
X7442Y2436D01*
X7446Y2448D01*
X7451Y2461D01*
X7456Y2474D01*
X7462Y2486D01*
X7470Y2498D01*
X7479Y2509D01*
X7489Y2518D01*
X7490Y2519D01*
X7491Y2520D01*
X7494Y2522D01*
X7498Y2525D01*
X7502Y2528D01*
X7508Y2532D01*
X7514Y2535D01*
X7522Y2539D01*
X7530Y2543D01*
X7539Y2547D01*
X7559Y2553D01*
X7581Y2558D01*
X7593Y2559D01*
X7606Y2560D01*
X7613D01*
X7618Y2559D01*
D02*
G37*
G36*
X7119Y2510D02*
X7120Y2510D01*
X7120Y2512D01*
X7123Y2514D01*
X7126Y2518D01*
X7130Y2521D01*
X7135Y2526D01*
X7140Y2530D01*
X7146Y2535D01*
X7161Y2544D01*
X7178Y2552D01*
X7188Y2555D01*
X7198Y2558D01*
X7209Y2559D01*
X7220Y2560D01*
X7226D01*
X7233Y2559D01*
X7241Y2558D01*
X7251Y2556D01*
X7262Y2554D01*
X7274Y2550D01*
X7285Y2546D01*
X7286Y2545D01*
X7290Y2544D01*
X7296Y2540D01*
X7303Y2535D01*
X7311Y2530D01*
X7319Y2524D01*
X7328Y2515D01*
X7335Y2507D01*
X7336Y2506D01*
X7338Y2502D01*
X7342Y2497D01*
X7346Y2490D01*
X7351Y2481D01*
X7357Y2471D01*
X7362Y2459D01*
X7366Y2447D01*
Y2446D01*
X7367Y2445D01*
X7368Y2443D01*
X7368Y2441D01*
X7370Y2433D01*
X7372Y2424D01*
X7374Y2413D01*
X7376Y2400D01*
X7377Y2386D01*
X7378Y2371D01*
Y2370D01*
Y2367D01*
Y2362D01*
X7377Y2356D01*
X7376Y2347D01*
X7376Y2339D01*
X7374Y2328D01*
X7372Y2317D01*
X7366Y2293D01*
X7362Y2281D01*
X7358Y2269D01*
X7353Y2256D01*
X7346Y2245D01*
X7339Y2234D01*
X7331Y2224D01*
X7330Y2223D01*
X7328Y2222D01*
X7326Y2219D01*
X7322Y2216D01*
X7317Y2212D01*
X7312Y2208D01*
X7306Y2203D01*
X7299Y2198D01*
X7291Y2194D01*
X7283Y2188D01*
X7263Y2180D01*
X7252Y2177D01*
X7241Y2174D01*
X7229Y2173D01*
X7217Y2172D01*
X7214D01*
X7211Y2173D01*
X7206D01*
X7201Y2174D01*
X7194Y2175D01*
X7180Y2179D01*
X7172Y2182D01*
X7163Y2185D01*
X7154Y2190D01*
X7146Y2195D01*
X7137Y2202D01*
X7129Y2209D01*
X7122Y2217D01*
X7115Y2227D01*
Y2180D01*
X7056D01*
Y2692D01*
X7119D01*
Y2510D01*
D02*
G37*
G36*
X3716Y2694D02*
X3722Y2693D01*
X3728Y2692D01*
X3736Y2692D01*
X3743Y2689D01*
X3761Y2685D01*
X3779Y2678D01*
X3787Y2674D01*
X3796Y2669D01*
X3805Y2662D01*
X3813Y2655D01*
X3813Y2655D01*
X3814Y2654D01*
X3816Y2652D01*
X3819Y2649D01*
X3822Y2644D01*
X3826Y2640D01*
X3833Y2629D01*
X3841Y2615D01*
X3847Y2598D01*
X3853Y2580D01*
X3853Y2570D01*
X3854Y2560D01*
Y2559D01*
Y2558D01*
Y2554D01*
X3853Y2547D01*
X3852Y2539D01*
X3850Y2529D01*
X3846Y2518D01*
X3842Y2508D01*
X3835Y2498D01*
X3834Y2496D01*
X3831Y2493D01*
X3827Y2489D01*
X3821Y2483D01*
X3813Y2476D01*
X3803Y2470D01*
X3792Y2463D01*
X3779Y2457D01*
X3779D01*
X3781Y2456D01*
X3783Y2456D01*
X3786Y2454D01*
X3795Y2450D01*
X3805Y2445D01*
X3816Y2438D01*
X3828Y2430D01*
X3839Y2419D01*
X3850Y2407D01*
Y2407D01*
X3850Y2406D01*
X3853Y2401D01*
X3858Y2394D01*
X3862Y2384D01*
X3867Y2373D01*
X3871Y2359D01*
X3874Y2343D01*
X3875Y2326D01*
Y2325D01*
Y2323D01*
Y2319D01*
X3874Y2315D01*
X3873Y2310D01*
X3873Y2303D01*
X3871Y2296D01*
X3869Y2288D01*
X3864Y2271D01*
X3860Y2261D01*
X3855Y2252D01*
X3850Y2242D01*
X3844Y2234D01*
X3836Y2225D01*
X3828Y2216D01*
X3827Y2215D01*
X3826Y2214D01*
X3824Y2211D01*
X3820Y2209D01*
X3815Y2205D01*
X3810Y2202D01*
X3803Y2198D01*
X3796Y2194D01*
X3787Y2189D01*
X3778Y2185D01*
X3768Y2182D01*
X3757Y2178D01*
X3745Y2176D01*
X3733Y2174D01*
X3720Y2172D01*
X3706Y2171D01*
X3699D01*
X3694Y2172D01*
X3687Y2173D01*
X3679Y2174D01*
X3671Y2175D01*
X3662Y2177D01*
X3642Y2182D01*
X3632Y2186D01*
X3622Y2190D01*
X3612Y2195D01*
X3602Y2201D01*
X3592Y2208D01*
X3583Y2216D01*
X3583Y2216D01*
X3581Y2218D01*
X3579Y2220D01*
X3576Y2224D01*
X3573Y2228D01*
X3568Y2234D01*
X3565Y2239D01*
X3560Y2247D01*
X3556Y2254D01*
X3552Y2263D01*
X3545Y2282D01*
X3542Y2293D01*
X3540Y2304D01*
X3538Y2316D01*
X3537Y2327D01*
Y2328D01*
Y2330D01*
Y2333D01*
X3538Y2336D01*
Y2340D01*
X3539Y2345D01*
X3540Y2357D01*
X3543Y2370D01*
X3548Y2384D01*
X3554Y2398D01*
X3563Y2411D01*
Y2412D01*
X3564Y2413D01*
X3567Y2416D01*
X3573Y2422D01*
X3581Y2430D01*
X3591Y2437D01*
X3604Y2445D01*
X3618Y2452D01*
X3635Y2457D01*
X3634D01*
X3634Y2458D01*
X3631Y2458D01*
X3628Y2460D01*
X3622Y2463D01*
X3613Y2467D01*
X3603Y2473D01*
X3594Y2481D01*
X3585Y2489D01*
X3577Y2498D01*
X3576Y2499D01*
X3574Y2502D01*
X3571Y2508D01*
X3568Y2515D01*
X3564Y2525D01*
X3561Y2536D01*
X3559Y2549D01*
X3558Y2562D01*
Y2563D01*
Y2564D01*
Y2567D01*
X3559Y2572D01*
X3560Y2576D01*
X3560Y2582D01*
X3563Y2595D01*
X3568Y2609D01*
X3575Y2625D01*
X3580Y2633D01*
X3585Y2641D01*
X3591Y2649D01*
X3598Y2656D01*
X3599Y2657D01*
X3600Y2658D01*
X3602Y2660D01*
X3605Y2662D01*
X3609Y2665D01*
X3614Y2668D01*
X3620Y2672D01*
X3626Y2675D01*
X3634Y2679D01*
X3642Y2683D01*
X3651Y2686D01*
X3660Y2689D01*
X3681Y2693D01*
X3693Y2694D01*
X3705Y2695D01*
X3711D01*
X3716Y2694D01*
D02*
G37*
G36*
X5824Y2038D02*
X5407D01*
Y2083D01*
X5824D01*
Y2038D01*
D02*
G37*
%LPC*%
G36*
X8629Y2508D02*
X8626D01*
X8623Y2507D01*
X8615Y2507D01*
X8605Y2504D01*
X8594Y2500D01*
X8582Y2493D01*
X8570Y2485D01*
X8564Y2479D01*
X8559Y2473D01*
Y2473D01*
X8558Y2472D01*
X8557Y2470D01*
X8555Y2467D01*
X8552Y2463D01*
X8550Y2458D01*
X8548Y2453D01*
X8545Y2447D01*
X8542Y2440D01*
X8540Y2432D01*
X8538Y2423D01*
X8535Y2413D01*
X8534Y2403D01*
X8532Y2391D01*
X8531Y2379D01*
Y2365D01*
Y2364D01*
Y2362D01*
Y2359D01*
X8532Y2353D01*
Y2347D01*
X8532Y2341D01*
X8535Y2325D01*
X8538Y2308D01*
X8543Y2290D01*
X8551Y2273D01*
X8555Y2266D01*
X8561Y2259D01*
X8561D01*
X8562Y2257D01*
X8566Y2253D01*
X8572Y2248D01*
X8580Y2242D01*
X8591Y2235D01*
X8603Y2229D01*
X8617Y2225D01*
X8624Y2225D01*
X8632Y2224D01*
X8635D01*
X8638Y2225D01*
X8646Y2225D01*
X8656Y2228D01*
X8667Y2232D01*
X8679Y2238D01*
X8691Y2246D01*
X8697Y2251D01*
X8702Y2257D01*
Y2258D01*
X8703Y2259D01*
X8705Y2261D01*
X8706Y2264D01*
X8709Y2268D01*
X8711Y2271D01*
X8714Y2277D01*
X8717Y2283D01*
X8720Y2290D01*
X8722Y2297D01*
X8725Y2306D01*
X8727Y2315D01*
X8728Y2325D01*
X8730Y2336D01*
X8731Y2347D01*
Y2360D01*
Y2361D01*
Y2364D01*
Y2367D01*
X8731Y2373D01*
Y2379D01*
X8730Y2386D01*
X8729Y2394D01*
X8728Y2403D01*
X8724Y2421D01*
X8719Y2439D01*
X8711Y2457D01*
X8707Y2464D01*
X8702Y2472D01*
Y2473D01*
X8700Y2473D01*
X8697Y2478D01*
X8690Y2484D01*
X8682Y2490D01*
X8672Y2497D01*
X8659Y2502D01*
X8645Y2507D01*
X8637Y2507D01*
X8629Y2508D01*
D02*
G37*
G36*
X8091Y2367D02*
X8091D01*
X8090Y2366D01*
X8088Y2365D01*
X8085Y2364D01*
X8081Y2363D01*
X8077Y2362D01*
X8071Y2360D01*
X8065Y2359D01*
X8059Y2356D01*
X8051Y2355D01*
X8043Y2353D01*
X8033Y2350D01*
X8023Y2348D01*
X8012Y2346D01*
X8000Y2344D01*
X7988Y2342D01*
X7986D01*
X7982Y2342D01*
X7974Y2340D01*
X7966Y2339D01*
X7957Y2337D01*
X7949Y2335D01*
X7940Y2333D01*
X7933Y2330D01*
X7932D01*
X7930Y2328D01*
X7927Y2327D01*
X7924Y2325D01*
X7915Y2319D01*
X7908Y2310D01*
Y2309D01*
X7906Y2307D01*
X7906Y2305D01*
X7904Y2301D01*
X7903Y2296D01*
X7901Y2292D01*
X7900Y2286D01*
X7900Y2280D01*
Y2279D01*
Y2276D01*
X7900Y2271D01*
X7902Y2265D01*
X7904Y2259D01*
X7908Y2252D01*
X7912Y2245D01*
X7918Y2238D01*
X7919Y2237D01*
X7922Y2236D01*
X7926Y2233D01*
X7932Y2230D01*
X7940Y2227D01*
X7950Y2224D01*
X7961Y2222D01*
X7974Y2222D01*
X7980D01*
X7988Y2222D01*
X7996Y2224D01*
X8006Y2225D01*
X8017Y2228D01*
X8028Y2232D01*
X8039Y2237D01*
X8040Y2238D01*
X8043Y2240D01*
X8048Y2244D01*
X8054Y2249D01*
X8061Y2255D01*
X8068Y2262D01*
X8074Y2271D01*
X8080Y2281D01*
X8081Y2282D01*
X8082Y2285D01*
X8083Y2290D01*
X8085Y2296D01*
X8088Y2305D01*
X8089Y2316D01*
X8090Y2328D01*
X8091Y2343D01*
X8091Y2367D01*
D02*
G37*
G36*
X7606Y2508D02*
X7601D01*
X7598Y2507D01*
X7590Y2507D01*
X7579Y2504D01*
X7566Y2499D01*
X7553Y2493D01*
X7540Y2484D01*
X7533Y2478D01*
X7527Y2473D01*
Y2472D01*
X7526Y2471D01*
X7524Y2469D01*
X7522Y2466D01*
X7520Y2462D01*
X7518Y2458D01*
X7515Y2452D01*
X7512Y2446D01*
X7509Y2438D01*
X7506Y2431D01*
X7504Y2422D01*
X7502Y2413D01*
X7499Y2402D01*
X7498Y2391D01*
X7497Y2379D01*
X7496Y2366D01*
Y2365D01*
Y2363D01*
Y2359D01*
X7497Y2354D01*
Y2348D01*
X7498Y2342D01*
X7500Y2326D01*
X7504Y2308D01*
X7510Y2290D01*
X7517Y2273D01*
X7522Y2266D01*
X7527Y2259D01*
X7528D01*
X7529Y2257D01*
X7533Y2253D01*
X7540Y2248D01*
X7549Y2242D01*
X7560Y2235D01*
X7573Y2229D01*
X7589Y2225D01*
X7597Y2225D01*
X7606Y2224D01*
X7610D01*
X7614Y2225D01*
X7622Y2226D01*
X7633Y2228D01*
X7645Y2233D01*
X7658Y2239D01*
X7671Y2248D01*
X7678Y2253D01*
X7684Y2259D01*
X7684Y2260D01*
X7685Y2261D01*
X7687Y2263D01*
X7689Y2266D01*
X7691Y2270D01*
X7694Y2274D01*
X7697Y2280D01*
X7700Y2286D01*
X7703Y2293D01*
X7705Y2302D01*
X7708Y2310D01*
X7710Y2320D01*
X7712Y2331D01*
X7714Y2342D01*
X7715Y2355D01*
Y2368D01*
Y2369D01*
Y2371D01*
Y2375D01*
X7715Y2379D01*
Y2385D01*
X7714Y2392D01*
X7712Y2407D01*
X7708Y2424D01*
X7702Y2441D01*
X7694Y2458D01*
X7690Y2466D01*
X7684Y2473D01*
Y2473D01*
X7682Y2474D01*
X7678Y2478D01*
X7671Y2484D01*
X7662Y2490D01*
X7651Y2497D01*
X7638Y2503D01*
X7623Y2507D01*
X7615Y2507D01*
X7606Y2508D01*
D02*
G37*
G36*
X7222D02*
X7211D01*
X7208Y2507D01*
X7200Y2506D01*
X7190Y2504D01*
X7179Y2499D01*
X7167Y2492D01*
X7161Y2489D01*
X7155Y2484D01*
X7149Y2478D01*
X7143Y2472D01*
Y2471D01*
X7142Y2470D01*
X7140Y2468D01*
X7139Y2465D01*
X7137Y2461D01*
X7134Y2457D01*
X7132Y2452D01*
X7129Y2446D01*
X7126Y2438D01*
X7123Y2431D01*
X7120Y2422D01*
X7118Y2413D01*
X7117Y2403D01*
X7115Y2392D01*
X7114Y2381D01*
Y2368D01*
Y2367D01*
Y2365D01*
Y2362D01*
Y2357D01*
X7115Y2352D01*
Y2345D01*
X7116Y2331D01*
X7118Y2316D01*
X7121Y2299D01*
X7126Y2285D01*
X7129Y2278D01*
X7132Y2272D01*
Y2271D01*
X7133Y2270D01*
X7135Y2268D01*
X7137Y2265D01*
X7143Y2256D01*
X7153Y2248D01*
X7164Y2239D01*
X7178Y2231D01*
X7186Y2228D01*
X7194Y2226D01*
X7203Y2225D01*
X7212Y2224D01*
X7216D01*
X7219Y2225D01*
X7227Y2226D01*
X7237Y2228D01*
X7248Y2233D01*
X7260Y2239D01*
X7271Y2248D01*
X7277Y2253D01*
X7283Y2259D01*
Y2260D01*
X7285Y2261D01*
X7286Y2263D01*
X7288Y2266D01*
X7291Y2270D01*
X7293Y2274D01*
X7296Y2280D01*
X7299Y2286D01*
X7301Y2293D01*
X7304Y2301D01*
X7307Y2310D01*
X7309Y2319D01*
X7311Y2330D01*
X7312Y2341D01*
X7314Y2353D01*
Y2366D01*
Y2367D01*
Y2369D01*
Y2373D01*
X7313Y2378D01*
Y2384D01*
X7312Y2391D01*
X7310Y2407D01*
X7307Y2424D01*
X7302Y2442D01*
X7294Y2458D01*
X7290Y2467D01*
X7285Y2473D01*
Y2474D01*
X7283Y2475D01*
X7280Y2478D01*
X7274Y2484D01*
X7265Y2491D01*
X7255Y2497D01*
X7243Y2503D01*
X7229Y2507D01*
X7222Y2508D01*
D02*
G37*
G36*
X3706Y2643D02*
X3700D01*
X3694Y2641D01*
X3685Y2640D01*
X3675Y2637D01*
X3665Y2633D01*
X3655Y2627D01*
X3645Y2619D01*
X3645Y2618D01*
X3642Y2615D01*
X3638Y2610D01*
X3634Y2603D01*
X3630Y2595D01*
X3626Y2586D01*
X3623Y2575D01*
X3622Y2564D01*
Y2563D01*
Y2562D01*
X3623Y2558D01*
X3624Y2551D01*
X3625Y2543D01*
X3628Y2533D01*
X3632Y2524D01*
X3638Y2513D01*
X3645Y2504D01*
X3646Y2504D01*
X3650Y2501D01*
X3655Y2497D01*
X3662Y2493D01*
X3671Y2489D01*
X3681Y2485D01*
X3693Y2482D01*
X3706Y2481D01*
X3708D01*
X3712Y2482D01*
X3719Y2483D01*
X3728Y2484D01*
X3737Y2487D01*
X3747Y2491D01*
X3757Y2497D01*
X3766Y2504D01*
X3767Y2505D01*
X3770Y2509D01*
X3773Y2513D01*
X3778Y2520D01*
X3782Y2528D01*
X3786Y2538D01*
X3789Y2549D01*
X3790Y2561D01*
Y2561D01*
Y2562D01*
Y2567D01*
X3788Y2573D01*
X3787Y2581D01*
X3784Y2590D01*
X3779Y2600D01*
X3773Y2609D01*
X3765Y2619D01*
X3765Y2620D01*
X3761Y2623D01*
X3756Y2626D01*
X3749Y2631D01*
X3740Y2635D01*
X3731Y2639D01*
X3719Y2642D01*
X3706Y2643D01*
D02*
G37*
G36*
X3704Y2430D02*
X3699D01*
X3696Y2430D01*
X3688Y2429D01*
X3678Y2427D01*
X3666Y2423D01*
X3654Y2418D01*
X3642Y2410D01*
X3631Y2401D01*
X3629Y2399D01*
X3626Y2396D01*
X3622Y2389D01*
X3617Y2381D01*
X3611Y2370D01*
X3606Y2357D01*
X3603Y2343D01*
X3602Y2327D01*
Y2326D01*
Y2323D01*
X3602Y2318D01*
X3603Y2311D01*
X3605Y2303D01*
X3607Y2294D01*
X3610Y2285D01*
X3614Y2276D01*
X3614Y2275D01*
X3616Y2271D01*
X3619Y2267D01*
X3623Y2262D01*
X3628Y2255D01*
X3635Y2248D01*
X3642Y2242D01*
X3651Y2236D01*
X3653Y2236D01*
X3656Y2234D01*
X3661Y2232D01*
X3668Y2230D01*
X3676Y2228D01*
X3685Y2225D01*
X3696Y2224D01*
X3706Y2223D01*
X3711D01*
X3713Y2224D01*
X3722Y2225D01*
X3733Y2227D01*
X3745Y2231D01*
X3757Y2235D01*
X3769Y2242D01*
X3781Y2252D01*
X3782Y2253D01*
X3785Y2257D01*
X3790Y2264D01*
X3796Y2272D01*
X3801Y2282D01*
X3806Y2295D01*
X3809Y2310D01*
X3810Y2325D01*
Y2326D01*
Y2327D01*
Y2330D01*
X3810Y2333D01*
X3809Y2341D01*
X3807Y2352D01*
X3803Y2363D01*
X3798Y2376D01*
X3790Y2388D01*
X3780Y2400D01*
X3779Y2401D01*
X3775Y2404D01*
X3768Y2410D01*
X3759Y2416D01*
X3748Y2421D01*
X3735Y2426D01*
X3720Y2429D01*
X3704Y2430D01*
D02*
G37*
%LPD*%
D10*
X14036Y5681D02*
G03*
X14036Y5681I-49J0D01*
G01*
D11*
X13554Y4855D02*
G03*
X13554Y4855I-118J0D01*
G01*
D12*
X6109Y4840D02*
G03*
X6109Y4840I-79J0D01*
G01*
D13*
X3700Y731D02*
X4161D01*
X3700Y1249D02*
X4161D01*
X2959D02*
X3700D01*
X2959Y731D02*
X3700D01*
X2959D02*
Y1249D01*
X4161Y731D02*
Y1249D01*
X4480Y1340D02*
X5030D01*
X4480Y640D02*
X5030D01*
X4480D02*
Y1340D01*
X5180Y1090D02*
X5280Y990D01*
X5180Y890D02*
X5280Y990D01*
X5180Y890D02*
Y1090D01*
X5280Y890D02*
Y1090D01*
X5880Y1340D02*
X5980Y1240D01*
X5430Y1340D02*
X5880D01*
X5430Y640D02*
X5880D01*
X5980Y740D01*
Y1240D01*
X3710Y7811D02*
X4171D01*
X3710Y8329D02*
X4171D01*
X2969D02*
X3710D01*
X2969Y7811D02*
X3710D01*
X2969D02*
Y8329D01*
X4171Y7811D02*
Y8329D01*
X4500Y8420D02*
X5050D01*
X4500Y7720D02*
X5050D01*
X4500D02*
Y8420D01*
X5200Y8170D02*
X5300Y8070D01*
X5200Y7970D02*
X5300Y8070D01*
X5200Y7970D02*
Y8170D01*
X5300Y7970D02*
Y8170D01*
X5900Y8420D02*
X6000Y8320D01*
X5450Y8420D02*
X5900D01*
X5450Y7720D02*
X5900D01*
X6000Y7820D01*
Y8320D01*
X10241Y3959D02*
X10759D01*
X10241Y5161D02*
X10759D01*
X10241Y4710D02*
Y5161D01*
X10759Y4710D02*
Y5161D01*
Y3959D02*
Y4420D01*
X10241Y3959D02*
Y4420D01*
X8640Y3380D02*
Y5630D01*
X9940Y3380D02*
Y5630D01*
X8640Y3380D02*
X8870D01*
X8640Y5630D02*
X8870D01*
X9750Y3380D02*
X9940D01*
X9750Y5630D02*
X9940D01*
X8019Y3925D02*
Y4386D01*
X7501Y3925D02*
Y4386D01*
Y3184D02*
Y3925D01*
X8019Y3184D02*
Y3925D01*
X7501Y3184D02*
X8019D01*
X7501Y4386D02*
X8019D01*
X8029Y5385D02*
Y5846D01*
X7511Y5385D02*
Y5846D01*
Y4644D02*
Y5095D01*
X8029Y4644D02*
Y5095D01*
X7511Y4644D02*
X8029D01*
X7511Y5846D02*
X8029D01*
X7109Y4610D02*
Y5071D01*
X6591Y4610D02*
Y5071D01*
Y3869D02*
Y4320D01*
X7109Y3869D02*
Y4320D01*
X6591Y3869D02*
X7109D01*
X6591Y5071D02*
X7109D01*
X3830Y3840D02*
X6330D01*
X3830D02*
Y5140D01*
X6330D01*
Y3840D02*
Y5140D01*
X2961Y3909D02*
X3479D01*
X2961Y5111D02*
X3479D01*
X2961Y4660D02*
Y5111D01*
X3479Y4660D02*
Y5111D01*
Y3909D02*
Y4370D01*
X2961Y3909D02*
Y4370D01*
X2263Y3088D02*
Y3644D01*
X78Y3088D02*
Y6001D01*
Y6114D01*
X318D01*
Y6004D02*
Y6114D01*
X78Y2974D02*
Y3088D01*
Y2974D02*
X318D01*
Y3084D01*
X2263Y5348D02*
Y6001D01*
X2262Y3644D02*
Y3798D01*
X78Y6001D02*
X563D01*
X78Y3088D02*
X563D01*
X1713D02*
X2263D01*
X1713Y6001D02*
X2263D01*
X0Y394D02*
Y8661D01*
X394Y0D02*
X17323D01*
X394Y9055D02*
X17323D01*
X17717Y394D02*
Y8661D01*
X7049Y-940D02*
Y-340D01*
X6749Y-640D01*
X7149D01*
X7749Y-340D02*
X7349D01*
Y-640D01*
X7549Y-540D01*
X7649D01*
X7749Y-640D01*
Y-840D01*
X7649Y-940D01*
X7449D01*
X7349Y-840D01*
X7949Y-940D02*
Y-840D01*
X8048D01*
Y-940D01*
X7949D01*
X8448Y-440D02*
X8548Y-340D01*
X8748D01*
X8848Y-440D01*
Y-840D01*
X8748Y-940D01*
X8548D01*
X8448Y-840D01*
Y-440D01*
X9048D02*
X9148Y-340D01*
X9348D01*
X9448Y-440D01*
Y-840D01*
X9348Y-940D01*
X9148D01*
X9048Y-840D01*
Y-440D01*
X9648Y-940D02*
Y-540D01*
X9748D01*
X9848Y-640D01*
Y-940D01*
Y-640D01*
X9948Y-540D01*
X10048Y-640D01*
Y-940D01*
X10248D02*
Y-540D01*
X10348D01*
X10448Y-640D01*
Y-940D01*
Y-640D01*
X10548Y-540D01*
X10648Y-640D01*
Y-940D01*
X-730Y2818D02*
Y2418D01*
X-1130Y2818D01*
X-1230D01*
X-1330Y2718D01*
Y2518D01*
X-1230Y2418D01*
Y3018D02*
X-1330Y3118D01*
Y3318D01*
X-1230Y3418D01*
X-1130D01*
X-1030Y3318D01*
Y3218D01*
Y3318D01*
X-930Y3418D01*
X-830D01*
X-730Y3318D01*
Y3118D01*
X-830Y3018D01*
X-730Y3618D02*
X-830D01*
Y3718D01*
X-730D01*
Y3618D01*
X-1230Y4118D02*
X-1330Y4218D01*
Y4418D01*
X-1230Y4518D01*
X-830D01*
X-730Y4418D01*
Y4218D01*
X-830Y4118D01*
X-1230D01*
Y4717D02*
X-1330Y4817D01*
Y5017D01*
X-1230Y5117D01*
X-830D01*
X-730Y5017D01*
Y4817D01*
X-830Y4717D01*
X-1230D01*
X-730Y5317D02*
X-1130D01*
Y5417D01*
X-1030Y5517D01*
X-730D01*
X-1030D01*
X-1130Y5617D01*
X-1030Y5717D01*
X-730D01*
Y5917D02*
X-1130D01*
Y6017D01*
X-1030Y6117D01*
X-730D01*
X-1030D01*
X-1130Y6217D01*
X-1030Y6317D01*
X-730D01*
D14*
X11231Y5248D02*
X13829D01*
X11231Y3792D02*
X13829D01*
Y5248D01*
X11231Y3792D02*
Y5248D01*
D15*
X15230Y2860D02*
Y3160D01*
X15430Y2860D01*
Y3160D01*
X15530Y2860D02*
Y3160D01*
X15680D01*
X15730Y3110D01*
Y3010D01*
X15680Y2960D01*
X15530D01*
X15630D02*
X15730Y2860D01*
X16030Y3110D02*
X15980Y3160D01*
X15880D01*
X15830Y3110D01*
Y3060D01*
X15880Y3010D01*
X15980D01*
X16030Y2960D01*
Y2910D01*
X15980Y2860D01*
X15880D01*
X15830Y2910D01*
X16130Y3160D02*
X16330D01*
X16230D01*
Y2860D01*
X15730Y4120D02*
X15680Y4170D01*
X15580D01*
X15530Y4120D01*
Y3920D01*
X15580Y3870D01*
X15680D01*
X15730Y3920D01*
Y4020D01*
X15630D01*
X15830Y3870D02*
Y4170D01*
X16030Y3870D01*
Y4170D01*
X16130D02*
Y3870D01*
X16280D01*
X16330Y3920D01*
Y4120D01*
X16280Y4170D01*
X16130D01*
X15930Y5180D02*
Y4880D01*
X16080D01*
X16130Y4930D01*
Y5130D01*
X16080Y5180D01*
X15930D01*
X16230Y4880D02*
X16330D01*
X16280D01*
Y5180D01*
X16230Y5130D01*
X15530Y6140D02*
X15580Y6190D01*
X15680D01*
X15730Y6140D01*
Y6090D01*
X15680Y6040D01*
X15630D01*
X15680D01*
X15730Y5990D01*
Y5940D01*
X15680Y5890D01*
X15580D01*
X15530Y5940D01*
X15830Y6190D02*
Y5990D01*
X15930Y5890D01*
X16030Y5990D01*
Y6190D01*
X16130Y6140D02*
X16180Y6190D01*
X16280D01*
X16330Y6140D01*
Y6090D01*
X16280Y6040D01*
X16230D01*
X16280D01*
X16330Y5990D01*
Y5940D01*
X16280Y5890D01*
X16180D01*
X16130Y5940D01*
X1900Y790D02*
X1850Y740D01*
Y640D01*
X1900Y590D01*
X2100D01*
X2150Y640D01*
Y740D01*
X2100Y790D01*
X2000D01*
Y690D01*
X2150Y890D02*
X1850D01*
X2150Y1090D01*
X1850D01*
Y1190D02*
X2150D01*
Y1340D01*
X2100Y1390D01*
X1900D01*
X1850Y1340D01*
Y1190D01*
X1790Y8030D02*
Y7830D01*
X1940D01*
X1890Y7930D01*
Y7980D01*
X1940Y8030D01*
X2040D01*
X2090Y7980D01*
Y7880D01*
X2040Y7830D01*
X1790Y8130D02*
X1990D01*
X2090Y8230D01*
X1990Y8330D01*
X1790D01*
X7570Y1490D02*
X7870D01*
Y1640D01*
X7820Y1690D01*
X7770D01*
X7720Y1640D01*
Y1490D01*
Y1640D01*
X7670Y1690D01*
X7620D01*
X7570Y1640D01*
Y1490D01*
Y1990D02*
Y1790D01*
X7720D01*
X7670Y1890D01*
Y1940D01*
X7720Y1990D01*
X7820D01*
X7870Y1940D01*
Y1840D01*
X7820Y1790D01*
X8563Y1490D02*
X8863D01*
Y1640D01*
X8813Y1690D01*
X8763D01*
X8713Y1640D01*
Y1490D01*
Y1640D01*
X8663Y1690D01*
X8613D01*
X8563Y1640D01*
Y1490D01*
X8863Y1940D02*
X8563D01*
X8713Y1790D01*
Y1990D01*
X9607Y1690D02*
X9557Y1640D01*
Y1540D01*
X9607Y1490D01*
X9807D01*
X9857Y1540D01*
Y1640D01*
X9807Y1690D01*
X9607Y1790D02*
X9557Y1840D01*
Y1940D01*
X9607Y1990D01*
X9657D01*
X9707Y1940D01*
Y1890D01*
Y1940D01*
X9757Y1990D01*
X9807D01*
X9857Y1940D01*
Y1840D01*
X9807Y1790D01*
X10600Y1690D02*
X10550Y1640D01*
Y1540D01*
X10600Y1490D01*
X10800D01*
X10850Y1540D01*
Y1640D01*
X10800Y1690D01*
X10850Y1940D02*
X10550D01*
X10700Y1790D01*
Y1990D01*
X11593Y1690D02*
X11543Y1640D01*
Y1540D01*
X11593Y1490D01*
X11793D01*
X11843Y1540D01*
Y1640D01*
X11793Y1690D01*
X11543Y1990D02*
Y1790D01*
X11693D01*
X11643Y1890D01*
Y1940D01*
X11693Y1990D01*
X11793D01*
X11843Y1940D01*
Y1840D01*
X11793Y1790D01*
X12587Y1690D02*
X12537Y1640D01*
Y1540D01*
X12587Y1490D01*
X12787D01*
X12837Y1540D01*
Y1640D01*
X12787Y1690D01*
X12537Y1990D02*
X12587Y1890D01*
X12687Y1790D01*
X12787D01*
X12837Y1840D01*
Y1940D01*
X12787Y1990D01*
X12737D01*
X12687Y1940D01*
Y1790D01*
X13580Y1690D02*
X13530Y1640D01*
Y1540D01*
X13580Y1490D01*
X13780D01*
X13830Y1540D01*
Y1640D01*
X13780Y1690D01*
X13530Y1790D02*
Y1990D01*
X13580D01*
X13780Y1790D01*
X13830D01*
X14523Y1490D02*
X14823D01*
Y1640D01*
X14773Y1690D01*
X14573D01*
X14523Y1640D01*
Y1490D01*
X14823Y1790D02*
Y1890D01*
Y1840D01*
X14523D01*
X14573Y1790D01*
X15517Y1490D02*
X15817D01*
Y1640D01*
X15767Y1690D01*
X15567D01*
X15517Y1640D01*
Y1490D01*
X15817Y1990D02*
Y1790D01*
X15617Y1990D01*
X15567D01*
X15517Y1940D01*
Y1840D01*
X15567Y1790D01*
X16510Y1490D02*
X16810D01*
Y1640D01*
X16760Y1690D01*
X16560D01*
X16510Y1640D01*
Y1490D01*
X16560Y1790D02*
X16510Y1840D01*
Y1940D01*
X16560Y1990D01*
X16610D01*
X16660Y1940D01*
Y1890D01*
Y1940D01*
X16710Y1990D01*
X16760D01*
X16810Y1940D01*
Y1840D01*
X16760Y1790D01*
X16550Y7110D02*
X16850D01*
Y7260D01*
X16800Y7310D01*
X16600D01*
X16550Y7260D01*
Y7110D01*
X16850Y7560D02*
X16550D01*
X16700Y7410D01*
Y7610D01*
X15547Y7110D02*
X15847D01*
Y7260D01*
X15797Y7310D01*
X15597D01*
X15547Y7260D01*
Y7110D01*
Y7610D02*
Y7410D01*
X15697D01*
X15647Y7510D01*
Y7560D01*
X15697Y7610D01*
X15797D01*
X15847Y7560D01*
Y7460D01*
X15797Y7410D01*
X14543Y7110D02*
X14843D01*
Y7260D01*
X14793Y7310D01*
X14593D01*
X14543Y7260D01*
Y7110D01*
Y7610D02*
X14593Y7510D01*
X14693Y7410D01*
X14793D01*
X14843Y7460D01*
Y7560D01*
X14793Y7610D01*
X14743D01*
X14693Y7560D01*
Y7410D01*
X12837Y7210D02*
X12637D01*
X12537Y7310D01*
X12637Y7410D01*
X12837D01*
X12687D01*
Y7210D01*
X12837Y7510D02*
Y7610D01*
Y7560D01*
X12537D01*
X12587Y7510D01*
X13840Y6510D02*
X13540D01*
X13840Y6710D01*
X13540D01*
X13840Y6810D02*
X13540D01*
Y6960D01*
X13590Y7010D01*
X13690D01*
X13740Y6960D01*
Y6810D01*
Y6910D02*
X13840Y7010D01*
X13590Y7310D02*
X13540Y7260D01*
Y7160D01*
X13590Y7110D01*
X13640D01*
X13690Y7160D01*
Y7260D01*
X13740Y7310D01*
X13790D01*
X13840Y7260D01*
Y7160D01*
X13790Y7110D01*
X13540Y7410D02*
Y7610D01*
Y7510D01*
X13840D01*
X11833Y7110D02*
X11633D01*
X11533Y7210D01*
X11633Y7310D01*
X11833D01*
X11683D01*
Y7110D01*
X11833Y7610D02*
Y7410D01*
X11633Y7610D01*
X11583D01*
X11533Y7560D01*
Y7460D01*
X11583Y7410D01*
X10580Y7010D02*
X10530Y6960D01*
Y6860D01*
X10580Y6810D01*
X10780D01*
X10830Y6860D01*
Y6960D01*
X10780Y7010D01*
X10680D01*
Y6910D01*
X10830Y7110D02*
X10530D01*
X10830Y7310D01*
X10530D01*
Y7410D02*
X10830D01*
Y7560D01*
X10780Y7610D01*
X10580D01*
X10530Y7560D01*
Y7410D01*
X9527Y6510D02*
X9727D01*
X9827Y6610D01*
X9727Y6710D01*
X9527D01*
X9577Y7010D02*
X9527Y6960D01*
Y6860D01*
X9577Y6810D01*
X9777D01*
X9827Y6860D01*
Y6960D01*
X9777Y7010D01*
X9827Y7110D02*
X9627D01*
X9527Y7210D01*
X9627Y7310D01*
X9827D01*
X9677D01*
Y7110D01*
X9827Y7410D02*
X9527D01*
Y7560D01*
X9577Y7610D01*
X9677D01*
X9727Y7560D01*
Y7410D01*
X8573Y6810D02*
X8523Y6860D01*
Y6960D01*
X8573Y7010D01*
X8623D01*
X8673Y6960D01*
Y6910D01*
Y6960D01*
X8723Y7010D01*
X8773D01*
X8823Y6960D01*
Y6860D01*
X8773Y6810D01*
X8523Y7110D02*
X8723D01*
X8823Y7210D01*
X8723Y7310D01*
X8523D01*
X8573Y7410D02*
X8523Y7460D01*
Y7560D01*
X8573Y7610D01*
X8623D01*
X8673Y7560D01*
Y7510D01*
Y7560D01*
X8723Y7610D01*
X8773D01*
X8823Y7560D01*
Y7460D01*
X8773Y7410D01*
X7820Y7110D02*
X7620D01*
X7520Y7210D01*
X7620Y7310D01*
X7820D01*
X7670D01*
Y7110D01*
X7570Y7410D02*
X7520Y7460D01*
Y7560D01*
X7570Y7610D01*
X7620D01*
X7670Y7560D01*
Y7510D01*
Y7560D01*
X7720Y7610D01*
X7770D01*
X7820Y7560D01*
Y7460D01*
X7770Y7410D01*
X3330Y1490D02*
Y1790D01*
X3480D01*
X3530Y1740D01*
Y1640D01*
X3480Y1590D01*
X3330D01*
X3430D02*
X3530Y1490D01*
X3630Y1740D02*
X3680Y1790D01*
X3780D01*
X3830Y1740D01*
Y1690D01*
X3780Y1640D01*
X3730D01*
X3780D01*
X3830Y1590D01*
Y1540D01*
X3780Y1490D01*
X3680D01*
X3630Y1540D01*
X3370Y7290D02*
Y7590D01*
X3520D01*
X3570Y7540D01*
Y7440D01*
X3520Y7390D01*
X3370D01*
X3470D02*
X3570Y7290D01*
X3870D02*
X3670D01*
X3870Y7490D01*
Y7540D01*
X3820Y7590D01*
X3720D01*
X3670Y7540D01*
X7370Y3330D02*
X7070D01*
Y3480D01*
X7120Y3530D01*
X7220D01*
X7270Y3480D01*
Y3330D01*
Y3430D02*
X7370Y3530D01*
Y3630D02*
Y3730D01*
Y3680D01*
X7070D01*
X7120Y3630D01*
X240Y6360D02*
X490D01*
X540Y6410D01*
Y6510D01*
X490Y6560D01*
X240D01*
X290Y6860D02*
X240Y6810D01*
Y6710D01*
X290Y6660D01*
X340D01*
X390Y6710D01*
Y6810D01*
X440Y6860D01*
X490D01*
X540Y6810D01*
Y6710D01*
X490Y6660D01*
X240Y6960D02*
X540D01*
Y7110D01*
X490Y7160D01*
X440D01*
X390Y7110D01*
Y6960D01*
Y7110D01*
X340Y7160D01*
X290D01*
X240Y7110D01*
Y6960D01*
X13970Y4320D02*
X14220D01*
X14270Y4370D01*
Y4470D01*
X14220Y4520D01*
X13970D01*
X14270Y4620D02*
Y4720D01*
Y4670D01*
X13970D01*
X14020Y4620D01*
X1160Y8180D02*
X1060D01*
X1010Y8130D01*
Y7930D01*
X1060Y7880D01*
X1160D01*
X1210Y7930D01*
Y8130D01*
X1160Y8180D01*
X1310Y7880D02*
X1410D01*
X1360D01*
Y8180D01*
X1310Y8130D01*
X4660Y1810D02*
Y1510D01*
X4860D01*
X5160Y1810D02*
X4960D01*
Y1510D01*
X5160D01*
X4960Y1660D02*
X5060D01*
X5260Y1810D02*
Y1510D01*
X5410D01*
X5460Y1560D01*
Y1760D01*
X5410Y1810D01*
X5260D01*
X5760Y1510D02*
X5560D01*
X5760Y1710D01*
Y1760D01*
X5710Y1810D01*
X5610D01*
X5560Y1760D01*
X4770Y7580D02*
Y7280D01*
X4970D01*
X5270Y7580D02*
X5070D01*
Y7280D01*
X5270D01*
X5070Y7430D02*
X5170D01*
X5370Y7580D02*
Y7280D01*
X5520D01*
X5570Y7330D01*
Y7530D01*
X5520Y7580D01*
X5370D01*
X5670Y7280D02*
X5770D01*
X5720D01*
Y7580D01*
X5670Y7530D01*
X8490Y4220D02*
X8190D01*
Y4370D01*
X8240Y4420D01*
X8340D01*
X8390Y4370D01*
Y4220D01*
Y4320D02*
X8490Y4420D01*
X8240Y4720D02*
X8190Y4670D01*
Y4570D01*
X8240Y4520D01*
X8290D01*
X8340Y4570D01*
Y4670D01*
X8390Y4720D01*
X8440D01*
X8490Y4670D01*
Y4570D01*
X8440Y4520D01*
X8190Y4820D02*
Y5020D01*
Y4920D01*
X8490D01*
X4745Y6770D02*
X4845D01*
X4795D01*
Y6470D01*
X4745D01*
X4845D01*
X5195Y6720D02*
X5145Y6770D01*
X5045D01*
X4995Y6720D01*
Y6520D01*
X5045Y6470D01*
X5145D01*
X5195Y6520D01*
X5295Y6470D02*
X5395D01*
X5345D01*
Y6770D01*
X5295Y6720D01*
X10410Y5540D02*
X10360Y5490D01*
Y5390D01*
X10410Y5340D01*
X10610D01*
X10660Y5390D01*
Y5490D01*
X10610Y5540D01*
X10660Y5790D02*
X10360D01*
X10510Y5640D01*
Y5840D01*
X6740Y5430D02*
X6690Y5380D01*
Y5280D01*
X6740Y5230D01*
X6940D01*
X6990Y5280D01*
Y5380D01*
X6940Y5430D01*
X6740Y5530D02*
X6690Y5580D01*
Y5680D01*
X6740Y5730D01*
X6790D01*
X6840Y5680D01*
Y5630D01*
Y5680D01*
X6890Y5730D01*
X6940D01*
X6990Y5680D01*
Y5580D01*
X6940Y5530D01*
X3130Y5510D02*
X3080Y5460D01*
Y5360D01*
X3130Y5310D01*
X3330D01*
X3380Y5360D01*
Y5460D01*
X3330Y5510D01*
X3380Y5810D02*
Y5610D01*
X3180Y5810D01*
X3130D01*
X3080Y5760D01*
Y5660D01*
X3130Y5610D01*
X7650Y6160D02*
X7600Y6110D01*
Y6010D01*
X7650Y5960D01*
X7850D01*
X7900Y6010D01*
Y6110D01*
X7850Y6160D01*
X7900Y6260D02*
Y6360D01*
Y6310D01*
X7600D01*
X7650Y6260D01*
D16*
X17323Y0D02*
G03*
X17717Y394I0J394D01*
G01*
X17717Y8661D02*
G03*
X17323Y9055I-394J0D01*
G01*
X394D02*
G03*
X0Y8661I0J-394D01*
G01*
Y394D02*
G03*
X394Y0I394J0D01*
G01*
D17*
X0Y-580D02*
X600Y-380D01*
X0Y-580D02*
X600Y-780D01*
X17117D02*
X17717Y-580D01*
X17117Y-380D02*
X17717Y-580D01*
X0D02*
X6589D01*
X10808D02*
X17717D01*
X0Y-680D02*
Y294D01*
X17717Y-680D02*
Y294D01*
X-1090Y9055D02*
X-890Y8455D01*
X-1290D02*
X-1090Y9055D01*
X-1290Y600D02*
X-1090Y0D01*
X-890Y600D01*
X-1090Y6477D02*
Y9055D01*
Y0D02*
Y2258D01*
X-1190Y9055D02*
X294D01*
X-1190Y0D02*
X294D01*
M02*
