G04*
G04 #@! TF.GenerationSoftware,Altium Limited,Altium Designer,21.2.2 (38)*
G04*
G04 Layer_Physical_Order=1*
G04 Layer_Color=255*
%FSLAX24Y24*%
%MOIN*%
G70*
G04*
G04 #@! TF.SameCoordinates,73095A83-B390-47B6-BD11-AEDCE0CE4F92*
G04*
G04*
G04 #@! TF.FilePolarity,Positive*
G04*
G01*
G75*
%ADD13C,0.0060*%
%ADD15C,0.0050*%
%ADD16C,0.0060*%
%ADD17C,0.0100*%
%ADD18R,0.0380X0.0315*%
%ADD19R,0.0450X0.0500*%
%ADD20O,0.0177X0.0551*%
%ADD21R,0.0315X0.0380*%
%ADD22R,0.0472X0.0709*%
%ADD23R,0.0335X0.0787*%
%ADD24R,0.1260X0.0787*%
%ADD25R,0.0551X0.0157*%
%ADD26R,0.0748X0.0709*%
%ADD41C,0.0200*%
%ADD42C,0.0150*%
%ADD43C,0.0250*%
%ADD44R,0.0410X0.0750*%
%ADD45R,0.0399X0.0337*%
%ADD46R,0.0290X0.0420*%
%ADD47R,0.0150X0.0390*%
%ADD48R,0.0430X0.0150*%
%ADD49R,0.0660X0.0470*%
%ADD50R,0.0200X0.0230*%
%ADD51R,0.0190X0.0220*%
%ADD52R,0.1000X0.1000*%
%ADD53R,0.0669X0.0669*%
%ADD54C,0.0669*%
%ADD55R,0.0669X0.0669*%
%ADD56C,0.0256*%
%ADD57C,0.0240*%
G36*
X5550Y3734D02*
X5205D01*
Y3365D01*
X5810D01*
Y3730D01*
X6193D01*
Y3670D01*
X6197Y3649D01*
X6200Y3627D01*
X6202Y3624D01*
X6202Y3621D01*
X6214Y3603D01*
X6226Y3584D01*
X6228Y3582D01*
X6230Y3580D01*
X6248Y3568D01*
X6266Y3555D01*
X6269Y3554D01*
X6271Y3552D01*
X6293Y3548D01*
X6314Y3543D01*
X6317Y3543D01*
X6320Y3543D01*
X6341Y3547D01*
X6363Y3550D01*
X6366Y3552D01*
X6369Y3552D01*
X6387Y3564D01*
X6406Y3576D01*
X6408Y3578D01*
X6410Y3580D01*
X6422Y3598D01*
X6435Y3616D01*
X6436Y3619D01*
X6438Y3621D01*
X6442Y3643D01*
X6447Y3664D01*
X6480Y4350D01*
X6593D01*
Y4285D01*
X6850D01*
X7107D01*
Y4350D01*
X7380D01*
Y3730D01*
X7503D01*
Y3600D01*
X7760D01*
Y3475D01*
X7885D01*
Y3185D01*
X7950D01*
Y2850D01*
X5810D01*
Y3115D01*
X5080D01*
Y3240D01*
X4955D01*
Y3734D01*
X4690D01*
Y6220D01*
X4813D01*
Y5915D01*
X5347D01*
Y6220D01*
X5550D01*
Y3734D01*
D02*
G37*
%LPC*%
G36*
X5347Y5665D02*
X5205D01*
Y5296D01*
X5347D01*
Y5665D01*
D02*
G37*
G36*
X4955D02*
X4813D01*
Y5296D01*
X4955D01*
Y5665D01*
D02*
G37*
G36*
X7107Y4035D02*
X6975D01*
Y3870D01*
X7107D01*
Y4035D01*
D02*
G37*
G36*
X6725D02*
X6593D01*
Y3870D01*
X6725D01*
Y4035D01*
D02*
G37*
G36*
X7635Y3350D02*
X7503D01*
Y3185D01*
X7635D01*
Y3350D01*
D02*
G37*
%LPD*%
D13*
X17557Y8665D02*
G03*
X17327Y8895I-234J-4D01*
G01*
X16165Y8016D02*
G03*
X15237Y8051I-465J0D01*
G01*
Y8051D02*
G03*
X15175Y8012I52J-151D01*
G01*
X15237Y8051D02*
G03*
X15175Y8012I52J-151D01*
G01*
X15339Y7723D02*
G03*
X16165Y8016I361J292D01*
G01*
X16054Y7210D02*
G03*
X16168Y7257I0J160D01*
G01*
X15165Y8016D02*
G03*
X14278Y7820I-465J0D01*
G01*
X14165Y8016D02*
G03*
X13540Y7580I-465J0D01*
G01*
X13860D02*
G03*
X14165Y8016I-160J436D01*
G01*
X16054Y7210D02*
G03*
X16167Y7257I0J160D01*
G01*
X17235Y5025D02*
G03*
X16334Y5185I-465J0D01*
G01*
X15708Y5288D02*
G03*
X15366Y5408I-206J-40D01*
G01*
Y5088D02*
G03*
X15433Y5050I136J160D01*
G01*
X13900Y5868D02*
G03*
X13842Y6017I-219J0D01*
G01*
X13882Y5408D02*
G03*
X13900Y5494I-201J86D01*
G01*
X12832Y7570D02*
G03*
X13165Y8016I-132J446D01*
G01*
D02*
G03*
X12512Y7591I-465J0D01*
G01*
X11872Y7584D02*
G03*
X12165Y8016I-172J432D01*
G01*
X11540Y7530D02*
G03*
X11587Y7417I160J0D01*
G01*
X11540Y7530D02*
G03*
X11587Y7417I160J0D01*
G01*
X10140Y7866D02*
G03*
X10165Y8016I-440J150D01*
G01*
X12165D02*
G03*
X11540Y7580I-465J0D01*
G01*
X10866Y7528D02*
G03*
X11215Y8016I-166J487D01*
G01*
X11395Y7468D02*
G03*
X11250Y7528I-145J-145D01*
G01*
X11395Y7468D02*
G03*
X11250Y7528I-145J-145D01*
G01*
X11215Y8016D02*
G03*
X10265Y7741I-515J0D01*
G01*
X10425Y7581D02*
G03*
X10534Y7528I275J435D01*
G01*
X10165Y8016D02*
G03*
X9850Y7576I-465J0D01*
G01*
X11166Y7037D02*
G03*
X11053Y7084I-113J-113D01*
G01*
X11166Y7037D02*
G03*
X11053Y7084I-113J-113D01*
G01*
X10247Y7179D02*
G03*
X10392Y7118I145J145D01*
G01*
X10247Y7179D02*
G03*
X10392Y7118I145J145D01*
G01*
X12090Y6688D02*
G03*
X12030Y6833I-205J0D01*
G01*
X12090Y6688D02*
G03*
X12030Y6833I-205J0D01*
G01*
X11540Y6597D02*
G03*
X11493Y6710I-160J0D01*
G01*
X11540Y6597D02*
G03*
X11493Y6710I-160J0D01*
G01*
X12530Y5317D02*
G03*
X12706Y5281I128J177D01*
G01*
X12274Y5317D02*
G03*
X12530Y5317I128J177D01*
G01*
X12095Y5282D02*
G03*
X12274Y5317I51J213D01*
G01*
X12240Y6066D02*
G03*
X12090Y6080I-94J-197D01*
G01*
X12706Y5281D02*
G03*
X13050Y5088I207J-33D01*
G01*
X12060Y4666D02*
G03*
X12117Y4809I-153J144D01*
G01*
D02*
G03*
X12095Y4902I-210J0D01*
G01*
X11680Y6082D02*
G03*
X11540Y6066I-46J-214D01*
G01*
X10070Y6080D02*
G03*
X9724Y6240I-210J0D01*
G01*
Y5920D02*
G03*
X10070Y6080I136J160D01*
G01*
X11160Y5494D02*
G03*
X11429Y5282I219J0D01*
G01*
X11220Y6019D02*
G03*
X11160Y5868I158J-151D01*
G01*
X10915Y4982D02*
G03*
X10793Y5022I-122J-165D01*
G01*
X11020Y4800D02*
G03*
X10915Y4982I-210J0D01*
G01*
X10915D02*
G03*
X10793Y5022I-122J-165D01*
G01*
X16335Y4863D02*
G03*
X17235Y5025I435J162D01*
G01*
X15565Y4590D02*
G03*
X15615Y4595I0J230D01*
G01*
X15565Y4590D02*
G03*
X15615Y4595I0J230D01*
G01*
X17285Y4025D02*
G03*
X17285Y4025I-515J0D01*
G01*
X17235Y3025D02*
G03*
X17235Y3025I-465J0D01*
G01*
X15050Y5050D02*
G03*
X15050Y4590I0J-230D01*
G01*
X14969Y3564D02*
G03*
X15082Y3611I0J160D01*
G01*
X14969Y3564D02*
G03*
X15082Y3610I0J160D01*
G01*
X15964Y1946D02*
G03*
X15851Y1993I-113J-113D01*
G01*
X15964Y1946D02*
G03*
X15851Y1993I-113J-113D01*
G01*
X17327Y160D02*
G03*
X17557Y390I-4J234D01*
G01*
X16165Y984D02*
G03*
X15505Y1406I-465J0D01*
G01*
X15278Y1633D02*
G03*
X15211Y1673I-113J-113D01*
G01*
X15277Y1633D02*
G03*
X15211Y1673I-113J-113D01*
G01*
X15278Y1180D02*
G03*
X16165Y984I422J-195D01*
G01*
X14455Y1379D02*
G03*
X15165Y984I245J-395D01*
G01*
D02*
G03*
X14973Y1360I-465J0D01*
G01*
X13348Y3884D02*
G03*
X13235Y3837I0J-160D01*
G01*
X13348Y3884D02*
G03*
X13235Y3837I0J-160D01*
G01*
X13162Y3764D02*
G03*
X13042Y3723I8J-218D01*
G01*
D02*
G03*
X12786Y3723I-128J-177D01*
G01*
X12786D02*
G03*
X12530Y3723I-128J-177D01*
G01*
D02*
G03*
X12274Y3723I-128J-177D01*
G01*
X11839Y4581D02*
G03*
X12060Y4666I51J199D01*
G01*
X12274Y3723D02*
G03*
X12018Y3723I-128J-177D01*
G01*
X13870Y1915D02*
G03*
X13857Y1977I-160J0D01*
G01*
X13870Y1915D02*
G03*
X13857Y1977I-160J0D01*
G01*
X11779Y4424D02*
G03*
X11839Y4569I-145J145D01*
G01*
X11779Y4424D02*
G03*
X11839Y4569I-145J145D01*
G01*
X11583Y4177D02*
G03*
X11699Y4344I-111J201D01*
G01*
X11261Y4484D02*
G03*
X11583Y4177I201J-112D01*
G01*
X11377Y4601D02*
G03*
X11261Y4484I95J-209D01*
G01*
X12018Y3723D02*
G03*
X11762Y3723I-128J-177D01*
G01*
X11762D02*
G03*
X11506Y3723I-128J-177D01*
G01*
D02*
G03*
X11160Y3546I-128J-177D01*
G01*
X10787Y4591D02*
G03*
X11020Y4800I23J209D01*
G01*
X11160Y3172D02*
G03*
X11196Y3051I219J0D01*
G01*
X14165Y984D02*
G03*
X13870Y1417I-465J0D01*
G01*
X13550Y1424D02*
G03*
X14165Y984I150J-440D01*
G01*
X13165D02*
G03*
X12850Y1424I-465J0D01*
G01*
X12530Y1417D02*
G03*
X13165Y984I170J-432D01*
G01*
X12165D02*
G03*
X11860Y1420I-465J0D01*
G01*
X11540D02*
G03*
X12165Y984I160J-436D01*
G01*
X11165D02*
G03*
X11088Y1240I-465J0D01*
G01*
X10439Y1369D02*
G03*
X11165Y984I261J-385D01*
G01*
X10165D02*
G03*
X10122Y1180I-465J0D01*
G01*
X9895Y1406D02*
G03*
X10165Y984I-195J-422D01*
G01*
X9165D02*
G03*
X9122Y1180I-465J0D01*
G01*
X8122Y7820D02*
G03*
X8165Y8016I-422J195D01*
G01*
X9165D02*
G03*
X9165Y8016I-465J0D01*
G01*
X8165D02*
G03*
X7895Y7594I-465J0D01*
G01*
X8679Y6811D02*
G03*
X8792Y6764I113J113D01*
G01*
X8679Y6811D02*
G03*
X8792Y6764I113J113D01*
G01*
X8883Y6240D02*
G03*
X8769Y6193I0J-160D01*
G01*
X8883Y6240D02*
G03*
X8769Y6193I0J-160D01*
G01*
X7483Y5634D02*
G03*
X7161Y5370I-143J-154D01*
G01*
X2665Y8540D02*
G03*
X2510Y8695I-155J0D01*
G01*
X1885D02*
G03*
X1787Y8660I0J-155D01*
G01*
X2665Y8540D02*
G03*
X2510Y8695I-155J0D01*
G01*
X1885D02*
G03*
X1787Y8660I0J-155D01*
G01*
X2665Y7981D02*
G03*
X2770Y7886I185J99D01*
G01*
D02*
G03*
X2860Y7865I90J184D01*
G01*
X2770Y7886D02*
G03*
X2860Y7865I90J184D01*
G01*
X2928Y8275D02*
G03*
X2665Y8179I-78J-195D01*
G01*
X1787Y7400D02*
G03*
X1885Y7365I98J120D01*
G01*
X1787Y7400D02*
G03*
X1885Y7365I98J120D01*
G01*
X390Y8895D02*
G03*
X160Y8665I4J-234D01*
G01*
X4475Y5271D02*
G03*
X4472Y5303I-155J0D01*
G01*
X4475Y5271D02*
G03*
X4472Y5303I-155J0D01*
G01*
X2048Y5590D02*
G03*
X1798Y5183I-41J-255D01*
G01*
X6515Y4490D02*
G03*
X6360Y4645I-155J0D01*
G01*
X6320D02*
G03*
X6165Y4490I0J-155D01*
G01*
X6515D02*
G03*
X6360Y4645I-155J0D01*
G01*
X6320D02*
G03*
X6165Y4490I0J-155D01*
G01*
X8596Y2040D02*
G03*
X8482Y1993I0J-160D01*
G01*
X8596Y2040D02*
G03*
X8483Y1993I0J-160D01*
G01*
X8895Y1406D02*
G03*
X9165Y984I-195J-422D01*
G01*
X7895Y1406D02*
G03*
X7264Y1144I-195J-422D01*
G01*
Y824D02*
G03*
X8165Y984I436J160D01*
G01*
D02*
G03*
X8122Y1180I-465J0D01*
G01*
X5135Y1323D02*
G03*
X5167Y1349I-95J153D01*
G01*
X5135Y1323D02*
G03*
X5167Y1349I-95J153D01*
G01*
X4320Y4495D02*
G03*
X4475Y4650I0J155D01*
G01*
X4320Y4495D02*
G03*
X4475Y4650I0J155D01*
G01*
X3463Y4500D02*
G03*
X3502Y4495I39J150D01*
G01*
X2938D02*
G03*
X2977Y4500I0J155D01*
G01*
X2938Y4495D02*
G03*
X2977Y4500I0J155D01*
G01*
X3463D02*
G03*
X3502Y4495I39J150D01*
G01*
X2264Y3760D02*
G03*
X2256Y3827I-258J0D01*
G01*
X1798Y3912D02*
G03*
X2264Y3760I209J-152D01*
G01*
X3768Y1656D02*
G03*
X3641Y1603I0J-180D01*
G01*
X3768Y1656D02*
G03*
X3641Y1603I0J-180D01*
G01*
X160Y390D02*
G03*
X390Y160I234J4D01*
G01*
X17165Y8300D02*
X17557D01*
X17165Y8200D02*
X17557D01*
X17165Y8250D02*
X17557D01*
X17165Y8450D02*
X17557D01*
X16235Y8480D02*
X17165D01*
Y8350D02*
X17557D01*
X17165Y8400D02*
X17557D01*
X17165Y8000D02*
X17557D01*
X17165Y8050D02*
X17557D01*
X17165Y7900D02*
X17557D01*
X17165Y7950D02*
X17557D01*
X17165Y8100D02*
X17557D01*
X17165Y8150D02*
X17557D01*
X16150Y7900D02*
X16235D01*
X16101Y8250D02*
X16235D01*
X16068Y8300D02*
X16235D01*
X16145Y8150D02*
X16235D01*
X16127Y8200D02*
X16235D01*
X15961Y8400D02*
X16235D01*
X15865Y8450D02*
X16235D01*
X16023Y8350D02*
X16235D01*
X16163Y8050D02*
X16235D01*
X16157Y8100D02*
X16235D01*
X16160Y7950D02*
X16235D01*
X16164Y8000D02*
X16235D01*
X15163Y8050D02*
X15235D01*
X17165Y7700D02*
X17557D01*
X17165Y7750D02*
X17557D01*
X17165Y7600D02*
X17557D01*
X17165Y7650D02*
X17557D01*
X17165Y7800D02*
X17557D01*
X17165Y7850D02*
X17557D01*
X17165Y7551D02*
Y8480D01*
X16168Y7257D02*
X16462Y7551D01*
X16461Y7550D02*
X17557D01*
X16462Y7551D02*
X17165D01*
X16361Y7450D02*
X17557D01*
X16411Y7500D02*
X17557D01*
X16261Y7350D02*
X17557D01*
X16311Y7400D02*
X17557D01*
X16211Y7300D02*
X17557D01*
X16112Y7800D02*
X16235D01*
X16134Y7850D02*
X16235D01*
Y7777D02*
Y8480D01*
X16081Y7750D02*
X16208D01*
X15315Y7700D02*
X15359D01*
X15988Y7530D02*
X16235Y7777D01*
X16041Y7700D02*
X16158D01*
X15987Y7650D02*
X16108D01*
X15907Y7600D02*
X16058D01*
X15215D02*
X15493D01*
X15265Y7650D02*
X15413D01*
X15165Y7550D02*
X16008D01*
X14865Y8450D02*
X15535D01*
X14961Y8400D02*
X15439D01*
X15023Y8350D02*
X15377D01*
X14068Y8300D02*
X14332D01*
X10874Y8500D02*
X17557D01*
X13865Y8450D02*
X14535D01*
X13961Y8400D02*
X14439D01*
X14023Y8350D02*
X14377D01*
X15101Y8250D02*
X15299D01*
X15127Y8200D02*
X15273D01*
X15145Y8150D02*
X15255D01*
X15157Y8100D02*
X15243D01*
X15068Y8300D02*
X15332D01*
X14101Y8250D02*
X14299D01*
X14127Y8200D02*
X14273D01*
X13068Y8300D02*
X13332D01*
X13101Y8250D02*
X13299D01*
X13127Y8200D02*
X13273D01*
X13145Y8150D02*
X13255D01*
X12865Y8450D02*
X13535D01*
X12961Y8400D02*
X13439D01*
X13023Y8350D02*
X13377D01*
X14157Y8100D02*
X14243D01*
X14163Y8050D02*
X14237D01*
X14160Y7950D02*
X14240D01*
X14164Y8000D02*
X14236D01*
X14145Y8150D02*
X14255D01*
X14150Y7900D02*
X14250D01*
X14134Y7850D02*
X14266D01*
X14112Y7800D02*
X14258D01*
X15145Y7530D02*
X15339Y7723D01*
X14081Y7750D02*
X14208D01*
X14041Y7700D02*
X14158D01*
X13859Y7401D02*
X14278Y7820D01*
X13987Y7650D02*
X14108D01*
X13907Y7600D02*
X14058D01*
X15145Y7530D02*
X15988D01*
X13860Y7450D02*
X13908D01*
X13860Y7550D02*
X14008D01*
X13860Y7500D02*
X13958D01*
X13860Y7422D02*
Y7580D01*
X13112Y7800D02*
X13288D01*
X13134Y7850D02*
X13266D01*
X13540Y7489D02*
Y7580D01*
X13081Y7750D02*
X13319D01*
X12987Y7650D02*
X13413D01*
X13041Y7700D02*
X13359D01*
X12907Y7600D02*
X13493D01*
X12832Y7450D02*
X13501D01*
X12832Y7400D02*
X13451D01*
X12832Y7350D02*
X13401D01*
X12832Y7300D02*
X13351D01*
X12832Y7500D02*
X13540D01*
X12832Y7550D02*
X13540D01*
X12832Y6780D02*
X13540Y7489D01*
X17235Y5900D02*
X17557D01*
X17235Y5950D02*
X17557D01*
X17235Y5800D02*
X17557D01*
X17235Y5850D02*
X17557D01*
X17235Y6100D02*
X17557D01*
X17235Y6150D02*
X17557D01*
X17235Y6000D02*
X17557D01*
X17235Y6050D02*
X17557D01*
X17235Y5700D02*
X17557D01*
X17235Y5750D02*
X17557D01*
X17235Y5600D02*
X17557D01*
X17235Y5650D02*
X17557D01*
X16570Y5500D02*
X17557D01*
X16620Y5550D02*
X17557D01*
X16958Y5450D02*
X17557D01*
X17235Y6400D02*
X17557D01*
X17235Y6450D02*
X17557D01*
X17235Y6350D02*
X17557D01*
X17235Y5560D02*
Y6490D01*
X16160Y7250D02*
X17557D01*
X16305Y6490D02*
X17235D01*
X16305Y5886D02*
Y6490D01*
X17235Y6250D02*
X17557D01*
X17235Y6300D02*
X17557D01*
X17235Y6200D02*
X17557D01*
X16631Y5560D02*
X17235D01*
X16520Y5450D02*
X16582D01*
X15560D02*
X15870D01*
X15647Y5400D02*
X15820D01*
X17234Y5050D02*
X17557D01*
X17229Y5100D02*
X17557D01*
X17229Y4950D02*
X17557D01*
X17234Y5000D02*
X17557D01*
X17177Y5250D02*
X17557D01*
X17145Y5300D02*
X17557D01*
X17218Y5150D02*
X17557D01*
X17200Y5200D02*
X17557D01*
X17200Y4850D02*
X17557D01*
X17218Y4900D02*
X17557D01*
X17145Y4750D02*
X17557D01*
X17177Y4800D02*
X17557D01*
X17044Y4650D02*
X17557D01*
X17102Y4700D02*
X17557D01*
X16958Y4600D02*
X17557D01*
X17102Y5350D02*
X17557D01*
X17044Y5400D02*
X17557D01*
X16254Y5184D02*
X16631Y5560D01*
X15685Y5350D02*
X15770D01*
X15708Y5288D02*
X16305Y5886D01*
X16320Y5250D02*
X16363D01*
X16270Y5200D02*
X16340D01*
X16272Y4800D02*
X16363D01*
X16270Y5185D02*
X16334D01*
X16172Y4700D02*
X16438D01*
X16222Y4750D02*
X16395D01*
X16122Y4650D02*
X16496D01*
X14849Y7150D02*
X17557D01*
X14899Y7200D02*
X17557D01*
X14749Y7050D02*
X17557D01*
X14799Y7100D02*
X17557D01*
X14649Y6950D02*
X17557D01*
X14699Y7000D02*
X17557D01*
X14549Y6850D02*
X17557D01*
X14599Y6900D02*
X17557D01*
X14449Y6750D02*
X17557D01*
X14499Y6800D02*
X17557D01*
X14349Y6650D02*
X17557D01*
X14399Y6700D02*
X17557D01*
X14249Y6550D02*
X17557D01*
X14299Y6600D02*
X17557D01*
X14199Y6500D02*
X17557D01*
X14149Y6450D02*
X16305D01*
X14909Y7210D02*
X16054D01*
X14049Y6350D02*
X16305D01*
X14099Y6400D02*
X16305D01*
X12832Y7250D02*
X13301D01*
X12832Y7200D02*
X13251D01*
X13842Y6142D02*
X14909Y7210D01*
X13949Y6250D02*
X16305D01*
X13999Y6300D02*
X16305D01*
X13849Y6150D02*
X16305D01*
X13899Y6200D02*
X16305D01*
X13842Y6050D02*
X16305D01*
X13842Y6100D02*
X16305D01*
X13842Y6017D02*
Y6142D01*
X13900Y5800D02*
X16220D01*
X13900Y5750D02*
X16170D01*
X13900Y5700D02*
X16120D01*
X13900Y5650D02*
X16070D01*
X13884Y5950D02*
X16305D01*
X13856Y6000D02*
X16305D01*
X13898Y5900D02*
X16305D01*
X13900Y5850D02*
X16270D01*
X13900Y5500D02*
X15920D01*
X15050Y5050D02*
X15433D01*
X15050D02*
X15433D01*
X13900Y5600D02*
X16020D01*
X13900Y5550D02*
X15970D01*
X13896Y5450D02*
X15443D01*
X13900Y5494D02*
Y5868D01*
X13882Y5408D02*
X15366D01*
X13050Y5088D02*
X15366D01*
X12983Y5050D02*
X15050D01*
X12095Y5000D02*
X14907D01*
X12096Y4900D02*
X14834D01*
X12113Y4850D02*
X14822D01*
X12108Y4750D02*
X14831D01*
X12117Y4800D02*
X14821D01*
X12095Y4950D02*
X14860D01*
X12086Y4700D02*
X14854D01*
X12049Y4650D02*
X14895D01*
X13157Y8100D02*
X13243D01*
X13163Y8050D02*
X13237D01*
X13164Y8000D02*
X13236D01*
X11865Y8450D02*
X12535D01*
X11961Y8400D02*
X12439D01*
X12023Y8350D02*
X12377D01*
X13150Y7900D02*
X13250D01*
X13160Y7950D02*
X13240D01*
X11987Y7650D02*
X12413D01*
X12041Y7700D02*
X12359D01*
X11906Y7550D02*
X12512D01*
X11907Y7600D02*
X12493D01*
X11956Y7500D02*
X12512D01*
X12145Y8150D02*
X12255D01*
X12157Y8100D02*
X12243D01*
X12163Y8050D02*
X12237D01*
X12164Y8000D02*
X12236D01*
X12068Y8300D02*
X12332D01*
X12101Y8250D02*
X12299D01*
X12127Y8200D02*
X12273D01*
X12150Y7900D02*
X12250D01*
X12160Y7950D02*
X12240D01*
X12112Y7800D02*
X12288D01*
X12134Y7850D02*
X12266D01*
X12081Y7750D02*
X12319D01*
X11540Y7530D02*
Y7580D01*
X11413Y7450D02*
X11561D01*
X12306Y7150D02*
X12512D01*
X12256Y7200D02*
X12512D01*
X12832Y6780D02*
Y7570D01*
X12512Y6945D02*
Y7591D01*
X12156Y7300D02*
X12512D01*
X12106Y7350D02*
X12512D01*
X11872Y7584D02*
X12512Y6945D01*
X12206Y7250D02*
X12512D01*
X12832Y7150D02*
X13201D01*
X12832Y7100D02*
X13151D01*
X12832Y7050D02*
X13101D01*
X12832Y7000D02*
X13051D01*
X12406Y7050D02*
X12512D01*
X12356Y7100D02*
X12512D01*
X12456Y7000D02*
X12512D01*
X12006Y7450D02*
X12512D01*
X12056Y7400D02*
X12512D01*
X11587Y7417D02*
X12240Y6764D01*
X11463Y7400D02*
X11604D01*
X11395Y7468D02*
X12030Y6833D01*
X11713Y7150D02*
X11854D01*
X11663Y7200D02*
X11804D01*
X11813Y7050D02*
X11954D01*
X11763Y7100D02*
X11904D01*
X11563Y7300D02*
X11704D01*
X11513Y7350D02*
X11654D01*
X11613Y7250D02*
X11754D01*
X10976Y8450D02*
X11535D01*
X11042Y8400D02*
X11439D01*
X11091Y8350D02*
X11377D01*
X9865Y8450D02*
X10424D01*
X9961Y8400D02*
X10358D01*
X10023Y8350D02*
X10309D01*
X10068Y8300D02*
X10271D01*
X11197Y8150D02*
X11255D01*
X11208Y8100D02*
X11243D01*
X11187Y7850D02*
X11266D01*
X11201Y7900D02*
X11250D01*
X11129Y8300D02*
X11332D01*
X11158Y8250D02*
X11299D01*
X11181Y8200D02*
X11273D01*
X10101Y8250D02*
X10242D01*
X10127Y8200D02*
X10219D01*
X10145Y8150D02*
X10203D01*
X10157Y8100D02*
X10192D01*
X9127Y8200D02*
X9273D01*
X9145Y8150D02*
X9255D01*
X9157Y8100D02*
X9243D01*
X9163Y8050D02*
X9237D01*
X9164Y8000D02*
X9236D01*
X10150Y7900D02*
X10199D01*
X9150D02*
X9250D01*
X9160Y7950D02*
X9240D01*
X9134Y7850D02*
X9266D01*
X11141Y7750D02*
X11319D01*
X11167Y7800D02*
X11288D01*
X11106Y7700D02*
X11359D01*
X11003Y7600D02*
X11493D01*
X11062Y7650D02*
X11413D01*
X10919Y7550D02*
X11540D01*
X11354Y7500D02*
X11543D01*
X11166Y7037D02*
X11493Y6710D01*
X10866Y7528D02*
X11250D01*
X11151Y7050D02*
X11233D01*
X11165Y7118D02*
X11680Y6603D01*
X10156Y7850D02*
X10213D01*
X10425Y7581D02*
X10477Y7528D01*
X10140Y7866D02*
X10265Y7741D01*
X9112Y7800D02*
X9288D01*
X10392Y7118D02*
X11165D01*
X10477Y7528D02*
X10534D01*
X9850Y7576D02*
X10247Y7179D01*
X12832Y6950D02*
X13001D01*
X12832Y6900D02*
X12951D01*
X12832Y6850D02*
X12901D01*
X12090Y6700D02*
X12240D01*
X12013Y6850D02*
X12154D01*
X11963Y6900D02*
X12104D01*
X12081Y6750D02*
X12240D01*
X12057Y6800D02*
X12204D01*
X12090Y6450D02*
X12240D01*
X12090Y6500D02*
X12240D01*
X12090Y6350D02*
X12240D01*
X12090Y6400D02*
X12240D01*
X12090Y6600D02*
X12240D01*
X12090Y6650D02*
X12240D01*
X12090Y6550D02*
X12240D01*
X11913Y6950D02*
X12054D01*
X11863Y7000D02*
X12004D01*
X11531Y6650D02*
X11633D01*
X11502Y6700D02*
X11583D01*
X11540Y6400D02*
X11680D01*
X11540Y6450D02*
X11680D01*
X11540Y6300D02*
X11680D01*
X11540Y6350D02*
X11680D01*
X11540Y6550D02*
X11680D01*
X11540Y6600D02*
X11680D01*
X11540Y6500D02*
X11680D01*
X12246Y5300D02*
X12302D01*
X12240Y6066D02*
Y6764D01*
X12090Y6100D02*
X12240D01*
X12090Y6150D02*
X12240D01*
X12095Y5250D02*
X12704D01*
X12502Y5300D02*
X12558D01*
X12095Y5200D02*
X12709D01*
X12095Y5100D02*
X12765D01*
X12095Y5150D02*
X12728D01*
X12095Y5050D02*
X12845D01*
X12090Y6250D02*
X12240D01*
X12090Y6300D02*
X12240D01*
X12090Y6080D02*
Y6688D01*
X11680Y6082D02*
Y6603D01*
X11540Y6200D02*
X11680D01*
X11540Y6250D02*
X11680D01*
X11540Y6066D02*
Y6597D01*
X12090Y6200D02*
X12240D01*
X12095Y4902D02*
X12095Y5282D01*
X11540Y6100D02*
X11680D01*
X11540Y6150D02*
X11680D01*
X11353Y6850D02*
X11433D01*
X11303Y6900D02*
X11383D01*
X11453Y6750D02*
X11533D01*
X11403Y6800D02*
X11483D01*
X11253Y6950D02*
X11333D01*
X11203Y7000D02*
X11283D01*
X11220Y6019D02*
Y6530D01*
X9656Y6400D02*
X11220D01*
X10058Y6150D02*
X11220D01*
X10032Y6200D02*
X11220D01*
X10068Y6050D02*
X11220D01*
X10069Y6100D02*
X11220D01*
X9656Y6300D02*
X11220D01*
X9656Y6350D02*
X11220D01*
X9983Y6250D02*
X11220D01*
X9656Y6450D02*
X11220D01*
X10987Y6764D02*
X11220Y6530D01*
X9656Y6250D02*
X9737D01*
X9656Y6500D02*
X11220D01*
X9656Y6550D02*
X11200D01*
X9656Y6240D02*
Y6564D01*
X10054Y6000D02*
X11204D01*
X10025Y5950D02*
X11176D01*
X9968Y5900D02*
X11162D01*
X9656Y5920D02*
X9724D01*
X9656Y6240D02*
X9724D01*
X9656Y5900D02*
X9752D01*
X10957Y4950D02*
X11429D01*
Y4654D02*
Y5282D01*
X10995Y4900D02*
X11429D01*
X10787Y5100D02*
X11429D01*
X10787Y5150D02*
X11429D01*
X10886Y5000D02*
X11429D01*
X10787Y5050D02*
X11429D01*
X11020Y4800D02*
X11429D01*
X11014Y4850D02*
X11429D01*
X11377Y4601D02*
X11429Y4654D01*
X11014Y4750D02*
X11429D01*
X10995Y4700D02*
X11429D01*
X10957Y4650D02*
X11426D01*
X10874Y4600D02*
X11374D01*
X9656Y5750D02*
X11160D01*
Y5494D02*
Y5868D01*
X9656Y5700D02*
X11160D01*
X9656Y5800D02*
X11160D01*
X9656Y5850D02*
X11160D01*
X9656Y5596D02*
Y5920D01*
X10787Y5022D02*
Y5190D01*
X9656Y5600D02*
X11160D01*
X9656Y5650D02*
X11160D01*
X10213Y5190D02*
X10787D01*
X17169Y4350D02*
X17557D01*
X17122Y4400D02*
X17557D01*
X17233Y4250D02*
X17557D01*
X17205Y4300D02*
X17557D01*
X16022Y4550D02*
X17557D01*
X17060Y4450D02*
X17557D01*
X16968Y4500D02*
X17557D01*
X17284Y4050D02*
X17557D01*
X17279Y4100D02*
X17557D01*
X17279Y3950D02*
X17557D01*
X17284Y4000D02*
X17557D01*
X17269Y4150D02*
X17557D01*
X17254Y4200D02*
X17557D01*
X16072Y4600D02*
X16582D01*
X15972Y4500D02*
X16572D01*
X15922Y4450D02*
X16480D01*
X15872Y4400D02*
X16418D01*
X15822Y4350D02*
X16371D01*
X15772Y4300D02*
X16335D01*
X15722Y4250D02*
X16307D01*
X15672Y4200D02*
X16286D01*
X15622Y4150D02*
X16271D01*
X15572Y4100D02*
X16261D01*
X15522Y4050D02*
X16256D01*
X15472Y4000D02*
X16256D01*
X17234Y3000D02*
X17557D01*
X17234Y3050D02*
X17557D01*
Y394D02*
Y8661D01*
X17229Y2950D02*
X17557D01*
X17200Y3200D02*
X17557D01*
X17177Y3250D02*
X17557D01*
X17229Y3100D02*
X17557D01*
X17218Y3150D02*
X17557D01*
X17200Y2850D02*
X17557D01*
X17218Y2900D02*
X17557D01*
X17145Y2750D02*
X17557D01*
X17177Y2800D02*
X17557D01*
X17044Y2650D02*
X17557D01*
X17102Y2700D02*
X17557D01*
X16958Y2600D02*
X17557D01*
X17254Y3850D02*
X17557D01*
X17269Y3900D02*
X17557D01*
X17205Y3750D02*
X17557D01*
X17233Y3800D02*
X17557D01*
X17122Y3650D02*
X17557D01*
X17169Y3700D02*
X17557D01*
X17044Y3400D02*
X17557D01*
X17060Y3600D02*
X17557D01*
X17145Y3300D02*
X17557D01*
X17102Y3350D02*
X17557D01*
X16958Y3450D02*
X17557D01*
X16968Y3550D02*
X17557D01*
X15422Y3950D02*
X16261D01*
X15050Y4590D02*
X15565D01*
X15082Y3611D02*
X16335Y4863D01*
X14903Y3884D02*
X15615Y4595D01*
X11838Y4550D02*
X15569D01*
X11827Y4500D02*
X15519D01*
X11801Y4450D02*
X15469D01*
X11756Y4400D02*
X15419D01*
X15322Y3850D02*
X16286D01*
X15372Y3900D02*
X16271D01*
X15222Y3750D02*
X16335D01*
X15272Y3800D02*
X16307D01*
X15122Y3650D02*
X16418D01*
X15172Y3700D02*
X16371D01*
X15071Y3600D02*
X16480D01*
X11988Y4600D02*
X14983D01*
X11706Y4350D02*
X15369D01*
X11688Y4300D02*
X15319D01*
X11663Y4250D02*
X15269D01*
X11618Y4200D02*
X15219D01*
X11521Y4150D02*
X15169D01*
X10787Y3950D02*
X14969D01*
X13770Y3884D02*
X14903D01*
X13899Y3564D02*
X14969D01*
X10787Y4100D02*
X15119D01*
X10787Y4050D02*
X15069D01*
X10787Y4000D02*
X15019D01*
X14379Y2700D02*
X16438D01*
X13900Y3350D02*
X16438D01*
X14479Y2600D02*
X16582D01*
X14429Y2650D02*
X16496D01*
X13900Y3500D02*
X17557D01*
X13900Y3550D02*
X16572D01*
X13900Y3450D02*
X16582D01*
X13900Y3400D02*
X16496D01*
X14729Y2350D02*
X17557D01*
X14679Y2400D02*
X17557D01*
X14829Y2250D02*
X17557D01*
X14779Y2300D02*
X17557D01*
X14579Y2500D02*
X17557D01*
X14529Y2550D02*
X17557D01*
X14629Y2450D02*
X17557D01*
X13929Y3150D02*
X16322D01*
X13979Y3100D02*
X16311D01*
X13900Y3179D02*
X15086Y1993D01*
X13900Y3300D02*
X16395D01*
X13900Y3250D02*
X16363D01*
X13900Y3200D02*
X16340D01*
X14229Y2850D02*
X16340D01*
X14179Y2900D02*
X16322D01*
X14329Y2750D02*
X16395D01*
X14279Y2800D02*
X16363D01*
X14079Y3000D02*
X16306D01*
X14029Y3050D02*
X16306D01*
X14129Y2950D02*
X16311D01*
X16311Y1600D02*
X17557D01*
X16261Y1650D02*
X17557D01*
X16411Y1500D02*
X17557D01*
X16361Y1550D02*
X17557D01*
X16111Y1800D02*
X17557D01*
X16061Y1850D02*
X17557D01*
X16211Y1700D02*
X17557D01*
X16161Y1750D02*
X17557D01*
X17165Y1250D02*
X17557D01*
X17165Y1300D02*
X17557D01*
X17165Y1150D02*
X17557D01*
X17165Y1200D02*
X17557D01*
X17165Y1400D02*
X17557D01*
X16461Y1450D02*
X17557D01*
X17165Y1350D02*
X17557D01*
X15960Y1950D02*
X17557D01*
X16011Y1900D02*
X17557D01*
X15964Y1946D02*
X16462Y1449D01*
X15411Y1500D02*
X15958D01*
X15785Y1673D02*
X16235Y1223D01*
X15461Y1450D02*
X16008D01*
X16462Y1449D02*
X17165D01*
X16081Y1250D02*
X16208D01*
X16134Y1150D02*
X16235D01*
X16112Y1200D02*
X16235D01*
X15987Y1350D02*
X16108D01*
X15907Y1400D02*
X16058D01*
X16041Y1300D02*
X16158D01*
X17165Y900D02*
X17557D01*
X17165Y950D02*
X17557D01*
X17165Y800D02*
X17557D01*
X17165Y850D02*
X17557D01*
X17165Y1050D02*
X17557D01*
X17165Y1100D02*
X17557D01*
X17165Y1000D02*
X17557D01*
X17165Y520D02*
Y1449D01*
Y600D02*
X17557D01*
X17165Y650D02*
X17557D01*
X17165Y550D02*
X17557D01*
X17165Y700D02*
X17557D01*
X17165Y750D02*
X17557D01*
X16235Y520D02*
X17165D01*
X16164Y1000D02*
X16235D01*
X16160Y1050D02*
X16235D01*
Y520D02*
Y1223D01*
X16163Y950D02*
X16235D01*
X16150Y1100D02*
X16235D01*
X16157Y900D02*
X16235D01*
X16127Y800D02*
X16235D01*
X16145Y850D02*
X16235D01*
X16068Y700D02*
X16235D01*
X16101Y750D02*
X16235D01*
X15961Y600D02*
X16235D01*
X16023Y650D02*
X16235D01*
X15865Y550D02*
X16235D01*
X15079Y2000D02*
X17557D01*
X15086Y1993D02*
X15851D01*
X14929Y2150D02*
X17557D01*
X14879Y2200D02*
X17557D01*
X15029Y2050D02*
X17557D01*
X14979Y2100D02*
X17557D01*
X15311Y1600D02*
X15858D01*
X15258Y1650D02*
X15808D01*
X15361Y1550D02*
X15908D01*
X15278Y1633D02*
X15505Y1406D01*
X15211Y1673D02*
X15785D01*
X15112Y1200D02*
X15258D01*
X15098Y1360D02*
X15278Y1180D01*
X13870Y1450D02*
X14384D01*
X13870Y1500D02*
X14334D01*
X14973Y1360D02*
X15098D01*
X13907Y1400D02*
X14434D01*
X13870Y1550D02*
X14284D01*
X13870Y1600D02*
X14234D01*
X13857Y1977D02*
X14455Y1379D01*
X15041Y1300D02*
X15158D01*
X14987Y1350D02*
X15108D01*
X15081Y1250D02*
X15208D01*
X14112Y1200D02*
X14288D01*
X13987Y1350D02*
X14413D01*
X14041Y1300D02*
X14359D01*
X14081Y1250D02*
X14319D01*
X15160Y1050D02*
X15240D01*
X15164Y1000D02*
X15236D01*
X15163Y950D02*
X15237D01*
X15134Y1150D02*
X15266D01*
X15150Y1100D02*
X15250D01*
X15157Y900D02*
X15243D01*
X15127Y800D02*
X15273D01*
X15145Y850D02*
X15255D01*
X15068Y700D02*
X15332D01*
X15101Y750D02*
X15299D01*
X14961Y600D02*
X15439D01*
X15023Y650D02*
X15377D01*
X14865Y550D02*
X15535D01*
X14160Y1050D02*
X14240D01*
X14164Y1000D02*
X14236D01*
X14163Y950D02*
X14237D01*
X14134Y1150D02*
X14266D01*
X14150Y1100D02*
X14250D01*
X14157Y900D02*
X14243D01*
X14127Y800D02*
X14273D01*
X14145Y850D02*
X14255D01*
X14068Y700D02*
X14332D01*
X14101Y750D02*
X14299D01*
X13961Y600D02*
X14439D01*
X14023Y650D02*
X14377D01*
X13865Y550D02*
X14535D01*
X13348Y3884D02*
X13756D01*
X13900Y3179D02*
Y3546D01*
X13162Y3764D02*
X13235Y3837D01*
X12991Y3750D02*
X13092D01*
X12834Y2150D02*
X13248D01*
X12832Y2200D02*
X13198D01*
X12836Y2050D02*
X13348D01*
X12835Y2100D02*
X13298D01*
X12830Y2300D02*
X13098D01*
X12829Y2350D02*
X13048D01*
X12831Y2250D02*
X13148D01*
X12735Y3750D02*
X12836D01*
X12479D02*
X12581D01*
X11968D02*
X12069D01*
X12224D02*
X12325D01*
X12827Y2450D02*
X12948D01*
X12826Y2500D02*
X12898D01*
X12828Y2400D02*
X12998D01*
X12432Y2200D02*
X12512D01*
X12332Y2100D02*
X12515D01*
X12382Y2150D02*
X12513D01*
X12282Y2050D02*
X12516D01*
X13870Y1900D02*
X13934D01*
X13870Y1850D02*
X13984D01*
X13870Y1417D02*
Y1915D01*
X12824Y2574D02*
X13550Y1848D01*
Y1424D02*
Y1848D01*
X12842Y1800D02*
X13550D01*
X13870Y1750D02*
X14084D01*
X13870Y1800D02*
X14034D01*
X13870Y1650D02*
X14184D01*
X13870Y1700D02*
X14134D01*
X12844D02*
X13550D01*
X12843Y1750D02*
X13550D01*
X12845Y1650D02*
X13550D01*
X12838Y1950D02*
X13448D01*
X12837Y2000D02*
X13398D01*
X12824Y2574D02*
X12850Y1424D01*
X12511Y2279D02*
X12530Y1417D01*
X12182Y1950D02*
X12518D01*
X12232Y2000D02*
X12517D01*
X11860Y1628D02*
X12511Y2279D01*
X12839Y1900D02*
X13498D01*
X12132D02*
X12519D01*
X12840Y1850D02*
X13548D01*
X12082D02*
X12520D01*
X11982Y1750D02*
X12523D01*
X12032Y1800D02*
X12521D01*
X11932Y1700D02*
X12524D01*
X11699Y4344D02*
X11779Y4424D01*
X10787Y4550D02*
X11305D01*
X10787Y4500D02*
X11269D01*
X11712Y3750D02*
X11813D01*
X11456D02*
X11557D01*
X10787Y4150D02*
X11404D01*
X10787Y4200D02*
X11310D01*
X10787Y4450D02*
X11246D01*
X10787Y4400D02*
X11234D01*
X10787Y4350D02*
X11233D01*
X10787Y3930D02*
Y4550D01*
X10213Y4570D02*
Y5190D01*
Y3930D02*
Y4550D01*
X10787Y4250D02*
X11268D01*
X10787Y4300D02*
X11244D01*
X10213Y3930D02*
X10787D01*
X9664Y3400D02*
X11160D01*
Y3172D02*
Y3546D01*
X11196Y2896D02*
Y3051D01*
X9664Y3050D02*
X11196D01*
X9664Y3200D02*
X11160D01*
X9664Y3250D02*
X11160D01*
X9664Y3100D02*
X11172D01*
X9664Y3150D02*
X11161D01*
X11498Y1650D02*
X11540D01*
X10340Y2040D02*
X11196Y2896D01*
X11088Y1240D02*
X11540Y1692D01*
Y1420D02*
Y1692D01*
X9664Y2950D02*
X11196D01*
X9664Y3000D02*
X11196D01*
X9664Y2900D02*
X11196D01*
X9664Y3300D02*
X11160D01*
X9664Y3350D02*
X11160D01*
X9664Y2850D02*
X11150D01*
X9664Y2473D02*
Y3441D01*
Y2650D02*
X10950D01*
X9664Y2600D02*
X10900D01*
X9664Y2550D02*
X10850D01*
X9664Y2500D02*
X10800D01*
X9664Y2800D02*
X11100D01*
X9664Y2750D02*
X11050D01*
X9664Y2700D02*
X11000D01*
X12847Y1550D02*
X13550D01*
X12846Y1600D02*
X13550D01*
X12849Y1450D02*
X13550D01*
X12848Y1500D02*
X13550D01*
X11860Y1550D02*
X12527D01*
X11860Y1600D02*
X12526D01*
X11860Y1450D02*
X12529D01*
X11860Y1500D02*
X12528D01*
X13081Y1250D02*
X13319D01*
X13112Y1200D02*
X13288D01*
X13134Y1150D02*
X13266D01*
X13150Y1100D02*
X13250D01*
X12907Y1400D02*
X13493D01*
X12987Y1350D02*
X13413D01*
X13041Y1300D02*
X13359D01*
X11882Y1650D02*
X12525D01*
X11448Y1600D02*
X11540D01*
X11907Y1400D02*
X12493D01*
X11860Y1420D02*
Y1628D01*
X11348Y1500D02*
X11540D01*
X11398Y1550D02*
X11540D01*
X11298Y1450D02*
X11540D01*
X11248Y1400D02*
X11493D01*
X12081Y1250D02*
X12319D01*
X12112Y1200D02*
X12288D01*
X12134Y1150D02*
X12266D01*
X12150Y1100D02*
X12250D01*
X11987Y1350D02*
X12413D01*
X11198D02*
X11413D01*
X12041Y1300D02*
X12359D01*
X13164Y1000D02*
X13236D01*
X13163Y950D02*
X13237D01*
X13160Y1050D02*
X13240D01*
X13157Y900D02*
X13243D01*
X13127Y800D02*
X13273D01*
X13145Y850D02*
X13255D01*
X13068Y700D02*
X13332D01*
X13101Y750D02*
X13299D01*
X12961Y600D02*
X13439D01*
X13023Y650D02*
X13377D01*
X12865Y550D02*
X13535D01*
X12160Y1050D02*
X12240D01*
X12164Y1000D02*
X12236D01*
X12157Y900D02*
X12243D01*
X12163Y950D02*
X12237D01*
X11164Y1000D02*
X11236D01*
X12127Y800D02*
X12273D01*
X12145Y850D02*
X12255D01*
X12068Y700D02*
X12332D01*
X12101Y750D02*
X12299D01*
X11961Y600D02*
X12439D01*
X12023Y650D02*
X12377D01*
X11865Y550D02*
X12535D01*
X10311Y1369D02*
X10439D01*
X10292Y1350D02*
X10413D01*
X11148Y1300D02*
X11359D01*
X11098Y1250D02*
X11319D01*
X10242Y1300D02*
X10359D01*
X10192Y1250D02*
X10319D01*
X10122Y1180D02*
X10311Y1369D01*
X10142Y1200D02*
X10288D01*
X11112D02*
X11288D01*
X11134Y1150D02*
X11266D01*
X11150Y1100D02*
X11250D01*
X11160Y1050D02*
X11240D01*
X10134Y1150D02*
X10266D01*
X10150Y1100D02*
X10250D01*
X10160Y1050D02*
X10240D01*
X9470Y1528D02*
X10017D01*
X9442Y1500D02*
X9989D01*
X9895Y1406D02*
X10017Y1528D01*
X9392Y1450D02*
X9939D01*
X9342Y1400D02*
X9493D01*
X9292Y1350D02*
X9413D01*
X9122Y1180D02*
X9470Y1528D01*
X9242Y1300D02*
X9359D01*
X9192Y1250D02*
X9319D01*
X9160Y1050D02*
X9240D01*
X9164Y1000D02*
X9236D01*
X9142Y1200D02*
X9288D01*
X9134Y1150D02*
X9266D01*
X9150Y1100D02*
X9250D01*
X11157Y900D02*
X11243D01*
X11163Y950D02*
X11237D01*
X11127Y800D02*
X11273D01*
X11145Y850D02*
X11255D01*
X11101Y750D02*
X11299D01*
X10068Y700D02*
X10332D01*
X11023Y650D02*
X11377D01*
X11068Y700D02*
X11332D01*
X10865Y550D02*
X11535D01*
X10961Y600D02*
X11439D01*
X9961D02*
X10439D01*
X10023Y650D02*
X10377D01*
X9865Y550D02*
X10535D01*
X10164Y1000D02*
X10236D01*
X10163Y950D02*
X10237D01*
X9163D02*
X9237D01*
X9157Y900D02*
X9243D01*
X10145Y850D02*
X10255D01*
X10157Y900D02*
X10243D01*
X10101Y750D02*
X10299D01*
X10127Y800D02*
X10273D01*
X9127D02*
X9273D01*
X9145Y850D02*
X9255D01*
X9101Y750D02*
X9299D01*
X8865Y8450D02*
X9535D01*
X8961Y8400D02*
X9439D01*
X9023Y8350D02*
X9377D01*
X9068Y8300D02*
X9332D01*
X7865Y8450D02*
X8535D01*
X7961Y8400D02*
X8439D01*
X8023Y8350D02*
X8377D01*
X8068Y8300D02*
X8332D01*
X9101Y8250D02*
X9299D01*
X8145Y8150D02*
X8255D01*
X8150Y7900D02*
X8250D01*
X8157Y8100D02*
X8243D01*
X8101Y8250D02*
X8299D01*
X8127Y8200D02*
X8273D01*
X8134Y7850D02*
X8266D01*
X6055Y8150D02*
X7255D01*
X6055Y8100D02*
X7243D01*
X8163Y8050D02*
X8237D01*
X6055D02*
X7237D01*
X6055Y8400D02*
X7439D01*
X6055Y8350D02*
X7377D01*
X6055Y8300D02*
X7332D01*
X6055Y8200D02*
X7273D01*
X8160Y7950D02*
X8240D01*
X8164Y8000D02*
X8236D01*
X6055Y7800D02*
X7288D01*
X6055Y7900D02*
X7250D01*
X6055Y8000D02*
X7236D01*
X6055Y7850D02*
X7266D01*
X8987Y7650D02*
X9413D01*
X9041Y7700D02*
X9359D01*
X8592Y7350D02*
X10076D01*
X8907Y7600D02*
X9493D01*
X8442Y7500D02*
X9926D01*
X8392Y7550D02*
X9876D01*
X8542Y7400D02*
X10026D01*
X8492Y7450D02*
X9976D01*
X8842Y7100D02*
X11183D01*
X8792Y7150D02*
X10283D01*
X8858Y7084D02*
X11053D01*
X8792Y6764D02*
X10987D01*
X8692Y7250D02*
X10176D01*
X8642Y7300D02*
X10126D01*
X8742Y7200D02*
X10226D01*
X8192Y7750D02*
X8319D01*
X8142Y7800D02*
X8288D01*
X9081Y7750D02*
X9319D01*
X6055D02*
X7319D01*
X8122Y7820D02*
X8858Y7084D01*
X8342Y7600D02*
X8493D01*
X8292Y7650D02*
X8413D01*
X8242Y7700D02*
X8359D01*
X6055D02*
X7359D01*
X7895Y7594D02*
X8679Y6811D01*
X2619Y8650D02*
X17557D01*
X394Y8895D02*
X17323D01*
X2665Y8550D02*
X17557D01*
X2653Y8600D02*
X17557D01*
X205Y8800D02*
X17511D01*
X256Y8850D02*
X17461D01*
X163Y8700D02*
X17553D01*
X177Y8750D02*
X17539D01*
X6055Y8450D02*
X7535D01*
X6055Y8250D02*
X7299D01*
X6055Y7950D02*
X7240D01*
X2665Y8500D02*
X10526D01*
X5345Y8450D02*
X6055D01*
X5345D02*
X6055D01*
X5155Y8250D02*
X5345D01*
X5155Y8300D02*
X5345D01*
X5155Y8200D02*
X5345D01*
X5155Y8400D02*
X5345D01*
X5155Y8450D02*
X5345D01*
X5155Y8350D02*
X5345D01*
X5155Y8000D02*
X5345D01*
X5155Y7900D02*
X5345D01*
X5155Y7950D02*
X5345D01*
X5155Y8100D02*
X5345D01*
X5155Y8150D02*
X5345D01*
X5155Y8050D02*
X5345D01*
X2665Y7100D02*
X8389D01*
X2665Y7150D02*
X8339D01*
X2665Y7000D02*
X8489D01*
X2665Y7050D02*
X8439D01*
X2665Y7300D02*
X8189D01*
X2665Y7350D02*
X8139D01*
X2665Y7200D02*
X8289D01*
X2665Y7250D02*
X8239D01*
X2665Y6750D02*
X11000D01*
X2665Y6800D02*
X8691D01*
X2665Y6650D02*
X11100D01*
X2665Y6700D02*
X11050D01*
X2665Y6900D02*
X8589D01*
X2665Y6950D02*
X8539D01*
X2665Y6850D02*
X8639D01*
X5345Y7690D02*
Y8450D01*
X5155Y7700D02*
X5345D01*
X6055Y7690D02*
Y8450D01*
X5155Y7800D02*
X5345D01*
X5155Y7850D02*
X5345D01*
X5155Y7750D02*
X5345D01*
X2665Y7500D02*
X7989D01*
X5345Y7690D02*
X6055D01*
X2665Y7400D02*
X8089D01*
X2665Y7450D02*
X8039D01*
X2665Y7600D02*
X7493D01*
X2665Y7650D02*
X7413D01*
X2665Y7550D02*
X7939D01*
X8924Y6564D02*
X9656D01*
X8883Y6240D02*
X8924D01*
Y5596D02*
Y5895D01*
Y6240D02*
Y6564D01*
X8879Y5850D02*
X8924D01*
X8779Y5750D02*
X8924D01*
X8829Y5800D02*
X8924D01*
X8679Y5650D02*
X8924D01*
X8729Y5700D02*
X8924D01*
Y5596D02*
X9656D01*
X8629Y5600D02*
X8924D01*
X8529Y5500D02*
X11160D01*
X8579Y5550D02*
X11160D01*
X8479Y5450D02*
X11164D01*
X8057Y5850D02*
X8426D01*
X8057Y5481D02*
X8769Y6193D01*
X8057Y5481D02*
Y5875D01*
X7483D02*
X8057D01*
X6283Y5800D02*
X7483D01*
Y5634D02*
Y5875D01*
X8057Y5700D02*
X8276D01*
X8057Y5650D02*
X8226D01*
X8057Y5600D02*
X8176D01*
X8057Y5550D02*
X8126D01*
X8057Y5800D02*
X8376D01*
X8057Y5750D02*
X8326D01*
X8379Y5350D02*
X11214D01*
X8429Y5400D02*
X11181D01*
X8279Y5250D02*
X11429D01*
X8329Y5300D02*
X11279D01*
X8229Y5200D02*
X11429D01*
X8079Y5050D02*
X10213D01*
X8057Y4950D02*
X10213D01*
X8057Y5000D02*
X10213D01*
X8057Y4750D02*
X10213D01*
X8057Y4800D02*
X10213D01*
X8057Y4650D02*
X10213D01*
X8057Y4700D02*
X10213D01*
X8057Y4850D02*
X10213D01*
X8057Y4900D02*
X10213D01*
X7930Y4600D02*
X10213D01*
X8179Y5150D02*
X10213D01*
X8129Y5100D02*
X10213D01*
X8057Y5029D02*
X8924Y5895D01*
X6563Y5100D02*
X7137D01*
X6563Y5100D02*
X7137D01*
X7930Y4615D02*
X8057D01*
X7527D02*
X7610D01*
X8057D02*
Y5029D01*
X7527Y4600D02*
X7610D01*
X6320Y4645D02*
X6360D01*
X6469Y4600D02*
X6563D01*
X5563Y6350D02*
X8924D01*
X2665Y6400D02*
X8924D01*
X6283Y6250D02*
X8924D01*
X6283Y6300D02*
X8924D01*
X2665Y6600D02*
X11150D01*
X2665Y6550D02*
X8924D01*
X2665Y6450D02*
X8924D01*
X2665Y6500D02*
X8924D01*
X6283Y6050D02*
X8626D01*
X6283Y6000D02*
X8576D01*
X6283Y5950D02*
X8526D01*
X6283Y5900D02*
X8476D01*
X6283Y6200D02*
X8777D01*
X6283Y6150D02*
X8726D01*
X6283Y6100D02*
X8676D01*
X5335Y6350D02*
X5563D01*
X5347Y6353D02*
X5550D01*
X5601Y6342D02*
X5644Y6314D01*
X5550Y6353D02*
X5601Y6342D01*
X5297D02*
X5347Y6353D01*
X4825Y6350D02*
X5335D01*
X5254Y6314D02*
X5297Y6342D01*
X5688Y6314D02*
X6283D01*
X5672Y6271D02*
X5683Y6220D01*
X6283Y5750D02*
X7483D01*
X6283Y5850D02*
X7483D01*
X5653Y6300D02*
X5688D01*
X4906Y6314D02*
X5254D01*
X5644Y6314D02*
X5672Y6271D01*
X6283Y5450D02*
X7132D01*
X6283Y5500D02*
X7131D01*
X6283Y5350D02*
X7161D01*
X6283Y5400D02*
X7146D01*
X6283Y5700D02*
X7483D01*
X6283Y5650D02*
X7217D01*
X6283Y5600D02*
X7168D01*
X6283Y5550D02*
X7142D01*
X6283Y5300D02*
X7161D01*
X5683Y4750D02*
X6563D01*
X5683Y4650D02*
X6563D01*
X5683Y4700D02*
X6563D01*
X5683Y5200D02*
X7162D01*
X5683Y5250D02*
X7162D01*
X5683Y5150D02*
X7163D01*
X6283Y5266D02*
Y6314D01*
X5688Y5266D02*
X6283D01*
X5688D02*
Y6314D01*
X5683Y5100D02*
X6563D01*
X5683Y4850D02*
X6563D01*
X5683Y4900D02*
X6563D01*
X5683Y4800D02*
X6563D01*
X5683Y4600D02*
X6211D01*
X5683Y5000D02*
X6563D01*
X5683Y5050D02*
X6563D01*
X5683Y4950D02*
X6563D01*
X4445Y8450D02*
X5155D01*
X4445D02*
X5155D01*
X4445Y8230D02*
Y8450D01*
X4200Y8230D02*
Y8357D01*
X2665Y8400D02*
X4445D01*
X2665Y8450D02*
X4445D01*
X3580Y8357D02*
X4200D01*
X2940D02*
X3560D01*
X4200Y8230D02*
X4445D01*
X4200Y8250D02*
X4445D01*
X4200Y7900D02*
X4445D01*
X4200Y7910D02*
X4445D01*
X4200Y8300D02*
X4445D01*
X4200Y8350D02*
X4445D01*
X2860Y7865D02*
X2940D01*
X2665Y8350D02*
X2940D01*
Y8275D02*
Y8357D01*
X2665Y8179D02*
Y8540D01*
X1885Y8695D02*
X2510D01*
X2665Y7900D02*
X2742D01*
X2665Y8300D02*
X2940D01*
X2665Y8250D02*
X2727D01*
X4445Y7690D02*
X5155D01*
X4445D02*
Y7910D01*
X5155Y7690D02*
Y8450D01*
X4639Y6342D02*
X4690Y6353D01*
X4200Y7800D02*
X4445D01*
X4200Y7850D02*
X4445D01*
X2665Y7700D02*
X4445D01*
X2665Y7750D02*
X4445D01*
X4677Y6350D02*
X4825D01*
X4690Y6353D02*
X4813D01*
X4863Y6342D02*
X4906Y6314D01*
X4813Y6353D02*
X4863Y6342D01*
X2665Y6350D02*
X4677D01*
X4596Y6314D02*
X4639Y6342D01*
X4568Y6271D02*
X4596Y6314D01*
X2940Y7783D02*
X3560D01*
X2940D02*
Y7865D01*
X4200Y7783D02*
Y7910D01*
X3580Y7783D02*
X4200D01*
X2665Y7800D02*
X2940D01*
X2665Y7850D02*
X2940D01*
X2665Y6305D02*
Y7981D01*
X2046Y7365D02*
X2048Y5590D01*
X1885Y7365D02*
X2046D01*
X1664Y6400D02*
X2047D01*
X1664Y6450D02*
X2047D01*
X1664Y6350D02*
X2047D01*
X580Y8660D02*
X1787D01*
X160Y7800D02*
X580D01*
X160Y7700D02*
X580D01*
X160Y7750D02*
X580D01*
X160Y7950D02*
X580D01*
X160Y8000D02*
X580D01*
X160Y7850D02*
X580D01*
X160Y7900D02*
X580D01*
X160Y7450D02*
X580D01*
X160Y7500D02*
X580D01*
Y7400D02*
X1787D01*
X160D02*
X580D01*
X160Y7600D02*
X580D01*
X160Y7650D02*
X580D01*
X160Y7550D02*
X580D01*
X160Y8500D02*
X580D01*
X160Y8550D02*
X580D01*
X160Y8400D02*
X580D01*
X160Y8450D02*
X580D01*
X160Y8650D02*
X580D01*
X160Y8600D02*
X580D01*
X160Y8150D02*
X580D01*
X160Y8200D02*
X580D01*
X160Y8050D02*
X580D01*
X160Y8100D02*
X580D01*
X160Y8300D02*
X580D01*
X160Y8350D02*
X580D01*
X160Y8250D02*
X580D01*
X160Y6950D02*
X2047D01*
X160Y7000D02*
X2046D01*
X160Y6850D02*
X2047D01*
X160Y6900D02*
X2047D01*
X160Y7150D02*
X2046D01*
X160Y7200D02*
X2046D01*
X160Y7050D02*
X2046D01*
X160Y7100D02*
X2046D01*
X1664Y6600D02*
X2047D01*
X160Y6650D02*
X2047D01*
X1664Y6500D02*
X2047D01*
X1664Y6550D02*
X2047D01*
X160Y6750D02*
X2047D01*
X160Y6800D02*
X2047D01*
X160Y6700D02*
X2047D01*
X580Y7400D02*
X1787D01*
X580D02*
Y8660D01*
X656Y6607D02*
X1664D01*
X656Y5638D02*
Y6607D01*
X160Y7300D02*
X2046D01*
X160Y7350D02*
X2046D01*
X160Y7250D02*
X2046D01*
X160Y6400D02*
X656D01*
X160Y6450D02*
X656D01*
X1664Y5638D02*
Y6607D01*
X160Y6350D02*
X656D01*
X160Y6550D02*
X656D01*
X160Y6600D02*
X656D01*
X160Y6500D02*
X656D01*
X4557Y6220D02*
X4568Y6271D01*
X4472Y5750D02*
X4557D01*
X4472Y5650D02*
X4557D01*
X4472Y5700D02*
X4557D01*
X4472Y6300D02*
X4587D01*
X4472Y6250D02*
X4563D01*
X4472Y5800D02*
X4557D01*
X4472Y5850D02*
X4557D01*
X4472Y5400D02*
X4557D01*
X4472Y5450D02*
X4557D01*
X4472Y5300D02*
X4557D01*
X4472Y5350D02*
X4557D01*
X4472Y5550D02*
X4557D01*
X4472Y5600D02*
X4557D01*
X4472Y5500D02*
X4557D01*
X4472Y6100D02*
X4557D01*
X4472Y6150D02*
X4557D01*
X4472Y6000D02*
X4557D01*
X4472Y6050D02*
X4557D01*
X3877Y6314D02*
X4472D01*
X2665Y6305D02*
X3877D01*
X4472Y6200D02*
X4557D01*
X4472Y5303D02*
Y6314D01*
Y5900D02*
X4557D01*
X4472Y5950D02*
X4557D01*
X1664Y5300D02*
X1751D01*
X1664Y5350D02*
X1749D01*
X1664Y5650D02*
X2048D01*
X1664Y5900D02*
X2048D01*
X1664Y5400D02*
X1757D01*
X4475Y5050D02*
X4557D01*
X4475Y5100D02*
X4557D01*
X4475Y4950D02*
X4557D01*
X4475Y5000D02*
X4557D01*
X4475Y5200D02*
X4557D01*
X4475Y5250D02*
X4557D01*
X4475Y5150D02*
X4557D01*
X4475Y4650D02*
Y5271D01*
Y4750D02*
X4557D01*
X4475Y4800D02*
X4557D01*
X4475Y4650D02*
X4557D01*
X4475Y4700D02*
X4557D01*
X4475Y4850D02*
X4557D01*
X4475Y4900D02*
X4557D01*
X4467Y4600D02*
X4557D01*
X1798Y5012D02*
Y5183D01*
X1664Y5200D02*
X1787D01*
X1664Y5250D02*
X1763D01*
X1664Y5150D02*
X1798D01*
Y4851D02*
Y5012D01*
X1664Y4950D02*
X1798D01*
Y4756D02*
Y4851D01*
Y5012D01*
X1664Y5050D02*
X1798D01*
X1664Y5100D02*
X1798D01*
X1664Y5000D02*
X1798D01*
X1664Y6050D02*
X2047D01*
X1664Y6100D02*
X2047D01*
X1664Y5950D02*
X2047D01*
X1664Y6000D02*
X2047D01*
X1664Y6250D02*
X2047D01*
X1664Y6300D02*
X2047D01*
X1664Y6150D02*
X2047D01*
X1664Y6200D02*
X2047D01*
X1664Y5800D02*
X2048D01*
X1664Y5850D02*
X2048D01*
X1664Y5700D02*
X2048D01*
X1664Y5750D02*
X2048D01*
X160Y5600D02*
X2048D01*
X656Y5638D02*
X1664D01*
X160Y5550D02*
X1864D01*
X160Y6100D02*
X656D01*
X160Y6150D02*
X656D01*
X160Y6000D02*
X656D01*
X160Y6050D02*
X656D01*
X160Y6250D02*
X656D01*
X160Y6300D02*
X656D01*
X160Y6200D02*
X656D01*
X160Y5750D02*
X656D01*
X160Y5800D02*
X656D01*
X160Y5650D02*
X656D01*
X160Y5700D02*
X656D01*
X160Y5900D02*
X656D01*
X160Y5950D02*
X656D01*
X160Y5850D02*
X656D01*
X1664Y4900D02*
X1798D01*
X1664Y5450D02*
X1776D01*
X1664Y4800D02*
X1798D01*
X1664Y4850D02*
X1798D01*
X1664Y5500D02*
X1808D01*
X656Y5504D02*
X1664D01*
X160Y4750D02*
X656D01*
X160Y4800D02*
X656D01*
X1664Y4700D02*
X1798D01*
X1664Y4750D02*
X1798D01*
X1664Y4600D02*
X1798D01*
X1664Y4650D02*
X1798D01*
X160D02*
X656D01*
X160Y4700D02*
X656D01*
X160Y4600D02*
X656D01*
X160Y5300D02*
X656D01*
X160Y5350D02*
X656D01*
X160Y5200D02*
X656D01*
X160Y5250D02*
X656D01*
X160Y5450D02*
X656D01*
X160Y5500D02*
X656D01*
X160Y5400D02*
X656D01*
X160Y4950D02*
X656D01*
X160Y5000D02*
X656D01*
X160Y4850D02*
X656D01*
X160Y4900D02*
X656D01*
X160Y5100D02*
X656D01*
X160Y5150D02*
X656D01*
X160Y5050D02*
X656D01*
X8047Y4050D02*
X10213D01*
X8047Y4100D02*
X10213D01*
X8047Y3950D02*
X10213D01*
X8047Y4000D02*
X10213D01*
X8047Y4250D02*
X10213D01*
X8047Y4300D02*
X10213D01*
X8047Y4150D02*
X10213D01*
X8047Y4200D02*
X10213D01*
X8047Y3750D02*
X11301D01*
X8047Y3700D02*
X11224D01*
X8047Y3650D02*
X11186D01*
X8047Y3600D02*
X11167D01*
X8047Y3900D02*
X14919D01*
X8047Y3850D02*
X13250D01*
X8047Y3800D02*
X13198D01*
X7930Y4500D02*
X10213D01*
X7930Y4550D02*
X10213D01*
X7930Y4415D02*
Y4615D01*
X7610Y4415D02*
Y4615D01*
X7528Y4500D02*
X7610D01*
X7527Y4550D02*
X7610D01*
X7528Y4450D02*
X7610D01*
X7527Y4615D02*
X7528Y4415D01*
X8047Y4350D02*
X10213D01*
X8047Y4400D02*
X10213D01*
X8047Y3795D02*
Y3935D01*
Y4415D01*
X7930Y4450D02*
X10213D01*
X7528Y4415D02*
X7610D01*
X7930D02*
X8047D01*
X8932Y3441D02*
X9664D01*
X8083Y3050D02*
X8932D01*
Y2473D02*
Y3441D01*
X8047Y3550D02*
X11160D01*
X8047Y3500D02*
X11160D01*
X8047Y3450D02*
X11160D01*
X8083Y3100D02*
X8932D01*
X8083Y2900D02*
X8932D01*
X8083Y2950D02*
X8932D01*
Y2473D02*
X9664D01*
X8083Y2850D02*
X8932D01*
X8073Y2800D02*
X8932D01*
X8083Y3000D02*
X8932D01*
X8034Y2750D02*
X8932D01*
X8063Y3250D02*
X8932D01*
X8047Y3300D02*
X8932D01*
X8072Y3236D02*
X8083Y3185D01*
X8047Y3273D02*
X8072Y3236D01*
X8047Y3350D02*
X8932D01*
X8047Y3400D02*
X8932D01*
X8047Y3273D02*
Y3775D01*
X8083Y3150D02*
X8932D01*
X8080Y3200D02*
X8932D01*
X8072Y2799D02*
X8083Y2850D01*
Y3185D01*
X8044Y2756D02*
X8072Y2799D01*
X8001Y2728D02*
X8044Y2756D01*
X7950Y2717D02*
X8001Y2728D01*
X6563Y4483D02*
Y5100D01*
X7161Y5370D02*
X7168Y4483D01*
X7137D02*
Y5100D01*
X5683Y4550D02*
X6177D01*
X7137Y4500D02*
X7168D01*
X6563Y4483D02*
X6593D01*
X7137D02*
X7168D01*
X7107D02*
X7137D01*
X6514Y4500D02*
X6563D01*
X6502Y4550D02*
X6563D01*
X6514Y4483D02*
X6563D01*
X5683Y4300D02*
X6165D01*
X5683Y4350D02*
X6165D01*
X5683Y4200D02*
X6165D01*
X5683Y4250D02*
X6165D01*
X5683Y4500D02*
X6165D01*
X5683Y4450D02*
X6165D01*
X5683Y4400D02*
X6165D01*
X5683Y3950D02*
X6165D01*
X5683Y4000D02*
X6165D01*
X5810Y3863D02*
X6165D01*
X5683Y3900D02*
X6165D01*
X5683Y4100D02*
X6165D01*
X5683Y4150D02*
X6165D01*
X5683Y4050D02*
X6165D01*
Y3863D02*
Y4490D01*
X5840Y2717D02*
X6027D01*
X6519Y2700D02*
X8932D01*
X6536Y2717D02*
X7950D01*
X1664Y2700D02*
X6009D01*
X1664Y2650D02*
X5959D01*
X5167Y1349D02*
X6536Y2717D01*
X4965Y1656D02*
X6027Y2717D01*
X6419Y2600D02*
X8932D01*
X6469Y2650D02*
X8932D01*
X6319Y2500D02*
X8932D01*
X6369Y2550D02*
X8932D01*
X6269Y2450D02*
X10750D01*
X6219Y2400D02*
X10700D01*
X6169Y2350D02*
X10650D01*
X5759Y3852D02*
X5810Y3863D01*
X5716Y3824D02*
X5759Y3852D01*
X5810Y2717D02*
X5840D01*
X5687Y3781D02*
X5716Y3824D01*
X5683Y3850D02*
X5756D01*
X4557Y3764D02*
Y6220D01*
X5683Y3764D02*
Y6220D01*
X1664Y2600D02*
X5909D01*
X4320Y2716D02*
X5840D01*
X1664Y2550D02*
X5859D01*
X1664Y2500D02*
X5809D01*
X160Y2450D02*
X5759D01*
X160Y2400D02*
X5709D01*
X160Y2350D02*
X5659D01*
X6119Y2300D02*
X10600D01*
X6069Y2250D02*
X10550D01*
X8596Y2040D02*
X10340D01*
X8662Y1720D02*
X9209D01*
X6019Y2200D02*
X10500D01*
X5969Y2150D02*
X10450D01*
X5919Y2100D02*
X10400D01*
X5869Y2050D02*
X10350D01*
X8642Y1700D02*
X9189D01*
X8592Y1650D02*
X9139D01*
X8895Y1406D02*
X9209Y1720D01*
X8542Y1600D02*
X9089D01*
X8492Y1550D02*
X9039D01*
X8442Y1500D02*
X8989D01*
X8392Y1450D02*
X8939D01*
X8342Y1400D02*
X8493D01*
X8292Y1350D02*
X8413D01*
X5819Y2000D02*
X8490D01*
X7895Y1406D02*
X8482Y1993D01*
X8122Y1180D02*
X8662Y1720D01*
X6035Y1350D02*
X7413D01*
X8242Y1300D02*
X8359D01*
X8192Y1250D02*
X8319D01*
X8142Y1200D02*
X8288D01*
X8134Y1150D02*
X8266D01*
X6035Y1300D02*
X7359D01*
X6035Y1250D02*
X7319D01*
X6035Y1200D02*
X7288D01*
X8150Y1100D02*
X8250D01*
X8160Y1050D02*
X8240D01*
X8157Y900D02*
X8243D01*
X8127Y800D02*
X8273D01*
X8145Y850D02*
X8255D01*
X8068Y700D02*
X8332D01*
X8101Y750D02*
X8299D01*
X9023Y650D02*
X9377D01*
X9068Y700D02*
X9332D01*
X8865Y550D02*
X9535D01*
X8961Y600D02*
X9439D01*
X7961D02*
X8439D01*
X8023Y650D02*
X8377D01*
X7865Y550D02*
X8535D01*
X8164Y1000D02*
X8236D01*
X6035Y1150D02*
X7266D01*
X6035Y1144D02*
Y1370D01*
Y1144D02*
X7264D01*
X8163Y950D02*
X8237D01*
X6035Y750D02*
X7299D01*
X6035Y650D02*
X7377D01*
X6035Y700D02*
X7332D01*
X6035Y800D02*
X7273D01*
X6035Y824D02*
X7264D01*
X6035Y610D02*
Y824D01*
X5769Y1950D02*
X8439D01*
X5719Y1900D02*
X8389D01*
X5669Y1850D02*
X8339D01*
X5619Y1800D02*
X8289D01*
X160Y2300D02*
X5609D01*
X160Y2250D02*
X5559D01*
X5569Y1750D02*
X8239D01*
X5519Y1700D02*
X8189D01*
X5469Y1650D02*
X8139D01*
X5419Y1600D02*
X8089D01*
X5369Y1550D02*
X8039D01*
X5325Y1370D02*
X6035D01*
X5319Y1500D02*
X7989D01*
X5269Y1450D02*
X7939D01*
X5219Y1400D02*
X7493D01*
X160Y2050D02*
X5359D01*
X160Y2000D02*
X5309D01*
X160Y1950D02*
X5259D01*
X160Y1900D02*
X5209D01*
X160Y2200D02*
X5509D01*
X160Y2150D02*
X5459D01*
X160Y2100D02*
X5409D01*
X160Y1700D02*
X5009D01*
X3768Y1656D02*
X4965D01*
X5169Y1350D02*
X5325D01*
X160Y1850D02*
X5159D01*
X160Y1800D02*
X5109D01*
X160Y1750D02*
X5059D01*
X5135Y650D02*
X5325D01*
X5135Y700D02*
X5325D01*
Y610D02*
X6035D01*
X5325D02*
Y1370D01*
X1870Y600D02*
X7439D01*
X5135Y750D02*
X5325D01*
X1870Y500D02*
X17557D01*
X1870Y550D02*
X7535D01*
X1870Y400D02*
X17557D01*
X1870Y450D02*
X17557D01*
X1870Y350D02*
X17552D01*
X1870Y300D02*
X17537D01*
X209Y250D02*
X17507D01*
X263Y200D02*
X17454D01*
X394Y160D02*
X17323D01*
X5135Y1200D02*
X5325D01*
X5135Y1250D02*
X5325D01*
X5135Y1100D02*
X5325D01*
X5135Y1150D02*
X5325D01*
X5135Y1300D02*
X5325D01*
X5135Y610D02*
Y1323D01*
Y900D02*
X5325D01*
X5135Y950D02*
X5325D01*
X5135Y800D02*
X5325D01*
X5135Y850D02*
X5325D01*
X5135Y1000D02*
X5325D01*
X5135Y1050D02*
X5325D01*
X4425Y610D02*
X5135D01*
X4359Y4500D02*
X4557D01*
X4438Y4550D02*
X4557D01*
X3507Y4495D02*
X4320D01*
X3507Y4400D02*
X4557D01*
X3507Y4450D02*
X4557D01*
X3507Y4200D02*
X4557D01*
X3507Y4250D02*
X4557D01*
X3507Y4100D02*
X4557D01*
X3507Y4150D02*
X4557D01*
X3507Y4300D02*
X4557D01*
X3507Y4350D02*
X4557D01*
X2609Y4400D02*
X2933D01*
X2609Y4450D02*
X2933D01*
X2609Y4495D02*
X2933D01*
X2609Y4339D02*
Y4495D01*
Y4339D02*
Y4495D01*
Y4200D02*
X2933D01*
X2609Y4250D02*
X2933D01*
X2609Y4150D02*
X2933D01*
X2609Y4300D02*
X2933D01*
X2609Y4350D02*
X2933D01*
X2609Y4244D02*
Y4339D01*
X3507Y4000D02*
X4557D01*
X3507Y4050D02*
X4557D01*
X3507Y3900D02*
X4557D01*
X3507Y3950D02*
X4557D01*
X3507Y3880D02*
Y4495D01*
X2933Y3880D02*
X3507D01*
X2261Y3800D02*
X4557D01*
X2609Y3850D02*
X4557D01*
X4320Y3764D02*
X4557D01*
X2264Y3750D02*
X4320D01*
Y2716D02*
Y3764D01*
X2257Y3700D02*
X4320D01*
X2209Y3600D02*
X4320D01*
X2240Y3650D02*
X4320D01*
X2156Y3550D02*
X4320D01*
X2609Y4100D02*
X2933D01*
X2609Y4083D02*
Y4244D01*
X2933Y3880D02*
Y4495D01*
X2609Y4083D02*
Y4244D01*
X1798Y4083D02*
Y4244D01*
Y3912D02*
Y4083D01*
X2609Y4000D02*
X2933D01*
X2609Y4050D02*
X2933D01*
X2609Y3900D02*
X2933D01*
X2609Y3950D02*
X2933D01*
X2609Y3827D02*
Y4083D01*
X2256Y3827D02*
X2609D01*
X1664Y4350D02*
X1798D01*
Y4500D02*
Y4595D01*
Y4339D02*
Y4500D01*
Y4339D02*
Y4500D01*
X1664Y4500D02*
X1798D01*
X1664Y4550D02*
X1798D01*
X1664Y4400D02*
X1798D01*
X1664Y4450D02*
X1798D01*
X1664Y4150D02*
X1798D01*
Y4244D02*
Y4339D01*
Y4083D02*
Y4244D01*
X1664Y4100D02*
X1798D01*
X1664Y4250D02*
X1798D01*
X1664Y4300D02*
X1798D01*
X1664Y4200D02*
X1798D01*
Y4595D02*
Y4756D01*
Y4595D02*
Y4756D01*
X1664Y4559D02*
Y5504D01*
X656Y4559D02*
Y5504D01*
X160Y4500D02*
X656D01*
X160Y4550D02*
X656D01*
X160Y4450D02*
X656D01*
X160Y4200D02*
X656D01*
X160Y4250D02*
X656D01*
X160Y4100D02*
X656D01*
X160Y4150D02*
X656D01*
X160Y4350D02*
X656D01*
X160Y4400D02*
X656D01*
X160Y4300D02*
X656D01*
X1664Y3850D02*
X1765D01*
X1664Y3800D02*
X1752D01*
X1664Y3750D02*
X1749D01*
X1664Y4000D02*
X1798D01*
X1664Y4050D02*
X1798D01*
X1664Y3950D02*
X1798D01*
X1664Y3900D02*
X1790D01*
X1664Y3650D02*
X1773D01*
X1664Y3700D02*
X1756D01*
X1664Y3600D02*
X1804D01*
X1664Y2488D02*
Y3457D01*
X160Y3550D02*
X1857D01*
X656Y3591D02*
X1664D01*
X160Y3500D02*
X4320D01*
X160Y3900D02*
X656D01*
X160Y3950D02*
X656D01*
X1664Y3591D02*
Y4536D01*
X656Y3591D02*
Y4536D01*
X160Y4000D02*
X656D01*
X160Y4050D02*
X656D01*
X160Y394D02*
Y8661D01*
Y3650D02*
X656D01*
X160Y3700D02*
X656D01*
Y2488D02*
Y3457D01*
X160Y3600D02*
X656D01*
X160Y3800D02*
X656D01*
X160Y3850D02*
X656D01*
X160Y3750D02*
X656D01*
X1664Y3150D02*
X4320D01*
X1664Y3200D02*
X4320D01*
X1664Y3050D02*
X4320D01*
X1664Y3100D02*
X4320D01*
X1664Y3350D02*
X4320D01*
X1664Y3400D02*
X4320D01*
X1664Y3250D02*
X4320D01*
X1664Y3300D02*
X4320D01*
X1664Y2800D02*
X4320D01*
X1664Y2850D02*
X4320D01*
X3843Y1296D02*
X4425D01*
X1664Y2750D02*
X4320D01*
X1664Y2950D02*
X4320D01*
X1664Y3000D02*
X4320D01*
X1664Y2900D02*
X4320D01*
X3315Y1277D02*
X3641Y1603D01*
X1870Y1500D02*
X3538D01*
X1664Y3450D02*
X4320D01*
X1870Y1650D02*
X3723D01*
X1870Y1600D02*
X3638D01*
X1870Y1550D02*
X3588D01*
X1870Y1300D02*
X3338D01*
X2930Y1277D02*
X3315D01*
X3824D02*
X4190D01*
X1870Y1250D02*
X2930D01*
X1870Y1450D02*
X3488D01*
X1870Y1400D02*
X3438D01*
X1870Y1350D02*
X3388D01*
X4190Y1050D02*
X4425D01*
X4190Y1100D02*
X4425D01*
Y1023D02*
Y1296D01*
X4190Y1023D02*
X4425D01*
X4190Y1200D02*
X4425D01*
X4190Y1250D02*
X4425D01*
X4190Y1150D02*
X4425D01*
X4190Y1023D02*
Y1277D01*
X3998Y703D02*
X4190D01*
X3998D02*
X4190D01*
X4425Y610D02*
Y703D01*
X4190D02*
X4425D01*
X1870Y700D02*
X4425D01*
X3570Y703D02*
X3998D01*
X1870Y650D02*
X4425D01*
X1870Y1100D02*
X2930D01*
X1870Y1150D02*
X2930D01*
Y703D02*
Y1277D01*
X1870Y1050D02*
X2930D01*
X1870Y1200D02*
X2930D01*
X1870Y290D02*
Y1650D01*
Y800D02*
X2930D01*
X1870Y850D02*
X2930D01*
Y703D02*
X3550D01*
X1870Y750D02*
X2930D01*
X1870Y950D02*
X2930D01*
X1870Y1000D02*
X2930D01*
X1870Y900D02*
X2930D01*
X656Y3457D02*
X1664D01*
X160Y2800D02*
X656D01*
X160Y2700D02*
X656D01*
X160Y2750D02*
X656D01*
X160Y2950D02*
X656D01*
X160Y3000D02*
X656D01*
X160Y2850D02*
X656D01*
X160Y2900D02*
X656D01*
Y2488D02*
X1664D01*
X160Y2500D02*
X656D01*
X510Y1650D02*
X1870D01*
X510D02*
X1870D01*
X160Y2600D02*
X656D01*
X160Y2650D02*
X656D01*
X160Y2550D02*
X656D01*
X160Y3250D02*
X656D01*
X160Y3300D02*
X656D01*
X160Y3150D02*
X656D01*
X160Y3200D02*
X656D01*
X160Y3400D02*
X656D01*
X160Y3450D02*
X656D01*
X160Y3350D02*
X656D01*
X160Y1550D02*
X510D01*
X160Y1600D02*
X510D01*
X160Y1450D02*
X510D01*
X160Y1500D02*
X510D01*
X160Y3050D02*
X656D01*
X160Y3100D02*
X656D01*
X160Y1650D02*
X510D01*
Y290D02*
Y1650D01*
X160Y700D02*
X510D01*
X160Y750D02*
X510D01*
X160Y600D02*
X510D01*
X160Y650D02*
X510D01*
X164Y350D02*
X510D01*
X160Y400D02*
X510D01*
Y290D02*
X1870D01*
X180Y300D02*
X510D01*
X160Y500D02*
X510D01*
X160Y550D02*
X510D01*
X160Y450D02*
X510D01*
X160Y1200D02*
X510D01*
X160Y1250D02*
X510D01*
X160Y1100D02*
X510D01*
X160Y1150D02*
X510D01*
X160Y1350D02*
X510D01*
X160Y1400D02*
X510D01*
X160Y1300D02*
X510D01*
X160Y900D02*
X510D01*
X160Y950D02*
X510D01*
X160Y800D02*
X510D01*
X160Y850D02*
X510D01*
X160Y1000D02*
X510D01*
X160Y1050D02*
X510D01*
X11700Y1694D02*
X12402Y2396D01*
X12910Y5677D02*
Y6632D01*
X12914Y5248D02*
Y5681D01*
X4653Y863D02*
X4780Y990D01*
X3998Y863D02*
X4653D01*
X3870Y990D02*
X3998Y863D01*
X5680Y990D02*
X5686Y984D01*
X7700D01*
X11700Y7530D02*
Y8016D01*
X12400Y5687D02*
Y6830D01*
X11700Y7530D02*
X12400Y6830D01*
X13756Y3724D02*
X14969D01*
X16270Y5025D02*
X16770D01*
X14969Y3724D02*
X16270Y5025D01*
X13170Y2891D02*
Y3546D01*
X13348Y3724D02*
X13756D01*
X13170Y3546D02*
X13348Y3724D01*
X13756D02*
X13756Y3724D01*
X7700Y8016D02*
X8792Y6924D01*
X11053D02*
X11380Y6597D01*
X8792Y6924D02*
X11053D01*
X11380Y5827D02*
Y6597D01*
Y5784D02*
Y5827D01*
X11700Y8016D02*
X11700D01*
X13700Y7422D02*
Y8016D01*
X12910Y6632D02*
X13700Y7422D01*
X13420Y6360D02*
X14651Y7591D01*
X14980D01*
X13420Y5677D02*
Y6360D01*
X13160Y5843D02*
Y6476D01*
X14700Y8016D01*
X13160Y5677D02*
Y5843D01*
X15583Y7899D02*
X15700Y8016D01*
X15288Y7899D02*
X15583D01*
X14980Y7591D02*
X15288Y7899D01*
X14843Y7370D02*
X16054D01*
X13682Y6208D02*
X14843Y7370D01*
X13682Y5681D02*
Y6208D01*
X16054Y7370D02*
X16700Y8016D01*
X13710Y994D02*
Y1915D01*
X12914Y2711D02*
Y3359D01*
Y2711D02*
X13710Y1915D01*
X13700Y984D02*
X13710Y994D01*
X14687Y997D02*
X14700Y984D01*
X14687Y997D02*
Y1374D01*
X13170Y2891D02*
X14687Y1374D01*
X14920Y1520D02*
X15164D01*
X15700Y984D01*
X13426Y3014D02*
Y3359D01*
Y3014D02*
X14920Y1520D01*
X13682Y3172D02*
Y3359D01*
X15020Y1833D02*
X15851D01*
X16700Y984D01*
X13682Y3172D02*
X15020Y1833D01*
X12402Y2396D02*
Y3359D01*
X11700Y984D02*
Y1694D01*
X10700Y984D02*
Y1078D01*
X12130Y2508D02*
Y3162D01*
X10700Y1078D02*
X12130Y2508D01*
X10746Y1529D02*
X11880Y2663D01*
Y3170D01*
X10245Y1529D02*
X10746D01*
X9700Y984D02*
X9700D01*
X10245Y1529D01*
X9403Y1688D02*
X10576D01*
X8700Y984D02*
X9403Y1688D01*
X10576D02*
X11634Y2746D01*
Y3359D01*
X8596Y1880D02*
X10407D01*
X11356Y2829D01*
Y3146D01*
X11370Y3160D01*
X11378Y5681D02*
Y5784D01*
X9290Y6080D02*
X9860D01*
X7760Y4063D02*
X7887Y3935D01*
X7760Y4063D02*
Y4095D01*
X8883Y6080D02*
X9290D01*
X12914Y5248D02*
X15502D01*
X7770Y4967D02*
X8883Y6080D01*
X7770Y4935D02*
Y4967D01*
X3880Y8070D02*
X4800D01*
X7760Y4095D02*
X7770Y4105D01*
Y4935D01*
X3740Y980D02*
X3750Y970D01*
X7700Y984D02*
X8596Y1880D01*
X12650Y1034D02*
X12700Y984D01*
X12650Y3184D02*
X12700Y984D01*
X13566Y8016D02*
X13700D01*
X12672Y7987D02*
X12700Y8016D01*
X12672Y5841D02*
Y7987D01*
X0Y394D02*
Y8661D01*
X394Y0D02*
X17323D01*
X394Y9055D02*
X17323D01*
X17717Y394D02*
Y8661D01*
X7049Y-940D02*
Y-340D01*
X6749Y-640D01*
X7149D01*
X7749Y-340D02*
X7349D01*
Y-640D01*
X7549Y-540D01*
X7649D01*
X7749Y-640D01*
Y-840D01*
X7649Y-940D01*
X7449D01*
X7349Y-840D01*
X7949Y-940D02*
Y-840D01*
X8048D01*
Y-940D01*
X7949D01*
X8448Y-440D02*
X8548Y-340D01*
X8748D01*
X8848Y-440D01*
Y-840D01*
X8748Y-940D01*
X8548D01*
X8448Y-840D01*
Y-440D01*
X9048D02*
X9148Y-340D01*
X9348D01*
X9448Y-440D01*
Y-840D01*
X9348Y-940D01*
X9148D01*
X9048Y-840D01*
Y-440D01*
X9648Y-940D02*
Y-540D01*
X9748D01*
X9848Y-640D01*
Y-940D01*
Y-640D01*
X9948Y-540D01*
X10048Y-640D01*
Y-940D01*
X10248D02*
Y-540D01*
X10348D01*
X10448Y-640D01*
Y-940D01*
Y-640D01*
X10548Y-540D01*
X10648Y-640D01*
Y-940D01*
X-730Y2818D02*
Y2418D01*
X-1130Y2818D01*
X-1230D01*
X-1330Y2718D01*
Y2518D01*
X-1230Y2418D01*
Y3018D02*
X-1330Y3118D01*
Y3318D01*
X-1230Y3418D01*
X-1130D01*
X-1030Y3318D01*
Y3218D01*
Y3318D01*
X-930Y3418D01*
X-830D01*
X-730Y3318D01*
Y3118D01*
X-830Y3018D01*
X-730Y3618D02*
X-830D01*
Y3718D01*
X-730D01*
Y3618D01*
X-1230Y4118D02*
X-1330Y4218D01*
Y4418D01*
X-1230Y4518D01*
X-830D01*
X-730Y4418D01*
Y4218D01*
X-830Y4118D01*
X-1230D01*
Y4717D02*
X-1330Y4817D01*
Y5017D01*
X-1230Y5117D01*
X-830D01*
X-730Y5017D01*
Y4817D01*
X-830Y4717D01*
X-1230D01*
X-730Y5317D02*
X-1130D01*
Y5417D01*
X-1030Y5517D01*
X-730D01*
X-1030D01*
X-1130Y5617D01*
X-1030Y5717D01*
X-730D01*
Y5917D02*
X-1130D01*
Y6017D01*
X-1030Y6117D01*
X-730D01*
X-1030D01*
X-1130Y6217D01*
X-1030Y6317D01*
X-730D01*
D15*
X2223Y5465D02*
G03*
X2203Y5494I-217J-130D01*
G01*
X2259Y3760D02*
G03*
X2249Y3832I-253J0D01*
G01*
X2203Y3601D02*
G03*
X2259Y3760I-197J159D01*
G01*
X2625Y5430D02*
X3882D01*
X2220Y5470D02*
X3882D01*
Y5271D02*
Y6150D01*
X2203Y5590D02*
X3882D01*
X2203Y5630D02*
X3882D01*
X2203Y5510D02*
X3882D01*
X2203Y5550D02*
X3882D01*
X2625Y5230D02*
X4320D01*
X2625Y5190D02*
X4320D01*
X3882Y5271D02*
X4320D01*
X3502Y5110D02*
X4320D01*
X2625Y5150D02*
X4320D01*
X2625Y5350D02*
X3882D01*
X2625Y5390D02*
X3882D01*
X2625Y5270D02*
X4320D01*
X2625Y5310D02*
X3882D01*
X2510Y6150D02*
X3882D01*
X2203Y5870D02*
X3882D01*
X2510Y6150D02*
Y8540D01*
X2203Y5790D02*
X3882D01*
X2203Y5830D02*
X3882D01*
X2202Y5990D02*
X3882D01*
X2202Y6030D02*
X3882D01*
X2202Y5910D02*
X3882D01*
X2202Y5950D02*
X3882D01*
X2938Y5135D02*
X3502D01*
X2223Y5465D02*
X2625D01*
Y5070D02*
X2938D01*
X2625Y5110D02*
X2938D01*
X2203Y5710D02*
X3882D01*
X2203Y5750D02*
X3882D01*
X2203Y5670D02*
X3882D01*
X3502Y4990D02*
X4320D01*
X3502Y4950D02*
X4320D01*
X3502Y5030D02*
X4320D01*
Y4650D02*
Y5271D01*
X3502Y4910D02*
X4320D01*
X3502Y5070D02*
X4320D01*
X3502Y4650D02*
Y5135D01*
X2938Y4650D02*
Y5135D01*
X3502Y4750D02*
X4320D01*
X3502Y4710D02*
X4320D01*
X3502Y4790D02*
X4320D01*
X3502Y4650D02*
X4320D01*
X3502Y4670D02*
X4320D01*
X3502Y4830D02*
X4320D01*
X3502Y4870D02*
X4320D01*
X2625Y5030D02*
X2938D01*
X2604Y4910D02*
X2938D01*
X2625Y4995D02*
Y5465D01*
X2604Y4870D02*
X2938D01*
X2604Y4751D02*
Y4856D01*
Y4950D02*
X2938D01*
X2604Y4990D02*
X2938D01*
X2604Y4856D02*
Y4995D01*
Y4856D02*
Y4995D01*
Y4710D02*
X2938D01*
X2604Y4750D02*
X2938D01*
X2604Y4650D02*
X2938D01*
X2604Y4670D02*
X2938D01*
X2604Y4790D02*
X2938D01*
X2604Y4830D02*
X2938D01*
X2604Y4650D02*
Y4751D01*
Y4650D02*
Y4751D01*
X2125Y7910D02*
X2510D01*
X2125Y7870D02*
X2510D01*
X2125Y7950D02*
X2510D01*
X2125Y7790D02*
X2510D01*
X2125Y7830D02*
X2510D01*
X1885Y8510D02*
X2510D01*
X1885Y8540D02*
X2510D01*
X2125Y8430D02*
X2510D01*
X1885Y8470D02*
X2510D01*
X1885Y7550D02*
X2510D01*
X2201Y7510D02*
X2510D01*
X2125Y7750D02*
X2510D01*
X2201Y7430D02*
X2510D01*
X2201Y7470D02*
X2510D01*
X1885Y7670D02*
X2510D01*
X1885Y7710D02*
X2510D01*
X1885Y7590D02*
X2510D01*
X1885Y7630D02*
X2510D01*
X2125Y8310D02*
X2510D01*
X2125Y8270D02*
X2510D01*
X2125Y8350D02*
X2510D01*
X2125Y8190D02*
X2510D01*
X2125Y8230D02*
X2510D01*
X1885Y8455D02*
X2125D01*
X1885D02*
Y8540D01*
X2125Y8390D02*
X2510D01*
X2125Y7735D02*
Y8455D01*
Y8070D02*
X2510D01*
X2125Y8110D02*
X2510D01*
X2125Y7990D02*
X2510D01*
X2125Y8030D02*
X2510D01*
X2125Y8150D02*
X2510D01*
X1885Y7735D02*
X2125D01*
X1885Y7520D02*
X2201D01*
X1885D02*
Y7735D01*
X2202Y6550D02*
X2510D01*
X2202Y6510D02*
X2510D01*
X2202Y6590D02*
X2510D01*
X2202Y6430D02*
X2510D01*
X2202Y6470D02*
X2510D01*
X2202Y6710D02*
X2510D01*
X2201Y7390D02*
X2510D01*
X2202Y6630D02*
X2510D01*
X2202Y6670D02*
X2510D01*
X2202Y6190D02*
X2510D01*
X2202Y6150D02*
X2510D01*
X2202Y6230D02*
X2510D01*
X2202Y6070D02*
X3882D01*
X2202Y6110D02*
X3882D01*
X2202Y6350D02*
X2510D01*
X2202Y6390D02*
X2510D01*
X2202Y6270D02*
X2510D01*
X2202Y6310D02*
X2510D01*
X2201Y7190D02*
X2510D01*
X2201Y7150D02*
X2510D01*
X2201Y7230D02*
X2510D01*
X2201Y7070D02*
X2510D01*
X2201Y7110D02*
X2510D01*
X2201Y7310D02*
X2510D01*
X2201Y7350D02*
X2510D01*
X2201Y7270D02*
X2510D01*
X2201Y7520D02*
X2203Y5494D01*
X2202Y6830D02*
X2510D01*
X2202Y6870D02*
X2510D01*
X2202Y6750D02*
X2510D01*
X2202Y6790D02*
X2510D01*
X2201Y6990D02*
X2510D01*
X2201Y7030D02*
X2510D01*
X2202Y6910D02*
X2510D01*
X2202Y6950D02*
X2510D01*
X6278Y5390D02*
X7090D01*
Y5095D02*
Y6190D01*
X6278Y5470D02*
X7090D01*
X6278Y5430D02*
X7090D01*
X6278Y5310D02*
X7090D01*
X6568Y5095D02*
X7090D01*
X6278Y5350D02*
X7090D01*
X6278Y6150D02*
X7090D01*
X6278Y5950D02*
X7090D01*
X6278Y6190D02*
X7090D01*
X6278Y5590D02*
X7090D01*
X6278Y5510D02*
X7090D01*
X6278Y5870D02*
X7090D01*
X6568Y4600D02*
Y5095D01*
X6450Y4710D02*
X6568D01*
X6450Y4630D02*
X6568D01*
X6462Y4600D02*
X6568D01*
X6450Y4670D02*
X6568D01*
X6340Y4870D02*
X6568D01*
X6380Y4830D02*
X6568D01*
X6300Y4910D02*
X6568D01*
X6450Y4750D02*
X6568D01*
X6450Y4610D02*
Y4760D01*
X6420Y4790D02*
X6568D01*
X6278Y5750D02*
X7090D01*
X6278Y5710D02*
X7090D01*
X6278Y5830D02*
X7090D01*
X6278Y5790D02*
X7090D01*
X6278Y5630D02*
X7090D01*
X6278Y5550D02*
X7090D01*
X6278Y5670D02*
X7090D01*
X6278Y6070D02*
X7090D01*
X6278Y6030D02*
X7090D01*
X6278Y6110D02*
X7090D01*
X6278Y5990D02*
X7090D01*
X6278Y5910D02*
X7090D01*
X6020Y5190D02*
X7090D01*
X6060Y5150D02*
X7090D01*
X5940Y5270D02*
X7090D01*
X5980Y5230D02*
X7090D01*
X6220Y4990D02*
X6568D01*
X6260Y4950D02*
X6568D01*
X6100Y5110D02*
X7090D01*
X5939Y5271D02*
X6278D01*
Y6190D01*
X6140Y5070D02*
X6568D01*
X6180Y5030D02*
X6568D01*
X5939Y5271D02*
X6450Y4760D01*
X6320Y4490D02*
X6360D01*
X6320Y4310D02*
X6351D01*
X6320Y3670D02*
X6360Y4490D01*
X6320Y3670D02*
Y4490D01*
Y4470D02*
X6359D01*
X6320Y4430D02*
X6357D01*
X6320Y4390D02*
X6355D01*
X6320Y4350D02*
X6353D01*
X2604Y3990D02*
X2938D01*
X2604Y3910D02*
X2938D01*
X2604Y3950D02*
X2938D01*
X2663Y4110D02*
X2938D01*
X2604Y4100D02*
X2938Y4154D01*
X2604Y4030D02*
X2938D01*
X2604Y4070D02*
X2938D01*
X3220Y3410D02*
Y3885D01*
X2604Y3870D02*
X3220D01*
X2259Y3750D02*
X3220D01*
X2938Y3885D02*
Y4154D01*
X2604Y3832D02*
Y4100D01*
X2938Y3885D02*
X3220D01*
X2258Y3790D02*
X3220D01*
X2254Y3710D02*
X3220D01*
X2243Y3670D02*
X3220D01*
X2223Y3630D02*
X3220D01*
X2249Y3832D02*
X2604D01*
X2250Y3830D02*
X3220D01*
X2203Y3470D02*
X3220D01*
X2203Y3510D02*
X3220D01*
X2203Y3410D02*
X3220D01*
X2203Y3430D02*
X3220D01*
X2203Y3590D02*
X3220D01*
X2203Y3410D02*
Y3601D01*
Y3550D02*
X3220D01*
D16*
X17323Y0D02*
G03*
X17717Y394I0J394D01*
G01*
X17717Y8661D02*
G03*
X17323Y9055I-394J0D01*
G01*
X394D02*
G03*
X0Y8661I0J-394D01*
G01*
Y394D02*
G03*
X394Y0I394J0D01*
G01*
D17*
X3282Y990D02*
X3768Y1476D01*
X5040D01*
X6790Y3226D01*
X7340Y5480D02*
X7350Y4210D01*
X0Y-580D02*
X600Y-380D01*
X0Y-580D02*
X600Y-780D01*
X17117D02*
X17717Y-580D01*
X17117Y-380D02*
X17717Y-580D01*
X0D02*
X6589D01*
X10808D02*
X17717D01*
X0Y-680D02*
Y294D01*
X17717Y-680D02*
Y294D01*
X-1090Y9055D02*
X-890Y8455D01*
X-1290D02*
X-1090Y9055D01*
X-1290Y600D02*
X-1090Y0D01*
X-890Y600D01*
X-1090Y6477D02*
Y9055D01*
Y0D02*
Y2258D01*
X-1190Y9055D02*
X294D01*
X-1190Y0D02*
X294D01*
D18*
X3870Y990D02*
D03*
X3250D02*
D03*
X3260Y8070D02*
D03*
X3880D02*
D03*
D19*
X4780Y990D02*
D03*
X5680D02*
D03*
X4800Y8070D02*
D03*
X5700D02*
D03*
D20*
X13682Y5681D02*
D03*
X13426D02*
D03*
X13170D02*
D03*
X12914D02*
D03*
X12658D02*
D03*
X12402D02*
D03*
X11378D02*
D03*
X13682Y3359D02*
D03*
X13426D02*
D03*
X13170D02*
D03*
X12914D02*
D03*
X12658D02*
D03*
X12402D02*
D03*
X12146D02*
D03*
X11890D02*
D03*
X11634D02*
D03*
X11378D02*
D03*
X11890Y5681D02*
D03*
X12146D02*
D03*
X11634D02*
D03*
D21*
X10500Y4250D02*
D03*
Y4870D02*
D03*
X7760Y4095D02*
D03*
Y3475D02*
D03*
X7770Y4935D02*
D03*
Y5555D02*
D03*
X6850Y4160D02*
D03*
Y4780D02*
D03*
X3220Y4820D02*
D03*
Y4200D02*
D03*
D22*
X9298Y2957D02*
D03*
X9290Y6080D02*
D03*
D23*
X5080Y5790D02*
D03*
X4174D02*
D03*
X5986D02*
D03*
D24*
X5080Y3240D02*
D03*
D25*
X2203Y5059D02*
D03*
Y4036D02*
D03*
Y4803D02*
D03*
Y4548D02*
D03*
Y4292D02*
D03*
D26*
X1160Y6122D02*
D03*
Y2973D02*
D03*
Y4075D02*
D03*
Y5020D02*
D03*
D41*
X11472Y4378D02*
Y4392D01*
X11462Y4372D02*
X11470Y4380D01*
X10700Y8016D02*
Y8500D01*
X16770Y4025D02*
X17255D01*
X16285D02*
X16770D01*
X10500Y4250D02*
X10757D01*
X10500Y3960D02*
Y4250D01*
X10243D02*
X10500D01*
X9298Y2957D02*
X9634D01*
X9298D02*
Y3411D01*
Y2503D02*
Y2957D01*
X5700Y8070D02*
X6025D01*
X5700D02*
Y8420D01*
X5375Y8070D02*
X5700D01*
Y7720D02*
Y8070D01*
X7770Y5555D02*
Y5845D01*
Y5555D02*
X8027D01*
X6850Y4780D02*
Y5070D01*
X6593Y4780D02*
X6850D01*
X5986Y5790D02*
X6253D01*
X5986D02*
Y6284D01*
Y5296D02*
Y5790D01*
X8962Y2957D02*
X9298D01*
X3220Y4200D02*
X3477D01*
X2963D02*
X3220D01*
Y3910D02*
Y4200D01*
X1190Y320D02*
Y970D01*
Y1620D01*
X540Y970D02*
X1190D01*
X1840D01*
X3907Y5790D02*
X4174D01*
Y5296D02*
Y5790D01*
X3220Y4820D02*
Y5110D01*
Y4820D02*
X3477D01*
X2963D02*
X3220D01*
X15050Y4820D02*
X15565D01*
X16770Y6025D01*
D42*
X10553Y4817D02*
X10793D01*
X10810Y4800D01*
X10500Y4870D02*
X10553Y4817D01*
X11890Y4809D02*
X11890Y5681D01*
X11890Y4780D02*
X11890Y4809D01*
X12150Y5254D02*
Y5686D01*
X12146Y5681D02*
X12150D01*
X11885Y5687D02*
Y6688D01*
X11250Y7323D02*
X11885Y6688D01*
X10392Y7323D02*
X11250D01*
X10492Y3900D02*
Y4242D01*
X10484Y3892D02*
X10492Y3900D01*
X5700Y8070D02*
X6150D01*
X9700Y8016D02*
X10392Y7323D01*
X11470Y4404D02*
X11634Y4569D01*
Y5681D01*
X11470Y4380D02*
Y4404D01*
X11634Y5681D02*
Y5876D01*
X7770Y5555D02*
Y5588D01*
X7288Y6070D02*
X7770Y5588D01*
X6820Y6070D02*
X7288D01*
X10492Y4242D02*
X10500Y4250D01*
X4844Y3240D02*
X5080D01*
X3250Y990D02*
X3282D01*
X11885Y5687D02*
X11890Y5681D01*
X2850Y8080D02*
X2860Y8070D01*
X3260D01*
D43*
X6850Y4780D02*
Y5070D01*
X6593Y4780D02*
X6850D01*
X5986Y5790D02*
X6253D01*
X5986Y5296D02*
Y5790D01*
X2963Y4200D02*
X3220D01*
Y3910D02*
Y4200D01*
D44*
X2095Y8105D02*
D03*
D45*
X2601Y5181D02*
D03*
D46*
X6215Y5800D02*
D03*
D47*
X5745Y3215D02*
D03*
D48*
X5105Y3695D02*
D03*
D49*
X1670Y8095D02*
D03*
D50*
X2400Y3865D02*
D03*
D51*
X2405Y5230D02*
D03*
D52*
X1190Y970D02*
D03*
X1210Y8030D02*
D03*
D53*
X16770Y6025D02*
D03*
D54*
Y5025D02*
D03*
Y4025D02*
D03*
Y3025D02*
D03*
X15700Y984D02*
D03*
X14700D02*
D03*
X13700D02*
D03*
X12700D02*
D03*
X11700D02*
D03*
X10700D02*
D03*
X9700D02*
D03*
X8700D02*
D03*
X7700D02*
D03*
X8700Y8016D02*
D03*
X10700D02*
D03*
X9700D02*
D03*
X7700D02*
D03*
X11700D02*
D03*
X12700D02*
D03*
X13700D02*
D03*
X14700D02*
D03*
X15700D02*
D03*
D55*
X16700Y984D02*
D03*
Y8016D02*
D03*
D56*
X2006Y3760D02*
D03*
Y5335D02*
D03*
D57*
X10810Y4800D02*
D03*
X11907Y4809D02*
D03*
X12150Y5254D02*
D03*
X10484Y3892D02*
D03*
X6150Y8070D02*
D03*
X7340Y5480D02*
D03*
X7050Y3226D02*
D03*
X15050Y4820D02*
D03*
X11470Y4380D02*
D03*
X15502Y5248D02*
D03*
X9860Y6080D02*
D03*
X12914Y5248D02*
D03*
X6560Y6070D02*
D03*
X6820D02*
D03*
X6790Y3226D02*
D03*
X2760Y3620D02*
D03*
X3020D02*
D03*
X2850Y8080D02*
D03*
M02*
