G04*
G04 #@! TF.GenerationSoftware,Altium Limited,Altium Designer,21.2.2 (38)*
G04*
G04 Layer_Color=255*
%FSLAX24Y24*%
%MOIN*%
G70*
G04*
G04 #@! TF.SameCoordinates,73095A83-B390-47B6-BD11-AEDCE0CE4F92*
G04*
G04*
G04 #@! TF.FilePolarity,Positive*
G04*
G01*
G75*
%ADD13C,0.0060*%
%ADD16C,0.0060*%
%ADD17C,0.0100*%
%ADD18R,0.0380X0.0315*%
%ADD19R,0.0450X0.0500*%
%ADD20O,0.0177X0.0551*%
%ADD21R,0.0315X0.0380*%
%ADD22R,0.0472X0.0709*%
%ADD23R,0.0335X0.0787*%
%ADD24R,0.1260X0.0787*%
%ADD25R,0.0551X0.0157*%
%ADD26R,0.0748X0.0709*%
%ADD52R,0.1000X0.1000*%
%ADD53R,0.0669X0.0669*%
%ADD54C,0.0669*%
%ADD55R,0.0669X0.0669*%
%ADD56C,0.0256*%
D13*
X0Y394D02*
Y8661D01*
X394Y0D02*
X17323D01*
X394Y9055D02*
X17323D01*
X17717Y394D02*
Y8661D01*
X7049Y-940D02*
Y-340D01*
X6749Y-640D01*
X7149D01*
X7749Y-340D02*
X7349D01*
Y-640D01*
X7549Y-540D01*
X7649D01*
X7749Y-640D01*
Y-840D01*
X7649Y-940D01*
X7449D01*
X7349Y-840D01*
X7949Y-940D02*
Y-840D01*
X8048D01*
Y-940D01*
X7949D01*
X8448Y-440D02*
X8548Y-340D01*
X8748D01*
X8848Y-440D01*
Y-840D01*
X8748Y-940D01*
X8548D01*
X8448Y-840D01*
Y-440D01*
X9048D02*
X9148Y-340D01*
X9348D01*
X9448Y-440D01*
Y-840D01*
X9348Y-940D01*
X9148D01*
X9048Y-840D01*
Y-440D01*
X9648Y-940D02*
Y-540D01*
X9748D01*
X9848Y-640D01*
Y-940D01*
Y-640D01*
X9948Y-540D01*
X10048Y-640D01*
Y-940D01*
X10248D02*
Y-540D01*
X10348D01*
X10448Y-640D01*
Y-940D01*
Y-640D01*
X10548Y-540D01*
X10648Y-640D01*
Y-940D01*
X-730Y2818D02*
Y2418D01*
X-1130Y2818D01*
X-1230D01*
X-1330Y2718D01*
Y2518D01*
X-1230Y2418D01*
Y3018D02*
X-1330Y3118D01*
Y3318D01*
X-1230Y3418D01*
X-1130D01*
X-1030Y3318D01*
Y3218D01*
Y3318D01*
X-930Y3418D01*
X-830D01*
X-730Y3318D01*
Y3118D01*
X-830Y3018D01*
X-730Y3618D02*
X-830D01*
Y3718D01*
X-730D01*
Y3618D01*
X-1230Y4118D02*
X-1330Y4218D01*
Y4418D01*
X-1230Y4518D01*
X-830D01*
X-730Y4418D01*
Y4218D01*
X-830Y4118D01*
X-1230D01*
Y4717D02*
X-1330Y4817D01*
Y5017D01*
X-1230Y5117D01*
X-830D01*
X-730Y5017D01*
Y4817D01*
X-830Y4717D01*
X-1230D01*
X-730Y5317D02*
X-1130D01*
Y5417D01*
X-1030Y5517D01*
X-730D01*
X-1030D01*
X-1130Y5617D01*
X-1030Y5717D01*
X-730D01*
Y5917D02*
X-1130D01*
Y6017D01*
X-1030Y6117D01*
X-730D01*
X-1030D01*
X-1130Y6217D01*
X-1030Y6317D01*
X-730D01*
D16*
X17323Y0D02*
G03*
X17717Y394I0J394D01*
G01*
X17717Y8661D02*
G03*
X17323Y9055I-394J0D01*
G01*
X394D02*
G03*
X0Y8661I0J-394D01*
G01*
Y394D02*
G03*
X394Y0I394J0D01*
G01*
D17*
X0Y-580D02*
X600Y-380D01*
X0Y-580D02*
X600Y-780D01*
X17117D02*
X17717Y-580D01*
X17117Y-380D02*
X17717Y-580D01*
X0D02*
X6589D01*
X10808D02*
X17717D01*
X0Y-680D02*
Y294D01*
X17717Y-680D02*
Y294D01*
X-1090Y9055D02*
X-890Y8455D01*
X-1290D02*
X-1090Y9055D01*
X-1290Y600D02*
X-1090Y0D01*
X-890Y600D01*
X-1090Y6477D02*
Y9055D01*
Y0D02*
Y2258D01*
X-1190Y9055D02*
X294D01*
X-1190Y0D02*
X294D01*
D18*
X3870Y990D02*
D03*
X3250D02*
D03*
X3260Y8070D02*
D03*
X3880D02*
D03*
D19*
X4780Y990D02*
D03*
X5680D02*
D03*
X4800Y8070D02*
D03*
X5700D02*
D03*
D20*
X13682Y5681D02*
D03*
X13426D02*
D03*
X13170D02*
D03*
X12914D02*
D03*
X12658D02*
D03*
X12402D02*
D03*
X11378D02*
D03*
X13682Y3359D02*
D03*
X13426D02*
D03*
X13170D02*
D03*
X12914D02*
D03*
X12658D02*
D03*
X12402D02*
D03*
X12146D02*
D03*
X11890D02*
D03*
X11634D02*
D03*
X11378D02*
D03*
X11890Y5681D02*
D03*
X12146D02*
D03*
X11634D02*
D03*
D21*
X10500Y4250D02*
D03*
Y4870D02*
D03*
X7760Y4095D02*
D03*
Y3475D02*
D03*
X7770Y4935D02*
D03*
Y5555D02*
D03*
X6850Y4160D02*
D03*
Y4780D02*
D03*
X3220Y4820D02*
D03*
Y4200D02*
D03*
D22*
X9298Y2957D02*
D03*
X9290Y6080D02*
D03*
D23*
X5080Y5790D02*
D03*
X4174D02*
D03*
X5986D02*
D03*
D24*
X5080Y3240D02*
D03*
D25*
X2203Y5059D02*
D03*
Y4036D02*
D03*
Y4803D02*
D03*
Y4548D02*
D03*
Y4292D02*
D03*
D26*
X1160Y6122D02*
D03*
Y2973D02*
D03*
Y4075D02*
D03*
Y5020D02*
D03*
D52*
X1190Y970D02*
D03*
X1210Y8030D02*
D03*
D53*
X16770Y6025D02*
D03*
D54*
Y5025D02*
D03*
Y4025D02*
D03*
Y3025D02*
D03*
X15700Y984D02*
D03*
X14700D02*
D03*
X13700D02*
D03*
X12700D02*
D03*
X11700D02*
D03*
X10700D02*
D03*
X9700D02*
D03*
X8700D02*
D03*
X7700D02*
D03*
X8700Y8016D02*
D03*
X10700D02*
D03*
X9700D02*
D03*
X7700D02*
D03*
X11700D02*
D03*
X12700D02*
D03*
X13700D02*
D03*
X14700D02*
D03*
X15700D02*
D03*
D55*
X16700Y984D02*
D03*
Y8016D02*
D03*
D56*
X2006Y3760D02*
D03*
Y5335D02*
D03*
M02*
