M48
;Layer_Color=9474304
;FILE_FORMAT=2:4
INCH,LZ
;TYPE=PLATED
T1F00S00C0.0120
T2F00S00C0.0354
T3F00S00C0.0600
;TYPE=NON_PLATED
T4F00S00C0.0256
%
T01
X00276Y00362
X00302
X00679Y003226
X00705
X00734Y00548
X00682Y00607
X00656
X00615Y00807
X00285Y00808
X00986Y00608
X01081Y0048
X01147Y00438
X011907Y004809
X01215Y005254
X012914Y005248
X01505Y00482
X015502Y005248
X010484Y003892
T02
X0077Y000984
X0087
Y008016
X0077
X0097
X0107
X0117
X0127
X0137
X0147
X0157
X0167
X01677Y006025
Y005025
Y004025
Y003025
X0167Y000984
X0157
X0147
X0137
X0127
X0117
X0107
X0097
T03
X00119Y00097
X00121Y00803
T04
X002006Y00376
Y005335
M30
